<?xml version="1.0" encoding="UTF-8"?>
<svg xmlns="http://www.w3.org/2000/svg" xmlns:xlink="http://www.w3.org/1999/xlink" width="79pt" height="78pt" viewBox="0 0 79 78" version="1.1">
<g id="surface1">
<path style="fill:none;stroke-width:0.3985;stroke-linecap:butt;stroke-linejoin:miter;stroke:rgb(75%,75%,75%);stroke-opacity:1;stroke-miterlimit:10;" d="M -0.00125 0.00175 L 74.408906 0.00175 M -0.00125 21.259563 L 74.408906 21.259563 M -0.00125 42.521281 L 74.408906 42.521281 M -0.00125 63.779094 L 74.408906 63.779094 M -0.00125 0.00175 L -0.00125 74.411906 M 21.260469 0.00175 L 21.260469 74.411906 M 42.518281 0.00175 L 42.518281 74.411906 M 63.78 0.00175 L 63.78 74.411906 " transform="matrix(1,0,0,-1,3.72,75.408)"/>
<path style="fill:none;stroke-width:0.79701;stroke-linecap:butt;stroke-linejoin:miter;stroke:rgb(0%,0%,0%);stroke-opacity:1;stroke-miterlimit:10;" d="M -0.00125 0.00175 L -0.00125 73.704875 " transform="matrix(1,0,0,-1,3.72,75.408)"/>
<path style="fill:none;stroke-width:0.6376;stroke-linecap:round;stroke-linejoin:round;stroke:rgb(0%,0%,0%);stroke-opacity:1;stroke-miterlimit:10;" d="M -1.552812 2.071562 C -1.423906 1.294219 0.001875 0.130156 0.388594 0.00125 C 0.001875 -0.127656 -1.423906 -1.295625 -1.552812 -2.072969 " transform="matrix(0,-1,-1,0,3.72,1.705)"/>
<path style="fill:none;stroke-width:0.79701;stroke-linecap:butt;stroke-linejoin:miter;stroke:rgb(0%,0%,0%);stroke-opacity:1;stroke-miterlimit:10;" d="M -0.00125 0.00175 L 73.701875 0.00175 " transform="matrix(1,0,0,-1,3.72,75.408)"/>
<path style="fill:none;stroke-width:0.6376;stroke-linecap:round;stroke-linejoin:round;stroke:rgb(0%,0%,0%);stroke-opacity:1;stroke-miterlimit:10;" d="M -1.555813 2.072063 C -1.423 1.294719 -0.001125 0.130656 0.3895 0.00175 C -0.001125 -0.131062 -1.423 -1.295125 -1.555813 -2.072469 " transform="matrix(1,0,0,-1,77.423,75.408)"/>
<path style=" stroke:none;fill-rule:nonzero;fill:rgb(0%,0%,0%);fill-opacity:1;" d="M 27.222656 32.886719 C 27.222656 31.648438 26.21875 30.644531 24.980469 30.644531 C 23.742188 30.644531 22.738281 31.648438 22.738281 32.886719 C 22.738281 34.125 23.742188 35.128906 24.980469 35.128906 C 26.21875 35.128906 27.222656 34.125 27.222656 32.886719 Z M 48.480469 54.148438 C 48.480469 52.910156 47.476563 51.90625 46.238281 51.90625 C 45.003906 51.90625 44 52.910156 44 54.148438 C 44 55.386719 45.003906 56.390625 46.238281 56.390625 C 47.476563 56.390625 48.480469 55.386719 48.480469 54.148438 Z M 69.742188 11.628906 C 69.742188 10.390625 68.738281 9.386719 67.5 9.386719 C 66.261719 9.386719 65.257813 10.390625 65.257813 11.628906 C 65.257813 12.867188 66.261719 13.871094 67.5 13.871094 C 68.738281 13.871094 69.742188 12.867188 69.742188 11.628906 Z M 69.742188 11.628906 "/>
</g>
</svg>
