<?xml version="1.0" encoding="UTF-8"?>
<svg xmlns="http://www.w3.org/2000/svg" xmlns:xlink="http://www.w3.org/1999/xlink" width="63pt" height="57pt" viewBox="0 0 63 57" version="1.1">
<g id="surface1">
<path style="fill:none;stroke-width:0.3985;stroke-linecap:butt;stroke-linejoin:miter;stroke:rgb(0%,0%,0%);stroke-opacity:1;stroke-miterlimit:10;" d="M -25.51225 -25.510406 C -35.461469 -16.897125 -35.461469 -8.615875 -25.51225 0.0013125 C -35.461469 8.614594 -35.461469 16.895844 -25.51225 25.513031 C -15.563031 16.895844 -15.563031 8.614594 -25.51225 0.0013125 C -15.563031 -8.615875 -15.563031 -16.897125 -25.51225 -25.510406 " transform="matrix(1,0,0,-1,33.981,28.306)"/>
<path style=" stroke:none;fill-rule:nonzero;fill:rgb(0%,0%,0%);fill-opacity:1;" d="M 10.460938 53.816406 C 10.460938 52.71875 9.570313 51.824219 8.46875 51.824219 C 7.367188 51.824219 6.476563 52.71875 6.476563 53.816406 C 6.476563 54.917969 7.367188 55.808594 8.46875 55.808594 C 9.570313 55.808594 10.460938 54.917969 10.460938 53.816406 Z M 10.460938 53.816406 "/>
<path style=" stroke:none;fill-rule:nonzero;fill:rgb(0%,0%,0%);fill-opacity:1;" d="M 10.460938 28.304688 C 10.460938 27.207031 9.570313 26.3125 8.46875 26.3125 C 7.367188 26.3125 6.476563 27.207031 6.476563 28.304688 C 6.476563 29.40625 7.367188 30.296875 8.46875 30.296875 C 9.570313 30.296875 10.460938 29.40625 10.460938 28.304688 Z M 10.460938 28.304688 "/>
<path style=" stroke:none;fill-rule:nonzero;fill:rgb(0%,0%,0%);fill-opacity:1;" d="M 10.460938 2.792969 C 10.460938 1.695313 9.570313 0.800781 8.46875 0.800781 C 7.367188 0.800781 6.476563 1.695313 6.476563 2.792969 C 6.476563 3.894531 7.367188 4.785156 8.46875 4.785156 C 9.570313 4.785156 10.460938 3.894531 10.460938 2.792969 Z M 10.460938 2.792969 "/>
<path style="fill:none;stroke-width:0.3985;stroke-linecap:butt;stroke-linejoin:miter;stroke:rgb(0%,0%,0%);stroke-opacity:1;stroke-miterlimit:10;" d="M 25.511187 0.0013125 L -25.51225 25.513031 M -25.51225 0.0013125 L 25.511187 0.0013125 L -25.51225 -25.510406 " transform="matrix(1,0,0,-1,33.981,28.306)"/>
<path style=" stroke:none;fill-rule:nonzero;fill:rgb(0%,0%,0%);fill-opacity:1;" d="M 61.484375 28.304688 C 61.484375 27.207031 60.59375 26.3125 59.492188 26.3125 C 58.390625 26.3125 57.5 27.207031 57.5 28.304688 C 57.5 29.40625 58.390625 30.296875 59.492188 30.296875 C 60.59375 30.296875 61.484375 29.40625 61.484375 28.304688 Z M 61.484375 28.304688 "/>
</g>
</svg>
