<?xml version="1.0" encoding="UTF-8"?>
<svg xmlns="http://www.w3.org/2000/svg" xmlns:xlink="http://www.w3.org/1999/xlink" width="296pt" height="77pt" viewBox="0 0 296 77" version="1.1">
<defs>
<clipPath id="clip1">
  <path d="M 1.320313 7 L 295 7 L 295 71 L 1.320313 71 Z M 1.320313 7 "/>
</clipPath>
<clipPath id="clip2">
  <path d="M 1.320313 0 L 295 0 L 295 32 L 1.320313 32 Z M 1.320313 0 "/>
</clipPath>
<clipPath id="clip3">
  <path d="M 1.320313 32.277344 C 1.320313 32.277344 28.96875 30.007813 39.585938 27.175781 C 50.207031 24.34375 61.925781 13.28125 77.855469 11.867188 C 93.785156 10.449219 138.460938 16.96875 154.390625 16.96875 C 170.320313 16.96875 182.039063 10.804688 192.660156 11.867188 C 203.277344 12.929688 216.769531 21.792969 230.925781 24.625 C 245.085938 27.453125 294.707031 32.277344 294.707031 32.277344 L 294.707031 -39.15625 L 1.320313 -39.15625 "/>
</clipPath>
<linearGradient id="linear0" gradientUnits="userSpaceOnUse" x1="0" y1="25.002792" x2="0" y2="47.592394" gradientTransform="matrix(5.86845,0,0,-1.42883,-145.40948,68.00144)">
<stop offset="0" style="stop-color:rgb(73.724365%,76.470947%,65.100098%);stop-opacity:1;"/>
<stop offset="0.015625" style="stop-color:rgb(73.806763%,76.545715%,65.209961%);stop-opacity:1;"/>
<stop offset="0.03125" style="stop-color:rgb(73.974609%,76.695251%,65.431213%);stop-opacity:1;"/>
<stop offset="0.046875" style="stop-color:rgb(74.14093%,76.844788%,65.653992%);stop-opacity:1;"/>
<stop offset="0.0625" style="stop-color:rgb(74.308777%,76.994324%,65.875244%);stop-opacity:1;"/>
<stop offset="0.078125" style="stop-color:rgb(74.475098%,77.14386%,66.096497%);stop-opacity:1;"/>
<stop offset="0.09375" style="stop-color:rgb(74.641418%,77.293396%,66.319275%);stop-opacity:1;"/>
<stop offset="0.109375" style="stop-color:rgb(74.809265%,77.442932%,66.540527%);stop-opacity:1;"/>
<stop offset="0.125" style="stop-color:rgb(74.975586%,77.592468%,66.76178%);stop-opacity:1;"/>
<stop offset="0.140625" style="stop-color:rgb(75.143433%,77.742004%,66.984558%);stop-opacity:1;"/>
<stop offset="0.15625" style="stop-color:rgb(75.309753%,77.891541%,67.205811%);stop-opacity:1;"/>
<stop offset="0.171875" style="stop-color:rgb(75.476074%,78.041077%,67.427063%);stop-opacity:1;"/>
<stop offset="0.1875" style="stop-color:rgb(75.643921%,78.190613%,67.649841%);stop-opacity:1;"/>
<stop offset="0.203125" style="stop-color:rgb(75.810242%,78.340149%,67.871094%);stop-opacity:1;"/>
<stop offset="0.21875" style="stop-color:rgb(75.978088%,78.489685%,68.092346%);stop-opacity:1;"/>
<stop offset="0.234375" style="stop-color:rgb(76.144409%,78.639221%,68.313599%);stop-opacity:1;"/>
<stop offset="0.25" style="stop-color:rgb(76.31073%,78.788757%,68.536377%);stop-opacity:1;"/>
<stop offset="0.265625" style="stop-color:rgb(76.478577%,78.938293%,68.757629%);stop-opacity:1;"/>
<stop offset="0.28125" style="stop-color:rgb(76.644897%,79.08783%,68.978882%);stop-opacity:1;"/>
<stop offset="0.296875" style="stop-color:rgb(76.812744%,79.237366%,69.20166%);stop-opacity:1;"/>
<stop offset="0.3125" style="stop-color:rgb(76.979065%,79.386902%,69.422913%);stop-opacity:1;"/>
<stop offset="0.328125" style="stop-color:rgb(77.145386%,79.536438%,69.644165%);stop-opacity:1;"/>
<stop offset="0.34375" style="stop-color:rgb(77.313232%,79.684448%,69.866943%);stop-opacity:1;"/>
<stop offset="0.359375" style="stop-color:rgb(77.479553%,79.833984%,70.088196%);stop-opacity:1;"/>
<stop offset="0.375" style="stop-color:rgb(77.6474%,79.983521%,70.309448%);stop-opacity:1;"/>
<stop offset="0.390625" style="stop-color:rgb(77.813721%,80.133057%,70.532227%);stop-opacity:1;"/>
<stop offset="0.40625" style="stop-color:rgb(77.980042%,80.282593%,70.753479%);stop-opacity:1;"/>
<stop offset="0.421875" style="stop-color:rgb(78.147888%,80.432129%,70.974731%);stop-opacity:1;"/>
<stop offset="0.4375" style="stop-color:rgb(78.314209%,80.581665%,71.19751%);stop-opacity:1;"/>
<stop offset="0.453125" style="stop-color:rgb(78.482056%,80.731201%,71.418762%);stop-opacity:1;"/>
<stop offset="0.46875" style="stop-color:rgb(78.648376%,80.880737%,71.640015%);stop-opacity:1;"/>
<stop offset="0.484375" style="stop-color:rgb(78.816223%,81.030273%,71.861267%);stop-opacity:1;"/>
<stop offset="0.5" style="stop-color:rgb(78.982544%,81.17981%,72.084045%);stop-opacity:1;"/>
<stop offset="0.515625" style="stop-color:rgb(79.148865%,81.329346%,72.305298%);stop-opacity:1;"/>
<stop offset="0.53125" style="stop-color:rgb(79.316711%,81.478882%,72.52655%);stop-opacity:1;"/>
<stop offset="0.546875" style="stop-color:rgb(79.483032%,81.628418%,72.749329%);stop-opacity:1;"/>
<stop offset="0.5625" style="stop-color:rgb(79.650879%,81.777954%,72.970581%);stop-opacity:1;"/>
<stop offset="0.578125" style="stop-color:rgb(79.8172%,81.92749%,73.191833%);stop-opacity:1;"/>
<stop offset="0.59375" style="stop-color:rgb(79.983521%,82.077026%,73.414612%);stop-opacity:1;"/>
<stop offset="0.609375" style="stop-color:rgb(80.151367%,82.226563%,73.635864%);stop-opacity:1;"/>
<stop offset="0.625" style="stop-color:rgb(80.317688%,82.376099%,73.857117%);stop-opacity:1;"/>
<stop offset="0.640625" style="stop-color:rgb(80.485535%,82.525635%,74.079895%);stop-opacity:1;"/>
<stop offset="0.65625" style="stop-color:rgb(80.651855%,82.675171%,74.301147%);stop-opacity:1;"/>
<stop offset="0.671875" style="stop-color:rgb(80.818176%,82.824707%,74.5224%);stop-opacity:1;"/>
<stop offset="0.6875" style="stop-color:rgb(80.986023%,82.974243%,74.745178%);stop-opacity:1;"/>
<stop offset="0.703125" style="stop-color:rgb(81.152344%,83.123779%,74.966431%);stop-opacity:1;"/>
<stop offset="0.71875" style="stop-color:rgb(81.32019%,83.273315%,75.187683%);stop-opacity:1;"/>
<stop offset="0.734375" style="stop-color:rgb(81.486511%,83.422852%,75.408936%);stop-opacity:1;"/>
<stop offset="0.75" style="stop-color:rgb(81.652832%,83.572388%,75.631714%);stop-opacity:1;"/>
<stop offset="0.765625" style="stop-color:rgb(81.820679%,83.721924%,75.852966%);stop-opacity:1;"/>
<stop offset="0.78125" style="stop-color:rgb(81.987%,83.87146%,76.074219%);stop-opacity:1;"/>
<stop offset="0.796875" style="stop-color:rgb(82.154846%,84.020996%,76.296997%);stop-opacity:1;"/>
<stop offset="0.8125" style="stop-color:rgb(82.321167%,84.169006%,76.51825%);stop-opacity:1;"/>
<stop offset="0.828125" style="stop-color:rgb(82.487488%,84.318542%,76.739502%);stop-opacity:1;"/>
<stop offset="0.84375" style="stop-color:rgb(82.655334%,84.468079%,76.96228%);stop-opacity:1;"/>
<stop offset="0.859375" style="stop-color:rgb(82.821655%,84.617615%,77.183533%);stop-opacity:1;"/>
<stop offset="0.875" style="stop-color:rgb(82.989502%,84.767151%,77.404785%);stop-opacity:1;"/>
<stop offset="0.890625" style="stop-color:rgb(83.155823%,84.916687%,77.627563%);stop-opacity:1;"/>
<stop offset="0.90625" style="stop-color:rgb(83.322144%,85.066223%,77.848816%);stop-opacity:1;"/>
<stop offset="0.921875" style="stop-color:rgb(83.48999%,85.215759%,78.070068%);stop-opacity:1;"/>
<stop offset="0.9375" style="stop-color:rgb(83.656311%,85.365295%,78.292847%);stop-opacity:1;"/>
<stop offset="0.953125" style="stop-color:rgb(83.824158%,85.514832%,78.514099%);stop-opacity:1;"/>
<stop offset="0.96875" style="stop-color:rgb(83.990479%,85.664368%,78.735352%);stop-opacity:1;"/>
<stop offset="0.984375" style="stop-color:rgb(84.156799%,85.813904%,78.956604%);stop-opacity:1;"/>
<stop offset="1" style="stop-color:rgb(84.324646%,85.96344%,79.179382%);stop-opacity:1;"/>
</linearGradient>
<clipPath id="clip4">
  <path d="M 1.320313 0 L 296 0 L 296 44 L 1.320313 44 Z M 1.320313 0 "/>
</clipPath>
<clipPath id="clip5">
  <path d="M 1.320313 52 L 295 52 L 295 77 L 1.320313 77 Z M 1.320313 52 "/>
</clipPath>
<clipPath id="clip6">
  <path d="M 1.320313 55.238281 C 1.320313 55.238281 28.96875 50.917969 39.585938 52.6875 C 50.207031 54.457031 61.925781 66.578125 77.855469 67.992188 C 93.785156 69.410156 133.152344 63.246094 154.390625 62.890625 C 175.628906 62.535156 213.226563 66.148438 230.925781 65.441406 C 248.625 64.734375 273.101563 59.203125 281.949219 57.789063 C 290.800781 56.371094 294.707031 55.238281 294.707031 55.238281 L 294.707031 113.914063 L 1.320313 113.914063 "/>
</clipPath>
<linearGradient id="linear1" gradientUnits="userSpaceOnUse" x1="0" y1="54.297718" x2="0" y2="74.996976" gradientTransform="matrix(5.86845,0,0,-1.26012,-145.40948,145.42164)">
<stop offset="0" style="stop-color:rgb(81.88324%,83.776855%,75.93689%);stop-opacity:1;"/>
<stop offset="0.03125" style="stop-color:rgb(81.755066%,83.662415%,75.767517%);stop-opacity:1;"/>
<stop offset="0.0625" style="stop-color:rgb(81.500244%,83.433533%,75.428772%);stop-opacity:1;"/>
<stop offset="0.09375" style="stop-color:rgb(81.243896%,83.206177%,75.091553%);stop-opacity:1;"/>
<stop offset="0.125" style="stop-color:rgb(80.989075%,82.977295%,74.752808%);stop-opacity:1;"/>
<stop offset="0.15625" style="stop-color:rgb(80.734253%,82.748413%,74.414063%);stop-opacity:1;"/>
<stop offset="0.1875" style="stop-color:rgb(80.479431%,82.521057%,74.075317%);stop-opacity:1;"/>
<stop offset="0.21875" style="stop-color:rgb(80.224609%,82.292175%,73.736572%);stop-opacity:1;"/>
<stop offset="0.25" style="stop-color:rgb(79.969788%,82.064819%,73.397827%);stop-opacity:1;"/>
<stop offset="0.28125" style="stop-color:rgb(79.714966%,81.835938%,73.059082%);stop-opacity:1;"/>
<stop offset="0.3125" style="stop-color:rgb(79.460144%,81.607056%,72.720337%);stop-opacity:1;"/>
<stop offset="0.34375" style="stop-color:rgb(79.205322%,81.3797%,72.381592%);stop-opacity:1;"/>
<stop offset="0.375" style="stop-color:rgb(78.9505%,81.150818%,72.042847%);stop-opacity:1;"/>
<stop offset="0.40625" style="stop-color:rgb(78.695679%,80.923462%,71.704102%);stop-opacity:1;"/>
<stop offset="0.4375" style="stop-color:rgb(78.440857%,80.69458%,71.365356%);stop-opacity:1;"/>
<stop offset="0.46875" style="stop-color:rgb(78.186035%,80.465698%,71.026611%);stop-opacity:1;"/>
<stop offset="0.5" style="stop-color:rgb(77.931213%,80.238342%,70.687866%);stop-opacity:1;"/>
<stop offset="0.53125" style="stop-color:rgb(77.674866%,80.00946%,70.349121%);stop-opacity:1;"/>
<stop offset="0.5625" style="stop-color:rgb(77.420044%,79.782104%,70.010376%);stop-opacity:1;"/>
<stop offset="0.59375" style="stop-color:rgb(77.165222%,79.553223%,69.671631%);stop-opacity:1;"/>
<stop offset="0.625" style="stop-color:rgb(76.9104%,79.324341%,69.332886%);stop-opacity:1;"/>
<stop offset="0.65625" style="stop-color:rgb(76.655579%,79.096985%,68.994141%);stop-opacity:1;"/>
<stop offset="0.6875" style="stop-color:rgb(76.400757%,78.868103%,68.656921%);stop-opacity:1;"/>
<stop offset="0.71875" style="stop-color:rgb(76.145935%,78.640747%,68.318176%);stop-opacity:1;"/>
<stop offset="0.75" style="stop-color:rgb(75.891113%,78.411865%,67.979431%);stop-opacity:1;"/>
<stop offset="0.78125" style="stop-color:rgb(75.636292%,78.182983%,67.640686%);stop-opacity:1;"/>
<stop offset="0.8125" style="stop-color:rgb(75.38147%,77.955627%,67.301941%);stop-opacity:1;"/>
<stop offset="0.84375" style="stop-color:rgb(75.126648%,77.726746%,66.963196%);stop-opacity:1;"/>
<stop offset="0.875" style="stop-color:rgb(74.871826%,77.497864%,66.624451%);stop-opacity:1;"/>
<stop offset="0.90625" style="stop-color:rgb(74.617004%,77.270508%,66.285706%);stop-opacity:1;"/>
<stop offset="0.9375" style="stop-color:rgb(74.362183%,77.041626%,65.94696%);stop-opacity:1;"/>
<stop offset="0.96875" style="stop-color:rgb(74.105835%,76.81427%,65.608215%);stop-opacity:1;"/>
<stop offset="1" style="stop-color:rgb(73.851013%,76.585388%,65.26947%);stop-opacity:1;"/>
</linearGradient>
<clipPath id="clip7">
  <path d="M 1.320313 40 L 296 40 L 296 77 L 1.320313 77 Z M 1.320313 40 "/>
</clipPath>
</defs>
<g id="surface1">
<g clip-path="url(#clip1)" clip-rule="nonzero">
<path style=" stroke:none;fill-rule:nonzero;fill:rgb(57.255554%,63.526917%,100%);fill-opacity:1;" d="M 1.320313 70.542969 L 1.320313 7.019531 L 294.707031 7.019531 L 294.707031 70.542969 Z M 1.320313 70.542969 "/>
</g>
<path style="fill-rule:nonzero;fill:rgb(73.722839%,76.470947%,65.098572%);fill-opacity:1;stroke-width:0.79701;stroke-linecap:butt;stroke-linejoin:miter;stroke:rgb(0%,0%,0%);stroke-opacity:1;stroke-miterlimit:10;" d="M -12.754281 12.754 C -16.29725 14.879 -20.2035 14.59775 -25.512094 15.308688 C -30.820687 16.015719 -43.945687 18.211031 -51.023812 17.859469 C -58.101937 17.504 -71.933969 17.711031 -76.535531 12.754 C -81.137094 7.800875 -84.898812 -13.257719 -84.187875 -17.859281 C -83.480844 -22.460844 -79.574594 -20.410062 -71.433969 -20.410062 C -63.293344 -20.410062 -34.35975 -18.921781 -25.512094 -17.859281 C -16.664437 -16.796781 -11.191781 -15.234281 -7.652719 -12.757719 C -4.113656 -10.27725 0.706656 -3.538969 -0.000375 0.00009375 C -0.707406 3.539156 -9.215219 10.632906 -12.754281 12.754 Z M -12.754281 12.754 " transform="matrix(1,0,0,-1,154.391,37.379)"/>
<path style="fill-rule:nonzero;fill:rgb(73.722839%,76.470947%,65.098572%);fill-opacity:1;stroke-width:0.79701;stroke-linecap:butt;stroke-linejoin:miter;stroke:rgb(0%,0%,0%);stroke-opacity:1;stroke-miterlimit:10;" d="M 10.20275 12.754 C 11.976188 14.879 19.847281 15.308688 25.511344 15.308688 C 31.175406 15.308688 45.007438 14.879 51.023063 12.754 C 57.042594 10.632906 65.694938 3.894625 68.882438 0.00009375 C 72.066031 -3.894437 76.460563 -12.476469 73.984 -15.3085 C 71.507438 -18.140531 57.749625 -20.765531 51.023063 -20.410062 C 44.2965 -20.054594 30.112906 -14.171781 25.511344 -12.757719 C 20.909781 -11.33975 19.628531 -11.972562 17.859 -10.203031 C 16.089469 -8.4335 13.816031 -3.187406 12.757438 0.00009375 C 11.694938 3.187594 8.433219 10.632906 10.20275 12.754 Z M 10.20275 12.754 " transform="matrix(1,0,0,-1,154.391,37.379)"/>
<g clip-path="url(#clip2)" clip-rule="nonzero">
<g clip-path="url(#clip3)" clip-rule="nonzero">
<path style=" stroke:none;fill-rule:nonzero;fill:url(#linear0);" d="M 1.320313 32.277344 L 1.320313 0 L 294.707031 0 L 294.707031 32.277344 Z M 1.320313 32.277344 "/>
</g>
</g>
<g clip-path="url(#clip4)" clip-rule="nonzero">
<path style="fill:none;stroke-width:0.79701;stroke-linecap:butt;stroke-linejoin:miter;stroke:rgb(0%,0%,0%);stroke-opacity:1;stroke-miterlimit:10;" d="M -153.070687 5.101656 C -153.070687 5.101656 -125.42225 7.371188 -114.805062 10.203219 C -104.183969 13.03525 -92.465219 24.09775 -76.535531 25.511813 C -60.605844 26.929781 -15.930062 20.41025 -0.000375 20.41025 C 15.929313 20.41025 27.648063 26.574313 38.269156 25.511813 C 48.886344 24.449313 62.378531 15.586031 76.534781 12.754 C 90.694938 9.925875 140.316031 5.101656 140.316031 5.101656 " transform="matrix(1,0,0,-1,154.391,37.379)"/>
</g>
<g clip-path="url(#clip5)" clip-rule="nonzero">
<g clip-path="url(#clip6)" clip-rule="nonzero">
<path style=" stroke:none;fill-rule:nonzero;fill:url(#linear1);" d="M 1.320313 77 L 1.320313 50.917969 L 294.707031 50.917969 L 294.707031 77 Z M 1.320313 77 "/>
</g>
</g>
<g clip-path="url(#clip7)" clip-rule="nonzero">
<path style="fill:none;stroke-width:0.79701;stroke-linecap:butt;stroke-linejoin:miter;stroke:rgb(0%,0%,0%);stroke-opacity:1;stroke-miterlimit:10;" d="M -153.070687 -17.859281 C -153.070687 -17.859281 -125.42225 -13.538969 -114.805062 -15.3085 C -104.183969 -17.078031 -92.465219 -29.199125 -76.535531 -30.613187 C -60.605844 -32.031156 -21.238656 -25.867094 -0.000375 -25.511625 C 21.237906 -25.156156 58.835563 -28.769437 76.534781 -28.062406 C 94.234 -27.355375 118.710563 -21.824125 127.558219 -20.410062 C 136.409781 -18.992094 140.316031 -17.859281 140.316031 -17.859281 " transform="matrix(1,0,0,-1,154.391,37.379)"/>
</g>
<path style=" stroke:none;fill-rule:nonzero;fill:rgb(82.743835%,67.449951%,41.96167%);fill-opacity:1;" d="M 146.738281 34.828125 C 157.515625 36.726563 164.023438 36.726563 174.800781 34.828125 L 172.25 42.480469 C 161.960938 40.667969 155.75 40.667969 145.460938 42.480469 Z M 146.738281 34.828125 "/>
<path style="fill:none;stroke-width:0.79701;stroke-linecap:butt;stroke-linejoin:miter;stroke:rgb(0%,0%,0%);stroke-opacity:1;stroke-miterlimit:10;" d="M -7.652719 2.550875 C 3.124625 0.652438 9.632438 0.652438 20.409781 2.550875 M 17.859 -5.101469 C 7.569938 -3.288969 1.359 -3.288969 -8.930062 -5.101469 " transform="matrix(1,0,0,-1,154.391,37.379)"/>
<path style=" stroke:none;fill-rule:nonzero;fill:rgb(82.743835%,67.449951%,41.96167%);fill-opacity:1;" d="M 199.035156 75.648438 C 197.296875 65.773438 199.847656 60.007813 201.589844 50.136719 L 193.933594 47.582031 C 195.667969 57.417969 194.394531 63.257813 192.660156 73.09375 Z M 199.035156 75.648438 "/>
<path style="fill:none;stroke-width:0.79701;stroke-linecap:butt;stroke-linejoin:miter;stroke:rgb(0%,0%,0%);stroke-opacity:1;stroke-miterlimit:10;" d="M 44.644156 -38.269437 C 42.905875 -28.394437 45.456656 -22.628812 47.198844 -12.757719 M 39.542594 -10.203031 C 41.276969 -20.038969 40.003531 -25.878812 38.269156 -35.71475 " transform="matrix(1,0,0,-1,154.391,37.379)"/>
<path style=" stroke:none;fill-rule:nonzero;fill:rgb(82.743835%,67.449951%,41.96167%);fill-opacity:1;" d="M 195.210938 28.449219 C 193.507813 18.804688 190.53125 13.859375 188.832031 4.214844 L 182.453125 6.765625 C 187.167969 14.933594 186.882813 20.863281 190.109375 29.726563 Z M 195.210938 28.449219 "/>
<path style="fill:none;stroke-width:0.79701;stroke-linecap:butt;stroke-linejoin:miter;stroke:rgb(0%,0%,0%);stroke-opacity:1;stroke-miterlimit:10;" d="M 40.819938 8.929781 C 39.116813 18.574313 36.14025 23.519625 34.441031 33.164156 M 28.062125 30.613375 C 32.776969 22.445406 32.491813 16.515719 35.718375 7.652438 " transform="matrix(1,0,0,-1,154.391,37.379)"/>
<path style=" stroke:none;fill-rule:nonzero;fill:rgb(82.743835%,67.449951%,41.96167%);fill-opacity:1;" d="M 136.53125 28.449219 C 139.421875 20.511719 142.511719 16.632813 146.738281 9.316406 L 141.636719 6.765625 C 138.746094 14.703125 135.65625 18.582031 131.429688 25.898438 Z M 136.53125 28.449219 "/>
<path style="fill:none;stroke-width:0.79701;stroke-linecap:butt;stroke-linejoin:miter;stroke:rgb(0%,0%,0%);stroke-opacity:1;stroke-miterlimit:10;" d="M -17.85975 8.929781 C -14.969125 16.867281 -11.879281 20.746188 -7.652719 28.062594 M -12.754281 30.613375 C -15.644906 22.675875 -18.73475 18.796969 -22.961312 11.480563 " transform="matrix(1,0,0,-1,154.391,37.379)"/>
<path style=" stroke:none;fill-rule:nonzero;fill:rgb(82.743835%,67.449951%,41.96167%);fill-opacity:1;" d="M 102.089844 24.625 C 99.753906 15.90625 99.539063 10.6875 99.539063 1.664063 L 93.164063 2.9375 C 94.730469 11.824219 95.714844 16.875 95.714844 25.898438 Z M 102.089844 24.625 "/>
<path style="fill:none;stroke-width:0.79701;stroke-linecap:butt;stroke-linejoin:miter;stroke:rgb(0%,0%,0%);stroke-opacity:1;stroke-miterlimit:10;" d="M -52.301156 12.754 C -54.637094 21.47275 -54.851937 26.6915 -54.851937 35.714938 M -61.226937 34.4415 C -59.660531 25.554781 -58.676156 20.504 -58.676156 11.480563 " transform="matrix(1,0,0,-1,154.391,37.379)"/>
<path style=" stroke:none;fill-rule:nonzero;fill:rgb(82.743835%,67.449951%,41.96167%);fill-opacity:1;" d="M 84.234375 75.648438 C 85.042969 66.402344 87.4375 61.40625 90.609375 52.6875 L 84.234375 50.136719 C 82.53125 59.78125 80.390625 64.910156 77.855469 74.371094 Z M 84.234375 75.648438 "/>
<path style="fill:none;stroke-width:0.79701;stroke-linecap:butt;stroke-linejoin:miter;stroke:rgb(0%,0%,0%);stroke-opacity:1;stroke-miterlimit:10;" d="M -70.156625 -38.269437 C -69.348031 -29.023344 -66.9535 -24.02725 -63.781625 -15.3085 M -70.156625 -12.757719 C -71.85975 -22.40225 -74.000375 -27.531156 -76.535531 -36.992094 " transform="matrix(1,0,0,-1,154.391,37.379)"/>
<path style=" stroke:none;fill-rule:nonzero;fill:rgb(82.743835%,67.449951%,41.96167%);fill-opacity:1;" d="M 136.53125 75.648438 C 134.804688 65.847656 134.804688 59.933594 136.53125 50.136719 L 128.878906 51.410156 C 130.433594 60.230469 130.433594 65.554688 128.878906 74.371094 Z M 136.53125 75.648438 "/>
<path style="fill:none;stroke-width:0.79701;stroke-linecap:butt;stroke-linejoin:miter;stroke:rgb(0%,0%,0%);stroke-opacity:1;stroke-miterlimit:10;" d="M -17.85975 -38.269437 C -19.586312 -28.468656 -19.586312 -22.554594 -17.85975 -12.757719 M -25.512094 -14.031156 C -23.957406 -22.851469 -23.957406 -28.175687 -25.512094 -36.992094 " transform="matrix(1,0,0,-1,154.391,37.379)"/>
</g>
</svg>
