<?xml version="1.0" encoding="UTF-8"?>
<svg xmlns="http://www.w3.org/2000/svg" xmlns:xlink="http://www.w3.org/1999/xlink" width="63pt" height="29pt" viewBox="0 0 63 29" version="1.1">
<g id="surface1">
<path style="fill:none;stroke-width:0.3985;stroke-linecap:butt;stroke-linejoin:miter;stroke:rgb(0%,0%,0%);stroke-opacity:1;stroke-miterlimit:10;" d="M -28.346344 22.676125 L -28.346344 0.00034375 L 0.0013125 22.676125 L 0.0013125 0.00034375 L 28.345063 22.676125 L 28.345063 0.00034375 L 0.0013125 22.676125 L -28.346344 0.00034375 L 28.345063 22.676125 M 28.345063 0.00034375 L -28.346344 22.676125 L 0.0013125 0.00034375 " transform="matrix(1,0,0,-1,31.569,25.473)"/>
<path style=" stroke:none;fill-rule:nonzero;fill:rgb(0%,0%,0%);fill-opacity:1;" d="M 5.214844 2.796875 C 5.214844 1.695313 4.324219 0.804688 3.222656 0.804688 C 2.121094 0.804688 1.230469 1.695313 1.230469 2.796875 C 1.230469 3.894531 2.121094 4.789063 3.222656 4.789063 C 4.324219 4.789063 5.214844 3.894531 5.214844 2.796875 Z M 5.214844 2.796875 "/>
<path style=" stroke:none;fill-rule:nonzero;fill:rgb(0%,0%,0%);fill-opacity:1;" d="M 5.214844 25.472656 C 5.214844 24.371094 4.324219 23.480469 3.222656 23.480469 C 2.121094 23.480469 1.230469 24.371094 1.230469 25.472656 C 1.230469 26.574219 2.121094 27.464844 3.222656 27.464844 C 4.324219 27.464844 5.214844 26.574219 5.214844 25.472656 Z M 5.214844 25.472656 "/>
<path style=" stroke:none;fill-rule:nonzero;fill:rgb(0%,0%,0%);fill-opacity:1;" d="M 33.5625 2.796875 C 33.5625 1.695313 32.667969 0.804688 31.570313 0.804688 C 30.46875 0.804688 29.578125 1.695313 29.578125 2.796875 C 29.578125 3.894531 30.46875 4.789063 31.570313 4.789063 C 32.667969 4.789063 33.5625 3.894531 33.5625 2.796875 Z M 33.5625 2.796875 "/>
<path style=" stroke:none;fill-rule:nonzero;fill:rgb(0%,0%,0%);fill-opacity:1;" d="M 33.5625 25.472656 C 33.5625 24.371094 32.667969 23.480469 31.570313 23.480469 C 30.46875 23.480469 29.578125 24.371094 29.578125 25.472656 C 29.578125 26.574219 30.46875 27.464844 31.570313 27.464844 C 32.667969 27.464844 33.5625 26.574219 33.5625 25.472656 Z M 33.5625 25.472656 "/>
<path style=" stroke:none;fill-rule:nonzero;fill:rgb(0%,0%,0%);fill-opacity:1;" d="M 61.910156 2.796875 C 61.910156 1.695313 61.015625 0.804688 59.914063 0.804688 C 58.816406 0.804688 57.921875 1.695313 57.921875 2.796875 C 57.921875 3.894531 58.816406 4.789063 59.914063 4.789063 C 61.015625 4.789063 61.910156 3.894531 61.910156 2.796875 Z M 61.910156 2.796875 "/>
<path style=" stroke:none;fill-rule:nonzero;fill:rgb(0%,0%,0%);fill-opacity:1;" d="M 61.910156 25.472656 C 61.910156 24.371094 61.015625 23.480469 59.914063 23.480469 C 58.816406 23.480469 57.921875 24.371094 57.921875 25.472656 C 57.921875 26.574219 58.816406 27.464844 59.914063 27.464844 C 61.015625 27.464844 61.910156 26.574219 61.910156 25.472656 Z M 61.910156 25.472656 "/>
</g>
</svg>
