<?xml version="1.0" encoding="UTF-8"?>
<svg xmlns="http://www.w3.org/2000/svg" xmlns:xlink="http://www.w3.org/1999/xlink" width="90pt" height="88pt" viewBox="0 0 90 88" version="1.1">
<g id="surface1">
<path style=" stroke:none;fill-rule:nonzero;fill:rgb(0%,0%,0%);fill-opacity:1;" d="M 74.421875 12.742188 C 74.421875 11.640625 73.527344 10.75 72.429688 10.75 C 71.328125 10.75 70.4375 11.640625 70.4375 12.742188 C 70.4375 13.84375 71.328125 14.734375 72.429688 14.734375 C 73.527344 14.734375 74.421875 13.84375 74.421875 12.742188 Z M 74.421875 12.742188 "/>
<path style=" stroke:none;fill-rule:nonzero;fill:rgb(0%,0%,0%);fill-opacity:1;" d="M 88.964844 37.929688 C 88.964844 36.832031 88.070313 35.9375 86.972656 35.9375 C 85.871094 35.9375 84.980469 36.832031 84.980469 37.929688 C 84.980469 39.03125 85.871094 39.921875 86.972656 39.921875 C 88.070313 39.921875 88.964844 39.03125 88.964844 37.929688 Z M 88.964844 37.929688 "/>
<path style=" stroke:none;fill-rule:nonzero;fill:rgb(0%,0%,0%);fill-opacity:1;" d="M 83.914063 66.574219 C 83.914063 65.472656 83.019531 64.582031 81.921875 64.582031 C 80.820313 64.582031 79.929688 65.472656 79.929688 66.574219 C 79.929688 67.675781 80.820313 68.566406 81.921875 68.566406 C 83.019531 68.566406 83.914063 67.675781 83.914063 66.574219 Z M 83.914063 66.574219 "/>
<path style=" stroke:none;fill-rule:nonzero;fill:rgb(0%,0%,0%);fill-opacity:1;" d="M 61.632813 85.269531 C 61.632813 84.167969 60.742188 83.277344 59.640625 83.277344 C 58.539063 83.277344 57.648438 84.167969 57.648438 85.269531 C 57.648438 86.371094 58.539063 87.261719 59.640625 87.261719 C 60.742188 87.261719 61.632813 86.371094 61.632813 85.269531 Z M 61.632813 85.269531 "/>
<path style=" stroke:none;fill-rule:nonzero;fill:rgb(0%,0%,0%);fill-opacity:1;" d="M 32.546875 85.269531 C 32.546875 84.167969 31.65625 83.277344 30.554688 83.277344 C 29.453125 83.277344 28.5625 84.167969 28.5625 85.269531 C 28.5625 86.371094 29.453125 87.261719 30.554688 87.261719 C 31.65625 87.261719 32.546875 86.371094 32.546875 85.269531 Z M 32.546875 85.269531 "/>
<path style=" stroke:none;fill-rule:nonzero;fill:rgb(0%,0%,0%);fill-opacity:1;" d="M 10.265625 66.574219 C 10.265625 65.472656 9.375 64.582031 8.273438 64.582031 C 7.171875 64.582031 6.28125 65.472656 6.28125 66.574219 C 6.28125 67.675781 7.171875 68.566406 8.273438 68.566406 C 9.375 68.566406 10.265625 67.675781 10.265625 66.574219 Z M 10.265625 66.574219 "/>
<path style=" stroke:none;fill-rule:nonzero;fill:rgb(0%,0%,0%);fill-opacity:1;" d="M 5.214844 37.929688 C 5.214844 36.832031 4.324219 35.9375 3.222656 35.9375 C 2.121094 35.9375 1.230469 36.832031 1.230469 37.929688 C 1.230469 39.03125 2.121094 39.921875 3.222656 39.921875 C 4.324219 39.921875 5.214844 39.03125 5.214844 37.929688 Z M 5.214844 37.929688 "/>
<path style=" stroke:none;fill-rule:nonzero;fill:rgb(0%,0%,0%);fill-opacity:1;" d="M 19.757813 12.742188 C 19.757813 11.640625 18.867188 10.75 17.765625 10.75 C 16.664063 10.75 15.773438 11.640625 15.773438 12.742188 C 15.773438 13.84375 16.664063 14.734375 17.765625 14.734375 C 18.867188 14.734375 19.757813 13.84375 19.757813 12.742188 Z M 19.757813 12.742188 "/>
<path style=" stroke:none;fill-rule:nonzero;fill:rgb(0%,0%,0%);fill-opacity:1;" d="M 47.089844 2.792969 C 47.089844 1.691406 46.199219 0.800781 45.097656 0.800781 C 43.996094 0.800781 43.105469 1.691406 43.105469 2.792969 C 43.105469 3.894531 43.996094 4.785156 45.097656 4.785156 C 46.199219 4.785156 47.089844 3.894531 47.089844 2.792969 Z M 47.089844 2.792969 "/>
<path style="fill:none;stroke-width:0.3985;stroke-linecap:butt;stroke-linejoin:miter;stroke:rgb(0%,0%,0%);stroke-opacity:1;stroke-miterlimit:10;" d="M 27.332687 32.571812 L -36.823563 -21.260219 L 36.824875 -21.260219 L -27.331375 32.571812 L 14.543625 -39.955531 L -41.874344 7.384312 L 41.875656 7.384312 L -14.542313 -39.955531 L 0.00065625 42.521031 L 27.332687 32.571812 " transform="matrix(1,0,0,-1,45.097,45.314)"/>
<path style="fill:none;stroke-width:0.3985;stroke-linecap:butt;stroke-linejoin:miter;stroke:rgb(0%,0%,0%);stroke-opacity:1;stroke-miterlimit:10;" d="M 27.332687 32.571812 L 36.824875 -21.260219 L -14.542313 -39.955531 M 14.543625 -39.955531 L -14.542313 -39.955531 M 14.543625 -39.955531 L -41.874344 7.384312 L -36.823563 -21.260219 L 0.00065625 42.521031 M 36.824875 -21.260219 L -41.874344 7.384312 M 0.00065625 42.521031 L 36.824875 -21.260219 " transform="matrix(1,0,0,-1,45.097,45.314)"/>
</g>
</svg>
