<?xml version="1.0" encoding="UTF-8"?>
<svg xmlns="http://www.w3.org/2000/svg" xmlns:xlink="http://www.w3.org/1999/xlink" width="74pt" height="51pt" viewBox="0 0 74 51" version="1.1">
<g id="surface1">
<path style="fill:none;stroke-width:0.3985;stroke-linecap:butt;stroke-linejoin:miter;stroke:rgb(0%,0%,0%);stroke-opacity:1;stroke-miterlimit:10;" d="M -0.00171875 -0.00134375 L -34.017344 11.3385 L -0.00171875 34.018188 L 34.017813 11.3385 L -0.00171875 -0.00134375 L -22.6775 45.354125 L -0.00171875 34.018188 L 22.677969 45.354125 L -0.00171875 -0.00134375 L -0.00171875 34.018188 " transform="matrix(1,0,0,-1,37.24,48.151)"/>
<path style=" stroke:none;fill-rule:nonzero;fill:rgb(0%,0%,0%);fill-opacity:1;" d="M 39.234375 48.152344 C 39.234375 47.050781 38.339844 46.160156 37.238281 46.160156 C 36.140625 46.160156 35.246094 47.050781 35.246094 48.152344 C 35.246094 49.25 36.140625 50.144531 37.238281 50.144531 C 38.339844 50.144531 39.234375 49.25 39.234375 48.152344 Z M 39.234375 48.152344 "/>
<path style=" stroke:none;fill-rule:nonzero;fill:rgb(0%,0%,0%);fill-opacity:1;" d="M 5.214844 36.8125 C 5.214844 35.710938 4.324219 34.820313 3.222656 34.820313 C 2.125 34.820313 1.230469 35.710938 1.230469 36.8125 C 1.230469 37.914063 2.125 38.804688 3.222656 38.804688 C 4.324219 38.804688 5.214844 37.914063 5.214844 36.8125 Z M 5.214844 36.8125 "/>
<path style=" stroke:none;fill-rule:nonzero;fill:rgb(0%,0%,0%);fill-opacity:1;" d="M 39.234375 14.132813 C 39.234375 13.035156 38.339844 12.140625 37.238281 12.140625 C 36.140625 12.140625 35.246094 13.035156 35.246094 14.132813 C 35.246094 15.234375 36.140625 16.128906 37.238281 16.128906 C 38.339844 16.128906 39.234375 15.234375 39.234375 14.132813 Z M 39.234375 14.132813 "/>
<path style=" stroke:none;fill-rule:nonzero;fill:rgb(0%,0%,0%);fill-opacity:1;" d="M 73.25 36.8125 C 73.25 35.710938 72.355469 34.820313 71.257813 34.820313 C 70.15625 34.820313 69.265625 35.710938 69.265625 36.8125 C 69.265625 37.914063 70.15625 38.804688 71.257813 38.804688 C 72.355469 38.804688 73.25 37.914063 73.25 36.8125 Z M 73.25 36.8125 "/>
<path style=" stroke:none;fill-rule:nonzero;fill:rgb(0%,0%,0%);fill-opacity:1;" d="M 16.554688 2.796875 C 16.554688 1.695313 15.664063 0.804688 14.5625 0.804688 C 13.460938 0.804688 12.570313 1.695313 12.570313 2.796875 C 12.570313 3.894531 13.460938 4.789063 14.5625 4.789063 C 15.664063 4.789063 16.554688 3.894531 16.554688 2.796875 Z M 16.554688 2.796875 "/>
<path style=" stroke:none;fill-rule:nonzero;fill:rgb(0%,0%,0%);fill-opacity:1;" d="M 61.910156 2.796875 C 61.910156 1.695313 61.019531 0.804688 59.917969 0.804688 C 58.816406 0.804688 57.925781 1.695313 57.925781 2.796875 C 57.925781 3.894531 58.816406 4.789063 59.917969 4.789063 C 61.019531 4.789063 61.910156 3.894531 61.910156 2.796875 Z M 61.910156 2.796875 "/>
</g>
</svg>
