<?xml version="1.0" encoding="UTF-8"?>
<svg xmlns="http://www.w3.org/2000/svg" xmlns:xlink="http://www.w3.org/1999/xlink" width="57pt" height="82pt" viewBox="0 0 57 82" version="1.1">
<g id="surface1">
<path style="fill:none;stroke-width:0.3985;stroke-linecap:butt;stroke-linejoin:miter;stroke:rgb(0%,0%,0%);stroke-opacity:1;stroke-miterlimit:10;" d="M -25.511344 0.000875 L 25.512094 0.000875 L 25.512094 51.024312 L -25.511344 51.024312 L -25.511344 0.000875 L 25.512094 51.024312 M -25.511344 51.024312 L 25.512094 0.000875 " transform="matrix(1,0,0,-1,28.734,79.329)"/>
<path style=" stroke:none;fill-rule:nonzero;fill:rgb(0%,0%,0%);fill-opacity:1;" d="M 5.214844 79.328125 C 5.214844 78.230469 4.324219 77.335938 3.222656 77.335938 C 2.121094 77.335938 1.230469 78.230469 1.230469 79.328125 C 1.230469 80.429688 2.121094 81.320313 3.222656 81.320313 C 4.324219 81.320313 5.214844 80.429688 5.214844 79.328125 Z M 5.214844 79.328125 "/>
<path style=" stroke:none;fill-rule:nonzero;fill:rgb(0%,0%,0%);fill-opacity:1;" d="M 56.238281 79.328125 C 56.238281 78.230469 55.347656 77.335938 54.246094 77.335938 C 53.144531 77.335938 52.253906 78.230469 52.253906 79.328125 C 52.253906 80.429688 53.144531 81.320313 54.246094 81.320313 C 55.347656 81.320313 56.238281 80.429688 56.238281 79.328125 Z M 56.238281 79.328125 "/>
<path style=" stroke:none;fill-rule:nonzero;fill:rgb(0%,0%,0%);fill-opacity:1;" d="M 56.238281 28.304688 C 56.238281 27.203125 55.347656 26.3125 54.246094 26.3125 C 53.144531 26.3125 52.253906 27.203125 52.253906 28.304688 C 52.253906 29.40625 53.144531 30.296875 54.246094 30.296875 C 55.347656 30.296875 56.238281 29.40625 56.238281 28.304688 Z M 56.238281 28.304688 "/>
<path style=" stroke:none;fill-rule:nonzero;fill:rgb(0%,0%,0%);fill-opacity:1;" d="M 5.214844 28.304688 C 5.214844 27.203125 4.324219 26.3125 3.222656 26.3125 C 2.121094 26.3125 1.230469 27.203125 1.230469 28.304688 C 1.230469 29.40625 2.121094 30.296875 3.222656 30.296875 C 4.324219 30.296875 5.214844 29.40625 5.214844 28.304688 Z M 5.214844 28.304688 "/>
<path style=" stroke:none;fill-rule:nonzero;fill:rgb(0%,0%,0%);fill-opacity:1;" d="M 30.726563 53.816406 C 30.726563 52.714844 29.835938 51.824219 28.734375 51.824219 C 27.632813 51.824219 26.742188 52.714844 26.742188 53.816406 C 26.742188 54.917969 27.632813 55.808594 28.734375 55.808594 C 29.835938 55.808594 30.726563 54.917969 30.726563 53.816406 Z M 30.726563 53.816406 "/>
<path style="fill:none;stroke-width:0.3985;stroke-linecap:butt;stroke-linejoin:miter;stroke:rgb(0%,0%,0%);stroke-opacity:1;stroke-miterlimit:10;" d="M -25.511344 51.024312 L 0.000375 76.536031 L 25.512094 51.024312 " transform="matrix(1,0,0,-1,28.734,79.329)"/>
<path style=" stroke:none;fill-rule:nonzero;fill:rgb(0%,0%,0%);fill-opacity:1;" d="M 30.726563 2.792969 C 30.726563 1.691406 29.835938 0.800781 28.734375 0.800781 C 27.632813 0.800781 26.742188 1.691406 26.742188 2.792969 C 26.742188 3.894531 27.632813 4.785156 28.734375 4.785156 C 29.835938 4.785156 30.726563 3.894531 30.726563 2.792969 Z M 30.726563 2.792969 "/>
</g>
</svg>
