<?xml version="1.0" encoding="UTF-8"?>
<svg xmlns="http://www.w3.org/2000/svg" xmlns:xlink="http://www.w3.org/1999/xlink" width="32pt" height="60pt" viewBox="0 0 32 60" version="1.1">
<g id="surface1">
<path style="fill:none;stroke-width:0.79701;stroke-linecap:butt;stroke-linejoin:miter;stroke:rgb(0%,0%,0%);stroke-opacity:1;stroke-miterlimit:10;" d="M -0.00125 3.983969 L -0.00125 52.706625 C -0.00125 54.90975 1.783906 56.694906 3.987031 56.694906 L 24.362031 56.694906 C 26.56125 56.694906 28.346406 54.90975 28.346406 52.706625 L 28.346406 3.983969 C 28.346406 1.78475 26.56125 -0.00040625 24.362031 -0.00040625 L 3.987031 -0.00040625 C 1.783906 -0.00040625 -0.00125 1.78475 -0.00125 3.983969 Z M -0.00125 3.983969 " transform="matrix(1,0,0,-1,1.72,58.691)"/>
<path style="fill:none;stroke-width:0.3985;stroke-linecap:butt;stroke-linejoin:miter;stroke:rgb(0%,0%,0%);stroke-opacity:1;stroke-miterlimit:10;" d="M -0.00125 28.34725 L 28.346406 28.34725 " transform="matrix(1,0,0,-1,1.72,58.691)"/>
<path style=" stroke:none;fill-rule:nonzero;fill:rgb(0%,0%,0%);fill-opacity:1;" d="M 10.800781 51.605469 C 10.800781 50.503906 9.90625 49.613281 8.808594 49.613281 C 7.707031 49.613281 6.8125 50.503906 6.8125 51.605469 C 6.8125 52.703125 7.707031 53.597656 8.808594 53.597656 C 9.90625 53.597656 10.800781 52.703125 10.800781 51.605469 Z M 10.800781 51.605469 "/>
<path style=" stroke:none;fill-rule:nonzero;fill:rgb(0%,0%,0%);fill-opacity:1;" d="M 17.886719 44.519531 C 17.886719 43.417969 16.992188 42.523438 15.894531 42.523438 C 14.792969 42.523438 13.902344 43.417969 13.902344 44.519531 C 13.902344 45.617188 14.792969 46.511719 15.894531 46.511719 C 16.992188 46.511719 17.886719 45.617188 17.886719 44.519531 Z M 17.886719 44.519531 "/>
<path style=" stroke:none;fill-rule:nonzero;fill:rgb(0%,0%,0%);fill-opacity:1;" d="M 24.972656 37.429688 C 24.972656 36.332031 24.082031 35.4375 22.980469 35.4375 C 21.878906 35.4375 20.988281 36.332031 20.988281 37.429688 C 20.988281 38.53125 21.878906 39.421875 22.980469 39.421875 C 24.082031 39.421875 24.972656 38.53125 24.972656 37.429688 Z M 24.972656 37.429688 "/>
<path style=" stroke:none;fill-rule:nonzero;fill:rgb(0%,0%,0%);fill-opacity:1;" d="M 17.886719 16.171875 C 17.886719 15.070313 16.992188 14.179688 15.894531 14.179688 C 14.792969 14.179688 13.902344 15.070313 13.902344 16.171875 C 13.902344 17.269531 14.792969 18.164063 15.894531 18.164063 C 16.992188 18.164063 17.886719 17.269531 17.886719 16.171875 Z M 17.886719 16.171875 "/>
</g>
</svg>
