<?xml version="1.0" encoding="UTF-8"?>
<svg xmlns="http://www.w3.org/2000/svg" xmlns:xlink="http://www.w3.org/1999/xlink" width="86pt" height="85pt" viewBox="0 0 86 85" version="1.1">
<g id="surface1">
<path style="fill:none;stroke-width:0.3985;stroke-linecap:butt;stroke-linejoin:miter;stroke:rgb(0%,0%,0%);stroke-opacity:1;stroke-miterlimit:10;" d="M 39.68575 -0.00046875 L 28.06075 28.062031 " transform="matrix(1,0,0,-1,42.908,42.48)"/>
<path style=" stroke:none;fill-rule:nonzero;fill:rgb(0%,0%,0%);fill-opacity:1;" d="M 84.585938 42.480469 C 84.585938 41.378906 83.695313 40.488281 82.59375 40.488281 C 81.492188 40.488281 80.601563 41.378906 80.601563 42.480469 C 80.601563 43.582031 81.492188 44.472656 82.59375 44.472656 C 83.695313 44.472656 84.585938 43.582031 84.585938 42.480469 Z M 84.585938 42.480469 "/>
<path style="fill:none;stroke-width:0.3985;stroke-linecap:butt;stroke-linejoin:miter;stroke:rgb(0%,0%,0%);stroke-opacity:1;stroke-miterlimit:10;" d="M 28.06075 28.062031 L -0.00175 39.687031 " transform="matrix(1,0,0,-1,42.908,42.48)"/>
<path style=" stroke:none;fill-rule:nonzero;fill:rgb(0%,0%,0%);fill-opacity:1;" d="M 72.960938 14.417969 C 72.960938 13.316406 72.070313 12.425781 70.96875 12.425781 C 69.871094 12.425781 68.976563 13.316406 68.976563 14.417969 C 68.976563 15.519531 69.871094 16.410156 70.96875 16.410156 C 72.070313 16.410156 72.960938 15.519531 72.960938 14.417969 Z M 72.960938 14.417969 "/>
<path style="fill:none;stroke-width:0.3985;stroke-linecap:butt;stroke-linejoin:miter;stroke:rgb(0%,0%,0%);stroke-opacity:1;stroke-miterlimit:10;" d="M -0.00175 39.687031 L -28.060344 28.062031 " transform="matrix(1,0,0,-1,42.908,42.48)"/>
<path style=" stroke:none;fill-rule:nonzero;fill:rgb(0%,0%,0%);fill-opacity:1;" d="M 44.902344 2.792969 C 44.902344 1.695313 44.007813 0.800781 42.90625 0.800781 C 41.808594 0.800781 40.914063 1.695313 40.914063 2.792969 C 40.914063 3.894531 41.808594 4.789063 42.90625 4.789063 C 44.007813 4.789063 44.902344 3.894531 44.902344 2.792969 Z M 44.902344 2.792969 "/>
<path style="fill:none;stroke-width:0.3985;stroke-linecap:butt;stroke-linejoin:miter;stroke:rgb(0%,0%,0%);stroke-opacity:1;stroke-miterlimit:10;" d="M -28.060344 28.062031 L -39.685344 -0.00046875 " transform="matrix(1,0,0,-1,42.908,42.48)"/>
<path style=" stroke:none;fill-rule:nonzero;fill:rgb(0%,0%,0%);fill-opacity:1;" d="M 16.839844 14.417969 C 16.839844 13.316406 15.945313 12.425781 14.847656 12.425781 C 13.746094 12.425781 12.855469 13.316406 12.855469 14.417969 C 12.855469 15.519531 13.746094 16.410156 14.847656 16.410156 C 15.945313 16.410156 16.839844 15.519531 16.839844 14.417969 Z M 16.839844 14.417969 "/>
<path style="fill:none;stroke-width:0.3985;stroke-linecap:butt;stroke-linejoin:miter;stroke:rgb(0%,0%,0%);stroke-opacity:1;stroke-miterlimit:10;" d="M -39.685344 -0.00046875 L -28.060344 -28.062969 " transform="matrix(1,0,0,-1,42.908,42.48)"/>
<path style=" stroke:none;fill-rule:nonzero;fill:rgb(0%,0%,0%);fill-opacity:1;" d="M 5.214844 42.480469 C 5.214844 41.378906 4.324219 40.488281 3.222656 40.488281 C 2.121094 40.488281 1.230469 41.378906 1.230469 42.480469 C 1.230469 43.582031 2.121094 44.472656 3.222656 44.472656 C 4.324219 44.472656 5.214844 43.582031 5.214844 42.480469 Z M 5.214844 42.480469 "/>
<path style="fill:none;stroke-width:0.3985;stroke-linecap:butt;stroke-linejoin:miter;stroke:rgb(0%,0%,0%);stroke-opacity:1;stroke-miterlimit:10;" d="M -28.060344 -28.062969 L -0.00175 -39.684062 " transform="matrix(1,0,0,-1,42.908,42.48)"/>
<path style=" stroke:none;fill-rule:nonzero;fill:rgb(0%,0%,0%);fill-opacity:1;" d="M 16.839844 70.542969 C 16.839844 69.441406 15.945313 68.550781 14.847656 68.550781 C 13.746094 68.550781 12.855469 69.441406 12.855469 70.542969 C 12.855469 71.640625 13.746094 72.535156 14.847656 72.535156 C 15.945313 72.535156 16.839844 71.640625 16.839844 70.542969 Z M 16.839844 70.542969 "/>
<path style="fill:none;stroke-width:0.3985;stroke-linecap:butt;stroke-linejoin:miter;stroke:rgb(0%,0%,0%);stroke-opacity:1;stroke-miterlimit:10;" d="M -0.00175 -39.684062 L 28.06075 -28.062969 " transform="matrix(1,0,0,-1,42.908,42.48)"/>
<path style=" stroke:none;fill-rule:nonzero;fill:rgb(0%,0%,0%);fill-opacity:1;" d="M 44.902344 82.164063 C 44.902344 81.066406 44.007813 80.171875 42.90625 80.171875 C 41.808594 80.171875 40.914063 81.066406 40.914063 82.164063 C 40.914063 83.265625 41.808594 84.15625 42.90625 84.15625 C 44.007813 84.15625 44.902344 83.265625 44.902344 82.164063 Z M 44.902344 82.164063 "/>
<path style="fill:none;stroke-width:0.3985;stroke-linecap:butt;stroke-linejoin:miter;stroke:rgb(0%,0%,0%);stroke-opacity:1;stroke-miterlimit:10;" d="M 28.06075 -28.062969 L 39.68575 -0.00046875 " transform="matrix(1,0,0,-1,42.908,42.48)"/>
<path style=" stroke:none;fill-rule:nonzero;fill:rgb(0%,0%,0%);fill-opacity:1;" d="M 72.960938 70.542969 C 72.960938 69.441406 72.070313 68.550781 70.96875 68.550781 C 69.871094 68.550781 68.976563 69.441406 68.976563 70.542969 C 68.976563 71.640625 69.871094 72.535156 70.96875 72.535156 C 72.070313 72.535156 72.960938 71.640625 72.960938 70.542969 Z M 72.960938 70.542969 "/>
<path style="fill:none;stroke-width:0.3985;stroke-linecap:butt;stroke-linejoin:miter;stroke:rgb(0%,0%,0%);stroke-opacity:1;stroke-miterlimit:10;" d="M -0.00175 -0.00046875 L 28.06075 28.062031 M -0.00175 -0.00046875 L -28.060344 28.062031 M -0.00175 -0.00046875 L -28.060344 -28.062969 M -0.00175 -0.00046875 L 28.06075 -28.062969 " transform="matrix(1,0,0,-1,42.908,42.48)"/>
<path style=" stroke:none;fill-rule:nonzero;fill:rgb(0%,0%,0%);fill-opacity:1;" d="M 44.902344 42.480469 C 44.902344 41.378906 44.007813 40.488281 42.90625 40.488281 C 41.808594 40.488281 40.914063 41.378906 40.914063 42.480469 C 40.914063 43.582031 41.808594 44.472656 42.90625 44.472656 C 44.007813 44.472656 44.902344 43.582031 44.902344 42.480469 Z M 44.902344 42.480469 "/>
<path style="fill:none;stroke-width:0.3985;stroke-linecap:butt;stroke-linejoin:miter;stroke:rgb(0%,0%,0%);stroke-opacity:1;stroke-miterlimit:10;" d="M -19.841594 -0.00046875 L -0.00175 39.687031 M -19.841594 -0.00046875 L -39.685344 -0.00046875 M -19.841594 -0.00046875 L -0.00175 -39.684062 " transform="matrix(1,0,0,-1,42.908,42.48)"/>
<path style=" stroke:none;fill-rule:nonzero;fill:rgb(0%,0%,0%);fill-opacity:1;" d="M 25.058594 42.480469 C 25.058594 41.378906 24.164063 40.488281 23.066406 40.488281 C 21.964844 40.488281 21.074219 41.378906 21.074219 42.480469 C 21.074219 43.582031 21.964844 44.472656 23.066406 44.472656 C 24.164063 44.472656 25.058594 43.582031 25.058594 42.480469 Z M 25.058594 42.480469 "/>
<path style="fill:none;stroke-width:0.3985;stroke-linecap:butt;stroke-linejoin:miter;stroke:rgb(0%,0%,0%);stroke-opacity:1;stroke-miterlimit:10;" d="M 19.842 -0.00046875 L -0.00175 39.687031 M 19.842 -0.00046875 L 39.68575 -0.00046875 M 19.842 -0.00046875 L -0.00175 -39.684062 " transform="matrix(1,0,0,-1,42.908,42.48)"/>
<path style=" stroke:none;fill-rule:nonzero;fill:rgb(0%,0%,0%);fill-opacity:1;" d="M 64.742188 42.480469 C 64.742188 41.378906 63.851563 40.488281 62.75 40.488281 C 61.648438 40.488281 60.757813 41.378906 60.757813 42.480469 C 60.757813 43.582031 61.648438 44.472656 62.75 44.472656 C 63.851563 44.472656 64.742188 43.582031 64.742188 42.480469 Z M 64.742188 42.480469 "/>
</g>
</svg>
