<?xml version="1.0" encoding="UTF-8"?>
<svg xmlns="http://www.w3.org/2000/svg" xmlns:xlink="http://www.w3.org/1999/xlink" width="57pt" height="57pt" viewBox="0 0 57 57" version="1.1">
<g id="surface1">
<path style="fill:none;stroke-width:0.3985;stroke-linecap:butt;stroke-linejoin:miter;stroke:rgb(0%,0%,0%);stroke-opacity:1;stroke-miterlimit:10;" d="M -25.511344 0.00059375 L 25.512094 0.00059375 L 25.512094 51.024031 L -25.511344 51.024031 L -25.511344 0.00059375 L 25.512094 51.024031 M -25.511344 51.024031 L 25.512094 0.00059375 " transform="matrix(1,0,0,-1,28.734,53.817)"/>
<path style=" stroke:none;fill-rule:nonzero;fill:rgb(0%,0%,0%);fill-opacity:1;" d="M 5.214844 53.816406 C 5.214844 52.714844 4.324219 51.824219 3.222656 51.824219 C 2.121094 51.824219 1.230469 52.714844 1.230469 53.816406 C 1.230469 54.917969 2.121094 55.808594 3.222656 55.808594 C 4.324219 55.808594 5.214844 54.917969 5.214844 53.816406 Z M 5.214844 53.816406 "/>
<path style=" stroke:none;fill-rule:nonzero;fill:rgb(0%,0%,0%);fill-opacity:1;" d="M 56.238281 53.816406 C 56.238281 52.714844 55.347656 51.824219 54.246094 51.824219 C 53.144531 51.824219 52.253906 52.714844 52.253906 53.816406 C 52.253906 54.917969 53.144531 55.808594 54.246094 55.808594 C 55.347656 55.808594 56.238281 54.917969 56.238281 53.816406 Z M 56.238281 53.816406 "/>
<path style=" stroke:none;fill-rule:nonzero;fill:rgb(0%,0%,0%);fill-opacity:1;" d="M 56.238281 2.792969 C 56.238281 1.691406 55.347656 0.800781 54.246094 0.800781 C 53.144531 0.800781 52.253906 1.691406 52.253906 2.792969 C 52.253906 3.894531 53.144531 4.785156 54.246094 4.785156 C 55.347656 4.785156 56.238281 3.894531 56.238281 2.792969 Z M 56.238281 2.792969 "/>
<path style=" stroke:none;fill-rule:nonzero;fill:rgb(0%,0%,0%);fill-opacity:1;" d="M 5.214844 2.792969 C 5.214844 1.691406 4.324219 0.800781 3.222656 0.800781 C 2.121094 0.800781 1.230469 1.691406 1.230469 2.792969 C 1.230469 3.894531 2.121094 4.785156 3.222656 4.785156 C 4.324219 4.785156 5.214844 3.894531 5.214844 2.792969 Z M 5.214844 2.792969 "/>
<path style=" stroke:none;fill-rule:nonzero;fill:rgb(0%,0%,0%);fill-opacity:1;" d="M 30.726563 28.304688 C 30.726563 27.203125 29.835938 26.3125 28.734375 26.3125 C 27.632813 26.3125 26.742188 27.203125 26.742188 28.304688 C 26.742188 29.40625 27.632813 30.296875 28.734375 30.296875 C 29.835938 30.296875 30.726563 29.40625 30.726563 28.304688 Z M 30.726563 28.304688 "/>
</g>
</svg>
