<?xml version="1.0" encoding="UTF-8"?>
<svg xmlns="http://www.w3.org/2000/svg" xmlns:xlink="http://www.w3.org/1999/xlink" width="32pt" height="60pt" viewBox="0 0 32 60" version="1.1">
<g id="surface1">
<path style="fill:none;stroke-width:0.79701;stroke-linecap:butt;stroke-linejoin:miter;stroke:rgb(0%,0%,0%);stroke-opacity:1;stroke-miterlimit:10;" d="M -0.00125 3.985937 L -0.00125 52.708594 C -0.00125 54.907812 1.783906 56.692969 3.987031 56.692969 L 24.362031 56.692969 C 26.56125 56.692969 28.346406 54.907812 28.346406 52.708594 L 28.346406 3.985937 C 28.346406 1.782812 26.56125 0.0015625 24.362031 0.0015625 L 3.987031 0.0015625 C 1.783906 0.0015625 -0.00125 1.782812 -0.00125 3.985937 Z M -0.00125 3.985937 " transform="matrix(1,0,0,-1,1.72,58.4)"/>
<path style="fill:none;stroke-width:0.3985;stroke-linecap:butt;stroke-linejoin:miter;stroke:rgb(0%,0%,0%);stroke-opacity:1;stroke-miterlimit:10;" d="M -0.00125 28.345312 L 28.346406 28.345312 " transform="matrix(1,0,0,-1,1.72,58.4)"/>
<path style=" stroke:none;fill-rule:nonzero;fill:rgb(0%,0%,0%);fill-opacity:1;" d="M 10.800781 44.226563 C 10.800781 43.125 9.90625 42.234375 8.808594 42.234375 C 7.707031 42.234375 6.8125 43.125 6.8125 44.226563 C 6.8125 45.328125 7.707031 46.21875 8.808594 46.21875 C 9.90625 46.21875 10.800781 45.328125 10.800781 44.226563 Z M 10.800781 44.226563 "/>
<path style=" stroke:none;fill-rule:nonzero;fill:rgb(0%,0%,0%);fill-opacity:1;" d="M 24.972656 44.226563 C 24.972656 43.125 24.082031 42.234375 22.980469 42.234375 C 21.878906 42.234375 20.988281 43.125 20.988281 44.226563 C 20.988281 45.328125 21.878906 46.21875 22.980469 46.21875 C 24.082031 46.21875 24.972656 45.328125 24.972656 44.226563 Z M 24.972656 44.226563 "/>
<path style=" stroke:none;fill-rule:nonzero;fill:rgb(0%,0%,0%);fill-opacity:1;" d="M 10.800781 51.3125 C 10.800781 50.210938 9.90625 49.320313 8.808594 49.320313 C 7.707031 49.320313 6.8125 50.210938 6.8125 51.3125 C 6.8125 52.414063 7.707031 53.304688 8.808594 53.304688 C 9.90625 53.304688 10.800781 52.414063 10.800781 51.3125 Z M 10.800781 51.3125 "/>
<path style=" stroke:none;fill-rule:nonzero;fill:rgb(0%,0%,0%);fill-opacity:1;" d="M 10.800781 37.140625 C 10.800781 36.039063 9.90625 35.148438 8.808594 35.148438 C 7.707031 35.148438 6.8125 36.039063 6.8125 37.140625 C 6.8125 38.242188 7.707031 39.132813 8.808594 39.132813 C 9.90625 39.132813 10.800781 38.242188 10.800781 37.140625 Z M 10.800781 37.140625 "/>
<path style=" stroke:none;fill-rule:nonzero;fill:rgb(0%,0%,0%);fill-opacity:1;" d="M 24.972656 51.3125 C 24.972656 50.210938 24.082031 49.320313 22.980469 49.320313 C 21.878906 49.320313 20.988281 50.210938 20.988281 51.3125 C 20.988281 52.414063 21.878906 53.304688 22.980469 53.304688 C 24.082031 53.304688 24.972656 52.414063 24.972656 51.3125 Z M 24.972656 51.3125 "/>
<path style=" stroke:none;fill-rule:nonzero;fill:rgb(0%,0%,0%);fill-opacity:1;" d="M 24.972656 37.140625 C 24.972656 36.039063 24.082031 35.148438 22.980469 35.148438 C 21.878906 35.148438 20.988281 36.039063 20.988281 37.140625 C 20.988281 38.242188 21.878906 39.132813 22.980469 39.132813 C 24.082031 39.132813 24.972656 38.242188 24.972656 37.140625 Z M 24.972656 37.140625 "/>
<path style=" stroke:none;fill-rule:nonzero;fill:rgb(0%,0%,0%);fill-opacity:1;" d="M 10.800781 22.964844 C 10.800781 21.867188 9.90625 20.972656 8.808594 20.972656 C 7.707031 20.972656 6.8125 21.867188 6.8125 22.964844 C 6.8125 24.066406 7.707031 24.960938 8.808594 24.960938 C 9.90625 24.960938 10.800781 24.066406 10.800781 22.964844 Z M 10.800781 22.964844 "/>
<path style=" stroke:none;fill-rule:nonzero;fill:rgb(0%,0%,0%);fill-opacity:1;" d="M 17.886719 15.878906 C 17.886719 14.78125 16.992188 13.886719 15.894531 13.886719 C 14.792969 13.886719 13.902344 14.78125 13.902344 15.878906 C 13.902344 16.980469 14.792969 17.871094 15.894531 17.871094 C 16.992188 17.871094 17.886719 16.980469 17.886719 15.878906 Z M 17.886719 15.878906 "/>
<path style=" stroke:none;fill-rule:nonzero;fill:rgb(0%,0%,0%);fill-opacity:1;" d="M 24.972656 8.792969 C 24.972656 7.691406 24.082031 6.800781 22.980469 6.800781 C 21.878906 6.800781 20.988281 7.691406 20.988281 8.792969 C 20.988281 9.894531 21.878906 10.785156 22.980469 10.785156 C 24.082031 10.785156 24.972656 9.894531 24.972656 8.792969 Z M 24.972656 8.792969 "/>
</g>
</svg>
