<?xml version="1.0" encoding="UTF-8"?>
<svg xmlns="http://www.w3.org/2000/svg" xmlns:xlink="http://www.w3.org/1999/xlink" width="41pt" height="36pt" viewBox="0 0 41 36" version="1.1">
<g id="surface1">
<path style="fill:none;stroke-width:1.79329;stroke-linecap:butt;stroke-linejoin:miter;stroke:rgb(0%,0%,0%);stroke-opacity:1;stroke-miterlimit:10;" d="M 0.0005625 22.675813 L 19.641187 -11.339812 L -19.640063 -11.339812 L 0.0005625 22.675813 " transform="matrix(1,0,0,-1,20.351,22.668)"/>
<path style=" stroke:none;fill-rule:nonzero;fill:rgb(100%,100%,100%);fill-opacity:1;" d="M 22.742188 -0.0078125 C 22.742188 -1.332031 21.671875 -2.402344 20.351563 -2.402344 C 19.03125 -2.402344 17.960938 -1.332031 17.960938 -0.0078125 C 17.960938 1.3125 19.03125 2.382813 20.351563 2.382813 C 21.671875 2.382813 22.742188 1.3125 22.742188 -0.0078125 Z M 22.742188 -0.0078125 "/>
<path style=" stroke:none;fill-rule:nonzero;fill:rgb(100%,100%,100%);fill-opacity:1;" d="M 42.382813 34.007813 C 42.382813 32.6875 41.3125 31.617188 39.992188 31.617188 C 38.667969 31.617188 37.597656 32.6875 37.597656 34.007813 C 37.597656 35.328125 38.667969 36.398438 39.992188 36.398438 C 41.3125 36.398438 42.382813 35.328125 42.382813 34.007813 Z M 42.382813 34.007813 "/>
<path style=" stroke:none;fill-rule:nonzero;fill:rgb(100%,100%,100%);fill-opacity:1;" d="M 3.101563 34.007813 C 3.101563 32.6875 2.03125 31.617188 0.710938 31.617188 C -0.609375 31.617188 -1.679688 32.6875 -1.679688 34.007813 C -1.679688 35.328125 -0.609375 36.398438 0.710938 36.398438 C 2.03125 36.398438 3.101563 35.328125 3.101563 34.007813 Z M 3.101563 34.007813 "/>
</g>
</svg>
