<?xml version="1.0" encoding="UTF-8"?>
<svg xmlns="http://www.w3.org/2000/svg" xmlns:xlink="http://www.w3.org/1999/xlink" width="81pt" height="66pt" viewBox="0 0 81 66" version="1.1">
<g id="surface1">
<path style="fill:none;stroke-width:0.3985;stroke-linecap:butt;stroke-linejoin:miter;stroke:rgb(0%,0%,0%);stroke-opacity:1;stroke-miterlimit:10;" d="M -29.763438 -0.00046875 L -14.880625 39.687031 L -0.00171875 -0.00046875 L 44.646719 -19.844219 L 29.763906 -0.00046875 L -14.880625 39.687031 M 44.646719 -19.844219 L -29.763438 -0.00046875 " transform="matrix(1,0,0,-1,32.99,42.48)"/>
<path style=" stroke:none;fill-rule:nonzero;fill:rgb(0%,0%,0%);fill-opacity:1;" d="M 5.21875 42.480469 C 5.21875 41.378906 4.328125 40.488281 3.226563 40.488281 C 2.125 40.488281 1.234375 41.378906 1.234375 42.480469 C 1.234375 43.582031 2.125 44.472656 3.226563 44.472656 C 4.328125 44.472656 5.21875 43.582031 5.21875 42.480469 Z M 5.21875 42.480469 "/>
<path style=" stroke:none;fill-rule:nonzero;fill:rgb(0%,0%,0%);fill-opacity:1;" d="M 20.101563 2.792969 C 20.101563 1.695313 19.207031 0.800781 18.109375 0.800781 C 17.007813 0.800781 16.117188 1.695313 16.117188 2.792969 C 16.117188 3.894531 17.007813 4.789063 18.109375 4.789063 C 19.207031 4.789063 20.101563 3.894531 20.101563 2.792969 Z M 20.101563 2.792969 "/>
<path style=" stroke:none;fill-rule:nonzero;fill:rgb(0%,0%,0%);fill-opacity:1;" d="M 34.984375 42.480469 C 34.984375 41.378906 34.089844 40.488281 32.988281 40.488281 C 31.890625 40.488281 30.996094 41.378906 30.996094 42.480469 C 30.996094 43.582031 31.890625 44.472656 32.988281 44.472656 C 34.089844 44.472656 34.984375 43.582031 34.984375 42.480469 Z M 34.984375 42.480469 "/>
<path style=" stroke:none;fill-rule:nonzero;fill:rgb(0%,0%,0%);fill-opacity:1;" d="M 79.628906 62.324219 C 79.628906 61.222656 78.734375 60.332031 77.636719 60.332031 C 76.535156 60.332031 75.644531 61.222656 75.644531 62.324219 C 75.644531 63.421875 76.535156 64.316406 77.636719 64.316406 C 78.734375 64.316406 79.628906 63.421875 79.628906 62.324219 Z M 79.628906 62.324219 "/>
<path style=" stroke:none;fill-rule:nonzero;fill:rgb(0%,0%,0%);fill-opacity:1;" d="M 64.746094 42.480469 C 64.746094 41.378906 63.855469 40.488281 62.753906 40.488281 C 61.652344 40.488281 60.761719 41.378906 60.761719 42.480469 C 60.761719 43.582031 61.652344 44.472656 62.753906 44.472656 C 63.855469 44.472656 64.746094 43.582031 64.746094 42.480469 Z M 64.746094 42.480469 "/>
</g>
</svg>
