<?xml version="1.0" encoding="UTF-8"?>
<svg xmlns="http://www.w3.org/2000/svg" xmlns:xlink="http://www.w3.org/1999/xlink" width="82pt" height="78pt" viewBox="0 0 82 78" version="1.1">
<g id="surface1">
<path style="fill:none;stroke-width:0.79701;stroke-linecap:butt;stroke-linejoin:miter;stroke:rgb(0%,0%,0%);stroke-opacity:1;stroke-miterlimit:10;" d="M 37.744937 12.264719 L -0.00115625 39.686594 L -37.743344 12.264719 L -23.325375 -32.106375 L 23.326969 -32.106375 Z M 37.744937 12.264719 " transform="matrix(1,0,0,-1,40.966,42.878)"/>
<path style="fill:none;stroke-width:0.79701;stroke-linecap:butt;stroke-linejoin:miter;stroke:rgb(0%,0%,0%);stroke-opacity:1;stroke-miterlimit:10;" d="M 18.869937 6.131906 L -18.87225 6.131906 L 11.662906 -16.051687 L -0.00115625 19.842844 L -11.661313 -16.051687 Z M 18.869937 6.131906 " transform="matrix(1,0,0,-1,40.966,42.878)"/>
<path style="fill:none;stroke-width:0.79701;stroke-linecap:butt;stroke-linejoin:miter;stroke:rgb(0%,0%,0%);stroke-opacity:1;stroke-miterlimit:10;" d="M 18.869937 6.131906 L 37.744937 12.264719 " transform="matrix(1,0,0,-1,40.966,42.878)"/>
<path style=" stroke:none;fill-rule:nonzero;fill:rgb(0%,0%,0%);fill-opacity:1;" d="M 61.832031 36.746094 C 61.832031 35.644531 60.9375 34.753906 59.835938 34.753906 C 58.738281 34.753906 57.84375 35.644531 57.84375 36.746094 C 57.84375 37.847656 58.738281 38.738281 59.835938 38.738281 C 60.9375 38.738281 61.832031 37.847656 61.832031 36.746094 Z M 61.832031 36.746094 "/>
<path style=" stroke:none;fill-rule:nonzero;fill:rgb(0%,0%,0%);fill-opacity:1;" d="M 80.703125 30.613281 C 80.703125 29.515625 79.808594 28.621094 78.710938 28.621094 C 77.609375 28.621094 76.71875 29.515625 76.71875 30.613281 C 76.71875 31.714844 77.609375 32.605469 78.710938 32.605469 C 79.808594 32.605469 80.703125 31.714844 80.703125 30.613281 Z M 80.703125 30.613281 "/>
<path style="fill:none;stroke-width:0.79701;stroke-linecap:butt;stroke-linejoin:miter;stroke:rgb(0%,0%,0%);stroke-opacity:1;stroke-miterlimit:10;" d="M -0.00115625 19.842844 L -0.00115625 39.686594 " transform="matrix(1,0,0,-1,40.966,42.878)"/>
<path style=" stroke:none;fill-rule:nonzero;fill:rgb(0%,0%,0%);fill-opacity:1;" d="M 42.957031 23.035156 C 42.957031 21.933594 42.066406 21.042969 40.964844 21.042969 C 39.867188 21.042969 38.972656 21.933594 38.972656 23.035156 C 38.972656 24.136719 39.867188 25.027344 40.964844 25.027344 C 42.066406 25.027344 42.957031 24.136719 42.957031 23.035156 Z M 42.957031 23.035156 "/>
<path style=" stroke:none;fill-rule:nonzero;fill:rgb(0%,0%,0%);fill-opacity:1;" d="M 42.957031 3.191406 C 42.957031 2.09375 42.066406 1.199219 40.964844 1.199219 C 39.867188 1.199219 38.972656 2.09375 38.972656 3.191406 C 38.972656 4.292969 39.867188 5.183594 40.964844 5.183594 C 42.066406 5.183594 42.957031 4.292969 42.957031 3.191406 Z M 42.957031 3.191406 "/>
<path style="fill:none;stroke-width:0.79701;stroke-linecap:butt;stroke-linejoin:miter;stroke:rgb(0%,0%,0%);stroke-opacity:1;stroke-miterlimit:10;" d="M -18.87225 6.131906 L -37.743344 12.264719 " transform="matrix(1,0,0,-1,40.966,42.878)"/>
<path style=" stroke:none;fill-rule:nonzero;fill:rgb(0%,0%,0%);fill-opacity:1;" d="M 24.085938 36.746094 C 24.085938 35.644531 23.195313 34.753906 22.09375 34.753906 C 20.992188 34.753906 20.101563 35.644531 20.101563 36.746094 C 20.101563 37.847656 20.992188 38.738281 22.09375 38.738281 C 23.195313 38.738281 24.085938 37.847656 24.085938 36.746094 Z M 24.085938 36.746094 "/>
<path style=" stroke:none;fill-rule:nonzero;fill:rgb(0%,0%,0%);fill-opacity:1;" d="M 5.214844 30.613281 C 5.214844 29.515625 4.324219 28.621094 3.222656 28.621094 C 2.121094 28.621094 1.230469 29.515625 1.230469 30.613281 C 1.230469 31.714844 2.121094 32.605469 3.222656 32.605469 C 4.324219 32.605469 5.214844 31.714844 5.214844 30.613281 Z M 5.214844 30.613281 "/>
<path style="fill:none;stroke-width:0.79701;stroke-linecap:butt;stroke-linejoin:miter;stroke:rgb(0%,0%,0%);stroke-opacity:1;stroke-miterlimit:10;" d="M -11.661313 -16.051687 L -23.325375 -32.106375 " transform="matrix(1,0,0,-1,40.966,42.878)"/>
<path style=" stroke:none;fill-rule:nonzero;fill:rgb(0%,0%,0%);fill-opacity:1;" d="M 31.296875 58.929688 C 31.296875 57.832031 30.402344 56.9375 29.304688 56.9375 C 28.203125 56.9375 27.308594 57.832031 27.308594 58.929688 C 27.308594 60.03125 28.203125 60.921875 29.304688 60.921875 C 30.402344 60.921875 31.296875 60.03125 31.296875 58.929688 Z M 31.296875 58.929688 "/>
<path style=" stroke:none;fill-rule:nonzero;fill:rgb(0%,0%,0%);fill-opacity:1;" d="M 19.632813 74.984375 C 19.632813 73.882813 18.738281 72.992188 17.640625 72.992188 C 16.539063 72.992188 15.648438 73.882813 15.648438 74.984375 C 15.648438 76.085938 16.539063 76.976563 17.640625 76.976563 C 18.738281 76.976563 19.632813 76.085938 19.632813 74.984375 Z M 19.632813 74.984375 "/>
<path style="fill:none;stroke-width:0.79701;stroke-linecap:butt;stroke-linejoin:miter;stroke:rgb(0%,0%,0%);stroke-opacity:1;stroke-miterlimit:10;" d="M 11.662906 -16.051687 L 23.326969 -32.106375 " transform="matrix(1,0,0,-1,40.966,42.878)"/>
<path style=" stroke:none;fill-rule:nonzero;fill:rgb(0%,0%,0%);fill-opacity:1;" d="M 54.621094 58.929688 C 54.621094 57.832031 53.730469 56.9375 52.628906 56.9375 C 51.527344 56.9375 50.636719 57.832031 50.636719 58.929688 C 50.636719 60.03125 51.527344 60.921875 52.628906 60.921875 C 53.730469 60.921875 54.621094 60.03125 54.621094 58.929688 Z M 54.621094 58.929688 "/>
<path style=" stroke:none;fill-rule:nonzero;fill:rgb(0%,0%,0%);fill-opacity:1;" d="M 66.285156 74.984375 C 66.285156 73.882813 65.394531 72.992188 64.292969 72.992188 C 63.191406 72.992188 62.300781 73.882813 62.300781 74.984375 C 62.300781 76.085938 63.191406 76.976563 64.292969 76.976563 C 65.394531 76.976563 66.285156 76.085938 66.285156 74.984375 Z M 66.285156 74.984375 "/>
</g>
</svg>
