<?xml version="1.0" encoding="UTF-8"?>
<svg xmlns="http://www.w3.org/2000/svg" xmlns:xlink="http://www.w3.org/1999/xlink" width="46pt" height="46pt" viewBox="0 0 46 46" version="1.1">
<g id="surface1">
<path style="fill:none;stroke-width:0.3985;stroke-linecap:butt;stroke-linejoin:miter;stroke:rgb(0%,0%,0%);stroke-opacity:1;stroke-miterlimit:10;" d="M 8.018156 8.017688 L 20.0455 20.045031 L -20.044344 20.045031 M 8.018156 8.017688 L -8.017 8.017688 " transform="matrix(1,0,0,-1,23.267,22.838)"/>
<path style=" stroke:none;fill-rule:nonzero;fill:rgb(0%,0%,0%);fill-opacity:1;" d="M 33.277344 14.820313 C 33.277344 13.71875 32.386719 12.828125 31.285156 12.828125 C 30.183594 12.828125 29.292969 13.71875 29.292969 14.820313 C 29.292969 15.921875 30.183594 16.8125 31.285156 16.8125 C 32.386719 16.8125 33.277344 15.921875 33.277344 14.820313 Z M 33.277344 14.820313 "/>
<path style=" stroke:none;fill-rule:nonzero;fill:rgb(0%,0%,0%);fill-opacity:1;" d="M 45.304688 2.792969 C 45.304688 1.691406 44.410156 0.800781 43.3125 0.800781 C 42.210938 0.800781 41.320313 1.691406 41.320313 2.792969 C 41.320313 3.894531 42.210938 4.785156 43.3125 4.785156 C 44.410156 4.785156 45.304688 3.894531 45.304688 2.792969 Z M 45.304688 2.792969 "/>
<path style="fill:none;stroke-width:0.3985;stroke-linecap:butt;stroke-linejoin:miter;stroke:rgb(0%,0%,0%);stroke-opacity:1;stroke-miterlimit:10;" d="M -8.017 8.017688 L -20.044344 20.045031 L -20.044344 -20.044812 M -8.017 8.017688 L -8.017 -8.017469 " transform="matrix(1,0,0,-1,23.267,22.838)"/>
<path style=" stroke:none;fill-rule:nonzero;fill:rgb(0%,0%,0%);fill-opacity:1;" d="M 17.242188 14.820313 C 17.242188 13.71875 16.351563 12.828125 15.25 12.828125 C 14.148438 12.828125 13.257813 13.71875 13.257813 14.820313 C 13.257813 15.921875 14.148438 16.8125 15.25 16.8125 C 16.351563 16.8125 17.242188 15.921875 17.242188 14.820313 Z M 17.242188 14.820313 "/>
<path style=" stroke:none;fill-rule:nonzero;fill:rgb(0%,0%,0%);fill-opacity:1;" d="M 5.214844 2.792969 C 5.214844 1.691406 4.324219 0.800781 3.222656 0.800781 C 2.121094 0.800781 1.230469 1.691406 1.230469 2.792969 C 1.230469 3.894531 2.121094 4.785156 3.222656 4.785156 C 4.324219 4.785156 5.214844 3.894531 5.214844 2.792969 Z M 5.214844 2.792969 "/>
<path style="fill:none;stroke-width:0.3985;stroke-linecap:butt;stroke-linejoin:miter;stroke:rgb(0%,0%,0%);stroke-opacity:1;stroke-miterlimit:10;" d="M -8.017 -8.017469 L -20.044344 -20.044812 L 20.0455 -20.044812 M -8.017 -8.017469 L 8.018156 -8.017469 " transform="matrix(1,0,0,-1,23.267,22.838)"/>
<path style=" stroke:none;fill-rule:nonzero;fill:rgb(0%,0%,0%);fill-opacity:1;" d="M 17.242188 30.855469 C 17.242188 29.753906 16.351563 28.863281 15.25 28.863281 C 14.148438 28.863281 13.257813 29.753906 13.257813 30.855469 C 13.257813 31.957031 14.148438 32.847656 15.25 32.847656 C 16.351563 32.847656 17.242188 31.957031 17.242188 30.855469 Z M 17.242188 30.855469 "/>
<path style=" stroke:none;fill-rule:nonzero;fill:rgb(0%,0%,0%);fill-opacity:1;" d="M 5.214844 42.882813 C 5.214844 41.78125 4.324219 40.890625 3.222656 40.890625 C 2.121094 40.890625 1.230469 41.78125 1.230469 42.882813 C 1.230469 43.984375 2.121094 44.875 3.222656 44.875 C 4.324219 44.875 5.214844 43.984375 5.214844 42.882813 Z M 5.214844 42.882813 "/>
<path style="fill:none;stroke-width:0.3985;stroke-linecap:butt;stroke-linejoin:miter;stroke:rgb(0%,0%,0%);stroke-opacity:1;stroke-miterlimit:10;" d="M 8.018156 -8.017469 L 20.0455 -20.044812 L 20.0455 20.045031 M 8.018156 -8.017469 L 8.018156 8.017688 " transform="matrix(1,0,0,-1,23.267,22.838)"/>
<path style=" stroke:none;fill-rule:nonzero;fill:rgb(0%,0%,0%);fill-opacity:1;" d="M 33.277344 30.855469 C 33.277344 29.753906 32.386719 28.863281 31.285156 28.863281 C 30.183594 28.863281 29.292969 29.753906 29.292969 30.855469 C 29.292969 31.957031 30.183594 32.847656 31.285156 32.847656 C 32.386719 32.847656 33.277344 31.957031 33.277344 30.855469 Z M 33.277344 30.855469 "/>
<path style=" stroke:none;fill-rule:nonzero;fill:rgb(0%,0%,0%);fill-opacity:1;" d="M 45.304688 42.882813 C 45.304688 41.78125 44.410156 40.890625 43.3125 40.890625 C 42.210938 40.890625 41.320313 41.78125 41.320313 42.882813 C 41.320313 43.984375 42.210938 44.875 43.3125 44.875 C 44.410156 44.875 45.304688 43.984375 45.304688 42.882813 Z M 45.304688 42.882813 "/>
</g>
</svg>
