<?xml version="1.0" encoding="UTF-8"?>
<svg xmlns="http://www.w3.org/2000/svg" xmlns:xlink="http://www.w3.org/1999/xlink" width="60pt" height="57pt" viewBox="0 0 60 57" version="1.1">
<g id="surface1">
<path style="fill:none;stroke-width:1.19553;stroke-linecap:butt;stroke-linejoin:miter;stroke:rgb(0%,0%,0%);stroke-opacity:1;stroke-miterlimit:10;" d="M 0.00159375 28.348031 L 0.00159375 14.17225 M 0.00159375 14.17225 L -8.330438 -11.468375 M -8.330438 -11.468375 L -16.662469 -22.933219 L -26.959344 8.758188 L -13.478875 4.379281 L 13.478156 4.379281 L 26.958625 8.758188 L 16.66175 -22.933219 L 8.329719 -11.468375 " transform="matrix(1,0,0,-1,30.182,31.141)"/>
<path style="fill:none;stroke-width:0.9564;stroke-linecap:round;stroke-linejoin:round;stroke:rgb(0%,0%,0%);stroke-opacity:1;stroke-miterlimit:10;" d="M -1.914885 2.550665 C -1.751711 1.593303 0.00011728 0.158127 0.478217 0.00130684 C 0.000177749 -0.158109 -1.75501 -1.594968 -1.912993 -2.549883 " transform="matrix(0.95107,0.30899,0.30899,-0.95107,9.06431,24.27926)"/>
<path style="fill:none;stroke-width:0.3985;stroke-linecap:butt;stroke-linejoin:miter;stroke:rgb(0%,0%,0%);stroke-opacity:1;stroke-miterlimit:10;" d="M 26.958625 8.758188 L 0.00159375 28.348031 L -26.959344 8.758188 L -16.662469 -22.933219 L 16.66175 -22.933219 Z M 26.958625 8.758188 " transform="matrix(1,0,0,-1,30.182,31.141)"/>
<path style="fill:none;stroke-width:0.3985;stroke-linecap:butt;stroke-linejoin:miter;stroke:rgb(0%,0%,0%);stroke-opacity:1;stroke-miterlimit:10;" d="M 13.478156 4.379281 L -13.478875 4.379281 L 8.329719 -11.468375 L 0.00159375 14.17225 L -8.330438 -11.468375 Z M 13.478156 4.379281 " transform="matrix(1,0,0,-1,30.182,31.141)"/>
<path style="fill:none;stroke-width:0.3985;stroke-linecap:butt;stroke-linejoin:miter;stroke:rgb(0%,0%,0%);stroke-opacity:1;stroke-miterlimit:10;" d="M 13.478156 4.379281 L 26.958625 8.758188 " transform="matrix(1,0,0,-1,30.182,31.141)"/>
<path style=" stroke:none;fill-rule:nonzero;fill:rgb(0%,0%,0%);fill-opacity:1;" d="M 45.65625 26.761719 C 45.65625 25.660156 44.761719 24.769531 43.660156 24.769531 C 42.5625 24.769531 41.667969 25.660156 41.667969 26.761719 C 41.667969 27.863281 42.5625 28.753906 43.660156 28.753906 C 44.761719 28.753906 45.65625 27.863281 45.65625 26.761719 Z M 45.65625 26.761719 "/>
<path style=" stroke:none;fill-rule:nonzero;fill:rgb(0%,0%,0%);fill-opacity:1;" d="M 59.132813 22.382813 C 59.132813 21.28125 58.242188 20.390625 57.140625 20.390625 C 56.042969 20.390625 55.148438 21.28125 55.148438 22.382813 C 55.148438 23.480469 56.042969 24.375 57.140625 24.375 C 58.242188 24.375 59.132813 23.480469 59.132813 22.382813 Z M 59.132813 22.382813 "/>
<path style="fill:none;stroke-width:0.3985;stroke-linecap:butt;stroke-linejoin:miter;stroke:rgb(0%,0%,0%);stroke-opacity:1;stroke-miterlimit:10;" d="M 0.00159375 14.17225 L 0.00159375 28.348031 " transform="matrix(1,0,0,-1,30.182,31.141)"/>
<path style=" stroke:none;fill-rule:nonzero;fill:rgb(0%,0%,0%);fill-opacity:1;" d="M 32.175781 16.96875 C 32.175781 15.867188 31.28125 14.976563 30.183594 14.976563 C 29.082031 14.976563 28.1875 15.867188 28.1875 16.96875 C 28.1875 18.066406 29.082031 18.960938 30.183594 18.960938 C 31.28125 18.960938 32.175781 18.066406 32.175781 16.96875 Z M 32.175781 16.96875 "/>
<path style=" stroke:none;fill-rule:nonzero;fill:rgb(0%,0%,0%);fill-opacity:1;" d="M 32.175781 2.792969 C 32.175781 1.695313 31.28125 0.800781 30.183594 0.800781 C 29.082031 0.800781 28.1875 1.695313 28.1875 2.792969 C 28.1875 3.894531 29.082031 4.785156 30.183594 4.785156 C 31.28125 4.785156 32.175781 3.894531 32.175781 2.792969 Z M 32.175781 2.792969 "/>
<path style="fill:none;stroke-width:0.3985;stroke-linecap:butt;stroke-linejoin:miter;stroke:rgb(0%,0%,0%);stroke-opacity:1;stroke-miterlimit:10;" d="M -13.478875 4.379281 L -26.959344 8.758188 " transform="matrix(1,0,0,-1,30.182,31.141)"/>
<path style=" stroke:none;fill-rule:nonzero;fill:rgb(0%,0%,0%);fill-opacity:1;" d="M 18.695313 26.761719 C 18.695313 25.660156 17.800781 24.769531 16.703125 24.769531 C 15.601563 24.769531 14.710938 25.660156 14.710938 26.761719 C 14.710938 27.863281 15.601563 28.753906 16.703125 28.753906 C 17.800781 28.753906 18.695313 27.863281 18.695313 26.761719 Z M 18.695313 26.761719 "/>
<path style=" stroke:none;fill-rule:nonzero;fill:rgb(0%,0%,0%);fill-opacity:1;" d="M 5.214844 22.382813 C 5.214844 21.28125 4.324219 20.390625 3.222656 20.390625 C 2.121094 20.390625 1.230469 21.28125 1.230469 22.382813 C 1.230469 23.480469 2.121094 24.375 3.222656 24.375 C 4.324219 24.375 5.214844 23.480469 5.214844 22.382813 Z M 5.214844 22.382813 "/>
<path style="fill:none;stroke-width:0.3985;stroke-linecap:butt;stroke-linejoin:miter;stroke:rgb(0%,0%,0%);stroke-opacity:1;stroke-miterlimit:10;" d="M -8.330438 -11.468375 L -16.662469 -22.933219 " transform="matrix(1,0,0,-1,30.182,31.141)"/>
<path style=" stroke:none;fill-rule:nonzero;fill:rgb(0%,0%,0%);fill-opacity:1;" d="M 23.84375 42.609375 C 23.84375 41.507813 22.953125 40.613281 21.851563 40.613281 C 20.75 40.613281 19.859375 41.507813 19.859375 42.609375 C 19.859375 43.707031 20.75 44.601563 21.851563 44.601563 C 22.953125 44.601563 23.84375 43.707031 23.84375 42.609375 Z M 23.84375 42.609375 "/>
<path style=" stroke:none;fill-rule:nonzero;fill:rgb(0%,0%,0%);fill-opacity:1;" d="M 15.511719 54.074219 C 15.511719 52.972656 14.621094 52.082031 13.519531 52.082031 C 12.417969 52.082031 11.527344 52.972656 11.527344 54.074219 C 11.527344 55.175781 12.417969 56.066406 13.519531 56.066406 C 14.621094 56.066406 15.511719 55.175781 15.511719 54.074219 Z M 15.511719 54.074219 "/>
<path style="fill:none;stroke-width:0.3985;stroke-linecap:butt;stroke-linejoin:miter;stroke:rgb(0%,0%,0%);stroke-opacity:1;stroke-miterlimit:10;" d="M 8.329719 -11.468375 L 16.66175 -22.933219 " transform="matrix(1,0,0,-1,30.182,31.141)"/>
<path style=" stroke:none;fill-rule:nonzero;fill:rgb(0%,0%,0%);fill-opacity:1;" d="M 40.503906 42.609375 C 40.503906 41.507813 39.613281 40.613281 38.511719 40.613281 C 37.414063 40.613281 36.519531 41.507813 36.519531 42.609375 C 36.519531 43.707031 37.414063 44.601563 38.511719 44.601563 C 39.613281 44.601563 40.503906 43.707031 40.503906 42.609375 Z M 40.503906 42.609375 "/>
<path style=" stroke:none;fill-rule:nonzero;fill:rgb(0%,0%,0%);fill-opacity:1;" d="M 48.835938 54.074219 C 48.835938 52.972656 47.945313 52.082031 46.84375 52.082031 C 45.742188 52.082031 44.851563 52.972656 44.851563 54.074219 C 44.851563 55.175781 45.742188 56.066406 46.84375 56.066406 C 47.945313 56.066406 48.835938 55.175781 48.835938 54.074219 Z M 48.835938 54.074219 "/>
</g>
</svg>
