<?xml version="1.0" encoding="UTF-8"?>
<svg xmlns="http://www.w3.org/2000/svg" xmlns:xlink="http://www.w3.org/1999/xlink" width="59pt" height="58pt" viewBox="0 0 59 58" version="1.1">
<g id="surface1">
<path style=" stroke:none;fill-rule:nonzero;fill:rgb(0%,0%,0%);fill-opacity:1;" d="M 31.402344 28.980469 C 31.402344 27.882813 30.511719 26.988281 29.410156 26.988281 C 28.308594 26.988281 27.417969 27.882813 27.417969 28.980469 C 27.417969 30.082031 28.308594 30.972656 29.410156 30.972656 C 30.511719 30.972656 31.402344 30.082031 31.402344 28.980469 Z M 31.402344 28.980469 "/>
<path style="fill:none;stroke-width:0.3985;stroke-linecap:butt;stroke-linejoin:miter;stroke:rgb(0%,0%,0%);stroke-opacity:1;stroke-miterlimit:10;" d="M 0.00015625 0.00153125 L 26.187656 10.845281 " transform="matrix(1,0,0,-1,29.41,28.982)"/>
<path style=" stroke:none;fill-rule:nonzero;fill:rgb(0%,0%,0%);fill-opacity:1;" d="M 57.589844 18.136719 C 57.589844 17.035156 56.699219 16.140625 55.597656 16.140625 C 54.496094 16.140625 53.605469 17.035156 53.605469 18.136719 C 53.605469 19.234375 54.496094 20.128906 55.597656 20.128906 C 56.699219 20.128906 57.589844 19.234375 57.589844 18.136719 Z M 57.589844 18.136719 "/>
<path style="fill:none;stroke-width:0.3985;stroke-linecap:butt;stroke-linejoin:miter;stroke:rgb(0%,0%,0%);stroke-opacity:1;stroke-miterlimit:10;" d="M 0.00015625 0.00153125 L 10.847813 26.189031 " transform="matrix(1,0,0,-1,29.41,28.982)"/>
<path style=" stroke:none;fill-rule:nonzero;fill:rgb(0%,0%,0%);fill-opacity:1;" d="M 42.25 2.792969 C 42.25 1.695313 41.359375 0.800781 40.257813 0.800781 C 39.15625 0.800781 38.265625 1.695313 38.265625 2.792969 C 38.265625 3.894531 39.15625 4.785156 40.257813 4.785156 C 41.359375 4.785156 42.25 3.894531 42.25 2.792969 Z M 42.25 2.792969 "/>
<path style="fill:none;stroke-width:0.3985;stroke-linecap:butt;stroke-linejoin:miter;stroke:rgb(0%,0%,0%);stroke-opacity:1;stroke-miterlimit:10;" d="M 0.00015625 0.00153125 L -10.8475 26.189031 " transform="matrix(1,0,0,-1,29.41,28.982)"/>
<path style=" stroke:none;fill-rule:nonzero;fill:rgb(0%,0%,0%);fill-opacity:1;" d="M 20.554688 2.792969 C 20.554688 1.695313 19.664063 0.800781 18.5625 0.800781 C 17.460938 0.800781 16.570313 1.695313 16.570313 2.792969 C 16.570313 3.894531 17.460938 4.785156 18.5625 4.785156 C 19.664063 4.785156 20.554688 3.894531 20.554688 2.792969 Z M 20.554688 2.792969 "/>
<path style="fill:none;stroke-width:0.3985;stroke-linecap:butt;stroke-linejoin:miter;stroke:rgb(0%,0%,0%);stroke-opacity:1;stroke-miterlimit:10;" d="M 0.00015625 0.00153125 L -26.187344 10.845281 " transform="matrix(1,0,0,-1,29.41,28.982)"/>
<path style=" stroke:none;fill-rule:nonzero;fill:rgb(0%,0%,0%);fill-opacity:1;" d="M 5.214844 18.136719 C 5.214844 17.035156 4.324219 16.140625 3.222656 16.140625 C 2.121094 16.140625 1.230469 17.035156 1.230469 18.136719 C 1.230469 19.234375 2.121094 20.128906 3.222656 20.128906 C 4.324219 20.128906 5.214844 19.234375 5.214844 18.136719 Z M 5.214844 18.136719 "/>
<path style="fill:none;stroke-width:0.3985;stroke-linecap:butt;stroke-linejoin:miter;stroke:rgb(0%,0%,0%);stroke-opacity:1;stroke-miterlimit:10;" d="M 0.00015625 0.00153125 L -26.187344 -10.846125 " transform="matrix(1,0,0,-1,29.41,28.982)"/>
<path style=" stroke:none;fill-rule:nonzero;fill:rgb(0%,0%,0%);fill-opacity:1;" d="M 5.214844 39.828125 C 5.214844 38.730469 4.324219 37.835938 3.222656 37.835938 C 2.121094 37.835938 1.230469 38.730469 1.230469 39.828125 C 1.230469 40.929688 2.121094 41.820313 3.222656 41.820313 C 4.324219 41.820313 5.214844 40.929688 5.214844 39.828125 Z M 5.214844 39.828125 "/>
<path style="fill:none;stroke-width:0.3985;stroke-linecap:butt;stroke-linejoin:miter;stroke:rgb(0%,0%,0%);stroke-opacity:1;stroke-miterlimit:10;" d="M 0.00015625 0.00153125 L -10.8475 -26.189875 " transform="matrix(1,0,0,-1,29.41,28.982)"/>
<path style=" stroke:none;fill-rule:nonzero;fill:rgb(0%,0%,0%);fill-opacity:1;" d="M 20.554688 55.171875 C 20.554688 54.070313 19.664063 53.175781 18.5625 53.175781 C 17.460938 53.175781 16.570313 54.070313 16.570313 55.171875 C 16.570313 56.269531 17.460938 57.164063 18.5625 57.164063 C 19.664063 57.164063 20.554688 56.269531 20.554688 55.171875 Z M 20.554688 55.171875 "/>
<path style="fill:none;stroke-width:0.3985;stroke-linecap:butt;stroke-linejoin:miter;stroke:rgb(0%,0%,0%);stroke-opacity:1;stroke-miterlimit:10;" d="M 0.00015625 0.00153125 L 10.847813 -26.189875 " transform="matrix(1,0,0,-1,29.41,28.982)"/>
<path style=" stroke:none;fill-rule:nonzero;fill:rgb(0%,0%,0%);fill-opacity:1;" d="M 42.25 55.171875 C 42.25 54.070313 41.359375 53.175781 40.257813 53.175781 C 39.15625 53.175781 38.265625 54.070313 38.265625 55.171875 C 38.265625 56.269531 39.15625 57.164063 40.257813 57.164063 C 41.359375 57.164063 42.25 56.269531 42.25 55.171875 Z M 42.25 55.171875 "/>
<path style="fill:none;stroke-width:0.3985;stroke-linecap:butt;stroke-linejoin:miter;stroke:rgb(0%,0%,0%);stroke-opacity:1;stroke-miterlimit:10;" d="M 0.00015625 0.00153125 L 26.187656 -10.846125 " transform="matrix(1,0,0,-1,29.41,28.982)"/>
<path style=" stroke:none;fill-rule:nonzero;fill:rgb(0%,0%,0%);fill-opacity:1;" d="M 57.589844 39.828125 C 57.589844 38.730469 56.699219 37.835938 55.597656 37.835938 C 54.496094 37.835938 53.605469 38.730469 53.605469 39.828125 C 53.605469 40.929688 54.496094 41.820313 55.597656 41.820313 C 56.699219 41.820313 57.589844 40.929688 57.589844 39.828125 Z M 57.589844 39.828125 "/>
</g>
</svg>
