<?xml version="1.0" encoding="UTF-8"?>
<svg xmlns="http://www.w3.org/2000/svg" xmlns:xlink="http://www.w3.org/1999/xlink" width="103pt" height="83pt" viewBox="0 0 103 83" version="1.1">
<g id="surface1">
<path style="fill-rule:nonzero;fill:rgb(89.99939%,89.99939%,89.99939%);fill-opacity:1;stroke-width:0.69739;stroke-linecap:butt;stroke-linejoin:miter;stroke:rgb(100%,100%,100%);stroke-opacity:1;stroke-miterlimit:10;" d="M 46.445687 -103.47425 L 46.832406 -102.767219 L 47.281625 -102.700812 L 47.344125 -102.864875 L 46.926156 -103.47425 Z M 48.473031 -102.735969 L 49.695687 -103.251594 L 50.117562 -103.185187 L 50.437875 -102.41175 L 50.308969 -101.735969 L 49.473031 -101.638312 L 48.668344 -101.993781 Z M 54.594125 -104.732062 L 55.336312 -105.825812 L 55.816781 -105.763312 L 56.043344 -105.665656 L 56.332406 -105.923469 L 57.074594 -105.892219 L 57.266 -105.603156 L 56.687875 -105.247687 L 56.301156 -104.5055 L 55.883187 -103.798469 L 54.723031 -104.376594 Z M 58.621469 -106.501594 L 58.879281 -106.118781 L 59.812875 -106.310187 L 59.941781 -106.212531 L 61.164437 -106.341437 L 61.101937 -106.59925 L 60.586312 -106.888312 L 59.715219 -106.825812 Z M 59.683969 -107.532844 L 60.070687 -108.306281 L 60.680062 -108.083625 L 60.746469 -107.759406 L 60.42225 -107.341437 L 59.683969 -107.275031 Z M 61.066781 -107.310187 L 61.519906 -106.728156 L 62.4535 -107.212531 L 63.324594 -107.439094 L 64.191781 -107.985969 L 64.191781 -108.372687 L 63.48475 -108.72425 L 62.516 -108.919562 L 62.035531 -108.6305 Z M 64.387094 -110.400031 L 64.707406 -110.142219 L 65.383187 -110.466437 L 66.898812 -111.173469 L 67.574594 -111.591437 L 67.898812 -112.075812 L 68.285531 -112.946906 L 69.090219 -113.462531 L 69.023812 -113.720344 L 68.250375 -114.364875 L 67.414437 -114.653937 L 67.125375 -114.525031 L 66.512094 -114.8805 L 66.027719 -115.521125 L 65.5785 -116.103156 L 65.223031 -116.071906 L 64.516 -115.556281 L 64.449594 -114.653937 L 64.5785 -114.169562 L 64.258187 -113.040656 L 63.840219 -112.689094 L 63.805062 -112.173469 L 64.258187 -111.978156 L 64.676156 -111.368781 L 64.773812 -111.173469 L 64.449594 -110.818 Z M 64.387094 -110.400031 " transform="matrix(1,0,0,-1,-3.516,-29.568)"/>
<path style="fill-rule:nonzero;fill:rgb(89.99939%,89.99939%,89.99939%);fill-opacity:1;stroke-width:0.69739;stroke-linecap:butt;stroke-linejoin:miter;stroke:rgb(100%,100%,100%);stroke-opacity:1;stroke-miterlimit:10;" d="M 31.496469 -90.396125 L 31.433969 -107.403937 L 31.754281 -107.59925 L 32.367562 -107.6305 L 32.656625 -107.403937 L 33.17225 -107.403937 L 33.2035 -107.985969 L 34.590219 -109.337531 L 34.687875 -109.853156 L 35.363656 -109.466437 L 35.492562 -109.435187 L 35.555062 -108.821906 L 35.848031 -108.501594 L 36.070687 -108.470344 L 36.457406 -108.177375 L 37.070687 -108.595344 L 37.199594 -109.177375 L 37.586312 -109.403937 L 37.812875 -109.884406 L 38.586312 -110.239875 L 39.262094 -111.431281 L 39.808969 -112.204719 L 40.258187 -112.751594 L 40.551156 -113.493781 L 41.54725 -113.84925 L 42.5785 -114.267219 L 42.773812 -115.134406 L 42.867562 -115.747687 L 42.676156 -116.423469 L 42.320687 -116.876594 L 42.000375 -116.716437 L 41.707406 -116.103156 L 41.160531 -115.814094 L 40.805062 -115.587531 L 40.644906 -115.747687 L 40.933969 -116.294562 L 40.969125 -117.03675 L 40.742562 -117.134406 L 40.355844 -116.747687 L 39.937875 -116.489875 L 40.035531 -116.810187 L 40.293344 -117.165656 L 40.129281 -117.325812 C 40.129281 -117.325812 39.969125 -117.263312 39.871469 -117.134406 C 39.777719 -117.0055 39.4535 -116.458625 39.4535 -116.458625 L 39.262094 -116.0055 C 39.262094 -116.0055 39.195687 -116.263312 39.066781 -116.200812 C 38.937875 -116.134406 38.808969 -115.907844 38.808969 -115.907844 L 39.164437 -115.521125 L 38.875375 -115.232062 L 38.875375 -114.235969 L 38.711312 -114.235969 L 38.551156 -114.91175 L 38.3285 -115.009406 L 38.133187 -114.267219 L 38.004281 -113.525031 L 37.844125 -113.427375 L 37.906625 -114.556281 L 37.906625 -114.782844 L 37.617562 -114.525031 L 36.910531 -113.333625 L 36.488656 -113.235969 L 36.363656 -112.493781 L 36.039437 -111.915656 L 35.719125 -111.689094 L 35.719125 -111.239875 L 36.137094 -110.982062 L 36.039437 -110.915656 L 35.523812 -111.044562 L 34.848031 -110.564094 L 34.332406 -109.982062 L 33.367562 -109.466437 L 32.558969 -108.950812 L 32.816781 -108.306281 L 32.816781 -107.985969 L 32.465219 -108.306281 L 31.883187 -108.532844 L 31.144906 -108.306281 L 30.016 -107.825812 L 28.92225 -107.825812 L 28.793344 -107.919562 L 27.504281 -107.146125 L 27.086312 -107.083625 L 26.535531 -105.923469 L 25.8285 -105.989875 L 25.121469 -106.278937 L 25.215219 -107.181281 L 25.441781 -106.59925 L 25.637094 -106.665656 L 25.344125 -107.532844 L 25.988656 -106.985969 L 26.117562 -107.310187 L 25.344125 -108.177375 L 25.086312 -108.114875 L 24.992562 -107.728156 L 24.73475 -107.568 L 24.476937 -107.790656 L 23.926156 -107.439094 L 23.316781 -107.857062 L 22.961312 -108.275031 L 22.285531 -108.693 L 21.351937 -108.66175 L 21.254281 -108.243781 L 21.996469 -108.114875 L 21.996469 -107.857062 L 21.543344 -107.728156 L 21.738656 -107.243781 L 22.187875 -106.470344 L 22.187875 -106.118781 L 22.219125 -105.954719 L 23.090219 -105.5055 L 23.285531 -105.763312 L 23.832406 -105.763312 L 23.574594 -105.247687 L 22.832406 -105.181281 L 21.832406 -105.732062 L 21.351937 -106.407844 L 20.996469 -106.923469 L 20.769906 -107.372687 L 19.933969 -107.66175 L 19.320687 -108.177375 L 19.258187 -108.501594 L 19.707406 -108.693 L 19.867562 -109.110969 L 19.320687 -109.7555 L 18.031625 -110.595344 L 16.488656 -111.431281 L 16.066781 -111.657844 L 15.004281 -111.884406 L 13.941781 -112.333625 L 14.29725 -112.591437 L 14.008187 -112.8805 L 13.910531 -113.107062 L 13.363656 -112.91175 L 12.719125 -112.946906 L 12.558969 -113.396125 L 12.363656 -113.396125 L 12.430062 -112.91175 L 11.719125 -113.169562 L 11.141 -113.364875 L 10.465219 -113.107062 L 9.883187 -113.493781 L 9.238656 -113.493781 L 8.820687 -113.751594 L 8.496469 -113.91175 L 8.0785 -113.84925 L 7.562875 -113.622687 L 7.113656 -113.751594 L 6.918344 -113.943 L 6.598031 -113.720344 L 6.598031 -113.333625 L 7.211312 -113.075812 L 8.465219 -113.204719 L 9.336312 -112.8805 L 9.754281 -112.462531 L 10.336312 -112.333625 L 10.687875 -112.173469 L 11.23475 -112.204719 L 11.558969 -112.462531 L 11.750375 -112.400031 L 12.2035 -111.84925 L 12.812875 -111.657844 L 13.492562 -111.528937 L 13.750375 -111.462531 L 13.879281 -111.560187 L 14.039437 -111.560187 L 14.29725 -110.818 L 15.101937 -110.528937 L 15.488656 -109.790656 L 15.937875 -108.888312 L 16.262094 -108.595344 L 16.324594 -108.083625 L 16.004281 -108.341437 L 15.3285 -108.470344 L 15.199594 -107.985969 L 14.941781 -107.919562 L 14.746469 -108.114875 L 14.715219 -108.693 L 14.426156 -108.66175 L 14.137094 -107.501594 L 13.879281 -107.759406 L 13.652719 -107.66175 L 13.586312 -107.275031 L 12.781625 -107.310187 L 12.363656 -107.532844 L 11.848031 -107.470344 L 12.137094 -107.181281 L 12.23475 -106.665656 L 12.105844 -106.278937 L 12.394906 -106.083625 L 12.652719 -106.052375 L 12.523812 -105.696906 L 12.523812 -104.829719 L 12.332406 -104.634406 L 12.17225 -104.923469 L 10.945687 -104.923469 L 10.656625 -104.665656 L 10.527719 -103.896125 L 10.10975 -103.185187 L 10.10975 -102.993781 L 10.527719 -102.829719 L 10.558969 -102.41175 L 10.785531 -102.185187 L 10.625375 -102.091437 L 10.367562 -102.185187 L 10.141 -101.638312 L 10.336312 -100.642219 L 11.23475 -99.997687 L 11.750375 -99.673469 L 12.137094 -98.935187 L 12.687875 -98.677375 L 13.199594 -98.900031 L 13.266 -99.384406 L 13.750375 -99.321906 L 14.394906 -98.837531 L 14.715219 -98.966437 L 14.906625 -99.095344 L 15.230844 -99.095344 L 15.680062 -98.837531 L 15.844125 -97.966437 C 15.844125 -97.966437 15.906625 -97.388312 16.035531 -97.290656 C 16.164437 -97.193 16.230844 -97.09925 16.230844 -97.09925 L 16.004281 -96.712531 L 15.488656 -96.872687 L 14.844125 -97.032844 L 14.457406 -96.935187 L 13.750375 -96.583625 L 12.750375 -96.548469 L 12.043344 -95.810187 L 12.137094 -95.03675 L 12.266 -94.552375 L 11.848031 -94.196906 L 11.461312 -93.458625 L 11.558969 -93.298469 L 12.910531 -93.200812 L 13.3285 -93.200812 L 13.523812 -93.392219 L 13.652719 -93.392219 L 13.621469 -93.071906 L 14.394906 -92.943 L 14.906625 -93.0055 L 15.199594 -93.232062 L 14.906625 -93.650031 L 14.812875 -93.939094 L 15.35975 -94.263312 L 16.35975 -94.618781 L 16.711312 -94.423469 L 16.262094 -93.552375 L 16.066781 -92.91175 L 16.262094 -92.747687 L 15.586312 -92.360969 L 15.488656 -92.138312 L 15.586312 -91.814094 L 15.42225 -91.040656 L 14.844125 -90.107062 L 14.35975 -89.271125 L 14.941781 -88.884406 L 15.586312 -88.884406 L 15.937875 -89.013312 L 16.777719 -88.982062 L 17.516 -88.271125 L 17.742562 -87.657844 L 18.48475 -87.177375 L 18.805062 -87.368781 L 19.351937 -87.239875 L 20.094125 -86.821906 L 20.320687 -86.790656 L 20.512094 -86.950812 L 21.414437 -86.919562 L 21.961312 -86.306281 L 22.187875 -86.306281 L 22.898812 -86.790656 L 23.285531 -87.208625 L 23.187875 -87.435187 L 23.316781 -87.657844 L 23.637094 -87.337531 L 24.410531 -87.400031 L 24.476937 -88.142219 L 24.863656 -88.431281 L 26.277719 -88.560187 L 27.535531 -89.400031 L 27.824594 -89.204719 L 28.855844 -89.720344 L 29.273812 -89.591437 L 29.660531 -89.431281 L 30.629281 -89.818 Z M 8.562875 -96.16175 L 8.980844 -97.228156 L 8.949594 -97.419562 L 8.371469 -97.357062 L 8.016 -96.548469 L 7.660531 -96.259406 L 7.176156 -96.259406 L 7.144906 -95.743781 L 7.500375 -95.263312 L 7.726937 -95.743781 L 8.016 -96.032844 Z M 8.04725 -102.829719 L 8.789437 -102.993781 L 9.527719 -103.185187 L 9.691781 -103.3805 L 9.367562 -104.118781 L 8.754281 -104.087531 L 8.0785 -103.3805 Z M 3.926156 -100.028937 L 4.148812 -100.544562 L 4.375375 -100.864875 L 4.148812 -101.028937 L 3.730844 -100.415656 L 3.730844 -100.028937 Z M 1.187875 -114.587531 L 1.863656 -114.138312 L 2.539437 -113.943 L 3.055062 -114.009406 L 3.152719 -114.329719 L 3.539437 -114.427375 L 3.926156 -114.040656 L 3.85975 -113.720344 L 4.406625 -113.591437 L 4.988656 -114.107062 L 4.762094 -114.458625 L 3.891 -114.685187 L 3.344125 -114.587531 L 2.601937 -114.364875 L 1.73475 -114.653937 L 1.410531 -114.716437 Z M 10.945687 -113.685187 L 11.269906 -114.071906 L 11.687875 -113.751594 L 11.398812 -113.493781 Z M 11.527719 -114.298469 L 11.750375 -113.84925 L 12.17225 -113.91175 L 12.008187 -114.298469 Z M 16.230844 -113.91175 L 16.519906 -114.267219 L 16.711312 -114.040656 L 16.551156 -113.653937 Z M 17.969125 -111.431281 L 18.195687 -112.591437 L 18.773812 -112.751594 L 19.773812 -112.173469 L 20.641 -111.657844 L 20.320687 -111.173469 L 20.418344 -110.693 L 19.996469 -110.946906 L 19.418344 -110.78675 L 19.738656 -110.564094 L 20.125375 -110.72425 L 20.898812 -110.368781 L 20.996469 -110.079719 L 20.512094 -109.919562 L 20.676156 -109.532844 L 20.125375 -109.919562 L 19.191781 -110.626594 L 18.226937 -111.204719 Z M 26.406625 -107.470344 L 26.891 -107.181281 L 26.699594 -106.825812 L 26.344125 -107.017219 Z M 26.406625 -107.470344 " transform="matrix(1,0,0,-1,-3.516,-29.568)"/>
<path style="fill:none;stroke-width:0.69739;stroke-linecap:butt;stroke-linejoin:miter;stroke:rgb(100%,100%,100%);stroke-opacity:1;stroke-miterlimit:10;" d="M 115.891 -16.34925 L 116.254281 -15.939094 L 116.687875 -15.782844 L 117.758187 -15.0055 L 118.215219 -14.892219 L 118.305062 -14.985969 L 117.281625 -16.009406 L 116.621469 -16.396125 L 116.211312 -16.579719 Z M 133.062875 -22.751594 L 133.191781 -23.251594 L 133.836312 -23.282844 L 134.094125 -23.040656 C 134.094125 -23.040656 134.0785 -22.751594 134.012094 -22.720344 C 133.949594 -22.689094 133.691781 -22.34925 133.691781 -22.34925 L 133.254281 -22.400031 L 132.933969 -22.431281 L 132.867562 -22.653937 Z M 113.074594 -22.16175 L 113.219125 -22.044562 L 113.766 -21.884406 L 114.476937 -21.431281 L 114.476937 -21.239875 L 114.605844 -21.110969 L 115.79725 -20.915656 L 116.277719 -20.528937 L 117.148812 -20.110969 L 117.180062 -19.853156 L 117.566781 -19.275031 L 117.92225 -19.114875 L 118.180062 -18.759406 L 118.629281 -18.306281 L 119.500375 -17.825812 L 120.433969 -17.728156 L 120.660531 -17.954719 L 120.594125 -18.146125 L 119.855844 -18.341437 L 119.562875 -18.950812 L 119.113656 -19.114875 L 119.016 -19.595344 L 118.535531 -20.239875 L 118.469125 -20.7555 L 118.629281 -20.853156 L 118.824594 -20.626594 L 119.531625 -20.048469 L 119.789437 -20.306281 L 120.242562 -20.306281 L 120.887094 -20.497687 L 121.176156 -20.72425 L 121.465219 -21.333625 L 122.012094 -21.884406 L 122.785531 -21.84925 L 123.074594 -21.657844 L 123.398812 -21.915656 L 123.719125 -22.013312 L 123.976937 -21.84925 L 124.2035 -21.84925 L 124.523812 -21.657844 L 125.332406 -20.950812 L 126.008187 -20.72425 L 127.3285 -20.657844 L 128.230844 -20.271125 L 128.746469 -20.013312 L 129.035531 -20.048469 L 129.035531 -21.173469 L 129.133187 -21.239875 L 129.711312 -21.400031 L 130.098031 -21.302375 L 131.320687 -20.982062 L 131.54725 -20.7555 L 131.836312 -20.853156 L 131.836312 -22.235969 L 132.480844 -22.84925 L 132.738656 -22.978156 L 132.996469 -23.173469 L 132.738656 -23.235969 L 132.5785 -23.173469 L 131.836312 -23.075812 L 131.418344 -23.204719 L 130.969125 -23.173469 L 130.324594 -23.462531 L 129.969125 -23.462531 L 128.808969 -23.204719 L 127.777719 -23.235969 L 127.391 -23.751594 L 126.008187 -23.8805 L 125.523812 -24.040656 L 125.29725 -24.653937 L 125.039437 -24.8805 L 124.945687 -24.845344 L 124.652719 -24.525031 L 123.750375 -25.009406 L 123.621469 -25.009406 L 123.398812 -24.685187 L 123.238656 -24.716437 L 122.851937 -25.587531 L 122.656625 -26.392219 L 122.023812 -27.78675 L 121.789437 -27.583625 L 121.516 -27.376594 L 121.129281 -25.325812 L 120.42225 -25.052375 L 120.012094 -24.59925 L 117.598031 -24.052375 L 117.027719 -23.845344 L 115.391 -23.41175 L 113.816781 -23.185187 Z M 113.074594 -22.16175 " transform="matrix(1,0,0,-1,-3.516,-29.568)"/>
<path style="fill:none;stroke-width:0.69739;stroke-linecap:butt;stroke-linejoin:miter;stroke:rgb(100%,100%,100%);stroke-opacity:1;stroke-miterlimit:10;" d="M 123.445687 -59.845344 L 123.4535 -59.200812 L 123.566781 -58.275031 L 124.031625 -57.693 L 124.402719 -56.884406 L 124.848031 -56.087531 L 124.773812 -55.040656 L 124.375375 -54.333625 L 124.355844 -53.665656 L 124.492562 -52.618781 L 124.3285 -51.185187 L 124.117562 -48.044562 L 123.85975 -45.052375 L 123.676156 -42.732062 L 123.621469 -42.548469 L 123.461312 -42.032844 L 123.2035 -41.290656 L 122.879281 -40.939094 L 122.590219 -40.423469 L 122.543344 -39.329719 L 113.418344 -39.845344 L 113.465219 -40.318 L 113.918344 -40.454719 L 114.101937 -40.681281 L 114.191781 -41.048469 L 114.969125 -41.732062 L 115.105844 -42.185187 L 114.969125 -42.868781 L 114.601937 -43.59925 L 114.465219 -44.09925 L 114.012094 -44.462531 L 113.644906 -44.59925 L 112.598031 -44.872687 L 112.461312 -45.239875 L 112.324594 -45.650031 L 112.461312 -45.923469 L 112.8285 -46.239875 L 112.781625 -47.060187 L 112.418344 -47.3805 L 112.281625 -47.696906 L 112.281625 -48.243781 L 111.914437 -48.337531 L 111.598031 -48.564094 L 111.551156 -48.837531 L 111.598031 -49.247687 L 111.254281 -49.509406 L 111.051156 -50.068 L 111.141 -50.794562 L 111.598031 -52.2555 L 113.055062 -53.7555 L 114.148812 -54.485969 L 114.101937 -55.353156 L 114.285531 -55.626594 L 115.558969 -55.716437 L 116.105844 -55.989875 L 115.969125 -56.716437 L 115.516 -57.903937 L 115.379281 -58.540656 L 115.832406 -59.314094 L 117.10975 -60.360969 L 118.019906 -60.497687 L 118.430062 -61.501594 L 118.840219 -62.138312 L 118.656625 -62.732062 L 118.976937 -63.552375 L 119.340219 -63.962531 L 119.621469 -63.78675 L 119.805062 -63.372687 L 120.242562 -63.025031 L 120.668344 -62.903937 L 121.187875 -63.138312 L 121.910531 -63.41175 L 122.148812 -63.353156 L 122.187875 -62.900031 L 121.930062 -62.419562 L 121.992562 -61.946906 L 122.355844 -61.677375 L 122.961312 -61.517219 L 123.211312 -61.427375 L 123.090219 -61.150031 L 122.930062 -60.681281 L 123.215219 -60.485969 Z M 123.445687 -59.845344 " transform="matrix(1,0,0,-1,-3.516,-29.568)"/>
<path style="fill-rule:nonzero;fill:rgb(89.99939%,89.99939%,89.99939%);fill-opacity:1;stroke-width:0.69739;stroke-linecap:butt;stroke-linejoin:miter;stroke:rgb(100%,100%,100%);stroke-opacity:1;stroke-miterlimit:10;" d="M 122.555062 -39.325812 L 122.543344 -38.696906 L 122.308969 -37.794562 L 122.180062 -36.571906 L 121.9535 -36.087531 L 122.144906 -35.478156 L 122.308969 -34.896125 L 122.598031 -34.3805 L 122.469125 -33.704719 L 122.340219 -32.997687 L 122.437875 -32.642219 L 122.824594 -32.157844 L 122.855844 -31.610969 L 122.695687 -31.353156 L 122.824594 -30.837531 L 122.730844 -30.0055 L 123.281625 -28.8805 L 123.85975 -27.525031 L 123.891 -27.075812 L 123.8285 -26.884406 L 123.668344 -26.978156 L 122.8285 -28.235969 L 122.281625 -29.040656 L 121.894906 -29.396125 L 121.73475 -29.845344 L 121.344125 -30.0055 L 121.117562 -30.392219 L 120.8285 -30.329719 L 120.79725 -29.97425 L 121.055062 -29.489875 L 121.473031 -28.556281 L 121.8285 -28.235969 L 122.023812 -27.767219 L 121.516 -27.388312 L 121.121469 -25.321906 L 120.414437 -25.052375 L 120.027719 -24.595344 L 117.60975 -24.052375 L 117.035531 -23.84925 L 115.398812 -23.419562 L 113.820687 -23.185187 L 113.070687 -22.165656 L 112.92225 -22.275031 L 112.683969 -22.243781 L 112.555062 -22.017219 L 112.289437 -22.075812 L 112.062875 -22.107062 L 111.711312 -22.302375 L 111.516 -22.173469 L 111.644906 -21.78675 L 112.031625 -21.173469 L 112.258187 -20.950812 L 111.871469 -20.657844 L 111.4535 -20.821906 L 110.871469 -21.208625 L 109.391 -21.84925 L 108.808969 -21.978156 L 108.230844 -21.884406 L 108.035531 -21.708625 L 107.613656 -22.275031 L 107.566781 -22.818 L 107.566781 -24.5055 L 107.340219 -24.825812 L 106.293344 -25.59925 L 105.836312 -26.782844 L 105.926156 -26.829719 L 106.430062 -27.239875 L 106.566781 -27.876594 L 106.199594 -28.513312 L 106.199594 -29.28675 L 106.293344 -30.610969 L 106.883187 -31.200812 L 107.566781 -31.200812 L 107.933969 -31.841437 L 108.617562 -31.931281 L 109.391 -33.068 L 110.801156 -33.888312 L 111.211312 -34.435187 L 111.394906 -35.915656 L 111.531625 -36.575812 L 111.98475 -36.896125 L 112.031625 -37.169562 L 111.621469 -37.853156 L 111.668344 -38.489875 L 112.168344 -39.263312 L 112.668344 -39.493781 L 113.262094 -39.583625 L 113.531625 -39.857062 Z M 122.555062 -39.325812 " transform="matrix(1,0,0,-1,-3.516,-29.568)"/>
<path style="fill-rule:nonzero;fill:rgb(89.99939%,89.99939%,89.99939%);fill-opacity:1;stroke-width:0.69739;stroke-linecap:butt;stroke-linejoin:miter;stroke:rgb(100%,100%,100%);stroke-opacity:1;stroke-miterlimit:10;" d="M 118.324594 -68.357062 L 117.531625 -68.497687 L 116.512094 -68.372687 L 116.594125 -68.052375 L 117.187875 -67.540656 L 117.375375 -66.814094 L 117.012094 -66.220344 L 101.387094 -66.720344 L 101.707406 -68.087531 L 101.707406 -69.728156 L 101.980844 -71.915656 L 102.023812 -79.454719 L 102.480844 -79.841437 L 103.074594 -79.568 L 103.621469 -79.794562 L 103.754281 -81.107062 L 114.836312 -80.876594 L 115.066781 -80.462531 L 115.008187 -79.7555 L 114.644906 -79.16175 L 114.965219 -78.864875 L 114.644906 -78.364875 L 114.781625 -77.864875 L 115.055062 -76.747687 L 115.555062 -76.337531 L 115.418344 -75.884406 L 116.148812 -74.814094 L 116.695687 -74.540656 L 116.67225 -74.243781 L 116.601937 -73.876594 L 117.17225 -72.763312 L 117.652719 -72.513312 L 117.726937 -71.829719 L 118.082406 -71.583625 L 117.4535 -71.485969 L 117.187875 -70.685187 L 117.746469 -70.212531 L 117.855844 -69.810187 L 118.10975 -69.0055 Z M 118.324594 -68.357062 " transform="matrix(1,0,0,-1,-3.516,-29.568)"/>
<path style="fill-rule:nonzero;fill:rgb(89.99939%,89.99939%,89.99939%);fill-opacity:1;stroke-width:0.69739;stroke-linecap:butt;stroke-linejoin:miter;stroke:rgb(100%,100%,100%);stroke-opacity:1;stroke-miterlimit:10;" d="M 111.273812 -49.439094 L 110.769906 -48.821906 L 110.543344 -48.368781 L 97.719125 -48.845344 L 97.262094 -48.868781 L 97.516 -49.368781 L 97.469125 -49.825812 L 97.969125 -50.59925 L 98.586312 -51.419562 L 99.199594 -51.966437 L 99.629281 -52.013312 L 99.930062 -52.193 L 99.930062 -52.78675 L 99.562875 -53.103156 L 99.473031 -53.560187 L 99.883187 -54.243781 L 100.383187 -54.837531 L 100.887094 -55.200812 L 101.156625 -57.525031 L 101.223031 -64.712531 L 101.266 -65.646125 L 101.35975 -66.716437 L 105.8285 -66.544562 L 110.4535 -66.407844 L 114.598031 -66.247687 L 116.918344 -66.204719 L 117.351937 -66.884406 L 117.215219 -67.544562 L 116.601937 -68.025031 L 116.48475 -68.388312 L 117.558969 -68.482062 L 118.332406 -68.345344 L 118.676156 -67.247687 L 118.805062 -66.083625 L 119.223031 -65.571906 L 119.742562 -65.278937 L 119.750375 -64.669562 L 119.9535 -64.282844 L 119.617562 -63.775031 L 119.351937 -63.97425 L 118.9535 -63.528937 L 118.699594 -62.579719 L 118.855844 -62.079719 L 118.469125 -61.396125 L 118.105844 -60.485969 L 117.148812 -60.325812 L 115.762094 -59.208625 L 115.418344 -58.388312 L 115.5785 -57.751594 L 115.988656 -56.544562 L 116.0785 -55.97425 L 115.691781 -55.767219 L 114.324594 -55.610969 L 114.121469 -55.267219 L 114.098031 -54.427375 L 113.004281 -53.743781 L 111.613656 -52.193 L 111.160531 -50.735969 L 111.113656 -49.892219 Z M 111.273812 -49.439094 " transform="matrix(1,0,0,-1,-3.516,-29.568)"/>
<path style="fill-rule:nonzero;fill:rgb(89.99939%,89.99939%,89.99939%);fill-opacity:1;stroke-width:0.69739;stroke-linecap:butt;stroke-linejoin:miter;stroke:rgb(100%,100%,100%);stroke-opacity:1;stroke-miterlimit:10;" d="M 121.141 -91.489875 L 120.48475 -90.860969 L 120.687875 -89.763312 L 120.555062 -89.587531 L 118.711312 -89.78675 L 113.723031 -89.876594 L 113.586312 -89.400031 L 113.769906 -87.716437 L 114.430062 -86.532844 L 115.433969 -84.798469 L 115.316781 -84.321906 L 115.566781 -84.185187 L 115.660531 -83.798469 L 115.2035 -83.388312 L 115.183969 -83.001594 L 114.816781 -82.134406 L 114.789437 -80.872687 L 103.73475 -81.056281 L 103.738656 -82.962531 L 103.875375 -84.829719 L 104.012094 -85.607062 L 104.516 -86.423469 L 104.695687 -87.427375 L 105.562875 -88.521125 L 105.60975 -89.157844 L 105.746469 -89.294562 L 105.60975 -90.982062 L 105.016 -91.982062 L 105.336312 -92.392219 L 105.199594 -92.892219 L 105.062875 -94.353156 L 104.789437 -94.989875 L 104.812875 -95.708625 L 105.746469 -95.407844 L 108.160531 -95.446906 L 110.223031 -96.157844 L 111.508187 -96.384406 L 112.250375 -96.091437 L 112.894906 -96.318 L 113.539437 -96.509406 L 113.699594 -96.091437 L 113.055062 -95.868781 L 112.539437 -95.962531 L 111.992562 -95.642219 C 111.992562 -95.642219 112.023812 -95.384406 112.152719 -95.353156 C 112.281625 -95.318 112.766 -95.157844 112.766 -95.157844 L 113.121469 -95.446906 L 113.473031 -95.2555 L 114.117562 -95.384406 L 114.410531 -95.868781 L 114.473031 -96.318 L 115.375375 -96.384406 L 115.730844 -96.735969 L 115.566781 -97.060187 L 115.308969 -97.220344 L 115.633187 -97.540656 L 117.308969 -98.251594 L 118.016 -97.993781 L 118.211312 -97.509406 L 118.726937 -97.3805 L 119.0785 -97.091437 L 119.336312 -97.282844 L 119.496469 -97.864875 L 119.04725 -98.025031 L 119.176156 -98.153937 L 119.851937 -97.896125 L 120.305062 -97.220344 L 120.465219 -97.122687 L 120.04725 -97.060187 L 120.207406 -96.735969 L 120.176156 -96.446906 L 120.594125 -96.34925 L 120.820687 -96.091437 L 120.949594 -96.2555 C 120.949594 -96.2555 120.914437 -96.864875 121.0785 -96.864875 C 121.238656 -96.864875 121.914437 -96.993781 121.914437 -96.993781 L 122.719125 -97.3805 L 122.914437 -97.669562 L 123.492562 -97.669562 L 123.719125 -97.864875 L 124.168344 -97.251594 L 124.168344 -96.962531 L 123.910531 -96.962531 L 123.23475 -96.415656 L 122.074594 -96.2555 L 121.430062 -95.802375 L 121.656625 -95.2555 L 122.105844 -95.318 L 122.141 -95.189094 L 121.785531 -94.997687 L 121.785531 -94.900031 L 122.430062 -94.900031 L 122.785531 -94.28675 L 122.527719 -93.903937 L 122.461312 -93.353156 L 122.17225 -93.388312 L 121.785531 -93.806281 L 121.656625 -94.321906 L 121.043344 -94.193 L 120.851937 -93.837531 L 121.207406 -93.450812 L 121.586312 -92.763312 L 121.371469 -92.282844 Z M 121.141 -91.489875 " transform="matrix(1,0,0,-1,-3.516,-29.568)"/>
<path style="fill:none;stroke-width:0.69739;stroke-linecap:butt;stroke-linejoin:miter;stroke:rgb(100%,100%,100%);stroke-opacity:1;stroke-miterlimit:10;" d="M 125.840219 -91.528937 L 125.789437 -91.778937 L 124.762094 -91.778937 L 124.469125 -91.614875 L 124.051156 -91.552375 L 122.699594 -91.939094 L 122.344125 -91.778937 L 121.8285 -92.614875 L 121.60975 -92.771125 L 121.387094 -92.275031 L 121.156625 -91.501594 L 120.473031 -90.860969 L 120.7035 -89.7555 L 120.566781 -89.575812 L 120.199594 -89.618781 L 118.625375 -89.794562 L 113.730844 -89.868781 L 113.5785 -89.427375 L 113.754281 -87.7555 L 114.375375 -86.626594 L 115.414437 -84.802375 L 115.3285 -84.318 L 115.574594 -84.189094 L 115.660531 -83.806281 L 115.199594 -83.392219 L 115.176156 -82.966437 L 114.808969 -82.142219 L 114.789437 -80.954719 L 115.051156 -80.462531 L 115.008187 -79.778937 L 114.656625 -79.165656 L 114.961312 -78.872687 L 114.644906 -78.372687 L 114.738656 -78.044562 L 115.051156 -76.743781 L 115.54725 -76.337531 L 115.418344 -75.864875 L 116.148812 -74.810187 L 116.711312 -74.540656 L 116.668344 -74.204719 L 116.60975 -73.868781 L 117.183969 -72.759406 L 117.652719 -72.517219 L 117.680062 -72.337531 L 125.121469 -71.564094 L 125.160531 -72.818 L 125.191781 -76.134406 L 125.031625 -82.318 L 125.000375 -85.122687 L 125.54725 -88.857062 Z M 125.840219 -91.528937 " transform="matrix(1,0,0,-1,-3.516,-29.568)"/>
<path style="fill-rule:nonzero;fill:rgb(89.99939%,89.99939%,89.99939%);fill-opacity:1;stroke-width:0.69739;stroke-linecap:butt;stroke-linejoin:miter;stroke:rgb(100%,100%,100%);stroke-opacity:1;stroke-miterlimit:10;" d="M 113.414437 -39.767219 L 113.469125 -40.321906 L 113.910531 -40.439094 L 114.101937 -40.681281 L 114.199594 -41.052375 L 114.957406 -41.720344 L 115.094125 -42.196906 L 114.957406 -42.8805 L 114.644906 -43.525031 L 114.48475 -44.071906 L 114.051156 -44.388312 L 113.707406 -44.5055 L 112.598031 -44.876594 L 112.320687 -45.642219 L 112.465219 -45.915656 L 112.832406 -46.251594 L 112.773812 -47.056281 L 112.426156 -47.360969 L 112.269906 -47.689094 L 112.29725 -48.239875 L 111.918344 -48.333625 L 111.598031 -48.552375 L 111.539437 -48.821906 L 111.598031 -49.243781 L 111.285531 -49.466437 L 110.793344 -48.841437 L 110.543344 -48.353156 L 97.445687 -48.853156 L 97.262094 -48.888312 L 96.851937 -47.985969 L 96.808969 -46.665656 L 96.488656 -45.845344 L 96.351937 -44.798469 L 95.894906 -44.071906 L 95.715219 -43.114875 L 95.168344 -41.610969 L 94.941781 -40.540656 L 94.668344 -40.107062 L 94.348031 -39.560187 L 94.738656 -38.595344 L 95.012094 -37.454719 L 94.465219 -37.044562 L 94.371469 -36.497687 L 94.555062 -35.997687 L 94.894906 -35.997687 L 111.367562 -35.743781 L 111.531625 -36.579719 L 111.980844 -36.888312 L 112.031625 -37.173469 L 111.629281 -37.84925 L 111.664437 -38.485969 L 112.168344 -39.243781 L 112.668344 -39.501594 L 113.285531 -39.603156 Z M 113.414437 -39.767219 " transform="matrix(1,0,0,-1,-3.516,-29.568)"/>
<path style="fill-rule:nonzero;fill:rgb(89.99939%,89.99939%,89.99939%);fill-opacity:1;stroke-width:0.69739;stroke-linecap:butt;stroke-linejoin:miter;stroke:rgb(100%,100%,100%);stroke-opacity:1;stroke-miterlimit:10;" d="M 94.695687 -25.669562 L 94.601937 -23.982062 L 94.238656 -22.525031 L 93.875375 -19.837531 L 93.781625 -17.8805 L 93.418344 -17.196906 L 93.098031 -16.193 L 93.098031 -14.142219 L 93.23475 -13.368781 L 92.875375 -12.282844 L 98.879281 -12.290656 L 98.941781 -10.646125 L 99.070687 -10.614875 L 99.519906 -10.712531 L 99.906625 -10.872687 L 100.070687 -11.966437 L 100.35975 -13.193 L 100.680062 -13.513312 L 101.648812 -13.513312 L 101.711312 -13.802375 L 102.969125 -13.868781 L 102.969125 -14.28675 L 103.933969 -14.28675 L 104.000375 -14.028937 L 104.223031 -13.802375 L 104.676156 -13.673469 L 104.933969 -13.868781 L 105.512094 -13.868781 L 106.285531 -14.384406 L 107.348031 -14.868781 L 107.832406 -14.962531 L 107.930062 -14.771125 L 108.219125 -14.673469 L 108.316781 -15.2555 L 108.832406 -15.509406 L 108.926156 -15.415656 L 109.183969 -15.446906 L 109.183969 -15.864875 L 109.699594 -16.060187 L 110.312875 -16.060187 L 110.633187 -15.896125 L 111.277719 -15.2555 L 111.793344 -15.157844 L 111.957406 -15.509406 L 112.051156 -15.767219 L 112.246469 -15.767219 L 112.437875 -15.607062 L 114.211312 -15.544562 L 114.562875 -16.153937 L 114.691781 -16.153937 L 114.836312 -15.939094 L 115.719125 -15.864875 L 115.598031 -16.318 L 114.812875 -16.685187 L 112.973031 -17.493781 L 112.019906 -17.896125 L 111.406625 -18.41175 L 110.926156 -19.118781 L 110.473031 -19.892219 L 110.117562 -20.052375 L 109.219125 -21.052375 L 108.961312 -21.083625 L 108.098031 -21.634406 L 107.605844 -22.271125 L 107.562875 -22.907844 L 107.5785 -24.509406 L 107.305062 -24.845344 L 106.293344 -25.595344 L 105.848031 -26.78675 L 106.42225 -27.232062 L 106.555062 -27.876594 L 106.187875 -28.521125 L 106.219125 -29.267219 L 106.293344 -30.610969 L 106.898812 -31.208625 L 107.562875 -31.208625 L 107.937875 -31.833625 L 108.60975 -31.931281 L 109.379281 -33.064094 L 110.793344 -33.884406 L 111.219125 -34.454719 L 111.351937 -35.739875 L 95.17225 -35.966437 L 95.105844 -28.857062 L 95.012094 -28.267219 L 94.191781 -27.583625 L 93.965219 -27.216437 L 93.965219 -26.900031 L 94.375375 -26.579719 L 94.648812 -26.306281 Z M 94.695687 -25.669562 " transform="matrix(1,0,0,-1,-3.516,-29.568)"/>
<path style="fill-rule:nonzero;fill:rgb(50%,50%,50%);fill-opacity:1;stroke-width:0.69739;stroke-linecap:butt;stroke-linejoin:miter;stroke:rgb(100%,100%,100%);stroke-opacity:1;stroke-miterlimit:10;" d="M 75.785531 -63.927375 L 72.461312 -63.673469 L 72.285531 -65.853156 L 76.363656 -66.083625 L 82.750375 -66.345344 L 82.285531 -71.208625 L 82.195687 -74.763312 L 82.238656 -75.083625 L 83.105844 -75.810187 L 83.516 -76.040656 L 83.652719 -75.993781 L 83.789437 -75.583625 L 84.062875 -75.946906 L 84.473031 -75.946906 L 84.473031 -75.673469 L 85.019906 -75.946906 L 84.926156 -76.720344 L 85.746469 -76.767219 L 86.250375 -76.993781 L 87.070687 -77.1305 L 87.570687 -77.497687 L 88.023812 -77.087531 L 88.707406 -77.22425 L 89.211312 -77.907844 L 89.391 -77.907844 L 89.391 -78.360969 L 89.848031 -78.497687 L 90.305062 -78.044562 L 90.668344 -78.181281 L 91.168344 -78.181281 L 91.351937 -78.681281 L 92.605844 -79.095344 L 92.879281 -78.958625 L 93.242562 -78.138312 L 93.473031 -78.138312 L 93.699594 -78.548469 L 94.519906 -78.685187 L 95.250375 -78.958625 L 95.840219 -79.142219 L 96.207406 -78.958625 L 96.340219 -78.458625 L 97.207406 -78.458625 L 97.617562 -78.638312 L 98.164437 -78.228156 L 98.391 -78.228156 L 98.527719 -78.548469 L 99.348031 -78.548469 L 99.668344 -78.138312 L 100.031625 -78.228156 L 100.441781 -78.732062 L 101.0785 -79.095344 L 101.719125 -79.278937 L 102.105844 -79.501594 L 102.027719 -72.083625 L 101.754281 -69.900031 L 101.723031 -68.1305 L 101.433969 -66.825812 L 101.277719 -65.396125 L 101.266 -64.638312 L 98.848031 -64.700812 L 89.601937 -64.607062 L 80.625375 -64.200812 Z M 75.785531 -63.927375 " transform="matrix(1,0,0,-1,-3.516,-29.568)"/>
<path style="fill-rule:nonzero;fill:rgb(50%,50%,50%);fill-opacity:1;stroke-width:0.69739;stroke-linecap:butt;stroke-linejoin:miter;stroke:rgb(100%,100%,100%);stroke-opacity:1;stroke-miterlimit:10;" d="M 72.023812 -65.868781 L 76.543344 -66.083625 L 82.742562 -66.314094 L 82.273812 -70.985969 L 82.215219 -74.603156 L 82.230844 -75.017219 L 83.094125 -75.778937 L 83.492562 -76.068 L 83.726937 -75.954719 L 83.801156 -75.595344 L 84.027719 -75.954719 L 84.449594 -75.962531 L 84.449594 -75.673469 L 84.781625 -75.864875 L 85.008187 -75.946906 L 84.937875 -76.739875 L 85.750375 -76.7555 L 86.336312 -76.997687 L 87.121469 -77.09925 L 87.598031 -77.513312 L 88.019906 -77.09925 L 88.762094 -77.22425 L 89.2035 -77.864875 L 89.418344 -77.931281 L 89.387094 -78.321906 L 89.8285 -78.478156 L 90.293344 -78.071906 L 90.719125 -78.193 L 91.160531 -78.200812 L 91.348031 -78.685187 L 92.60975 -79.107062 L 92.926156 -78.954719 L 93.223031 -78.122687 L 93.289437 -78.122687 L 93.473031 -78.138312 L 93.715219 -78.548469 L 94.500375 -78.681281 L 95.164437 -78.907844 L 95.848031 -79.146125 L 96.215219 -78.950812 L 96.355844 -78.450812 L 97.242562 -78.458625 L 97.601937 -78.642219 L 98.160531 -78.22425 L 98.383187 -78.232062 L 98.551156 -78.552375 L 99.35975 -78.552375 L 99.660531 -78.146125 L 100.031625 -78.228156 L 100.42225 -78.708625 L 101.121469 -79.114875 L 101.691781 -79.275031 L 101.992562 -79.435187 L 102.480844 -79.833625 L 103.086312 -79.568 L 103.625375 -79.794562 L 103.73475 -81.013312 L 103.726937 -82.946906 L 103.863656 -84.845344 L 104.004281 -85.564094 L 104.539437 -86.443 L 104.715219 -87.431281 L 105.558969 -88.532844 L 105.598031 -89.16175 L 105.746469 -89.318 L 105.598031 -90.985969 L 105.027719 -91.985969 L 105.332406 -92.415656 L 105.207406 -92.8805 L 105.074594 -94.357062 L 104.773812 -95.021125 L 104.832406 -95.720344 L 103.7035 -96.032844 L 101.738656 -96.935187 L 101.54725 -97.321906 L 101.031625 -97.708625 L 100.60975 -97.997687 L 100.351937 -98.16175 L 99.226937 -99.22425 L 98.680062 -99.642219 L 97.617562 -100.28675 L 96.488656 -100.771125 L 95.230844 -101.446906 L 94.879281 -101.735969 L 93.719125 -102.443 L 93.043344 -102.571906 L 92.269906 -103.669562 L 91.465219 -103.732062 L 91.269906 -104.118781 L 91.723031 -104.5055 L 91.430062 -105.603156 L 91.17225 -106.501594 L 90.949594 -107.275031 L 90.785531 -108.177375 L 90.949594 -108.66175 L 91.301156 -110.048469 L 91.496469 -111.271125 L 91.848031 -111.818 L 91.656625 -112.107062 L 91.043344 -112.493781 L 89.918344 -111.720344 L 88.820687 -111.497687 L 88.562875 -111.591437 L 87.918344 -111.462531 L 87.082406 -110.853156 L 86.051156 -110.626594 L 84.539437 -109.950812 L 84.117562 -109.177375 L 83.85975 -107.888312 L 83.215219 -107.501594 L 83.090219 -107.052375 L 83.215219 -106.923469 L 83.281625 -106.243781 L 83.023812 -106.114875 L 82.894906 -105.923469 L 83.152719 -105.052375 L 82.832406 -104.603156 L 82.187875 -104.345344 L 81.508187 -103.47425 L 80.801156 -102.153937 L 79.965219 -101.638312 L 79.996469 -101.251594 L 78.933969 -98.806281 L 78.773812 -97.966437 L 78.418344 -97.579719 L 78.387094 -97.290656 L 77.191781 -96.228156 L 76.680062 -95.614875 L 76.680062 -95.388312 L 76.164437 -94.970344 L 74.808969 -94.747687 L 73.3285 -94.618781 L 72.715219 -94.165656 L 71.812875 -94.521125 L 71.105844 -94.810187 L 70.652719 -95.454719 L 70.461312 -96.196906 L 69.590219 -97.419562 L 69.10975 -97.903937 L 68.594125 -97.708625 L 68.238656 -97.482062 L 67.851937 -97.353156 L 67.0785 -96.903937 L 67.0785 -96.775031 L 66.723031 -96.388312 L 65.695687 -95.970344 L 64.211312 -94.423469 L 63.762094 -93.489875 L 63.762094 -91.8805 L 63.117562 -90.591437 L 63.019906 -90.044562 L 62.699594 -89.84925 L 62.473031 -89.431281 L 61.473031 -89.013312 L 61.215219 -88.689094 L 59.79725 -87.110969 L 59.543344 -86.466437 L 58.605844 -86.017219 L 58.316781 -85.146125 L 57.801156 -84.568 L 57.414437 -84.470344 L 57.285531 -83.53675 L 58.879281 -83.673469 L 64.664437 -84.220344 L 70.449594 -84.540656 L 70.894906 -80.66175 L 71.67225 -69.591437 L 71.988656 -65.857062 L 72.262094 -65.864875 M 91.996469 -111.626594 L 91.883187 -110.208625 L 91.336312 -108.775031 L 91.223031 -107.372687 L 91.527719 -105.728156 L 92.187875 -104.360969 L 92.879281 -103.282844 L 93.508187 -102.571906 L 93.637094 -102.622687 L 92.687875 -103.943 L 91.816781 -105.247687 L 91.414437 -106.568 L 91.351937 -107.59925 L 91.527719 -108.821906 L 92.043344 -110.2555 L 92.141 -111.28675 L 92.17225 -111.575812 Z M 91.996469 -111.626594 " transform="matrix(1,0,0,-1,-3.516,-29.568)"/>
<path style="fill-rule:nonzero;fill:rgb(50%,50%,50%);fill-opacity:1;stroke-width:0.69739;stroke-linecap:butt;stroke-linejoin:miter;stroke:rgb(100%,100%,100%);stroke-opacity:1;stroke-miterlimit:10;" d="M 57.414437 -84.485969 L 57.262094 -83.540656 L 58.98475 -83.646125 L 64.996469 -84.232062 L 70.430062 -84.568 L 70.871469 -80.841437 L 71.641 -69.708625 L 71.98475 -65.845344 L 72.29725 -65.868781 L 72.461312 -63.646125 L 51.738656 -61.525031 L 48.254281 -85.525031 L 51.332406 -85.919562 L 51.590219 -83.923469 Z M 57.414437 -84.485969 " transform="matrix(1,0,0,-1,-3.516,-29.568)"/>
<path style="fill-rule:nonzero;fill:rgb(50%,50%,50%);fill-opacity:1;stroke-width:0.69739;stroke-linecap:butt;stroke-linejoin:miter;stroke:rgb(100%,100%,100%);stroke-opacity:1;stroke-miterlimit:10;" d="M 101.199594 -64.634406 L 98.683969 -64.677375 L 89.500375 -64.583625 L 80.621469 -64.173469 L 75.715219 -63.923469 L 76.488656 -51.052375 L 80.891 -51.189094 L 88.918344 -51.353156 L 97.746469 -51.552375 L 98.762094 -51.552375 L 99.195687 -51.982062 L 99.598031 -51.978156 L 99.926156 -52.181281 L 99.914437 -52.778937 L 99.54725 -53.122687 L 99.480844 -53.568 L 99.848031 -54.247687 L 100.437875 -54.884406 L 100.902719 -55.204719 L 101.160531 -57.443 Z M 101.199594 -64.634406 " transform="matrix(1,0,0,-1,-3.516,-29.568)"/>
<path style="fill-rule:nonzero;fill:rgb(89.99939%,89.99939%,89.99939%);fill-opacity:1;stroke-width:0.69739;stroke-linecap:butt;stroke-linejoin:miter;stroke:rgb(100%,100%,100%);stroke-opacity:1;stroke-miterlimit:10;" d="M 96.85975 -47.962531 L 97.500375 -49.360969 L 97.476937 -49.818 L 98.164437 -50.91175 L 98.707406 -51.540656 L 97.699594 -51.540656 L 89.035531 -51.353156 L 80.910531 -51.177375 L 76.476937 -51.021125 L 76.687875 -46.771125 L 70.250375 -46.189094 L 71.113656 -37.419562 L 74.215219 -37.626594 L 78.223031 -37.853156 L 81.773812 -38.079719 L 86.512094 -38.310187 L 88.652719 -38.216437 L 89.062875 -38.673469 L 90.019906 -39.263312 L 90.250375 -39.446906 L 91.113656 -39.173469 L 91.887094 -39.083625 L 92.433969 -39.03675 L 92.801156 -39.310187 L 93.60975 -39.6305 L 94.199594 -39.946906 L 94.289437 -40.267219 L 94.473031 -40.677375 L 94.836312 -40.677375 L 94.996469 -40.685187 L 95.176156 -41.618781 L 95.758187 -43.306281 L 95.871469 -44.056281 L 96.375375 -44.806281 L 96.488656 -45.825812 L 96.808969 -46.669562 Z M 96.85975 -47.962531 " transform="matrix(1,0,0,-1,-3.516,-29.568)"/>
<path style="fill-rule:nonzero;fill:rgb(89.99939%,89.99939%,89.99939%);fill-opacity:1;stroke-width:0.69739;stroke-linecap:butt;stroke-linejoin:miter;stroke:rgb(100%,100%,100%);stroke-opacity:1;stroke-miterlimit:10;" d="M 94.933969 -40.653937 L 94.926156 -40.53675 L 94.348031 -39.571906 L 94.719125 -38.634406 L 95.016 -37.458625 L 94.461312 -37.044562 L 94.387094 -36.497687 L 94.543344 -35.989875 L 95.180062 -35.993781 L 95.152719 -34.993781 L 95.086312 -28.982062 L 94.965219 -28.232062 L 94.152719 -27.568 L 93.957406 -27.235969 L 93.945687 -26.915656 L 94.348031 -26.610969 L 94.652719 -26.278937 L 94.7035 -25.747687 L 83.094125 -25.427375 L 72.176156 -24.743781 L 71.113656 -37.431281 L 74.019906 -37.610969 L 77.996469 -37.853156 L 81.531625 -38.03675 L 86.269906 -38.298469 L 88.656625 -38.212531 L 89.04725 -38.66175 L 90.082406 -39.310187 L 90.23475 -39.454719 L 91.141 -39.16175 L 92.445687 -39.040656 L 92.777719 -39.306281 L 93.617562 -39.626594 L 94.2035 -39.950812 L 94.281625 -40.247687 L 94.488656 -40.693 Z M 94.933969 -40.653937 " transform="matrix(1,0,0,-1,-3.516,-29.568)"/>
<path style="fill:none;stroke-width:0.69739;stroke-linecap:butt;stroke-linejoin:miter;stroke:rgb(100%,100%,100%);stroke-opacity:1;stroke-miterlimit:10;" d="M 94.707406 -25.689094 L 94.586312 -24.0055 L 94.250375 -22.650031 L 93.875375 -20.052375 L 93.781625 -17.864875 L 93.437875 -17.251594 L 93.086312 -16.216437 L 93.094125 -14.134406 L 93.215219 -13.372687 L 92.851937 -12.282844 L 87.144906 -12.173469 L 83.437875 -12.044562 L 78.156625 -11.78675 L 73.586312 -11.360969 L 72.191781 -24.743781 L 83.137094 -25.41175 Z M 94.707406 -25.689094 " transform="matrix(1,0,0,-1,-3.516,-29.568)"/>
<path style="fill-rule:nonzero;fill:rgb(89.99939%,89.99939%,89.99939%);fill-opacity:1;stroke-width:0.69739;stroke-linecap:butt;stroke-linejoin:miter;stroke:rgb(100%,100%,100%);stroke-opacity:1;stroke-miterlimit:10;" d="M 71.808969 -28.548469 L 50.539437 -25.868781 L 47.730844 -43.493781 L 70.301156 -46.200812 Z M 71.808969 -28.548469 " transform="matrix(1,0,0,-1,-3.516,-29.568)"/>
<path style="fill:none;stroke-width:0.69739;stroke-linecap:butt;stroke-linejoin:miter;stroke:rgb(100%,100%,100%);stroke-opacity:1;stroke-miterlimit:10;" d="M 73.566781 -11.353156 L 67.4535 -10.790656 L 61.625375 -10.083625 L 55.793344 -9.278937 L 49.351937 -8.216437 L 45.680062 -7.53675 L 39.160531 -6.157844 L 38.266 -10.41175 L 38.949594 -11.915656 L 38.676156 -12.825812 L 39.043344 -13.735969 L 39.680062 -14.009406 L 40.601937 -16.153937 L 41.137094 -16.78675 L 41.226937 -17.017219 L 41.910531 -17.243781 L 42.004281 -17.653937 L 40.590219 -21.16175 L 40.590219 -21.66175 L 41.090219 -22.302375 L 41.273812 -22.302375 L 42.230844 -21.708625 L 42.367562 -21.482062 L 42.683969 -21.618781 L 42.641 -22.665656 L 43.187875 -25.169562 L 43.777719 -25.673469 L 43.961312 -25.806281 L 44.324594 -26.263312 L 44.23475 -26.946906 L 44.371469 -27.6305 L 44.598031 -27.814094 L 45.055062 -27.357062 L 45.601937 -27.357062 L 46.238656 -27.677375 L 46.738656 -27.493781 L 47.558969 -27.493781 L 48.289437 -27.814094 L 48.836312 -27.720344 L 48.926156 -27.1305 L 49.519906 -26.993781 L 49.793344 -27.267219 L 49.883187 -27.903937 L 50.168344 -28.071906 L 50.543344 -25.872687 L 71.812875 -28.548469 Z M 73.566781 -11.353156 " transform="matrix(1,0,0,-1,-3.516,-29.568)"/>
<path style="fill-rule:nonzero;fill:rgb(50%,50%,50%);fill-opacity:1;stroke-width:0.69739;stroke-linecap:butt;stroke-linejoin:miter;stroke:rgb(100%,100%,100%);stroke-opacity:1;stroke-miterlimit:10;" d="M 75.723031 -63.954719 L 76.699594 -46.751594 L 54.105844 -44.232062 L 51.67225 -61.7555 Z M 75.723031 -63.954719 " transform="matrix(1,0,0,-1,-3.516,-29.568)"/>
<path style="fill-rule:nonzero;fill:rgb(89.99939%,89.99939%,89.99939%);fill-opacity:1;stroke-width:0.69739;stroke-linecap:butt;stroke-linejoin:miter;stroke:rgb(100%,100%,100%);stroke-opacity:1;stroke-miterlimit:10;" d="M 29.586312 -35.165656 L 31.332406 -28.146125 L 31.605844 -27.306281 L 32.105844 -26.118781 L 31.855844 -25.665656 L 31.355844 -25.689094 L 31.195687 -25.482062 L 31.285531 -25.2555 L 31.355844 -24.638312 L 32.242562 -23.548469 L 32.60975 -23.454719 L 32.836312 -23.228156 L 32.949594 -22.591437 L 33.133187 -22.454719 L 33.906625 -21.290656 L 34.680062 -20.427375 L 34.726937 -19.673469 L 34.043344 -19.150031 L 33.738656 -18.275031 L 36.4535 -5.653937 L 39.144906 -6.157844 L 38.266 -10.415656 L 38.976937 -11.907844 L 38.660531 -12.837531 L 39.055062 -13.763312 L 39.680062 -14.013312 L 40.445687 -15.915656 L 41.144906 -16.798469 L 41.246469 -17.028937 L 41.910531 -17.2555 L 41.98475 -17.673469 L 40.594125 -21.134406 L 40.562875 -21.646125 L 41.086312 -22.310187 L 41.266 -22.298469 L 42.246469 -21.696906 L 42.379281 -21.478156 L 42.691781 -21.610969 L 42.637094 -22.677375 L 43.180062 -25.185187 L 43.961312 -25.818 L 44.29725 -26.247687 L 44.156625 -27.060187 L 44.367562 -27.622687 L 44.5785 -27.837531 L 45.074594 -27.368781 L 45.641 -27.3805 L 46.223031 -27.646125 L 46.777719 -27.509406 L 47.531625 -27.478156 L 48.324594 -27.798469 L 48.871469 -27.739875 L 48.969125 -27.134406 L 49.555062 -26.982062 L 49.805062 -27.282844 L 49.894906 -27.868781 L 50.176156 -28.110969 L 48.508187 -38.794562 C 48.508187 -38.794562 30.976937 -35.466437 29.586312 -35.165656 Z M 29.586312 -35.165656 " transform="matrix(1,0,0,-1,-3.516,-29.568)"/>
<path style="fill-rule:nonzero;fill:rgb(50%,50%,50%);fill-opacity:1;stroke-width:0.69739;stroke-linecap:butt;stroke-linejoin:miter;stroke:rgb(100%,100%,100%);stroke-opacity:1;stroke-miterlimit:10;" d="M 51.707406 -61.790656 L 35.019906 -59.423469 L 39.121469 -37.001594 L 48.441781 -38.743781 L 48.144906 -40.860969 L 47.687875 -43.485969 L 49.242562 -43.669562 L 52.512094 -44.028937 L 54.148812 -44.200812 Z M 51.707406 -61.790656 " transform="matrix(1,0,0,-1,-3.516,-29.568)"/>
<path style="fill-rule:nonzero;fill:rgb(50%,50%,50%);fill-opacity:1;stroke-width:0.69739;stroke-linecap:butt;stroke-linejoin:miter;stroke:rgb(100%,100%,100%);stroke-opacity:1;stroke-miterlimit:10;" d="M 28.875375 -76.239875 L 28.351937 -76.669562 L 28.285531 -76.962531 L 28.383187 -77.153937 L 32.152719 -79.278937 L 34.566781 -80.794562 L 37.500375 -82.501594 L 40.848031 -84.497687 L 43.29725 -84.982062 L 48.269906 -85.521125 L 51.707406 -61.782844 L 35.023812 -59.407844 L 34.406625 -62.681281 L 34.086312 -62.681281 L 33.742562 -63.208625 L 33.242562 -63.185187 L 32.992562 -62.638312 L 32.445687 -62.568 L 32.262094 -62.341437 L 32.082406 -62.341437 L 31.898812 -62.454719 L 31.512094 -62.66175 L 31.488656 -64.048469 L 31.445687 -64.392219 L 31.3285 -66.896125 L 31.035531 -67.329719 L 30.918344 -67.989875 L 31.465219 -68.970344 L 31.719125 -70.1305 L 31.875375 -70.337531 L 32.082406 -70.450812 L 32.058969 -70.903937 L 31.738656 -71.177375 L 31.055062 -71.521125 L 30.668344 -71.907844 L 30.375375 -72.638312 L 30.258187 -73.614875 L 29.691781 -74.16175 L 29.281625 -74.298469 L 29.308969 -74.466437 L 29.215219 -74.806281 L 29.308969 -74.966437 L 30.035531 -75.079719 L 29.92225 -75.626594 L 29.625375 -76.060187 Z M 28.875375 -76.239875 " transform="matrix(1,0,0,-1,-3.516,-29.568)"/>
<path style="fill-rule:nonzero;fill:rgb(50%,50%,50%);fill-opacity:1;stroke-width:0.69739;stroke-linecap:butt;stroke-linejoin:miter;stroke:rgb(100%,100%,100%);stroke-opacity:1;stroke-miterlimit:10;" d="M 39.133187 -36.978156 L 34.42225 -62.646125 L 34.058969 -62.716437 L 33.742562 -63.193 L 33.269906 -63.196906 L 32.976937 -62.650031 L 32.457406 -62.575812 L 32.301156 -62.353156 L 32.094125 -62.345344 L 31.543344 -62.669562 L 31.480844 -64.025031 L 31.406625 -65.173469 L 31.340219 -66.888312 L 31.051156 -67.302375 L 30.562875 -67.087531 L 16.801156 -46.325812 L 20.582406 -32.860969 Z M 39.133187 -36.978156 " transform="matrix(1,0,0,-1,-3.516,-29.568)"/>
<path style="fill-rule:nonzero;fill:rgb(89.99939%,89.99939%,89.99939%);fill-opacity:1;stroke-width:0.69739;stroke-linecap:butt;stroke-linejoin:miter;stroke:rgb(100%,100%,100%);stroke-opacity:1;stroke-miterlimit:10;" d="M 29.633187 -34.97425 L 31.398812 -28.040656 L 31.605844 -27.196906 L 32.074594 -26.079719 L 31.9535 -25.845344 L 31.4535 -25.837531 L 31.195687 -25.5055 L 31.289437 -25.212531 L 31.387094 -24.564094 L 32.277719 -23.470344 L 32.641 -23.251594 L 32.867562 -23.025031 L 33.164437 -22.314094 L 33.969125 -21.185187 L 34.680062 -20.415656 L 34.726937 -19.728156 L 34.074594 -19.235969 L 33.719125 -18.310187 L 31.195687 -17.591437 L 28.191781 -16.884406 L 25.113656 -16.907844 L 25.023812 -16.634406 L 23.930062 -17.044562 L 23.043344 -16.931281 L 22.562875 -16.610969 L 22.312875 -16.747687 L 21.379281 -16.704719 L 21.039437 -16.431281 L 19.988656 -16.021125 L 19.832406 -16.040656 L 18.965219 -15.747687 L 18.5785 -16.110969 L 17.348031 -16.040656 L 16.164437 -15.22425 L 16.301156 -15.064094 L 16.348031 -13.513312 L 15.891 -12.739875 L 15.070687 -12.626594 L 14.933969 -12.126594 L 14.465219 -12.032844 L 13.308969 -12.443 L 12.85975 -13.732062 L 12.215219 -15.728156 L 11.570687 -17.017219 L 10.570687 -19.818 L 9.281625 -22.525031 L 7.67225 -25.03675 L 7.285531 -25.614875 L 7.125375 -27.325812 L 7.2035 -29.732062 Z M 29.633187 -34.97425 " transform="matrix(1,0,0,-1,-3.516,-29.568)"/>
<path style="fill-rule:nonzero;fill:rgb(50%,50%,50%);fill-opacity:1;stroke-width:0.69739;stroke-linecap:butt;stroke-linejoin:miter;stroke:rgb(100%,100%,100%);stroke-opacity:1;stroke-miterlimit:10;" d="M 28.832406 -76.153937 L 29.617562 -76.056281 L 29.910531 -75.657844 L 30.019906 -75.071906 L 29.312875 -74.954719 L 29.211312 -74.821906 L 29.305062 -74.415656 L 29.273812 -74.298469 L 29.656625 -74.173469 L 30.262094 -73.610969 L 30.379281 -72.614875 L 30.652719 -71.935187 L 31.043344 -71.5055 L 31.742562 -71.189094 L 32.070687 -70.868781 L 32.086312 -70.446906 L 31.887094 -70.333625 L 31.683969 -70.118781 L 31.4535 -68.954719 L 30.918344 -67.989875 L 31.031625 -67.294562 L 30.551156 -67.087531 L 16.789437 -46.329719 L 20.555062 -32.860969 L 7.187875 -29.732062 L 6.887094 -30.673469 L 6.855844 -32.157844 L 5.824594 -34.509406 L 5.215219 -35.025031 L 5.148812 -35.247687 L 4.793344 -35.41175 L 4.504281 -36.247687 L 4.344125 -36.892219 L 4.891 -37.728156 L 5.215219 -38.568 L 5.437875 -39.275031 L 5.375375 -40.564094 L 5.019906 -41.177375 L 4.891 -42.337531 L 4.699594 -43.075812 L 5.051156 -43.84925 L 5.601937 -44.751594 L 6.051156 -45.716437 L 6.308969 -46.525031 L 6.246469 -47.165656 L 6.180062 -47.263312 L 6.180062 -47.681281 L 7.308969 -48.939094 L 7.211312 -49.423469 L 7.082406 -49.872687 L 6.9535 -50.259406 L 6.98475 -51.903937 L 7.402719 -52.642219 L 7.789437 -53.157844 L 8.340219 -53.2555 L 8.531625 -53.802375 L 8.305062 -54.513312 L 7.887094 -54.833625 L 7.660531 -54.833625 L 7.500375 -55.607062 L 7.598031 -56.185187 L 8.242562 -57.056281 L 8.562875 -58.118781 L 8.851937 -59.052375 L 9.10975 -59.665656 L 9.789437 -60.825812 L 10.0785 -61.341437 L 10.176156 -61.919562 L 10.496469 -62.114875 L 10.496469 -62.595344 L 10.336312 -62.982062 L 9.980844 -64.400031 L 9.883187 -64.78675 L 10.367562 -65.333625 L 11.2035 -65.431281 L 12.105844 -65.78675 L 12.879281 -66.204719 L 13.461312 -66.204719 L 14.039437 -66.818 L 14.555062 -67.782844 L 14.781625 -68.232062 L 15.555062 -68.653937 L 16.519906 -68.814094 L 16.808969 -69.232062 L 16.937875 -69.876594 L 16.648812 -70.0055 L 16.715219 -70.200812 L 17.355844 -70.360969 L 17.906625 -70.392219 L 18.535531 -70.056281 L 19.308969 -70.892219 L 19.469125 -71.345344 L 19.98475 -72.181281 L 20.04725 -72.825812 L 20.04725 -74.693 L 20.144906 -75.048469 L 22.141 -75.337531 L 26.070687 -75.888312 Z M 11.269906 -67.443 L 11.527719 -67.751594 L 11.496469 -68.009406 L 10.851937 -67.993781 L 10.738656 -67.751594 L 10.60975 -67.462531 Z M 11.656625 -67.443 L 11.898812 -67.314094 L 12.605844 -67.735969 L 13.219125 -67.97425 L 13.043344 -68.103156 L 12.141 -68.056281 L 11.816781 -67.735969 Z M 15.777719 -71.392219 L 16.133187 -71.857062 L 16.293344 -72.052375 L 16.601937 -72.16175 L 16.715219 -71.872687 L 16.519906 -71.521125 L 15.988656 -71.114875 L 15.777719 -71.150031 Z M 15.488656 -73.114875 L 15.844125 -73.743781 L 16.086312 -74.126594 L 15.79725 -74.177375 L 15.539437 -73.935187 C 15.539437 -73.935187 15.391 -73.646125 15.391 -73.564094 C 15.391 -73.485969 15.391 -73.1305 15.391 -73.1305 Z M 15.488656 -73.114875 " transform="matrix(1,0,0,-1,-3.516,-29.568)"/>
</g>
</svg>
