<?xml version="1.0" encoding="UTF-8"?>
<svg xmlns="http://www.w3.org/2000/svg" xmlns:xlink="http://www.w3.org/1999/xlink" width="91pt" height="51pt" viewBox="0 0 91 51" version="1.1">
<g id="surface1">
<path style="fill:none;stroke-width:0.3985;stroke-linecap:butt;stroke-linejoin:miter;stroke:rgb(0%,0%,0%);stroke-opacity:1;stroke-miterlimit:10;" d="M -42.521437 -0.00134375 L -21.259719 45.354125 L -0.00190625 -0.00134375 L 21.259813 45.354125 L 42.521531 -0.00134375 L -21.259719 45.354125 M 21.259813 45.354125 L -42.521437 -0.00134375 " transform="matrix(1,0,0,-1,45.748,48.151)"/>
<path style=" stroke:none;fill-rule:nonzero;fill:rgb(0%,0%,0%);fill-opacity:1;" d="M 5.21875 48.152344 C 5.21875 47.050781 4.328125 46.160156 3.226563 46.160156 C 2.128906 46.160156 1.234375 47.050781 1.234375 48.152344 C 1.234375 49.25 2.128906 50.144531 3.226563 50.144531 C 4.328125 50.144531 5.21875 49.25 5.21875 48.152344 Z M 5.21875 48.152344 "/>
<path style=" stroke:none;fill-rule:nonzero;fill:rgb(0%,0%,0%);fill-opacity:1;" d="M 26.480469 2.796875 C 26.480469 1.695313 25.589844 0.804688 24.488281 0.804688 C 23.386719 0.804688 22.496094 1.695313 22.496094 2.796875 C 22.496094 3.894531 23.386719 4.789063 24.488281 4.789063 C 25.589844 4.789063 26.480469 3.894531 26.480469 2.796875 Z M 26.480469 2.796875 "/>
<path style=" stroke:none;fill-rule:nonzero;fill:rgb(0%,0%,0%);fill-opacity:1;" d="M 47.742188 48.152344 C 47.742188 47.050781 46.847656 46.160156 45.746094 46.160156 C 44.648438 46.160156 43.753906 47.050781 43.753906 48.152344 C 43.753906 49.25 44.648438 50.144531 45.746094 50.144531 C 46.847656 50.144531 47.742188 49.25 47.742188 48.152344 Z M 47.742188 48.152344 "/>
<path style=" stroke:none;fill-rule:nonzero;fill:rgb(0%,0%,0%);fill-opacity:1;" d="M 69 2.796875 C 69 1.695313 68.109375 0.804688 67.007813 0.804688 C 65.90625 0.804688 65.015625 1.695313 65.015625 2.796875 C 65.015625 3.894531 65.90625 4.789063 67.007813 4.789063 C 68.109375 4.789063 69 3.894531 69 2.796875 Z M 69 2.796875 "/>
<path style=" stroke:none;fill-rule:nonzero;fill:rgb(0%,0%,0%);fill-opacity:1;" d="M 90.261719 48.152344 C 90.261719 47.050781 89.367188 46.160156 88.269531 46.160156 C 87.167969 46.160156 86.277344 47.050781 86.277344 48.152344 C 86.277344 49.25 87.167969 50.144531 88.269531 50.144531 C 89.367188 50.144531 90.261719 49.25 90.261719 48.152344 Z M 90.261719 48.152344 "/>
</g>
</svg>
