<?xml version="1.0" encoding="UTF-8"?>
<svg xmlns="http://www.w3.org/2000/svg" xmlns:xlink="http://www.w3.org/1999/xlink" width="63pt" height="34pt" viewBox="0 0 63 34" version="1.1">
<g id="surface1">
<path style="fill:none;stroke-width:0.3985;stroke-linecap:butt;stroke-linejoin:miter;stroke:rgb(0%,0%,0%);stroke-opacity:1;stroke-miterlimit:10;" d="M -28.346344 0.000375 L -14.174469 28.348031 L 0.0013125 0.000375 L 14.173188 28.348031 L 28.345063 0.000375 L -14.174469 28.348031 M -28.346344 0.000375 L 14.173188 28.348031 " transform="matrix(1,0,0,-1,31.569,31.141)"/>
<path style=" stroke:none;fill-rule:nonzero;fill:rgb(0%,0%,0%);fill-opacity:1;" d="M 5.214844 31.140625 C 5.214844 30.039063 4.324219 29.148438 3.222656 29.148438 C 2.121094 29.148438 1.230469 30.039063 1.230469 31.140625 C 1.230469 32.242188 2.121094 33.132813 3.222656 33.132813 C 4.324219 33.132813 5.214844 32.242188 5.214844 31.140625 Z M 5.214844 31.140625 "/>
<path style=" stroke:none;fill-rule:nonzero;fill:rgb(0%,0%,0%);fill-opacity:1;" d="M 33.5625 31.140625 C 33.5625 30.039063 32.667969 29.148438 31.570313 29.148438 C 30.46875 29.148438 29.578125 30.039063 29.578125 31.140625 C 29.578125 32.242188 30.46875 33.132813 31.570313 33.132813 C 32.667969 33.132813 33.5625 32.242188 33.5625 31.140625 Z M 33.5625 31.140625 "/>
<path style=" stroke:none;fill-rule:nonzero;fill:rgb(0%,0%,0%);fill-opacity:1;" d="M 61.910156 31.140625 C 61.910156 30.039063 61.015625 29.148438 59.914063 29.148438 C 58.816406 29.148438 57.921875 30.039063 57.921875 31.140625 C 57.921875 32.242188 58.816406 33.132813 59.914063 33.132813 C 61.015625 33.132813 61.910156 32.242188 61.910156 31.140625 Z M 61.910156 31.140625 "/>
<path style=" stroke:none;fill-rule:nonzero;fill:rgb(0%,0%,0%);fill-opacity:1;" d="M 19.386719 2.792969 C 19.386719 1.695313 18.496094 0.800781 17.394531 0.800781 C 16.296875 0.800781 15.402344 1.695313 15.402344 2.792969 C 15.402344 3.894531 16.296875 4.785156 17.394531 4.785156 C 18.496094 4.785156 19.386719 3.894531 19.386719 2.792969 Z M 19.386719 2.792969 "/>
<path style=" stroke:none;fill-rule:nonzero;fill:rgb(0%,0%,0%);fill-opacity:1;" d="M 47.734375 2.792969 C 47.734375 1.695313 46.84375 0.800781 45.742188 0.800781 C 44.640625 0.800781 43.75 1.695313 43.75 2.792969 C 43.75 3.894531 44.640625 4.785156 45.742188 4.785156 C 46.84375 4.785156 47.734375 3.894531 47.734375 2.792969 Z M 47.734375 2.792969 "/>
</g>
</svg>
