<?xml version="1.0" encoding="UTF-8"?>
<svg xmlns="http://www.w3.org/2000/svg" xmlns:xlink="http://www.w3.org/1999/xlink" width="120pt" height="46pt" viewBox="0 0 120 46" version="1.1">
<g id="surface1">
<path style="fill:none;stroke-width:0.3985;stroke-linecap:butt;stroke-linejoin:miter;stroke:rgb(0%,0%,0%);stroke-opacity:1;stroke-miterlimit:10;" d="M -56.693344 -0.00046875 L 56.693375 -0.00046875 L -0.0019375 19.843281 L -56.693344 -0.00046875 L -0.0019375 39.687031 L 56.693375 -0.00046875 M -0.0019375 39.687031 L -0.0019375 19.843281 " transform="matrix(1,0,0,-1,59.916,42.48)"/>
<path style=" stroke:none;fill-rule:nonzero;fill:rgb(0%,0%,0%);fill-opacity:1;" d="M 5.214844 42.480469 C 5.214844 41.378906 4.324219 40.488281 3.222656 40.488281 C 2.121094 40.488281 1.230469 41.378906 1.230469 42.480469 C 1.230469 43.582031 2.121094 44.472656 3.222656 44.472656 C 4.324219 44.472656 5.214844 43.582031 5.214844 42.480469 Z M 5.214844 42.480469 "/>
<path style=" stroke:none;fill-rule:nonzero;fill:rgb(0%,0%,0%);fill-opacity:1;" d="M 61.910156 42.480469 C 61.910156 41.378906 61.015625 40.488281 59.914063 40.488281 C 58.816406 40.488281 57.921875 41.378906 57.921875 42.480469 C 57.921875 43.582031 58.816406 44.472656 59.914063 44.472656 C 61.015625 44.472656 61.910156 43.582031 61.910156 42.480469 Z M 61.910156 42.480469 "/>
<path style=" stroke:none;fill-rule:nonzero;fill:rgb(0%,0%,0%);fill-opacity:1;" d="M 118.601563 42.480469 C 118.601563 41.378906 117.710938 40.488281 116.609375 40.488281 C 115.507813 40.488281 114.617188 41.378906 114.617188 42.480469 C 114.617188 43.582031 115.507813 44.472656 116.609375 44.472656 C 117.710938 44.472656 118.601563 43.582031 118.601563 42.480469 Z M 118.601563 42.480469 "/>
<path style=" stroke:none;fill-rule:nonzero;fill:rgb(0%,0%,0%);fill-opacity:1;" d="M 61.910156 22.636719 C 61.910156 21.535156 61.015625 20.644531 59.914063 20.644531 C 58.816406 20.644531 57.921875 21.535156 57.921875 22.636719 C 57.921875 23.738281 58.816406 24.628906 59.914063 24.628906 C 61.015625 24.628906 61.910156 23.738281 61.910156 22.636719 Z M 61.910156 22.636719 "/>
<path style=" stroke:none;fill-rule:nonzero;fill:rgb(0%,0%,0%);fill-opacity:1;" d="M 61.910156 2.792969 C 61.910156 1.695313 61.015625 0.800781 59.914063 0.800781 C 58.816406 0.800781 57.921875 1.695313 57.921875 2.792969 C 57.921875 3.894531 58.816406 4.789063 59.914063 4.789063 C 61.015625 4.789063 61.910156 3.894531 61.910156 2.792969 Z M 61.910156 2.792969 "/>
</g>
</svg>
