<?xml version="1.0" encoding="UTF-8"?>
<svg xmlns="http://www.w3.org/2000/svg" xmlns:xlink="http://www.w3.org/1999/xlink" width="63pt" height="47pt" viewBox="0 0 63 47" version="1.1">
<g id="surface1">
<path style="fill:none;stroke-width:0.3985;stroke-linecap:butt;stroke-linejoin:miter;stroke:rgb(0%,0%,0%);stroke-opacity:1;stroke-miterlimit:10;" d="M -28.346344 -0.00096875 L -28.346344 28.346687 L 28.345063 28.346687 L 28.345063 -0.00096875 L 0.0013125 28.346687 L -28.346344 -0.00096875 " transform="matrix(1,0,0,-1,31.569,44.292)"/>
<path style=" stroke:none;fill-rule:nonzero;fill:rgb(0%,0%,0%);fill-opacity:1;" d="M 5.214844 44.292969 C 5.214844 43.191406 4.324219 42.300781 3.222656 42.300781 C 2.121094 42.300781 1.230469 43.191406 1.230469 44.292969 C 1.230469 45.390625 2.121094 46.285156 3.222656 46.285156 C 4.324219 46.285156 5.214844 45.390625 5.214844 44.292969 Z M 5.214844 44.292969 "/>
<path style=" stroke:none;fill-rule:nonzero;fill:rgb(0%,0%,0%);fill-opacity:1;" d="M 5.214844 15.945313 C 5.214844 14.84375 4.324219 13.953125 3.222656 13.953125 C 2.121094 13.953125 1.230469 14.84375 1.230469 15.945313 C 1.230469 17.046875 2.121094 17.9375 3.222656 17.9375 C 4.324219 17.9375 5.214844 17.046875 5.214844 15.945313 Z M 5.214844 15.945313 "/>
<path style=" stroke:none;fill-rule:nonzero;fill:rgb(0%,0%,0%);fill-opacity:1;" d="M 33.5625 15.945313 C 33.5625 14.84375 32.667969 13.953125 31.570313 13.953125 C 30.46875 13.953125 29.578125 14.84375 29.578125 15.945313 C 29.578125 17.046875 30.46875 17.9375 31.570313 17.9375 C 32.667969 17.9375 33.5625 17.046875 33.5625 15.945313 Z M 33.5625 15.945313 "/>
<path style=" stroke:none;fill-rule:nonzero;fill:rgb(0%,0%,0%);fill-opacity:1;" d="M 61.910156 15.945313 C 61.910156 14.84375 61.015625 13.953125 59.914063 13.953125 C 58.816406 13.953125 57.921875 14.84375 57.921875 15.945313 C 57.921875 17.046875 58.816406 17.9375 59.914063 17.9375 C 61.015625 17.9375 61.910156 17.046875 61.910156 15.945313 Z M 61.910156 15.945313 "/>
<path style=" stroke:none;fill-rule:nonzero;fill:rgb(0%,0%,0%);fill-opacity:1;" d="M 61.910156 44.292969 C 61.910156 43.191406 61.015625 42.300781 59.914063 42.300781 C 58.816406 42.300781 57.921875 43.191406 57.921875 44.292969 C 57.921875 45.390625 58.816406 46.285156 59.914063 46.285156 C 61.015625 46.285156 61.910156 45.390625 61.910156 44.292969 Z M 61.910156 44.292969 "/>
<path style="fill:none;stroke-width:0.3985;stroke-linecap:butt;stroke-linejoin:miter;stroke:rgb(0%,0%,0%);stroke-opacity:1;stroke-miterlimit:10;" d="M -28.346344 28.346687 C -17.291656 47.495125 17.294281 47.495125 28.345063 28.346687 " transform="matrix(1,0,0,-1,31.569,44.292)"/>
</g>
</svg>
