<?xml version="1.0" encoding="UTF-8"?>
<svg xmlns="http://www.w3.org/2000/svg" xmlns:xlink="http://www.w3.org/1999/xlink" width="210pt" height="208pt" viewBox="0 0 210 208" version="1.1">
<g id="surface1">
<path style="fill:none;stroke-width:0.79701;stroke-linecap:butt;stroke-linejoin:miter;stroke:rgb(0%,0%,0%);stroke-opacity:1;stroke-miterlimit:10;" d="M 2.835344 28.348594 C 2.835344 28.348594 -7.47325 3.934531 -0.00059375 0.0009375 C 7.472062 -3.932656 40.960344 -0.393594 56.694719 0.0009375 C 72.425187 0.391562 101.58925 2.832969 113.386125 2.832969 C 125.186906 2.832969 133.866594 0.391562 141.733781 0.0009375 C 149.600969 -0.393594 162.21425 0.0009375 170.081437 0.0009375 C 177.948625 0.0009375 194.4955 -3.932656 198.429094 0.0009375 C 202.358781 3.934531 198.034562 14.582969 198.429094 28.348594 C 198.819719 42.114219 201.261125 99.211875 201.261125 99.211875 M 28.347062 28.348594 C 28.347062 28.348594 6.768937 12.614219 2.835344 28.348594 C -1.09825 44.079062 -0.00059375 141.735312 -0.00059375 141.735312 M 56.694719 141.735312 C 56.694719 141.735312 32.280656 145.668906 28.347062 141.735312 C 24.413469 137.801719 28.347062 129.118125 28.347062 113.387656 C 28.347062 97.653281 28.347062 42.114219 28.347062 28.348594 C 28.347062 14.582969 20.479875 16.141562 28.347062 14.172812 C 36.21425 12.207969 77.175187 11.223594 85.038469 14.172812 C 92.905656 17.122031 85.038469 35.434531 85.038469 35.434531 M 141.733781 0.0009375 C 141.733781 0.0009375 137.800187 24.415 141.733781 28.348594 C 145.667375 32.278281 166.147844 32.278281 170.081437 28.348594 C 174.015031 24.415 170.081437 0.0009375 170.081437 0.0009375 M 170.081437 28.348594 C 170.081437 28.348594 170.081437 75.207969 170.081437 85.04 C 170.081437 94.872031 172.046281 97.247031 170.081437 99.211875 C 168.112687 101.180625 155.905656 99.211875 155.905656 99.211875 M 141.733781 28.348594 C 141.733781 28.348594 117.319719 27.364219 113.386125 28.348594 C 109.452531 29.329062 113.386125 33.465781 113.386125 35.434531 C 113.386125 37.399375 113.386125 35.637656 113.386125 42.520469 C 113.386125 49.403281 121.253312 79.141562 113.386125 85.04 C 105.522844 90.938437 64.558 92.907187 56.694719 85.04 C 48.827531 77.172812 52.761125 35.231406 56.694719 28.348594 C 60.628312 21.465781 77.175187 34.450156 85.038469 35.434531 C 92.905656 36.415 113.386125 35.434531 113.386125 35.434531 M 113.386125 42.520469 C 113.386125 42.520469 137.800187 36.622031 141.733781 42.520469 C 145.667375 48.418906 141.733781 75.207969 141.733781 85.04 C 141.733781 94.872031 145.667375 109.454062 141.733781 113.387656 C 137.800187 117.32125 121.253312 113.9775 113.386125 113.387656 C 105.522844 112.797812 92.905656 109.13375 85.038469 109.13375 C 77.175187 109.13375 62.593156 112.797812 56.694719 113.387656 C 50.792375 113.9775 44.487687 117.32125 42.518937 113.387656 C 40.554094 109.454062 40.554094 88.973594 42.518937 85.04 C 44.487687 81.106406 56.694719 85.04 56.694719 85.04 M 141.733781 85.04 C 141.733781 85.04 153.940812 83.075156 155.905656 85.04 C 157.874406 87.00875 155.905656 94.493125 155.905656 99.211875 C 155.905656 103.934531 155.905656 113.157187 155.905656 119.055625 C 155.905656 124.957969 161.808 138.586875 155.905656 141.735312 C 150.007219 144.879844 119.288469 145.668906 113.386125 141.735312 C 107.487687 137.801719 113.386125 113.387656 113.386125 113.387656 M 170.081437 85.04 C 170.081437 85.04 197.327531 91.348594 201.261125 99.211875 C 205.194719 107.079062 204.722062 138.981406 198.429094 141.735312 C 192.136125 144.485312 155.905656 119.055625 155.905656 119.055625 M 198.429094 141.735312 C 198.429094 141.735312 153.534562 176.387656 141.733781 184.254844 C 129.933 192.122031 129.1205 196.461875 113.386125 198.426719 C 97.655656 200.395469 44.077531 206.293906 28.347062 198.426719 C 12.612687 190.563437 -0.00059375 153.532187 -0.00059375 141.735312 C -0.00059375 129.934531 28.347062 113.387656 28.347062 113.387656 M 56.694719 113.387656 C 56.694719 113.387656 57.479875 135.832969 56.694719 141.735312 C 55.905656 147.63375 51.022844 151.973594 51.022844 155.907187 C 51.022844 159.840781 51.972062 166.149375 56.694719 170.079062 C 61.413469 174.012656 77.175187 188.188437 85.038469 184.254844 C 92.905656 180.32125 113.386125 141.735312 113.386125 141.735312 M 28.347062 198.426719 C 28.347062 198.426719 85.038469 184.254844 85.038469 184.254844 " transform="matrix(1,0,0,-1,4.192,204.29)"/>
</g>
</svg>
