<?xml version="1.0" encoding="UTF-8"?>
<svg xmlns="http://www.w3.org/2000/svg" xmlns:xlink="http://www.w3.org/1999/xlink" width="63pt" height="56pt" viewBox="0 0 63 56" version="1.1">
<g id="surface1">
<path style="fill:none;stroke-width:0.19925;stroke-linecap:butt;stroke-linejoin:miter;stroke:rgb(0%,0%,0%);stroke-opacity:1;stroke-miterlimit:10;" d="M 28.345063 -0.00053125 L 14.173188 24.55025 L -28.346344 -0.00053125 Z M 28.345063 -0.00053125 " transform="matrix(1,0,0,-1,31.569,28.144)"/>
<path style=" stroke:none;fill-rule:nonzero;fill:rgb(0%,0%,0%);fill-opacity:1;" d="M 61.910156 28.144531 C 61.910156 27.042969 61.015625 26.152344 59.914063 26.152344 C 58.816406 26.152344 57.921875 27.042969 57.921875 28.144531 C 57.921875 29.246094 58.816406 30.136719 59.914063 30.136719 C 61.015625 30.136719 61.910156 29.246094 61.910156 28.144531 Z M 61.910156 28.144531 "/>
<path style="fill:none;stroke-width:0.19925;stroke-linecap:butt;stroke-linejoin:miter;stroke:rgb(0%,0%,0%);stroke-opacity:1;stroke-miterlimit:10;" d="M 14.173188 24.55025 L -14.174469 24.55025 L -14.174469 -24.547406 Z M 14.173188 24.55025 " transform="matrix(1,0,0,-1,31.569,28.144)"/>
<path style=" stroke:none;fill-rule:nonzero;fill:rgb(0%,0%,0%);fill-opacity:1;" d="M 47.734375 3.59375 C 47.734375 2.496094 46.84375 1.601563 45.742188 1.601563 C 44.640625 1.601563 43.75 2.496094 43.75 3.59375 C 43.75 4.695313 44.640625 5.585938 45.742188 5.585938 C 46.84375 5.585938 47.734375 4.695313 47.734375 3.59375 Z M 47.734375 3.59375 "/>
<path style="fill:none;stroke-width:0.19925;stroke-linecap:butt;stroke-linejoin:miter;stroke:rgb(0%,0%,0%);stroke-opacity:1;stroke-miterlimit:10;" d="M -14.174469 24.55025 L -28.346344 -0.00053125 L 14.173188 -24.547406 Z M -14.174469 24.55025 " transform="matrix(1,0,0,-1,31.569,28.144)"/>
<path style=" stroke:none;fill-rule:nonzero;fill:rgb(0%,0%,0%);fill-opacity:1;" d="M 19.386719 3.59375 C 19.386719 2.496094 18.496094 1.601563 17.394531 1.601563 C 16.296875 1.601563 15.402344 2.496094 15.402344 3.59375 C 15.402344 4.695313 16.296875 5.585938 17.394531 5.585938 C 18.496094 5.585938 19.386719 4.695313 19.386719 3.59375 Z M 19.386719 3.59375 "/>
<path style="fill:none;stroke-width:0.19925;stroke-linecap:butt;stroke-linejoin:miter;stroke:rgb(0%,0%,0%);stroke-opacity:1;stroke-miterlimit:10;" d="M -28.346344 -0.00053125 L -14.174469 -24.547406 L 28.345063 -0.00053125 Z M -28.346344 -0.00053125 " transform="matrix(1,0,0,-1,31.569,28.144)"/>
<path style=" stroke:none;fill-rule:nonzero;fill:rgb(0%,0%,0%);fill-opacity:1;" d="M 5.214844 28.144531 C 5.214844 27.042969 4.324219 26.152344 3.222656 26.152344 C 2.121094 26.152344 1.230469 27.042969 1.230469 28.144531 C 1.230469 29.246094 2.121094 30.136719 3.222656 30.136719 C 4.324219 30.136719 5.214844 29.246094 5.214844 28.144531 Z M 5.214844 28.144531 "/>
<path style="fill:none;stroke-width:0.19925;stroke-linecap:butt;stroke-linejoin:miter;stroke:rgb(0%,0%,0%);stroke-opacity:1;stroke-miterlimit:10;" d="M -14.174469 -24.547406 L 14.173188 -24.547406 L 14.173188 24.55025 Z M -14.174469 -24.547406 " transform="matrix(1,0,0,-1,31.569,28.144)"/>
<path style=" stroke:none;fill-rule:nonzero;fill:rgb(0%,0%,0%);fill-opacity:1;" d="M 19.386719 52.691406 C 19.386719 51.59375 18.496094 50.699219 17.394531 50.699219 C 16.296875 50.699219 15.402344 51.59375 15.402344 52.691406 C 15.402344 53.792969 16.296875 54.6875 17.394531 54.6875 C 18.496094 54.6875 19.386719 53.792969 19.386719 52.691406 Z M 19.386719 52.691406 "/>
<path style="fill:none;stroke-width:0.19925;stroke-linecap:butt;stroke-linejoin:miter;stroke:rgb(0%,0%,0%);stroke-opacity:1;stroke-miterlimit:10;" d="M 14.173188 -24.547406 L 28.345063 -0.00053125 L -14.174469 24.55025 Z M 14.173188 -24.547406 " transform="matrix(1,0,0,-1,31.569,28.144)"/>
<path style=" stroke:none;fill-rule:nonzero;fill:rgb(0%,0%,0%);fill-opacity:1;" d="M 47.734375 52.691406 C 47.734375 51.59375 46.84375 50.699219 45.742188 50.699219 C 44.640625 50.699219 43.75 51.59375 43.75 52.691406 C 43.75 53.792969 44.640625 54.6875 45.742188 54.6875 C 46.84375 54.6875 47.734375 53.792969 47.734375 52.691406 Z M 47.734375 52.691406 "/>
<path style="fill:none;stroke-width:0.19925;stroke-linecap:butt;stroke-linejoin:miter;stroke:rgb(0%,0%,0%);stroke-opacity:1;stroke-miterlimit:10;" d="M 28.345063 -0.00053125 L 14.173188 24.55025 L -28.346344 -0.00053125 Z M 28.345063 -0.00053125 " transform="matrix(1,0,0,-1,31.569,28.144)"/>
<path style=" stroke:none;fill-rule:nonzero;fill:rgb(0%,0%,0%);fill-opacity:1;" d="M 61.910156 28.144531 C 61.910156 27.042969 61.015625 26.152344 59.914063 26.152344 C 58.816406 26.152344 57.921875 27.042969 57.921875 28.144531 C 57.921875 29.246094 58.816406 30.136719 59.914063 30.136719 C 61.015625 30.136719 61.910156 29.246094 61.910156 28.144531 Z M 61.910156 28.144531 "/>
<path style="fill:none;stroke-width:1.19553;stroke-linecap:butt;stroke-linejoin:miter;stroke:rgb(0%,0%,0%);stroke-opacity:1;stroke-miterlimit:10;" d="M 28.345063 -0.00053125 L 14.173188 24.55025 L -28.346344 -0.00053125 L -14.174469 -24.547406 L 28.345063 -0.00053125 L -28.346344 -0.00053125 M 14.173188 24.55025 L -14.174469 -24.547406 " transform="matrix(1,0,0,-1,31.569,28.144)"/>
</g>
</svg>
