<?xml version="1.0" encoding="UTF-8"?>
<svg xmlns="http://www.w3.org/2000/svg" xmlns:xlink="http://www.w3.org/1999/xlink" width="63pt" height="55pt" viewBox="0 0 63 55" version="1.1">
<g id="surface1">
<path style="fill:none;stroke-width:0.3985;stroke-linecap:butt;stroke-linejoin:miter;stroke:rgb(0%,0%,0%);stroke-opacity:1;stroke-miterlimit:10;" d="M 28.345063 -0.00075 L 14.173188 24.550031 L -28.346344 -0.00075 Z M 28.345063 -0.00075 " transform="matrix(1,0,0,-1,31.569,27.343)"/>
<path style=" stroke:none;fill-rule:nonzero;fill:rgb(0%,0%,0%);fill-opacity:1;" d="M 61.910156 27.34375 C 61.910156 26.242188 61.015625 25.351563 59.914063 25.351563 C 58.816406 25.351563 57.921875 26.242188 57.921875 27.34375 C 57.921875 28.445313 58.816406 29.335938 59.914063 29.335938 C 61.015625 29.335938 61.910156 28.445313 61.910156 27.34375 Z M 61.910156 27.34375 "/>
<path style="fill:none;stroke-width:0.3985;stroke-linecap:butt;stroke-linejoin:miter;stroke:rgb(0%,0%,0%);stroke-opacity:1;stroke-miterlimit:10;" d="M 14.173188 24.550031 L -14.174469 24.550031 L -14.174469 -24.547625 Z M 14.173188 24.550031 " transform="matrix(1,0,0,-1,31.569,27.343)"/>
<path style=" stroke:none;fill-rule:nonzero;fill:rgb(0%,0%,0%);fill-opacity:1;" d="M 47.734375 2.792969 C 47.734375 1.695313 46.84375 0.800781 45.742188 0.800781 C 44.640625 0.800781 43.75 1.695313 43.75 2.792969 C 43.75 3.894531 44.640625 4.785156 45.742188 4.785156 C 46.84375 4.785156 47.734375 3.894531 47.734375 2.792969 Z M 47.734375 2.792969 "/>
<path style="fill:none;stroke-width:0.3985;stroke-linecap:butt;stroke-linejoin:miter;stroke:rgb(0%,0%,0%);stroke-opacity:1;stroke-miterlimit:10;" d="M -14.174469 24.550031 L -28.346344 -0.00075 L 14.173188 -24.547625 Z M -14.174469 24.550031 " transform="matrix(1,0,0,-1,31.569,27.343)"/>
<path style=" stroke:none;fill-rule:nonzero;fill:rgb(0%,0%,0%);fill-opacity:1;" d="M 19.386719 2.792969 C 19.386719 1.695313 18.496094 0.800781 17.394531 0.800781 C 16.296875 0.800781 15.402344 1.695313 15.402344 2.792969 C 15.402344 3.894531 16.296875 4.785156 17.394531 4.785156 C 18.496094 4.785156 19.386719 3.894531 19.386719 2.792969 Z M 19.386719 2.792969 "/>
<path style="fill:none;stroke-width:0.3985;stroke-linecap:butt;stroke-linejoin:miter;stroke:rgb(0%,0%,0%);stroke-opacity:1;stroke-miterlimit:10;" d="M -28.346344 -0.00075 L -14.174469 -24.547625 L 28.345063 -0.00075 Z M -28.346344 -0.00075 " transform="matrix(1,0,0,-1,31.569,27.343)"/>
<path style=" stroke:none;fill-rule:nonzero;fill:rgb(0%,0%,0%);fill-opacity:1;" d="M 5.214844 27.34375 C 5.214844 26.242188 4.324219 25.351563 3.222656 25.351563 C 2.121094 25.351563 1.230469 26.242188 1.230469 27.34375 C 1.230469 28.445313 2.121094 29.335938 3.222656 29.335938 C 4.324219 29.335938 5.214844 28.445313 5.214844 27.34375 Z M 5.214844 27.34375 "/>
<path style="fill:none;stroke-width:0.3985;stroke-linecap:butt;stroke-linejoin:miter;stroke:rgb(0%,0%,0%);stroke-opacity:1;stroke-miterlimit:10;" d="M -14.174469 -24.547625 L 14.173188 -24.547625 L 14.173188 24.550031 Z M -14.174469 -24.547625 " transform="matrix(1,0,0,-1,31.569,27.343)"/>
<path style=" stroke:none;fill-rule:nonzero;fill:rgb(0%,0%,0%);fill-opacity:1;" d="M 19.386719 51.890625 C 19.386719 50.792969 18.496094 49.898438 17.394531 49.898438 C 16.296875 49.898438 15.402344 50.792969 15.402344 51.890625 C 15.402344 52.992188 16.296875 53.882813 17.394531 53.882813 C 18.496094 53.882813 19.386719 52.992188 19.386719 51.890625 Z M 19.386719 51.890625 "/>
<path style="fill:none;stroke-width:0.3985;stroke-linecap:butt;stroke-linejoin:miter;stroke:rgb(0%,0%,0%);stroke-opacity:1;stroke-miterlimit:10;" d="M 14.173188 -24.547625 L 28.345063 -0.00075 L -14.174469 24.550031 Z M 14.173188 -24.547625 " transform="matrix(1,0,0,-1,31.569,27.343)"/>
<path style=" stroke:none;fill-rule:nonzero;fill:rgb(0%,0%,0%);fill-opacity:1;" d="M 47.734375 51.890625 C 47.734375 50.792969 46.84375 49.898438 45.742188 49.898438 C 44.640625 49.898438 43.75 50.792969 43.75 51.890625 C 43.75 52.992188 44.640625 53.882813 45.742188 53.882813 C 46.84375 53.882813 47.734375 52.992188 47.734375 51.890625 Z M 47.734375 51.890625 "/>
<path style="fill:none;stroke-width:0.3985;stroke-linecap:butt;stroke-linejoin:miter;stroke:rgb(0%,0%,0%);stroke-opacity:1;stroke-miterlimit:10;" d="M 28.345063 -0.00075 L 14.173188 24.550031 L -28.346344 -0.00075 Z M 28.345063 -0.00075 " transform="matrix(1,0,0,-1,31.569,27.343)"/>
<path style=" stroke:none;fill-rule:nonzero;fill:rgb(0%,0%,0%);fill-opacity:1;" d="M 61.910156 27.34375 C 61.910156 26.242188 61.015625 25.351563 59.914063 25.351563 C 58.816406 25.351563 57.921875 26.242188 57.921875 27.34375 C 57.921875 28.445313 58.816406 29.335938 59.914063 29.335938 C 61.015625 29.335938 61.910156 28.445313 61.910156 27.34375 Z M 61.910156 27.34375 "/>
</g>
</svg>
