<?xml version="1.0" encoding="UTF-8"?>
<svg xmlns="http://www.w3.org/2000/svg" xmlns:xlink="http://www.w3.org/1999/xlink" width="106pt" height="79pt" viewBox="0 0 106 79" version="1.1">
<g id="surface1">
<path style="fill:none;stroke-width:0.3985;stroke-linecap:butt;stroke-linejoin:miter;stroke:rgb(0%,0%,0%);stroke-opacity:1;stroke-miterlimit:10;" d="M -19.842469 19.843281 L -29.764344 29.765156 M -19.842469 19.843281 L -17.858094 39.687031 M -19.842469 19.843281 L -3.967469 9.921406 M -19.842469 19.843281 L -9.920594 3.968281 " transform="matrix(1,0,0,-1,32.987,42.48)"/>
<path style=" stroke:none;fill-rule:nonzero;fill:rgb(0%,0%,0%);fill-opacity:1;" d="M 15.136719 22.636719 C 15.136719 21.535156 14.246094 20.644531 13.144531 20.644531 C 12.042969 20.644531 11.152344 21.535156 11.152344 22.636719 C 11.152344 23.738281 12.042969 24.628906 13.144531 24.628906 C 14.246094 24.628906 15.136719 23.738281 15.136719 22.636719 Z M 15.136719 22.636719 "/>
<path style=" stroke:none;fill-rule:nonzero;fill:rgb(0%,0%,0%);fill-opacity:1;" d="M 5.214844 12.714844 C 5.214844 11.617188 4.324219 10.722656 3.222656 10.722656 C 2.121094 10.722656 1.230469 11.617188 1.230469 12.714844 C 1.230469 13.816406 2.121094 14.707031 3.222656 14.707031 C 4.324219 14.707031 5.214844 13.816406 5.214844 12.714844 Z M 5.214844 12.714844 "/>
<path style=" stroke:none;fill-rule:nonzero;fill:rgb(0%,0%,0%);fill-opacity:1;" d="M 17.121094 2.792969 C 17.121094 1.695313 16.230469 0.800781 15.128906 0.800781 C 14.027344 0.800781 13.136719 1.695313 13.136719 2.792969 C 13.136719 3.894531 14.027344 4.789063 15.128906 4.789063 C 16.230469 4.789063 17.121094 3.894531 17.121094 2.792969 Z M 17.121094 2.792969 "/>
<path style=" stroke:none;fill-rule:nonzero;fill:rgb(0%,0%,0%);fill-opacity:1;" d="M 31.011719 32.558594 C 31.011719 31.457031 30.117188 30.566406 29.019531 30.566406 C 27.917969 30.566406 27.027344 31.457031 27.027344 32.558594 C 27.027344 33.660156 27.917969 34.550781 29.019531 34.550781 C 30.117188 34.550781 31.011719 33.660156 31.011719 32.558594 Z M 31.011719 32.558594 "/>
<path style=" stroke:none;fill-rule:nonzero;fill:rgb(0%,0%,0%);fill-opacity:1;" d="M 25.058594 38.511719 C 25.058594 37.410156 24.167969 36.519531 23.066406 36.519531 C 21.964844 36.519531 21.074219 37.410156 21.074219 38.511719 C 21.074219 39.613281 21.964844 40.503906 23.066406 40.503906 C 24.167969 40.503906 25.058594 39.613281 25.058594 38.511719 Z M 25.058594 38.511719 "/>
<path style="fill:none;stroke-width:0.3985;stroke-linecap:butt;stroke-linejoin:miter;stroke:rgb(0%,0%,0%);stroke-opacity:1;stroke-miterlimit:10;" d="M -19.842469 19.843281 L 19.841125 19.843281 L 9.923156 25.796406 M 19.841125 19.843281 L 19.841125 39.687031 M 19.841125 19.843281 L 29.763 25.796406 M 19.841125 19.843281 L 29.763 19.843281 " transform="matrix(1,0,0,-1,32.987,42.48)"/>
<path style=" stroke:none;fill-rule:nonzero;fill:rgb(0%,0%,0%);fill-opacity:1;" d="M 54.820313 22.636719 C 54.820313 21.535156 53.929688 20.644531 52.828125 20.644531 C 51.730469 20.644531 50.835938 21.535156 50.835938 22.636719 C 50.835938 23.738281 51.730469 24.628906 52.828125 24.628906 C 53.929688 24.628906 54.820313 23.738281 54.820313 22.636719 Z M 54.820313 22.636719 "/>
<path style=" stroke:none;fill-rule:nonzero;fill:rgb(0%,0%,0%);fill-opacity:1;" d="M 44.902344 16.683594 C 44.902344 15.585938 44.007813 14.691406 42.910156 14.691406 C 41.808594 14.691406 40.914063 15.585938 40.914063 16.683594 C 40.914063 17.785156 41.808594 18.675781 42.910156 18.675781 C 44.007813 18.675781 44.902344 17.785156 44.902344 16.683594 Z M 44.902344 16.683594 "/>
<path style=" stroke:none;fill-rule:nonzero;fill:rgb(0%,0%,0%);fill-opacity:1;" d="M 54.820313 2.792969 C 54.820313 1.695313 53.929688 0.800781 52.828125 0.800781 C 51.730469 0.800781 50.835938 1.695313 50.835938 2.792969 C 50.835938 3.894531 51.730469 4.789063 52.828125 4.789063 C 53.929688 4.789063 54.820313 3.894531 54.820313 2.792969 Z M 54.820313 2.792969 "/>
<path style=" stroke:none;fill-rule:nonzero;fill:rgb(0%,0%,0%);fill-opacity:1;" d="M 64.742188 16.683594 C 64.742188 15.585938 63.851563 14.691406 62.75 14.691406 C 61.652344 14.691406 60.757813 15.585938 60.757813 16.683594 C 60.757813 17.785156 61.652344 18.675781 62.75 18.675781 C 63.851563 18.675781 64.742188 17.785156 64.742188 16.683594 Z M 64.742188 16.683594 "/>
<path style=" stroke:none;fill-rule:nonzero;fill:rgb(0%,0%,0%);fill-opacity:1;" d="M 64.742188 22.636719 C 64.742188 21.535156 63.851563 20.644531 62.75 20.644531 C 61.652344 20.644531 60.757813 21.535156 60.757813 22.636719 C 60.757813 23.738281 61.652344 24.628906 62.75 24.628906 C 63.851563 24.628906 64.742188 23.738281 64.742188 22.636719 Z M 64.742188 22.636719 "/>
<path style="fill:none;stroke-width:0.3985;stroke-linecap:butt;stroke-linejoin:miter;stroke:rgb(0%,0%,0%);stroke-opacity:1;stroke-miterlimit:10;" d="M 19.841125 19.843281 L 0.00128125 -0.00046875 L -3.967469 -19.844219 M 0.00128125 -0.00046875 L 3.970031 -19.844219 M 0.00128125 -0.00046875 L 39.684875 -0.00046875 L 39.684875 19.843281 L 49.60675 29.765156 M 39.684875 19.843281 L 47.622375 21.827656 " transform="matrix(1,0,0,-1,32.987,42.48)"/>
<path style=" stroke:none;fill-rule:nonzero;fill:rgb(0%,0%,0%);fill-opacity:1;" d="M 34.980469 42.480469 C 34.980469 41.378906 34.085938 40.488281 32.988281 40.488281 C 31.886719 40.488281 30.996094 41.378906 30.996094 42.480469 C 30.996094 43.582031 31.886719 44.472656 32.988281 44.472656 C 34.085938 44.472656 34.980469 43.582031 34.980469 42.480469 Z M 34.980469 42.480469 "/>
<path style=" stroke:none;fill-rule:nonzero;fill:rgb(0%,0%,0%);fill-opacity:1;" d="M 31.011719 62.324219 C 31.011719 61.222656 30.117188 60.332031 29.019531 60.332031 C 27.917969 60.332031 27.027344 61.222656 27.027344 62.324219 C 27.027344 63.421875 27.917969 64.316406 29.019531 64.316406 C 30.117188 64.316406 31.011719 63.421875 31.011719 62.324219 Z M 31.011719 62.324219 "/>
<path style=" stroke:none;fill-rule:nonzero;fill:rgb(0%,0%,0%);fill-opacity:1;" d="M 38.949219 62.324219 C 38.949219 61.222656 38.054688 60.332031 36.957031 60.332031 C 35.855469 60.332031 34.964844 61.222656 34.964844 62.324219 C 34.964844 63.421875 35.855469 64.316406 36.957031 64.316406 C 38.054688 64.316406 38.949219 63.421875 38.949219 62.324219 Z M 38.949219 62.324219 "/>
<path style=" stroke:none;fill-rule:nonzero;fill:rgb(0%,0%,0%);fill-opacity:1;" d="M 74.664063 42.480469 C 74.664063 41.378906 73.773438 40.488281 72.671875 40.488281 C 71.570313 40.488281 70.679688 41.378906 70.679688 42.480469 C 70.679688 43.582031 71.570313 44.472656 72.671875 44.472656 C 73.773438 44.472656 74.664063 43.582031 74.664063 42.480469 Z M 74.664063 42.480469 "/>
<path style=" stroke:none;fill-rule:nonzero;fill:rgb(0%,0%,0%);fill-opacity:1;" d="M 74.664063 22.636719 C 74.664063 21.535156 73.773438 20.644531 72.671875 20.644531 C 71.570313 20.644531 70.679688 21.535156 70.679688 22.636719 C 70.679688 23.738281 71.570313 24.628906 72.671875 24.628906 C 73.773438 24.628906 74.664063 23.738281 74.664063 22.636719 Z M 74.664063 22.636719 "/>
<path style=" stroke:none;fill-rule:nonzero;fill:rgb(0%,0%,0%);fill-opacity:1;" d="M 84.585938 12.714844 C 84.585938 11.617188 83.695313 10.722656 82.59375 10.722656 C 81.492188 10.722656 80.601563 11.617188 80.601563 12.714844 C 80.601563 13.816406 81.492188 14.707031 82.59375 14.707031 C 83.695313 14.707031 84.585938 13.816406 84.585938 12.714844 Z M 84.585938 12.714844 "/>
<path style=" stroke:none;fill-rule:nonzero;fill:rgb(0%,0%,0%);fill-opacity:1;" d="M 82.601563 20.652344 C 82.601563 19.550781 81.710938 18.660156 80.609375 18.660156 C 79.507813 18.660156 78.617188 19.550781 78.617188 20.652344 C 78.617188 21.753906 79.507813 22.644531 80.609375 22.644531 C 81.710938 22.644531 82.601563 21.753906 82.601563 20.652344 Z M 82.601563 20.652344 "/>
<path style="fill:none;stroke-width:0.3985;stroke-linecap:butt;stroke-linejoin:miter;stroke:rgb(0%,0%,0%);stroke-opacity:1;stroke-miterlimit:10;" d="M 39.684875 -0.00046875 L 39.684875 -19.844219 L 47.622375 -9.922344 M 39.684875 -19.844219 L 47.622375 -27.777812 M 39.684875 -19.844219 L 39.684875 -33.730937 M 39.684875 -19.844219 L 31.747375 -27.777812 M 39.684875 -19.844219 L 31.747375 -11.906719 " transform="matrix(1,0,0,-1,32.987,42.48)"/>
<path style=" stroke:none;fill-rule:nonzero;fill:rgb(0%,0%,0%);fill-opacity:1;" d="M 74.664063 62.324219 C 74.664063 61.222656 73.773438 60.332031 72.671875 60.332031 C 71.570313 60.332031 70.679688 61.222656 70.679688 62.324219 C 70.679688 63.421875 71.570313 64.316406 72.671875 64.316406 C 73.773438 64.316406 74.664063 63.421875 74.664063 62.324219 Z M 74.664063 62.324219 "/>
<path style=" stroke:none;fill-rule:nonzero;fill:rgb(0%,0%,0%);fill-opacity:1;" d="M 82.601563 52.402344 C 82.601563 51.300781 81.710938 50.410156 80.609375 50.410156 C 79.507813 50.410156 78.617188 51.300781 78.617188 52.402344 C 78.617188 53.5 79.507813 54.394531 80.609375 54.394531 C 81.710938 54.394531 82.601563 53.5 82.601563 52.402344 Z M 82.601563 52.402344 "/>
<path style=" stroke:none;fill-rule:nonzero;fill:rgb(0%,0%,0%);fill-opacity:1;" d="M 82.601563 70.257813 C 82.601563 69.160156 81.710938 68.265625 80.609375 68.265625 C 79.507813 68.265625 78.617188 69.160156 78.617188 70.257813 C 78.617188 71.359375 79.507813 72.253906 80.609375 72.253906 C 81.710938 72.253906 82.601563 71.359375 82.601563 70.257813 Z M 82.601563 70.257813 "/>
<path style=" stroke:none;fill-rule:nonzero;fill:rgb(0%,0%,0%);fill-opacity:1;" d="M 74.664063 76.210938 C 74.664063 75.113281 73.773438 74.21875 72.671875 74.21875 C 71.570313 74.21875 70.679688 75.113281 70.679688 76.210938 C 70.679688 77.3125 71.570313 78.203125 72.671875 78.203125 C 73.773438 78.203125 74.664063 77.3125 74.664063 76.210938 Z M 74.664063 76.210938 "/>
<path style=" stroke:none;fill-rule:nonzero;fill:rgb(0%,0%,0%);fill-opacity:1;" d="M 66.726563 70.257813 C 66.726563 69.160156 65.835938 68.265625 64.734375 68.265625 C 63.636719 68.265625 62.742188 69.160156 62.742188 70.257813 C 62.742188 71.359375 63.636719 72.253906 64.734375 72.253906 C 65.835938 72.253906 66.726563 71.359375 66.726563 70.257813 Z M 66.726563 70.257813 "/>
<path style=" stroke:none;fill-rule:nonzero;fill:rgb(0%,0%,0%);fill-opacity:1;" d="M 66.726563 54.386719 C 66.726563 53.285156 65.835938 52.394531 64.734375 52.394531 C 63.636719 52.394531 62.742188 53.285156 62.742188 54.386719 C 62.742188 55.484375 63.636719 56.378906 64.734375 56.378906 C 65.835938 56.378906 66.726563 55.484375 66.726563 54.386719 Z M 66.726563 54.386719 "/>
<path style="fill:none;stroke-width:0.3985;stroke-linecap:butt;stroke-linejoin:miter;stroke:rgb(0%,0%,0%);stroke-opacity:1;stroke-miterlimit:10;" d="M 39.684875 -0.00046875 L 59.528625 19.843281 L 59.528625 29.765156 L 69.4505 39.687031 M 59.528625 19.843281 L 59.528625 9.921406 L 69.4505 -0.00046875 " transform="matrix(1,0,0,-1,32.987,42.48)"/>
<path style=" stroke:none;fill-rule:nonzero;fill:rgb(0%,0%,0%);fill-opacity:1;" d="M 94.507813 22.636719 C 94.507813 21.535156 93.617188 20.644531 92.515625 20.644531 C 91.414063 20.644531 90.523438 21.535156 90.523438 22.636719 C 90.523438 23.738281 91.414063 24.628906 92.515625 24.628906 C 93.617188 24.628906 94.507813 23.738281 94.507813 22.636719 Z M 94.507813 22.636719 "/>
<path style=" stroke:none;fill-rule:nonzero;fill:rgb(0%,0%,0%);fill-opacity:1;" d="M 94.507813 12.714844 C 94.507813 11.617188 93.617188 10.722656 92.515625 10.722656 C 91.414063 10.722656 90.523438 11.617188 90.523438 12.714844 C 90.523438 13.816406 91.414063 14.707031 92.515625 14.707031 C 93.617188 14.707031 94.507813 13.816406 94.507813 12.714844 Z M 94.507813 12.714844 "/>
<path style=" stroke:none;fill-rule:nonzero;fill:rgb(0%,0%,0%);fill-opacity:1;" d="M 104.429688 2.792969 C 104.429688 1.695313 103.535156 0.800781 102.4375 0.800781 C 101.335938 0.800781 100.445313 1.695313 100.445313 2.792969 C 100.445313 3.894531 101.335938 4.789063 102.4375 4.789063 C 103.535156 4.789063 104.429688 3.894531 104.429688 2.792969 Z M 104.429688 2.792969 "/>
<path style=" stroke:none;fill-rule:nonzero;fill:rgb(0%,0%,0%);fill-opacity:1;" d="M 94.507813 32.558594 C 94.507813 31.457031 93.617188 30.566406 92.515625 30.566406 C 91.414063 30.566406 90.523438 31.457031 90.523438 32.558594 C 90.523438 33.660156 91.414063 34.550781 92.515625 34.550781 C 93.617188 34.550781 94.507813 33.660156 94.507813 32.558594 Z M 94.507813 32.558594 "/>
<path style=" stroke:none;fill-rule:nonzero;fill:rgb(0%,0%,0%);fill-opacity:1;" d="M 104.429688 42.480469 C 104.429688 41.378906 103.535156 40.488281 102.4375 40.488281 C 101.335938 40.488281 100.445313 41.378906 100.445313 42.480469 C 100.445313 43.582031 101.335938 44.472656 102.4375 44.472656 C 103.535156 44.472656 104.429688 43.582031 104.429688 42.480469 Z M 104.429688 42.480469 "/>
</g>
</svg>
