<?xml version="1.0" encoding="UTF-8"?>
<svg xmlns="http://www.w3.org/2000/svg" xmlns:xlink="http://www.w3.org/1999/xlink" width="58pt" height="58pt" viewBox="0 0 58 58" version="1.1">
<g id="surface1">
<path style="fill:none;stroke-width:0.3985;stroke-linecap:butt;stroke-linejoin:miter;stroke:rgb(0%,0%,0%);stroke-opacity:1;stroke-miterlimit:10;" d="M 20.0455 20.045656 L -20.044344 20.045656 L -20.044344 -20.044187 L 20.0455 -20.044187 L 20.0455 20.045656 L -20.044344 -20.044187 " transform="matrix(1,0,0,-1,23.267,35.073)"/>
<path style=" stroke:none;fill-rule:nonzero;fill:rgb(0%,0%,0%);fill-opacity:1;" d="M 45.304688 15.027344 C 45.304688 13.929688 44.410156 13.035156 43.3125 13.035156 C 42.210938 13.035156 41.320313 13.929688 41.320313 15.027344 C 41.320313 16.128906 42.210938 17.019531 43.3125 17.019531 C 44.410156 17.019531 45.304688 16.128906 45.304688 15.027344 Z M 45.304688 15.027344 "/>
<path style=" stroke:none;fill-rule:nonzero;fill:rgb(0%,0%,0%);fill-opacity:1;" d="M 5.214844 15.027344 C 5.214844 13.929688 4.324219 13.035156 3.222656 13.035156 C 2.121094 13.035156 1.230469 13.929688 1.230469 15.027344 C 1.230469 16.128906 2.121094 17.019531 3.222656 17.019531 C 4.324219 17.019531 5.214844 16.128906 5.214844 15.027344 Z M 5.214844 15.027344 "/>
<path style=" stroke:none;fill-rule:nonzero;fill:rgb(0%,0%,0%);fill-opacity:1;" d="M 5.214844 55.117188 C 5.214844 54.015625 4.324219 53.125 3.222656 53.125 C 2.121094 53.125 1.230469 54.015625 1.230469 55.117188 C 1.230469 56.21875 2.121094 57.109375 3.222656 57.109375 C 4.324219 57.109375 5.214844 56.21875 5.214844 55.117188 Z M 5.214844 55.117188 "/>
<path style=" stroke:none;fill-rule:nonzero;fill:rgb(0%,0%,0%);fill-opacity:1;" d="M 45.304688 55.117188 C 45.304688 54.015625 44.410156 53.125 43.3125 53.125 C 42.210938 53.125 41.320313 54.015625 41.320313 55.117188 C 41.320313 56.21875 42.210938 57.109375 43.3125 57.109375 C 44.410156 57.109375 45.304688 56.21875 45.304688 55.117188 Z M 45.304688 55.117188 "/>
<path style="fill:none;stroke-width:0.3985;stroke-linecap:butt;stroke-linejoin:miter;stroke:rgb(0%,0%,0%);stroke-opacity:1;stroke-miterlimit:10;" d="M -20.044344 20.045656 C 19.38925 53.276125 53.275969 19.389406 20.0455 -20.044187 " transform="matrix(1,0,0,-1,23.267,35.073)"/>
</g>
</svg>
