<?xml version="1.0" encoding="UTF-8"?>
<svg xmlns="http://www.w3.org/2000/svg" xmlns:xlink="http://www.w3.org/1999/xlink" width="69pt" height="63pt" viewBox="0 0 69 63" version="1.1">
<g id="surface1">
<path style="fill:none;stroke-width:0.3985;stroke-linecap:butt;stroke-linejoin:miter;stroke:rgb(0%,0%,0%);stroke-opacity:1;stroke-miterlimit:10;" d="M -28.346781 -28.347281 C -39.401469 -18.773062 -39.401469 -9.573844 -28.346781 0.000375 C -39.401469 9.574594 -39.401469 18.773813 -28.346781 28.348031 C -17.292094 18.773813 -17.292094 9.574594 -28.346781 0.000375 C -17.292094 -9.573844 -17.292094 -18.773062 -28.346781 -28.347281 " transform="matrix(1,0,0,-1,37.921,31.141)"/>
<path style=" stroke:none;fill-rule:nonzero;fill:rgb(0%,0%,0%);fill-opacity:1;" d="M 11.566406 59.488281 C 11.566406 58.386719 10.675781 57.496094 9.574219 57.496094 C 8.472656 57.496094 7.582031 58.386719 7.582031 59.488281 C 7.582031 60.589844 8.472656 61.480469 9.574219 61.480469 C 10.675781 61.480469 11.566406 60.589844 11.566406 59.488281 Z M 11.566406 59.488281 "/>
<path style=" stroke:none;fill-rule:nonzero;fill:rgb(0%,0%,0%);fill-opacity:1;" d="M 11.566406 31.140625 C 11.566406 30.039063 10.675781 29.148438 9.574219 29.148438 C 8.472656 29.148438 7.582031 30.039063 7.582031 31.140625 C 7.582031 32.242188 8.472656 33.132813 9.574219 33.132813 C 10.675781 33.132813 11.566406 32.242188 11.566406 31.140625 Z M 11.566406 31.140625 "/>
<path style=" stroke:none;fill-rule:nonzero;fill:rgb(0%,0%,0%);fill-opacity:1;" d="M 11.566406 2.792969 C 11.566406 1.695313 10.675781 0.800781 9.574219 0.800781 C 8.472656 0.800781 7.582031 1.695313 7.582031 2.792969 C 7.582031 3.894531 8.472656 4.785156 9.574219 4.785156 C 10.675781 4.785156 11.566406 3.894531 11.566406 2.792969 Z M 11.566406 2.792969 "/>
<path style="fill:none;stroke-width:0.3985;stroke-linecap:butt;stroke-linejoin:miter;stroke:rgb(0%,0%,0%);stroke-opacity:1;stroke-miterlimit:10;" d="M 28.348531 0.000375 L -28.346781 28.348031 M -28.346781 0.000375 L 28.348531 0.000375 L -28.346781 -28.347281 " transform="matrix(1,0,0,-1,37.921,31.141)"/>
<path style=" stroke:none;fill-rule:nonzero;fill:rgb(0%,0%,0%);fill-opacity:1;" d="M 68.261719 31.140625 C 68.261719 30.039063 67.367188 29.148438 66.269531 29.148438 C 65.167969 29.148438 64.273438 30.039063 64.273438 31.140625 C 64.273438 32.242188 65.167969 33.132813 66.269531 33.132813 C 67.367188 33.132813 68.261719 32.242188 68.261719 31.140625 Z M 68.261719 31.140625 "/>
</g>
</svg>
