<?xml version="1.0" encoding="UTF-8"?>
<svg xmlns="http://www.w3.org/2000/svg" xmlns:xlink="http://www.w3.org/1999/xlink" width="151pt" height="55pt" viewBox="0 0 151 55" version="1.1">
<g id="surface1">
<path style="fill:none;stroke-width:0.3985;stroke-linecap:butt;stroke-linejoin:miter;stroke:rgb(0%,0%,0%);stroke-opacity:1;stroke-miterlimit:10;" d="M -51.02375 0.0013125 L -0.0003125 25.513031 L 51.023125 0.0013125 " transform="matrix(1,0,0,-1,75.055,28.306)"/>
<path style=" stroke:none;fill-rule:nonzero;fill:rgb(0%,0%,0%);fill-opacity:1;" d="M 26.023438 28.304688 C 26.023438 27.207031 25.132813 26.3125 24.03125 26.3125 C 22.929688 26.3125 22.039063 27.207031 22.039063 28.304688 C 22.039063 29.40625 22.929688 30.296875 24.03125 30.296875 C 25.132813 30.296875 26.023438 29.40625 26.023438 28.304688 Z M 26.023438 28.304688 "/>
<path style=" stroke:none;fill-rule:nonzero;fill:rgb(0%,0%,0%);fill-opacity:1;" d="M 77.046875 2.792969 C 77.046875 1.695313 76.15625 0.800781 75.054688 0.800781 C 73.953125 0.800781 73.0625 1.695313 73.0625 2.792969 C 73.0625 3.894531 73.953125 4.785156 75.054688 4.785156 C 76.15625 4.785156 77.046875 3.894531 77.046875 2.792969 Z M 77.046875 2.792969 "/>
<path style=" stroke:none;fill-rule:nonzero;fill:rgb(0%,0%,0%);fill-opacity:1;" d="M 128.070313 28.304688 C 128.070313 27.207031 127.179688 26.3125 126.078125 26.3125 C 124.976563 26.3125 124.085938 27.207031 124.085938 28.304688 C 124.085938 29.40625 124.976563 30.296875 126.078125 30.296875 C 127.179688 30.296875 128.070313 29.40625 128.070313 28.304688 Z M 128.070313 28.304688 "/>
<path style="fill:none;stroke-width:0.3985;stroke-linecap:butt;stroke-linejoin:miter;stroke:rgb(0%,0%,0%);stroke-opacity:1;stroke-miterlimit:10;" d="M -51.02375 0.0013125 L -63.781563 -12.7565 M -51.02375 0.0013125 L -51.02375 -12.7565 M -51.02375 0.0013125 L -38.269844 -12.7565 " transform="matrix(1,0,0,-1,75.055,28.306)"/>
<path style="fill:none;stroke-width:0.3985;stroke-linecap:butt;stroke-linejoin:miter;stroke:rgb(0%,0%,0%);stroke-opacity:1;stroke-dasharray:2.98883,2.98883;stroke-miterlimit:10;" d="M -63.781563 -12.7565 L -76.535469 -25.510406 M -51.02375 -12.7565 L -51.02375 -25.510406 M -38.269844 -12.7565 L -25.512031 -25.510406 " transform="matrix(1,0,0,-1,75.055,28.306)"/>
<path style="fill:none;stroke-width:0.3985;stroke-linecap:butt;stroke-linejoin:miter;stroke:rgb(0%,0%,0%);stroke-opacity:1;stroke-miterlimit:10;" d="M 51.023125 0.0013125 L 63.780937 -12.7565 M 51.023125 0.0013125 L 51.023125 -12.7565 M 51.023125 0.0013125 L 38.269219 -12.7565 " transform="matrix(1,0,0,-1,75.055,28.306)"/>
<path style="fill:none;stroke-width:0.3985;stroke-linecap:butt;stroke-linejoin:miter;stroke:rgb(0%,0%,0%);stroke-opacity:1;stroke-dasharray:2.98883,2.98883;stroke-miterlimit:10;" d="M 63.780937 -12.7565 L 76.534844 -25.510406 M 51.023125 -12.7565 L 51.023125 -25.510406 M 38.269219 -12.7565 L 25.511406 -25.510406 " transform="matrix(1,0,0,-1,75.055,28.306)"/>
<path style="fill:none;stroke-width:0.3985;stroke-linecap:butt;stroke-linejoin:miter;stroke:rgb(0%,0%,0%);stroke-opacity:1;stroke-miterlimit:10;" d="M -0.0003125 25.513031 L -6.379219 0.0013125 M -0.0003125 25.513031 L -0.0003125 0.0013125 M -0.0003125 25.513031 L 6.378594 0.0013125 " transform="matrix(1,0,0,-1,75.055,28.306)"/>
<path style="fill:none;stroke-width:0.3985;stroke-linecap:butt;stroke-linejoin:miter;stroke:rgb(0%,0%,0%);stroke-opacity:1;stroke-dasharray:2.98883,2.98883;stroke-miterlimit:10;" d="M -6.379219 0.0013125 L -12.754219 -25.510406 M -0.0003125 0.0013125 L -0.0003125 -25.510406 M 6.378594 0.0013125 L 12.7575 -25.510406 " transform="matrix(1,0,0,-1,75.055,28.306)"/>
</g>
</svg>
