<?xml version="1.0" encoding="UTF-8"?>
<svg xmlns="http://www.w3.org/2000/svg" xmlns:xlink="http://www.w3.org/1999/xlink" width="63pt" height="40pt" viewBox="0 0 63 40" version="1.1">
<g id="surface1">
<path style="fill:none;stroke-width:0.3985;stroke-linecap:butt;stroke-linejoin:miter;stroke:rgb(0%,0%,0%);stroke-opacity:1;stroke-miterlimit:10;" d="M -28.346344 34.016219 L -28.346344 0.00059375 L 0.0013125 34.016219 L 0.0013125 0.00059375 L 28.345063 34.016219 L 28.345063 0.00059375 L 0.0013125 34.016219 L -28.346344 0.00059375 L 28.345063 34.016219 M 28.345063 0.00059375 L -28.346344 34.016219 L 0.0013125 0.00059375 " transform="matrix(1,0,0,-1,31.569,36.817)"/>
<path style=" stroke:none;fill-rule:nonzero;fill:rgb(0%,0%,0%);fill-opacity:1;" d="M 5.214844 2.800781 C 5.214844 1.699219 4.324219 0.808594 3.222656 0.808594 C 2.121094 0.808594 1.230469 1.699219 1.230469 2.800781 C 1.230469 3.902344 2.121094 4.792969 3.222656 4.792969 C 4.324219 4.792969 5.214844 3.902344 5.214844 2.800781 Z M 5.214844 2.800781 "/>
<path style=" stroke:none;fill-rule:nonzero;fill:rgb(0%,0%,0%);fill-opacity:1;" d="M 5.214844 36.816406 C 5.214844 35.714844 4.324219 34.824219 3.222656 34.824219 C 2.121094 34.824219 1.230469 35.714844 1.230469 36.816406 C 1.230469 37.917969 2.121094 38.808594 3.222656 38.808594 C 4.324219 38.808594 5.214844 37.917969 5.214844 36.816406 Z M 5.214844 36.816406 "/>
<path style=" stroke:none;fill-rule:nonzero;fill:rgb(0%,0%,0%);fill-opacity:1;" d="M 33.5625 2.800781 C 33.5625 1.699219 32.667969 0.808594 31.570313 0.808594 C 30.46875 0.808594 29.578125 1.699219 29.578125 2.800781 C 29.578125 3.902344 30.46875 4.792969 31.570313 4.792969 C 32.667969 4.792969 33.5625 3.902344 33.5625 2.800781 Z M 33.5625 2.800781 "/>
<path style=" stroke:none;fill-rule:nonzero;fill:rgb(0%,0%,0%);fill-opacity:1;" d="M 33.5625 36.816406 C 33.5625 35.714844 32.667969 34.824219 31.570313 34.824219 C 30.46875 34.824219 29.578125 35.714844 29.578125 36.816406 C 29.578125 37.917969 30.46875 38.808594 31.570313 38.808594 C 32.667969 38.808594 33.5625 37.917969 33.5625 36.816406 Z M 33.5625 36.816406 "/>
<path style=" stroke:none;fill-rule:nonzero;fill:rgb(0%,0%,0%);fill-opacity:1;" d="M 61.910156 2.800781 C 61.910156 1.699219 61.015625 0.808594 59.914063 0.808594 C 58.816406 0.808594 57.921875 1.699219 57.921875 2.800781 C 57.921875 3.902344 58.816406 4.792969 59.914063 4.792969 C 61.015625 4.792969 61.910156 3.902344 61.910156 2.800781 Z M 61.910156 2.800781 "/>
<path style=" stroke:none;fill-rule:nonzero;fill:rgb(0%,0%,0%);fill-opacity:1;" d="M 61.910156 36.816406 C 61.910156 35.714844 61.015625 34.824219 59.914063 34.824219 C 58.816406 34.824219 57.921875 35.714844 57.921875 36.816406 C 57.921875 37.917969 58.816406 38.808594 59.914063 38.808594 C 61.015625 38.808594 61.910156 37.917969 61.910156 36.816406 Z M 61.910156 36.816406 "/>
</g>
</svg>
