<?xml version="1.0" encoding="UTF-8"?>
<svg xmlns="http://www.w3.org/2000/svg" xmlns:xlink="http://www.w3.org/1999/xlink" width="140pt" height="71pt" viewBox="0 0 140 71" version="1.1">
<g id="surface1">
<path style="fill:none;stroke-width:1.19553;stroke-linecap:butt;stroke-linejoin:miter;stroke:rgb(0%,0%,0%);stroke-opacity:1;stroke-miterlimit:10;" d="M -68.033031 -0.00146875 L -68.033031 68.033687 L 68.033375 68.033687 L 68.033375 -0.00146875 Z M -68.033031 -0.00146875 " transform="matrix(1,0,0,-1,69.951,69.229)"/>
<path style="fill:none;stroke-width:1.19553;stroke-linecap:butt;stroke-linejoin:miter;stroke:rgb(0%,0%,0%);stroke-opacity:1;stroke-miterlimit:10;" d="M -68.033031 40.818844 L -61.228344 40.818844 M -52.158031 40.818844 L -34.017406 40.818844 M -34.017406 36.283687 L -22.677563 36.283687 M -13.60725 36.283687 L 6.802906 36.283687 M 15.873219 36.283687 L 22.677906 36.283687 M 22.677906 18.143062 L 34.01775 18.143062 M 43.088062 18.143062 L 68.033375 18.143062 " transform="matrix(1,0,0,-1,69.951,69.229)"/>
<path style="fill:none;stroke-width:1.19553;stroke-linecap:butt;stroke-linejoin:miter;stroke:rgb(0%,0%,0%);stroke-opacity:1;stroke-miterlimit:10;" d="M -34.017406 -0.00146875 L -34.017406 18.143062 M -34.017406 27.213375 L -34.017406 47.623531 M -34.017406 56.693844 L -34.017406 68.033687 " transform="matrix(1,0,0,-1,69.951,69.229)"/>
<path style="fill:none;stroke-width:1.19553;stroke-linecap:butt;stroke-linejoin:miter;stroke:rgb(0%,0%,0%);stroke-opacity:1;stroke-miterlimit:10;" d="M -0.00178125 -0.00146875 L -0.00178125 13.607906 M -0.00178125 22.678219 L -0.00178125 36.283687 " transform="matrix(1,0,0,-1,69.951,69.229)"/>
<path style="fill:none;stroke-width:1.19553;stroke-linecap:butt;stroke-linejoin:miter;stroke:rgb(0%,0%,0%);stroke-opacity:1;stroke-miterlimit:10;" d="M 22.677906 -0.00146875 L 22.677906 4.533687 M 22.677906 13.607906 L 22.677906 22.678219 M 22.677906 31.748531 L 22.677906 47.623531 M 22.677906 56.693844 L 22.677906 68.033687 " transform="matrix(1,0,0,-1,69.951,69.229)"/>
</g>
</svg>
