<?xml version="1.0" encoding="UTF-8"?>
<svg xmlns="http://www.w3.org/2000/svg" xmlns:xlink="http://www.w3.org/1999/xlink" width="58pt" height="60pt" viewBox="0 0 58 60" version="1.1">
<g id="surface1">
<path style=" stroke:none;fill-rule:nonzero;fill:rgb(0%,0%,0%);fill-opacity:1;" d="M 28.148438 29.753906 C 28.148438 28.652344 27.257813 27.761719 26.15625 27.761719 C 25.054688 27.761719 24.164063 28.652344 24.164063 29.753906 C 24.164063 30.851563 25.054688 31.746094 26.15625 31.746094 C 27.257813 31.746094 28.148438 30.851563 28.148438 29.753906 Z M 28.148438 29.753906 "/>
<path style="fill:none;stroke-width:0.3985;stroke-linecap:butt;stroke-linejoin:miter;stroke:rgb(0%,0%,0%);stroke-opacity:1;stroke-miterlimit:10;" d="M 0.00025 -0.00090625 L 28.347906 -0.00090625 L 8.758062 26.960031 " transform="matrix(1,0,0,-1,26.156,29.753)"/>
<path style=" stroke:none;fill-rule:nonzero;fill:rgb(0%,0%,0%);fill-opacity:1;" d="M 56.496094 29.753906 C 56.496094 28.652344 55.601563 27.761719 54.503906 27.761719 C 53.402344 27.761719 52.511719 28.652344 52.511719 29.753906 C 52.511719 30.851563 53.402344 31.746094 54.503906 31.746094 C 55.601563 31.746094 56.496094 30.851563 56.496094 29.753906 Z M 56.496094 29.753906 "/>
<path style="fill:none;stroke-width:0.3985;stroke-linecap:butt;stroke-linejoin:miter;stroke:rgb(0%,0%,0%);stroke-opacity:1;stroke-miterlimit:10;" d="M 0.00025 -0.00090625 L 8.758062 26.960031 L -22.933344 16.663156 " transform="matrix(1,0,0,-1,26.156,29.753)"/>
<path style=" stroke:none;fill-rule:nonzero;fill:rgb(0%,0%,0%);fill-opacity:1;" d="M 36.910156 2.792969 C 36.910156 1.691406 36.015625 0.800781 34.914063 0.800781 C 33.816406 0.800781 32.921875 1.691406 32.921875 2.792969 C 32.921875 3.894531 33.816406 4.785156 34.914063 4.785156 C 36.015625 4.785156 36.910156 3.894531 36.910156 2.792969 Z M 36.910156 2.792969 "/>
<path style="fill:none;stroke-width:0.3985;stroke-linecap:butt;stroke-linejoin:miter;stroke:rgb(0%,0%,0%);stroke-opacity:1;stroke-miterlimit:10;" d="M 0.00025 -0.00090625 L -22.933344 16.663156 L -22.933344 -16.661062 " transform="matrix(1,0,0,-1,26.156,29.753)"/>
<path style=" stroke:none;fill-rule:nonzero;fill:rgb(0%,0%,0%);fill-opacity:1;" d="M 5.214844 13.089844 C 5.214844 11.992188 4.324219 11.097656 3.222656 11.097656 C 2.121094 11.097656 1.230469 11.992188 1.230469 13.089844 C 1.230469 14.191406 2.121094 15.082031 3.222656 15.082031 C 4.324219 15.082031 5.214844 14.191406 5.214844 13.089844 Z M 5.214844 13.089844 "/>
<path style="fill:none;stroke-width:0.3985;stroke-linecap:butt;stroke-linejoin:miter;stroke:rgb(0%,0%,0%);stroke-opacity:1;stroke-miterlimit:10;" d="M 0.00025 -0.00090625 L -22.933344 -16.661062 L 8.758062 -26.957937 " transform="matrix(1,0,0,-1,26.156,29.753)"/>
<path style=" stroke:none;fill-rule:nonzero;fill:rgb(0%,0%,0%);fill-opacity:1;" d="M 5.214844 46.414063 C 5.214844 45.3125 4.324219 44.421875 3.222656 44.421875 C 2.121094 44.421875 1.230469 45.3125 1.230469 46.414063 C 1.230469 47.515625 2.121094 48.40625 3.222656 48.40625 C 4.324219 48.40625 5.214844 47.515625 5.214844 46.414063 Z M 5.214844 46.414063 "/>
<path style="fill:none;stroke-width:0.3985;stroke-linecap:butt;stroke-linejoin:miter;stroke:rgb(0%,0%,0%);stroke-opacity:1;stroke-miterlimit:10;" d="M 0.00025 -0.00090625 L 8.758062 -26.957937 L 28.347906 -0.00090625 " transform="matrix(1,0,0,-1,26.156,29.753)"/>
<path style=" stroke:none;fill-rule:nonzero;fill:rgb(0%,0%,0%);fill-opacity:1;" d="M 36.910156 56.710938 C 36.910156 55.613281 36.015625 54.71875 34.914063 54.71875 C 33.816406 54.71875 32.921875 55.613281 32.921875 56.710938 C 32.921875 57.8125 33.816406 58.707031 34.914063 58.707031 C 36.015625 58.707031 36.910156 57.8125 36.910156 56.710938 Z M 36.910156 56.710938 "/>
</g>
</svg>
