<?xml version="1.0" encoding="UTF-8"?>
<svg xmlns="http://www.w3.org/2000/svg" xmlns:xlink="http://www.w3.org/1999/xlink" width="114pt" height="109pt" viewBox="0 0 114 109" version="1.1">
<g id="surface1">
<path style="fill:none;stroke-width:0.3985;stroke-linecap:butt;stroke-linejoin:miter;stroke:rgb(0%,0%,0%);stroke-opacity:1;stroke-miterlimit:10;" d="M 26.960563 8.760437 L -0.000375 28.346375 L -26.961312 8.760437 L -16.660531 -22.934875 L 16.663688 -22.934875 Z M 26.960563 8.760437 " transform="matrix(1,0,0,-1,57.141,59.487)"/>
<path style="fill:none;stroke-width:0.3985;stroke-linecap:butt;stroke-linejoin:miter;stroke:rgb(0%,0%,0%);stroke-opacity:1;stroke-miterlimit:10;" d="M 26.960563 8.760437 L -26.961312 8.760437 L 16.663688 -22.934875 L -0.000375 28.346375 L -16.660531 -22.934875 Z M 26.960563 8.760437 " transform="matrix(1,0,0,-1,57.141,59.487)"/>
<path style="fill:none;stroke-width:0.3985;stroke-linecap:butt;stroke-linejoin:miter;stroke:rgb(0%,0%,0%);stroke-opacity:1;stroke-miterlimit:10;" d="M 26.960563 8.760437 L 53.917594 17.51825 " transform="matrix(1,0,0,-1,57.141,59.487)"/>
<path style=" stroke:none;fill-rule:nonzero;fill:rgb(0%,0%,0%);fill-opacity:1;" d="M 86.09375 50.726563 C 86.09375 49.625 85.199219 48.734375 84.101563 48.734375 C 83 48.734375 82.109375 49.625 82.109375 50.726563 C 82.109375 51.828125 83 52.71875 84.101563 52.71875 C 85.199219 52.71875 86.09375 51.828125 86.09375 50.726563 Z M 86.09375 50.726563 "/>
<path style=" stroke:none;fill-rule:nonzero;fill:rgb(0%,0%,0%);fill-opacity:1;" d="M 113.054688 41.96875 C 113.054688 40.867188 112.160156 39.976563 111.058594 39.976563 C 109.960938 39.976563 109.066406 40.867188 109.066406 41.96875 C 109.066406 43.066406 109.960938 43.960938 111.058594 43.960938 C 112.160156 43.960938 113.054688 43.066406 113.054688 41.96875 Z M 113.054688 41.96875 "/>
<path style="fill:none;stroke-width:0.3985;stroke-linecap:butt;stroke-linejoin:miter;stroke:rgb(0%,0%,0%);stroke-opacity:1;stroke-miterlimit:10;" d="M -0.000375 28.346375 L -0.000375 56.694031 " transform="matrix(1,0,0,-1,57.141,59.487)"/>
<path style=" stroke:none;fill-rule:nonzero;fill:rgb(0%,0%,0%);fill-opacity:1;" d="M 59.132813 31.140625 C 59.132813 30.039063 58.242188 29.148438 57.140625 29.148438 C 56.039063 29.148438 55.148438 30.039063 55.148438 31.140625 C 55.148438 32.242188 56.039063 33.132813 57.140625 33.132813 C 58.242188 33.132813 59.132813 32.242188 59.132813 31.140625 Z M 59.132813 31.140625 "/>
<path style=" stroke:none;fill-rule:nonzero;fill:rgb(0%,0%,0%);fill-opacity:1;" d="M 59.132813 2.792969 C 59.132813 1.691406 58.242188 0.800781 57.140625 0.800781 C 56.039063 0.800781 55.148438 1.691406 55.148438 2.792969 C 55.148438 3.894531 56.039063 4.785156 57.140625 4.785156 C 58.242188 4.785156 59.132813 3.894531 59.132813 2.792969 Z M 59.132813 2.792969 "/>
<path style="fill:none;stroke-width:0.3985;stroke-linecap:butt;stroke-linejoin:miter;stroke:rgb(0%,0%,0%);stroke-opacity:1;stroke-miterlimit:10;" d="M -26.961312 8.760437 L -53.918344 17.51825 " transform="matrix(1,0,0,-1,57.141,59.487)"/>
<path style=" stroke:none;fill-rule:nonzero;fill:rgb(0%,0%,0%);fill-opacity:1;" d="M 32.175781 50.726563 C 32.175781 49.625 31.28125 48.734375 30.179688 48.734375 C 29.082031 48.734375 28.1875 49.625 28.1875 50.726563 C 28.1875 51.828125 29.082031 52.71875 30.179688 52.71875 C 31.28125 52.71875 32.175781 51.828125 32.175781 50.726563 Z M 32.175781 50.726563 "/>
<path style=" stroke:none;fill-rule:nonzero;fill:rgb(0%,0%,0%);fill-opacity:1;" d="M 5.214844 41.96875 C 5.214844 40.867188 4.320313 39.976563 3.222656 39.976563 C 2.121094 39.976563 1.230469 40.867188 1.230469 41.96875 C 1.230469 43.066406 2.121094 43.960938 3.222656 43.960938 C 4.320313 43.960938 5.214844 43.066406 5.214844 41.96875 Z M 5.214844 41.96875 "/>
<path style="fill:none;stroke-width:0.3985;stroke-linecap:butt;stroke-linejoin:miter;stroke:rgb(0%,0%,0%);stroke-opacity:1;stroke-miterlimit:10;" d="M -16.660531 -22.934875 L -33.324594 -45.864563 " transform="matrix(1,0,0,-1,57.141,59.487)"/>
<path style=" stroke:none;fill-rule:nonzero;fill:rgb(0%,0%,0%);fill-opacity:1;" d="M 42.472656 82.421875 C 42.472656 81.320313 41.578125 80.425781 40.480469 80.425781 C 39.378906 80.425781 38.488281 81.320313 38.488281 82.421875 C 38.488281 83.519531 39.378906 84.414063 40.480469 84.414063 C 41.578125 84.414063 42.472656 83.519531 42.472656 82.421875 Z M 42.472656 82.421875 "/>
<path style=" stroke:none;fill-rule:nonzero;fill:rgb(0%,0%,0%);fill-opacity:1;" d="M 25.808594 105.351563 C 25.808594 104.253906 24.917969 103.359375 23.816406 103.359375 C 22.71875 103.359375 21.824219 104.253906 21.824219 105.351563 C 21.824219 106.453125 22.71875 107.347656 23.816406 107.347656 C 24.917969 107.347656 25.808594 106.453125 25.808594 105.351563 Z M 25.808594 105.351563 "/>
<path style="fill:none;stroke-width:0.3985;stroke-linecap:butt;stroke-linejoin:miter;stroke:rgb(0%,0%,0%);stroke-opacity:1;stroke-miterlimit:10;" d="M 16.663688 -22.934875 L 33.323844 -45.864563 " transform="matrix(1,0,0,-1,57.141,59.487)"/>
<path style=" stroke:none;fill-rule:nonzero;fill:rgb(0%,0%,0%);fill-opacity:1;" d="M 75.796875 82.421875 C 75.796875 81.320313 74.902344 80.425781 73.804688 80.425781 C 72.703125 80.425781 71.808594 81.320313 71.808594 82.421875 C 71.808594 83.519531 72.703125 84.414063 73.804688 84.414063 C 74.902344 84.414063 75.796875 83.519531 75.796875 82.421875 Z M 75.796875 82.421875 "/>
<path style=" stroke:none;fill-rule:nonzero;fill:rgb(0%,0%,0%);fill-opacity:1;" d="M 92.457031 105.351563 C 92.457031 104.253906 91.566406 103.359375 90.464844 103.359375 C 89.363281 103.359375 88.472656 104.253906 88.472656 105.351563 C 88.472656 106.453125 89.363281 107.347656 90.464844 107.347656 C 91.566406 107.347656 92.457031 106.453125 92.457031 105.351563 Z M 92.457031 105.351563 "/>
</g>
</svg>
