<?xml version="1.0" encoding="UTF-8"?>
<svg xmlns="http://www.w3.org/2000/svg" xmlns:xlink="http://www.w3.org/1999/xlink" width="108pt" height="57pt" viewBox="0 0 108 57" version="1.1">
<g id="surface1">
<path style="fill:none;stroke-width:0.3985;stroke-linecap:butt;stroke-linejoin:miter;stroke:rgb(0%,0%,0%);stroke-opacity:1;stroke-miterlimit:10;" d="M -25.511625 0.00059375 L 25.511813 0.00059375 M 25.511813 51.024031 L -25.511625 51.024031 M -25.511625 51.024031 L 0.00009375 25.512312 " transform="matrix(1,0,0,-1,54.246,53.817)"/>
<path style=" stroke:none;fill-rule:nonzero;fill:rgb(0%,0%,0%);fill-opacity:1;" d="M 30.726563 53.816406 C 30.726563 52.714844 29.835938 51.824219 28.734375 51.824219 C 27.632813 51.824219 26.742188 52.714844 26.742188 53.816406 C 26.742188 54.917969 27.632813 55.808594 28.734375 55.808594 C 29.835938 55.808594 30.726563 54.917969 30.726563 53.816406 Z M 30.726563 53.816406 "/>
<path style=" stroke:none;fill-rule:nonzero;fill:rgb(0%,0%,0%);fill-opacity:1;" d="M 81.75 53.816406 C 81.75 52.714844 80.859375 51.824219 79.757813 51.824219 C 78.65625 51.824219 77.765625 52.714844 77.765625 53.816406 C 77.765625 54.917969 78.65625 55.808594 79.757813 55.808594 C 80.859375 55.808594 81.75 54.917969 81.75 53.816406 Z M 81.75 53.816406 "/>
<path style=" stroke:none;fill-rule:nonzero;fill:rgb(0%,0%,0%);fill-opacity:1;" d="M 81.75 2.792969 C 81.75 1.691406 80.859375 0.800781 79.757813 0.800781 C 78.65625 0.800781 77.765625 1.691406 77.765625 2.792969 C 77.765625 3.894531 78.65625 4.785156 79.757813 4.785156 C 80.859375 4.785156 81.75 3.894531 81.75 2.792969 Z M 81.75 2.792969 "/>
<path style=" stroke:none;fill-rule:nonzero;fill:rgb(0%,0%,0%);fill-opacity:1;" d="M 30.726563 2.792969 C 30.726563 1.691406 29.835938 0.800781 28.734375 0.800781 C 27.632813 0.800781 26.742188 1.691406 26.742188 2.792969 C 26.742188 3.894531 27.632813 4.785156 28.734375 4.785156 C 29.835938 4.785156 30.726563 3.894531 30.726563 2.792969 Z M 30.726563 2.792969 "/>
<path style=" stroke:none;fill-rule:nonzero;fill:rgb(0%,0%,0%);fill-opacity:1;" d="M 56.238281 28.304688 C 56.238281 27.203125 55.347656 26.3125 54.246094 26.3125 C 53.144531 26.3125 52.253906 27.203125 52.253906 28.304688 C 52.253906 29.40625 53.144531 30.296875 54.246094 30.296875 C 55.347656 30.296875 56.238281 29.40625 56.238281 28.304688 Z M 56.238281 28.304688 "/>
<path style="fill:none;stroke-width:0.3985;stroke-linecap:butt;stroke-linejoin:miter;stroke:rgb(0%,0%,0%);stroke-opacity:1;stroke-miterlimit:10;" d="M -51.023344 25.512312 L -25.511625 51.024031 M 25.511813 51.024031 L 51.023531 25.512312 L 25.511813 0.00059375 " transform="matrix(1,0,0,-1,54.246,53.817)"/>
<path style=" stroke:none;fill-rule:nonzero;fill:rgb(0%,0%,0%);fill-opacity:1;" d="M 5.214844 28.304688 C 5.214844 27.203125 4.324219 26.3125 3.222656 26.3125 C 2.121094 26.3125 1.230469 27.203125 1.230469 28.304688 C 1.230469 29.40625 2.121094 30.296875 3.222656 30.296875 C 4.324219 30.296875 5.214844 29.40625 5.214844 28.304688 Z M 5.214844 28.304688 "/>
<path style=" stroke:none;fill-rule:nonzero;fill:rgb(0%,0%,0%);fill-opacity:1;" d="M 107.261719 28.304688 C 107.261719 27.203125 106.371094 26.3125 105.269531 26.3125 C 104.167969 26.3125 103.277344 27.203125 103.277344 28.304688 C 103.277344 29.40625 104.167969 30.296875 105.269531 30.296875 C 106.371094 30.296875 107.261719 29.40625 107.261719 28.304688 Z M 107.261719 28.304688 "/>
</g>
</svg>
