<?xml version="1.0" encoding="UTF-8"?>
<svg xmlns="http://www.w3.org/2000/svg" xmlns:xlink="http://www.w3.org/1999/xlink" width="148pt" height="63pt" viewBox="0 0 148 63" version="1.1">
<g id="surface1">
<path style=" stroke:none;fill-rule:nonzero;fill:rgb(0%,0%,0%);fill-opacity:1;" d="M 5.214844 59.488281 C 5.214844 58.386719 4.324219 57.496094 3.222656 57.496094 C 2.121094 57.496094 1.230469 58.386719 1.230469 59.488281 C 1.230469 60.585938 2.121094 61.480469 3.222656 61.480469 C 4.324219 61.480469 5.214844 60.585938 5.214844 59.488281 Z M 5.214844 59.488281 "/>
<path style=" stroke:none;fill-rule:nonzero;fill:rgb(0%,0%,0%);fill-opacity:1;" d="M 5.214844 2.792969 C 5.214844 1.691406 4.324219 0.800781 3.222656 0.800781 C 2.121094 0.800781 1.230469 1.691406 1.230469 2.792969 C 1.230469 3.894531 2.121094 4.785156 3.222656 4.785156 C 4.324219 4.785156 5.214844 3.894531 5.214844 2.792969 Z M 5.214844 2.792969 "/>
<path style=" stroke:none;fill-rule:nonzero;fill:rgb(0%,0%,0%);fill-opacity:1;" d="M 33.5625 59.488281 C 33.5625 58.386719 32.671875 57.496094 31.570313 57.496094 C 30.46875 57.496094 29.578125 58.386719 29.578125 59.488281 C 29.578125 60.585938 30.46875 61.480469 31.570313 61.480469 C 32.671875 61.480469 33.5625 60.585938 33.5625 59.488281 Z M 33.5625 59.488281 "/>
<path style=" stroke:none;fill-rule:nonzero;fill:rgb(0%,0%,0%);fill-opacity:1;" d="M 33.5625 2.792969 C 33.5625 1.691406 32.671875 0.800781 31.570313 0.800781 C 30.46875 0.800781 29.578125 1.691406 29.578125 2.792969 C 29.578125 3.894531 30.46875 4.785156 31.570313 4.785156 C 32.671875 4.785156 33.5625 3.894531 33.5625 2.792969 Z M 33.5625 2.792969 "/>
<path style=" stroke:none;fill-rule:nonzero;fill:rgb(0%,0%,0%);fill-opacity:1;" d="M 61.910156 59.488281 C 61.910156 58.386719 61.015625 57.496094 59.917969 57.496094 C 58.816406 57.496094 57.925781 58.386719 57.925781 59.488281 C 57.925781 60.585938 58.816406 61.480469 59.917969 61.480469 C 61.015625 61.480469 61.910156 60.585938 61.910156 59.488281 Z M 61.910156 59.488281 "/>
<path style=" stroke:none;fill-rule:nonzero;fill:rgb(0%,0%,0%);fill-opacity:1;" d="M 61.910156 2.792969 C 61.910156 1.691406 61.015625 0.800781 59.917969 0.800781 C 58.816406 0.800781 57.925781 1.691406 57.925781 2.792969 C 57.925781 3.894531 58.816406 4.785156 59.917969 4.785156 C 61.015625 4.785156 61.910156 3.894531 61.910156 2.792969 Z M 61.910156 2.792969 "/>
<path style=" stroke:none;fill-rule:nonzero;fill:rgb(0%,0%,0%);fill-opacity:1;" d="M 90.257813 59.488281 C 90.257813 58.386719 89.363281 57.496094 88.261719 57.496094 C 87.164063 57.496094 86.269531 58.386719 86.269531 59.488281 C 86.269531 60.585938 87.164063 61.480469 88.261719 61.480469 C 89.363281 61.480469 90.257813 60.585938 90.257813 59.488281 Z M 90.257813 59.488281 "/>
<path style=" stroke:none;fill-rule:nonzero;fill:rgb(0%,0%,0%);fill-opacity:1;" d="M 90.257813 2.792969 C 90.257813 1.691406 89.363281 0.800781 88.261719 0.800781 C 87.164063 0.800781 86.269531 1.691406 86.269531 2.792969 C 86.269531 3.894531 87.164063 4.785156 88.261719 4.785156 C 89.363281 4.785156 90.257813 3.894531 90.257813 2.792969 Z M 90.257813 2.792969 "/>
<path style=" stroke:none;fill-rule:nonzero;fill:rgb(0%,0%,0%);fill-opacity:1;" d="M 118.601563 59.488281 C 118.601563 58.386719 117.710938 57.496094 116.609375 57.496094 C 115.507813 57.496094 114.617188 58.386719 114.617188 59.488281 C 114.617188 60.585938 115.507813 61.480469 116.609375 61.480469 C 117.710938 61.480469 118.601563 60.585938 118.601563 59.488281 Z M 118.601563 59.488281 "/>
<path style=" stroke:none;fill-rule:nonzero;fill:rgb(0%,0%,0%);fill-opacity:1;" d="M 118.601563 2.792969 C 118.601563 1.691406 117.710938 0.800781 116.609375 0.800781 C 115.507813 0.800781 114.617188 1.691406 114.617188 2.792969 C 114.617188 3.894531 115.507813 4.785156 116.609375 4.785156 C 117.710938 4.785156 118.601563 3.894531 118.601563 2.792969 Z M 118.601563 2.792969 "/>
<path style=" stroke:none;fill-rule:nonzero;fill:rgb(0%,0%,0%);fill-opacity:1;" d="M 146.949219 59.488281 C 146.949219 58.386719 146.058594 57.496094 144.957031 57.496094 C 143.855469 57.496094 142.964844 58.386719 142.964844 59.488281 C 142.964844 60.585938 143.855469 61.480469 144.957031 61.480469 C 146.058594 61.480469 146.949219 60.585938 146.949219 59.488281 Z M 146.949219 59.488281 "/>
<path style=" stroke:none;fill-rule:nonzero;fill:rgb(0%,0%,0%);fill-opacity:1;" d="M 146.949219 2.792969 C 146.949219 1.691406 146.058594 0.800781 144.957031 0.800781 C 143.855469 0.800781 142.964844 1.691406 142.964844 2.792969 C 142.964844 3.894531 143.855469 4.785156 144.957031 4.785156 C 146.058594 4.785156 146.949219 3.894531 146.949219 2.792969 Z M 146.949219 2.792969 "/>
<path style="fill:none;stroke-width:0.3985;stroke-linecap:butt;stroke-linejoin:miter;stroke:rgb(0%,0%,0%);stroke-opacity:1;stroke-miterlimit:10;" d="M -0.00034375 -0.00128125 L -0.00034375 56.694031 M -0.00034375 -0.00128125 L 28.347313 56.694031 M -0.00034375 -0.00128125 L 141.734031 56.694031 " transform="matrix(1,0,0,-1,3.223,59.487)"/>
<path style="fill:none;stroke-width:0.3985;stroke-linecap:butt;stroke-linejoin:miter;stroke:rgb(0%,0%,0%);stroke-opacity:1;stroke-miterlimit:10;" d="M 28.347313 -0.00128125 L -0.00034375 56.694031 M 28.347313 -0.00128125 L 85.038719 56.694031 " transform="matrix(1,0,0,-1,3.223,59.487)"/>
<path style="fill:none;stroke-width:0.3985;stroke-linecap:butt;stroke-linejoin:miter;stroke:rgb(0%,0%,0%);stroke-opacity:1;stroke-miterlimit:10;" d="M 56.694969 -0.00128125 L 28.347313 56.694031 M 56.694969 -0.00128125 L 56.694969 56.694031 M 56.694969 -0.00128125 L 85.038719 56.694031 " transform="matrix(1,0,0,-1,3.223,59.487)"/>
<path style="fill:none;stroke-width:0.3985;stroke-linecap:butt;stroke-linejoin:miter;stroke:rgb(0%,0%,0%);stroke-opacity:1;stroke-miterlimit:10;" d="M 85.038719 -0.00128125 L -0.00034375 56.694031 M 85.038719 -0.00128125 L 141.734031 56.694031 " transform="matrix(1,0,0,-1,3.223,59.487)"/>
<path style="fill:none;stroke-width:0.3985;stroke-linecap:butt;stroke-linejoin:miter;stroke:rgb(0%,0%,0%);stroke-opacity:1;stroke-miterlimit:10;" d="M 113.386375 -0.00128125 L 56.694969 56.694031 M 113.386375 -0.00128125 L 85.038719 56.694031 M 113.386375 -0.00128125 L 113.386375 56.694031 M 113.386375 -0.00128125 L 141.734031 56.694031 " transform="matrix(1,0,0,-1,3.223,59.487)"/>
<path style="fill:none;stroke-width:0.3985;stroke-linecap:butt;stroke-linejoin:miter;stroke:rgb(0%,0%,0%);stroke-opacity:1;stroke-miterlimit:10;" d="M 141.734031 -0.00128125 L 113.386375 56.694031 " transform="matrix(1,0,0,-1,3.223,59.487)"/>
</g>
</svg>
