<?xml version="1.0" encoding="UTF-8"?>
<svg xmlns="http://www.w3.org/2000/svg" xmlns:xlink="http://www.w3.org/1999/xlink" width="63pt" height="34pt" viewBox="0 0 63 34" version="1.1">
<g id="surface1">
<path style="fill:none;stroke-width:0.3985;stroke-linecap:butt;stroke-linejoin:miter;stroke:rgb(0%,0%,0%);stroke-opacity:1;stroke-miterlimit:10;" d="M 0.0013125 0.000375 L -28.346344 28.348031 M 0.0013125 0.000375 L 0.0013125 28.348031 M 0.0013125 0.000375 L 28.345063 28.348031 " transform="matrix(1,0,0,-1,31.569,31.141)"/>
<path style=" stroke:none;fill-rule:nonzero;fill:rgb(0%,0%,0%);fill-opacity:1;" d="M 33.5625 31.140625 C 33.5625 30.039063 32.667969 29.148438 31.570313 29.148438 C 30.46875 29.148438 29.578125 30.039063 29.578125 31.140625 C 29.578125 32.242188 30.46875 33.132813 31.570313 33.132813 C 32.667969 33.132813 33.5625 32.242188 33.5625 31.140625 Z M 33.5625 31.140625 "/>
<path style=" stroke:none;fill-rule:nonzero;fill:rgb(0%,0%,0%);fill-opacity:1;" d="M 5.214844 2.792969 C 5.214844 1.695313 4.324219 0.800781 3.222656 0.800781 C 2.121094 0.800781 1.230469 1.695313 1.230469 2.792969 C 1.230469 3.894531 2.121094 4.785156 3.222656 4.785156 C 4.324219 4.785156 5.214844 3.894531 5.214844 2.792969 Z M 5.214844 2.792969 "/>
<path style=" stroke:none;fill-rule:nonzero;fill:rgb(0%,0%,0%);fill-opacity:1;" d="M 33.5625 2.792969 C 33.5625 1.695313 32.667969 0.800781 31.570313 0.800781 C 30.46875 0.800781 29.578125 1.695313 29.578125 2.792969 C 29.578125 3.894531 30.46875 4.785156 31.570313 4.785156 C 32.667969 4.785156 33.5625 3.894531 33.5625 2.792969 Z M 33.5625 2.792969 "/>
<path style=" stroke:none;fill-rule:nonzero;fill:rgb(0%,0%,0%);fill-opacity:1;" d="M 61.910156 2.792969 C 61.910156 1.695313 61.015625 0.800781 59.914063 0.800781 C 58.816406 0.800781 57.921875 1.695313 57.921875 2.792969 C 57.921875 3.894531 58.816406 4.785156 59.914063 4.785156 C 61.015625 4.785156 61.910156 3.894531 61.910156 2.792969 Z M 61.910156 2.792969 "/>
</g>
</svg>
