<?xml version="1.0" encoding="UTF-8"?>
<svg xmlns="http://www.w3.org/2000/svg" xmlns:xlink="http://www.w3.org/1999/xlink" width="63pt" height="51pt" viewBox="0 0 63 51" version="1.1">
<g id="surface1">
<path style="fill:none;stroke-width:0.3985;stroke-linecap:butt;stroke-linejoin:miter;stroke:rgb(0%,0%,0%);stroke-opacity:1;stroke-miterlimit:10;" d="M -28.346344 -0.00134375 L 28.345063 -0.00134375 L 14.173188 22.678344 L 0.0013125 -0.00134375 L -14.174469 22.678344 L 0.0013125 45.354125 L 14.173188 22.678344 L -14.174469 22.678344 L -28.346344 -0.00134375 " transform="matrix(1,0,0,-1,31.569,48.151)"/>
<path style=" stroke:none;fill-rule:nonzero;fill:rgb(0%,0%,0%);fill-opacity:1;" d="M 5.214844 48.152344 C 5.214844 47.050781 4.324219 46.160156 3.222656 46.160156 C 2.121094 46.160156 1.230469 47.050781 1.230469 48.152344 C 1.230469 49.25 2.121094 50.144531 3.222656 50.144531 C 4.324219 50.144531 5.214844 49.25 5.214844 48.152344 Z M 5.214844 48.152344 "/>
<path style=" stroke:none;fill-rule:nonzero;fill:rgb(0%,0%,0%);fill-opacity:1;" d="M 33.5625 48.152344 C 33.5625 47.050781 32.667969 46.160156 31.570313 46.160156 C 30.46875 46.160156 29.578125 47.050781 29.578125 48.152344 C 29.578125 49.25 30.46875 50.144531 31.570313 50.144531 C 32.667969 50.144531 33.5625 49.25 33.5625 48.152344 Z M 33.5625 48.152344 "/>
<path style=" stroke:none;fill-rule:nonzero;fill:rgb(0%,0%,0%);fill-opacity:1;" d="M 61.910156 48.152344 C 61.910156 47.050781 61.015625 46.160156 59.914063 46.160156 C 58.816406 46.160156 57.921875 47.050781 57.921875 48.152344 C 57.921875 49.25 58.816406 50.144531 59.914063 50.144531 C 61.015625 50.144531 61.910156 49.25 61.910156 48.152344 Z M 61.910156 48.152344 "/>
<path style=" stroke:none;fill-rule:nonzero;fill:rgb(0%,0%,0%);fill-opacity:1;" d="M 47.734375 25.472656 C 47.734375 24.371094 46.84375 23.480469 45.742188 23.480469 C 44.640625 23.480469 43.75 24.371094 43.75 25.472656 C 43.75 26.574219 44.640625 27.464844 45.742188 27.464844 C 46.84375 27.464844 47.734375 26.574219 47.734375 25.472656 Z M 47.734375 25.472656 "/>
<path style=" stroke:none;fill-rule:nonzero;fill:rgb(0%,0%,0%);fill-opacity:1;" d="M 19.386719 25.472656 C 19.386719 24.371094 18.496094 23.480469 17.394531 23.480469 C 16.296875 23.480469 15.402344 24.371094 15.402344 25.472656 C 15.402344 26.574219 16.296875 27.464844 17.394531 27.464844 C 18.496094 27.464844 19.386719 26.574219 19.386719 25.472656 Z M 19.386719 25.472656 "/>
<path style=" stroke:none;fill-rule:nonzero;fill:rgb(0%,0%,0%);fill-opacity:1;" d="M 33.5625 2.796875 C 33.5625 1.695313 32.667969 0.804688 31.570313 0.804688 C 30.46875 0.804688 29.578125 1.695313 29.578125 2.796875 C 29.578125 3.894531 30.46875 4.789063 31.570313 4.789063 C 32.667969 4.789063 33.5625 3.894531 33.5625 2.796875 Z M 33.5625 2.796875 "/>
</g>
</svg>
