<?xml version="1.0" encoding="UTF-8"?>
<svg xmlns="http://www.w3.org/2000/svg" xmlns:xlink="http://www.w3.org/1999/xlink" width="102pt" height="40pt" viewBox="0 0 102 40" version="1.1">
<g id="surface1">
<path style="fill:none;stroke-width:0.3985;stroke-linecap:butt;stroke-linejoin:miter;stroke:rgb(0%,0%,0%);stroke-opacity:1;stroke-miterlimit:10;" d="M -0.0018125 0.000375 L -0.0018125 28.348031 M 28.345844 0.000375 L 28.345844 28.348031 M 56.6935 0.000375 L 56.6935 28.348031 " transform="matrix(1,0,0,-1,8.494,31.141)"/>
<path style=" stroke:none;fill-rule:nonzero;fill:rgb(0%,0%,0%);fill-opacity:1;" d="M 10.488281 31.140625 C 10.488281 30.039063 9.59375 29.148438 8.492188 29.148438 C 7.394531 29.148438 6.5 30.039063 6.5 31.140625 C 6.5 32.242188 7.394531 33.132813 8.492188 33.132813 C 9.59375 33.132813 10.488281 32.242188 10.488281 31.140625 Z M 10.488281 31.140625 "/>
<path style=" stroke:none;fill-rule:nonzero;fill:rgb(0%,0%,0%);fill-opacity:1;" d="M 10.488281 2.792969 C 10.488281 1.695313 9.59375 0.800781 8.492188 0.800781 C 7.394531 0.800781 6.5 1.695313 6.5 2.792969 C 6.5 3.894531 7.394531 4.785156 8.492188 4.785156 C 9.59375 4.785156 10.488281 3.894531 10.488281 2.792969 Z M 10.488281 2.792969 "/>
<path style=" stroke:none;fill-rule:nonzero;fill:rgb(0%,0%,0%);fill-opacity:1;" d="M 38.832031 31.140625 C 38.832031 30.039063 37.941406 29.148438 36.839844 29.148438 C 35.742188 29.148438 34.847656 30.039063 34.847656 31.140625 C 34.847656 32.242188 35.742188 33.132813 36.839844 33.132813 C 37.941406 33.132813 38.832031 32.242188 38.832031 31.140625 Z M 38.832031 31.140625 "/>
<path style=" stroke:none;fill-rule:nonzero;fill:rgb(0%,0%,0%);fill-opacity:1;" d="M 38.832031 2.792969 C 38.832031 1.695313 37.941406 0.800781 36.839844 0.800781 C 35.742188 0.800781 34.847656 1.695313 34.847656 2.792969 C 34.847656 3.894531 35.742188 4.785156 36.839844 4.785156 C 37.941406 4.785156 38.832031 3.894531 38.832031 2.792969 Z M 38.832031 2.792969 "/>
<path style=" stroke:none;fill-rule:nonzero;fill:rgb(0%,0%,0%);fill-opacity:1;" d="M 67.179688 31.140625 C 67.179688 30.039063 66.289063 29.148438 65.1875 29.148438 C 64.085938 29.148438 63.195313 30.039063 63.195313 31.140625 C 63.195313 32.242188 64.085938 33.132813 65.1875 33.132813 C 66.289063 33.132813 67.179688 32.242188 67.179688 31.140625 Z M 67.179688 31.140625 "/>
<path style=" stroke:none;fill-rule:nonzero;fill:rgb(0%,0%,0%);fill-opacity:1;" d="M 67.179688 2.792969 C 67.179688 1.695313 66.289063 0.800781 65.1875 0.800781 C 64.085938 0.800781 63.195313 1.695313 63.195313 2.792969 C 63.195313 3.894531 64.085938 4.785156 65.1875 4.785156 C 66.289063 4.785156 67.179688 3.894531 67.179688 2.792969 Z M 67.179688 2.792969 "/>
<path style=" stroke:none;fill-rule:nonzero;fill:rgb(0%,0%,0%);fill-opacity:1;" d="M 95.527344 31.140625 C 95.527344 30.039063 94.636719 29.148438 93.535156 29.148438 C 92.433594 29.148438 91.542969 30.039063 91.542969 31.140625 C 91.542969 32.242188 92.433594 33.132813 93.535156 33.132813 C 94.636719 33.132813 95.527344 32.242188 95.527344 31.140625 Z M 95.527344 31.140625 "/>
<path style=" stroke:none;fill-rule:nonzero;fill:rgb(0%,0%,0%);fill-opacity:1;" d="M 95.527344 2.792969 C 95.527344 1.695313 94.636719 0.800781 93.535156 0.800781 C 92.433594 0.800781 91.542969 1.695313 91.542969 2.792969 C 91.542969 3.894531 92.433594 4.785156 93.535156 4.785156 C 94.636719 4.785156 95.527344 3.894531 95.527344 2.792969 Z M 95.527344 2.792969 "/>
<path style="fill:none;stroke-width:0.3985;stroke-linecap:butt;stroke-linejoin:miter;stroke:rgb(0%,0%,0%);stroke-opacity:1;stroke-miterlimit:10;" d="M -0.0018125 0.000375 L 56.6935 28.348031 L 28.345844 0.000375 L 85.041156 28.348031 M -0.0018125 28.348031 L 56.6935 0.000375 M -0.0018125 28.348031 L 85.041156 0.000375 L 56.6935 28.348031 " transform="matrix(1,0,0,-1,8.494,31.141)"/>
<path style="fill:none;stroke-width:0.3985;stroke-linecap:butt;stroke-linejoin:miter;stroke:rgb(0%,0%,0%);stroke-opacity:1;stroke-dasharray:2.98883,2.98883;stroke-miterlimit:10;" d="M 6.97475 0.000375 C 6.97475 3.851938 3.84975 6.973031 -0.0018125 6.973031 C -3.853375 6.973031 -6.974469 3.851938 -6.974469 0.000375 C -6.974469 -3.851187 -3.853375 -6.972281 -0.0018125 -6.972281 C 3.84975 -6.972281 6.97475 -3.851187 6.97475 0.000375 Z M 63.666156 0.000375 C 63.666156 3.851938 60.545062 6.973031 56.6935 6.973031 C 52.841937 6.973031 49.720844 3.851938 49.720844 0.000375 C 49.720844 -3.851187 52.841937 -6.972281 56.6935 -6.972281 C 60.545062 -6.972281 63.666156 -3.851187 63.666156 0.000375 Z M 92.013812 0.000375 C 92.013812 3.851938 88.892719 6.973031 85.041156 6.973031 C 81.189594 6.973031 78.064594 3.851938 78.064594 0.000375 C 78.064594 -3.851187 81.189594 -6.972281 85.041156 -6.972281 C 88.892719 -6.972281 92.013812 -3.851187 92.013812 0.000375 Z M 92.013812 0.000375 " transform="matrix(1,0,0,-1,8.494,31.141)"/>
</g>
</svg>
