<?xml version="1.0" encoding="UTF-8"?>
<svg xmlns="http://www.w3.org/2000/svg" xmlns:xlink="http://www.w3.org/1999/xlink" width="35pt" height="34pt" viewBox="0 0 35 34" version="1.1">
<g id="surface1">
<path style="fill:none;stroke-width:0.3985;stroke-linecap:butt;stroke-linejoin:miter;stroke:rgb(0%,0%,0%);stroke-opacity:1;stroke-miterlimit:10;" d="M -14.173344 -14.173625 L 14.174312 14.174031 " transform="matrix(1,0,0,-1,17.396,16.967)"/>
<path style=" stroke:none;fill-rule:nonzero;fill:rgb(0%,0%,0%);fill-opacity:1;" d="M 5.214844 31.140625 C 5.214844 30.039063 4.324219 29.148438 3.222656 29.148438 C 2.121094 29.148438 1.230469 30.039063 1.230469 31.140625 C 1.230469 32.242188 2.121094 33.132813 3.222656 33.132813 C 4.324219 33.132813 5.214844 32.242188 5.214844 31.140625 Z M 5.214844 31.140625 "/>
<path style=" stroke:none;fill-rule:nonzero;fill:rgb(0%,0%,0%);fill-opacity:1;" d="M 33.5625 2.792969 C 33.5625 1.691406 32.667969 0.800781 31.570313 0.800781 C 30.46875 0.800781 29.578125 1.691406 29.578125 2.792969 C 29.578125 3.894531 30.46875 4.785156 31.570313 4.785156 C 32.667969 4.785156 33.5625 3.894531 33.5625 2.792969 Z M 33.5625 2.792969 "/>
</g>
</svg>
