<?xml version="1.0" encoding="UTF-8"?>
<svg xmlns="http://www.w3.org/2000/svg" xmlns:xlink="http://www.w3.org/1999/xlink" width="60pt" height="61pt" viewBox="0 0 60 61" version="1.1">
<g id="surface1">
<path style="fill:none;stroke-width:0.3985;stroke-linecap:butt;stroke-linejoin:miter;stroke:rgb(0%,0%,0%);stroke-opacity:1;stroke-miterlimit:10;" d="M 17.672594 22.163375 L -6.307875 27.636031 L -25.538344 12.300094 L -25.538344 -12.297563 L -6.307875 -27.6335 L 17.672594 -22.160844 L 28.348375 -0.0006875 Z M 17.672594 22.163375 " transform="matrix(1,0,0,-1,28.761,30.429)"/>
<path style=" stroke:none;fill-rule:nonzero;fill:rgb(0%,0%,0%);fill-opacity:1;" d="M 48.425781 8.265625 C 48.425781 7.167969 47.535156 6.273438 46.433594 6.273438 C 45.332031 6.273438 44.441406 7.167969 44.441406 8.265625 C 44.441406 9.367188 45.332031 10.261719 46.433594 10.261719 C 47.535156 10.261719 48.425781 9.367188 48.425781 8.265625 Z M 48.425781 8.265625 "/>
<path style=" stroke:none;fill-rule:nonzero;fill:rgb(0%,0%,0%);fill-opacity:1;" d="M 24.445313 2.792969 C 24.445313 1.691406 23.554688 0.800781 22.453125 0.800781 C 21.355469 0.800781 20.460938 1.691406 20.460938 2.792969 C 20.460938 3.894531 21.355469 4.785156 22.453125 4.785156 C 23.554688 4.785156 24.445313 3.894531 24.445313 2.792969 Z M 24.445313 2.792969 "/>
<path style=" stroke:none;fill-rule:nonzero;fill:rgb(0%,0%,0%);fill-opacity:1;" d="M 5.214844 18.128906 C 5.214844 17.03125 4.324219 16.136719 3.222656 16.136719 C 2.121094 16.136719 1.230469 17.03125 1.230469 18.128906 C 1.230469 19.230469 2.121094 20.125 3.222656 20.125 C 4.324219 20.125 5.214844 19.230469 5.214844 18.128906 Z M 5.214844 18.128906 "/>
<path style=" stroke:none;fill-rule:nonzero;fill:rgb(0%,0%,0%);fill-opacity:1;" d="M 5.214844 42.726563 C 5.214844 41.625 4.324219 40.734375 3.222656 40.734375 C 2.121094 40.734375 1.230469 41.625 1.230469 42.726563 C 1.230469 43.828125 2.121094 44.71875 3.222656 44.71875 C 4.324219 44.71875 5.214844 43.828125 5.214844 42.726563 Z M 5.214844 42.726563 "/>
<path style=" stroke:none;fill-rule:nonzero;fill:rgb(0%,0%,0%);fill-opacity:1;" d="M 24.445313 58.0625 C 24.445313 56.964844 23.554688 56.070313 22.453125 56.070313 C 21.351563 56.070313 20.460938 56.964844 20.460938 58.0625 C 20.460938 59.164063 21.351563 60.054688 22.453125 60.054688 C 23.554688 60.054688 24.445313 59.164063 24.445313 58.0625 Z M 24.445313 58.0625 "/>
<path style=" stroke:none;fill-rule:nonzero;fill:rgb(0%,0%,0%);fill-opacity:1;" d="M 48.425781 52.589844 C 48.425781 51.488281 47.535156 50.597656 46.433594 50.597656 C 45.332031 50.597656 44.441406 51.488281 44.441406 52.589844 C 44.441406 53.691406 45.332031 54.582031 46.433594 54.582031 C 47.535156 54.582031 48.425781 53.691406 48.425781 52.589844 Z M 48.425781 52.589844 "/>
<path style=" stroke:none;fill-rule:nonzero;fill:rgb(0%,0%,0%);fill-opacity:1;" d="M 59.101563 30.429688 C 59.101563 29.328125 58.207031 28.4375 57.109375 28.4375 C 56.007813 28.4375 55.117188 29.328125 55.117188 30.429688 C 55.117188 31.53125 56.007813 32.421875 57.109375 32.421875 C 58.207031 32.421875 59.101563 31.53125 59.101563 30.429688 Z M 59.101563 30.429688 "/>
</g>
</svg>
