<?xml version="1.0" encoding="UTF-8"?>
<svg xmlns="http://www.w3.org/2000/svg" xmlns:xlink="http://www.w3.org/1999/xlink" width="261pt" height="63pt" viewBox="0 0 261 63" version="1.1">
<g id="surface1">
<path style="fill:none;stroke-width:0.3985;stroke-linecap:butt;stroke-linejoin:miter;stroke:rgb(0%,0%,0%);stroke-opacity:1;stroke-miterlimit:10;" d="M -0.00034375 -0.00128125 L -0.00034375 56.694031 " transform="matrix(1,0,0,-1,3.223,59.487)"/>
<path style=" stroke:none;fill-rule:nonzero;fill:rgb(0%,0%,0%);fill-opacity:1;" d="M 5.214844 59.488281 C 5.214844 58.386719 4.324219 57.496094 3.222656 57.496094 C 2.121094 57.496094 1.230469 58.386719 1.230469 59.488281 C 1.230469 60.585938 2.121094 61.480469 3.222656 61.480469 C 4.324219 61.480469 5.214844 60.585938 5.214844 59.488281 Z M 5.214844 59.488281 "/>
<path style=" stroke:none;fill-rule:nonzero;fill:rgb(0%,0%,0%);fill-opacity:1;" d="M 5.214844 2.792969 C 5.214844 1.691406 4.324219 0.800781 3.222656 0.800781 C 2.121094 0.800781 1.230469 1.691406 1.230469 2.792969 C 1.230469 3.894531 2.121094 4.785156 3.222656 4.785156 C 4.324219 4.785156 5.214844 3.894531 5.214844 2.792969 Z M 5.214844 2.792969 "/>
<path style="fill:none;stroke-width:0.3985;stroke-linecap:butt;stroke-linejoin:miter;stroke:rgb(0%,0%,0%);stroke-opacity:1;stroke-miterlimit:10;" d="M 28.347313 -0.00128125 L 28.347313 56.694031 " transform="matrix(1,0,0,-1,3.223,59.487)"/>
<path style=" stroke:none;fill-rule:nonzero;fill:rgb(0%,0%,0%);fill-opacity:1;" d="M 33.5625 59.488281 C 33.5625 58.386719 32.671875 57.496094 31.570313 57.496094 C 30.46875 57.496094 29.578125 58.386719 29.578125 59.488281 C 29.578125 60.585938 30.46875 61.480469 31.570313 61.480469 C 32.671875 61.480469 33.5625 60.585938 33.5625 59.488281 Z M 33.5625 59.488281 "/>
<path style=" stroke:none;fill-rule:nonzero;fill:rgb(0%,0%,0%);fill-opacity:1;" d="M 33.5625 2.792969 C 33.5625 1.691406 32.671875 0.800781 31.570313 0.800781 C 30.46875 0.800781 29.578125 1.691406 29.578125 2.792969 C 29.578125 3.894531 30.46875 4.785156 31.570313 4.785156 C 32.671875 4.785156 33.5625 3.894531 33.5625 2.792969 Z M 33.5625 2.792969 "/>
<path style="fill:none;stroke-width:0.3985;stroke-linecap:butt;stroke-linejoin:miter;stroke:rgb(0%,0%,0%);stroke-opacity:1;stroke-miterlimit:10;" d="M 56.694969 -0.00128125 L 56.694969 56.694031 " transform="matrix(1,0,0,-1,3.223,59.487)"/>
<path style=" stroke:none;fill-rule:nonzero;fill:rgb(0%,0%,0%);fill-opacity:1;" d="M 61.910156 59.488281 C 61.910156 58.386719 61.015625 57.496094 59.917969 57.496094 C 58.816406 57.496094 57.925781 58.386719 57.925781 59.488281 C 57.925781 60.585938 58.816406 61.480469 59.917969 61.480469 C 61.015625 61.480469 61.910156 60.585938 61.910156 59.488281 Z M 61.910156 59.488281 "/>
<path style=" stroke:none;fill-rule:nonzero;fill:rgb(0%,0%,0%);fill-opacity:1;" d="M 61.910156 2.792969 C 61.910156 1.691406 61.015625 0.800781 59.917969 0.800781 C 58.816406 0.800781 57.925781 1.691406 57.925781 2.792969 C 57.925781 3.894531 58.816406 4.785156 59.917969 4.785156 C 61.015625 4.785156 61.910156 3.894531 61.910156 2.792969 Z M 61.910156 2.792969 "/>
<path style="fill:none;stroke-width:0.3985;stroke-linecap:butt;stroke-linejoin:miter;stroke:rgb(0%,0%,0%);stroke-opacity:1;stroke-miterlimit:10;" d="M 85.038719 -0.00128125 L 85.038719 56.694031 " transform="matrix(1,0,0,-1,3.223,59.487)"/>
<path style=" stroke:none;fill-rule:nonzero;fill:rgb(0%,0%,0%);fill-opacity:1;" d="M 90.257813 59.488281 C 90.257813 58.386719 89.363281 57.496094 88.261719 57.496094 C 87.164063 57.496094 86.269531 58.386719 86.269531 59.488281 C 86.269531 60.585938 87.164063 61.480469 88.261719 61.480469 C 89.363281 61.480469 90.257813 60.585938 90.257813 59.488281 Z M 90.257813 59.488281 "/>
<path style=" stroke:none;fill-rule:nonzero;fill:rgb(0%,0%,0%);fill-opacity:1;" d="M 90.257813 2.792969 C 90.257813 1.691406 89.363281 0.800781 88.261719 0.800781 C 87.164063 0.800781 86.269531 1.691406 86.269531 2.792969 C 86.269531 3.894531 87.164063 4.785156 88.261719 4.785156 C 89.363281 4.785156 90.257813 3.894531 90.257813 2.792969 Z M 90.257813 2.792969 "/>
<path style="fill:none;stroke-width:0.3985;stroke-linecap:butt;stroke-linejoin:miter;stroke:rgb(0%,0%,0%);stroke-opacity:1;stroke-miterlimit:10;" d="M 113.386375 -0.00128125 L 113.386375 56.694031 " transform="matrix(1,0,0,-1,3.223,59.487)"/>
<path style=" stroke:none;fill-rule:nonzero;fill:rgb(0%,0%,0%);fill-opacity:1;" d="M 118.601563 59.488281 C 118.601563 58.386719 117.710938 57.496094 116.609375 57.496094 C 115.507813 57.496094 114.617188 58.386719 114.617188 59.488281 C 114.617188 60.585938 115.507813 61.480469 116.609375 61.480469 C 117.710938 61.480469 118.601563 60.585938 118.601563 59.488281 Z M 118.601563 59.488281 "/>
<path style=" stroke:none;fill-rule:nonzero;fill:rgb(0%,0%,0%);fill-opacity:1;" d="M 118.601563 2.792969 C 118.601563 1.691406 117.710938 0.800781 116.609375 0.800781 C 115.507813 0.800781 114.617188 1.691406 114.617188 2.792969 C 114.617188 3.894531 115.507813 4.785156 116.609375 4.785156 C 117.710938 4.785156 118.601563 3.894531 118.601563 2.792969 Z M 118.601563 2.792969 "/>
<path style="fill:none;stroke-width:0.3985;stroke-linecap:butt;stroke-linejoin:miter;stroke:rgb(0%,0%,0%);stroke-opacity:1;stroke-miterlimit:10;" d="M 141.734031 -0.00128125 L 141.734031 56.694031 " transform="matrix(1,0,0,-1,3.223,59.487)"/>
<path style=" stroke:none;fill-rule:nonzero;fill:rgb(0%,0%,0%);fill-opacity:1;" d="M 146.949219 59.488281 C 146.949219 58.386719 146.058594 57.496094 144.957031 57.496094 C 143.855469 57.496094 142.964844 58.386719 142.964844 59.488281 C 142.964844 60.585938 143.855469 61.480469 144.957031 61.480469 C 146.058594 61.480469 146.949219 60.585938 146.949219 59.488281 Z M 146.949219 59.488281 "/>
<path style=" stroke:none;fill-rule:nonzero;fill:rgb(0%,0%,0%);fill-opacity:1;" d="M 146.949219 2.792969 C 146.949219 1.691406 146.058594 0.800781 144.957031 0.800781 C 143.855469 0.800781 142.964844 1.691406 142.964844 2.792969 C 142.964844 3.894531 143.855469 4.785156 144.957031 4.785156 C 146.058594 4.785156 146.949219 3.894531 146.949219 2.792969 Z M 146.949219 2.792969 "/>
<path style="fill:none;stroke-width:0.3985;stroke-linecap:butt;stroke-linejoin:miter;stroke:rgb(0%,0%,0%);stroke-opacity:1;stroke-miterlimit:10;" d="M 170.081687 -0.00128125 L 170.081687 56.694031 " transform="matrix(1,0,0,-1,3.223,59.487)"/>
<path style=" stroke:none;fill-rule:nonzero;fill:rgb(0%,0%,0%);fill-opacity:1;" d="M 175.296875 59.488281 C 175.296875 58.386719 174.40625 57.496094 173.304688 57.496094 C 172.203125 57.496094 171.3125 58.386719 171.3125 59.488281 C 171.3125 60.585938 172.203125 61.480469 173.304688 61.480469 C 174.40625 61.480469 175.296875 60.585938 175.296875 59.488281 Z M 175.296875 59.488281 "/>
<path style=" stroke:none;fill-rule:nonzero;fill:rgb(0%,0%,0%);fill-opacity:1;" d="M 175.296875 2.792969 C 175.296875 1.691406 174.40625 0.800781 173.304688 0.800781 C 172.203125 0.800781 171.3125 1.691406 171.3125 2.792969 C 171.3125 3.894531 172.203125 4.785156 173.304688 4.785156 C 174.40625 4.785156 175.296875 3.894531 175.296875 2.792969 Z M 175.296875 2.792969 "/>
<path style="fill:none;stroke-width:0.3985;stroke-linecap:butt;stroke-linejoin:miter;stroke:rgb(0%,0%,0%);stroke-opacity:1;stroke-miterlimit:10;" d="M 198.429344 -0.00128125 L 198.429344 56.694031 " transform="matrix(1,0,0,-1,3.223,59.487)"/>
<path style=" stroke:none;fill-rule:nonzero;fill:rgb(0%,0%,0%);fill-opacity:1;" d="M 203.644531 59.488281 C 203.644531 58.386719 202.75 57.496094 201.652344 57.496094 C 200.550781 57.496094 199.65625 58.386719 199.65625 59.488281 C 199.65625 60.585938 200.550781 61.480469 201.652344 61.480469 C 202.75 61.480469 203.644531 60.585938 203.644531 59.488281 Z M 203.644531 59.488281 "/>
<path style=" stroke:none;fill-rule:nonzero;fill:rgb(0%,0%,0%);fill-opacity:1;" d="M 203.644531 2.792969 C 203.644531 1.691406 202.75 0.800781 201.652344 0.800781 C 200.550781 0.800781 199.65625 1.691406 199.65625 2.792969 C 199.65625 3.894531 200.550781 4.785156 201.652344 4.785156 C 202.75 4.785156 203.644531 3.894531 203.644531 2.792969 Z M 203.644531 2.792969 "/>
<path style="fill:none;stroke-width:0.3985;stroke-linecap:butt;stroke-linejoin:miter;stroke:rgb(0%,0%,0%);stroke-opacity:1;stroke-miterlimit:10;" d="M 226.773094 -0.00128125 L 226.773094 56.694031 " transform="matrix(1,0,0,-1,3.223,59.487)"/>
<path style=" stroke:none;fill-rule:nonzero;fill:rgb(0%,0%,0%);fill-opacity:1;" d="M 231.988281 59.488281 C 231.988281 58.386719 231.097656 57.496094 229.996094 57.496094 C 228.898438 57.496094 228.003906 58.386719 228.003906 59.488281 C 228.003906 60.585938 228.898438 61.480469 229.996094 61.480469 C 231.097656 61.480469 231.988281 60.585938 231.988281 59.488281 Z M 231.988281 59.488281 "/>
<path style=" stroke:none;fill-rule:nonzero;fill:rgb(0%,0%,0%);fill-opacity:1;" d="M 231.988281 2.792969 C 231.988281 1.691406 231.097656 0.800781 229.996094 0.800781 C 228.898438 0.800781 228.003906 1.691406 228.003906 2.792969 C 228.003906 3.894531 228.898438 4.785156 229.996094 4.785156 C 231.097656 4.785156 231.988281 3.894531 231.988281 2.792969 Z M 231.988281 2.792969 "/>
<path style="fill:none;stroke-width:0.3985;stroke-linecap:butt;stroke-linejoin:miter;stroke:rgb(0%,0%,0%);stroke-opacity:1;stroke-miterlimit:10;" d="M 255.12075 -0.00128125 L 255.12075 56.694031 " transform="matrix(1,0,0,-1,3.223,59.487)"/>
<path style=" stroke:none;fill-rule:nonzero;fill:rgb(0%,0%,0%);fill-opacity:1;" d="M 260.335938 59.488281 C 260.335938 58.386719 259.445313 57.496094 258.34375 57.496094 C 257.242188 57.496094 256.351563 58.386719 256.351563 59.488281 C 256.351563 60.585938 257.242188 61.480469 258.34375 61.480469 C 259.445313 61.480469 260.335938 60.585938 260.335938 59.488281 Z M 260.335938 59.488281 "/>
<path style=" stroke:none;fill-rule:nonzero;fill:rgb(0%,0%,0%);fill-opacity:1;" d="M 260.335938 2.792969 C 260.335938 1.691406 259.445313 0.800781 258.34375 0.800781 C 257.242188 0.800781 256.351563 1.691406 256.351563 2.792969 C 256.351563 3.894531 257.242188 4.785156 258.34375 4.785156 C 259.445313 4.785156 260.335938 3.894531 260.335938 2.792969 Z M 260.335938 2.792969 "/>
<path style="fill:none;stroke-width:0.3985;stroke-linecap:butt;stroke-linejoin:miter;stroke:rgb(0%,0%,0%);stroke-opacity:1;stroke-miterlimit:10;" d="M -0.00034375 -0.00128125 L 28.347313 56.694031 L 56.694969 -0.00128125 L 85.038719 56.694031 L 113.386375 -0.00128125 L 141.734031 56.694031 L 170.081687 -0.00128125 L 198.429344 56.694031 L 226.773094 -0.00128125 L 255.12075 56.694031 " transform="matrix(1,0,0,-1,3.223,59.487)"/>
<path style="fill:none;stroke-width:0.3985;stroke-linecap:butt;stroke-linejoin:miter;stroke:rgb(0%,0%,0%);stroke-opacity:1;stroke-miterlimit:10;" d="M -0.00034375 56.694031 L 28.347313 -0.00128125 L 56.694969 56.694031 L 85.038719 -0.00128125 L 113.386375 56.694031 L 141.734031 -0.00128125 L 170.081687 56.694031 L 198.429344 -0.00128125 L 226.773094 56.694031 L 255.12075 -0.00128125 " transform="matrix(1,0,0,-1,3.223,59.487)"/>
</g>
</svg>
