<?xml version="1.0" encoding="UTF-8"?>
<svg xmlns="http://www.w3.org/2000/svg" xmlns:xlink="http://www.w3.org/1999/xlink" width="69pt" height="57pt" viewBox="0 0 69 57" version="1.1">
<g id="surface1">
<path style="fill:none;stroke-width:0.3985;stroke-linecap:butt;stroke-linejoin:miter;stroke:rgb(0%,0%,0%);stroke-opacity:1;stroke-miterlimit:10;" d="M -28.346781 -25.510406 C -39.401469 -16.897125 -39.401469 -8.615875 -28.346781 0.0013125 C -39.401469 8.614594 -39.401469 16.895844 -28.346781 25.513031 C -17.292094 16.895844 -17.292094 8.614594 -28.346781 0.0013125 C -17.292094 -8.615875 -17.292094 -16.897125 -28.346781 -25.510406 " transform="matrix(1,0,0,-1,37.921,28.306)"/>
<path style=" stroke:none;fill-rule:nonzero;fill:rgb(0%,0%,0%);fill-opacity:1;" d="M 11.566406 53.816406 C 11.566406 52.71875 10.675781 51.824219 9.574219 51.824219 C 8.472656 51.824219 7.582031 52.71875 7.582031 53.816406 C 7.582031 54.917969 8.472656 55.808594 9.574219 55.808594 C 10.675781 55.808594 11.566406 54.917969 11.566406 53.816406 Z M 11.566406 53.816406 "/>
<path style=" stroke:none;fill-rule:nonzero;fill:rgb(0%,0%,0%);fill-opacity:1;" d="M 11.566406 28.304688 C 11.566406 27.207031 10.675781 26.3125 9.574219 26.3125 C 8.472656 26.3125 7.582031 27.207031 7.582031 28.304688 C 7.582031 29.40625 8.472656 30.296875 9.574219 30.296875 C 10.675781 30.296875 11.566406 29.40625 11.566406 28.304688 Z M 11.566406 28.304688 "/>
<path style=" stroke:none;fill-rule:nonzero;fill:rgb(0%,0%,0%);fill-opacity:1;" d="M 11.566406 2.792969 C 11.566406 1.695313 10.675781 0.800781 9.574219 0.800781 C 8.472656 0.800781 7.582031 1.695313 7.582031 2.792969 C 7.582031 3.894531 8.472656 4.785156 9.574219 4.785156 C 10.675781 4.785156 11.566406 3.894531 11.566406 2.792969 Z M 11.566406 2.792969 "/>
<path style="fill:none;stroke-width:0.3985;stroke-linecap:butt;stroke-linejoin:miter;stroke:rgb(0%,0%,0%);stroke-opacity:1;stroke-miterlimit:10;" d="M 28.348531 0.0013125 L -28.346781 25.513031 M -28.346781 0.0013125 L 28.348531 0.0013125 L -28.346781 -25.510406 " transform="matrix(1,0,0,-1,37.921,28.306)"/>
<path style=" stroke:none;fill-rule:nonzero;fill:rgb(0%,0%,0%);fill-opacity:1;" d="M 68.261719 28.304688 C 68.261719 27.207031 67.367188 26.3125 66.269531 26.3125 C 65.167969 26.3125 64.273438 27.207031 64.273438 28.304688 C 64.273438 29.40625 65.167969 30.296875 66.269531 30.296875 C 67.367188 30.296875 68.261719 29.40625 68.261719 28.304688 Z M 68.261719 28.304688 "/>
</g>
</svg>
