<?xml version="1.0" encoding="UTF-8"?>
<svg xmlns="http://www.w3.org/2000/svg" xmlns:xlink="http://www.w3.org/1999/xlink" width="60pt" height="60pt" viewBox="0 0 60 60" version="1.1">
<g id="surface1">
<path style="fill-rule:nonzero;fill:rgb(84.999084%,84.999084%,84.999084%);fill-opacity:1;stroke-width:0.3985;stroke-linecap:butt;stroke-linejoin:miter;stroke:rgb(0%,0%,0%);stroke-opacity:1;stroke-miterlimit:10;" d="M -0.00103125 0.000375 L -0.00103125 7.086312 L 7.084906 7.086312 L 7.084906 0.000375 Z M 7.084906 7.086312 L 7.084906 14.17225 L 14.17475 14.17225 L 14.17475 7.086312 Z M 7.084906 7.086312 " transform="matrix(1,0,0,-1,1.919,57.891)"/>
<path style="fill-rule:nonzero;fill:rgb(84.999084%,84.999084%,84.999084%);fill-opacity:1;stroke-width:0.3985;stroke-linecap:butt;stroke-linejoin:miter;stroke:rgb(0%,0%,0%);stroke-opacity:1;stroke-miterlimit:10;" d="M -0.00103125 14.17225 L -0.00103125 21.258187 L 7.084906 21.258187 L 7.084906 14.17225 Z M 7.084906 21.258187 L 7.084906 28.348031 L 14.17475 28.348031 L 14.17475 21.258187 Z M 7.084906 21.258187 " transform="matrix(1,0,0,-1,1.919,57.891)"/>
<path style="fill-rule:nonzero;fill:rgb(84.999084%,84.999084%,84.999084%);fill-opacity:1;stroke-width:0.3985;stroke-linecap:butt;stroke-linejoin:miter;stroke:rgb(0%,0%,0%);stroke-opacity:1;stroke-miterlimit:10;" d="M -0.00103125 28.348031 L -0.00103125 35.433969 L 7.084906 35.433969 L 7.084906 28.348031 Z M 7.084906 35.433969 L 7.084906 42.519906 L 14.17475 42.519906 L 14.17475 35.433969 Z M 7.084906 35.433969 " transform="matrix(1,0,0,-1,1.919,57.891)"/>
<path style="fill-rule:nonzero;fill:rgb(84.999084%,84.999084%,84.999084%);fill-opacity:1;stroke-width:0.3985;stroke-linecap:butt;stroke-linejoin:miter;stroke:rgb(0%,0%,0%);stroke-opacity:1;stroke-miterlimit:10;" d="M -0.00103125 42.519906 L -0.00103125 49.605844 L 7.084906 49.605844 L 7.084906 42.519906 Z M 7.084906 49.605844 L 7.084906 56.691781 L 14.17475 56.691781 L 14.17475 49.605844 Z M 7.084906 49.605844 " transform="matrix(1,0,0,-1,1.919,57.891)"/>
<path style="fill-rule:nonzero;fill:rgb(84.999084%,84.999084%,84.999084%);fill-opacity:1;stroke-width:0.3985;stroke-linecap:butt;stroke-linejoin:miter;stroke:rgb(0%,0%,0%);stroke-opacity:1;stroke-miterlimit:10;" d="M 14.17475 0.000375 L 14.17475 7.086312 L 21.260687 7.086312 L 21.260687 0.000375 Z M 21.260687 7.086312 L 21.260687 14.17225 L 28.346625 14.17225 L 28.346625 7.086312 Z M 21.260687 7.086312 " transform="matrix(1,0,0,-1,1.919,57.891)"/>
<path style="fill-rule:nonzero;fill:rgb(84.999084%,84.999084%,84.999084%);fill-opacity:1;stroke-width:0.3985;stroke-linecap:butt;stroke-linejoin:miter;stroke:rgb(0%,0%,0%);stroke-opacity:1;stroke-miterlimit:10;" d="M 14.17475 14.17225 L 14.17475 21.258187 L 21.260687 21.258187 L 21.260687 14.17225 Z M 21.260687 21.258187 L 21.260687 28.348031 L 28.346625 28.348031 L 28.346625 21.258187 Z M 21.260687 21.258187 " transform="matrix(1,0,0,-1,1.919,57.891)"/>
<path style="fill-rule:nonzero;fill:rgb(84.999084%,84.999084%,84.999084%);fill-opacity:1;stroke-width:0.3985;stroke-linecap:butt;stroke-linejoin:miter;stroke:rgb(0%,0%,0%);stroke-opacity:1;stroke-miterlimit:10;" d="M 14.17475 28.348031 L 14.17475 35.433969 L 21.260687 35.433969 L 21.260687 28.348031 Z M 21.260687 35.433969 L 21.260687 42.519906 L 28.346625 42.519906 L 28.346625 35.433969 Z M 21.260687 35.433969 " transform="matrix(1,0,0,-1,1.919,57.891)"/>
<path style="fill-rule:nonzero;fill:rgb(84.999084%,84.999084%,84.999084%);fill-opacity:1;stroke-width:0.3985;stroke-linecap:butt;stroke-linejoin:miter;stroke:rgb(0%,0%,0%);stroke-opacity:1;stroke-miterlimit:10;" d="M 14.17475 42.519906 L 14.17475 49.605844 L 21.260687 49.605844 L 21.260687 42.519906 Z M 21.260687 49.605844 L 21.260687 56.691781 L 28.346625 56.691781 L 28.346625 49.605844 Z M 21.260687 49.605844 " transform="matrix(1,0,0,-1,1.919,57.891)"/>
<path style="fill-rule:nonzero;fill:rgb(84.999084%,84.999084%,84.999084%);fill-opacity:1;stroke-width:0.3985;stroke-linecap:butt;stroke-linejoin:miter;stroke:rgb(0%,0%,0%);stroke-opacity:1;stroke-miterlimit:10;" d="M 28.346625 0.000375 L 28.346625 7.086312 L 35.432562 7.086312 L 35.432562 0.000375 Z M 35.432562 7.086312 L 35.432562 14.17225 L 42.5185 14.17225 L 42.5185 7.086312 Z M 35.432562 7.086312 " transform="matrix(1,0,0,-1,1.919,57.891)"/>
<path style="fill-rule:nonzero;fill:rgb(84.999084%,84.999084%,84.999084%);fill-opacity:1;stroke-width:0.3985;stroke-linecap:butt;stroke-linejoin:miter;stroke:rgb(0%,0%,0%);stroke-opacity:1;stroke-miterlimit:10;" d="M 28.346625 14.17225 L 28.346625 21.258187 L 35.432562 21.258187 L 35.432562 14.17225 Z M 35.432562 21.258187 L 35.432562 28.348031 L 42.5185 28.348031 L 42.5185 21.258187 Z M 35.432562 21.258187 " transform="matrix(1,0,0,-1,1.919,57.891)"/>
<path style="fill-rule:nonzero;fill:rgb(84.999084%,84.999084%,84.999084%);fill-opacity:1;stroke-width:0.3985;stroke-linecap:butt;stroke-linejoin:miter;stroke:rgb(0%,0%,0%);stroke-opacity:1;stroke-miterlimit:10;" d="M 28.346625 28.348031 L 28.346625 35.433969 L 35.432562 35.433969 L 35.432562 28.348031 Z M 35.432562 35.433969 L 35.432562 42.519906 L 42.5185 42.519906 L 42.5185 35.433969 Z M 35.432562 35.433969 " transform="matrix(1,0,0,-1,1.919,57.891)"/>
<path style="fill-rule:nonzero;fill:rgb(84.999084%,84.999084%,84.999084%);fill-opacity:1;stroke-width:0.3985;stroke-linecap:butt;stroke-linejoin:miter;stroke:rgb(0%,0%,0%);stroke-opacity:1;stroke-miterlimit:10;" d="M 28.346625 42.519906 L 28.346625 49.605844 L 35.432562 49.605844 L 35.432562 42.519906 Z M 35.432562 49.605844 L 35.432562 56.691781 L 42.5185 56.691781 L 42.5185 49.605844 Z M 35.432562 49.605844 " transform="matrix(1,0,0,-1,1.919,57.891)"/>
<path style="fill-rule:nonzero;fill:rgb(84.999084%,84.999084%,84.999084%);fill-opacity:1;stroke-width:0.3985;stroke-linecap:butt;stroke-linejoin:miter;stroke:rgb(0%,0%,0%);stroke-opacity:1;stroke-miterlimit:10;" d="M 42.5185 0.000375 L 42.5185 7.086312 L 49.608344 7.086312 L 49.608344 0.000375 Z M 49.608344 7.086312 L 49.608344 14.17225 L 56.694281 14.17225 L 56.694281 7.086312 Z M 49.608344 7.086312 " transform="matrix(1,0,0,-1,1.919,57.891)"/>
<path style="fill-rule:nonzero;fill:rgb(84.999084%,84.999084%,84.999084%);fill-opacity:1;stroke-width:0.3985;stroke-linecap:butt;stroke-linejoin:miter;stroke:rgb(0%,0%,0%);stroke-opacity:1;stroke-miterlimit:10;" d="M 42.5185 14.17225 L 42.5185 21.258187 L 49.608344 21.258187 L 49.608344 14.17225 Z M 49.608344 21.258187 L 49.608344 28.348031 L 56.694281 28.348031 L 56.694281 21.258187 Z M 49.608344 21.258187 " transform="matrix(1,0,0,-1,1.919,57.891)"/>
<path style="fill-rule:nonzero;fill:rgb(84.999084%,84.999084%,84.999084%);fill-opacity:1;stroke-width:0.3985;stroke-linecap:butt;stroke-linejoin:miter;stroke:rgb(0%,0%,0%);stroke-opacity:1;stroke-miterlimit:10;" d="M 42.5185 28.348031 L 42.5185 35.433969 L 49.608344 35.433969 L 49.608344 28.348031 Z M 49.608344 35.433969 L 49.608344 42.519906 L 56.694281 42.519906 L 56.694281 35.433969 Z M 49.608344 35.433969 " transform="matrix(1,0,0,-1,1.919,57.891)"/>
<path style="fill-rule:nonzero;fill:rgb(84.999084%,84.999084%,84.999084%);fill-opacity:1;stroke-width:0.3985;stroke-linecap:butt;stroke-linejoin:miter;stroke:rgb(0%,0%,0%);stroke-opacity:1;stroke-miterlimit:10;" d="M 42.5185 42.519906 L 42.5185 49.605844 L 49.608344 49.605844 L 49.608344 42.519906 Z M 49.608344 49.605844 L 49.608344 56.691781 L 56.694281 56.691781 L 56.694281 49.605844 Z M 49.608344 49.605844 " transform="matrix(1,0,0,-1,1.919,57.891)"/>
<path style="fill:none;stroke-width:0.3985;stroke-linecap:butt;stroke-linejoin:miter;stroke:rgb(0%,0%,0%);stroke-opacity:1;stroke-miterlimit:10;" d="M -0.00103125 0.000375 L 56.694281 0.000375 M -0.00103125 7.086312 L 56.694281 7.086312 M -0.00103125 14.17225 L 56.694281 14.17225 M -0.00103125 21.258187 L 56.694281 21.258187 M -0.00103125 28.348031 L 56.694281 28.348031 M -0.00103125 35.433969 L 56.694281 35.433969 M -0.00103125 42.519906 L 56.694281 42.519906 M -0.00103125 49.605844 L 56.694281 49.605844 M -0.00103125 56.691781 L 56.694281 56.691781 M -0.00103125 0.000375 L -0.00103125 56.691781 M 7.084906 0.000375 L 7.084906 56.691781 M 14.17475 0.000375 L 14.17475 56.691781 M 21.260687 0.000375 L 21.260687 56.691781 M 28.346625 0.000375 L 28.346625 56.691781 M 35.432562 0.000375 L 35.432562 56.691781 M 42.5185 0.000375 L 42.5185 56.691781 M 49.608344 0.000375 L 49.608344 56.691781 M 56.690375 0.000375 L 56.690375 56.691781 " transform="matrix(1,0,0,-1,1.919,57.891)"/>
<path style="fill-rule:nonzero;fill:rgb(100%,100%,100%);fill-opacity:1;stroke-width:0.3985;stroke-linecap:butt;stroke-linejoin:miter;stroke:rgb(100%,100%,100%);stroke-opacity:1;stroke-miterlimit:10;" d="M 49.608344 49.605844 L 49.608344 56.691781 L 56.694281 56.691781 L 56.694281 49.605844 Z M -0.00103125 0.000375 L -0.00103125 7.086312 L 7.084906 7.086312 L 7.084906 0.000375 Z M -0.00103125 0.000375 " transform="matrix(1,0,0,-1,1.919,57.891)"/>
<path style="fill:none;stroke-width:1.19553;stroke-linecap:butt;stroke-linejoin:miter;stroke:rgb(0%,0%,0%);stroke-opacity:1;stroke-miterlimit:10;" d="M -0.00103125 7.086312 L 7.084906 7.086312 L 7.084906 0.000375 L 56.694281 0.000375 L 56.694281 49.605844 L 49.608344 49.605844 L 49.608344 56.691781 L -0.00103125 56.691781 L -0.00103125 7.086312 " transform="matrix(1,0,0,-1,1.919,57.891)"/>
</g>
</svg>
