<?xml version="1.0" encoding="UTF-8"?>
<svg xmlns="http://www.w3.org/2000/svg" xmlns:xlink="http://www.w3.org/1999/xlink" width="120pt" height="34pt" viewBox="0 0 120 34" version="1.1">
<g id="surface1">
<path style=" stroke:none;fill-rule:nonzero;fill:rgb(0%,0%,0%);fill-opacity:1;" d="M 5.214844 31.140625 C 5.214844 30.039063 4.324219 29.148438 3.222656 29.148438 C 2.121094 29.148438 1.230469 30.039063 1.230469 31.140625 C 1.230469 32.242188 2.121094 33.132813 3.222656 33.132813 C 4.324219 33.132813 5.214844 32.242188 5.214844 31.140625 Z M 5.214844 31.140625 "/>
<path style=" stroke:none;fill-rule:nonzero;fill:rgb(0%,0%,0%);fill-opacity:1;" d="M 5.214844 2.792969 C 5.214844 1.695313 4.324219 0.800781 3.222656 0.800781 C 2.121094 0.800781 1.230469 1.695313 1.230469 2.792969 C 1.230469 3.894531 2.121094 4.785156 3.222656 4.785156 C 4.324219 4.785156 5.214844 3.894531 5.214844 2.792969 Z M 5.214844 2.792969 "/>
<path style=" stroke:none;fill-rule:nonzero;fill:rgb(0%,0%,0%);fill-opacity:1;" d="M 33.5625 31.140625 C 33.5625 30.039063 32.671875 29.148438 31.570313 29.148438 C 30.46875 29.148438 29.578125 30.039063 29.578125 31.140625 C 29.578125 32.242188 30.46875 33.132813 31.570313 33.132813 C 32.671875 33.132813 33.5625 32.242188 33.5625 31.140625 Z M 33.5625 31.140625 "/>
<path style=" stroke:none;fill-rule:nonzero;fill:rgb(0%,0%,0%);fill-opacity:1;" d="M 33.5625 2.792969 C 33.5625 1.695313 32.671875 0.800781 31.570313 0.800781 C 30.46875 0.800781 29.578125 1.695313 29.578125 2.792969 C 29.578125 3.894531 30.46875 4.785156 31.570313 4.785156 C 32.671875 4.785156 33.5625 3.894531 33.5625 2.792969 Z M 33.5625 2.792969 "/>
<path style=" stroke:none;fill-rule:nonzero;fill:rgb(0%,0%,0%);fill-opacity:1;" d="M 61.910156 31.140625 C 61.910156 30.039063 61.015625 29.148438 59.917969 29.148438 C 58.816406 29.148438 57.925781 30.039063 57.925781 31.140625 C 57.925781 32.242188 58.816406 33.132813 59.917969 33.132813 C 61.015625 33.132813 61.910156 32.242188 61.910156 31.140625 Z M 61.910156 31.140625 "/>
<path style=" stroke:none;fill-rule:nonzero;fill:rgb(0%,0%,0%);fill-opacity:1;" d="M 61.910156 2.792969 C 61.910156 1.695313 61.015625 0.800781 59.917969 0.800781 C 58.816406 0.800781 57.925781 1.695313 57.925781 2.792969 C 57.925781 3.894531 58.816406 4.785156 59.917969 4.785156 C 61.015625 4.785156 61.910156 3.894531 61.910156 2.792969 Z M 61.910156 2.792969 "/>
<path style=" stroke:none;fill-rule:nonzero;fill:rgb(0%,0%,0%);fill-opacity:1;" d="M 90.257813 31.140625 C 90.257813 30.039063 89.363281 29.148438 88.261719 29.148438 C 87.164063 29.148438 86.269531 30.039063 86.269531 31.140625 C 86.269531 32.242188 87.164063 33.132813 88.261719 33.132813 C 89.363281 33.132813 90.257813 32.242188 90.257813 31.140625 Z M 90.257813 31.140625 "/>
<path style=" stroke:none;fill-rule:nonzero;fill:rgb(0%,0%,0%);fill-opacity:1;" d="M 90.257813 2.792969 C 90.257813 1.695313 89.363281 0.800781 88.261719 0.800781 C 87.164063 0.800781 86.269531 1.695313 86.269531 2.792969 C 86.269531 3.894531 87.164063 4.785156 88.261719 4.785156 C 89.363281 4.785156 90.257813 3.894531 90.257813 2.792969 Z M 90.257813 2.792969 "/>
<path style=" stroke:none;fill-rule:nonzero;fill:rgb(0%,0%,0%);fill-opacity:1;" d="M 118.601563 31.140625 C 118.601563 30.039063 117.710938 29.148438 116.609375 29.148438 C 115.507813 29.148438 114.617188 30.039063 114.617188 31.140625 C 114.617188 32.242188 115.507813 33.132813 116.609375 33.132813 C 117.710938 33.132813 118.601563 32.242188 118.601563 31.140625 Z M 118.601563 31.140625 "/>
<path style=" stroke:none;fill-rule:nonzero;fill:rgb(0%,0%,0%);fill-opacity:1;" d="M 118.601563 2.792969 C 118.601563 1.695313 117.710938 0.800781 116.609375 0.800781 C 115.507813 0.800781 114.617188 1.695313 114.617188 2.792969 C 114.617188 3.894531 115.507813 4.785156 116.609375 4.785156 C 117.710938 4.785156 118.601563 3.894531 118.601563 2.792969 Z M 118.601563 2.792969 "/>
<path style="fill:none;stroke-width:0.3985;stroke-linecap:butt;stroke-linejoin:miter;stroke:rgb(0%,0%,0%);stroke-opacity:1;stroke-miterlimit:10;" d="M -0.00034375 0.000375 L -0.00034375 28.348031 M -0.00034375 0.000375 L 28.347313 28.348031 M -0.00034375 28.348031 L 28.347313 0.000375 M -0.00034375 28.348031 L 56.694969 0.000375 M 28.347313 0.000375 L 56.694969 28.348031 M 28.347313 28.348031 L 56.694969 0.000375 L 85.038719 28.348031 M 56.694969 0.000375 L 113.386375 28.348031 M 56.694969 28.348031 L 85.038719 0.000375 L 113.386375 28.348031 M 85.038719 28.348031 L 113.386375 0.000375 L 113.386375 28.348031 " transform="matrix(1,0,0,-1,3.223,31.141)"/>
</g>
</svg>
