<?xml version="1.0" encoding="UTF-8"?>
<svg xmlns="http://www.w3.org/2000/svg" xmlns:xlink="http://www.w3.org/1999/xlink" width="91pt" height="63pt" viewBox="0 0 91 63" version="1.1">
<g id="surface1">
<path style="fill:none;stroke-width:0.3985;stroke-linecap:butt;stroke-linejoin:miter;stroke:rgb(0%,0%,0%);stroke-opacity:1;stroke-miterlimit:10;" d="M -28.346344 -0.00128125 L -28.346344 56.694031 L 28.345063 56.694031 L 28.345063 -0.00128125 L -28.346344 56.694031 " transform="matrix(1,0,0,-1,31.569,59.487)"/>
<path style=" stroke:none;fill-rule:nonzero;fill:rgb(0%,0%,0%);fill-opacity:1;" d="M 5.214844 59.488281 C 5.214844 58.386719 4.324219 57.496094 3.222656 57.496094 C 2.121094 57.496094 1.230469 58.386719 1.230469 59.488281 C 1.230469 60.585938 2.121094 61.480469 3.222656 61.480469 C 4.324219 61.480469 5.214844 60.585938 5.214844 59.488281 Z M 5.214844 59.488281 "/>
<path style=" stroke:none;fill-rule:nonzero;fill:rgb(0%,0%,0%);fill-opacity:1;" d="M 5.214844 2.792969 C 5.214844 1.691406 4.324219 0.800781 3.222656 0.800781 C 2.121094 0.800781 1.230469 1.691406 1.230469 2.792969 C 1.230469 3.894531 2.121094 4.785156 3.222656 4.785156 C 4.324219 4.785156 5.214844 3.894531 5.214844 2.792969 Z M 5.214844 2.792969 "/>
<path style=" stroke:none;fill-rule:nonzero;fill:rgb(0%,0%,0%);fill-opacity:1;" d="M 61.910156 2.792969 C 61.910156 1.691406 61.015625 0.800781 59.914063 0.800781 C 58.816406 0.800781 57.921875 1.691406 57.921875 2.792969 C 57.921875 3.894531 58.816406 4.785156 59.914063 4.785156 C 61.015625 4.785156 61.910156 3.894531 61.910156 2.792969 Z M 61.910156 2.792969 "/>
<path style=" stroke:none;fill-rule:nonzero;fill:rgb(0%,0%,0%);fill-opacity:1;" d="M 61.910156 59.488281 C 61.910156 58.386719 61.015625 57.496094 59.914063 57.496094 C 58.816406 57.496094 57.921875 58.386719 57.921875 59.488281 C 57.921875 60.585938 58.816406 61.480469 59.914063 61.480469 C 61.015625 61.480469 61.910156 60.585938 61.910156 59.488281 Z M 61.910156 59.488281 "/>
<path style="fill:none;stroke-width:0.3985;stroke-linecap:butt;stroke-linejoin:miter;stroke:rgb(0%,0%,0%);stroke-opacity:1;stroke-dasharray:2.98883,2.98883;stroke-miterlimit:10;" d="M 28.345063 56.694031 L 56.692719 28.346375 " transform="matrix(1,0,0,-1,31.569,59.487)"/>
<path style=" stroke:none;fill-rule:nonzero;fill:rgb(0%,0%,0%);fill-opacity:1;" d="M 90.253906 31.140625 C 90.253906 30.039063 89.363281 29.148438 88.261719 29.148438 C 87.164063 29.148438 86.269531 30.039063 86.269531 31.140625 C 86.269531 32.242188 87.164063 33.132813 88.261719 33.132813 C 89.363281 33.132813 90.253906 32.242188 90.253906 31.140625 Z M 90.253906 31.140625 "/>
</g>
</svg>
