<?xml version="1.0" encoding="UTF-8"?>
<svg xmlns="http://www.w3.org/2000/svg" xmlns:xlink="http://www.w3.org/1999/xlink" width="80pt" height="69pt" viewBox="0 0 80 69" version="1.1">
<g id="surface1">
<path style="fill:none;stroke-width:1.79329;stroke-linecap:butt;stroke-linejoin:miter;stroke:rgb(0%,0%,0%);stroke-opacity:1;stroke-miterlimit:10;" d="M -0.00171875 -22.677437 L -39.279063 -22.677437 L -19.638438 11.338188 L -0.00171875 -22.677437 L 39.279531 -22.677437 L 19.638906 11.338188 L -19.638438 11.338188 L -0.00171875 45.353813 L 19.638906 11.338188 L -0.00171875 -22.677437 " transform="matrix(1,0,0,-1,39.99,44.346)"/>
<path style=" stroke:none;fill-rule:nonzero;fill:rgb(100%,100%,100%);fill-opacity:1;" d="M 42.382813 67.023438 C 42.382813 65.703125 41.3125 64.632813 39.988281 64.632813 C 38.667969 64.632813 37.597656 65.703125 37.597656 67.023438 C 37.597656 68.34375 38.667969 69.414063 39.988281 69.414063 C 41.3125 69.414063 42.382813 68.34375 42.382813 67.023438 Z M 42.382813 67.023438 "/>
<path style=" stroke:none;fill-rule:nonzero;fill:rgb(100%,100%,100%);fill-opacity:1;" d="M 81.660156 67.023438 C 81.660156 65.703125 80.589844 64.632813 79.269531 64.632813 C 77.949219 64.632813 76.878906 65.703125 76.878906 67.023438 C 76.878906 68.34375 77.949219 69.414063 79.269531 69.414063 C 80.589844 69.414063 81.660156 68.34375 81.660156 67.023438 Z M 81.660156 67.023438 "/>
<path style=" stroke:none;fill-rule:nonzero;fill:rgb(100%,100%,100%);fill-opacity:1;" d="M 3.101563 67.023438 C 3.101563 65.703125 2.03125 64.632813 0.710938 64.632813 C -0.609375 64.632813 -1.679688 65.703125 -1.679688 67.023438 C -1.679688 68.34375 -0.609375 69.414063 0.710938 69.414063 C 2.03125 69.414063 3.101563 68.34375 3.101563 67.023438 Z M 3.101563 67.023438 "/>
<path style=" stroke:none;fill-rule:nonzero;fill:rgb(100%,100%,100%);fill-opacity:1;" d="M 42.382813 -1.007813 C 42.382813 -2.328125 41.3125 -3.398438 39.988281 -3.398438 C 38.667969 -3.398438 37.597656 -2.328125 37.597656 -1.007813 C 37.597656 0.3125 38.667969 1.382813 39.988281 1.382813 C 41.3125 1.382813 42.382813 0.3125 42.382813 -1.007813 Z M 42.382813 -1.007813 "/>
<path style=" stroke:none;fill-rule:nonzero;fill:rgb(100%,100%,100%);fill-opacity:1;" d="M 62.019531 33.007813 C 62.019531 31.6875 60.949219 30.617188 59.628906 30.617188 C 58.308594 30.617188 57.238281 31.6875 57.238281 33.007813 C 57.238281 34.328125 58.308594 35.398438 59.628906 35.398438 C 60.949219 35.398438 62.019531 34.328125 62.019531 33.007813 Z M 62.019531 33.007813 "/>
<path style=" stroke:none;fill-rule:nonzero;fill:rgb(100%,100%,100%);fill-opacity:1;" d="M 22.742188 33.007813 C 22.742188 31.6875 21.671875 30.617188 20.351563 30.617188 C 19.03125 30.617188 17.960938 31.6875 17.960938 33.007813 C 17.960938 34.328125 19.03125 35.398438 20.351563 35.398438 C 21.671875 35.398438 22.742188 34.328125 22.742188 33.007813 Z M 22.742188 33.007813 "/>
</g>
</svg>
