<?xml version="1.0" encoding="UTF-8"?>
<svg xmlns="http://www.w3.org/2000/svg" xmlns:xlink="http://www.w3.org/1999/xlink" width="91pt" height="63pt" viewBox="0 0 91 63" version="1.1">
<g id="surface1">
<path style="fill:none;stroke-width:0.3985;stroke-linecap:butt;stroke-linejoin:miter;stroke:rgb(0%,0%,0%);stroke-opacity:1;stroke-miterlimit:10;" d="M 0.0001875 -0.00128125 L -28.347469 28.346375 L -42.519344 56.694031 M -28.347469 28.346375 L -14.171687 56.694031 M 0.0001875 -0.00128125 L 28.347844 28.346375 L 42.519719 56.694031 M 28.347844 28.346375 L 14.172063 56.694031 " transform="matrix(1,0,0,-1,45.742,59.487)"/>
<path style=" stroke:none;fill-rule:nonzero;fill:rgb(0%,0%,0%);fill-opacity:1;" d="M 47.734375 59.488281 C 47.734375 58.386719 46.84375 57.496094 45.742188 57.496094 C 44.640625 57.496094 43.75 58.386719 43.75 59.488281 C 43.75 60.585938 44.640625 61.480469 45.742188 61.480469 C 46.84375 61.480469 47.734375 60.585938 47.734375 59.488281 Z M 47.734375 59.488281 "/>
<path style=" stroke:none;fill-rule:nonzero;fill:rgb(0%,0%,0%);fill-opacity:1;" d="M 19.386719 31.140625 C 19.386719 30.039063 18.496094 29.148438 17.394531 29.148438 C 16.292969 29.148438 15.402344 30.039063 15.402344 31.140625 C 15.402344 32.242188 16.292969 33.132813 17.394531 33.132813 C 18.496094 33.132813 19.386719 32.242188 19.386719 31.140625 Z M 19.386719 31.140625 "/>
<path style=" stroke:none;fill-rule:nonzero;fill:rgb(0%,0%,0%);fill-opacity:1;" d="M 5.214844 2.792969 C 5.214844 1.691406 4.324219 0.800781 3.222656 0.800781 C 2.121094 0.800781 1.230469 1.691406 1.230469 2.792969 C 1.230469 3.894531 2.121094 4.785156 3.222656 4.785156 C 4.324219 4.785156 5.214844 3.894531 5.214844 2.792969 Z M 5.214844 2.792969 "/>
<path style=" stroke:none;fill-rule:nonzero;fill:rgb(0%,0%,0%);fill-opacity:1;" d="M 33.5625 2.792969 C 33.5625 1.691406 32.667969 0.800781 31.570313 0.800781 C 30.46875 0.800781 29.574219 1.691406 29.574219 2.792969 C 29.574219 3.894531 30.46875 4.785156 31.570313 4.785156 C 32.667969 4.785156 33.5625 3.894531 33.5625 2.792969 Z M 33.5625 2.792969 "/>
<path style=" stroke:none;fill-rule:nonzero;fill:rgb(0%,0%,0%);fill-opacity:1;" d="M 76.082031 31.140625 C 76.082031 30.039063 75.1875 29.148438 74.089844 29.148438 C 72.988281 29.148438 72.097656 30.039063 72.097656 31.140625 C 72.097656 32.242188 72.988281 33.132813 74.089844 33.132813 C 75.1875 33.132813 76.082031 32.242188 76.082031 31.140625 Z M 76.082031 31.140625 "/>
<path style=" stroke:none;fill-rule:nonzero;fill:rgb(0%,0%,0%);fill-opacity:1;" d="M 90.253906 2.792969 C 90.253906 1.691406 89.363281 0.800781 88.261719 0.800781 C 87.160156 0.800781 86.269531 1.691406 86.269531 2.792969 C 86.269531 3.894531 87.160156 4.785156 88.261719 4.785156 C 89.363281 4.785156 90.253906 3.894531 90.253906 2.792969 Z M 90.253906 2.792969 "/>
<path style=" stroke:none;fill-rule:nonzero;fill:rgb(0%,0%,0%);fill-opacity:1;" d="M 61.90625 2.792969 C 61.90625 1.691406 61.015625 0.800781 59.914063 0.800781 C 58.816406 0.800781 57.921875 1.691406 57.921875 2.792969 C 57.921875 3.894531 58.816406 4.785156 59.914063 4.785156 C 61.015625 4.785156 61.90625 3.894531 61.90625 2.792969 Z M 61.90625 2.792969 "/>
</g>
</svg>
