<?xml version="1.0" encoding="UTF-8"?>
<svg xmlns="http://www.w3.org/2000/svg" xmlns:xlink="http://www.w3.org/1999/xlink" width="93pt" height="88pt" viewBox="0 0 93 88" version="1.1">
<g id="surface1">
<path style="fill:none;stroke-width:0.3985;stroke-linecap:butt;stroke-linejoin:miter;stroke:rgb(0%,0%,0%);stroke-opacity:1;stroke-miterlimit:10;" d="M -0.000625 -0.00134375 L -0.000625 22.678344 L -43.137344 14.014281 L -0.000625 45.354125 L -21.567031 7.006469 " transform="matrix(1,0,0,-1,46.36,48.151)"/>
<path style=" stroke:none;fill-rule:nonzero;fill:rgb(0%,0%,0%);fill-opacity:1;" d="M 48.351563 48.152344 C 48.351563 47.050781 47.460938 46.160156 46.359375 46.160156 C 45.257813 46.160156 44.367188 47.050781 44.367188 48.152344 C 44.367188 49.25 45.257813 50.144531 46.359375 50.144531 C 47.460938 50.144531 48.351563 49.25 48.351563 48.152344 Z M 48.351563 48.152344 "/>
<path style=" stroke:none;fill-rule:nonzero;fill:rgb(0%,0%,0%);fill-opacity:1;" d="M 48.351563 25.472656 C 48.351563 24.371094 47.460938 23.480469 46.359375 23.480469 C 45.257813 23.480469 44.367188 24.371094 44.367188 25.472656 C 44.367188 26.574219 45.257813 27.464844 46.359375 27.464844 C 47.460938 27.464844 48.351563 26.574219 48.351563 25.472656 Z M 48.351563 25.472656 "/>
<path style=" stroke:none;fill-rule:nonzero;fill:rgb(0%,0%,0%);fill-opacity:1;" d="M 5.21875 34.136719 C 5.21875 33.035156 4.324219 32.144531 3.222656 32.144531 C 2.125 32.144531 1.230469 33.035156 1.230469 34.136719 C 1.230469 35.234375 2.125 36.128906 3.222656 36.128906 C 4.324219 36.128906 5.21875 35.234375 5.21875 34.136719 Z M 5.21875 34.136719 "/>
<path style="fill:none;stroke-width:0.3985;stroke-linecap:butt;stroke-linejoin:miter;stroke:rgb(0%,0%,0%);stroke-opacity:1;stroke-miterlimit:10;" d="M -0.000625 -0.00134375 L -21.567031 7.006469 L -26.660781 -36.69275 L -43.137344 14.014281 L -13.32875 -18.345094 " transform="matrix(1,0,0,-1,46.36,48.151)"/>
<path style=" stroke:none;fill-rule:nonzero;fill:rgb(0%,0%,0%);fill-opacity:1;" d="M 48.351563 48.152344 C 48.351563 47.050781 47.460938 46.160156 46.359375 46.160156 C 45.257813 46.160156 44.367188 47.050781 44.367188 48.152344 C 44.367188 49.25 45.257813 50.144531 46.359375 50.144531 C 47.460938 50.144531 48.351563 49.25 48.351563 48.152344 Z M 48.351563 48.152344 "/>
<path style=" stroke:none;fill-rule:nonzero;fill:rgb(0%,0%,0%);fill-opacity:1;" d="M 26.785156 41.144531 C 26.785156 40.042969 25.894531 39.152344 24.792969 39.152344 C 23.691406 39.152344 22.800781 40.042969 22.800781 41.144531 C 22.800781 42.242188 23.691406 43.136719 24.792969 43.136719 C 25.894531 43.136719 26.785156 42.242188 26.785156 41.144531 Z M 26.785156 41.144531 "/>
<path style=" stroke:none;fill-rule:nonzero;fill:rgb(0%,0%,0%);fill-opacity:1;" d="M 21.695313 84.84375 C 21.695313 83.742188 20.800781 82.851563 19.699219 82.851563 C 18.601563 82.851563 17.707031 83.742188 17.707031 84.84375 C 17.707031 85.945313 18.601563 86.835938 19.699219 86.835938 C 20.800781 86.835938 21.695313 85.945313 21.695313 84.84375 Z M 21.695313 84.84375 "/>
<path style="fill:none;stroke-width:0.3985;stroke-linecap:butt;stroke-linejoin:miter;stroke:rgb(0%,0%,0%);stroke-opacity:1;stroke-miterlimit:10;" d="M -0.000625 -0.00134375 L -13.32875 -18.345094 L 26.659531 -36.69275 L -26.660781 -36.69275 L 13.331406 -18.345094 " transform="matrix(1,0,0,-1,46.36,48.151)"/>
<path style=" stroke:none;fill-rule:nonzero;fill:rgb(0%,0%,0%);fill-opacity:1;" d="M 48.351563 48.152344 C 48.351563 47.050781 47.460938 46.160156 46.359375 46.160156 C 45.257813 46.160156 44.367188 47.050781 44.367188 48.152344 C 44.367188 49.25 45.257813 50.144531 46.359375 50.144531 C 47.460938 50.144531 48.351563 49.25 48.351563 48.152344 Z M 48.351563 48.152344 "/>
<path style=" stroke:none;fill-rule:nonzero;fill:rgb(0%,0%,0%);fill-opacity:1;" d="M 35.023438 66.496094 C 35.023438 65.398438 34.132813 64.503906 33.03125 64.503906 C 31.929688 64.503906 31.039063 65.398438 31.039063 66.496094 C 31.039063 67.597656 31.929688 68.488281 33.03125 68.488281 C 34.132813 68.488281 35.023438 67.597656 35.023438 66.496094 Z M 35.023438 66.496094 "/>
<path style=" stroke:none;fill-rule:nonzero;fill:rgb(0%,0%,0%);fill-opacity:1;" d="M 75.011719 84.84375 C 75.011719 83.742188 74.121094 82.851563 73.019531 82.851563 C 71.917969 82.851563 71.027344 83.742188 71.027344 84.84375 C 71.027344 85.945313 71.917969 86.835938 73.019531 86.835938 C 74.121094 86.835938 75.011719 85.945313 75.011719 84.84375 Z M 75.011719 84.84375 "/>
<path style="fill:none;stroke-width:0.3985;stroke-linecap:butt;stroke-linejoin:miter;stroke:rgb(0%,0%,0%);stroke-opacity:1;stroke-miterlimit:10;" d="M -0.000625 -0.00134375 L 13.331406 -18.345094 L 43.136094 14.014281 L 26.659531 -36.69275 L 21.569687 7.006469 " transform="matrix(1,0,0,-1,46.36,48.151)"/>
<path style=" stroke:none;fill-rule:nonzero;fill:rgb(0%,0%,0%);fill-opacity:1;" d="M 48.351563 48.152344 C 48.351563 47.050781 47.460938 46.160156 46.359375 46.160156 C 45.257813 46.160156 44.367188 47.050781 44.367188 48.152344 C 44.367188 49.25 45.257813 50.144531 46.359375 50.144531 C 47.460938 50.144531 48.351563 49.25 48.351563 48.152344 Z M 48.351563 48.152344 "/>
<path style=" stroke:none;fill-rule:nonzero;fill:rgb(0%,0%,0%);fill-opacity:1;" d="M 61.683594 66.496094 C 61.683594 65.398438 60.789063 64.503906 59.691406 64.503906 C 58.589844 64.503906 57.695313 65.398438 57.695313 66.496094 C 57.695313 67.597656 58.589844 68.488281 59.691406 68.488281 C 60.789063 68.488281 61.683594 67.597656 61.683594 66.496094 Z M 61.683594 66.496094 "/>
<path style=" stroke:none;fill-rule:nonzero;fill:rgb(0%,0%,0%);fill-opacity:1;" d="M 91.488281 34.136719 C 91.488281 33.035156 90.597656 32.144531 89.496094 32.144531 C 88.394531 32.144531 87.503906 33.035156 87.503906 34.136719 C 87.503906 35.234375 88.394531 36.128906 89.496094 36.128906 C 90.597656 36.128906 91.488281 35.234375 91.488281 34.136719 Z M 91.488281 34.136719 "/>
<path style="fill:none;stroke-width:0.3985;stroke-linecap:butt;stroke-linejoin:miter;stroke:rgb(0%,0%,0%);stroke-opacity:1;stroke-miterlimit:10;" d="M -0.000625 -0.00134375 L 21.569687 7.006469 L -0.000625 45.354125 L 43.136094 14.014281 L -0.000625 22.678344 " transform="matrix(1,0,0,-1,46.36,48.151)"/>
<path style=" stroke:none;fill-rule:nonzero;fill:rgb(0%,0%,0%);fill-opacity:1;" d="M 48.351563 48.152344 C 48.351563 47.050781 47.460938 46.160156 46.359375 46.160156 C 45.257813 46.160156 44.367188 47.050781 44.367188 48.152344 C 44.367188 49.25 45.257813 50.144531 46.359375 50.144531 C 47.460938 50.144531 48.351563 49.25 48.351563 48.152344 Z M 48.351563 48.152344 "/>
<path style=" stroke:none;fill-rule:nonzero;fill:rgb(0%,0%,0%);fill-opacity:1;" d="M 69.921875 41.144531 C 69.921875 40.042969 69.027344 39.152344 67.929688 39.152344 C 66.828125 39.152344 65.933594 40.042969 65.933594 41.144531 C 65.933594 42.242188 66.828125 43.136719 67.929688 43.136719 C 69.027344 43.136719 69.921875 42.242188 69.921875 41.144531 Z M 69.921875 41.144531 "/>
<path style=" stroke:none;fill-rule:nonzero;fill:rgb(0%,0%,0%);fill-opacity:1;" d="M 48.351563 2.796875 C 48.351563 1.695313 47.460938 0.804688 46.359375 0.804688 C 45.257813 0.804688 44.367188 1.695313 44.367188 2.796875 C 44.367188 3.894531 45.257813 4.789063 46.359375 4.789063 C 47.460938 4.789063 48.351563 3.894531 48.351563 2.796875 Z M 48.351563 2.796875 "/>
</g>
</svg>
