<?xml version="1.0" encoding="UTF-8"?>
<svg xmlns="http://www.w3.org/2000/svg" xmlns:xlink="http://www.w3.org/1999/xlink" width="135pt" height="66pt" viewBox="0 0 135 66" version="1.1">
<g id="surface1">
<path style="fill-rule:nonzero;fill:rgb(0%,0%,0%);fill-opacity:1;stroke-width:0.3985;stroke-linecap:butt;stroke-linejoin:miter;stroke:rgb(0%,0%,0%);stroke-opacity:1;stroke-miterlimit:10;" d="M -61.537094 10.631094 C -61.537094 11.869375 -62.541 12.873281 -63.779281 12.873281 C -65.017562 12.873281 -66.021469 11.869375 -66.021469 10.631094 C -66.021469 9.392813 -65.017562 8.388906 -63.779281 8.388906 C -62.541 8.388906 -61.537094 9.392813 -61.537094 10.631094 Z M -61.537094 10.631094 " transform="matrix(1,0,0,-1,67.541,73.135)"/>
<path style="fill-rule:nonzero;fill:rgb(0%,0%,0%);fill-opacity:1;stroke-width:0.3985;stroke-linecap:butt;stroke-linejoin:miter;stroke:rgb(0%,0%,0%);stroke-opacity:1;stroke-miterlimit:10;" d="M -40.279281 10.631094 C -40.279281 11.869375 -41.283187 12.873281 -42.521469 12.873281 C -43.75975 12.873281 -44.763656 11.869375 -44.763656 10.631094 C -44.763656 9.392813 -43.75975 8.388906 -42.521469 8.388906 C -41.283187 8.388906 -40.279281 9.392813 -40.279281 10.631094 Z M -40.279281 10.631094 " transform="matrix(1,0,0,-1,67.541,73.135)"/>
<path style="fill-rule:nonzero;fill:rgb(0%,0%,0%);fill-opacity:1;stroke-width:0.3985;stroke-linecap:butt;stroke-linejoin:miter;stroke:rgb(0%,0%,0%);stroke-opacity:1;stroke-miterlimit:10;" d="M -19.017562 10.631094 C -19.017562 11.869375 -20.021469 12.873281 -21.25975 12.873281 C -22.498031 12.873281 -23.501937 11.869375 -23.501937 10.631094 C -23.501937 9.392813 -22.498031 8.388906 -21.25975 8.388906 C -20.021469 8.388906 -19.017562 9.392813 -19.017562 10.631094 Z M -19.017562 10.631094 " transform="matrix(1,0,0,-1,67.541,73.135)"/>
<path style="fill-rule:nonzero;fill:rgb(0%,0%,0%);fill-opacity:1;stroke-width:0.3985;stroke-linecap:butt;stroke-linejoin:miter;stroke:rgb(0%,0%,0%);stroke-opacity:1;stroke-miterlimit:10;" d="M 2.24025 10.631094 C 2.24025 11.869375 1.236344 12.873281 -0.0019375 12.873281 C -1.236312 12.873281 -2.240219 11.869375 -2.240219 10.631094 C -2.240219 9.392813 -1.236312 8.388906 -0.0019375 8.388906 C 1.236344 8.388906 2.24025 9.392813 2.24025 10.631094 Z M 2.24025 10.631094 " transform="matrix(1,0,0,-1,67.541,73.135)"/>
<path style="fill-rule:nonzero;fill:rgb(0%,0%,0%);fill-opacity:1;stroke-width:0.3985;stroke-linecap:butt;stroke-linejoin:miter;stroke:rgb(0%,0%,0%);stroke-opacity:1;stroke-miterlimit:10;" d="M 23.501969 10.631094 C 23.501969 11.869375 22.498063 12.873281 21.259781 12.873281 C 20.0215 12.873281 19.017594 11.869375 19.017594 10.631094 C 19.017594 9.392813 20.0215 8.388906 21.259781 8.388906 C 22.498063 8.388906 23.501969 9.392813 23.501969 10.631094 Z M 23.501969 10.631094 " transform="matrix(1,0,0,-1,67.541,73.135)"/>
<path style="fill-rule:nonzero;fill:rgb(0%,0%,0%);fill-opacity:1;stroke-width:0.3985;stroke-linecap:butt;stroke-linejoin:miter;stroke:rgb(0%,0%,0%);stroke-opacity:1;stroke-miterlimit:10;" d="M 44.763688 10.631094 C 44.763688 11.869375 43.759781 12.873281 42.5215 12.873281 C 41.283219 12.873281 40.279313 11.869375 40.279313 10.631094 C 40.279313 9.392813 41.283219 8.388906 42.5215 8.388906 C 43.759781 8.388906 44.763688 9.392813 44.763688 10.631094 Z M 44.763688 10.631094 " transform="matrix(1,0,0,-1,67.541,73.135)"/>
<path style="fill-rule:nonzero;fill:rgb(0%,0%,0%);fill-opacity:1;stroke-width:0.3985;stroke-linecap:butt;stroke-linejoin:miter;stroke:rgb(0%,0%,0%);stroke-opacity:1;stroke-miterlimit:10;" d="M 66.0215 10.631094 C 66.0215 11.869375 65.017594 12.873281 63.779313 12.873281 C 62.541031 12.873281 61.537125 11.869375 61.537125 10.631094 C 61.537125 9.392813 62.541031 8.388906 63.779313 8.388906 C 65.017594 8.388906 66.0215 9.392813 66.0215 10.631094 Z M 66.0215 10.631094 " transform="matrix(1,0,0,-1,67.541,73.135)"/>
<path style="fill-rule:nonzero;fill:rgb(0%,0%,0%);fill-opacity:1;stroke-width:0.3985;stroke-linecap:butt;stroke-linejoin:miter;stroke:rgb(0%,0%,0%);stroke-opacity:1;stroke-miterlimit:10;" d="M 62.080094 34.549063 C 62.080094 35.787344 61.076188 36.787344 59.837906 36.787344 C 58.599625 36.787344 57.595719 35.787344 57.595719 34.549063 C 57.595719 33.310781 58.599625 32.306875 59.837906 32.306875 C 61.076188 32.306875 62.080094 33.310781 62.080094 34.549063 Z M 62.080094 34.549063 " transform="matrix(1,0,0,-1,67.541,73.135)"/>
<path style="fill-rule:nonzero;fill:rgb(0%,0%,0%);fill-opacity:1;stroke-width:0.3985;stroke-linecap:butt;stroke-linejoin:miter;stroke:rgb(0%,0%,0%);stroke-opacity:1;stroke-miterlimit:10;" d="M 36.791031 59.838125 C 36.791031 61.076406 35.787125 62.080313 34.548844 62.080313 C 33.310563 62.080313 32.306656 61.076406 32.306656 59.838125 C 32.306656 58.599844 33.310563 57.595938 34.548844 57.595938 C 35.787125 57.595938 36.791031 58.599844 36.791031 59.838125 Z M 36.791031 59.838125 " transform="matrix(1,0,0,-1,67.541,73.135)"/>
<path style="fill-rule:nonzero;fill:rgb(0%,0%,0%);fill-opacity:1;stroke-width:0.3985;stroke-linecap:butt;stroke-linejoin:miter;stroke:rgb(0%,0%,0%);stroke-opacity:1;stroke-miterlimit:10;" d="M 2.24025 69.095938 C 2.24025 70.334219 1.236344 71.338125 -0.0019375 71.338125 C -1.236312 71.338125 -2.240219 70.334219 -2.240219 69.095938 C -2.240219 67.857656 -1.236312 66.85375 -0.0019375 66.85375 C 1.236344 66.85375 2.24025 67.857656 2.24025 69.095938 Z M 2.24025 69.095938 " transform="matrix(1,0,0,-1,67.541,73.135)"/>
<path style="fill-rule:nonzero;fill:rgb(0%,0%,0%);fill-opacity:1;stroke-width:0.3985;stroke-linecap:butt;stroke-linejoin:miter;stroke:rgb(0%,0%,0%);stroke-opacity:1;stroke-miterlimit:10;" d="M -32.306625 59.838125 C -32.306625 61.076406 -33.310531 62.080313 -34.548812 62.080313 C -35.787094 62.080313 -36.791 61.076406 -36.791 59.838125 C -36.791 58.599844 -35.787094 57.595938 -34.548812 57.595938 C -33.310531 57.595938 -32.306625 58.599844 -32.306625 59.838125 Z M -32.306625 59.838125 " transform="matrix(1,0,0,-1,67.541,73.135)"/>
<path style="fill-rule:nonzero;fill:rgb(0%,0%,0%);fill-opacity:1;stroke-width:0.3985;stroke-linecap:butt;stroke-linejoin:miter;stroke:rgb(0%,0%,0%);stroke-opacity:1;stroke-miterlimit:10;" d="M -57.595687 34.549063 C -57.595687 35.787344 -58.599594 36.787344 -59.837875 36.787344 C -61.076156 36.787344 -62.080062 35.787344 -62.080062 34.549063 C -62.080062 33.310781 -61.076156 32.306875 -59.837875 32.306875 C -58.599594 32.306875 -57.595687 33.310781 -57.595687 34.549063 Z M -57.595687 34.549063 " transform="matrix(1,0,0,-1,67.541,73.135)"/>
</g>
</svg>
