<?xml version="1.0" encoding="UTF-8"?>
<svg xmlns="http://www.w3.org/2000/svg" xmlns:xlink="http://www.w3.org/1999/xlink" width="84pt" height="44pt" viewBox="0 0 84 44" version="1.1">
<g id="surface1">
<path style=" stroke:none;fill-rule:nonzero;fill:rgb(0%,0%,0%);fill-opacity:1;" d="M 19.378906 4.152344 C 19.378906 2.742188 18.234375 1.597656 16.828125 1.597656 C 15.417969 1.597656 14.277344 2.742188 14.277344 4.152344 C 14.277344 5.558594 15.417969 6.703125 16.828125 6.703125 C 18.234375 6.703125 19.378906 5.558594 19.378906 4.152344 Z M 44.890625 4.152344 C 44.890625 2.742188 43.75 1.597656 42.339844 1.597656 C 40.929688 1.597656 39.789063 2.742188 39.789063 4.152344 C 39.789063 5.558594 40.929688 6.703125 42.339844 6.703125 C 43.75 6.703125 44.890625 5.558594 44.890625 4.152344 Z M 70.402344 4.152344 C 70.402344 2.742188 69.261719 1.597656 67.851563 1.597656 C 66.441406 1.597656 65.300781 2.742188 65.300781 4.152344 C 65.300781 5.558594 66.441406 6.703125 67.851563 6.703125 C 69.261719 6.703125 70.402344 5.558594 70.402344 4.152344 Z M 70.402344 4.152344 "/>
<path style="fill:none;stroke-width:0.3985;stroke-linecap:butt;stroke-linejoin:miter;stroke:rgb(0%,0%,0%);stroke-opacity:1;stroke-miterlimit:10;" d="M -28.061656 25.511094 L -38.096812 0.425156 " transform="matrix(1,0,0,-1,42.339,34.765)"/>
<path style="fill:none;stroke-width:0.31879;stroke-linecap:round;stroke-linejoin:round;stroke:rgb(0%,0%,0%);stroke-opacity:1;stroke-miterlimit:10;" d="M -1.196197 1.592421 C -1.096814 0.99689 -0.000762903 0.0974376 0.299543 -0.00120995 C -0.00148607 -0.10059 -1.094615 -0.996439 -1.196886 -1.592698 " transform="matrix(-0.3714,0.92847,0.92847,0.3714,4.24128,34.33952)"/>
<path style="fill:none;stroke-width:0.3985;stroke-linecap:butt;stroke-linejoin:miter;stroke:rgb(0%,0%,0%);stroke-opacity:1;stroke-miterlimit:10;" d="M -22.960094 25.511094 L -12.924937 0.425156 " transform="matrix(1,0,0,-1,42.339,34.765)"/>
<path style="fill:none;stroke-width:0.31879;stroke-linecap:round;stroke-linejoin:round;stroke:rgb(0%,0%,0%);stroke-opacity:1;stroke-miterlimit:10;" d="M -1.196095 1.594676 C -1.095275 0.99479 -0.00214577 0.0989404 0.298883 -0.000439251 C -0.00142261 -0.0990868 -1.096023 -0.994912 -1.196856 -1.59407 " transform="matrix(0.3714,0.92847,0.92847,-0.3714,29.41284,34.33952)"/>
<path style="fill:none;stroke-width:0.3985;stroke-linecap:butt;stroke-linejoin:miter;stroke:rgb(0%,0%,0%);stroke-opacity:1;stroke-miterlimit:10;" d="M 0.00084375 25.511094 L 12.551625 0.409531 " transform="matrix(1,0,0,-1,42.339,34.765)"/>
<path style="fill:none;stroke-width:0.31879;stroke-linecap:round;stroke-linejoin:round;stroke:rgb(0%,0%,0%);stroke-opacity:1;stroke-miterlimit:10;" d="M -1.194263 1.593616 C -1.096451 0.99442 0.00233657 0.0999684 0.297563 0.00038612 C -0.00116262 -0.0991802 -1.096505 -0.997067 -1.194348 -1.594511 " transform="matrix(0.44724,0.89442,0.89442,-0.44724,54.89001,34.35512)"/>
<path style="fill:none;stroke-width:0.3985;stroke-linecap:butt;stroke-linejoin:miter;stroke:rgb(0%,0%,0%);stroke-opacity:1;stroke-miterlimit:10;" d="M 25.512563 25.511094 L 38.063344 0.409531 " transform="matrix(1,0,0,-1,42.339,34.765)"/>
<path style="fill:none;stroke-width:0.31879;stroke-linecap:round;stroke-linejoin:round;stroke:rgb(0%,0%,0%);stroke-opacity:1;stroke-miterlimit:10;" d="M -1.194338 1.593431 C -1.094785 0.99773 0.00224297 0.099779 0.297467 0.000194515 C -0.00125798 -0.0993687 -1.096603 -0.997242 -1.194452 -1.594682 " transform="matrix(0.44725,0.89442,0.89442,-0.44725,80.40194,34.35512)"/>
<path style="fill:none;stroke-width:0.3985;stroke-linecap:butt;stroke-linejoin:miter;stroke:rgb(0%,0%,0%);stroke-opacity:1;stroke-miterlimit:10;" d="M -10.206187 -5.102188 C -10.206187 -3.692031 -11.346812 -2.551406 -12.756969 -2.551406 C -14.163219 -2.551406 -15.30775 -3.692031 -15.30775 -5.102188 C -15.30775 -6.512344 -14.163219 -7.652969 -12.756969 -7.652969 C -11.346812 -7.652969 -10.206187 -6.512344 -10.206187 -5.102188 Z M 15.305531 -5.102188 C 15.305531 -3.692031 14.164906 -2.551406 12.75475 -2.551406 C 11.3485 -2.551406 10.203969 -3.692031 10.203969 -5.102188 C 10.203969 -6.512344 11.3485 -7.652969 12.75475 -7.652969 C 14.164906 -7.652969 15.305531 -6.512344 15.305531 -5.102188 Z M -35.717906 -5.102188 C -35.717906 -3.692031 -36.858531 -2.551406 -38.268687 -2.551406 C -39.678844 -2.551406 -40.819469 -3.692031 -40.819469 -5.102188 C -40.819469 -6.512344 -39.678844 -7.652969 -38.268687 -7.652969 C -36.858531 -7.652969 -35.717906 -6.512344 -35.717906 -5.102188 Z M 40.821156 -5.102188 C 40.821156 -3.692031 39.676625 -2.551406 38.266469 -2.551406 C 36.860219 -2.551406 35.715688 -3.692031 35.715688 -5.102188 C 35.715688 -6.512344 36.860219 -7.652969 38.266469 -7.652969 C 39.676625 -7.652969 40.821156 -6.512344 40.821156 -5.102188 Z M 40.821156 -5.102188 " transform="matrix(1,0,0,-1,42.339,34.765)"/>
</g>
</svg>
