<?xml version="1.0" encoding="UTF-8"?>
<svg xmlns="http://www.w3.org/2000/svg" xmlns:xlink="http://www.w3.org/1999/xlink" width="59pt" height="44pt" viewBox="0 0 59 44" version="1.1">
<g id="surface1">
<path style=" stroke:none;fill-rule:nonzero;fill:rgb(0%,0%,0%);fill-opacity:1;" d="M 6.421875 4.152344 C 6.421875 2.742188 5.28125 1.597656 3.871094 1.597656 C 2.464844 1.597656 1.320313 2.742188 1.320313 4.152344 C 1.320313 5.558594 2.464844 6.703125 3.871094 6.703125 C 5.28125 6.703125 6.421875 5.558594 6.421875 4.152344 Z M 31.933594 4.152344 C 31.933594 2.742188 30.792969 1.597656 29.382813 1.597656 C 27.976563 1.597656 26.832031 2.742188 26.832031 4.152344 C 26.832031 5.558594 27.976563 6.703125 29.382813 6.703125 C 30.792969 6.703125 31.933594 5.558594 31.933594 4.152344 Z M 57.445313 4.152344 C 57.445313 2.742188 56.304688 1.597656 54.894531 1.597656 C 53.488281 1.597656 52.34375 2.742188 52.34375 4.152344 C 52.34375 5.558594 53.488281 6.703125 54.894531 6.703125 C 56.304688 6.703125 57.445313 5.558594 57.445313 4.152344 Z M 57.445313 4.152344 "/>
<path style="fill:none;stroke-width:0.3985;stroke-linecap:butt;stroke-linejoin:miter;stroke:rgb(0%,0%,0%);stroke-opacity:1;stroke-miterlimit:10;" d="M -25.512906 25.511094 L -12.962125 0.409531 " transform="matrix(1,0,0,-1,29.384,34.765)"/>
<path style="fill:none;stroke-width:0.31879;stroke-linecap:round;stroke-linejoin:round;stroke:rgb(0%,0%,0%);stroke-opacity:1;stroke-miterlimit:10;" d="M -1.195057 1.591992 C -1.095504 0.996292 0.00152347 0.0983401 0.298495 0.0022494 C -0.00023044 -0.0973138 -1.095576 -0.995187 -1.195171 -1.596121 " transform="matrix(0.44725,0.89442,0.89442,-0.44725,16.42308,34.35512)"/>
<path style="fill:none;stroke-width:0.3985;stroke-linecap:butt;stroke-linejoin:miter;stroke:rgb(0%,0%,0%);stroke-opacity:1;stroke-miterlimit:10;" d="M 25.510531 25.511094 L 12.95975 0.409531 " transform="matrix(1,0,0,-1,29.384,34.765)"/>
<path style="fill:none;stroke-width:0.31879;stroke-linecap:round;stroke-linejoin:round;stroke:rgb(0%,0%,0%);stroke-opacity:1;stroke-miterlimit:10;" d="M -1.194109 1.593996 C -1.096261 0.996556 -0.000915278 0.0986834 0.29781 -0.000879851 C 0.00258567 -0.100464 -1.096189 -0.994922 -1.193995 -1.594116 " transform="matrix(-0.44725,0.89442,0.89442,0.44725,42.34492,34.35512)"/>
<path style="fill:none;stroke-width:0.3985;stroke-linecap:butt;stroke-linejoin:miter;stroke:rgb(0%,0%,0%);stroke-opacity:1;stroke-miterlimit:10;" d="M -10.204313 -5.102188 C -10.204313 -3.692031 -11.348844 -2.551406 -12.755094 -2.551406 C -14.16525 -2.551406 -15.305875 -3.692031 -15.305875 -5.102188 C -15.305875 -6.512344 -14.16525 -7.652969 -12.755094 -7.652969 C -11.348844 -7.652969 -10.204313 -6.512344 -10.204313 -5.102188 Z M 15.307406 -5.102188 C 15.307406 -3.692031 14.166781 -2.551406 12.756625 -2.551406 C 11.346469 -2.551406 10.205844 -3.692031 10.205844 -5.102188 C 10.205844 -6.512344 11.346469 -7.652969 12.756625 -7.652969 C 14.166781 -7.652969 15.307406 -6.512344 15.307406 -5.102188 Z M 15.307406 -5.102188 " transform="matrix(1,0,0,-1,29.384,34.765)"/>
</g>
</svg>
