<?xml version="1.0" encoding="UTF-8"?>
<svg xmlns="http://www.w3.org/2000/svg" xmlns:xlink="http://www.w3.org/1999/xlink" width="161pt" height="59pt" viewBox="0 0 161 59" version="1.1">
<g id="surface1">
<path style=" stroke:none;fill-rule:nonzero;fill:rgb(0%,0%,0%);fill-opacity:1;" d="M 6.699219 55.3125 C 6.699219 53.828125 5.496094 52.625 4.011719 52.625 C 2.523438 52.625 1.320313 53.828125 1.320313 55.3125 C 1.320313 56.800781 2.523438 58.003906 4.011719 58.003906 C 5.496094 58.003906 6.699219 56.800781 6.699219 55.3125 Z M 6.699219 55.3125 "/>
<path style=" stroke:none;fill-rule:nonzero;fill:rgb(0%,0%,0%);fill-opacity:1;" d="M 6.699219 4.289063 C 6.699219 2.804688 5.496094 1.601563 4.011719 1.601563 C 2.523438 1.601563 1.320313 2.804688 1.320313 4.289063 C 1.320313 5.777344 2.523438 6.980469 4.011719 6.980469 C 5.496094 6.980469 6.699219 5.777344 6.699219 4.289063 Z M 6.699219 4.289063 "/>
<path style=" stroke:none;fill-rule:nonzero;fill:rgb(0%,0%,0%);fill-opacity:1;" d="M 32.210938 55.3125 C 32.210938 53.828125 31.007813 52.625 29.523438 52.625 C 28.035156 52.625 26.832031 53.828125 26.832031 55.3125 C 26.832031 56.800781 28.035156 58.003906 29.523438 58.003906 C 31.007813 58.003906 32.210938 56.800781 32.210938 55.3125 Z M 32.210938 55.3125 "/>
<path style=" stroke:none;fill-rule:nonzero;fill:rgb(0%,0%,0%);fill-opacity:1;" d="M 32.210938 4.289063 C 32.210938 2.804688 31.007813 1.601563 29.523438 1.601563 C 28.035156 1.601563 26.832031 2.804688 26.832031 4.289063 C 26.832031 5.777344 28.035156 6.980469 29.523438 6.980469 C 31.007813 6.980469 32.210938 5.777344 32.210938 4.289063 Z M 32.210938 4.289063 "/>
<path style=" stroke:none;fill-rule:nonzero;fill:rgb(0%,0%,0%);fill-opacity:1;" d="M 57.722656 55.3125 C 57.722656 53.828125 56.519531 52.625 55.035156 52.625 C 53.546875 52.625 52.34375 53.828125 52.34375 55.3125 C 52.34375 56.800781 53.546875 58.003906 55.035156 58.003906 C 56.519531 58.003906 57.722656 56.800781 57.722656 55.3125 Z M 57.722656 55.3125 "/>
<path style=" stroke:none;fill-rule:nonzero;fill:rgb(0%,0%,0%);fill-opacity:1;" d="M 57.722656 4.289063 C 57.722656 2.804688 56.519531 1.601563 55.035156 1.601563 C 53.546875 1.601563 52.34375 2.804688 52.34375 4.289063 C 52.34375 5.777344 53.546875 6.980469 55.035156 6.980469 C 56.519531 6.980469 57.722656 5.777344 57.722656 4.289063 Z M 57.722656 4.289063 "/>
<path style=" stroke:none;fill-rule:nonzero;fill:rgb(0%,0%,0%);fill-opacity:1;" d="M 83.234375 55.3125 C 83.234375 53.828125 82.03125 52.625 80.546875 52.625 C 79.058594 52.625 77.855469 53.828125 77.855469 55.3125 C 77.855469 56.800781 79.058594 58.003906 80.546875 58.003906 C 82.03125 58.003906 83.234375 56.800781 83.234375 55.3125 Z M 83.234375 55.3125 "/>
<path style=" stroke:none;fill-rule:nonzero;fill:rgb(0%,0%,0%);fill-opacity:1;" d="M 83.234375 4.289063 C 83.234375 2.804688 82.03125 1.601563 80.546875 1.601563 C 79.058594 1.601563 77.855469 2.804688 77.855469 4.289063 C 77.855469 5.777344 79.058594 6.980469 80.546875 6.980469 C 82.03125 6.980469 83.234375 5.777344 83.234375 4.289063 Z M 83.234375 4.289063 "/>
<path style=" stroke:none;fill-rule:nonzero;fill:rgb(0%,0%,0%);fill-opacity:1;" d="M 108.746094 55.3125 C 108.746094 53.828125 107.542969 52.625 106.058594 52.625 C 104.574219 52.625 103.367188 53.828125 103.367188 55.3125 C 103.367188 56.800781 104.574219 58.003906 106.058594 58.003906 C 107.542969 58.003906 108.746094 56.800781 108.746094 55.3125 Z M 108.746094 55.3125 "/>
<path style=" stroke:none;fill-rule:nonzero;fill:rgb(0%,0%,0%);fill-opacity:1;" d="M 108.746094 4.289063 C 108.746094 2.804688 107.542969 1.601563 106.058594 1.601563 C 104.574219 1.601563 103.367188 2.804688 103.367188 4.289063 C 103.367188 5.777344 104.574219 6.980469 106.058594 6.980469 C 107.542969 6.980469 108.746094 5.777344 108.746094 4.289063 Z M 108.746094 4.289063 "/>
<path style=" stroke:none;fill-rule:nonzero;fill:rgb(0%,0%,0%);fill-opacity:1;" d="M 134.261719 55.3125 C 134.261719 53.828125 133.054688 52.625 131.570313 52.625 C 130.085938 52.625 128.878906 53.828125 128.878906 55.3125 C 128.878906 56.800781 130.085938 58.003906 131.570313 58.003906 C 133.054688 58.003906 134.261719 56.800781 134.261719 55.3125 Z M 134.261719 55.3125 "/>
<path style=" stroke:none;fill-rule:nonzero;fill:rgb(0%,0%,0%);fill-opacity:1;" d="M 134.261719 4.289063 C 134.261719 2.804688 133.054688 1.601563 131.570313 1.601563 C 130.085938 1.601563 128.878906 2.804688 128.878906 4.289063 C 128.878906 5.777344 130.085938 6.980469 131.570313 6.980469 C 133.054688 6.980469 134.261719 5.777344 134.261719 4.289063 Z M 134.261719 4.289063 "/>
<path style=" stroke:none;fill-rule:nonzero;fill:rgb(0%,0%,0%);fill-opacity:1;" d="M 159.773438 55.3125 C 159.773438 53.828125 158.566406 52.625 157.082031 52.625 C 155.597656 52.625 154.390625 53.828125 154.390625 55.3125 C 154.390625 56.800781 155.597656 58.003906 157.082031 58.003906 C 158.566406 58.003906 159.773438 56.800781 159.773438 55.3125 Z M 159.773438 55.3125 "/>
<path style=" stroke:none;fill-rule:nonzero;fill:rgb(0%,0%,0%);fill-opacity:1;" d="M 159.773438 4.289063 C 159.773438 2.804688 158.566406 1.601563 157.082031 1.601563 C 155.597656 1.601563 154.390625 2.804688 154.390625 4.289063 C 154.390625 5.777344 155.597656 6.980469 157.082031 6.980469 C 158.566406 6.980469 159.773438 5.777344 159.773438 4.289063 Z M 159.773438 4.289063 "/>
</g>
</svg>
