<?xml version="1.0" encoding="UTF-8"?>
<svg xmlns="http://www.w3.org/2000/svg" xmlns:xlink="http://www.w3.org/1999/xlink" width="124pt" height="84pt" viewBox="0 0 124 84" version="1.1">
<g id="surface1">
<path style=" stroke:none;fill-rule:nonzero;fill:rgb(0%,0%,0%);fill-opacity:1;" d="M 4.109375 81.363281 C 4.109375 80.59375 3.484375 79.96875 2.714844 79.96875 C 1.945313 79.96875 1.320313 80.59375 1.320313 81.363281 C 1.320313 82.132813 1.945313 82.757813 2.714844 82.757813 C 3.484375 82.757813 4.109375 82.132813 4.109375 81.363281 Z M 4.109375 81.363281 "/>
<path style=" stroke:none;fill-rule:nonzero;fill:rgb(0%,0%,0%);fill-opacity:1;" d="M 23.953125 81.363281 C 23.953125 80.59375 23.328125 79.96875 22.558594 79.96875 C 21.789063 79.96875 21.164063 80.59375 21.164063 81.363281 C 21.164063 82.132813 21.789063 82.757813 22.558594 82.757813 C 23.328125 82.757813 23.953125 82.132813 23.953125 81.363281 Z M 23.953125 81.363281 "/>
<path style=" stroke:none;fill-rule:nonzero;fill:rgb(0%,0%,0%);fill-opacity:1;" d="M 43.796875 81.363281 C 43.796875 80.59375 43.171875 79.96875 42.402344 79.96875 C 41.632813 79.96875 41.007813 80.59375 41.007813 81.363281 C 41.007813 82.132813 41.632813 82.757813 42.402344 82.757813 C 43.171875 82.757813 43.796875 82.132813 43.796875 81.363281 Z M 43.796875 81.363281 "/>
<path style=" stroke:none;fill-rule:nonzero;fill:rgb(0%,0%,0%);fill-opacity:1;" d="M 63.640625 81.363281 C 63.640625 80.59375 63.015625 79.96875 62.242188 79.96875 C 61.472656 79.96875 60.847656 80.59375 60.847656 81.363281 C 60.847656 82.132813 61.472656 82.757813 62.242188 82.757813 C 63.015625 82.757813 63.640625 82.132813 63.640625 81.363281 Z M 63.640625 81.363281 "/>
<path style=" stroke:none;fill-rule:nonzero;fill:rgb(0%,0%,0%);fill-opacity:1;" d="M 83.480469 81.363281 C 83.480469 80.59375 82.855469 79.96875 82.085938 79.96875 C 81.316406 79.96875 80.691406 80.59375 80.691406 81.363281 C 80.691406 82.132813 81.316406 82.757813 82.085938 82.757813 C 82.855469 82.757813 83.480469 82.132813 83.480469 81.363281 Z M 83.480469 81.363281 "/>
<path style=" stroke:none;fill-rule:nonzero;fill:rgb(0%,0%,0%);fill-opacity:1;" d="M 103.324219 81.363281 C 103.324219 80.59375 102.699219 79.96875 101.929688 79.96875 C 101.160156 79.96875 100.535156 80.59375 100.535156 81.363281 C 100.535156 82.132813 101.160156 82.757813 101.929688 82.757813 C 102.699219 82.757813 103.324219 82.132813 103.324219 81.363281 Z M 103.324219 81.363281 "/>
<path style=" stroke:none;fill-rule:nonzero;fill:rgb(0%,0%,0%);fill-opacity:1;" d="M 123.167969 81.363281 C 123.167969 80.59375 122.542969 79.96875 121.773438 79.96875 C 121 79.96875 120.378906 80.59375 120.378906 81.363281 C 120.378906 82.132813 121 82.757813 121.773438 82.757813 C 122.542969 82.757813 123.167969 82.132813 123.167969 81.363281 Z M 123.167969 81.363281 "/>
<path style=" stroke:none;fill-rule:nonzero;fill:rgb(0%,0%,0%);fill-opacity:1;" d="M 4.109375 61.519531 C 4.109375 60.75 3.484375 60.125 2.714844 60.125 C 1.945313 60.125 1.320313 60.75 1.320313 61.519531 C 1.320313 62.292969 1.945313 62.917969 2.714844 62.917969 C 3.484375 62.917969 4.109375 62.292969 4.109375 61.519531 Z M 4.109375 61.519531 "/>
<path style=" stroke:none;fill-rule:nonzero;fill:rgb(0%,0%,0%);fill-opacity:1;" d="M 4.109375 41.679688 C 4.109375 40.910156 3.484375 40.285156 2.714844 40.285156 C 1.945313 40.285156 1.320313 40.910156 1.320313 41.679688 C 1.320313 42.449219 1.945313 43.074219 2.714844 43.074219 C 3.484375 43.074219 4.109375 42.449219 4.109375 41.679688 Z M 4.109375 41.679688 "/>
<path style=" stroke:none;fill-rule:nonzero;fill:rgb(0%,0%,0%);fill-opacity:1;" d="M 4.109375 21.835938 C 4.109375 21.066406 3.484375 20.441406 2.714844 20.441406 C 1.945313 20.441406 1.320313 21.066406 1.320313 21.835938 C 1.320313 22.605469 1.945313 23.230469 2.714844 23.230469 C 3.484375 23.230469 4.109375 22.605469 4.109375 21.835938 Z M 4.109375 21.835938 "/>
<path style=" stroke:none;fill-rule:nonzero;fill:rgb(0%,0%,0%);fill-opacity:1;" d="M 4.109375 1.992188 C 4.109375 1.222656 3.484375 0.597656 2.714844 0.597656 C 1.945313 0.597656 1.320313 1.222656 1.320313 1.992188 C 1.320313 2.761719 1.945313 3.386719 2.714844 3.386719 C 3.484375 3.386719 4.109375 2.761719 4.109375 1.992188 Z M 4.109375 1.992188 "/>
</g>
</svg>
