<svg xmlns="http://www.w3.org/2000/svg" xmlns:xlink="http://www.w3.org/1999/xlink" xmlns:inkscape="http://www.inkscape.org/namespaces/inkscape" version="1.1" width="243" height="78" viewBox="0 0 243 78">
<defs>
<path id="font_1_98" d="M.47799684 .12625122C.47799684 .17124939 .45298768 .20423889 .4149933 .22824097 .375 .25323487 .34498597 .25723268 .26098634 .27023316 .19699097 .28024293 .11999512 .29223634 .11999512 .3452301 .11999512 .38023377 .15899658 .41822816 .2679901 .41822816 .35099793 .41822816 .39898683 .38523866 .40499879 .3162384 .4059906 .301239 .40699769 .2952423 .42599488 .2952423 .44699098 .2952423 .44699098 .30223084 .44699098 .3232422V.42022706C.44699098 .4372406 .44699098 .4482422 .43099977 .4482422 .42599488 .4482422 .42199708 .4472351 .4139862 .4412384 .4099884 .4372406 .3919983 .42123414 .3880005 .42123414 .3880005 .42123414 .3849945 .42123414 .3789978 .42523194 .35598756 .43823243 .31900025 .4482422 .2689972 .4482422 .10398865 .4482422 .069992069 .37223817 .069992069 .3262329 .069992069 .23223877 .18598938 .21424866 .27799989 .20024109 .33599855 .1912384 .42799378 .1772461 .42799378 .10925293 .42799378 .07424927 .39898683 .022247315 .27799989 .022247315 .20999146 .022247315 .14399719 .04725647 .11399841 .15324402 .10899353 .17124939 .10798645 .17424011 .09098816 .17424011 .069992069 .17424011 .069992069 .1662445 .069992069 .14524842V.01725769C.069992069 .00024414063 .069992069-.0107421879 .085998538-.0107421879 .09399414-.0107421879 .09498596-.009750366 .11399841 .009246826L.13999939 .03425598C.18998719-.009750366 .25299073-.0107421879 .27799989-.0107421879 .44499208-.0107421879 .47799684 .07624817 .47799684 .12625122Z"/>
<path id="font_1_105" d="M.44400025 .12608338V.18099976H.4019928V.1290741C.4019928 .05419922 .35798646 .025253296 .32299806 .025253296 .24598694 .025253296 .24598694 .1051178 .24598694 .12608338V.3866577H.4229889V.43066407H.24598694V.6142578H.20399475C.20298767 .52046206 .15299988 .4226532 .050994874 .41966249V.3866577H.15699768V.12608338C.15699768 .012252808 .25099183-.0107421879 .31298829-.0107421879 .3880005-.011001587 .44400025 .04399109 .44400025 .12599182V.12608338Z"/>
<path id="font_1_28" d="M.6349945 .090148929V.14515686H.59298709V.09214783C.59298709 .08213806 .59298709 .038131715 .5529938 .038131715 .5130005 .038131715 .5130005 .08213806 .5130005 .09214783V.2972107C.5130005 .39323426 .4119873 .4482422 .28799439 .4482422 .22698975 .4482422 .11099243 .4452362 .11099243 .36021424 .11099243 .32321168 .13899231 .30619813 .1639862 .30619813 .19099427 .30619813 .21699524 .32521058 .21699524 .3592224 .21699524 .3832245 .20298767 .39822389 .19400025 .40423585 .22698975 .41523744 .2749939 .41523744 .28599549 .41523744 .37098695 .41523744 .42399598 .3682251 .42399598 .2962036V.27020265C.32699586 .26519776 .272995 .26219178 .19599915 .23518372 .12998963 .21217346 .07199097 .17016602 .07199097 .105148319 .07199097 .011245728 .18798828-.0107421879 .2679901-.0107421879 .34498597-.0107421879 .40499879 .020248414 .43598939 .071243289 .43998719 .036132814 .46299745-.005859375 .5139923-.005859375 .5209961-.005859375 .6349945-.005859375 .6349945 .09013367V.090148929M.42399598 .14213562C.42399598 .03224182 .3039856 .022247315 .2789917 .022247315 .21998596 .022247315 .1639862 .053253175 .1639862 .10523987 .1639862 .13824463 .18499756 .23022461 .42399598 .24023438V.14213562Z"/>
<path id="font_1_96" d="M.47898866 .37338258C.47898866 .41137696 .44299317 .4423828 .3899994 .4423828 .33999635 .44171144 .27598573 .41571046 .23699951 .33171083H.23599243V.4423828L.07598877 .43066407V.3866577C.1499939 .3866577 .15899658 .3796692 .15899658 .33070375V.08395386C.15899658 .052978517 .15899658 .04399109 .09399414 .04399109H.07598877V0C.117996219 .0029907227 .16299439 .0039978029 .20498657 .0039978029L.34799195 0V.04399109H.32099916C.24398804 .04399109 .24398804 .053985597 .24398804 .084991458V.22399903C.24398804 .31698609 .29699708 .40699769 .3919983 .40899659 .3919983 .40899659 .37799073 .394989 .37799073 .37298585 .37799073 .33699037 .4059906 .32199098 .42799378 .32199098 .45298768 .32199098 .47898866 .33898927 .47898866 .37298585V.37338258Z"/>
<path id="font_2_106" d="M.45700074 .17037964C.45700074 .252594 .3939972 .33088685 .2899933 .35191346 .37199403 .37893678 .42999269 .4490509 .42999269 .52809146 .42999269 .6100464 .34199525 .6660156 .24598694 .6660156 .14498902 .6660156 .068984989 .60606387 .068984989 .53009036 .068984989 .49710084 .09098816 .47808839 .11999512 .47808839 .15098572 .47808839 .17098999 .50009158 .17098999 .5290985 .17098999 .57910159 .12399292 .57910159 .10899353 .57910159 .13999939 .62802127 .20599365 .64100649 .24198914 .64100649 .2829895 .64100649 .33799745 .6190338 .33799745 .5290985 .33799745 .51708987 .33599855 .45906068 .30999757 .4149933 .27999879 .36691285 .24598694 .36390687 .22099304 .36291505 .21299744 .36190797 .18899536 .35990907 .18199158 .35990907 .17399597 .35890199 .16699219 .35791017 .16699219 .3479004 .16699219 .33691407 .17399597 .33691407 .19099427 .33691407H.23498535C.31698609 .33691407 .35398866 .2686615 .35398866 .17037964 .35398866 .034469606 .2849884 .0055389406 .24099732 .0055389406 .19799805 .0055389406 .12298584 .022491456 .08799744 .08137512 .12298584 .07637024 .1539917 .09837341 .1539917 .1363678 .1539917 .17237854 .1269989 .19238281 .09799194 .19238281 .07398987 .19238281 .041992189 .17837525 .041992189 .1343689 .041992189 .043441774 .1349945-.022460938 .24398804-.022460938 .3659973-.022460938 .45700074 .06838989 .45700074 .17037964Z"/>
<path id="font_1_81" d="M.61499026 .21324158C.61499026 .33824159 .49699403 .4482422 .33999635 .4482422 .18299866 .4482422 .06498718 .33824159 .06498718 .21324158 .06498718 .09324646 .18399048-.0107421879 .33999635-.0107421879 .49699403-.0107421879 .61499026 .09324646 .61499026 .21324158M.5149994 .22323609C.5149994 .17424011 .5149994 .025253296 .33999635 .025253296 .16499329 .025253296 .16499329 .17424011 .16499329 .22323609 .16499329 .26823426 .16499329 .41523744 .33999635 .41523744 .5149994 .41523744 .5149994 .26823426 .5149994 .22323609Z"/>
<path id="font_1_84" d="M.6769867 .21636963C.6769867 .33638 .5669861 .4423828 .4189911 .4423828 .33999635 .4423828 .27799989 .41436769 .24398804 .38537599V.4423828L.07598877 .43066407V.3866577C.147995 .3866577 .15899658 .3866577 .15899658 .34373475V-.10951233C.15899658-.1404419 .15899658-.14941406 .09399414-.14941406H.07598877V-.19342041C.11898804-.19041443 .16099549-.1894226 .20399475-.1894226 .24598694-.1894226 .2889862-.19041443 .33099366-.19342041V-.14941406H.31298829C.24798584-.14941406 .24798584-.1404419 .24798584-.10951233V.046218873C.29100038 .008255005 .34498597-.0107421879 .4019928-.0107421879 .55400088-.0107421879 .6769867 .09114075 .6769867 .21594239V.21636963M.57699587 .21594239C.57699587 .1071167 .49398805 .022247315 .394989 .022247315 .34999085 .022247315 .29699708 .04121399 .2619934 .08615112 .24798584 .1031189 .24798584 .1051178 .24798584 .12408447V.33174134C.29100038 .39337159 .36698915 .40637208 .40699769 .40637208 .5059967 .40637208 .57699587 .31736756 .57699587 .21636963V.21594239Z"/>
</defs>
<path transform="matrix(1.00002,0,0,-1.00005,38.75354,-8.632231)" stroke-width=".79701" stroke-linecap="butt" stroke-miterlimit="10" stroke-linejoin="miter" fill="none" stroke="#000000" d="M-18.41182-10.63004 0-21.2601V-42.52019L-18.41182-53.15024-36.82365-42.52019V-21.2601Z"/>
<path transform="matrix(1.00002,0,0,-1.00005,38.75354,-8.632231)" stroke-width=".3985" stroke-linecap="butt" stroke-miterlimit="10" stroke-linejoin="miter" fill="none" stroke="#000000" d="M-18.41182-31.89014"/>
<use data-text="s" xlink:href="#font_1_98" transform="matrix(4.9813997,0,0,-4.981549,13.228027,24.764439)"/>
<use data-text="t" xlink:href="#font_1_105" transform="matrix(4.9813997,0,0,-4.981549,15.962814,24.764439)"/>
<use data-text="a" xlink:href="#font_1_28" transform="matrix(4.9813997,0,0,-4.981549,18.66272,24.764439)"/>
<use data-text="r" xlink:href="#font_1_96" transform="matrix(4.9813997,0,0,-4.981549,22.055069,24.764439)"/>
<use data-text="t" xlink:href="#font_1_105" transform="matrix(4.9813997,0,0,-4.981549,24.754975,24.764439)"/>
<path transform="matrix(1.00002,0,0,-1.00005,38.75354,-8.632231)" stroke-width=".79701" stroke-linecap="butt" stroke-miterlimit="10" stroke-linejoin="miter" fill="none" stroke="#000000" d="M36.82367-42.5202 55.2355-53.15025V-74.41037L36.82367-85.04042 18.41183-74.41037V-53.15025Z"/>
<path transform="matrix(1.00002,0,0,-1.00005,38.75354,-8.632231)" stroke-width=".3985" stroke-linecap="butt" stroke-miterlimit="10" stroke-linejoin="miter" fill="none" stroke="#000000" d="M36.82367-63.7803"/>
<use data-text="3" xlink:href="#font_2_106" transform="matrix(9.962799,0,0,-9.963098,73.08723,58.35912)"/>
<path transform="matrix(1.00002,0,0,-1.00005,38.75354,-8.632231)" stroke-width=".79701" stroke-linecap="butt" stroke-miterlimit="10" stroke-linejoin="miter" fill="none" stroke="#000000" d="M18.41182-10.63004 36.82365-21.2601V-42.52019L18.41182-53.15024 0-42.52019V-21.2601Z"/>
<path transform="matrix(1.00002,0,0,-1.00005,38.75354,-8.632231)" stroke-width=".3985" stroke-linecap="butt" stroke-miterlimit="10" stroke-linejoin="miter" fill="none" stroke="#000000" d="M18.41182-31.89014"/>
<path transform="matrix(1.00002,0,0,-1.00005,38.75354,-8.632231)" stroke-width=".79701" stroke-linecap="butt" stroke-miterlimit="10" stroke-linejoin="miter" fill="none" stroke="#000000" d="M0-42.5202 18.41182-53.15025V-74.41037L0-85.04042-18.41182-74.41037V-53.15025Z"/>
<path transform="matrix(1.00002,0,0,-1.00005,38.75354,-8.632231)" stroke-width=".3985" stroke-linecap="butt" stroke-miterlimit="10" stroke-linejoin="miter" fill="none" stroke="#000000" d="M0-63.7803"/>
<path transform="matrix(1.00002,0,0,-1.00005,38.75354,-8.632231)" stroke-width=".79701" stroke-linecap="butt" stroke-miterlimit="10" stroke-linejoin="miter" fill="none" stroke="#000000" d="M55.23552-10.63004 73.64734-21.2601V-42.52019L55.23552-53.15024 36.82368-42.52019V-21.2601Z"/>
<path transform="matrix(1.00002,0,0,-1.00005,38.75354,-8.632231)" stroke-width=".3985" stroke-linecap="butt" stroke-miterlimit="10" stroke-linejoin="miter" fill="none" stroke="#000000" d="M55.23552-31.89014"/>
<path transform="matrix(1.00002,0,0,-1.00005,38.75354,-8.632231)" stroke-width=".79701" stroke-linecap="butt" stroke-miterlimit="10" stroke-linejoin="miter" fill="none" stroke="#000000" d="M36.82367-42.5202 55.2355-53.15025V-74.41037L36.82367-85.04042 18.41183-74.41037V-53.15025Z"/>
<path transform="matrix(1.00002,0,0,-1.00005,38.75354,-8.632231)" stroke-width=".3985" stroke-linecap="butt" stroke-miterlimit="10" stroke-linejoin="miter" fill="none" stroke="#000000" d="M36.82367-63.7803"/>
<path transform="matrix(1.00002,0,0,-1.00005,38.75354,-8.632231)" stroke-width=".79701" stroke-linecap="butt" stroke-miterlimit="10" stroke-linejoin="miter" fill="none" stroke="#000000" d="M92.0592-10.63004 110.47104-21.2601V-42.52019L92.0592-53.15024 73.64737-42.52019V-21.2601Z"/>
<path transform="matrix(1.00002,0,0,-1.00005,38.75354,-8.632231)" stroke-width=".3985" stroke-linecap="butt" stroke-miterlimit="10" stroke-linejoin="miter" fill="none" stroke="#000000" d="M92.0592-31.89014"/>
<path transform="matrix(1.00002,0,0,-1.00005,38.75354,-8.632231)" stroke-width=".79701" stroke-linecap="butt" stroke-miterlimit="10" stroke-linejoin="miter" fill="none" stroke="#000000" d="M73.64735-42.5202 92.05919-53.15025V-74.41037L73.64735-85.04042 55.23553-74.41037V-53.15025Z"/>
<path transform="matrix(1.00002,0,0,-1.00005,38.75354,-8.632231)" stroke-width=".3985" stroke-linecap="butt" stroke-miterlimit="10" stroke-linejoin="miter" fill="none" stroke="#000000" d="M73.64735-63.7803"/>
<path transform="matrix(1.00002,0,0,-1.00005,38.75354,-8.632231)" stroke-width=".79701" stroke-linecap="butt" stroke-miterlimit="10" stroke-linejoin="miter" fill="none" stroke="#000000" d="M128.8829-10.63004 147.29473-21.2601V-42.52019L128.8829-53.15024 110.47107-42.52019V-21.2601Z"/>
<path transform="matrix(1.00002,0,0,-1.00005,38.75354,-8.632231)" stroke-width=".3985" stroke-linecap="butt" stroke-miterlimit="10" stroke-linejoin="miter" fill="none" stroke="#000000" d="M128.8829-31.89014"/>
<path transform="matrix(1.00002,0,0,-1.00005,38.75354,-8.632231)" stroke-width=".79701" stroke-linecap="butt" stroke-miterlimit="10" stroke-linejoin="miter" fill="none" stroke="#000000" d="M110.47105-42.5202 128.88289-53.15025V-74.41037L110.47105-85.04042 92.05922-74.41037V-53.15025Z"/>
<path transform="matrix(1.00002,0,0,-1.00005,38.75354,-8.632231)" stroke-width=".3985" stroke-linecap="butt" stroke-miterlimit="10" stroke-linejoin="miter" fill="none" stroke="#000000" d="M110.47105-63.7803"/>
<path transform="matrix(1.00002,0,0,-1.00005,38.75354,-8.632231)" stroke-width=".79701" stroke-linecap="butt" stroke-miterlimit="10" stroke-linejoin="miter" fill="none" stroke="#000000" d="M165.70659-10.63004 184.11843-21.2601V-42.52019L165.70659-53.15024 147.29476-42.52019V-21.2601Z"/>
<path transform="matrix(1.00002,0,0,-1.00005,38.75354,-8.632231)" stroke-width=".3985" stroke-linecap="butt" stroke-miterlimit="10" stroke-linejoin="miter" fill="none" stroke="#000000" d="M165.70659-31.89014"/>
<path transform="matrix(1.00002,0,0,-1.00005,38.75354,-8.632231)" stroke-width=".79701" stroke-linecap="butt" stroke-miterlimit="10" stroke-linejoin="miter" fill="none" stroke="#000000" d="M147.29474-42.5202 165.70658-53.15025V-74.41037L147.29474-85.04042 128.88292-74.41037V-53.15025Z"/>
<path transform="matrix(1.00002,0,0,-1.00005,38.75354,-8.632231)" stroke-width=".3985" stroke-linecap="butt" stroke-miterlimit="10" stroke-linejoin="miter" fill="none" stroke="#000000" d="M147.29474-63.7803"/>
<path transform="matrix(1.00002,0,0,-1.00005,38.75354,-8.632231)" stroke-width=".79701" stroke-linecap="butt" stroke-miterlimit="10" stroke-linejoin="miter" fill="none" stroke="#000000" d="M184.11844-42.5202 202.53026-53.15025V-74.41037L184.11844-85.04042 165.7066-74.41037V-53.15025Z"/>
<path transform="matrix(1.00002,0,0,-1.00005,38.75354,-8.632231)" stroke-width=".3985" stroke-linecap="butt" stroke-miterlimit="10" stroke-linejoin="miter" fill="none" stroke="#000000" d="M184.11844-63.7803"/>
<use data-text="s" xlink:href="#font_1_98" transform="matrix(4.9813997,0,0,-4.981549,216.5941,56.20001)"/>
<use data-text="t" xlink:href="#font_1_105" transform="matrix(4.9813997,0,0,-4.981549,219.32889,56.20001)"/>
<use data-text="o" xlink:href="#font_1_81" transform="matrix(4.9813997,0,0,-4.981549,222.0288,56.20001)"/>
<use data-text="p" xlink:href="#font_1_84" transform="matrix(4.9813997,0,0,-4.981549,225.42115,56.20001)"/>
</svg>
