<svg xmlns="http://www.w3.org/2000/svg" xmlns:xlink="http://www.w3.org/1999/xlink" xmlns:inkscape="http://www.inkscape.org/namespaces/inkscape" version="1.1" width="35" height="35" viewBox="0 0 35 35">
<path transform="matrix(1.00008,0,0,-1.00008,3.2179032,31.981839)" stroke-width=".3985" stroke-linecap="butt" stroke-miterlimit="10" stroke-linejoin="miter" fill="none" stroke="#000000" d="M0 0 28.3468 28.3468M0 28.3468 28.3468 0"/>
<path transform="matrix(1.00008,0,0,-1.00008,3.2179032,31.981839)" stroke-width=".3985" stroke-linecap="butt" stroke-miterlimit="10" stroke-linejoin="miter" fill="none" stroke="#000000" d="M0 0H28.3468M28.3468 28.3468H0"/>
<path transform="matrix(1.00008,0,0,-1.00008,3.2179032,31.981839)" d="M1.99255 0C1.99255 1.10046 1.10046 1.99255 0 1.99255-1.10046 1.99255-1.99255 1.10046-1.99255 0-1.99255-1.10046-1.10046-1.99255 0-1.99255 1.10046-1.99255 1.99255-1.10046 1.99255 0ZM0 0"/>
<path transform="matrix(1.00008,0,0,-1.00008,3.2179032,31.981839)" d="M30.33936 0C30.33936 1.10046 29.44728 1.99255 28.3468 1.99255 27.24634 1.99255 26.35425 1.10046 26.35425 0 26.35425-1.10046 27.24634-1.99255 28.3468-1.99255 29.44728-1.99255 30.33936-1.10046 30.33936 0ZM28.3468 0"/>
<path transform="matrix(1.00008,0,0,-1.00008,3.2179032,31.981839)" d="M30.33936 28.3468C30.33936 29.44728 29.44728 30.33936 28.3468 30.33936 27.24634 30.33936 26.35425 29.44728 26.35425 28.3468 26.35425 27.24634 27.24634 26.35425 28.3468 26.35425 29.44728 26.35425 30.33936 27.24634 30.33936 28.3468ZM28.3468 28.3468"/>
<path transform="matrix(1.00008,0,0,-1.00008,3.2179032,31.981839)" d="M1.99255 28.3468C1.99255 29.44728 1.10046 30.33936 0 30.33936-1.10046 30.33936-1.99255 29.44728-1.99255 28.3468-1.99255 27.24634-1.10046 26.35425 0 26.35425 1.10046 26.35425 1.99255 27.24634 1.99255 28.3468ZM0 28.3468"/>
</svg>
