<svg xmlns="http://www.w3.org/2000/svg" xmlns:xlink="http://www.w3.org/1999/xlink" xmlns:inkscape="http://www.inkscape.org/namespaces/inkscape" version="1.1" width="61" height="61" viewBox="0 0 61 61">
<path transform="matrix(1.00003,0,0,-1,2.4945145,58.891)" d="M0 0V7.08669H7.08669V0ZM7.08669 7.08669V14.17339H14.17339V7.08669ZM14.17339 14.17339" fill="#e0e0e0"/>
<path transform="matrix(1.00003,0,0,-1,2.4945145,58.891)" stroke-width=".3985" stroke-linecap="butt" stroke-miterlimit="10" stroke-linejoin="miter" fill="none" stroke="#000000" d="M0 0V7.08669H7.08669V0ZM7.08669 7.08669V14.17339H14.17339V7.08669ZM14.17339 14.17339"/>
<path transform="matrix(1.00003,0,0,-1,2.4945145,58.891)" d="M0 14.17339V21.2601H7.08669V14.17339ZM7.08669 21.2601V28.3468H14.17339V21.2601ZM14.17339 28.3468" fill="#e0e0e0"/>
<path transform="matrix(1.00003,0,0,-1,2.4945145,58.891)" stroke-width=".3985" stroke-linecap="butt" stroke-miterlimit="10" stroke-linejoin="miter" fill="none" stroke="#000000" d="M0 14.17339V21.2601H7.08669V14.17339ZM7.08669 21.2601V28.3468H14.17339V21.2601ZM14.17339 28.3468"/>
<path transform="matrix(1.00003,0,0,-1,2.4945145,58.891)" d="M0 28.3468V35.43349H7.08669V28.3468ZM7.08669 35.43349V42.5202H14.17339V35.43349ZM14.17339 42.5202" fill="#e0e0e0"/>
<path transform="matrix(1.00003,0,0,-1,2.4945145,58.891)" stroke-width=".3985" stroke-linecap="butt" stroke-miterlimit="10" stroke-linejoin="miter" fill="none" stroke="#000000" d="M0 28.3468V35.43349H7.08669V28.3468ZM7.08669 35.43349V42.5202H14.17339V35.43349ZM14.17339 42.5202"/>
<path transform="matrix(1.00003,0,0,-1,2.4945145,58.891)" d="M0 42.5202V49.6069H7.08669V42.5202ZM7.08669 49.6069V56.69362H14.17339V49.6069ZM14.17339 56.69362" fill="#e0e0e0"/>
<path transform="matrix(1.00003,0,0,-1,2.4945145,58.891)" stroke-width=".3985" stroke-linecap="butt" stroke-miterlimit="10" stroke-linejoin="miter" fill="none" stroke="#000000" d="M0 42.5202V49.6069H7.08669V42.5202ZM7.08669 49.6069V56.69362H14.17339V49.6069ZM14.17339 56.69362"/>
<path transform="matrix(1.00003,0,0,-1,2.4945145,58.891)" d="M14.17339 0V7.08669H21.2601V0ZM21.2601 7.08669V14.17339H28.3468V7.08669ZM28.3468 14.17339" fill="#e0e0e0"/>
<path transform="matrix(1.00003,0,0,-1,2.4945145,58.891)" stroke-width=".3985" stroke-linecap="butt" stroke-miterlimit="10" stroke-linejoin="miter" fill="none" stroke="#000000" d="M14.17339 0V7.08669H21.2601V0ZM21.2601 7.08669V14.17339H28.3468V7.08669ZM28.3468 14.17339"/>
<path transform="matrix(1.00003,0,0,-1,2.4945145,58.891)" d="M14.17339 14.17339V21.2601H21.2601V14.17339ZM21.2601 21.2601V28.3468H28.3468V21.2601ZM28.3468 28.3468" fill="#e0e0e0"/>
<path transform="matrix(1.00003,0,0,-1,2.4945145,58.891)" stroke-width=".3985" stroke-linecap="butt" stroke-miterlimit="10" stroke-linejoin="miter" fill="none" stroke="#000000" d="M14.17339 14.17339V21.2601H21.2601V14.17339ZM21.2601 21.2601V28.3468H28.3468V21.2601ZM28.3468 28.3468"/>
<path transform="matrix(1.00003,0,0,-1,2.4945145,58.891)" d="M14.17339 28.3468V35.43349H21.2601V28.3468ZM21.2601 35.43349V42.5202H28.3468V35.43349ZM28.3468 42.5202" fill="#e0e0e0"/>
<path transform="matrix(1.00003,0,0,-1,2.4945145,58.891)" stroke-width=".3985" stroke-linecap="butt" stroke-miterlimit="10" stroke-linejoin="miter" fill="none" stroke="#000000" d="M14.17339 28.3468V35.43349H21.2601V28.3468ZM21.2601 35.43349V42.5202H28.3468V35.43349ZM28.3468 42.5202"/>
<path transform="matrix(1.00003,0,0,-1,2.4945145,58.891)" d="M14.17339 42.5202V49.6069H21.2601V42.5202ZM21.2601 49.6069V56.69362H28.3468V49.6069ZM28.3468 56.69362" fill="#e0e0e0"/>
<path transform="matrix(1.00003,0,0,-1,2.4945145,58.891)" stroke-width=".3985" stroke-linecap="butt" stroke-miterlimit="10" stroke-linejoin="miter" fill="none" stroke="#000000" d="M14.17339 42.5202V49.6069H21.2601V42.5202ZM21.2601 49.6069V56.69362H28.3468V49.6069ZM28.3468 56.69362"/>
<path transform="matrix(1.00003,0,0,-1,2.4945145,58.891)" d="M28.3468 0V7.08669H35.43349V0ZM35.43349 7.08669V14.17339H42.5202V7.08669ZM42.5202 14.17339" fill="#e0e0e0"/>
<path transform="matrix(1.00003,0,0,-1,2.4945145,58.891)" stroke-width=".3985" stroke-linecap="butt" stroke-miterlimit="10" stroke-linejoin="miter" fill="none" stroke="#000000" d="M28.3468 0V7.08669H35.43349V0ZM35.43349 7.08669V14.17339H42.5202V7.08669ZM42.5202 14.17339"/>
<path transform="matrix(1.00003,0,0,-1,2.4945145,58.891)" d="M28.3468 14.17339V21.2601H35.43349V14.17339ZM35.43349 21.2601V28.3468H42.5202V21.2601ZM42.5202 28.3468" fill="#e0e0e0"/>
<path transform="matrix(1.00003,0,0,-1,2.4945145,58.891)" stroke-width=".3985" stroke-linecap="butt" stroke-miterlimit="10" stroke-linejoin="miter" fill="none" stroke="#000000" d="M28.3468 14.17339V21.2601H35.43349V14.17339ZM35.43349 21.2601V28.3468H42.5202V21.2601ZM42.5202 28.3468"/>
<path transform="matrix(1.00003,0,0,-1,2.4945145,58.891)" d="M28.3468 28.3468V35.43349H35.43349V28.3468ZM35.43349 35.43349V42.5202H42.5202V35.43349ZM42.5202 42.5202" fill="#e0e0e0"/>
<path transform="matrix(1.00003,0,0,-1,2.4945145,58.891)" stroke-width=".3985" stroke-linecap="butt" stroke-miterlimit="10" stroke-linejoin="miter" fill="none" stroke="#000000" d="M28.3468 28.3468V35.43349H35.43349V28.3468ZM35.43349 35.43349V42.5202H42.5202V35.43349ZM42.5202 42.5202"/>
<path transform="matrix(1.00003,0,0,-1,2.4945145,58.891)" d="M28.3468 42.5202V49.6069H35.43349V42.5202ZM35.43349 49.6069V56.69362H42.5202V49.6069ZM42.5202 56.69362" fill="#e0e0e0"/>
<path transform="matrix(1.00003,0,0,-1,2.4945145,58.891)" stroke-width=".3985" stroke-linecap="butt" stroke-miterlimit="10" stroke-linejoin="miter" fill="none" stroke="#000000" d="M28.3468 42.5202V49.6069H35.43349V42.5202ZM35.43349 49.6069V56.69362H42.5202V49.6069ZM42.5202 56.69362"/>
<path transform="matrix(1.00003,0,0,-1,2.4945145,58.891)" d="M42.5202 0V7.08669H49.6069V0ZM49.6069 7.08669V14.17339H56.69362V7.08669ZM56.69362 14.17339" fill="#e0e0e0"/>
<path transform="matrix(1.00003,0,0,-1,2.4945145,58.891)" stroke-width=".3985" stroke-linecap="butt" stroke-miterlimit="10" stroke-linejoin="miter" fill="none" stroke="#000000" d="M42.5202 0V7.08669H49.6069V0ZM49.6069 7.08669V14.17339H56.69362V7.08669ZM56.69362 14.17339"/>
<path transform="matrix(1.00003,0,0,-1,2.4945145,58.891)" d="M42.5202 14.17339V21.2601H49.6069V14.17339ZM49.6069 21.2601V28.3468H56.69362V21.2601ZM56.69362 28.3468" fill="#e0e0e0"/>
<path transform="matrix(1.00003,0,0,-1,2.4945145,58.891)" stroke-width=".3985" stroke-linecap="butt" stroke-miterlimit="10" stroke-linejoin="miter" fill="none" stroke="#000000" d="M42.5202 14.17339V21.2601H49.6069V14.17339ZM49.6069 21.2601V28.3468H56.69362V21.2601ZM56.69362 28.3468"/>
<path transform="matrix(1.00003,0,0,-1,2.4945145,58.891)" d="M42.5202 28.3468V35.43349H49.6069V28.3468ZM49.6069 35.43349V42.5202H56.69362V35.43349ZM56.69362 42.5202" fill="#e0e0e0"/>
<path transform="matrix(1.00003,0,0,-1,2.4945145,58.891)" stroke-width=".3985" stroke-linecap="butt" stroke-miterlimit="10" stroke-linejoin="miter" fill="none" stroke="#000000" d="M42.5202 28.3468V35.43349H49.6069V28.3468ZM49.6069 35.43349V42.5202H56.69362V35.43349ZM56.69362 42.5202"/>
<path transform="matrix(1.00003,0,0,-1,2.4945145,58.891)" d="M42.5202 42.5202V49.6069H49.6069V42.5202ZM49.6069 49.6069V56.69362H56.69362V49.6069ZM56.69362 56.69362" fill="#e0e0e0"/>
<path transform="matrix(1.00003,0,0,-1,2.4945145,58.891)" stroke-width=".3985" stroke-linecap="butt" stroke-miterlimit="10" stroke-linejoin="miter" fill="none" stroke="#000000" d="M42.5202 42.5202V49.6069H49.6069V42.5202ZM49.6069 49.6069V56.69362H56.69362V49.6069ZM56.69362 56.69362"/>
<path transform="matrix(1.00003,0,0,-1,2.4945145,58.891)" stroke-width=".3985" stroke-linecap="butt" stroke-miterlimit="10" stroke-linejoin="miter" fill="none" stroke="#000000" d="M0 0H56.69362M0 7.08669H56.69362M0 14.17339H56.69362M0 21.2601H56.69362M0 28.3468H56.69362M0 35.43349H56.69362M0 42.5202H56.69362M0 49.6069H56.69362M0 56.69112H56.69362M0 0V56.69362M7.08669 0V56.69362M14.17339 0V56.69362M21.2601 0V56.69362M28.3468 0V56.69362M35.43349 0V56.69362M42.5202 0V56.69362M49.6069 0V56.69362M56.69112 0V56.69362M56.69362 56.69362"/>
<path transform="matrix(1.00003,0,0,-1,2.4945145,58.891)" d="M49.6069 49.6069V56.69362H56.69362V49.6069ZM0 0V7.08669H7.08669V0ZM7.08669 7.08669" fill="#ffffff"/>
<path transform="matrix(1.00003,0,0,-1,2.4945145,58.891)" stroke-width=".3985" stroke-linecap="butt" stroke-miterlimit="10" stroke-linejoin="miter" fill="none" stroke="#ffffff" d="M49.6069 49.6069V56.69362H56.69362V49.6069ZM0 0V7.08669H7.08669V0ZM7.08669 7.08669"/>
<path transform="matrix(1.00003,0,0,-1,2.4945145,58.891)" stroke-width="1.19553" stroke-linecap="butt" stroke-miterlimit="10" stroke-linejoin="miter" fill="none" stroke="#000000" d="M0 7.08669H7.08669V0H56.69362V49.6069H49.6069V56.69362H0V7.08669"/>
</svg>
