<svg xmlns="http://www.w3.org/2000/svg" xmlns:xlink="http://www.w3.org/1999/xlink" xmlns:inkscape="http://www.inkscape.org/namespaces/inkscape" version="1.1" width="135" height="118" viewBox="0 0 135 118">
<defs>
<path id="font_1_82" d="M.55400088 0V.04399109H.5039978C.397995 .04399109 .397995 .054977418 .397995 .08596802V.6358185C.397995 .6660156 .394989 .6660156 .3619995 .6660156 .29100038 .6016083 .17999268 .6016083 .1599884 .6016083H.14299011V.5576172H.1599884C.18299866 .5576172 .24798584 .5606079 .30599977 .58561709V.08596802C.30599977 .054977418 .30599977 .04399109 .19999695 .04399109H.1499939V0C.20498657 .0039978029 .2939911 .0039978029 .35198976 .0039978029 .4099884 .0039978029 .49899293 .0039978029 .55400088 0Z"/>
<path id="font_1_107" d="M.58898928 .19299317H.5469971C.5439911 .17399597 .5339966 .11199951 .5179901 .101989749 .5099945 .09599304 .42599488 .09599304 .41099549 .09599304H.21499634C.2809906 .14498902 .35499574 .20098877 .4149933 .24099732 .5049896 .30300904 .58898928 .3610077 .58898928 .4670105 .58898928 .5950012 .46798707 .6660156 .32499696 .6660156 .18998719 .6660156 .09098816 .58795168 .09098816 .48986817 .09098816 .4378662 .1349945 .42886354 .14898682 .42886354 .17599488 .42886354 .20799256 .4468689 .20799256 .48786927 .20799256 .52386477 .18199158 .543869 .15098572 .546875 .1789856 .59194949 .23699951 .6220093 .3039856 .6220093 .40098573 .6220093 .48199464 .5639038 .48199464 .4658661 .48199464 .3818817 .42399598 .31791688 .34700013 .2529297L.102996829 .04598999C.09298706 .036987306 .09199524 .036987306 .09098816 .02999878V0H.55599978L.58898928 .19299317Z"/>
<path id="font_1_106" d="M.59999087 .17382813C.59999087 .25582887 .5269928 .32583619 .41299439 .35183717 .5329895 .39083863 .5649872 .46684266 .5649872 .5228424 .5649872 .60491946 .46299745 .6660156 .33699037 .6660156 .21398926 .6660156 .114990238 .61395266 .114990238 .5238342 .114990238 .47683717 .15299988 .46484376 .17199707 .46484376 .20098877 .46484376 .22898865 .48583985 .22898865 .5218353 .22898865 .5448303 .21699524 .5728302 .18099976 .57884219 .22399903 .625 .31298829 .628006 .33399964 .628006 .40699769 .628006 .45899964 .5908661 .45899964 .5228424 .45899964 .46484376 .42099 .37384034 .31599427 .36782838 .28799439 .36683656 .28399659 .36582948 .2579956 .36483766 .24699402 .36383058 .23599243 .36283876 .23599243 .34783937 .23599243 .3310547 .24598694 .3310547 .2639923 .3310547H.32998658C.42199708 .3310547 .48298646 .2737732 .48298646 .17437744 .48298646 .07237244 .41999818 .01852417 .33099366 .01852417 .31999208 .01852417 .20098877 .01852417 .1499939 .070373538 .19099427 .07637024 .20298767 .1073761 .20298767 .13137818 .20298767 .16838074 .1749878 .19238281 .14199829 .19238281 .10998535 .19238281 .07998657 .17137146 .07998657 .12937927 .07998657 .025512696 .19799805-.022460938 .33399964-.022460938 .49798585-.022460938 .59999087 .07637024 .59999087 .17337036V.17382813Z"/>
<path id="font_1_57" d="M.61698916 .1630249V.20703125H.49198915V.6467743C.49198915 .6707611 .4909973 .6767578 .46499635 .6767578 .44499208 .6767578 .44400025 .67575076 .43299867 .6617584L.06298828 .20703125V.1630249H.3959961V.085006717C.3959961 .054000856 .3959961 .04399109 .30899049 .04399109H.27398683V0L.44400025 .0039978029 .6139984 0V.04399109H.57899478C.49198915 .04399109 .49198915 .054000856 .49198915 .085006717V.1630249H.61698916M.4039917 .20703125H.10998535L.4039917 .56881716V.20703125Z"/>
<path id="font_1_56" d="M.58898928 .20191956C.58898928 .3149109 .49198915 .41992188 .35299684 .41992188 .2899933 .41993714 .23899842 .4039154 .19599915 .37088014V.55107119C.24899292 .53808596 .2939911 .53808596 .30499269 .53808596 .37298585 .53808596 .4229889 .55807498 .44898988 .5720825 .47299195 .5840759 .54100039 .6270752 .54100039 .64904788 .54100039 .6640167 .5299988 .6660156 .5269928 .6660156 .5269928 .6660156 .522995 .6660156 .5119934 .661026 .47399903 .6480408 .4119873 .634079 .34599305 .634079 .2889862 .634079 .23399353 .6440582 .18099976 .6620178 .16999817 .6660156 .1659851 .6660156 .1659851 .6660156 .1519928 .6660156 .1519928 .6540375 .1519928 .6380768V.33789063C.1519928 .3209076 .1519928 .3079071 .17098999 .3079071 .18199158 .3079071 .18299866 .30992127 .19198609 .3209076 .22999573 .36489869 .2829895 .3869171 .35099793 .3869171 .40899659 .3869171 .44099427 .35289 .45498658 .3318634 .47799684 .2978363 .48298646 .25279237 .48298646 .20477295 .48298646 .1627655 .47898866 .10676575 .43998719 .06765747 .394989 .02154541 .33799745 .01852417 .31599427 .01852417 .25099183 .01852417 .17799378 .04660034 .14698792 .10575867 .18899536 .10876465 .20298767 .13876343 .20298767 .16175843 .20298767 .19377136 .1789856 .21777344 .14698792 .21777344 .125 .21777344 .09098816 .20477295 .09098816 .1587677 .09098816 .060638429 .18699646-.022460938 .31799317-.022460938 .46699525-.022537232 .58898928 .07745361 .58898928 .20146179V.20191956Z"/>
<path id="font_1_101" d="M.59999087 .20472718C.59999087 .2657318 .5799866 .31472779 .5279999 .36073304 .48399354 .40072633 .43798829 .42773438 .35099793 .42773438 .29299928 .42773438 .22799683 .39971925 .18598938 .32772828 .18699646 .37373353 .18798828 .45272828 .22399903 .517746 .25299073 .5718231 .31799317 .628006 .41099549 .628006 .42999269 .628006 .47499085 .6260071 .5049896 .60191348 .4889984 .5979004 .46299745 .5828552 .46299745 .54875186 .46299745 .51708987 .4869995 .49609376 .5159912 .49609376 .5329895 .4957428 .56900027 .5047455 .56900027 .5517578 .56900027 .60598757 .5309906 .6660156 .4099884 .6660156 .23799134 .6660156 .07998657 .5249176 .07998657 .31776429 .07998657 .07858276 .19699097-.022460938 .34298707-.022460938 .44198609-.022460938 .4889984 .014526367 .522995 .042556764 .58699038 .095565799 .59999087 .15460205 .59999087 .20463562V.20472718M.49398805 .20562744C.49398805 .14759827 .49398805 .109573367 .46199037 .06956482 .43399049 .0365448 .39898683 .01852417 .34298707 .01852417 .18899536 .01852417 .18899536 .18461609 .18899536 .2266388 .18899536 .30368043 .24398804 .39372254 .34899903 .39372254 .3999939 .3939972 .43199159 .3809967 .46299745 .34098817 .49299623 .3039856 .49398805 .2619934 .49398805 .20599365V.20562744Z"/>
</defs>
<path transform="matrix(1.00006,0,0,-1.00008,67.36526,58.812227)" stroke-width=".3985" stroke-linecap="butt" stroke-miterlimit="10" stroke-linejoin="miter" fill="none" stroke="#000000" d="M28.31647 36.82365C28.31647 40.72083 25.15726 43.88005 21.26009 43.88005 17.3629 43.88005 14.20369 40.72083 14.20369 36.82365 14.20369 32.92647 17.3629 29.76726 21.26009 29.76726 25.15726 29.76726 28.31647 32.92647 28.31647 36.82365ZM21.26009 36.82365"/>
<use data-text="1" xlink:href="#font_1_82" transform="matrix(4.9815986,0,0,-4.9816987,86.93043,23.644413)"/>
<path transform="matrix(1.00006,0,0,-1.00008,67.36526,58.812227)" stroke-width=".3985" stroke-linecap="butt" stroke-miterlimit="10" stroke-linejoin="miter" fill="none" stroke="#000000" d=""/>
<path transform="matrix(1.00006,0,0,-1.00008,67.36526,58.812227)" stroke-width=".3985" stroke-linecap="butt" stroke-miterlimit="10" stroke-linejoin="miter" fill="none" stroke="#000000" d="M22.52293 43.97429C26.5662 66.90747 44.65965 56.46103 27.17203 41.78746"/>
<path transform="matrix(-.766086,.6428114,.64279857,.7661013,94.538928,17.021424)" stroke-width=".31879" stroke-linecap="round" stroke-linejoin="round" fill="none" stroke="#000000" d="M-1.19551 1.59401C-1.09587 .99626 0 .09961 .29886 0 0-.09961-1.09587-.99626-1.19551-1.59401"/>
<path transform="matrix(1.00006,0,0,-1.00008,67.36526,58.812227)" stroke-width=".3985" stroke-linecap="butt" stroke-miterlimit="10" stroke-linejoin="miter" fill="none" stroke="#000000" d="M49.5766 0C49.5766 3.89717 46.41737 7.05638 42.5202 7.05638 38.62302 7.05638 35.4638 3.89717 35.4638 0 35.4638-3.89717 38.62302-7.05638 42.5202-7.05638 46.41737-7.05638 49.5766-3.89717 49.5766 0ZM42.5202 0"/>
<use data-text="2" xlink:href="#font_1_107" transform="matrix(4.9815986,0,0,-4.9816987,108.19171,60.47136)"/>
<path transform="matrix(1.00006,0,0,-1.00008,67.36526,58.812227)" stroke-width=".3985" stroke-linecap="butt" stroke-miterlimit="10" stroke-linejoin="miter" fill="none" stroke="#000000" d=""/>
<path transform="matrix(1.00006,0,0,-1.00008,67.36526,58.812227)" stroke-width=".3985" stroke-linecap="butt" stroke-miterlimit="10" stroke-linejoin="miter" fill="none" stroke="#000000" d="M49.34442 2.48134C71.16884 10.42514 71.16884-10.42514 49.77505-2.63806"/>
<path transform="matrix(-.93972638,-.34205736,-.3420505,.9397452,117.143299,61.450498)" stroke-width=".31879" stroke-linecap="round" stroke-linejoin="round" fill="none" stroke="#000000" d="M-1.19551 1.59401C-1.09587 .99626 0 .09961 .29886 0 0-.09961-1.09587-.99626-1.19551-1.59401"/>
<path transform="matrix(1.00006,0,0,-1.00008,67.36526,58.812227)" stroke-width=".3985" stroke-linecap="butt" stroke-miterlimit="10" stroke-linejoin="miter" fill="none" stroke="#000000" d="M28.34103-36.82365C28.34103-32.9129 25.17084-29.74269 21.26009-29.74269 17.34932-29.74269 14.17912-32.9129 14.17912-36.82365 14.17912-40.7344 17.34932-43.90462 21.26009-43.90462 25.17084-43.90462 28.34103-40.7344 28.34103-36.82365ZM21.26009-36.82365"/>
<use data-text="3" xlink:href="#font_1_106" transform="matrix(4.9815986,0,0,-4.9816987,86.93043,97.2433)"/>
<path transform="matrix(1.00006,0,0,-1.00008,67.36526,58.812227)" stroke-width=".3985" stroke-linecap="butt" stroke-miterlimit="10" stroke-linejoin="miter" fill="none" stroke="#000000" d=""/>
<path transform="matrix(1.00006,0,0,-1.00008,67.36526,58.812227)" stroke-width=".3985" stroke-linecap="butt" stroke-miterlimit="10" stroke-linejoin="miter" fill="none" stroke="#000000" d="M26.83981-41.5087C44.73882-56.5275 26.58417-67.00926 22.60675-44.44975"/>
<path transform="matrix(-.17361042,-.9848788,-.98485907,.17361389,89.973369,103.26555)" stroke-width=".31879" stroke-linecap="round" stroke-linejoin="round" fill="none" stroke="#000000" d="M-1.19551 1.59401C-1.09587 .99626 0 .09961 .29886 0 0-.09961-1.09587-.99626-1.19551-1.59401"/>
<path transform="matrix(1.00006,0,0,-1.00008,67.36526,58.812227)" stroke-width=".3985" stroke-linecap="butt" stroke-miterlimit="10" stroke-linejoin="miter" fill="none" stroke="#000000" d="M-14.16476-36.82365C-14.16476-32.90498-17.3414-29.72835-21.26009-29.72835-25.17876-29.72835-28.3554-32.90498-28.3554-36.82365-28.3554-40.74232-25.17876-43.91896-21.26009-43.91896-17.3414-43.91896-14.16476-40.74232-14.16476-36.82365ZM-21.26009-36.82365"/>
<use data-text="4" xlink:href="#font_1_57" transform="matrix(4.9815986,0,0,-4.9816987,44.407884,97.3253)"/>
<path transform="matrix(1.00006,0,0,-1.00008,67.36526,58.812227)" stroke-width=".3985" stroke-linecap="butt" stroke-miterlimit="10" stroke-linejoin="miter" fill="none" stroke="#000000" d=""/>
<path transform="matrix(1.00006,0,0,-1.00008,67.36526,58.812227)" stroke-width=".3985" stroke-linecap="butt" stroke-miterlimit="10" stroke-linejoin="miter" fill="none" stroke="#000000" d="M-22.5297-44.01259C-26.59468-67.06897-44.78525-56.56642-27.20184-41.81247"/>
<path transform="matrix(.766086,-.6428114,-.64279857,-.7661013,40.161767,100.62804)" stroke-width=".31879" stroke-linecap="round" stroke-linejoin="round" fill="none" stroke="#000000" d="M-1.19551 1.59401C-1.09587 .99626 0 .09961 .29886 0 0-.09961-1.09587-.99626-1.19551-1.59401"/>
<path transform="matrix(1.00006,0,0,-1.00008,67.36526,58.812227)" stroke-width=".3985" stroke-linecap="butt" stroke-miterlimit="10" stroke-linejoin="miter" fill="none" stroke="#000000" d="M-35.43924 0C-35.43924 3.91075-38.60945 7.08095-42.5202 7.08095-46.43095 7.08095-49.60117 3.91075-49.60117 0-49.60117-3.91075-46.43095-7.08095-42.5202-7.08095-38.60945-7.08095-35.43924-3.91075-35.43924 0ZM-42.5202 0"/>
<use data-text="5" xlink:href="#font_1_56" transform="matrix(4.9815986,0,0,-4.9816987,23.146607,60.416357)"/>
<path transform="matrix(1.00006,0,0,-1.00008,67.36526,58.812227)" stroke-width=".3985" stroke-linecap="butt" stroke-miterlimit="10" stroke-linejoin="miter" fill="none" stroke="#000000" d=""/>
<path transform="matrix(1.00006,0,0,-1.00008,67.36526,58.812227)" stroke-width=".3985" stroke-linecap="butt" stroke-miterlimit="10" stroke-linejoin="miter" fill="none" stroke="#000000" d="M-49.36751-2.48962C-71.26602-10.4605-71.26602 10.4605-49.79813 2.64635"/>
<path transform="matrix(.93972638,.34205736,.3420505,-.9397452,17.56414,56.165666)" stroke-width=".31879" stroke-linecap="round" stroke-linejoin="round" fill="none" stroke="#000000" d="M-1.19551 1.59401C-1.09587 .99626 0 .09961 .29886 0 0-.09961-1.09587-.99626-1.19551-1.59401"/>
<path transform="matrix(1.00006,0,0,-1.00008,67.36526,58.812227)" stroke-width=".3985" stroke-linecap="butt" stroke-miterlimit="10" stroke-linejoin="miter" fill="none" stroke="#000000" d="M-14.17912 36.82365C-14.17912 40.7344-17.34932 43.90462-21.26009 43.90462-25.17084 43.90462-28.34103 40.7344-28.34103 36.82365-28.34103 32.9129-25.17084 29.74269-21.26009 29.74269-17.34932 29.74269-14.17912 32.9129-14.17912 36.82365ZM-21.26009 36.82365"/>
<use data-text="6" xlink:href="#font_1_101" transform="matrix(4.9815986,0,0,-4.9816987,44.407884,23.589406)"/>
<path transform="matrix(1.00006,0,0,-1.00008,67.36526,58.812227)" stroke-width=".3985" stroke-linecap="butt" stroke-miterlimit="10" stroke-linejoin="miter" fill="none" stroke="#000000" d=""/>
<path transform="matrix(1.00006,0,0,-1.00008,67.36526,58.812227)" stroke-width=".3985" stroke-linecap="butt" stroke-miterlimit="10" stroke-linejoin="miter" fill="none" stroke="#000000" d="M-26.83981 41.5087C-44.73882 56.5275-26.58417 67.00926-22.60675 44.44975"/>
<path transform="matrix(.17361042,.9848788,.98485907,-.17361389,44.75715,14.358898)" stroke-width=".31879" stroke-linecap="round" stroke-linejoin="round" fill="none" stroke="#000000" d="M-1.19551 1.59401C-1.09587 .99626 0 .09961 .29886 0 0-.09961-1.09587-.99626-1.19551-1.59401"/>
<path transform="matrix(1.00006,0,0,-1.00008,67.36526,58.812227)" stroke-width=".3985" stroke-linecap="butt" stroke-miterlimit="10" stroke-linejoin="miter" fill="none" stroke="#000000" d=""/>
<path transform="matrix(1.00006,0,0,-1.00008,67.36526,58.812227)" stroke-width=".3985" stroke-linecap="butt" stroke-miterlimit="10" stroke-linejoin="miter" fill="none" stroke="#000000" d="M38.89822 6.28476 25.12059 30.14748"/>
<path transform="matrix(-.50003,-.8660793,-.8660619,.50004,92.48735,28.662354)" stroke-width=".31879" stroke-linecap="round" stroke-linejoin="round" fill="none" stroke="#000000" d="M-1.19551 1.59401C-1.09587 .99626 0 .09961 .29886 0 0-.09961-1.09587-.99626-1.19551-1.59401"/>
<path transform="matrix(1.00006,0,0,-1.00008,67.36526,58.812227)" stroke-width=".3985" stroke-linecap="butt" stroke-miterlimit="10" stroke-linejoin="miter" fill="none" stroke="#000000" d=""/>
<path transform="matrix(1.00006,0,0,-1.00008,67.36526,58.812227)" stroke-width=".3985" stroke-linecap="butt" stroke-miterlimit="10" stroke-linejoin="miter" fill="none" stroke="#000000" d="M21.26299-29.54716 21.26277 29.11343"/>
<path transform="matrix(0,-1.00008,-1.00006,-0,88.6293,29.696467)" stroke-width=".31879" stroke-linecap="round" stroke-linejoin="round" fill="none" stroke="#000000" d="M-1.19551 1.59401C-1.09587 .99626 0 .09961 .29886 0 0-.09961-1.09587-.99626-1.19551-1.59401"/>
<path transform="matrix(1.00006,0,0,-1.00008,67.36526,58.812227)" stroke-width=".3985" stroke-linecap="butt" stroke-miterlimit="10" stroke-linejoin="miter" fill="none" stroke="#000000" d=""/>
<path transform="matrix(1.00006,0,0,-1.00008,67.36526,58.812227)" stroke-width=".3985" stroke-linecap="butt" stroke-miterlimit="10" stroke-linejoin="miter" fill="none" stroke="#000000" d="M-17.61505-30.51018 17.40538 30.14702"/>
<path transform="matrix(.50000998,-.8660793,-.8660619,-.50001999,84.77166,28.662816)" stroke-width=".31879" stroke-linecap="round" stroke-linejoin="round" fill="none" stroke="#000000" d="M-1.19551 1.59401C-1.09587 .99626 0 .09961 .29886 0 0-.09961-1.09587-.99626-1.19551-1.59401"/>
<path transform="matrix(1.00006,0,0,-1.00008,67.36526,58.812227)" stroke-width=".3985" stroke-linecap="butt" stroke-miterlimit="10" stroke-linejoin="miter" fill="none" stroke="#000000" d=""/>
<path transform="matrix(1.00006,0,0,-1.00008,67.36526,58.812227)" stroke-width=".3985" stroke-linecap="butt" stroke-miterlimit="10" stroke-linejoin="miter" fill="none" stroke="#000000" d="M-14.94447-33.18074 35.84439-3.8575"/>
<path transform="matrix(.8660619,-.50004,-.50003,-.8660793,103.211788,62.670034)" stroke-width=".31879" stroke-linecap="round" stroke-linejoin="round" fill="none" stroke="#000000" d="M-1.19551 1.59401C-1.09587 .99626 0 .09961 .29886 0 0-.09961-1.09587-.99626-1.19551-1.59401"/>
<path transform="matrix(1.00006,0,0,-1.00008,67.36526,58.812227)" stroke-width=".3985" stroke-linecap="butt" stroke-miterlimit="10" stroke-linejoin="miter" fill="none" stroke="#000000" d=""/>
<path transform="matrix(1.00006,0,0,-1.00008,67.36526,58.812227)" stroke-width=".3985" stroke-linecap="butt" stroke-miterlimit="10" stroke-linejoin="miter" fill="none" stroke="#000000" d="M-36.21997 3.64076 14.58134 32.97108"/>
<path transform="matrix(.8660619,-.50001999,-.50000998,-.8660793,81.947467,25.83852)" stroke-width=".31879" stroke-linecap="round" stroke-linejoin="round" fill="none" stroke="#000000" d="M-1.19551 1.59401C-1.09587 .99626 0 .09961 .29886 0 0-.09961-1.09587-.99626-1.19551-1.59401"/>
<path transform="matrix(1.00006,0,0,-1.00008,67.36526,58.812227)" stroke-width=".3985" stroke-linecap="butt" stroke-miterlimit="10" stroke-linejoin="miter" fill="none" stroke="#000000" d=""/>
<path transform="matrix(1.00006,0,0,-1.00008,67.36526,58.812227)" stroke-width=".3985" stroke-linecap="butt" stroke-miterlimit="10" stroke-linejoin="miter" fill="none" stroke="#000000" d="M-13.98167 36.82913 13.54797 36.8288"/>
<path transform="matrix(1.00006,0,0,-1.00008,80.91404,21.98048)" stroke-width=".31879" stroke-linecap="round" stroke-linejoin="round" fill="none" stroke="#000000" d="M-1.19551 1.59401C-1.09587 .99626 0 .09961 .29886 0 0-.09961-1.09587-.99626-1.19551-1.59401"/>
<path transform="matrix(1.00006,0,0,-1.00008,67.36526,58.812227)" stroke-width=".3985" stroke-linecap="butt" stroke-miterlimit="10" stroke-linejoin="miter" fill="none" stroke="#000000" d=""/>
<path transform="matrix(1.00006,0,0,-1.00008,67.36526,58.812227)" stroke-width=".3985" stroke-linecap="butt" stroke-miterlimit="10" stroke-linejoin="miter" fill="none" stroke="#000000" d="M-14.95691 33.18793 35.84439 3.8575"/>
<path transform="matrix(.8660619,.50004,.50003,-.8660793,103.211788,54.95442)" stroke-width=".31879" stroke-linecap="round" stroke-linejoin="round" fill="none" stroke="#000000" d="M-1.19551 1.59401C-1.09587 .99626 0 .09961 .29886 0 0-.09961-1.09587-.99626-1.19551-1.59401"/>
<path transform="matrix(1.00006,0,0,-1.00008,67.36526,58.812227)" stroke-width=".3985" stroke-linecap="butt" stroke-miterlimit="10" stroke-linejoin="miter" fill="none" stroke="#000000" d=""/>
<path transform="matrix(1.00006,0,0,-1.00008,67.36526,58.812227)" stroke-width=".3985" stroke-linecap="butt" stroke-miterlimit="10" stroke-linejoin="miter" fill="none" stroke="#000000" d="M-17.62213 30.52263 17.3931-30.12576"/>
<path transform="matrix(.50000998,.8660793,.8660619,-.50001999,84.759387,88.940387)" stroke-width=".31879" stroke-linecap="round" stroke-linejoin="round" fill="none" stroke="#000000" d="M-1.19551 1.59401C-1.09587 .99626 0 .09961 .29886 0 0-.09961-1.09587-.99626-1.19551-1.59401"/>
</svg>
