<svg xmlns="http://www.w3.org/2000/svg" xmlns:xlink="http://www.w3.org/1999/xlink" xmlns:inkscape="http://www.inkscape.org/namespaces/inkscape" version="1.1" width="107" height="64" viewBox="0 0 107 64">
<defs>
<path id="font_1_1" d="M.3919983 .38137818C.3829956 .39839173 .35398866 .44140626 .29299928 .44140626 .17399597 .44140626 .042999269 .3023529 .042999269 .15428162 .042999269 .050247194 .10998535-.009765625 .18699646-.009765625 .25099183-.009765625 .30599977 .041229249 .32398988 .06124878 .34199525-.0077667238 .4099884-.009765625 .42199708-.009765625 .46798707-.009765625 .4909973 .02822876 .49899293 .04524231 .5189972 .08125305 .5329895 .13928223 .5329895 .14328003 .5329895 .14927674 .5289917 .15628052 .5169983 .15628052 .5049896 .15628052 .5029907 .15028382 .49699403 .12527466 .48298646 .070251468 .46398927 .018234253 .4249878 .018234253 .4019928 .018234253 .3929901 .037231447 .3929901 .06524658 .3929901 .08226013 .4019928 .11627197 .4079895 .14128113 .4139862 .16629029 .42900086 .22631836 .43299867 .24432373L.45298768 .32035829C.45799256 .3443756 .46899415 .38638307 .46899415 .39138795 .46899415 .4143982 .44999696 .4223938 .43699647 .4223938 .42199708 .4223938 .39698792 .4123993 .3919983 .38137818M.32398988 .10826111C.27398683 .039230348 .22200012 .018234253 .18998719 .018234253 .14399719 .018234253 .12098694 .0602417 .12098694 .11227417 .12098694 .1592865 .147995 .2663269 .16999817 .3103485 .19898987 .37138368 .24798584 .4133911 .2939911 .4133911 .35899354 .4133911 .37799073 .34036256 .37799073 .32835389 .37799073 .32435609 .35299684 .22631836 .34700013 .20030213 .33399964 .1532898 .33399964 .1512909 .32398988 .10826111Z"/>
<path id="font_1_2" d="M.24398804 .66430667C.24499512 .66630557 .24798584 .67930606 .24798584 .68029788 .24798584 .68530276 .24398804 .6943054 .23199463 .6943054 .22799683 .6943054 .19699097 .69129946 .17399597 .68930056L.117996219 .68530276C.09599304 .68330386 .085998538 .682312 .085998538 .66430667 .085998538 .6502991 .099990848 .6502991 .11199951 .6502991 .1599884 .6502991 .1599884 .64430239 .1599884 .63531497 .1599884 .62931826 .1499939 .5893402 .14399719 .5663452L.056991579 .2183075C.04899597 .18429566 .04899597 .16929627 .04899597 .15228272 .04899597 .049240114 .11199951-.009765625 .18899536-.009765625 .31199647-.009765625 .43998719 .13227844 .43998719 .27734376 .43998719 .37638856 .37599183 .44140626 .29599 .44140626 .23999024 .44140626 .19699097 .4053955 .1749878 .38638307L.24398804 .66430667M.18899536 .018234253C.15299988 .018234253 .116989139 .04623413 .116989139 .119277957 .116989139 .14628601 .12098694 .17129517 .1329956 .21931458 .13999939 .24832154 .14698792 .27633668 .15499878 .3053589 .1599884 .32336427 .1599884 .32536317 .17199707 .34036256 .20599365 .38238526 .25099183 .4133911 .29299928 .4133911 .34298707 .4133911 .3619995 .36437989 .3619995 .3193512 .3619995 .28234864 .33999635 .17529297 .30999757 .11627197 .28399659 .0622406 .23599243 .018234253 .18899536 .018234253Z"/>
</defs>
<path transform="matrix(1.00002,0,0,-1.00003,53.946779,31.97969)" stroke-width=".3985" stroke-linecap="butt" stroke-miterlimit="10" stroke-linejoin="miter" fill="none" stroke="#000000" d="M-42.5202 0-14.17339 28.3468 14.17339 0-14.17339-28.3468Z"/>
<path transform="matrix(1.00002,0,0,-1.00003,53.946779,31.97969)" d="M-40.52765 0C-40.52765 1.10046-41.41972 1.99255-42.5202 1.99255-43.62067 1.99255-44.51276 1.10046-44.51276 0-44.51276-1.10046-43.62067-1.99255-42.5202-1.99255-41.41972-1.99255-40.52765-1.10046-40.52765 0ZM-42.5202 0"/>
<use data-text="a" xlink:href="#font_1_1" transform="matrix(7.9702599,0,0,-7.9703395,1.2157135,33.69574)"/>
<path transform="matrix(1.00002,0,0,-1.00003,53.946779,31.97969)" d="M-12.18083 28.3468C-12.18083 29.44728-13.07292 30.33936-14.17339 30.33936-15.27386 30.33936-16.16594 29.44728-16.16594 28.3468-16.16594 27.24634-15.27386 26.35425-14.17339 26.35425-13.07292 26.35425-12.18083 27.24634-12.18083 28.3468ZM-14.17339 28.3468"/>
<path transform="matrix(1.00002,0,0,-1.00003,53.946779,31.97969)" d="M16.16594 0C16.16594 1.10046 15.27386 1.99255 14.17339 1.99255 13.07292 1.99255 12.18083 1.10046 12.18083 0 12.18083-1.10046 13.07292-1.99255 14.17339-1.99255 15.27386-1.99255 16.16594-1.10046 16.16594 0ZM14.17339 0"/>
<path transform="matrix(1.00002,0,0,-1.00003,53.946779,31.97969)" d="M-12.18083-28.3468C-12.18083-27.24634-13.07292-26.35425-14.17339-26.35425-15.27386-26.35425-16.16594-27.24634-16.16594-28.3468-16.16594-29.44728-15.27386-30.33936-14.17339-30.33936-13.07292-30.33936-12.18083-29.44728-12.18083-28.3468ZM-14.17339-28.3468"/>
<path transform="matrix(1.00002,0,0,-1.00003,53.946779,31.97969)" stroke-width=".3985" stroke-linecap="butt" stroke-miterlimit="10" stroke-linejoin="miter" fill="none" stroke="#000000" d="M-14.17339 0 14.17339 28.3468 42.5202 0 14.17339-28.3468Z"/>
<path transform="matrix(1.00002,0,0,-1.00003,53.946779,31.97969)" d="M-12.18083 0C-12.18083 1.10046-13.07292 1.99255-14.17339 1.99255-15.27386 1.99255-16.16594 1.10046-16.16594 0-16.16594-1.10046-15.27386-1.99255-14.17339-1.99255-13.07292-1.99255-12.18083-1.10046-12.18083 0ZM-14.17339 0"/>
<path transform="matrix(1.00002,0,0,-1.00003,53.946779,31.97969)" d="M16.16594 28.3468C16.16594 29.44728 15.27386 30.33936 14.17339 30.33936 13.07292 30.33936 12.18083 29.44728 12.18083 28.3468 12.18083 27.24634 13.07292 26.35425 14.17339 26.35425 15.27386 26.35425 16.16594 27.24634 16.16594 28.3468ZM14.17339 28.3468"/>
<path transform="matrix(1.00002,0,0,-1.00003,53.946779,31.97969)" d="M44.51276 0C44.51276 1.10046 43.62067 1.99255 42.5202 1.99255 41.41972 1.99255 40.52765 1.10046 40.52765 0 40.52765-1.10046 41.41972-1.99255 42.5202-1.99255 43.62067-1.99255 44.51276-1.10046 44.51276 0ZM42.5202 0"/>
<use data-text="b" xlink:href="#font_1_2" transform="matrix(7.9702599,0,0,-7.9703395,102.17974,34.746774)"/>
<path transform="matrix(1.00002,0,0,-1.00003,53.946779,31.97969)" d="M16.16594-28.3468C16.16594-27.24634 15.27386-26.35425 14.17339-26.35425 13.07292-26.35425 12.18083-27.24634 12.18083-28.3468 12.18083-29.44728 13.07292-30.33936 14.17339-30.33936 15.27386-30.33936 16.16594-29.44728 16.16594-28.3468ZM14.17339-28.3468"/>
</svg>
