<svg xmlns="http://www.w3.org/2000/svg" xmlns:xlink="http://www.w3.org/1999/xlink" xmlns:inkscape="http://www.inkscape.org/namespaces/inkscape" version="1.1" width="62" height="47" viewBox="0 0 62 47">
<defs>
<path id="font_1_4" d="M.5379944 .66430667C.5389862 .66630557 .5419922 .67930606 .5419922 .68029788 .5419922 .68530276 .5379944 .6943054 .526001 .6943054 .5219879 .6943054 .4909973 .69129946 .46798707 .68930056L.4119873 .68530276C.3899994 .68330386 .37998963 .682312 .37998963 .66430667 .37998963 .6502991 .3939972 .6502991 .4059906 .6502991 .45399476 .6502991 .45399476 .64430239 .45399476 .63531497 .45399476 .62931826 .44599916 .59632876 .44099427 .5763397L.3919983 .38137818C.3829956 .39839173 .35398866 .44140626 .29299928 .44140626 .17399597 .44140626 .042999269 .3023529 .042999269 .15428162 .042999269 .050247194 .10998535-.009765625 .18699646-.009765625 .25099183-.009765625 .30599977 .041229249 .32398988 .06124878 .34199525-.0077667238 .4099884-.009765625 .42199708-.009765625 .46798707-.009765625 .4909973 .02822876 .49899293 .04524231 .5189972 .08125305 .5329895 .13928223 .5329895 .14328003 .5329895 .14927674 .5289917 .15628052 .5169983 .15628052 .5049896 .15628052 .5029907 .15028382 .49699403 .12527466 .48298646 .070251468 .46398927 .018234253 .4249878 .018234253 .4019928 .018234253 .3929901 .037231447 .3929901 .06524658 .3929901 .08425903 .3959961 .09526062 .39898683 .10826111L.5379944 .66430667M.32398988 .10826111C.27398683 .039230348 .22200012 .018234253 .18998719 .018234253 .14399719 .018234253 .12098694 .0602417 .12098694 .11227417 .12098694 .1592865 .147995 .2663269 .16999817 .3103485 .19898987 .37138368 .24798584 .4133911 .2939911 .4133911 .35899354 .4133911 .37799073 .34036256 .37799073 .32835389 .37799073 .32435609 .35299684 .22631836 .34700013 .20030213 .33399964 .1532898 .33399964 .1512909 .32398988 .10826111Z"/>
<path id="font_1_1" d="M.3919983 .38137818C.3829956 .39839173 .35398866 .44140626 .29299928 .44140626 .17399597 .44140626 .042999269 .3023529 .042999269 .15428162 .042999269 .050247194 .10998535-.009765625 .18699646-.009765625 .25099183-.009765625 .30599977 .041229249 .32398988 .06124878 .34199525-.0077667238 .4099884-.009765625 .42199708-.009765625 .46798707-.009765625 .4909973 .02822876 .49899293 .04524231 .5189972 .08125305 .5329895 .13928223 .5329895 .14328003 .5329895 .14927674 .5289917 .15628052 .5169983 .15628052 .5049896 .15628052 .5029907 .15028382 .49699403 .12527466 .48298646 .070251468 .46398927 .018234253 .4249878 .018234253 .4019928 .018234253 .3929901 .037231447 .3929901 .06524658 .3929901 .08226013 .4019928 .11627197 .4079895 .14128113 .4139862 .16629029 .42900086 .22631836 .43299867 .24432373L.45298768 .32035829C.45799256 .3443756 .46899415 .38638307 .46899415 .39138795 .46899415 .4143982 .44999696 .4223938 .43699647 .4223938 .42199708 .4223938 .39698792 .4123993 .3919983 .38137818M.32398988 .10826111C.27398683 .039230348 .22200012 .018234253 .18998719 .018234253 .14399719 .018234253 .12098694 .0602417 .12098694 .11227417 .12098694 .1592865 .147995 .2663269 .16999817 .3103485 .19898987 .37138368 .24798584 .4133911 .2939911 .4133911 .35899354 .4133911 .37799073 .34036256 .37799073 .32835389 .37799073 .32435609 .35299684 .22631836 .34700013 .20030213 .33399964 .1532898 .33399964 .1512909 .32398988 .10826111Z"/>
<path id="font_1_3" d="M.40899659 .38304139C.36799623 .3780365 .35499574 .34703065 .35499574 .32702638 .35499574 .29803468 .3809967 .29003907 .3939972 .29003907 .39898683 .29003907 .44999696 .29403688 .44999696 .35502626 .44999696 .4163971 .38398744 .44140626 .32398988 .44140626 .18199158 .44140626 .04399109 .3030243 .04399109 .16311646 .04399109 .06819153 .10899353-.009765625 .21998596-.009765625 .37799073-.009765625 .46099855 .091171268 .46099855 .10417175 .46099855 .11315918 .45098878 .120147708 .44499208 .120147708 .43899537 .120147708 .43598939 .11715698 .43099977 .11116028 .35198976 .018234253 .23999024 .018234253 .22200012 .018234253 .16799927 .018234253 .125 .051208497 .125 .12715149 .125 .17111206 .14498902 .27703858 .19198609 .33903504 .23599243 .39518739 .28599549 .4133911 .32499696 .4133911 .33699037 .4133911 .3829956 .41238404 .40899659 .38304139Z"/>
<path id="font_1_2" d="M.24398804 .66430667C.24499512 .66630557 .24798584 .67930606 .24798584 .68029788 .24798584 .68530276 .24398804 .6943054 .23199463 .6943054 .22799683 .6943054 .19699097 .69129946 .17399597 .68930056L.117996219 .68530276C.09599304 .68330386 .085998538 .682312 .085998538 .66430667 .085998538 .6502991 .099990848 .6502991 .11199951 .6502991 .1599884 .6502991 .1599884 .64430239 .1599884 .63531497 .1599884 .62931826 .1499939 .5893402 .14399719 .5663452L.056991579 .2183075C.04899597 .18429566 .04899597 .16929627 .04899597 .15228272 .04899597 .049240114 .11199951-.009765625 .18899536-.009765625 .31199647-.009765625 .43998719 .13227844 .43998719 .27734376 .43998719 .37638856 .37599183 .44140626 .29599 .44140626 .23999024 .44140626 .19699097 .4053955 .1749878 .38638307L.24398804 .66430667M.18899536 .018234253C.15299988 .018234253 .116989139 .04623413 .116989139 .119277957 .116989139 .14628601 .12098694 .17129517 .1329956 .21931458 .13999939 .24832154 .14698792 .27633668 .15499878 .3053589 .1599884 .32336427 .1599884 .32536317 .17199707 .34036256 .20599365 .38238526 .25099183 .4133911 .29299928 .4133911 .34298707 .4133911 .3619995 .36437989 .3619995 .3193512 .3619995 .28234864 .33999635 .17529297 .30999757 .11627197 .28399659 .0622406 .23599243 .018234253 .18899536 .018234253Z"/>
<path id="font_1_5" d="M.20098877 .22851563C.22299195 .22851563 .2979889 .22950745 .35099793 .24850464 .43798829 .27848817 .44099427 .3384552 .44099427 .35343934 .44099427 .40940858 .3880005 .44140626 .32299806 .44140626 .20999146 .44140626 .04899597 .3524475 .04899597 .1754303 .04899597 .07330322 .11099243-.009765625 .22099304-.009765625 .3769989-.009765625 .46099855 .09031677 .46099855 .1043396 .46099855 .113357547 .45098878 .12036133 .44499208 .12036133 .43899537 .12036133 .43598939 .11735535 .43099977 .11135864 .35198976 .018234253 .23999024 .018234253 .22299195 .018234253 .1499939 .018234253 .12799073 .08030701 .12799073 .13638306 .12799073 .16642761 .13699341 .21148682 .14099121 .22851563H.20098877M.14898682 .2565155C.18099976 .37841798 .27198792 .4133911 .32299806 .4133911 .36299134 .4133911 .40098573 .39341737 .40098573 .35343934 .40098573 .2565155 .23699951 .2565155 .19499207 .2565155H.14898682Z"/>
</defs>
<path transform="matrix(1.00008,0,0,-1,31.079285,24.896)" stroke-width=".3985" stroke-linecap="butt" stroke-miterlimit="10" stroke-linejoin="miter" fill="none" stroke="#000000" d="M-12.496-17.19986 0 21.2601 12.496-17.19986 20.2194 6.5698H-20.2194L-12.496-17.19986H12.496"/>
<path transform="matrix(1.00008,0,0,-1,31.079285,24.896)" d="M-10.50345-17.19986C-10.50345-16.0994-11.39554-15.2073-12.496-15.2073-13.59648-15.2073-14.48856-16.0994-14.48856-17.19986-14.48856-18.30034-13.59648-19.19241-12.496-19.19241-11.39554-19.19241-10.50345-18.30034-10.50345-17.19986ZM-12.496-17.19986"/>
<use data-text="d" xlink:href="#font_1_4" transform="matrix(7.9707376,0,0,-7.9701,8.512482,44.863)"/>
<path transform="matrix(1.00008,0,0,-1,31.079285,24.896)" d="M1.99255 21.2601C1.99255 22.36057 1.10046 23.25266 0 23.25266-1.10046 23.25266-1.99255 22.36057-1.99255 21.2601-1.99255 20.15962-1.10046 19.26755 0 19.26755 1.10046 19.26755 1.99255 20.15962 1.99255 21.2601ZM0 21.2601"/>
<use data-text="a" xlink:href="#font_1_1" transform="matrix(7.9707376,0,0,-7.9701,36.79174,5.3519995)"/>
<path transform="matrix(1.00008,0,0,-1,31.079285,24.896)" d="M14.48856-17.19986C14.48856-16.0994 13.59648-15.2073 12.496-15.2073 11.39554-15.2073 10.50345-16.0994 10.50345-17.19986 10.50345-18.30034 11.39554-19.19241 12.496-19.19241 13.59648-19.19241 14.48856-18.30034 14.48856-17.19986ZM12.496-17.19986"/>
<use data-text="c" xlink:href="#font_1_3" transform="matrix(7.9707376,0,0,-7.9701,49.288743,43.812)"/>
<path transform="matrix(1.00008,0,0,-1,31.079285,24.896)" d="M22.21196 6.5698C22.21196 7.67027 21.31987 8.56235 20.2194 8.56235 19.11893 8.56235 18.22685 7.67027 18.22685 6.5698 18.22685 5.46933 19.11893 4.57724 20.2194 4.57724 21.31987 4.57724 22.21196 5.46933 22.21196 6.5698ZM20.2194 6.5698"/>
<use data-text="b" xlink:href="#font_1_2" transform="matrix(7.9707376,0,0,-7.9701,57.01236,21.094)"/>
<path transform="matrix(1.00008,0,0,-1,31.079285,24.896)" d="M-18.22685 6.5698C-18.22685 7.67027-19.11893 8.56235-20.2194 8.56235-21.31987 8.56235-22.21196 7.67027-22.21196 6.5698-22.21196 5.46933-21.31987 4.57724-20.2194 4.57724-19.11893 4.57724-18.22685 5.46933-18.22685 6.5698ZM-20.2194 6.5698"/>
<use data-text="e" xlink:href="#font_1_5" transform="matrix(7.9707376,0,0,-7.9701,1.2178955,20.042)"/>
</svg>
