<svg xmlns="http://www.w3.org/2000/svg" xmlns:xlink="http://www.w3.org/1999/xlink" xmlns:inkscape="http://www.inkscape.org/namespaces/inkscape" version="1.1" width="63" height="35" viewBox="0 0 63 35">
<path transform="matrix(1.00003,0,0,-1.00008,31.565445,31.981839)" stroke-width=".3985" stroke-linecap="butt" stroke-miterlimit="10" stroke-linejoin="miter" fill="none" stroke="#000000" d="M0 0-28.3468 28.3468M0 0 14.17339 14.17339 28.3468 28.3468"/>
<path transform="matrix(1.00003,0,0,-1.00008,31.565445,31.981839)" d="M1.99255 0C1.99255 1.10046 1.10046 1.99255 0 1.99255-1.10046 1.99255-1.99255 1.10046-1.99255 0-1.99255-1.10046-1.10046-1.99255 0-1.99255 1.10046-1.99255 1.99255-1.10046 1.99255 0ZM0 0"/>
<path transform="matrix(1.00003,0,0,-1.00008,31.565445,31.981839)" d="M-26.35425 28.3468C-26.35425 29.44728-27.24634 30.33936-28.3468 30.33936-29.44728 30.33936-30.33936 29.44728-30.33936 28.3468-30.33936 27.24634-29.44728 26.35425-28.3468 26.35425-27.24634 26.35425-26.35425 27.24634-26.35425 28.3468ZM-28.3468 28.3468"/>
<path transform="matrix(1.00003,0,0,-1.00008,31.565445,31.981839)" d="M16.16594 14.17339C16.16594 15.27386 15.27386 16.16594 14.17339 16.16594 13.07292 16.16594 12.18083 15.27386 12.18083 14.17339 12.18083 13.07292 13.07292 12.18083 14.17339 12.18083 15.27386 12.18083 16.16594 13.07292 16.16594 14.17339ZM14.17339 14.17339"/>
<path transform="matrix(1.00003,0,0,-1.00008,31.565445,31.981839)" d="M30.33936 28.3468C30.33936 29.44728 29.44728 30.33936 28.3468 30.33936 27.24634 30.33936 26.35425 29.44728 26.35425 28.3468 26.35425 27.24634 27.24634 26.35425 28.3468 26.35425 29.44728 26.35425 30.33936 27.24634 30.33936 28.3468ZM28.3468 28.3468"/>
</svg>
