<svg xmlns="http://www.w3.org/2000/svg" xmlns:xlink="http://www.w3.org/1999/xlink" xmlns:inkscape="http://www.inkscape.org/namespaces/inkscape" version="1.1" width="120" height="47" viewBox="0 0 120 47">
<path transform="matrix(1.00002,0,0,-1.00003,59.910875,43.31903)" stroke-width=".3985" stroke-linecap="butt" stroke-miterlimit="10" stroke-linejoin="miter" fill="none" stroke="#000000" d="M-56.69362 0H0 56.69362L0 19.84267-56.69362 0 0 39.68535 56.69362 0M0 39.68535V19.84267"/>
<path transform="matrix(1.00002,0,0,-1.00003,59.910875,43.31903)" d="M-54.70107 0C-54.70107 1.10046-55.59314 1.99255-56.69362 1.99255-57.79408 1.99255-58.68617 1.10046-58.68617 0-58.68617-1.10046-57.79408-1.99255-56.69362-1.99255-55.59314-1.99255-54.70107-1.10046-54.70107 0ZM-56.69362 0"/>
<path transform="matrix(1.00002,0,0,-1.00003,59.910875,43.31903)" d="M1.99255 0C1.99255 1.10046 1.10046 1.99255 0 1.99255-1.10046 1.99255-1.99255 1.10046-1.99255 0-1.99255-1.10046-1.10046-1.99255 0-1.99255 1.10046-1.99255 1.99255-1.10046 1.99255 0ZM0 0"/>
<path transform="matrix(1.00002,0,0,-1.00003,59.910875,43.31903)" d="M58.68617 0C58.68617 1.10046 57.79408 1.99255 56.69362 1.99255 55.59314 1.99255 54.70107 1.10046 54.70107 0 54.70107-1.10046 55.59314-1.99255 56.69362-1.99255 57.79408-1.99255 58.68617-1.10046 58.68617 0ZM56.69362 0"/>
<path transform="matrix(1.00002,0,0,-1.00003,59.910875,43.31903)" d="M1.99255 19.84267C1.99255 20.94313 1.10046 21.83522 0 21.83522-1.10046 21.83522-1.99255 20.94313-1.99255 19.84267-1.99255 18.74219-1.10046 17.85011 0 17.85011 1.10046 17.85011 1.99255 18.74219 1.99255 19.84267ZM0 19.84267"/>
<path transform="matrix(1.00002,0,0,-1.00003,59.910875,43.31903)" d="M1.99255 39.68535C1.99255 40.78583 1.10046 41.6779 0 41.6779-1.10046 41.6779-1.99255 40.78583-1.99255 39.68535-1.99255 38.58488-1.10046 37.6928 0 37.6928 1.10046 37.6928 1.99255 38.58488 1.99255 39.68535ZM0 39.68535"/>
</svg>
