<svg xmlns="http://www.w3.org/2000/svg" xmlns:xlink="http://www.w3.org/1999/xlink" xmlns:inkscape="http://www.inkscape.org/namespaces/inkscape" version="1.1" width="216" height="61" viewBox="0 0 216 61">
<defs>
<path id="font_1_56" d="M.44898988 .20091248C.44898988 .31991578 .36698915 .41992188 .25898744 .41992188 .21099854 .41992188 .16799927 .4039154 .13198853 .36891175V.5641022C.1519928 .55778506 .18499756 .55078127 .21699524 .55078127 .33999635 .55078127 .4099884 .6418457 .4099884 .65493777 .4099884 .6609802 .40699769 .6660156 .3999939 .6660156 .3999939 .66607668 .39698792 .66607668 .3919983 .66308596 .37199403 .65408328 .32299806 .63378909 .2559967 .63378909 .21598816 .63409426 .16999817 .641098 .12298584 .6621094 .114990238 .6651001 .11099243 .6651001 .11099243 .6651001 .100997928 .66508486 .100997928 .657074 .100997928 .64108279V.3447113C.100997928 .3266449 .100997928 .31861878 .114990238 .31861878 .12199402 .31861878 .12399292 .32164 .12799073 .32765199 .13899231 .34371949 .17599488 .3979187 .25698854 .3979187 .30899049 .3979187 .33399964 .3517456 .34199525 .3336792 .35798646 .2965393 .3600006 .2574005 .3600006 .20721436 .3600006 .17218018 .3600006 .112197879 .33599855 .07032776 .31199647 .031448366 .2749939 .0055389406 .22898865 .0055389406 .1559906 .0055389406 .09899902 .05836487 .08198547 .1171875 .084991458 .11685181 .08799744 .115859989 .09899902 .115859989 .13198853 .115859989 .14898682 .14085388 .14898682 .16485596 .14898682 .18885803 .13198853 .21386719 .09899902 .21386719 .084991458 .21386719 .049987794 .2068634 .049987794 .16085816 .049987794 .07432556 .11898804-.022460938 .23098755-.022460938 .34700013-.022460938 .44898988 .07331848 .44898988 .20019531V.20091248Z"/>
<path id="font_1_107" d="M.44898988 .17396546H.42399598C.4189911 .14398194 .4119873 .099990848 .4019928 .084991458 .394989 .07699585 .32899476 .07699585 .30699159 .07699585H.1269989L.23298645 .17996216C.3889923 .31803895 .44898988 .37210084 .44898988 .47216798 .44898988 .5860901 .35899354 .6660156 .23699951 .6660156 .12399292 .6660156 .049987794 .57411196 .049987794 .48516847 .049987794 .4291687 .099990848 .4291687 .102996829 .4291687 .11999512 .4291687 .15499878 .44117738 .15499878 .48217774 .15499878 .5081787 .13699341 .5341797 .101989749 .5341797 .09399414 .5341797 .09199524 .5341797 .08898926 .5331726 .11199951 .59806826 .1659851 .63500979 .22399903 .63500979 .31498719 .63500979 .35798646 .5541382 .35798646 .47216798 .35798646 .39196778 .30799867 .31297303 .25299073 .25097657L.06098938 .036987306C.049987794 .025985718 .049987794 .023986817 .049987794 0H.42099L.44898988 .17396546Z"/>
<path id="font_2_1" d="M.18899536 .34246827C.1769867 .3534546 .17098999 .3534546 .16799927 .3534546 .16099549 .3534546 .15899658 .3534546 .13899231 .3344574L.070999149 .27445985C.05899048 .26345826 .054992677 .25946046 .054992677 .25045777 .054992677 .23945618 .06498718 .23046875 .07499695 .23046875 .08099365 .23046875 .08299255 .23046875 .099990848 .24645996 .12098694 .26446534 .14099121 .28445436 .16799927 .30645753L.30499269 .1824646C.30699159 .18145752 .32499696 .16546631 .32998658 .1614685 .34399415 .14746094 .34599305 .14746094 .35299684 .14746094 .3600006 .14746094 .3619995 .14746094 .38398744 .16746521L.46299745 .23846436 .5379944 .30645753 .6119995 .24046326C.6230011 .23046875 .625 .23046875 .6459961 .23046875H.8619995C.8529968 .22245789 .79599 .17346192 .7609863 .083465579H.7919922C.8089905 .12945557 .84799197 .20045471 .94200137 .25045777 .84799197 .3014679 .80799868 .37246705 .7919922 .4174652H.7609863C.79599 .32746888 .8529968 .27845765 .8619995 .27046205H.6380005C.598999 .30645753 .58799746 .3174591 .5649872 .33746339 .5469971 .3534546 .54499819 .3534546 .5379944 .3534546 .5309906 .3534546 .5289917 .3514557 .5179901 .34246827 .5149994 .3404541 .375 .2134552 .35299684 .19445801L.18899536 .34246827Z"/>
<path id="font_1_100" d="M.4850006 .6435547H.24198914C.11999512 .6435547 .117996219 .6566467 .11399841 .67578127H.08898926L.055999757 .46954347H.08099365C.083999637 .48554994 .09298706 .54855349 .10598755 .5605469 .11299133 .5665436 .19099427 .5665436 .20399475 .5665436H.41099549L.29899598 .40853883C.20899964 .2735443 .17599488 .13453675 .17599488 .03253174 .17599488 .022537232 .17599488-.022460938 .22200012-.022460938 .2679901-.022460938 .2679901 .022537232 .2679901 .03253174V.08354187C.2679901 .13853455 .2709961 .19354248 .2789917 .24754334 .2829895 .27053834 .29699708 .35653688 .34098817 .41854859L.47599793 .608551C.4850006 .62054446 .4850006 .62254336 .4850006 .6435547Z"/>
</defs>
<path transform="matrix(1.00006,0,0,-1.00002,9.718681,58.690858)" stroke-width=".79701" stroke-linecap="butt" stroke-miterlimit="10" stroke-linejoin="miter" fill="none" stroke="#000000" d="M0 0V56.69275H22.6771V0ZM22.6771 56.69275"/>
<path transform="matrix(1.00006,0,0,-1.00002,9.718681,58.690858)" stroke-width=".79701" stroke-linecap="butt" stroke-miterlimit="10" stroke-linejoin="miter" fill="none" stroke="#000000" d="M24.94476 0V56.69275H81.63753V0ZM81.63753 56.69275"/>
<path transform="matrix(1.00006,0,0,-1.00002,9.718681,58.690858)" stroke-width=".3985" stroke-linecap="butt" stroke-miterlimit="10" stroke-linejoin="miter" fill="none" stroke="#000000" d="M51.02345 0"/>
<use data-text="5" xlink:href="#font_1_56" transform="matrix(9.963197,0,0,-9.962799,1.2171707,33.552354)"/>
<use data-text="2" xlink:href="#font_1_107" transform="matrix(9.963197,0,0,-9.962799,18.567215,55.170785)"/>
<use data-text="5" xlink:href="#font_1_56" transform="matrix(9.963197,0,0,-9.962799,58.254594,54.951784)"/>
<path transform="matrix(1.00006,0,0,-1.00002,9.718681,58.690858)" stroke-width=".3985" stroke-linecap="butt" stroke-miterlimit="10" stroke-linejoin="miter" fill="none" stroke="#000000" d="M102.04694 28.34636"/>
<use data-text="&#x21dd;" xlink:href="#font_2_1" transform="matrix(9.963197,0,0,-9.962799,106.790508,32.226327)"/>
<path transform="matrix(1.00006,0,0,-1.00002,9.718681,58.690858)" stroke-width=".79701" stroke-linecap="butt" stroke-miterlimit="10" stroke-linejoin="miter" fill="none" stroke="#000000" d="M124.72404 0V56.69275H204.09389V0ZM204.09389 56.69275"/>
<path transform="matrix(1.00006,0,0,-1.00002,9.718681,58.690858)" stroke-width=".3985" stroke-linecap="butt" stroke-dasharray=".3985,1.99255" stroke-miterlimit="10" stroke-linejoin="miter" fill="none" stroke="#000000" d="M147.40114 0V56.69275"/>
<path transform="matrix(1.00006,0,0,-1.00002,9.718681,58.690858)" stroke-width=".3985" stroke-linecap="butt" stroke-miterlimit="10" stroke-linejoin="miter" fill="none" stroke="#000000" d="M164.40897 0"/>
<use data-text="5" xlink:href="#font_1_56" transform="matrix(9.963197,0,0,-9.962799,125.94865,33.552354)"/>
<use data-text="7" xlink:href="#font_1_100" transform="matrix(9.963197,0,0,-9.962799,171.6464,54.951784)"/>
</svg>
