<svg xmlns="http://www.w3.org/2000/svg" xmlns:xlink="http://www.w3.org/1999/xlink" xmlns:inkscape="http://www.inkscape.org/namespaces/inkscape" version="1.1" width="120" height="35" viewBox="0 0 120 35">
<path transform="matrix(1.00002,0,0,-1.00008,3.2167283,31.981839)" stroke-width=".3985" stroke-linecap="butt" stroke-miterlimit="10" stroke-linejoin="miter" fill="none" stroke="#000000" d="M113.38724 28.3468"/>
<path transform="matrix(1.00002,0,0,-1.00008,3.2167283,31.981839)" d="M1.99255 0C1.99255 1.10046 1.10046 1.99255 0 1.99255-1.10046 1.99255-1.99255 1.10046-1.99255 0-1.99255-1.10046-1.10046-1.99255 0-1.99255 1.10046-1.99255 1.99255-1.10046 1.99255 0ZM0 0"/>
<path transform="matrix(1.00002,0,0,-1.00008,3.2167283,31.981839)" d="M1.99255 28.3468C1.99255 29.44728 1.10046 30.33936 0 30.33936-1.10046 30.33936-1.99255 29.44728-1.99255 28.3468-1.99255 27.24634-1.10046 26.35425 0 26.35425 1.10046 26.35425 1.99255 27.24634 1.99255 28.3468ZM0 28.3468"/>
<path transform="matrix(1.00002,0,0,-1.00008,3.2167283,31.981839)" d="M30.33936 0C30.33936 1.10046 29.44728 1.99255 28.3468 1.99255 27.24634 1.99255 26.35425 1.10046 26.35425 0 26.35425-1.10046 27.24634-1.99255 28.3468-1.99255 29.44728-1.99255 30.33936-1.10046 30.33936 0ZM28.3468 0"/>
<path transform="matrix(1.00002,0,0,-1.00008,3.2167283,31.981839)" d="M30.33936 28.3468C30.33936 29.44728 29.44728 30.33936 28.3468 30.33936 27.24634 30.33936 26.35425 29.44728 26.35425 28.3468 26.35425 27.24634 27.24634 26.35425 28.3468 26.35425 29.44728 26.35425 30.33936 27.24634 30.33936 28.3468ZM28.3468 28.3468"/>
<path transform="matrix(1.00002,0,0,-1.00008,3.2167283,31.981839)" d="M58.68617 0C58.68617 1.10046 57.79408 1.99255 56.69362 1.99255 55.59314 1.99255 54.70107 1.10046 54.70107 0 54.70107-1.10046 55.59314-1.99255 56.69362-1.99255 57.79408-1.99255 58.68617-1.10046 58.68617 0ZM56.69362 0"/>
<path transform="matrix(1.00002,0,0,-1.00008,3.2167283,31.981839)" d="M58.68617 28.3468C58.68617 29.44728 57.79408 30.33936 56.69362 30.33936 55.59314 30.33936 54.70107 29.44728 54.70107 28.3468 54.70107 27.24634 55.59314 26.35425 56.69362 26.35425 57.79408 26.35425 58.68617 27.24634 58.68617 28.3468ZM56.69362 28.3468"/>
<path transform="matrix(1.00002,0,0,-1.00008,3.2167283,31.981839)" d="M87.03297 0C87.03297 1.10046 86.1409 1.99255 85.04042 1.99255 83.93996 1.99255 83.04787 1.10046 83.04787 0 83.04787-1.10046 83.93996-1.99255 85.04042-1.99255 86.1409-1.99255 87.03297-1.10046 87.03297 0ZM85.04042 0"/>
<path transform="matrix(1.00002,0,0,-1.00008,3.2167283,31.981839)" d="M87.03297 28.3468C87.03297 29.44728 86.1409 30.33936 85.04042 30.33936 83.93996 30.33936 83.04787 29.44728 83.04787 28.3468 83.04787 27.24634 83.93996 26.35425 85.04042 26.35425 86.1409 26.35425 87.03297 27.24634 87.03297 28.3468ZM85.04042 28.3468"/>
<path transform="matrix(1.00002,0,0,-1.00008,3.2167283,31.981839)" d="M115.37979 0C115.37979 1.10046 114.4877 1.99255 113.38724 1.99255 112.28676 1.99255 111.39468 1.10046 111.39468 0 111.39468-1.10046 112.28676-1.99255 113.38724-1.99255 114.4877-1.99255 115.37979-1.10046 115.37979 0ZM113.38724 0"/>
<path transform="matrix(1.00002,0,0,-1.00008,3.2167283,31.981839)" d="M115.37979 28.3468C115.37979 29.44728 114.4877 30.33936 113.38724 30.33936 112.28676 30.33936 111.39468 29.44728 111.39468 28.3468 111.39468 27.24634 112.28676 26.35425 113.38724 26.35425 114.4877 26.35425 115.37979 27.24634 115.37979 28.3468ZM113.38724 28.3468"/>
<path transform="matrix(1.00002,0,0,-1.00008,3.2167283,31.981839)" stroke-width=".3985" stroke-linecap="butt" stroke-miterlimit="10" stroke-linejoin="miter" fill="none" stroke="#000000" d="M0 0V28.3468M0 0 28.3468 28.3468M0 28.3468 28.3468 0M0 28.3468 56.69362 0M28.3468 0 56.69362 28.3468M28.3468 28.3468 56.69362 0 85.04042 28.3468M56.69362 0 113.38724 28.3468M56.69362 28.3468 85.04042 0 113.38724 28.3468M85.04042 28.3468 113.38724 0V28.3468"/>
<path transform="matrix(1.00002,0,0,-1.00008,3.2167283,31.981839)" stroke-width="1.19553" stroke-linecap="butt" stroke-miterlimit="10" stroke-linejoin="miter" fill="none" stroke="#000000" d="M0 0V28.3468M28.3468 0 56.69362 28.3468M56.69362 0 28.3468 28.3468M85.04042 0 113.38724 28.3468M113.38724 0 85.04042 28.3468"/>
</svg>
