<svg xmlns="http://www.w3.org/2000/svg" xmlns:xlink="http://www.w3.org/1999/xlink" xmlns:inkscape="http://www.inkscape.org/namespaces/inkscape" version="1.1" width="119" height="118" viewBox="0 0 119 118">
<defs>
<path id="font_1_79" d="M.7609863 .15579224C.7609863 .17480469 .74398806 .17480469 .72898867 .17480469H.519989L.5589905 .32421876H.72898867C.7429962 .32421876 .7609863 .32421876 .7609863 .34220887 .7609863 .36120606 .74398806 .36120606 .72898867 .36120606H.56999209L.647995 .6573334C.6519928 .6713257 .6519928 .6753235 .6519928 .6753235 .6519928 .6863251 .6439972 .69433596 .6329956 .69433596 .61898806 .69433596 .6159973 .68133547 .61299136 .6713257L.5309906 .36120606H.34399415L.42199708 .6573334C.42599488 .6713257 .42599488 .6753235 .42599488 .6753235 .42599488 .6863251 .41799928 .69433596 .40699769 .69433596 .3929901 .69433596 .3899994 .68133547 .3869934 .6713257L.30499269 .36120606H.085998538C.07199097 .36120606 .053985597 .36120606 .053985597 .34321595 .053985597 .32421876 .070999149 .32421876 .085998538 .32421876H.29499818L.2559967 .17480469H.085998538C.07199097 .17480469 .053985597 .17480469 .053985597 .15679932 .053985597 .13780213 .070999149 .13780213 .085998538 .13780213H.24499512L.16699219-.15722656C.16299439-.17123413 .16299439-.17523194 .16299439-.17523194 .16299439-.18623352 .17098999-.19422913 .18199158-.19422913 .19599915-.19422913 .19898987-.18122864 .20199585-.17123413L.28399659 .13780213H.47099305L.3929901-.15722656C.3889923-.17123413 .3889923-.17523194 .3889923-.17523194 .3889923-.18623352 .39698792-.19422913 .4079895-.19422913 .42199708-.19422913 .4249878-.18122864 .42799378-.17123413L.5099945 .13780213H.72898867C.7429962 .13780213 .7609863 .13780213 .7609863 .15579224M.5209961 .32421876 .48199464 .17480469H.2939911L.33299256 .32421876H.5209961Z"/>
<path id="font_1_32" d="M.4249878 .4412384C.4249878 .45622254 .4149933 .46022035 .4059906 .46520997L.2639923 .5341644 .4039917 .60310366C.41600038 .60910037 .4249878 .61309817 .4249878 .6280823 .4249878 .6440735 .41299439 .6550751 .39898683 .6550751 .3959961 .6550751 .3909912 .6550751 .3789978 .6460724L.25498963 .55314639 .2689972 .71502688C.269989 .7280121 .2689972 .75 .24499512 .75 .22999573 .75 .21699524 .7380066 .21998596 .72502139V.71502688L.23399353 .55314639 .10998535 .64508059C.09799194 .654068 .09700012 .6550751 .08999634 .6550751 .07598877 .6550751 .06399536 .6440735 .06399536 .6280823 .06399536 .61309817 .07398987 .60910037 .08299255 .6041107L.22499085 .53515627 .084991458 .46621705C.07299805 .46022035 .06399536 .45622254 .06399536 .4412384 .06399536 .4252472 .07598877 .41426087 .08999634 .41426087 .09298706 .41426087 .09799194 .41426087 .10998535 .4232483L.23399353 .5161743 .21998596 .35031129V.3453064C.21699524 .3313141 .22999573 .31933595 .24499512 .31933595 .2689972 .31933595 .269989 .3413086 .2689972 .35429383L.25498963 .5161743 .3789978 .4242401C.3909912 .4152527 .3919983 .41426087 .39898683 .41426087 .41299439 .41426087 .4249878 .4252472 .4249878 .4412384Z"/>
</defs>
<path transform="matrix(1,0,0,-1.00005,2.8929978,115.987)" stroke-width=".24907" stroke-linecap="butt" stroke-miterlimit="10" stroke-linejoin="miter" fill="none" stroke="#000000" d="M0 0H113.38724M0 28.3468H113.38724M0 56.69362H113.38724M0 85.04042H113.38724M0 113.37727H113.38724M0 0V113.38724M28.3468 0V113.38724M56.69362 0V113.38724M85.04042 0V113.38724M113.37727 0V113.38724M113.38724 113.38724"/>
<path transform="matrix(1,0,0,-1.00005,2.8929978,115.987)" stroke-width="1.99255" stroke-linecap="square" stroke-miterlimit="10" stroke-linejoin="miter" fill="none" stroke="#000000" d="M0 0H113.38724M0 56.69362H113.38724M0 113.37727H113.38724M0 0V113.38724M56.69362 0V113.38724M113.37727 0V113.38724M113.38724 113.38724"/>
<use data-text="#" xlink:href="#font_1_79" transform="matrix(14.3462,0,0,-14.346916,11.212997,20.355225)"/>
<use data-text="#" xlink:href="#font_1_79" transform="matrix(14.3462,0,0,-14.346916,96.253,20.355225)"/>
<use data-text="*" xlink:href="#font_1_32" transform="matrix(14.3462,0,0,-14.346916,41.898,50.496728)"/>
<use data-text="*" xlink:href="#font_1_32" transform="matrix(14.3462,0,0,-14.346916,70.244998,50.496728)"/>
<use data-text="*" xlink:href="#font_1_32" transform="matrix(14.3462,0,0,-14.346916,41.898,78.845149)"/>
<use data-text="*" xlink:href="#font_1_32" transform="matrix(14.3462,0,0,-14.346916,70.244998,78.845149)"/>
<use data-text="#" xlink:href="#font_1_79" transform="matrix(14.3462,0,0,-14.346916,11.212997,105.399478)"/>
<use data-text="#" xlink:href="#font_1_79" transform="matrix(14.3462,0,0,-14.346916,96.253,105.399478)"/>
</svg>
