<svg xmlns="http://www.w3.org/2000/svg" xmlns:xlink="http://www.w3.org/1999/xlink" xmlns:inkscape="http://www.inkscape.org/namespaces/inkscape" version="1.1" width="210" height="208" viewBox="0 0 210 208">
<path transform="matrix(1.00006,0,0,-1.00006,4.7684404,204.30254)" stroke-width=".79701" stroke-linecap="butt" stroke-miterlimit="10" stroke-linejoin="miter" fill="none" stroke="#000000" d="M2.83484 28.3468C2.83484 28.3468-7.47278 3.93304 0 0 7.47278-3.93304 40.96135-.39331 56.69362 0 72.42589 .39331 101.58803 2.83484 113.38724 2.83484 125.18643 2.83484 133.86792 .39331 141.73404 0 149.60018-.39331 162.21472 0 170.08086 0 177.94698 0 194.4946-3.93304 198.42766 0 202.36072 3.93304 198.03435 14.58107 198.42766 28.3468 198.82099 42.11253 201.26251 99.21382 201.26251 99.21382M28.3468 28.3468C28.3468 28.3468 6.7679 12.61453 2.83484 28.3468-1.0982 44.07907 0 141.73404 0 141.73404M56.69362 141.73404C56.69362 141.73404 32.27986 145.6671 28.3468 141.73404 24.41374 137.80098 28.3468 129.1195 28.3468 113.38724 28.3468 97.65497 28.3468 42.11253 28.3468 28.3468 28.3468 14.58107 20.48068 16.13992 28.3468 14.17339 36.21294 12.20686 77.1743 11.2236 85.04042 14.17339 92.90656 17.12318 85.04042 35.43349 85.04042 35.43349M141.73404 0C141.73404 0 137.80098 24.41374 141.73404 28.3468 145.6671 32.27986 166.1478 32.27986 170.08086 28.3468 174.0139 24.41374 170.08086 0 170.08086 0M170.08086 28.3468C170.08086 28.3468 170.08086 75.20776 170.08086 85.04042 170.08086 94.87308 172.04738 97.24728 170.08086 99.21382 168.11432 101.18034 155.90744 99.21382 155.90744 99.21382M141.73404 28.3468C141.73404 28.3468 117.32028 27.36354 113.38724 28.3468 109.45418 29.33006 113.38724 33.46696 113.38724 35.43349 113.38724 37.40002 113.38724 35.63733 113.38724 42.5202 113.38724 49.40306 121.25336 79.14082 113.38724 85.04042 105.5211 90.94002 64.55974 92.90656 56.69362 85.04042 48.82748 77.1743 52.76056 35.22966 56.69362 28.3468 60.62666 21.46394 77.1743 34.45023 85.04042 35.43349 92.90656 36.41676 113.38724 35.43349 113.38724 35.43349M113.38724 42.5202C113.38724 42.5202 137.80098 36.6206 141.73404 42.5202 145.6671 48.4198 141.73404 75.20775 141.73404 85.04042 141.73404 94.8731 145.6671 109.45418 141.73404 113.38724 137.80098 117.32028 121.25336 113.97716 113.38724 113.38724 105.5211 112.7973 92.90656 109.13538 85.04042 109.13538 77.1743 109.13538 62.59322 112.7973 56.69362 113.38724 50.794 113.97716 44.48672 117.32028 42.5202 113.38724 40.55367 109.45418 40.55367 88.97348 42.5202 85.04042 44.48672 81.10736 56.69362 85.04042 56.69362 85.04042M141.73404 85.04042C141.73404 85.04042 153.94092 83.0739 155.90744 85.04042 157.87397 87.00694 155.90744 94.49416 155.90744 99.21382 155.90744 103.93349 155.90744 113.1569 155.90744 119.0565 155.90744 124.9561 161.80704 138.58759 155.90744 141.73404 150.00785 144.88051 119.28683 145.6671 113.38724 141.73404 107.48764 137.80098 113.38724 113.38724 113.38724 113.38724M170.08086 85.04042C170.08086 85.04042 197.32946 91.34769 201.26251 99.21382 205.19557 107.07994 204.72058 138.98091 198.42766 141.73404 192.13474 144.48717 155.90744 119.0565 155.90744 119.0565M198.42766 141.73404C198.42766 141.73404 153.53324 176.38813 141.73404 184.25424 129.93485 192.12038 129.1195 196.46114 113.38724 198.42766 97.65497 200.3942 44.07907 206.2938 28.3468 198.42766 12.61453 190.56154 0 153.53324 0 141.73404 0 129.93485 28.3468 113.38724 28.3468 113.38724M56.69362 113.38724C56.69362 113.38724 57.48021 135.83444 56.69362 141.73404 55.90701 147.63364 51.02432 151.97438 51.02432 155.90744 51.02432 159.8405 51.97394 166.1478 56.69362 170.08086 61.41328 174.0139 77.1743 188.1873 85.04042 184.25424 92.90656 180.3212 113.38724 141.73404 113.38724 141.73404M28.3468 198.42766 85.04042 184.25424"/>
</svg>
