<svg xmlns="http://www.w3.org/2000/svg" xmlns:xlink="http://www.w3.org/1999/xlink" xmlns:inkscape="http://www.inkscape.org/namespaces/inkscape" version="1.1" width="64" height="73" viewBox="0 0 64 73">
<defs>
<path id="font_1_1" d="M.3919983 .38137818C.3829956 .39839173 .35398866 .44140626 .29299928 .44140626 .17399597 .44140626 .042999269 .3023529 .042999269 .15428162 .042999269 .050247194 .10998535-.009765625 .18699646-.009765625 .25099183-.009765625 .30599977 .041229249 .32398988 .06124878 .34199525-.0077667238 .4099884-.009765625 .42199708-.009765625 .46798707-.009765625 .4909973 .02822876 .49899293 .04524231 .5189972 .08125305 .5329895 .13928223 .5329895 .14328003 .5329895 .14927674 .5289917 .15628052 .5169983 .15628052 .5049896 .15628052 .5029907 .15028382 .49699403 .12527466 .48298646 .070251468 .46398927 .018234253 .4249878 .018234253 .4019928 .018234253 .3929901 .037231447 .3929901 .06524658 .3929901 .08226013 .4019928 .11627197 .4079895 .14128113 .4139862 .16629029 .42900086 .22631836 .43299867 .24432373L.45298768 .32035829C.45799256 .3443756 .46899415 .38638307 .46899415 .39138795 .46899415 .4143982 .44999696 .4223938 .43699647 .4223938 .42199708 .4223938 .39698792 .4123993 .3919983 .38137818M.32398988 .10826111C.27398683 .039230348 .22200012 .018234253 .18998719 .018234253 .14399719 .018234253 .12098694 .0602417 .12098694 .11227417 .12098694 .1592865 .147995 .2663269 .16999817 .3103485 .19898987 .37138368 .24798584 .4133911 .2939911 .4133911 .35899354 .4133911 .37799073 .34036256 .37799073 .32835389 .37799073 .32435609 .35299684 .22631836 .34700013 .20030213 .33399964 .1532898 .33399964 .1512909 .32398988 .10826111Z"/>
<path id="font_1_2" d="M.24398804 .66430667C.24499512 .66630557 .24798584 .67930606 .24798584 .68029788 .24798584 .68530276 .24398804 .6943054 .23199463 .6943054 .22799683 .6943054 .19699097 .69129946 .17399597 .68930056L.117996219 .68530276C.09599304 .68330386 .085998538 .682312 .085998538 .66430667 .085998538 .6502991 .099990848 .6502991 .11199951 .6502991 .1599884 .6502991 .1599884 .64430239 .1599884 .63531497 .1599884 .62931826 .1499939 .5893402 .14399719 .5663452L.056991579 .2183075C.04899597 .18429566 .04899597 .16929627 .04899597 .15228272 .04899597 .049240114 .11199951-.009765625 .18899536-.009765625 .31199647-.009765625 .43998719 .13227844 .43998719 .27734376 .43998719 .37638856 .37599183 .44140626 .29599 .44140626 .23999024 .44140626 .19699097 .4053955 .1749878 .38638307L.24398804 .66430667M.18899536 .018234253C.15299988 .018234253 .116989139 .04623413 .116989139 .119277957 .116989139 .14628601 .12098694 .17129517 .1329956 .21931458 .13999939 .24832154 .14698792 .27633668 .15499878 .3053589 .1599884 .32336427 .1599884 .32536317 .17199707 .34036256 .20599365 .38238526 .25099183 .4133911 .29299928 .4133911 .34298707 .4133911 .3619995 .36437989 .3619995 .3193512 .3619995 .28234864 .33999635 .17529297 .30999757 .11627197 .28399659 .0622406 .23599243 .018234253 .18899536 .018234253Z"/>
<path id="font_1_3" d="M.40899659 .38304139C.36799623 .3780365 .35499574 .34703065 .35499574 .32702638 .35499574 .29803468 .3809967 .29003907 .3939972 .29003907 .39898683 .29003907 .44999696 .29403688 .44999696 .35502626 .44999696 .4163971 .38398744 .44140626 .32398988 .44140626 .18199158 .44140626 .04399109 .3030243 .04399109 .16311646 .04399109 .06819153 .10899353-.009765625 .21998596-.009765625 .37799073-.009765625 .46099855 .091171268 .46099855 .10417175 .46099855 .11315918 .45098878 .120147708 .44499208 .120147708 .43899537 .120147708 .43598939 .11715698 .43099977 .11116028 .35198976 .018234253 .23999024 .018234253 .22200012 .018234253 .16799927 .018234253 .125 .051208497 .125 .12715149 .125 .17111206 .14498902 .27703858 .19198609 .33903504 .23599243 .39518739 .28599549 .4133911 .32499696 .4133911 .33699037 .4133911 .3829956 .41238404 .40899659 .38304139Z"/>
<path id="font_1_5" d="M.20098877 .22851563C.22299195 .22851563 .2979889 .22950745 .35099793 .24850464 .43798829 .27848817 .44099427 .3384552 .44099427 .35343934 .44099427 .40940858 .3880005 .44140626 .32299806 .44140626 .20999146 .44140626 .04899597 .3524475 .04899597 .1754303 .04899597 .07330322 .11099243-.009765625 .22099304-.009765625 .3769989-.009765625 .46099855 .09031677 .46099855 .1043396 .46099855 .113357547 .45098878 .12036133 .44499208 .12036133 .43899537 .12036133 .43598939 .11735535 .43099977 .11135864 .35198976 .018234253 .23999024 .018234253 .22299195 .018234253 .1499939 .018234253 .12799073 .08030701 .12799073 .13638306 .12799073 .16642761 .13699341 .21148682 .14099121 .22851563H.20098877M.14898682 .2565155C.18099976 .37841798 .27198792 .4133911 .32299806 .4133911 .36299134 .4133911 .40098573 .39341737 .40098573 .35343934 .40098573 .2565155 .23699951 .2565155 .19499207 .2565155H.14898682Z"/>
<path id="font_1_4" d="M.5379944 .66430667C.5389862 .66630557 .5419922 .67930606 .5419922 .68029788 .5419922 .68530276 .5379944 .6943054 .526001 .6943054 .5219879 .6943054 .4909973 .69129946 .46798707 .68930056L.4119873 .68530276C.3899994 .68330386 .37998963 .682312 .37998963 .66430667 .37998963 .6502991 .3939972 .6502991 .4059906 .6502991 .45399476 .6502991 .45399476 .64430239 .45399476 .63531497 .45399476 .62931826 .44599916 .59632876 .44099427 .5763397L.3919983 .38137818C.3829956 .39839173 .35398866 .44140626 .29299928 .44140626 .17399597 .44140626 .042999269 .3023529 .042999269 .15428162 .042999269 .050247194 .10998535-.009765625 .18699646-.009765625 .25099183-.009765625 .30599977 .041229249 .32398988 .06124878 .34199525-.0077667238 .4099884-.009765625 .42199708-.009765625 .46798707-.009765625 .4909973 .02822876 .49899293 .04524231 .5189972 .08125305 .5329895 .13928223 .5329895 .14328003 .5329895 .14927674 .5289917 .15628052 .5169983 .15628052 .5049896 .15628052 .5029907 .15028382 .49699403 .12527466 .48298646 .070251468 .46398927 .018234253 .4249878 .018234253 .4019928 .018234253 .3929901 .037231447 .3929901 .06524658 .3929901 .08425903 .3959961 .09526062 .39898683 .10826111L.5379944 .66430667M.32398988 .10826111C.27398683 .039230348 .22200012 .018234253 .18998719 .018234253 .14399719 .018234253 .12098694 .0602417 .12098694 .11227417 .12098694 .1592865 .147995 .2663269 .16999817 .3103485 .19898987 .37138368 .24798584 .4133911 .2939911 .4133911 .35899354 .4133911 .37799073 .34036256 .37799073 .32835389 .37799073 .32435609 .35299684 .22631836 .34700013 .20030213 .33399964 .1532898 .33399964 .1512909 .32398988 .10826111Z"/>
<path id="font_1_6" d="M.3829956 .3976593H.47599793C.49598695 .3976593 .5079956 .3976593 .5079956 .4166565 .5079956 .43066407 .49499513 .43066407 .47799684 .43066407H.3889923C.40499879 .5209503 .4149933 .578125 .4249878 .62312319 .42900086 .64012148 .43199159 .65112307 .44699098 .66311648 .45999146 .6741028 .46798707 .6760864 .47898866 .6760864 .49398805 .6760864 .5099945 .6730957 .522995 .66511538 .5179901 .66311648 .5119934 .66012576 .5069885 .65711978 .48999024 .6481323 .47799684 .63012698 .47799684 .6101227 .47799684 .5871277 .49598695 .5731201 .5179901 .5731201 .5469971 .5731201 .57398989 .5981293 .57398989 .6331177 .57398989 .6800995 .526001 .70410159 .47799684 .70410159 .44400025 .70410159 .3809967 .6880951 .34899903 .5961304 .33999635 .5731201 .33999635 .5711212 .31298829 .43066407H.23799134C.21798706 .43066407 .20599365 .43066407 .20599365 .4116516 .20599365 .3976593 .21899414 .3976593 .23599243 .3976593H.30699159L.23498535 .00982666C.21598816-.09114075 .20098877-.17610169 .147995-.17610169 .14498902-.17610169 .12399292-.17610169 .10499573-.1641388 .15098572-.1531372 .15098572-.11114502 .15098572-.11013794 .15098572-.087142948 .1329956-.073135379 .11099243-.073135379 .083999637-.073135379 .054992677-.09614563 .054992677-.13414002 .054992677-.17610169 .09799194-.20410156 .147995-.20410156 .20899964-.20410156 .25099183-.14013672 .2639923-.11514282 .2999878-.04914856 .32299806 .075790408 .32499696 .08578491L.3829956 .3976593Z"/>
<path id="font_2_1" d="M.7599945 .69506838C.7599945 .69807437 .7579956 .7050781 .7489929 .7050781 .74598696 .7050781 .7449951 .70407107 .73399356 .69306948L.6639862 .61598208C.6549988 .6300049 .60899356 .7050781 .49798585 .7050781 .2749939 .7050781 .049987794 .4837799 .049987794 .25144959 .049987794 .09249878 .16099549-.022460938 .32299806-.022460938 .36698915-.022460938 .4119873-.013473511 .44799806 .0015258789 .49798585 .021530152 .5169983 .042526246 .5349884 .06251526 .5439911 .037521364 .56999209 .0005340576 .5799866 .0005340576 .58499148 .0005340576 .58699038 .0035247803 .58699038 .0045318605 .58898928 .0065307619 .598999 .044525148 .60398867 .06550598L.6230011 .14248657C.6269989 .15948487 .6319885 .1764679 .6359863 .19346619 .6469879 .2384491 .647995 .240448 .7049866 .24145508 .70999148 .24145508 .72099307 .2424469 .72099307 .26145936 .72099307 .26844789 .71598818 .27246095 .70799258 .27246095 .68499758 .27246095 .6259918 .26945497 .6029968 .26945497 .57199099 .26945497 .49398805 .27246095 .46299745 .27246095 .45399476 .27246095 .44198609 .27246095 .44198609 .25245667 .44198609 .24145508 .44999696 .24145508 .47200013 .24145508 .47299195 .24145508 .5019989 .24145508 .5249939 .23945618 .5509949 .2364502 .55599978 .23345948 .55599978 .22045899 .55599978 .2114563 .54499819 .16647339 .5349884 .12948609 .5069885 .01953125 .3769989 .008529663 .34199525 .008529663 .24598694 .008529663 .14099121 .06550598 .14099121 .21846009 .14099121 .24945069 .15098572 .41467286 .2559967 .5448761 .30999757 .6129761 .40699769 .67407229 .5059967 .67407229 .60798647 .67407229 .6669922 .59695437 .6669922 .48077394 .6669922 .44070436 .6639862 .43971253 .6639862 .4296875 .6639862 .41967774 .6749878 .41967774 .67900088 .41967774 .69200137 .41967774 .69200137 .42167665 .69699099 .43971253L.7599945 .69506838Z"/>
<path id="font_3_1" d="M.33499146 .63612368C.33499146 .6630554 .33299256 .6640625 .30499269 .6640625 .24099732 .6014404 .1499939 .6004486 .10899353 .6004486V.5644531C.1329956 .5644531 .19898987 .5644531 .2539978 .592453V.08203125C.2539978 .04899597 .2539978 .035995485 .1539917 .035995485H.115997318V0C.13398743 .0009918213 .25698854 .0039978029 .2939911 .0039978029 .32499696 .0039978029 .45098878 .0009918213 .47299195 0V.035995485H.43499757C.33499146 .035995485 .33499146 .04899597 .33499146 .08203125V.63612368Z"/>
</defs>
<path transform="matrix(1.00009,0,0,-1.00003,31.816514,48.94799)" stroke-width=".3985" stroke-linecap="butt" stroke-miterlimit="10" stroke-linejoin="miter" fill="none" stroke="#000000" d="M-28.3468 0H0 28.3468L14.17339 22.67752 0 0-14.17339 22.67752 0 45.35506 14.17339 22.67752H-14.17339L-28.3468 0"/>
<path transform="matrix(1.00009,0,0,-1.00003,31.816514,48.94799)" d="M-26.35425 0C-26.35425 1.10046-27.24634 1.99255-28.3468 1.99255-29.44728 1.99255-30.33936 1.10046-30.33936 0-30.33936-1.10046-29.44728-1.99255-28.3468-1.99255-27.24634-1.99255-26.35425-1.10046-26.35425 0ZM-28.3468 0"/>
<use data-text="a" xlink:href="#font_1_1" transform="matrix(7.970817,0,0,-7.9703395,1.2177582,58.091264)"/>
<path transform="matrix(1.00009,0,0,-1.00003,31.816514,48.94799)" d="M1.99255 0C1.99255 1.10046 1.10046 1.99255 0 1.99255-1.10046 1.99255-1.99255 1.10046-1.99255 0-1.99255-1.10046-1.10046-1.99255 0-1.99255 1.10046-1.99255 1.99255-1.10046 1.99255 0ZM0 0"/>
<use data-text="b" xlink:href="#font_1_2" transform="matrix(7.970817,0,0,-7.9703395,30.005349,60.195329)"/>
<path transform="matrix(1.00009,0,0,-1.00003,31.816514,48.94799)" d="M30.33936 0C30.33936 1.10046 29.44728 1.99255 28.3468 1.99255 27.24634 1.99255 26.35425 1.10046 26.35425 0 26.35425-1.10046 27.24634-1.99255 28.3468-1.99255 29.44728-1.99255 30.33936-1.10046 30.33936 0ZM28.3468 0"/>
<use data-text="c" xlink:href="#font_1_3" transform="matrix(7.970817,0,0,-7.9703395,58.3319,58.091264)"/>
<path transform="matrix(1.00009,0,0,-1.00003,31.816514,48.94799)" d="M16.16594 22.67752C16.16594 23.77798 15.27386 24.67007 14.17339 24.67007 13.07292 24.67007 12.18083 23.77798 12.18083 22.67752 12.18083 21.57704 13.07292 20.68497 14.17339 20.68497 15.27386 20.68497 16.16594 21.57704 16.16594 22.67752ZM14.17339 22.67752"/>
<use data-text="e" xlink:href="#font_1_5" transform="matrix(7.970817,0,0,-7.9703395,44.02661,35.412584)"/>
<path transform="matrix(1.00009,0,0,-1.00003,31.816514,48.94799)" d="M-12.18083 22.67752C-12.18083 23.77798-13.07292 24.67007-14.17339 24.67007-15.27386 24.67007-16.16594 23.77798-16.16594 22.67752-16.16594 21.57704-15.27386 20.68497-14.17339 20.68497-13.07292 20.68497-12.18083 21.57704-12.18083 22.67752ZM-14.17339 22.67752"/>
<use data-text="d" xlink:href="#font_1_4" transform="matrix(7.970817,0,0,-7.9703395,15.463043,37.515649)"/>
<path transform="matrix(1.00009,0,0,-1.00003,31.816514,48.94799)" d="M1.99255 45.35506C1.99255 46.45552 1.10046 47.34761 0 47.34761-1.10046 47.34761-1.99255 46.45552-1.99255 45.35506-1.99255 44.25458-1.10046 43.3625 0 43.3625 1.10046 43.3625 1.99255 44.25458 1.99255 45.35506ZM0 45.35506"/>
<use data-text="f" xlink:href="#font_1_6" transform="matrix(7.970817,0,0,-7.9703395,29.343293,14.835964)"/>
<use data-text="G" xlink:href="#font_2_1" transform="matrix(9.963496,0,0,-9.962899,25.664963,70.61464)"/>
<use data-text="1" xlink:href="#font_3_1" transform="matrix(6.9744279,0,0,-6.9740097,33.498666,72.10968)"/>
</svg>
