<svg xmlns="http://www.w3.org/2000/svg" xmlns:xlink="http://www.w3.org/1999/xlink" xmlns:inkscape="http://www.inkscape.org/namespaces/inkscape" version="1.1" width="153" height="40" viewBox="0 0 153 40">
<defs>
<path id="font_1_1" d="M.3919983 .38137818C.3829956 .39839173 .35398866 .44140626 .29299928 .44140626 .17399597 .44140626 .042999269 .3023529 .042999269 .15428162 .042999269 .050247194 .10998535-.009765625 .18699646-.009765625 .25099183-.009765625 .30599977 .041229249 .32398988 .06124878 .34199525-.0077667238 .4099884-.009765625 .42199708-.009765625 .46798707-.009765625 .4909973 .02822876 .49899293 .04524231 .5189972 .08125305 .5329895 .13928223 .5329895 .14328003 .5329895 .14927674 .5289917 .15628052 .5169983 .15628052 .5049896 .15628052 .5029907 .15028382 .49699403 .12527466 .48298646 .070251468 .46398927 .018234253 .4249878 .018234253 .4019928 .018234253 .3929901 .037231447 .3929901 .06524658 .3929901 .08226013 .4019928 .11627197 .4079895 .14128113 .4139862 .16629029 .42900086 .22631836 .43299867 .24432373L.45298768 .32035829C.45799256 .3443756 .46899415 .38638307 .46899415 .39138795 .46899415 .4143982 .44999696 .4223938 .43699647 .4223938 .42199708 .4223938 .39698792 .4123993 .3919983 .38137818M.32398988 .10826111C.27398683 .039230348 .22200012 .018234253 .18998719 .018234253 .14399719 .018234253 .12098694 .0602417 .12098694 .11227417 .12098694 .1592865 .147995 .2663269 .16999817 .3103485 .19898987 .37138368 .24798584 .4133911 .2939911 .4133911 .35899354 .4133911 .37799073 .34036256 .37799073 .32835389 .37799073 .32435609 .35299684 .22631836 .34700013 .20030213 .33399964 .1532898 .33399964 .1512909 .32398988 .10826111Z"/>
<path id="font_1_2" d="M.24398804 .66430667C.24499512 .66630557 .24798584 .67930606 .24798584 .68029788 .24798584 .68530276 .24398804 .6943054 .23199463 .6943054 .22799683 .6943054 .19699097 .69129946 .17399597 .68930056L.117996219 .68530276C.09599304 .68330386 .085998538 .682312 .085998538 .66430667 .085998538 .6502991 .099990848 .6502991 .11199951 .6502991 .1599884 .6502991 .1599884 .64430239 .1599884 .63531497 .1599884 .62931826 .1499939 .5893402 .14399719 .5663452L.056991579 .2183075C.04899597 .18429566 .04899597 .16929627 .04899597 .15228272 .04899597 .049240114 .11199951-.009765625 .18899536-.009765625 .31199647-.009765625 .43998719 .13227844 .43998719 .27734376 .43998719 .37638856 .37599183 .44140626 .29599 .44140626 .23999024 .44140626 .19699097 .4053955 .1749878 .38638307L.24398804 .66430667M.18899536 .018234253C.15299988 .018234253 .116989139 .04623413 .116989139 .119277957 .116989139 .14628601 .12098694 .17129517 .1329956 .21931458 .13999939 .24832154 .14698792 .27633668 .15499878 .3053589 .1599884 .32336427 .1599884 .32536317 .17199707 .34036256 .20599365 .38238526 .25099183 .4133911 .29299928 .4133911 .34298707 .4133911 .3619995 .36437989 .3619995 .3193512 .3619995 .28234864 .33999635 .17529297 .30999757 .11627197 .28399659 .0622406 .23599243 .018234253 .18899536 .018234253Z"/>
<path id="font_1_3" d="M.40899659 .38304139C.36799623 .3780365 .35499574 .34703065 .35499574 .32702638 .35499574 .29803468 .3809967 .29003907 .3939972 .29003907 .39898683 .29003907 .44999696 .29403688 .44999696 .35502626 .44999696 .4163971 .38398744 .44140626 .32398988 .44140626 .18199158 .44140626 .04399109 .3030243 .04399109 .16311646 .04399109 .06819153 .10899353-.009765625 .21998596-.009765625 .37799073-.009765625 .46099855 .091171268 .46099855 .10417175 .46099855 .11315918 .45098878 .120147708 .44499208 .120147708 .43899537 .120147708 .43598939 .11715698 .43099977 .11116028 .35198976 .018234253 .23999024 .018234253 .22200012 .018234253 .16799927 .018234253 .125 .051208497 .125 .12715149 .125 .17111206 .14498902 .27703858 .19198609 .33903504 .23599243 .39518739 .28599549 .4133911 .32499696 .4133911 .33699037 .4133911 .3829956 .41238404 .40899659 .38304139Z"/>
<path id="font_2_1" d="M.7599945 .69506838C.7599945 .69807437 .7579956 .7050781 .7489929 .7050781 .74598696 .7050781 .7449951 .70407107 .73399356 .69306948L.6639862 .61598208C.6549988 .6300049 .60899356 .7050781 .49798585 .7050781 .2749939 .7050781 .049987794 .4837799 .049987794 .25144959 .049987794 .09249878 .16099549-.022460938 .32299806-.022460938 .36698915-.022460938 .4119873-.013473511 .44799806 .0015258789 .49798585 .021530152 .5169983 .042526246 .5349884 .06251526 .5439911 .037521364 .56999209 .0005340576 .5799866 .0005340576 .58499148 .0005340576 .58699038 .0035247803 .58699038 .0045318605 .58898928 .0065307619 .598999 .044525148 .60398867 .06550598L.6230011 .14248657C.6269989 .15948487 .6319885 .1764679 .6359863 .19346619 .6469879 .2384491 .647995 .240448 .7049866 .24145508 .70999148 .24145508 .72099307 .2424469 .72099307 .26145936 .72099307 .26844789 .71598818 .27246095 .70799258 .27246095 .68499758 .27246095 .6259918 .26945497 .6029968 .26945497 .57199099 .26945497 .49398805 .27246095 .46299745 .27246095 .45399476 .27246095 .44198609 .27246095 .44198609 .25245667 .44198609 .24145508 .44999696 .24145508 .47200013 .24145508 .47299195 .24145508 .5019989 .24145508 .5249939 .23945618 .5509949 .2364502 .55599978 .23345948 .55599978 .22045899 .55599978 .2114563 .54499819 .16647339 .5349884 .12948609 .5069885 .01953125 .3769989 .008529663 .34199525 .008529663 .24598694 .008529663 .14099121 .06550598 .14099121 .21846009 .14099121 .24945069 .15098572 .41467286 .2559967 .5448761 .30999757 .6129761 .40699769 .67407229 .5059967 .67407229 .60798647 .67407229 .6669922 .59695437 .6669922 .48077394 .6669922 .44070436 .6639862 .43971253 .6639862 .4296875 .6639862 .41967774 .6749878 .41967774 .67900088 .41967774 .69200137 .41967774 .69200137 .42167665 .69699099 .43971253L.7599945 .69506838Z"/>
<path id="font_3_1" d="M.33499146 .63612368C.33499146 .6630554 .33299256 .6640625 .30499269 .6640625 .24099732 .6014404 .1499939 .6004486 .10899353 .6004486V.5644531C.1329956 .5644531 .19898987 .5644531 .2539978 .592453V.08203125C.2539978 .04899597 .2539978 .035995485 .1539917 .035995485H.115997318V0C.13398743 .0009918213 .25698854 .0039978029 .2939911 .0039978029 .32499696 .0039978029 .45098878 .0009918213 .47299195 0V.035995485H.43499757C.33499146 .035995485 .33499146 .04899597 .33499146 .08203125V.63612368Z"/>
<path id="font_3_2" d="M.5049896 .18203736H.47099305C.46798707 .16001892 .45799256 .100997928 .44499208 .09098816 .43699647 .084991458 .3600006 .084991458 .34599305 .084991458H.1619873C.2669983 .17803955 .3019867 .20603943 .3619995 .25306703 .43598939 .312088 .5049896 .374115 .5049896 .46914674 .5049896 .5900879 .39898683 .6640625 .2709961 .6640625 .14698792 .6640625 .06298828 .57710269 .06298828 .4851532 .06298828 .43414308 .10598755 .42915345 .115997318 .42915345 .13999939 .42915345 .16899109 .44615174 .16899109 .48214723 .16899109 .5001526 .1619873 .53515627 .10998535 .53515627 .14099121 .6060791 .20899964 .62805178 .2559967 .62805178 .35598756 .62805178 .4079895 .5501404 .4079895 .46914674 .4079895 .38212586 .34599305 .3130951 .31399537 .27708436L.07299805 .038986207C.06298828 .02999878 .06298828 .027999878 .06298828 0H.47499085L.5049896 .18203736Z"/>
</defs>
<path transform="matrix(1,0,0,-1,7.367996,26.916)" stroke-width=".3985" stroke-linecap="butt" stroke-miterlimit="10" stroke-linejoin="miter" fill="none" stroke="#000000" d="M0 0H28.3468 56.69362"/>
<path transform="matrix(1,0,0,-1,7.367996,26.916)" d="M1.99255 0C1.99255 1.10046 1.10046 1.99255 0 1.99255-1.10046 1.99255-1.99255 1.10046-1.99255 0-1.99255-1.10046-1.10046-1.99255 0-1.99255 1.10046-1.99255 1.99255-1.10046 1.99255 0ZM0 0"/>
<use data-text="a" xlink:href="#font_1_1" transform="matrix(7.9701,0,0,-7.9701,5.1189959,36.059)"/>
<path transform="matrix(1,0,0,-1,7.367996,26.916)" d="M30.33936 0C30.33936 1.10046 29.44728 1.99255 28.3468 1.99255 27.24634 1.99255 26.35425 1.10046 26.35425 0 26.35425-1.10046 27.24634-1.99255 28.3468-1.99255 29.44728-1.99255 30.33936-1.10046 30.33936 0ZM28.3468 0"/>
<use data-text="b" xlink:href="#font_1_2" transform="matrix(7.9701,0,0,-7.9701,33.902997,38.162004)"/>
<path transform="matrix(1,0,0,-1,7.367996,26.916)" d="M58.68617 0C58.68617 1.10046 57.79408 1.99255 56.69362 1.99255 55.59314 1.99255 54.70107 1.10046 54.70107 0 54.70107-1.10046 55.59314-1.99255 56.69362-1.99255 57.79408-1.99255 58.68617-1.10046 58.68617 0ZM56.69362 0"/>
<use data-text="c" xlink:href="#font_1_3" transform="matrix(7.9701,0,0,-7.9701,62.227998,36.059)"/>
<use data-text="G" xlink:href="#font_2_1" transform="matrix(9.9626,0,0,-9.9626,1.2169952,10.563)"/>
<use data-text="1" xlink:href="#font_3_1" transform="matrix(6.9738,0,0,-6.9738,9.050995,12.056999)"/>
<path transform="matrix(1,0,0,-1,7.367996,26.916)" stroke-width=".3985" stroke-linecap="butt" stroke-miterlimit="10" stroke-linejoin="miter" fill="none" stroke="#000000" d="M141.73407 0H113.38727 85.04045"/>
<path transform="matrix(1,0,0,-1,7.367996,26.916)" d="M143.72663 0C143.72663 1.10046 142.83455 1.99255 141.73407 1.99255 140.6336 1.99255 139.74152 1.10046 139.74152 0 139.74152-1.10046 140.6336-1.99255 141.73407-1.99255 142.83455-1.99255 143.72663-1.10046 143.72663 0ZM141.73407 0"/>
<use data-text="b" xlink:href="#font_1_2" transform="matrix(7.9701,0,0,-7.9701,147.291,38.162004)"/>
<path transform="matrix(1,0,0,-1,7.367996,26.916)" d="M115.37982 0C115.37982 1.10046 114.48773 1.99255 113.38727 1.99255 112.28679 1.99255 111.39471 1.10046 111.39471 0 111.39471-1.10046 112.28679-1.99255 113.38727-1.99255 114.48773-1.99255 115.37982-1.10046 115.37982 0ZM113.38727 0"/>
<use data-text="c" xlink:href="#font_1_3" transform="matrix(7.9701,0,0,-7.9701,118.921,36.059)"/>
<path transform="matrix(1,0,0,-1,7.367996,26.916)" d="M87.033 0C87.033 1.10046 86.14093 1.99255 85.04045 1.99255 83.93999 1.99255 83.0479 1.10046 83.0479 0 83.0479-1.10046 83.93999-1.99255 85.04045-1.99255 86.14093-1.99255 87.033-1.10046 87.033 0ZM85.04045 0"/>
<use data-text="a" xlink:href="#font_1_1" transform="matrix(7.9701,0,0,-7.9701,90.159,36.059)"/>
<use data-text="G" xlink:href="#font_2_1" transform="matrix(9.9626,0,0,-9.9626,114.604,7.7280008)"/>
<use data-text="2" xlink:href="#font_3_2" transform="matrix(6.9738,0,0,-6.9738,122.437999,9.222)"/>
</svg>
