<svg xmlns="http://www.w3.org/2000/svg" xmlns:xlink="http://www.w3.org/1999/xlink" xmlns:inkscape="http://www.inkscape.org/namespaces/inkscape" version="1.1" width="137" height="136" viewBox="0 0 137 136">
<defs>
<path id="font_1_27" d="M.9089966 0V.04399109H.8829956C.82099917 .04399109 .80599978 .049987794 .7939911 .07698059L.5249939 .68981936C.5169983 .70780947 .5139923 .7158203 .48999024 .7158203 .47200013 .7158203 .46398927 .71180728 .45498658 .69181826L.19699097 .10298157C.1749878 .052993776 .12098694 .04399109 .070999149 .04399109V0C.10798645 .0029907227 .1499939 .0039978029 .18699646 .0039978029 .19999695 .0039978029 .2709961 .0029907227 .31698609 0V.04399109C.26098634 .043945314 .24099732 .06893921 .24099732 .0879364 .24099732 .09391785 .24299622 .09692383 .24598694 .104904178L.2979889 .22265625H.61898806L.6799927 .08293152C.6859894 .07093811 .6859894 .06793213 .6859894 .06793213 .6859894 .043945314 .6289978 .043945314 .59999087 .043945314V0L.7619934 .0039978029 .9089966 0M.59999087 .26664735H.31698609L.45799256 .58865359 .59999087 .26664735Z"/>
<path id="font_1_72" d="M.33399964 0V.04399109H.31599427C.25099183 .04399109 .25099183 .052993776 .25099183 .08401489V.69433596L.08299255 .6826172V.63861086C.15699768 .63861086 .1659851 .6316223 .1659851 .5826416V.083969119C.1659851 .052993776 .1659851 .04399109 .100997928 .04399109H.08299255V0C.125 .0029907227 .1659851 .0039978029 .20799256 .0039978029 .25 .0039978029 .2919922 .0029907227 .33399964 0Z"/>
<path id="font_1_34" d="M.83699038 .184906C.83699038 .25585938 .7649994 .33680726 .6029968 .3577881 .70399478 .3737793 .8019867 .43174745 .8019867 .51168826 .8019867 .6046295 .6779938 .6826172 .5289917 .6826172H.08699036V.63861086H.116989139C.19799805 .63861086 .19799805 .62861636 .19799805 .597641V.08496094C.19799805 .053985597 .19799805 .04399109 .116989139 .04399109H.08699036V0H.56199648C.71598818-.0001373291 .83699038 .085861209 .83699038 .18486023V.184906M.69299319 .5107269C.69299319 .43780519 .6049957 .3718567 .49499513 .3718567H.29599V.600647C.29599 .6316223 .29599 .63861086 .34498597 .63861086H.5219879C.6289978 .638855 .69299319 .5728607 .69299319 .51086428V.5107269M.723999 .18592835C.723999 .110961917 .6409912 .04399109 .5239868 .04399109H.34498597C.29599 .04399109 .29599 .050994874 .29599 .081970218V.3388672H.5319977C.66600039 .33898927 .723999 .25099183 .723999 .18598938V.18592835Z"/>
<path id="font_1_81" d="M.61499026 .21324158C.61499026 .33824159 .49699403 .4482422 .33999635 .4482422 .18299866 .4482422 .06498718 .33824159 .06498718 .21324158 .06498718 .09324646 .18399048-.0107421879 .33999635-.0107421879 .49699403-.0107421879 .61499026 .09324646 .61499026 .21324158M.5149994 .22323609C.5149994 .17424011 .5149994 .025253296 .33999635 .025253296 .16499329 .025253296 .16499329 .17424011 .16499329 .22323609 .16499329 .26823426 .16499329 .41523744 .33999635 .41523744 .5149994 .41523744 .5149994 .26823426 .5149994 .22323609Z"/>
<path id="font_1_35" d="M.6769867 .2163086C.6769867 .3363495 .56599429 .4423828 .4149933 .4423828 .36099244 .4423828 .2979889 .42837525 .24398804 .3863678V.69433596L.07598877 .68333438V.639328C.1499939 .639328 .15899658 .6323242 .15899658 .5833435V.00024414063H.20098877C.20899964 .013244629 .21699524 .027252198 .22399903 .040252687 .22698975 .04626465 .23098755 .053253175 .23498535 .059265138 .27799989 .013244629 .33898927-.0107421879 .4019928-.0107421879 .55400088-.0107421879 .6769867 .091278079 .6769867 .2163086M.57699587 .2163086C.57699587 .15829468 .56399539 .107284549 .5249939 .07026672 .49299623 .040252687 .44400025 .022247315 .3959961 .022247315 .32798768 .022247315 .27598573 .060256959 .24798584 .106277469V.3343506C.28199769 .38336183 .34799195 .40937806 .4079895 .40937806 .526001 .40937806 .57699587 .32234193 .57699587 .2163086Z"/>
<path id="font_1_42" d="M.8600006 .23370362C.8600006 .24972534 .85598757 .25473023 .83898928 .25473023 .8279877 .25473023 .81900027 .25473023 .81799319 .23771668 .80999758 .08558655 .6649933 .021530152 .5479889 .021530152 .4059906 .021530152 .21398926 .099594119 .21398926 .34179688 .21398926 .58000186 .4019928 .6610718 .5469971 .6610718 .6369934 .6610718 .7839966 .61302188 .81599429 .42686463 .81799319 .41485597 .8299866 .41485597 .83799746 .41485597 .8600006 .41485597 .8600006 .42185975 .8600006 .44288636V.677063C.8600006 .69407656 .8600006 .7050781 .84399417 .7050781 .83399966 .7050781 .83099368 .70106509 .82499697 .69306948L.7659912 .61602786C.7049866 .66807559 .6279907 .7050781 .5289917 .7050781 .2869873 .7050781 .09700012 .53796389 .09700012 .34179688 .09700012 .14363098 .2869873-.022460938 .5299988-.022460938 .72299197-.022460938 .8600006 .1006012 .8600006 .23370362Z"/>
<path id="font_1_28" d="M.6349945 .090148929V.14515686H.59298709V.09214783C.59298709 .08213806 .59298709 .038131715 .5529938 .038131715 .5130005 .038131715 .5130005 .08213806 .5130005 .09214783V.2972107C.5130005 .39323426 .4119873 .4482422 .28799439 .4482422 .22698975 .4482422 .11099243 .4452362 .11099243 .36021424 .11099243 .32321168 .13899231 .30619813 .1639862 .30619813 .19099427 .30619813 .21699524 .32521058 .21699524 .3592224 .21699524 .3832245 .20298767 .39822389 .19400025 .40423585 .22698975 .41523744 .2749939 .41523744 .28599549 .41523744 .37098695 .41523744 .42399598 .3682251 .42399598 .2962036V.27020265C.32699586 .26519776 .272995 .26219178 .19599915 .23518372 .12998963 .21217346 .07199097 .17016602 .07199097 .105148319 .07199097 .011245728 .18798828-.0107421879 .2679901-.0107421879 .34498597-.0107421879 .40499879 .020248414 .43598939 .071243289 .43998719 .036132814 .46299745-.005859375 .5139923-.005859375 .5209961-.005859375 .6349945-.005859375 .6349945 .09013367V.090148929M.42399598 .14213562C.42399598 .03224182 .3039856 .022247315 .2789917 .022247315 .21998596 .022247315 .1639862 .053253175 .1639862 .10523987 .1639862 .13824463 .18499756 .23022461 .42399598 .24023438V.14213562Z"/>
<path id="font_1_105" d="M.44400025 .12608338V.18099976H.4019928V.1290741C.4019928 .05419922 .35798646 .025253296 .32299806 .025253296 .24598694 .025253296 .24598694 .1051178 .24598694 .12608338V.3866577H.4229889V.43066407H.24598694V.6142578H.20399475C.20298767 .52046206 .15299988 .4226532 .050994874 .41966249V.3866577H.15699768V.12608338C.15699768 .012252808 .25099183-.0107421879 .31298829-.0107421879 .3880005-.011001587 .44400025 .04399109 .44400025 .12599182V.12608338Z"/>
<path id="font_1_46" d="M.9059906 .33580018C.9059906 .5226898 .7389984 .6826172 .5249939 .6826172H.084991458V.63861086C.10899353 .63861086 .13899231 .63861086 .16099549 .63661196 .19599915 .6336212 .19599915 .6206207 .19599915 .5956421V.08695984C.19599915 .0619812 .19599915 .04899597 .16099549 .04598999 .13899231 .04399109 .10699463 .04399109 .084991458 .04399109V0H.5249939C.7369995 0 .9059906 .15092469 .9059906 .33580018M.79299929 .33580018C.79299929 .24786377 .772995 .17390442 .71598818 .11894226 .68299868 .08796692 .6119995 .04399109 .49598695 .04399109H.34899903C.2979889 .04399109 .2979889 .049987794 .2979889 .083969119V.5986328C.2979889 .63261416 .2979889 .63861086 .34899903 .63861086H.49598695C.61499026 .63861086 .6859894 .5886383 .71299746 .56266787 .75 .52568057 .79299929 .46672059 .79299929 .33580018Z"/>
<path id="font_1_66" d="M.32598878 0V.04399109C.25898744 .04399109 .25099183 .04399109 .25099183 .08403015V.4423828L.08699036 .43066407V.3866577C.1579895 .3866577 .1659851 .3796692 .1659851 .33070375V.08395386C.1659851 .052978517 .1659851 .04399109 .100997928 .04399109H.08299255V0C.12399292 .0029907227 .1659851 .0039978029 .20698548 .0039978029 .24499512 .0039978029 .2889862 .0029907227 .32598878 0M.2619934 .6000519C.2619934 .63404849 .23498535 .6610565 .20098877 .6610565 .16799927 .6610565 .13999939 .63404849 .13999939 .6000519 .13999939 .5660553 .16699219 .5390625 .20098877 .5390625 .23399353 .5390625 .2619934 .5660553 .2619934 .6000519Z"/>
<path id="font_1_96" d="M.47898866 .37338258C.47898866 .41137696 .44299317 .4423828 .3899994 .4423828 .33999635 .44171144 .27598573 .41571046 .23699951 .33171083H.23599243V.4423828L.07598877 .43066407V.3866577C.1499939 .3866577 .15899658 .3796692 .15899658 .33070375V.08395386C.15899658 .052978517 .15899658 .04399109 .09399414 .04399109H.07598877V0C.117996219 .0029907227 .16299439 .0039978029 .20498657 .0039978029L.34799195 0V.04399109H.32099916C.24398804 .04399109 .24398804 .053985597 .24398804 .084991458V.22399903C.24398804 .31698609 .29699708 .40699769 .3919983 .40899659 .3919983 .40899659 .37799073 .394989 .37799073 .37298585 .37799073 .33699037 .4059906 .32199098 .42799378 .32199098 .45298768 .32199098 .47898866 .33898927 .47898866 .37298585V.37338258Z"/>
<path id="font_1_70" d="M.6649933 0V.04399109C.6199951 .04399109 .59498599 .04399109 .5519867 .09088135L.3880005 .26957704C.4039917 .2805786 .49499513 .34262086 .5 .344635 .56599429 .3846588 .6179962 .3866577 .6369934 .3866577V.43066407C.6009979 .426651 .56399539 .426651 .5519867 .426651 .5139923 .426651 .45399476 .4286499 .42099 .43066407V.3866577C.43499757 .3846588 .43598939 .37265016 .43598939 .37265016 .43598939 .36964417 .43598939 .35462953 .40699769 .33462525L.24398804 .22257996V.69433596L.07598877 .6826172V.63861086C.1499939 .63861086 .15899658 .6316223 .15899658 .5826416V.083969119C.15899658 .052993776 .15899658 .04399109 .09399414 .04399109H.07598877V0C.114990238 .00289917 .1599884 .00390625 .19898987 .00390625 .23899842 .0039978029 .28399659 .0029907227 .32299806 0V.04399109H.30499269C.23999024 .04399109 .23999024 .052749635 .23999024 .08358765V.16958618L.32199098 .22558594 .43598939 .10258484C.45298768 .08358765 .46499635 .07157898 .46499635 .05859375 .46499635 .04496765 .44499208 .04399109 .43899537 .04399109V0C.47999574 .00289917 .5479889 .00390625 .5629883 .00390625 .6009979 .0039978029 .6289978 .0029907227 .6649933 0Z"/>
<path id="font_1_49" d="M.83599856 .27101136H.7939911C.7649994 .10699463 .7259979 .04399109 .5349884 .04399109H.34899903C.2999878 .04399109 .2999878 .050994874 .2999878 .08200073V.3300171H.41600038C.5159912 .3300171 .5439911 .30900575 .5439911 .2130127H.58599856V.49090577H.5439911C.5439911 .394989 .5159912 .37402345 .41600038 .37402345H.2999878V.59680178C.2999878 .62776187 .2999878 .6347656 .34899903 .6347656H.526001C.69299319 .6347656 .73799136 .59477236 .7599945 .44082643H.8019867L.7689972 .6787567H.08299255V.6347656H.11299133C.19400025 .6347656 .19400025 .62475588 .19400025 .59376528V.0849762C.19400025 .053985597 .19400025 .04399109 .11299133 .04399109H.08299255V0H.7859955L.83599856 .27101136Z"/>
<path id="font_1_112" d="M.6579895 .3866577V.43066407C.6319885 .4286499 .60598757 .426651 .57099917 .426651 .57099917 .426651 .5049896 .42765809 .46899415 .43066407V.3866577C.49598695 .3856659 .5130005 .3736725 .5130005 .350708 .5130005 .34072877 .5079956 .33073426 .5079956 .33073426L.3809967 .083114627 .24398804 .3497162C.24198914 .353714 .23899842 .35969544 .23899842 .36569215 .23899842 .3866577 .272995 .3866577 .29299928 .3866577V.43066407C.24699402 .42765809 .1749878 .426651 .16799927 .426651 .12799073 .426651 .09799194 .426651 .055999757 .43066407V.3866577C.115997318 .3866577 .12998963 .3866577 .14498902 .3567047L.32199098 .01222229C.32899476-.0017700195 .33399964-.0107421879 .35699464-.0107421879 .37998963-.0107421879 .3849945-.00076293948 .3919983 .01222229L.5529938 .3267517C.56999209 .35969544 .59599307 .3856659 .6579895 .3866577Z"/>
</defs>
<path transform="matrix(1.00008,0,0,-1.00006,62.578615,65.996479)" stroke-width=".3985" stroke-linecap="butt" stroke-miterlimit="10" stroke-linejoin="miter" fill="none" stroke="#000000" d="M21.59094 40.43947C21.59094 45.10706 17.80719 48.89081 13.1396 48.89081 8.47203 48.89081 4.68828 45.10706 4.68828 40.43947 4.68828 35.7719 8.47203 31.98814 13.1396 31.98814 17.80719 31.98814 21.59094 35.7719 21.59094 40.43947ZM13.1396 40.43947"/>
<use data-text="A" xlink:href="#font_1_27" transform="matrix(4.9816987,0,0,-4.9815986,72.272388,27.338158)"/>
<use data-text="l" xlink:href="#font_1_72" transform="matrix(4.9816987,0,0,-4.9815986,77.15944,27.338158)"/>
<path transform="matrix(1.00008,0,0,-1.00006,62.578615,65.996479)" stroke-width=".3985" stroke-linecap="butt" stroke-miterlimit="10" stroke-linejoin="miter" fill="none" stroke="#000000" d="M53.00299 0C53.00299 5.78955 48.30975 10.48279 42.5202 10.48279 36.73065 10.48279 32.0374 5.78955 32.0374 0 32.0374-5.78955 36.73065-10.48279 42.5202-10.48279 48.30975-10.48279 53.00299-5.78955 53.00299 0ZM42.5202 0"/>
<use data-text="B" xlink:href="#font_1_34" transform="matrix(4.9816987,0,0,-4.9815986,99.20854,67.69758)"/>
<use data-text="o" xlink:href="#font_1_81" transform="matrix(4.9816987,0,0,-4.9815986,103.866428,67.69758)"/>
<use data-text="b" xlink:href="#font_1_35" transform="matrix(4.9816987,0,0,-4.9815986,107.25897,67.69758)"/>
<path transform="matrix(1.00008,0,0,-1.00006,62.578615,65.996479)" stroke-width=".3985" stroke-linecap="butt" stroke-miterlimit="10" stroke-linejoin="miter" fill="none" stroke="#000000" d="M23.27847-40.43947C23.27847-34.83987 18.73921-30.30061 13.1396-30.30061 7.54001-30.30061 3.00075-34.83987 3.00075-40.43947 3.00075-46.03908 7.54001-50.57834 13.1396-50.57834 18.73921-50.57834 23.27847-46.03908 23.27847-40.43947ZM13.1396-40.43947"/>
<use data-text="C" xlink:href="#font_1_42" transform="matrix(4.9816987,0,0,-4.9815986,70.28623,108.14)"/>
<use data-text="a" xlink:href="#font_1_28" transform="matrix(4.9816987,0,0,-4.9815986,75.05869,108.14)"/>
<use data-text="t" xlink:href="#font_1_105" transform="matrix(4.9816987,0,0,-4.9815986,78.45124,108.14)"/>
<path transform="matrix(1.00008,0,0,-1.00006,62.578615,65.996479)" stroke-width=".3985" stroke-linecap="butt" stroke-miterlimit="10" stroke-linejoin="miter" fill="none" stroke="#000000" d="M-23.27017-24.99268C-23.27017-18.84593-28.25298-13.86313-34.39973-13.86313-40.54648-13.86313-45.52928-18.84593-45.52928-24.99268-45.52928-31.13943-40.54648-36.12224-34.39973-36.12224-28.25298-36.12224-23.27017-31.13943-23.27017-24.99268ZM-34.39973-24.99268"/>
<use data-text="D" xlink:href="#font_1_46" transform="matrix(4.9816987,0,0,-4.9815986,21.540329,92.71908)"/>
<use data-text="i" xlink:href="#font_1_66" transform="matrix(4.9816987,0,0,-4.9815986,26.541947,92.71908)"/>
<use data-text="r" xlink:href="#font_1_96" transform="matrix(4.9816987,0,0,-4.9815986,28.549576,92.71908)"/>
<use data-text="k" xlink:href="#font_1_70" transform="matrix(4.9816987,0,0,-4.9815986,31.24965,92.71908)"/>
<path transform="matrix(1.00008,0,0,-1.00006,62.578615,65.996479)" stroke-width=".3985" stroke-linecap="butt" stroke-miterlimit="10" stroke-linejoin="miter" fill="none" stroke="#000000" d="M-24.22025 24.99268C-24.22025 30.61473-28.7777 35.17216-34.39973 35.17216-40.02177 35.17216-44.57922 30.61473-44.57922 24.99268-44.57922 19.37064-40.02177 14.8132-34.39973 14.8132-28.7777 14.8132-24.22025 19.37064-24.22025 24.99268ZM-34.39973 24.99268"/>
<use data-text="E" xlink:href="#font_1_49" transform="matrix(4.9816987,0,0,-4.9815986,22.62941,42.666078)"/>
<use data-text="v" xlink:href="#font_1_112" transform="matrix(4.9816987,0,0,-4.9815986,27.112946,42.666078)"/>
<use data-text="a" xlink:href="#font_1_28" transform="matrix(4.9816987,0,0,-4.9815986,30.33609,42.666078)"/>
<path transform="matrix(1.00008,0,0,-1.00006,62.578615,65.996479)" stroke-width=".3985" stroke-linecap="butt" stroke-miterlimit="10" stroke-linejoin="miter" fill="none" stroke="#000000" d=""/>
<path transform="matrix(1.00008,0,0,-1.00006,62.578615,65.996479)" stroke-width=".3985" stroke-linecap="butt" stroke-miterlimit="10" stroke-linejoin="miter" fill="none" stroke="#000000" d="M18.74931 47.62321C32.69958 65.4777 12.0329 72.19302 12.8241 49.54861"/>
<path transform="matrix(-.6157292,.7880273,.788043,.6157169,81.32942,18.370408)" stroke-width=".31879" stroke-linecap="round" stroke-linejoin="round" fill="none" stroke="#000000" d="M-1.19551 1.59401C-1.09587 .99626 0 .09961 .29886 0 0-.09961-1.09587-.99626-1.19551-1.59401"/>
<path transform="matrix(.03490279,.9994299,.9994499,-.034902093,75.40374,16.444893)" stroke-width=".31879" stroke-linecap="round" stroke-linejoin="round" fill="none" stroke="#000000" d="M-1.19551 1.59401C-1.09587 .99626 0 .09961 .29886 0 0-.09961-1.09587-.99626-1.19551-1.59401"/>
<path transform="matrix(1.00008,0,0,-1.00006,62.578615,65.996479)" stroke-width=".3985" stroke-linecap="butt" stroke-miterlimit="10" stroke-linejoin="miter" fill="none" stroke="#000000" d=""/>
<path transform="matrix(1.00008,0,0,-1.00006,62.578615,65.996479)" stroke-width=".3985" stroke-linecap="butt" stroke-miterlimit="10" stroke-linejoin="miter" fill="none" stroke="#000000" d="M52.9951-3.81003C79.34032-13.39917 79.34032 13.39917 52.9951 3.81003"/>
<path transform="matrix(-.9397452,-.3420505,-.34205736,.93972638,115.57795,69.80673)" stroke-width=".31879" stroke-linecap="round" stroke-linejoin="round" fill="none" stroke="#000000" d="M-1.19551 1.59401C-1.09587 .99626 0 .09961 .29886 0 0-.09961-1.09587-.99626-1.19551-1.59401"/>
<path transform="matrix(-.9397452,.3420505,.34205736,.93972638,115.57795,62.18622)" stroke-width=".31879" stroke-linecap="round" stroke-linejoin="round" fill="none" stroke="#000000" d="M-1.19551 1.59401C-1.09587 .99626 0 .09961 .29886 0 0-.09961-1.09587-.99626-1.19551-1.59401"/>
<path transform="matrix(1.00008,0,0,-1.00006,62.578615,65.996479)" stroke-width=".3985" stroke-linecap="butt" stroke-miterlimit="10" stroke-linejoin="miter" fill="none" stroke="#000000" d=""/>
<path transform="matrix(1.00008,0,0,-1.00006,62.578615,65.996479)" stroke-width=".3985" stroke-linecap="butt" stroke-miterlimit="10" stroke-linejoin="miter" fill="none" stroke="#000000" d="M12.76505-51.23528C11.81667-78.38622 36.51491-70.36098 19.78844-48.95303"/>
<path transform="matrix(.03488279,-.9994299,-.9994499,-.03488209,75.344669,117.234828)" stroke-width=".31879" stroke-linecap="round" stroke-linejoin="round" fill="none" stroke="#000000" d="M-1.19551 1.59401C-1.09587 .99626 0 .09961 .29886 0 0-.09961-1.09587-.99626-1.19551-1.59401"/>
<path transform="matrix(-.6157292,-.7880273,-.788043,.6157169,82.36864,114.95244)" stroke-width=".31879" stroke-linecap="round" stroke-linejoin="round" fill="none" stroke="#000000" d="M-1.19551 1.59401C-1.09587 .99626 0 .09961 .29886 0 0-.09961-1.09587-.99626-1.19551-1.59401"/>
<path transform="matrix(1.00008,0,0,-1.00006,62.578615,65.996479)" stroke-width=".3985" stroke-linecap="butt" stroke-miterlimit="10" stroke-linejoin="miter" fill="none" stroke="#000000" d=""/>
<path transform="matrix(1.00008,0,0,-1.00006,62.578615,65.996479)" stroke-width=".3985" stroke-linecap="butt" stroke-miterlimit="10" stroke-linejoin="miter" fill="none" stroke="#000000" d="M-45.73547-28.24501C-74.47726-36.48613-57.71544-59.55696-40.99603-34.76846"/>
<path transform="matrix(.9613369,-.27561654,-.27562205,-.96131768,16.839467,94.24318)" stroke-width=".31879" stroke-linecap="round" stroke-linejoin="round" fill="none" stroke="#000000" d="M-1.19551 1.59401C-1.09587 .99626 0 .09961 .29886 0 0-.09961-1.09587-.99626-1.19551-1.59401"/>
<path transform="matrix(.5592047,-.8290797,-.8290963,-.55919358,21.57928,100.767047)" stroke-width=".31879" stroke-linecap="round" stroke-linejoin="round" fill="none" stroke="#000000" d="M-1.19551 1.59401C-1.09587 .99626 0 .09961 .29886 0 0-.09961-1.09587-.99626-1.19551-1.59401"/>
<path transform="matrix(1.00008,0,0,-1.00006,62.578615,65.996479)" stroke-width=".3985" stroke-linecap="butt" stroke-miterlimit="10" stroke-linejoin="miter" fill="none" stroke="#000000" d=""/>
<path transform="matrix(1.00008,0,0,-1.00006,62.578615,65.996479)" stroke-width=".3985" stroke-linecap="butt" stroke-miterlimit="10" stroke-linejoin="miter" fill="none" stroke="#000000" d="M-40.46468 33.9806C-55.7607 56.6589-71.11702 35.52264-44.82196 27.9834"/>
<path transform="matrix(.5592047,.8290897,.82910636,-.55919358,22.110688,32.01384)" stroke-width=".31879" stroke-linecap="round" stroke-linejoin="round" fill="none" stroke="#000000" d="M-1.19551 1.59401C-1.09587 .99626 0 .09961 .29886 0 0-.09961-1.09587-.99626-1.19551-1.59401"/>
<path transform="matrix(.9613169,.2756065,.27561207,-.96129766,17.753048,38.011388)" stroke-width=".31879" stroke-linecap="round" stroke-linejoin="round" fill="none" stroke="#000000" d="M-1.19551 1.59401C-1.09587 .99626 0 .09961 .29886 0 0-.09961-1.09587-.99626-1.19551-1.59401"/>
<path transform="matrix(1.00008,0,0,-1.00006,62.578615,65.996479)" stroke-width=".3985" stroke-linecap="butt" stroke-miterlimit="10" stroke-linejoin="miter" fill="none" stroke="#000000" d=""/>
<path transform="matrix(1.00008,0,0,-1.00006,62.578615,65.996479)" stroke-width=".3985" stroke-linecap="butt" stroke-miterlimit="10" stroke-linejoin="miter" fill="none" stroke="#000000" d="M35.97768 9.01425 18.49625 33.07469"/>
<path transform="matrix(.587827,.80904856,.80906477,-.5878152,98.55915,56.981687)" stroke-width=".31879" stroke-linecap="round" stroke-linejoin="round" fill="none" stroke="#000000" d="M-1.19551 1.59401C-1.09587 .99626 0 .09961 .29886 0 0-.09961-1.09587-.99626-1.19551-1.59401"/>
<path transform="matrix(-.587827,-.80904856,-.80906477,.5878152,81.076358,32.9198)" stroke-width=".31879" stroke-linecap="round" stroke-linejoin="round" fill="none" stroke="#000000" d="M-1.19551 1.59401C-1.09587 .99626 0 .09961 .29886 0 0-.09961-1.09587-.99626-1.19551-1.59401"/>
<path transform="matrix(1.00008,0,0,-1.00006,62.578615,65.996479)" stroke-width=".3985" stroke-linecap="butt" stroke-miterlimit="10" stroke-linejoin="miter" fill="none" stroke="#000000" d=""/>
<path transform="matrix(1.00008,0,0,-1.00006,62.578615,65.996479)" stroke-width=".3985" stroke-linecap="butt" stroke-miterlimit="10" stroke-linejoin="miter" fill="none" stroke="#000000" d="M13.14136-29.6469 13.14131 31.33461"/>
<path transform="matrix(0,1.00006,1.00008,0,75.72102,95.64516)" stroke-width=".31879" stroke-linecap="round" stroke-linejoin="round" fill="none" stroke="#000000" d="M-1.19551 1.59401C-1.09587 .99626 0 .09961 .29886 0 0-.09961-1.09587-.99626-1.19551-1.59401"/>
<path transform="matrix(0,-1.00006,-1.00008,-0,75.72098,34.65999)" stroke-width=".31879" stroke-linecap="round" stroke-linejoin="round" fill="none" stroke="#000000" d="M-1.19551 1.59401C-1.09587 .99626 0 .09961 .29886 0 0-.09961-1.09587-.99626-1.19551-1.59401"/>
<path transform="matrix(1.00008,0,0,-1.00006,62.578615,65.996479)" stroke-width=".3985" stroke-linecap="butt" stroke-miterlimit="10" stroke-linejoin="miter" fill="none" stroke="#000000" d=""/>
<path transform="matrix(1.00008,0,0,-1.00006,62.578615,65.996479)" stroke-width=".3985" stroke-linecap="butt" stroke-miterlimit="10" stroke-linejoin="miter" fill="none" stroke="#000000" d="M-27.47519-15.45845 7.78654 33.07455"/>
<path transform="matrix(-.587827,.80904856,.80906477,.5878152,35.101228,81.45586)" stroke-width=".31879" stroke-linecap="round" stroke-linejoin="round" fill="none" stroke="#000000" d="M-1.19551 1.59401C-1.09587 .99626 0 .09961 .29886 0 0-.09961-1.09587-.99626-1.19551-1.59401"/>
<path transform="matrix(.587827,-.80904856,-.80906477,-.5878152,70.36577,32.91994)" stroke-width=".31879" stroke-linecap="round" stroke-linejoin="round" fill="none" stroke="#000000" d="M-1.19551 1.59401C-1.09587 .99626 0 .09961 .29886 0 0-.09961-1.09587-.99626-1.19551-1.59401"/>
<path transform="matrix(1.00008,0,0,-1.00006,62.578615,65.996479)" stroke-width=".3985" stroke-linecap="butt" stroke-miterlimit="10" stroke-linejoin="miter" fill="none" stroke="#000000" d=""/>
<path transform="matrix(1.00008,0,0,-1.00006,62.578615,65.996479)" stroke-width=".3985" stroke-linecap="butt" stroke-miterlimit="10" stroke-linejoin="miter" fill="none" stroke="#000000" d="M-24.0965 28.3459 4.4771 37.63004"/>
<path transform="matrix(-.95112606,.30901853,.3090247,.951107,38.480188,37.648878)" stroke-width=".31879" stroke-linecap="round" stroke-linejoin="round" fill="none" stroke="#000000" d="M-1.19551 1.59401C-1.09587 .99626 0 .09961 .29886 0 0-.09961-1.09587-.99626-1.19551-1.59401"/>
<path transform="matrix(.95112606,-.30901853,-.3090247,-.951107,67.05607,28.364182)" stroke-width=".31879" stroke-linecap="round" stroke-linejoin="round" fill="none" stroke="#000000" d="M-1.19551 1.59401C-1.09587 .99626 0 .09961 .29886 0 0-.09961-1.09587-.99626-1.19551-1.59401"/>
<path transform="matrix(1.00008,0,0,-1.00006,62.578615,65.996479)" stroke-width=".3985" stroke-linecap="butt" stroke-miterlimit="10" stroke-linejoin="miter" fill="none" stroke="#000000" d=""/>
<path transform="matrix(1.00008,0,0,-1.00006,62.578615,65.996479)" stroke-width=".3985" stroke-linecap="butt" stroke-miterlimit="10" stroke-linejoin="miter" fill="none" stroke="#000000" d="M19.48863-31.70982 35.97751-9.01411"/>
<path transform="matrix(-.587817,.80904856,.80906477,.5878052,82.06882,97.7082)" stroke-width=".31879" stroke-linecap="round" stroke-linejoin="round" fill="none" stroke="#000000" d="M-1.19551 1.59401C-1.09587 .99626 0 .09961 .29886 0 0-.09961-1.09587-.99626-1.19551-1.59401"/>
<path transform="matrix(.587817,-.80904856,-.80906477,-.5878052,98.55899,75.01112)" stroke-width=".31879" stroke-linecap="round" stroke-linejoin="round" fill="none" stroke="#000000" d="M-1.19551 1.59401C-1.09587 .99626 0 .09961 .29886 0 0-.09961-1.09587-.99626-1.19551-1.59401"/>
<path transform="matrix(1.00008,0,0,-1.00006,62.578615,65.996479)" stroke-width=".3985" stroke-linecap="butt" stroke-miterlimit="10" stroke-linejoin="miter" fill="none" stroke="#000000" d=""/>
<path transform="matrix(1.00008,0,0,-1.00006,62.578615,65.996479)" stroke-width=".3985" stroke-linecap="butt" stroke-miterlimit="10" stroke-linejoin="miter" fill="none" stroke="#000000" d="M-24.09618 21.64696 31.92915 3.44312"/>
<path transform="matrix(-.95112606,-.30901853,-.3090247,.951107,38.480508,44.348218)" stroke-width=".31879" stroke-linecap="round" stroke-linejoin="round" fill="none" stroke="#000000" d="M-1.19551 1.59401C-1.09587 .99626 0 .09961 .29886 0 0-.09961-1.09587-.99626-1.19551-1.59401"/>
<path transform="matrix(.95112606,.30901853,.3090247,-.951107,94.510318,62.55315)" stroke-width=".31879" stroke-linecap="round" stroke-linejoin="round" fill="none" stroke="#000000" d="M-1.19551 1.59401C-1.09587 .99626 0 .09961 .29886 0 0-.09961-1.09587-.99626-1.19551-1.59401"/>
<path transform="matrix(1.00008,0,0,-1.00006,62.578615,65.996479)" stroke-width=".3985" stroke-linecap="butt" stroke-miterlimit="10" stroke-linejoin="miter" fill="none" stroke="#000000" d=""/>
<path transform="matrix(1.00008,0,0,-1.00006,62.578615,65.996479)" stroke-width=".3985" stroke-linecap="butt" stroke-miterlimit="10" stroke-linejoin="miter" fill="none" stroke="#000000" d="M-23.19301-28.63995 2.87195-37.10869"/>
<path transform="matrix(-.95114609,-.30900855,-.3090147,.95112708,39.38376,94.63816)" stroke-width=".31879" stroke-linecap="round" stroke-linejoin="round" fill="none" stroke="#000000" d="M-1.19551 1.59401C-1.09587 .99626 0 .09961 .29886 0 0-.09961-1.09587-.99626-1.19551-1.59401"/>
<path transform="matrix(.95114609,.30900855,.3090147,-.95112708,65.450778,103.10737)" stroke-width=".31879" stroke-linecap="round" stroke-linejoin="round" fill="none" stroke="#000000" d="M-1.19551 1.59401C-1.09587 .99626 0 .09961 .29886 0 0-.09961-1.09587-.99626-1.19551-1.59401"/>
<path transform="matrix(1.00008,0,0,-1.00006,62.578615,65.996479)" stroke-width=".3985" stroke-linecap="butt" stroke-miterlimit="10" stroke-linejoin="miter" fill="none" stroke="#000000" d=""/>
<path transform="matrix(1.00008,0,0,-1.00006,62.578615,65.996479)" stroke-width=".3985" stroke-linecap="butt" stroke-miterlimit="10" stroke-linejoin="miter" fill="none" stroke="#000000" d="M-28.03368 16.22717 6.79453-31.70921"/>
<path transform="matrix(-.587827,-.80904856,-.80906477,.5878152,34.54271,49.768335)" stroke-width=".31879" stroke-linecap="round" stroke-linejoin="round" fill="none" stroke="#000000" d="M-1.19551 1.59401C-1.09587 .99626 0 .09961 .29886 0 0-.09961-1.09587-.99626-1.19551-1.59401"/>
<path transform="matrix(.587827,.80904856,.80906477,-.5878152,69.373668,97.70759)" stroke-width=".31879" stroke-linecap="round" stroke-linejoin="round" fill="none" stroke="#000000" d="M-1.19551 1.59401C-1.09587 .99626 0 .09961 .29886 0 0-.09961-1.09587-.99626-1.19551-1.59401"/>
</svg>
