<svg xmlns="http://www.w3.org/2000/svg" xmlns:xlink="http://www.w3.org/1999/xlink" xmlns:inkscape="http://www.inkscape.org/namespaces/inkscape" version="1.1" width="229" height="57" viewBox="0 0 229 57">
<defs>
<path id="font_1_1" d="M.08799744 .059265138C.084991458 .044265748 .07899475 .021255494 .07899475 .01625061 .07899475-.0017547608 .09298706-.0107421879 .10798645-.0107421879 .11999512-.0107421879 .13798523-.002746582 .14498902 .01725769 .1459961 .019256592 .1579895 .06626892 .1639862 .091278079L.18598938 .18130493C.19198609 .2033081 .19799805 .22531128 .20298767 .24832154 .20698548 .26531983 .21499634 .29434205 .21598816 .29833985 .23098755 .3293457 .28399659 .42037965 .3789978 .42037965 .42399598 .42037965 .43299867 .38336183 .43299867 .35035707 .43299867 .28833009 .38398744 .16029358 .36799623 .11727905 .35899354 .0942688 .35798646 .08227539 .35798646 .0712738 .35798646 .024261475 .3929901-.0107421879 .43998719-.0107421879 .5339966-.0107421879 .57099917 .13528443 .57099917 .14329529 .57099917 .1532898 .56199648 .1532898 .5589905 .1532898 .548996 .1532898 .548996 .15029907 .5439911 .13528443 .5239868 .06726074 .4909973 .011245728 .44198609 .011245728 .4249878 .011245728 .41799928 .021255494 .41799928 .044265748 .41799928 .0692749 .4269867 .09327698 .43598939 .11528015 .45498658 .16830445 .49699403 .27833558 .49699403 .3353424 .49699403 .40237428 .45399476 .4423828 .38198854 .4423828 .2919922 .4423828 .24299622 .37835694 .22599793 .35534669 .22099304 .41137696 .17999268 .4423828 .13398743 .4423828 .08799744 .4423828 .068984989 .4033661 .05899048 .38536073 .042999269 .35134889 .0289917 .29232789 .0289917 .28833009 .0289917 .27833558 .038986207 .27833558 .040985109 .27833558 .050994874 .27833558 .051986696 .2793274 .057998659 .30133058 .07499695 .37236024 .09498596 .42037965 .1309967 .42037965 .15098572 .42037965 .1619873 .4073639 .1619873 .37435914 .1619873 .35334779 .15899658 .3423462 .1459961 .29032899L.08799744 .059265138Z"/>
<path id="font_2_5" d="M.68699648 .32714845C.70199587 .32714845 .72099307 .32714845 .72099307 .34713746 .72099307 .36714173 .70199587 .36714173 .6879883 .36714173H.08898926C.07499695 .36714173 .055999757 .36714173 .055999757 .34713746 .055999757 .32714845 .07499695 .32714845 .08999634 .32714845H.68699648M.6879883 .13284302C.70199587 .13284302 .72099307 .13284302 .72099307 .15284729 .72099307 .17285156 .70199587 .17285156 .68699648 .17285156H.08999634C.07499695 .17285156 .055999757 .17285156 .055999757 .15284729 .055999757 .13284302 .07499695 .13284302 .08898926 .13284302H.6879883Z"/>
<path id="font_2_1" d="M.2939911 .64004519C.2939911 .66400149 .2939911 .6660156 .2709961 .6660156 .20899964 .60227969 .12098694 .60227969 .08898926 .60227969V.57128909C.10899353 .57128909 .16799927 .57128909 .21998596 .5972748V.07902527C.21998596 .042999269 .21699524 .0309906 .1269989 .0309906H.09498596V0C.12998963 .0029907227 .21699524 .0029907227 .25698854 .0029907227 .29699708 .0029907227 .38398744 .0029907227 .4189911 0V.0309906H.3869934C.29699708 .0309906 .2939911 .041992189 .2939911 .07902527V.64004519Z"/>
<path id="font_2_2" d="M.1269989 .07699585 .23298645 .18003845C.3889923 .31811524 .44898988 .3721466 .44898988 .47216798 .44898988 .5860901 .35899354 .6660156 .23699951 .6660156 .12399292 .6660156 .049987794 .57411196 .049987794 .48516847 .049987794 .4291687 .099990848 .4291687 .102996829 .4291687 .11999512 .4291687 .15499878 .44117738 .15499878 .48217774 .15499878 .5081787 .13699341 .5341797 .101989749 .5341797 .09399414 .5341797 .09199524 .5341797 .08898926 .5331726 .11199951 .59806826 .1659851 .63500979 .22399903 .63500979 .31498719 .63500979 .35798646 .5541382 .35798646 .47216798 .35798646 .39215089 .30799867 .31311036 .25299073 .25108338L.06098938 .036987306C.049987794 .025985718 .049987794 .023986817 .049987794 0H.42099L.44898988 .17404175H.42399598C.4189911 .14402771 .4119873 .1000061 .4019928 .084991458 .394989 .07699585 .32899476 .07699585 .30699159 .07699585H.1269989Z"/>
<path id="font_2_3" d="M.2899933 .35191346C.37199403 .37893678 .42999269 .4490509 .42999269 .52809146 .42999269 .6100464 .34199525 .6660156 .24598694 .6660156 .14498902 .6660156 .068984989 .60606387 .068984989 .53009036 .068984989 .49710084 .09098816 .47808839 .11999512 .47808839 .15098572 .47808839 .17098999 .50009158 .17098999 .5290985 .17098999 .57910159 .12399292 .57910159 .10899353 .57910159 .13999939 .62802127 .20599365 .64100649 .24198914 .64100649 .2829895 .64100649 .33799745 .6190338 .33799745 .5290985 .33799745 .51708987 .33599855 .45906068 .30999757 .4149933 .27999879 .36691285 .24598694 .36390687 .22099304 .36291505 .21299744 .36190797 .18899536 .35990907 .18199158 .35990907 .17399597 .35890199 .16699219 .35791017 .16699219 .3479004 .16699219 .33691407 .17399597 .33691407 .19099427 .33691407H.23498535C.31698609 .33691407 .35398866 .2686615 .35398866 .17037964 .35398866 .034469606 .2849884 .0055389406 .24099732 .0055389406 .19799805 .0055389406 .12298584 .022491456 .08799744 .08137512 .12298584 .07637024 .1539917 .09837341 .1539917 .1363678 .1539917 .17237854 .1269989 .19238281 .09799194 .19238281 .07398987 .19238281 .041992189 .17837525 .041992189 .1343689 .041992189 .043441774 .1349945-.022460938 .24398804-.022460938 .3659973-.022460938 .45700074 .06838989 .45700074 .17037964 .45700074 .252594 .3939972 .33088685 .2899933 .35191346Z"/>
<path id="font_2_4" d="M.2939911 .16503906V.07800293C.2939911 .041992189 .2919922 .0309906 .21798706 .0309906H.19699097V0C.23799134 .0029907227 .2899933 .0029907227 .33198548 .0029907227 .37399293 .0029907227 .4269867 .0029907227 .46798707 0V.0309906H.44699098C.37298585 .0309906 .37098695 .041992189 .37098695 .07800293V.16503906H.47099305V.19602967H.37098695V.65075686C.37098695 .67074587 .37098695 .6767578 .35499574 .6767578 .34599305 .6767578 .34298707 .6767578 .33499146 .66474917L.027999878 .19602967V.16503906H.2939911M.2999878 .19602967H.055999757L.2999878 .5688019V.19602967Z"/>
</defs>
<path transform="matrix(1.00005,0,0,-1.00005,13.339912,37.65043)" d="M0 0"/>
<path transform="matrix(1.00005,0,0,-1.00005,13.339912,37.65043)" stroke-width=".3985" stroke-linecap="butt" stroke-miterlimit="10" stroke-linejoin="miter" fill="none" stroke="#000000" d="M0 0"/>
<path transform="matrix(1.00005,0,0,-1.00005,13.339912,37.65043)" d="M1.99255 0C1.99255 1.10046 1.10046 1.99255 0 1.99255-1.10046 1.99255-1.99255 1.10046-1.99255 0-1.99255-1.10046-1.10046-1.99255 0-1.99255 1.10046-1.99255 1.99255-1.10046 1.99255 0ZM0 0"/>
<use data-text="n" xlink:href="#font_1_1" transform="matrix(9.963098,0,0,-9.963098,1.217308,54.67828)"/>
<use data-text="=" xlink:href="#font_2_5" transform="matrix(9.963098,0,0,-9.963098,9.965744,54.67828)"/>
<use data-text="1" xlink:href="#font_2_1" transform="matrix(9.963098,0,0,-9.963098,20.466858,54.67828)"/>
<path transform="matrix(1.00005,0,0,-1.00005,13.339912,37.65043)" d="M63.7803 11.33855"/>
<path transform="matrix(1.00005,0,0,-1.00005,13.339912,37.65043)" stroke-width=".3985" stroke-linecap="butt" stroke-miterlimit="10" stroke-linejoin="miter" fill="none" stroke="#000000" d="M63.7803 11.33855"/>
<path transform="matrix(1.00005,0,0,-1.00005,13.339912,37.65043)" d="M58.68617 0C58.68617 1.10046 57.79408 1.99255 56.69362 1.99255 55.59314 1.99255 54.70107 1.10046 54.70107 0 54.70107-1.10046 55.59314-1.99255 56.69362-1.99255 57.79408-1.99255 58.68617-1.10046 58.68617 0ZM56.69362 0"/>
<path transform="matrix(1.00005,0,0,-1.00005,13.339912,37.65043)" d="M72.85956 0C72.85956 1.10046 71.96748 1.99255 70.867 1.99255 69.76654 1.99255 68.87445 1.10046 68.87445 0 68.87445-1.10046 69.76654-1.99255 70.867-1.99255 71.96748-1.99255 72.85956-1.10046 72.85956 0ZM70.867 0"/>
<path transform="matrix(1.00005,0,0,-1.00005,13.339912,37.65043)" d="M65.77286 11.33855C65.77286 12.43901 64.88077 13.3311 63.7803 13.3311 62.67982 13.3311 61.78775 12.43901 61.78775 11.33855 61.78775 10.23807 62.67982 9.346 63.7803 9.346 64.88077 9.346 65.77286 10.23807 65.77286 11.33855ZM63.7803 11.33855"/>
<use data-text="n" xlink:href="#font_1_1" transform="matrix(9.963098,0,0,-9.963098,65.00049,54.67828)"/>
<use data-text="=" xlink:href="#font_2_5" transform="matrix(9.963098,0,0,-9.963098,73.74893,54.67828)"/>
<use data-text="2" xlink:href="#font_2_2" transform="matrix(9.963098,0,0,-9.963098,84.250049,54.67828)"/>
<path transform="matrix(1.00005,0,0,-1.00005,13.339912,37.65043)" d="M127.56062 22.67752"/>
<path transform="matrix(1.00005,0,0,-1.00005,13.339912,37.65043)" stroke-width=".3985" stroke-linecap="butt" stroke-miterlimit="10" stroke-linejoin="miter" fill="none" stroke="#000000" d="M127.56062 22.67752"/>
<path transform="matrix(1.00005,0,0,-1.00005,13.339912,37.65043)" d="M115.37979 0C115.37979 1.10046 114.4877 1.99255 113.38724 1.99255 112.28676 1.99255 111.39468 1.10046 111.39468 0 111.39468-1.10046 112.28676-1.99255 113.38724-1.99255 114.4877-1.99255 115.37979-1.10046 115.37979 0ZM113.38724 0"/>
<path transform="matrix(1.00005,0,0,-1.00005,13.339912,37.65043)" d="M129.55318 0C129.55318 1.10046 128.6611 1.99255 127.56062 1.99255 126.46016 1.99255 125.56807 1.10046 125.56807 0 125.56807-1.10046 126.46016-1.99255 127.56062-1.99255 128.6611-1.99255 129.55318-1.10046 129.55318 0ZM127.56062 0"/>
<path transform="matrix(1.00005,0,0,-1.00005,13.339912,37.65043)" d="M122.46648 11.33855C122.46648 12.43901 121.57439 13.3311 120.47392 13.3311 119.37346 13.3311 118.48137 12.43901 118.48137 11.33855 118.48137 10.23807 119.37346 9.346 120.47392 9.346 121.57439 9.346 122.46648 10.23807 122.46648 11.33855ZM120.47392 11.33855"/>
<path transform="matrix(1.00005,0,0,-1.00005,13.339912,37.65043)" d="M143.7266 0C143.7266 1.10046 142.83452 1.99255 141.73404 1.99255 140.63358 1.99255 139.74149 1.10046 139.74149 0 139.74149-1.10046 140.63358-1.99255 141.73404-1.99255 142.83452-1.99255 143.7266-1.10046 143.7266 0ZM141.73404 0"/>
<path transform="matrix(1.00005,0,0,-1.00005,13.339912,37.65043)" d="M136.6399 11.33855C136.6399 12.43901 135.7478 13.3311 134.64734 13.3311 133.54686 13.3311 132.65479 12.43901 132.65479 11.33855 132.65479 10.23807 133.54686 9.346 134.64734 9.346 135.7478 9.346 136.6399 10.23807 136.6399 11.33855ZM134.64734 11.33855"/>
<path transform="matrix(1.00005,0,0,-1.00005,13.339912,37.65043)" d="M129.55318 22.67752C129.55318 23.77798 128.6611 24.67007 127.56062 24.67007 126.46016 24.67007 125.56807 23.77798 125.56807 22.67752 125.56807 21.57704 126.46016 20.68497 127.56062 20.68497 128.6611 20.68497 129.55318 21.57704 129.55318 22.67752ZM127.56062 22.67752"/>
<use data-text="n" xlink:href="#font_1_1" transform="matrix(9.963098,0,0,-9.963098,128.78369,54.67828)"/>
<use data-text="=" xlink:href="#font_2_5" transform="matrix(9.963098,0,0,-9.963098,137.53212,54.67828)"/>
<use data-text="3" xlink:href="#font_2_3" transform="matrix(9.963098,0,0,-9.963098,148.03324,54.67828)"/>
<path transform="matrix(1.00005,0,0,-1.00005,13.339912,37.65043)" d="M191.34096 34.01608"/>
<path transform="matrix(1.00005,0,0,-1.00005,13.339912,37.65043)" stroke-width=".3985" stroke-linecap="butt" stroke-miterlimit="10" stroke-linejoin="miter" fill="none" stroke="#000000" d="M191.34096 34.01608"/>
<path transform="matrix(1.00005,0,0,-1.00005,13.339912,37.65043)" d="M172.07341 0C172.07341 1.10046 171.18132 1.99255 170.08086 1.99255 168.98038 1.99255 168.0883 1.10046 168.0883 0 168.0883-1.10046 168.98038-1.99255 170.08086-1.99255 171.18132-1.99255 172.07341-1.10046 172.07341 0ZM170.08086 0"/>
<path transform="matrix(1.00005,0,0,-1.00005,13.339912,37.65043)" d="M186.2468 0C186.2468 1.10046 185.35472 1.99255 184.25424 1.99255 183.15378 1.99255 182.26169 1.10046 182.26169 0 182.26169-1.10046 183.15378-1.99255 184.25424-1.99255 185.35472-1.99255 186.2468-1.10046 186.2468 0ZM184.25424 0"/>
<path transform="matrix(1.00005,0,0,-1.00005,13.339912,37.65043)" d="M179.1601 11.33855C179.1601 12.43901 178.26802 13.3311 177.16754 13.3311 176.06708 13.3311 175.17499 12.43901 175.17499 11.33855 175.17499 10.23807 176.06708 9.346 177.16754 9.346 178.26802 9.346 179.1601 10.23807 179.1601 11.33855ZM177.16754 11.33855"/>
<path transform="matrix(1.00005,0,0,-1.00005,13.339912,37.65043)" d="M200.42021 0C200.42021 1.10046 199.52814 1.99255 198.42766 1.99255 197.3272 1.99255 196.4351 1.10046 196.4351 0 196.4351-1.10046 197.3272-1.99255 198.42766-1.99255 199.52814-1.99255 200.42021-1.10046 200.42021 0ZM198.42766 0"/>
<path transform="matrix(1.00005,0,0,-1.00005,13.339912,37.65043)" d="M193.33351 11.33855C193.33351 12.43901 192.44142 13.3311 191.34096 13.3311 190.24048 13.3311 189.3484 12.43901 189.3484 11.33855 189.3484 10.23807 190.24048 9.346 191.34096 9.346 192.44142 9.346 193.33351 10.23807 193.33351 11.33855ZM191.34096 11.33855"/>
<path transform="matrix(1.00005,0,0,-1.00005,13.339912,37.65043)" d="M186.2468 22.67752C186.2468 23.77798 185.35472 24.67007 184.25424 24.67007 183.15378 24.67007 182.26169 23.77798 182.26169 22.67752 182.26169 21.57704 183.15378 20.68497 184.25424 20.68497 185.35472 20.68497 186.2468 21.57704 186.2468 22.67752ZM184.25424 22.67752"/>
<path transform="matrix(1.00005,0,0,-1.00005,13.339912,37.65043)" d="M214.59362 0C214.59362 1.10046 213.70153 1.99255 212.60106 1.99255 211.50058 1.99255 210.6085 1.10046 210.6085 0 210.6085-1.10046 211.50058-1.99255 212.60106-1.99255 213.70153-1.99255 214.59362-1.10046 214.59362 0ZM212.60106 0"/>
<path transform="matrix(1.00005,0,0,-1.00005,13.339912,37.65043)" d="M207.50691 11.33855C207.50691 12.43901 206.61483 13.3311 205.51436 13.3311 204.41388 13.3311 203.5218 12.43901 203.5218 11.33855 203.5218 10.23807 204.41388 9.346 205.51436 9.346 206.61483 9.346 207.50691 10.23807 207.50691 11.33855ZM205.51436 11.33855"/>
<path transform="matrix(1.00005,0,0,-1.00005,13.339912,37.65043)" d="M200.42021 22.67752C200.42021 23.77798 199.52814 24.67007 198.42766 24.67007 197.3272 24.67007 196.4351 23.77798 196.4351 22.67752 196.4351 21.57704 197.3272 20.68497 198.42766 20.68497 199.52814 20.68497 200.42021 21.57704 200.42021 22.67752ZM198.42766 22.67752"/>
<path transform="matrix(1.00005,0,0,-1.00005,13.339912,37.65043)" d="M193.33351 34.01608C193.33351 35.11655 192.44142 36.00864 191.34096 36.00864 190.24048 36.00864 189.3484 35.11655 189.3484 34.01608 189.3484 32.9156 190.24048 32.02353 191.34096 32.02353 192.44142 32.02353 193.33351 32.9156 193.33351 34.01608ZM191.34096 34.01608"/>
<use data-text="n" xlink:href="#font_1_1" transform="matrix(9.963098,0,0,-9.963098,192.56687,54.67828)"/>
<use data-text="=" xlink:href="#font_2_5" transform="matrix(9.963098,0,0,-9.963098,201.3153,54.67828)"/>
<use data-text="4" xlink:href="#font_2_4" transform="matrix(9.963098,0,0,-9.963098,211.81642,54.67828)"/>
</svg>
