<svg xmlns="http://www.w3.org/2000/svg" xmlns:xlink="http://www.w3.org/1999/xlink" xmlns:inkscape="http://www.inkscape.org/namespaces/inkscape" version="1.1" width="134" height="88" viewBox="0 0 134 88">
<defs>
<path id="font_1_85" d="M.33099366-.2400055C.33099366-.23701477 .33099366-.23500061 .31399537-.21800232 .18899536-.0920105 .15699768 .09700012 .15699768 .25 .15699768 .42399598 .19499207 .59799197 .31799317 .72299197 .33099366 .7350006 .33099366 .7369995 .33099366 .73999026 .33099366 .746994 .32699586 .75 .32099916 .75 .31098939 .75 .22099304 .6819916 .1619873 .5549927 .11099243 .44499208 .09899902 .33399964 .09899902 .25 .09899902 .17199707 .10998535 .050994874 .16499329-.06201172 .22499085-.18501282 .31098939-.25 .32099916-.25 .32699586-.25 .33099366-.24700928 .33099366-.2400055Z"/>
<path id="font_1_121" d="M.45999146 .31976319C.45999146 .39982606 .45498658 .47988893 .41999818 .5539398 .37399293 .65000918 .2919922 .6660156 .25 .6660156 .18998719 .6660156 .116989139 .64001467 .07598877 .54693606 .04399109 .47789 .038986207 .39982606 .038986207 .31976319 .038986207 .24472046 .042999269 .15464783 .083999637 .07859802 .1269989-.0024719239 .19999695-.022460938 .24899292-.022460938 .30299378-.022460938 .3789978-.0014648438 .4229889 .09359741 .45498658 .16265869 .45999146 .2407074 .45999146 .31976319M.3769989 .3317871C.3769989 .25672914 .3769989 .18867493 .3659973 .12461853 .35099793 .029556275 .2939911-.00047302247 .24899292-.00047302247 .20999146-.00047302247 .15098572 .024551392 .1329956 .12062073 .12199402 .18066406 .12199402 .2727356 .12199402 .3317871 .12199402 .39582826 .12199402 .46188355 .12998963 .5159149 .14898682 .63500979 .22399903 .64401248 .24899292 .64401248 .28199769 .64401248 .34799195 .6259918 .36698915 .52693179 .3769989 .47088624 .3769989 .39482118 .3769989 .3317871Z"/>
<path id="font_1_45" d="M.20298767 .0009918213C.20298767 .06498718 .1789856 .10598755 .13899231 .10598755 .10398865 .10598755 .085998538 .07899475 .085998538 .052993776 .085998538 .026992798 .102996829 0 .13899231 0 .1539917 0 .16799927 .005996704 .1789856 .015991211 .18099976-.06312561 .15299988-.12423706 .10899353-.17132569 .102996829-.17733765 .101989749-.17834473 .101989749-.18234253 .101989749-.18936157 .10699463-.19335938 .11199951-.19335938 .12399292-.19335938 .20298767-.114227298 .20298767 .0009918213Z"/>
<path id="font_1_86" d="M.2889862 .25C.2889862 .32798768 .27799989 .44898988 .22299195 .56199648 .16299439 .68499758 .07699585 .75 .066986087 .75 .06098938 .75 .056991579 .74598696 .056991579 .73999026 .056991579 .7369995 .056991579 .7350006 .07598877 .71699526 .17399597 .6179962 .23098755 .45899964 .23098755 .25 .23098755 .07899475 .19400025-.09700012 .069992069-.2230072 .056991579-.23500061 .056991579-.23701477 .056991579-.2400055 .056991579-.2460022 .06098938-.25 .066986087-.25 .07699585-.25 .16699219-.18200684 .22599793-.055007936 .2769928 .054992677 .2889862 .16600037 .2889862 .25Z"/>
<path id="font_1_106" d="M.45700074 .17037964C.45700074 .252594 .3939972 .33088685 .2899933 .35191346 .37199403 .37893678 .42999269 .4490509 .42999269 .52809146 .42999269 .6100464 .34199525 .6660156 .24598694 .6660156 .14498902 .6660156 .068984989 .60606387 .068984989 .53009036 .068984989 .49710084 .09098816 .47808839 .11999512 .47808839 .15098572 .47808839 .17098999 .50009158 .17098999 .5290985 .17098999 .57910159 .12399292 .57910159 .10899353 .57910159 .13999939 .62802127 .20599365 .64100649 .24198914 .64100649 .2829895 .64100649 .33799745 .6190338 .33799745 .5290985 .33799745 .51708987 .33599855 .45906068 .30999757 .4149933 .27999879 .36691285 .24598694 .36390687 .22099304 .36291505 .21299744 .36190797 .18899536 .35990907 .18199158 .35990907 .17399597 .35890199 .16699219 .35791017 .16699219 .3479004 .16699219 .33691407 .17399597 .33691407 .19099427 .33691407H.23498535C.31698609 .33691407 .35398866 .2686615 .35398866 .17037964 .35398866 .034469606 .2849884 .0055389406 .24099732 .0055389406 .19799805 .0055389406 .12298584 .022491456 .08799744 .08137512 .12298584 .07637024 .1539917 .09837341 .1539917 .1363678 .1539917 .17237854 .1269989 .19238281 .09799194 .19238281 .07398987 .19238281 .041992189 .17837525 .041992189 .1343689 .041992189 .043441774 .1349945-.022460938 .24398804-.022460938 .3659973-.022460938 .45700074 .06838989 .45700074 .17037964Z"/>
<path id="font_1_107" d="M.44898988 .17396546H.42399598C.4189911 .14398194 .4119873 .099990848 .4019928 .084991458 .394989 .07699585 .32899476 .07699585 .30699159 .07699585H.1269989L.23298645 .17996216C.3889923 .31803895 .44898988 .37210084 .44898988 .47216798 .44898988 .5860901 .35899354 .6660156 .23699951 .6660156 .12399292 .6660156 .049987794 .57411196 .049987794 .48516847 .049987794 .4291687 .099990848 .4291687 .102996829 .4291687 .11999512 .4291687 .15499878 .44117738 .15499878 .48217774 .15499878 .5081787 .13699341 .5341797 .101989749 .5341797 .09399414 .5341797 .09199524 .5341797 .08898926 .5331726 .11199951 .59806826 .1659851 .63500979 .22399903 .63500979 .31498719 .63500979 .35798646 .5541382 .35798646 .47216798 .35798646 .39196778 .30799867 .31297303 .25299073 .25097657L.06098938 .036987306C.049987794 .025985718 .049987794 .023986817 .049987794 0H.42099L.44898988 .17396546Z"/>
</defs>
<path transform="matrix(1.00006,0,0,-1.00005,24.221611,72.09895)" stroke-width=".19925" stroke-linecap="butt" stroke-miterlimit="10" stroke-linejoin="miter" fill="none" stroke="#cbcbcb" d="M-14.17339 0H99.21382M-14.17339 28.3468H99.21382M-14.17339 56.69362H99.21382M0-14.17339V70.867M28.3468-14.17339V70.867M56.69362-14.17339V70.867M85.04042-14.17339V70.867M99.21382 70.867"/>
<path transform="matrix(1.00006,0,0,-1.00005,24.221611,72.09895)" d="M1.49442 0C1.49442 .82533 .82533 1.49442 0 1.49442-.82533 1.49442-1.49442 .82533-1.49442 0-1.49442-.82533-.82533-1.49442 0-1.49442 .82533-1.49442 1.49442-.82533 1.49442 0ZM0 0"/>
<path transform="matrix(1.00006,0,0,-1.00005,24.221611,72.09895)" d="M1.49442 28.3468C1.49442 29.17215 .82533 29.84122 0 29.84122-.82533 29.84122-1.49442 29.17215-1.49442 28.3468-1.49442 27.52145-.82533 26.85239 0 26.85239 .82533 26.85239 1.49442 27.52145 1.49442 28.3468ZM0 28.3468"/>
<path transform="matrix(1.00006,0,0,-1.00005,24.221611,72.09895)" d="M1.49442 56.69362C1.49442 57.51895 .82533 58.18803 0 58.18803-.82533 58.18803-1.49442 57.51895-1.49442 56.69362-1.49442 55.86827-.82533 55.1992 0 55.1992 .82533 55.1992 1.49442 55.86827 1.49442 56.69362ZM0 56.69362"/>
<path transform="matrix(1.00006,0,0,-1.00005,24.221611,72.09895)" d="M29.84122 0C29.84122 .82533 29.17215 1.49442 28.3468 1.49442 27.52145 1.49442 26.85239 .82533 26.85239 0 26.85239-.82533 27.52145-1.49442 28.3468-1.49442 29.17215-1.49442 29.84122-.82533 29.84122 0ZM28.3468 0"/>
<path transform="matrix(1.00006,0,0,-1.00005,24.221611,72.09895)" d="M29.84122 28.3468C29.84122 29.17215 29.17215 29.84122 28.3468 29.84122 27.52145 29.84122 26.85239 29.17215 26.85239 28.3468 26.85239 27.52145 27.52145 26.85239 28.3468 26.85239 29.17215 26.85239 29.84122 27.52145 29.84122 28.3468ZM28.3468 28.3468"/>
<path transform="matrix(1.00006,0,0,-1.00005,24.221611,72.09895)" d="M29.84122 56.69362C29.84122 57.51895 29.17215 58.18803 28.3468 58.18803 27.52145 58.18803 26.85239 57.51895 26.85239 56.69362 26.85239 55.86827 27.52145 55.1992 28.3468 55.1992 29.17215 55.1992 29.84122 55.86827 29.84122 56.69362ZM28.3468 56.69362"/>
<path transform="matrix(1.00006,0,0,-1.00005,24.221611,72.09895)" d="M58.18803 0C58.18803 .82533 57.51895 1.49442 56.69362 1.49442 55.86827 1.49442 55.1992 .82533 55.1992 0 55.1992-.82533 55.86827-1.49442 56.69362-1.49442 57.51895-1.49442 58.18803-.82533 58.18803 0ZM56.69362 0"/>
<path transform="matrix(1.00006,0,0,-1.00005,24.221611,72.09895)" d="M58.18803 28.3468C58.18803 29.17215 57.51895 29.84122 56.69362 29.84122 55.86827 29.84122 55.1992 29.17215 55.1992 28.3468 55.1992 27.52145 55.86827 26.85239 56.69362 26.85239 57.51895 26.85239 58.18803 27.52145 58.18803 28.3468ZM56.69362 28.3468"/>
<path transform="matrix(1.00006,0,0,-1.00005,24.221611,72.09895)" d="M58.18803 56.69362C58.18803 57.51895 57.51895 58.18803 56.69362 58.18803 55.86827 58.18803 55.1992 57.51895 55.1992 56.69362 55.1992 55.86827 55.86827 55.1992 56.69362 55.1992 57.51895 55.1992 58.18803 55.86827 58.18803 56.69362ZM56.69362 56.69362"/>
<path transform="matrix(1.00006,0,0,-1.00005,24.221611,72.09895)" d="M86.53484 0C86.53484 .82533 85.86577 1.49442 85.04042 1.49442 84.21507 1.49442 83.546 .82533 83.546 0 83.546-.82533 84.21507-1.49442 85.04042-1.49442 85.86577-1.49442 86.53484-.82533 86.53484 0ZM85.04042 0"/>
<path transform="matrix(1.00006,0,0,-1.00005,24.221611,72.09895)" d="M86.53484 28.3468C86.53484 29.17215 85.86577 29.84122 85.04042 29.84122 84.21507 29.84122 83.546 29.17215 83.546 28.3468 83.546 27.52145 84.21507 26.85239 85.04042 26.85239 85.86577 26.85239 86.53484 27.52145 86.53484 28.3468ZM85.04042 28.3468"/>
<path transform="matrix(1.00006,0,0,-1.00005,24.221611,72.09895)" d="M86.53484 56.69362C86.53484 57.51895 85.86577 58.18803 85.04042 58.18803 84.21507 58.18803 83.546 57.51895 83.546 56.69362 83.546 55.86827 84.21507 55.1992 85.04042 55.1992 85.86577 55.1992 86.53484 55.86827 86.53484 56.69362ZM85.04042 56.69362"/>
<path transform="matrix(1.00006,0,0,-1.00005,24.221611,72.09895)" stroke-width=".3985" stroke-linecap="butt" stroke-miterlimit="10" stroke-linejoin="miter" fill="none" stroke="#000000" d="M85.04042 56.69362"/>
<use data-text="(" xlink:href="#font_1_85" transform="matrix(9.963197,0,0,-9.963098,.21717072,83.09151)"/>
<use data-text="0" xlink:href="#font_1_121" transform="matrix(9.963197,0,0,-9.963098,4.0928575,83.09151)"/>
<use data-text="," xlink:href="#font_1_45" transform="matrix(9.963197,0,0,-9.963098,9.074455,83.09151)"/>
<use data-text="0" xlink:href="#font_1_121" transform="matrix(9.963197,0,0,-9.963098,11.844223,83.09151)"/>
<use data-text=")" xlink:href="#font_1_86" transform="matrix(9.963197,0,0,-9.963098,16.82582,83.09151)"/>
<use data-text="(" xlink:href="#font_1_85" transform="matrix(9.963197,0,0,-9.963098,112.78692,9.391823)"/>
<use data-text="3" xlink:href="#font_1_106" transform="matrix(9.963197,0,0,-9.963098,116.662609,9.391823)"/>
<use data-text="," xlink:href="#font_1_45" transform="matrix(9.963197,0,0,-9.963098,121.6442,9.391823)"/>
<use data-text="2" xlink:href="#font_1_107" transform="matrix(9.963197,0,0,-9.963098,124.41397,9.391823)"/>
<use data-text=")" xlink:href="#font_1_86" transform="matrix(9.963197,0,0,-9.963098,129.39557,9.391823)"/>
<path transform="matrix(1.00006,0,0,-1.00005,24.221611,72.09895)" stroke-width="1.19553" stroke-linecap="butt" stroke-miterlimit="10" stroke-linejoin="miter" fill="none" stroke="#000000" d="M0 0V56.69362H85.04042"/>
</svg>
