<svg xmlns="http://www.w3.org/2000/svg" xmlns:xlink="http://www.w3.org/1999/xlink" xmlns:inkscape="http://www.inkscape.org/namespaces/inkscape" version="1.1" width="85" height="44" viewBox="0 0 85 44">
<path transform="matrix(1.00002,0,0,-1.00009,42.91548,34.76869)" d="M-22.9606 30.61426C-22.9606 32.02333-24.10286 33.16559-25.51193 33.16559-26.921 33.16559-28.06326 32.02333-28.06326 30.61426-28.06326 29.20518-26.921 28.06293-25.51193 28.06293-24.10286 28.06293-22.9606 29.20518-22.9606 30.61426ZM2.55133 30.61426C2.55133 32.02333 1.40906 33.16559 0 33.16559-1.40906 33.16559-2.55133 32.02333-2.55133 30.61426-2.55133 29.20518-1.40906 28.06293 0 28.06293 1.40906 28.06293 2.55133 29.20518 2.55133 30.61426ZM28.06326 30.61426C28.06326 32.02333 26.921 33.16559 25.51193 33.16559 24.10286 33.16559 22.9606 32.02333 22.9606 30.61426 22.9606 29.20518 24.10286 28.06293 25.51193 28.06293 26.921 28.06293 28.06326 29.20518 28.06326 30.61426ZM25.51193 30.61426"/>
<path transform="matrix(1.00002,0,0,-1.00009,42.91548,34.76869)" stroke-width=".3985" stroke-linecap="butt" stroke-miterlimit="10" stroke-linejoin="miter" fill="none" stroke="#000000" d="M-28.06328 25.51193-38.09773 .42546"/>
<path transform="matrix(-.37137745,.92852357,.9284586,.37140344,4.81699,34.34317)" stroke-width=".31879" stroke-linecap="round" stroke-linejoin="round" fill="none" stroke="#000000" d="M-1.19551 1.59401C-1.09587 .99626 0 .09961 .29886 0 0-.09961-1.09587-.99626-1.19551-1.59401"/>
<path transform="matrix(1.00002,0,0,-1.00009,42.91548,34.76869)" stroke-width=".3985" stroke-linecap="butt" stroke-miterlimit="10" stroke-linejoin="miter" fill="none" stroke="#000000" d="M-22.96057 25.51193-12.92615 .42546"/>
<path transform="matrix(.37137745,.92852357,.9284586,-.37140344,29.989073,34.34317)" stroke-width=".31879" stroke-linecap="round" stroke-linejoin="round" fill="none" stroke="#000000" d="M-1.19551 1.59401C-1.09587 .99626 0 .09961 .29886 0 0-.09961-1.09587-.99626-1.19551-1.59401"/>
<path transform="matrix(1.00002,0,0,-1.00009,42.91548,34.76869)" stroke-width=".3985" stroke-linecap="butt" stroke-miterlimit="10" stroke-linejoin="miter" fill="none" stroke="#000000" d="M0 25.51193 12.55104 .40985"/>
<path transform="matrix(.44717894,.8944405,.89437797,-.44721023,55.466764,34.35878)" stroke-width=".31879" stroke-linecap="round" stroke-linejoin="round" fill="none" stroke="#000000" d="M-1.19551 1.59401C-1.09587 .99626 0 .09961 .29886 0 0-.09961-1.09587-.99626-1.19551-1.59401"/>
<path transform="matrix(1.00002,0,0,-1.00009,42.91548,34.76869)" stroke-width=".3985" stroke-linecap="butt" stroke-miterlimit="10" stroke-linejoin="miter" fill="none" stroke="#000000" d="M25.51193 25.51193 38.06299 .40985"/>
<path transform="matrix(.44717894,.8944405,.89437797,-.44721023,80.97922,34.35878)" stroke-width=".31879" stroke-linecap="round" stroke-linejoin="round" fill="none" stroke="#000000" d="M-1.19551 1.59401C-1.09587 .99626 0 .09961 .29886 0 0-.09961-1.09587-.99626-1.19551-1.59401"/>
<path transform="matrix(1.00002,0,0,-1.00009,42.91548,34.76869)" stroke-width=".3985" stroke-linecap="butt" stroke-miterlimit="10" stroke-linejoin="miter" fill="none" stroke="#000000" d="M-10.20462-5.1023C-10.20462-3.69322-11.3469-2.55096-12.75595-2.55096-14.16502-2.55096-15.3073-3.69322-15.3073-5.1023-15.3073-6.51137-14.16502-7.65363-12.75595-7.65363-11.3469-7.65363-10.20462-6.51137-10.20462-5.1023ZM15.3073-5.1023C15.3073-3.69322 14.16502-2.55096 12.75595-2.55096 11.3469-2.55096 10.20462-3.69322 10.20462-5.1023 10.20462-6.51137 11.3469-7.65363 12.75595-7.65363 14.16502-7.65363 15.3073-6.51137 15.3073-5.1023ZM-35.71658-5.1023C-35.71658-3.69322-36.85884-2.55096-38.26791-2.55096-39.67699-2.55096-40.81924-3.69322-40.81924-5.1023-40.81924-6.51137-39.67699-7.65363-38.26791-7.65363-36.85884-7.65363-35.71658-6.51137-35.71658-5.1023ZM40.81924-5.1023C40.81924-3.69322 39.67699-2.55096 38.26791-2.55096 36.85884-2.55096 35.71658-3.69322 35.71658-5.1023 35.71658-6.51137 36.85884-7.65363 38.26791-7.65363 39.67699-7.65363 40.81924-6.51137 40.81924-5.1023ZM38.26791-5.1023"/>
</svg>
