<svg xmlns="http://www.w3.org/2000/svg" xmlns:xlink="http://www.w3.org/1999/xlink" xmlns:inkscape="http://www.inkscape.org/namespaces/inkscape" version="1.1" width="166" height="152" viewBox="0 0 166 152">
<defs>
<path id="font_1_85" d="M.33099366-.2400055C.33099366-.23701477 .33099366-.23500061 .31399537-.21800232 .18899536-.0920105 .15699768 .09700012 .15699768 .25 .15699768 .42399598 .19499207 .59799197 .31799317 .72299197 .33099366 .7350006 .33099366 .7369995 .33099366 .73999026 .33099366 .746994 .32699586 .75 .32099916 .75 .31098939 .75 .22099304 .6819916 .1619873 .5549927 .11099243 .44499208 .09899902 .33399964 .09899902 .25 .09899902 .17199707 .10998535 .050994874 .16499329-.06201172 .22499085-.18501282 .31098939-.25 .32099916-.25 .32699586-.25 .33099366-.24700928 .33099366-.2400055Z"/>
<path id="font_1_121" d="M.45999146 .31976319C.45999146 .39982606 .45498658 .47988893 .41999818 .5539398 .37399293 .65000918 .2919922 .6660156 .25 .6660156 .18998719 .6660156 .116989139 .64001467 .07598877 .54693606 .04399109 .47789 .038986207 .39982606 .038986207 .31976319 .038986207 .24472046 .042999269 .15464783 .083999637 .07859802 .1269989-.0024719239 .19999695-.022460938 .24899292-.022460938 .30299378-.022460938 .3789978-.0014648438 .4229889 .09359741 .45498658 .16265869 .45999146 .2407074 .45999146 .31976319M.3769989 .3317871C.3769989 .25672914 .3769989 .18867493 .3659973 .12461853 .35099793 .029556275 .2939911-.00047302247 .24899292-.00047302247 .20999146-.00047302247 .15098572 .024551392 .1329956 .12062073 .12199402 .18066406 .12199402 .2727356 .12199402 .3317871 .12199402 .39582826 .12199402 .46188355 .12998963 .5159149 .14898682 .63500979 .22399903 .64401248 .24899292 .64401248 .28199769 .64401248 .34799195 .6259918 .36698915 .52693179 .3769989 .47088624 .3769989 .39482118 .3769989 .3317871Z"/>
<path id="font_1_45" d="M.20298767 .0009918213C.20298767 .06498718 .1789856 .10598755 .13899231 .10598755 .10398865 .10598755 .085998538 .07899475 .085998538 .052993776 .085998538 .026992798 .102996829 0 .13899231 0 .1539917 0 .16799927 .005996704 .1789856 .015991211 .18099976-.06312561 .15299988-.12423706 .10899353-.17132569 .102996829-.17733765 .101989749-.17834473 .101989749-.18234253 .101989749-.18936157 .10699463-.19335938 .11199951-.19335938 .12399292-.19335938 .20298767-.114227298 .20298767 .0009918213Z"/>
<path id="font_1_86" d="M.2889862 .25C.2889862 .32798768 .27799989 .44898988 .22299195 .56199648 .16299439 .68499758 .07699585 .75 .066986087 .75 .06098938 .75 .056991579 .74598696 .056991579 .73999026 .056991579 .7369995 .056991579 .7350006 .07598877 .71699526 .17399597 .6179962 .23098755 .45899964 .23098755 .25 .23098755 .07899475 .19400025-.09700012 .069992069-.2230072 .056991579-.23500061 .056991579-.23701477 .056991579-.2400055 .056991579-.2460022 .06098938-.25 .066986087-.25 .07699585-.25 .16699219-.18200684 .22599793-.055007936 .2769928 .054992677 .2889862 .16600037 .2889862 .25Z"/>
<path id="font_1_106" d="M.45700074 .17037964C.45700074 .252594 .3939972 .33088685 .2899933 .35191346 .37199403 .37893678 .42999269 .4490509 .42999269 .52809146 .42999269 .6100464 .34199525 .6660156 .24598694 .6660156 .14498902 .6660156 .068984989 .60606387 .068984989 .53009036 .068984989 .49710084 .09098816 .47808839 .11999512 .47808839 .15098572 .47808839 .17098999 .50009158 .17098999 .5290985 .17098999 .57910159 .12399292 .57910159 .10899353 .57910159 .13999939 .62802127 .20599365 .64100649 .24198914 .64100649 .2829895 .64100649 .33799745 .6190338 .33799745 .5290985 .33799745 .51708987 .33599855 .45906068 .30999757 .4149933 .27999879 .36691285 .24598694 .36390687 .22099304 .36291505 .21299744 .36190797 .18899536 .35990907 .18199158 .35990907 .17399597 .35890199 .16699219 .35791017 .16699219 .3479004 .16699219 .33691407 .17399597 .33691407 .19099427 .33691407H.23498535C.31698609 .33691407 .35398866 .2686615 .35398866 .17037964 .35398866 .034469606 .2849884 .0055389406 .24099732 .0055389406 .19799805 .0055389406 .12298584 .022491456 .08799744 .08137512 .12298584 .07637024 .1539917 .09837341 .1539917 .1363678 .1539917 .17237854 .1269989 .19238281 .09799194 .19238281 .07398987 .19238281 .041992189 .17837525 .041992189 .1343689 .041992189 .043441774 .1349945-.022460938 .24398804-.022460938 .3659973-.022460938 .45700074 .06838989 .45700074 .17037964Z"/>
<path id="font_1_107" d="M.44898988 .17396546H.42399598C.4189911 .14398194 .4119873 .099990848 .4019928 .084991458 .394989 .07699585 .32899476 .07699585 .30699159 .07699585H.1269989L.23298645 .17996216C.3889923 .31803895 .44898988 .37210084 .44898988 .47216798 .44898988 .5860901 .35899354 .6660156 .23699951 .6660156 .12399292 .6660156 .049987794 .57411196 .049987794 .48516847 .049987794 .4291687 .099990848 .4291687 .102996829 .4291687 .11999512 .4291687 .15499878 .44117738 .15499878 .48217774 .15499878 .5081787 .13699341 .5341797 .101989749 .5341797 .09399414 .5341797 .09199524 .5341797 .08898926 .5331726 .11199951 .59806826 .1659851 .63500979 .22399903 .63500979 .31498719 .63500979 .35798646 .5541382 .35798646 .47216798 .35798646 .39196778 .30799867 .31297303 .25299073 .25097657L.06098938 .036987306C.049987794 .025985718 .049987794 .023986817 .049987794 0H.42099L.44898988 .17396546Z"/>
<path id="font_2_2" d="M.1599884 .07795715C.1499939 .038986207 .147995 .0309906 .068984989 .0309906 .051986696 .0309906 .041992189 .0309906 .041992189 .010986328 .041992189 0 .050994874 0 .068984989 0H.42599488C.58399966 0 .70199587 .11791992 .70199587 .21585083 .70199587 .28778077 .6439972 .3457489 .5469971 .35673524 .651001 .37573243 .7559967 .44970704 .7559967 .5446625 .7559967 .6186218 .6899872 .6826172 .56999209 .6826172H.23399353C.21499634 .6826172 .20498657 .6826172 .20498657 .6626129 .20498657 .6516113 .21398926 .6516113 .23298645 .6516113 .23498535 .6516113 .2539978 .6516113 .2709961 .6496124 .2889862 .6476135 .2979889 .64660647 .2979889 .6336212 .2979889 .6296234 .29699708 .62661746 .2939911 .614624L.1599884 .07795715M.31098939 .36573792 .37298585 .6136322C.38198854 .64860537 .38398744 .6516113 .4269867 .6516113H.55599978C.6439972 .6516113 .6649933 .5926361 .6649933 .5486603 .6649933 .46069337 .57899478 .36573792 .45700074 .36573792H.31098939M.2659912 .0309906C.2519989 .0309906 .25 .0309906 .24398804 .03199768 .23399353 .032989503 .23098755 .033996583 .23098755 .04197693 .23098755 .04498291 .23098755 .04698181 .23599243 .064971927L.30499269 .34375H.49398805C.58999636 .34375 .60899356 .2698059 .60899356 .22683716 .60899356 .12791443 .519989 .0309906 .4019928 .0309906H.2659912Z"/>
<path id="font_2_1" d="M.1789856 .114868167C.13899231 .047973634 .099990848 .033981325 .055999757 .0309906 .04399109 .02999878 .034988405 .02999878 .034988405 .010986328 .034988405 .004989624 .039993287 0 .04798889 0 .07499695 0 .10598755 .0029907227 .13398743 .0029907227 .16699219 .0029907227 .20199585 0 .23399353 0 .23999024 0 .25299073 0 .25299073 .018997193 .25299073 .02999878 .24398804 .0309906 .23699951 .0309906 .21398926 .032989503 .18998719 .04096985 .18998719 .06593323 .18998719 .077926639 .19599915 .088897708 .20399475 .102890018L.27999879 .23068238H.5309906C.5329895 .2097168 .5469971 .07392883 .5469971 .063949588 .5469971 .033981325 .49499513 .0309906 .47499085 .0309906 .46099855 .0309906 .45098878 .0309906 .45098878 .010986328 .45098878 0 .46299745 0 .46499635 0 .5059967 0 .548996 .0029907227 .58999636 .0029907227 .61499026 .0029907227 .6779938 0 .7029877 0 .70899966 0 .72099307 0 .72099307 .019989014 .72099307 .0309906 .71099856 .0309906 .69799807 .0309906 .6359863 .0309906 .6359863 .037979127 .6329956 .06694031L.57199099 .691803C.56999209 .71180728 .56999209 .7158203 .5529938 .7158203 .5369873 .7158203 .5329895 .7088165 .5269928 .69880679L.1789856 .114868167M.29899598 .26168824 .49598695 .5917816 .5279999 .26168824H.29899598Z"/>
<path id="font_3_82" d="M.4099884 0V.0289917H.3789978C.29100038 .0289917 .28799439 .041000368 .28799439 .07701111V.6411133C.28799439 .664032 .28799439 .66503909 .2679901 .66503909 .24398804 .63812258 .19400025 .6012573 .09098816 .6012573V.5722656C.11399841 .5722656 .1639862 .5722656 .21899414 .59825137V.07701111C.21899414 .041000368 .21598816 .0289917 .12799073 .0289917H.09700012V0C.12399292 .0019989014 .22099304 .0019989014 .2539978 .0019989014 .2869873 .0019989014 .3829956 .0019989014 .4099884 0Z"/>
<path id="font_3_107" d="M.43998719 .16799927H.41799928C.4149933 .15098572 .40699769 .09599304 .39698792 .07998657 .3899994 .070999149 .33299256 .070999149 .30299378 .070999149H.117996219C.14498902 .09399414 .20599365 .1579895 .23199463 .18199158 .38398744 .3217926 .43998719 .37374879 .43998719 .47270204 .43998719 .5878906 .34899903 .66503909 .23298645 .66503909 .116989139 .66503909 .04899597 .5658264 .04899597 .4797058 .04899597 .42871095 .09298706 .42871095 .09599304 .42871095 .116989139 .42871095 .14299011 .44371034 .14299011 .475708 .14299011 .5037079 .12399292 .5227051 .09599304 .5227051 .08699036 .5227051 .084991458 .5227051 .08198547 .521698 .100997928 .5899048 .15499878 .6360321 .21998596 .6360321 .30499269 .6360321 .35699464 .56481936 .35699464 .47270204 .35699464 .3877411 .30799867 .313797 .25099183 .24984741L.04899597 .023986817V0H.4139862L.43998719 .16799927Z"/>
<path id="font_3_106" d="M.44799806 .17103577C.44799806 .263031 .37399293 .33503724 .27799989 .35203553 .36499024 .37702943 .42099 .45002748 .42099 .5280304 .42099 .60702517 .33898927 .66503909 .24198914 .66503909 .14199829 .66503909 .067993167 .6040344 .067993167 .5310364 .067993167 .49121095 .09899902 .48321534 .11399841 .48321534 .1349945 .48321534 .15899658 .49821473 .15899658 .5282135 .15899658 .5602112 .1349945 .57421877 .11299133 .57421877 .10699463 .57421877 .10499573 .57421877 .101989749 .57321169 .13999939 .641037 .23399353 .641037 .23899842 .641037 .27198792 .641037 .33699037 .6260681 .33699037 .5282135 .33699037 .5092163 .33399964 .453125 .30499269 .41001893 .2749939 .3658905 .24099732 .36288453 .21398926 .36187745L.18399048 .35888673C.16699219 .35787965 .16299439 .35688783 .16299439 .34788514 .16299439 .33789063 .16799927 .33789063 .18598938 .33789063H.23199463C.31698609 .33789063 .35499574 .267807 .35499574 .17172241 .35499574 .04058838 .2869873 .005508423 .23799134 .005508423 .18998719 .005508423 .10798645 .028564454 .07899475 .09472656 .11099243 .08955383 .13999939 .107543949 .13999939 .14355469 .13999939 .17271424 .11898804 .1927185 .09098816 .1927185 .066986087 .1927185 .040985109 .1787262 .040985109 .14071656 .040985109 .051620485 .12998963-.021484375 .24099732-.021484375 .3600006-.021453858 .44799806 .06954956 .44799806 .17054749V.17103577Z"/>
<path id="font_3_57" d="M.46199037 .16699219V.19598389H.36099244V.6508026C.36099244 .6697998 .36099244 .6748047 .34700013 .6748047 .33898927 .6748047 .33599855 .6748047 .32798768 .6628113L.026992798 .19598389V.16699219H.2899933V.07598877C.2899933 .038986207 .28799439 .0289917 .21499634 .0289917H.19499207V0C.21798706 .0019989014 .29699708 .0019989014 .32499696 .0019989014 .35299684 .0019989014 .43299867 .0019989014 .45599366 0V.0289917H.43598939C.3639984 .0289917 .36099244 .038986207 .36099244 .07598877V.16699219H.46199037M.29499818 .19598389H.051986696L.29499818 .57284548V.19598389Z"/>
<path id="font_3_101" d="M.44799806 .2036438C.44799806 .33665467 .35499574 .42578126 .25498963 .42578126 .1659851 .42578126 .1329956 .34864808 .12298584 .3206482V.34765626C.12298584 .60061648 .24598694 .640625 .2999878 .640625 .33599855 .6405945 .37199403 .62960818 .3909912 .5996094 .3789978 .59962466 .34098817 .59962466 .34098817 .55862429 .34098817 .53660586 .35598756 .51760867 .38198854 .51760867 .40699769 .51760867 .42399598 .53260806 .42399598 .56159976 .42399598 .6137543 .38598634 .66503909 .29899598 .66503909 .17298889 .66503909 .040985109 .53559878 .040985109 .31556703 .040985109 .040512086 .16099549-.021484375 .24598694-.021484375 .35499574-.021484375 .44799806 .073516849 .44799806 .20353699V.2036438M.3659973 .20452881C.3659973 .15351868 .3659973 .10852051 .34700013 .070510867 .32199098 .022506714 .28599549 .005508423 .24598694 .005508423 .18299866 .005508423 .15299988 .06150818 .14399719 .08251953 .1349945 .10852051 .125 .15753174 .125 .22753906 .125 .30664063 .16099549 .40577699 .25099183 .40577699 .30599977 .40577699 .33499146 .36872865 .34999085 .33467103 .3659973 .29762269 .3659973 .2475586 .3659973 .20452881Z"/>
<path id="font_3_56" d="M.43998719 .2004242C.43998719 .3194275 .3600006 .4184265 .25498963 .4184265 .19799805 .4184265 .1539917 .39343263 .12799073 .36543275V.5722656C.17098999 .558609 .20599365 .5576172 .21699524 .5576172 .32998658 .5576172 .4019928 .6404724 .4019928 .65423586 .4019928 .65815737 .3999939 .66308596 .3939972 .66308596 .3939972 .6638031 .3899994 .6638031 .3809967 .6598053 .32499696 .6358032 .2769928 .6328125 .25099183 .6328125 .18499756 .6322632 .13798523 .6522522 .11898804 .66026309 .11199951 .66308596 .10899353 .66308596 .10899353 .66308596 .100997928 .66308596 .100997928 .65708926 .100997928 .6411133V.34443666C.100997928 .32644654 .100997928 .32044984 .11299133 .32044984 .117996219 .32044984 .11898804 .32144166 .1289978 .33345033 .15699768 .37443543 .20399475 .3984375 .2539978 .3984375 .30699159 .3984375 .33299256 .34944154 .34098817 .33244325 .35798646 .29345704 .35899354 .24446106 .35899354 .20648194 .35899354 .16848755 .35899354 .11149597 .33099366 .06651306 .30899049 .030426026 .269989 .005508423 .22599793 .005508423 .1599884 .005508423 .09498596 .050354005 .07699585 .12310791 .08198547 .12110901 .08799744 .12011719 .09298706 .12011719 .10998535 .12011719 .13699341 .1301117 .13699341 .16410828 .13699341 .19210816 .117996219 .20811463 .09298706 .20811463 .07499695 .20811463 .04899597 .19911194 .04899597 .16011048 .04899597 .07527161 .116989139-.021484375 .22799683-.021484375 .34098817-.021484375 .43998719 .073272708 .43998719 .20010376V.2004242Z"/>
<path id="font_3_121" d="M.44799806 .31976319C.44799806 .40283204 .44299317 .48388673 .40699769 .5599518 .3659973 .64302065 .2939911 .66503909 .24499512 .66503909 .18699646 .66503909 .115997318 .6360016 .07899475 .552948 .050994874 .48989869 .040985109 .42785646 .040985109 .31976319 .040985109 .22268677 .04798889 .14964295 .083999637 .07858276 .12298584 .002532959 .19198609-.021484375 .24398804-.021484375 .33099366-.021484375 .3809967 .030548096 .4099884 .08859253 .44599916 .16365052 .44799806 .26171876 .44799806 .31976319M.37199403 .33177186C.37199403 .26472474 .37199403 .18867493 .36099244 .12762451 .34199525 .017532349 .2789917-.0014801025 .24398804-.0014801025 .21199036-.0014801025 .14698792 .016540528 .12799073 .12562561 .116989139 .18566895 .116989139 .26171876 .116989139 .33177186 .116989139 .41383363 .116989139 .48789979 .1329956 .54693606 .1499939 .6139984 .20098877 .64501956 .24398804 .64501956 .28199769 .64501956 .33999635 .621994 .35899354 .53593447 .37199403 .47888185 .37199403 .39982606 .37199403 .33177186Z"/>
</defs>
<path transform="matrix(1.00009,0,0,-1.00003,83.11276,17.403073)" stroke-width=".3985" stroke-linecap="butt" stroke-miterlimit="10" stroke-linejoin="miter" fill="none" stroke="#000000" d="M12.42032 11.69301-41.58809-81.85112M-1.08177 11.69301 39.42453-58.46509"/>
<path transform="matrix(1.00009,0,0,-1.00003,83.11276,17.403073)" stroke-width=".19925" stroke-linecap="butt" stroke-miterlimit="10" stroke-linejoin="miter" fill="none" stroke="#929292" d="M25.92242-11.69302-28.08598-105.23717M39.42453-35.07906-14.58388-128.6232M-14.58388-11.69302 25.92242-81.85112M-28.08598-35.07906 12.42032-105.23717M-41.58809-58.4651-1.08179-128.6232"/>
<path transform="matrix(1.00009,0,0,-1.00003,83.11276,17.403073)" d="M7.16368 0C7.16368 .82533 6.49461 1.49442 5.66927 1.49442 4.84392 1.49442 4.17485 .82533 4.17485 0 4.17485-.82533 4.84392-1.49442 5.66927-1.49442 6.49461-1.49442 7.16368-.82533 7.16368 0ZM5.66927 0"/>
<path transform="matrix(1.00009,0,0,-1.00003,83.11276,17.403073)" d="M20.66579-23.38603C20.66579-22.56068 19.99672-21.89162 19.17137-21.89162 18.34602-21.89162 17.67696-22.56068 17.67696-23.38603 17.67696-24.21138 18.34602-24.88045 19.17137-24.88045 19.99672-24.88045 20.66579-24.21138 20.66579-23.38603ZM19.17137-23.38603"/>
<path transform="matrix(1.00009,0,0,-1.00003,83.11276,17.403073)" d="M34.1679-46.77206C34.1679-45.94673 33.49883-45.27765 32.67348-45.27765 31.84814-45.27765 31.17906-45.94673 31.17906-46.77206 31.17906-47.59741 31.84814-48.26648 32.67348-48.26648 33.49883-48.26648 34.1679-47.59741 34.1679-46.77206ZM32.67348-46.77206"/>
<path transform="matrix(1.00009,0,0,-1.00003,83.11276,17.403073)" d="M-6.33841-23.38603C-6.33841-22.56068-7.00748-21.89162-7.83282-21.89162-8.65817-21.89162-9.32724-22.56068-9.32724-23.38603-9.32724-24.21138-8.65817-24.88045-7.83282-24.88045-7.00748-24.88045-6.33841-24.21138-6.33841-23.38603ZM-7.83282-23.38603"/>
<path transform="matrix(1.00009,0,0,-1.00003,83.11276,17.403073)" d="M7.16368-46.77206C7.16368-45.94673 6.49461-45.27765 5.66927-45.27765 4.84392-45.27765 4.17485-45.94673 4.17485-46.77206 4.17485-47.59741 4.84392-48.26648 5.66927-48.26648 6.49461-48.26648 7.16368-47.59741 7.16368-46.77206ZM5.66927-46.77206"/>
<path transform="matrix(1.00009,0,0,-1.00003,83.11276,17.403073)" d="M20.66579-70.15811C20.66579-69.33276 19.99672-68.6637 19.17137-68.6637 18.34602-68.6637 17.67696-69.33276 17.67696-70.15811 17.67696-70.98346 18.34602-71.65253 19.17137-71.65253 19.99672-71.65253 20.66579-70.98346 20.66579-70.15811ZM19.17137-70.15811"/>
<path transform="matrix(1.00009,0,0,-1.00003,83.11276,17.403073)" d="M-19.84052-46.77206C-19.84052-45.94673-20.50958-45.27765-21.33493-45.27765-22.16028-45.27765-22.82935-45.94673-22.82935-46.77206-22.82935-47.59741-22.16028-48.26648-21.33493-48.26648-20.50958-48.26648-19.84052-47.59741-19.84052-46.77206ZM-21.33493-46.77206"/>
<path transform="matrix(1.00009,0,0,-1.00003,83.11276,17.403073)" d="M-6.33841-70.15811C-6.33841-69.33276-7.00748-68.6637-7.83282-68.6637-8.65817-68.6637-9.32724-69.33276-9.32724-70.15811-9.32724-70.98346-8.65817-71.65253-7.83282-71.65253-7.00748-71.65253-6.33841-70.98346-6.33841-70.15811ZM-7.83282-70.15811"/>
<path transform="matrix(1.00009,0,0,-1.00003,83.11276,17.403073)" d="M7.16368-93.54414C7.16368-92.71881 6.49461-92.04973 5.66927-92.04973 4.84392-92.04973 4.17485-92.71881 4.17485-93.54414 4.17485-94.36949 4.84392-95.03856 5.66927-95.03856 6.49461-95.03856 7.16368-94.36949 7.16368-93.54414ZM5.66927-93.54414"/>
<path transform="matrix(1.00009,0,0,-1.00003,83.11276,17.403073)" d="M-33.34262-70.15811C-33.34262-69.33276-34.0117-68.6637-34.83704-68.6637-35.66238-68.6637-36.33145-69.33276-36.33145-70.15811-36.33145-70.98346-35.66238-71.65253-34.83704-71.65253-34.0117-71.65253-33.34262-70.98346-33.34262-70.15811ZM-34.83704-70.15811"/>
<path transform="matrix(1.00009,0,0,-1.00003,83.11276,17.403073)" d="M-19.84052-93.54414C-19.84052-92.71881-20.50958-92.04973-21.33493-92.04973-22.16028-92.04973-22.82935-92.71881-22.82935-93.54414-22.82935-94.36949-22.16028-95.03856-21.33493-95.03856-20.50958-95.03856-19.84052-94.36949-19.84052-93.54414ZM-21.33493-93.54414"/>
<path transform="matrix(1.00009,0,0,-1.00003,83.11276,17.403073)" d="M-6.33841-116.93019C-6.33841-116.10484-7.00748-115.43578-7.83282-115.43578-8.65817-115.43578-9.32724-116.10484-9.32724-116.93019-9.32724-117.75554-8.65817-118.4246-7.83282-118.4246-7.00748-118.4246-6.33841-117.75554-6.33841-116.93019ZM-7.83282-116.93019"/>
<path transform="matrix(1.00009,0,0,-1.00003,83.11276,17.403073)" stroke-width=".3985" stroke-linecap="butt" stroke-miterlimit="10" stroke-linejoin="miter" fill="none" stroke="#000000" d="M-7.83282-116.93019"/>
<use data-text="(" xlink:href="#font_1_85" transform="matrix(9.963496,0,0,-9.962899,92.30259,11.392891)"/>
<use data-text="0" xlink:href="#font_1_121" transform="matrix(9.963496,0,0,-9.962899,96.1784,11.392891)"/>
<use data-text="," xlink:href="#font_1_45" transform="matrix(9.963496,0,0,-9.962899,101.16013,11.392891)"/>
<use data-text="0" xlink:href="#font_1_121" transform="matrix(9.963496,0,0,-9.962899,103.93,11.392891)"/>
<use data-text=")" xlink:href="#font_1_86" transform="matrix(9.963496,0,0,-9.962899,108.911739,11.392891)"/>
<use data-text="(" xlink:href="#font_1_85" transform="matrix(9.963496,0,0,-9.962899,78.79938,145.32892)"/>
<use data-text="3" xlink:href="#font_1_106" transform="matrix(9.963496,0,0,-9.962899,82.675189,145.32892)"/>
<use data-text="," xlink:href="#font_1_45" transform="matrix(9.963496,0,0,-9.962899,87.65692,145.32892)"/>
<use data-text="2" xlink:href="#font_1_107" transform="matrix(9.963496,0,0,-9.962899,90.42679,145.32892)"/>
<use data-text=")" xlink:href="#font_1_86" transform="matrix(9.963496,0,0,-9.962899,95.40852,145.32892)"/>
<path transform="matrix(1.00009,0,0,-1.00003,83.11276,17.403073)" stroke-width=".3985" stroke-linecap="butt" stroke-miterlimit="10" stroke-linejoin="miter" fill="none" stroke="#000000" d="M5.66927-93.54414"/>
<use data-text="B" xlink:href="#font_2_2" transform="matrix(9.963496,0,0,-9.962899,65.29616,114.35399)"/>
<use data-text="A" xlink:href="#font_2_1" transform="matrix(9.963496,0,0,-9.962899,92.30259,114.35399)"/>
<path transform="matrix(1.00009,0,0,-1.00003,83.11276,17.403073)" stroke-width=".3985" stroke-linecap="butt" stroke-miterlimit="10" stroke-linejoin="miter" fill="none" stroke="#000000" stroke-opacity=".25" d="M0 15.59082 13.50166 7.79518V-7.79518L0-15.59082-13.50166-7.79518V7.79518Z"/>
<path transform="matrix(1.00009,0,0,-1.00003,83.11276,17.403073)" stroke-width=".3985" stroke-linecap="butt" stroke-miterlimit="10" stroke-linejoin="miter" fill="none" stroke="#000000" stroke-opacity=".25" d="M0 0"/>
<use data-text="1" xlink:href="#font_3_82" transform="matrix(11.956276,0,0,-11.95556,80.1835,21.378191)" fill-opacity=".25"/>
<path transform="matrix(1.00009,0,0,-1.00003,83.11276,17.403073)" stroke-width=".3985" stroke-linecap="butt" stroke-miterlimit="10" stroke-linejoin="miter" fill="none" stroke="#000000" stroke-opacity=".25" d="M-13.50166-7.79518 0-15.59082V-31.18121L-13.50166-38.97685-27.00333-31.18121V-15.59082Z"/>
<path transform="matrix(1.00009,0,0,-1.00003,83.11276,17.403073)" stroke-width=".3985" stroke-linecap="butt" stroke-miterlimit="10" stroke-linejoin="miter" fill="none" stroke="#000000" stroke-opacity=".25" d="M-13.50166-23.38602"/>
<use data-text="1" xlink:href="#font_3_82" transform="matrix(11.956276,0,0,-11.95556,66.68028,44.764898)" fill-opacity=".25"/>
<path transform="matrix(1.00009,0,0,-1.00003,83.11276,17.403073)" stroke-width=".3985" stroke-linecap="butt" stroke-miterlimit="10" stroke-linejoin="miter" fill="none" stroke="#000000" stroke-opacity=".25" d="M-27.00333-31.18121-13.50166-38.97685V-54.56723L-27.00333-62.36287-40.50499-54.56723V-38.97685Z"/>
<path transform="matrix(1.00009,0,0,-1.00003,83.11276,17.403073)" stroke-width=".3985" stroke-linecap="butt" stroke-miterlimit="10" stroke-linejoin="miter" fill="none" stroke="#000000" stroke-opacity=".25" d="M-27.00333-46.77203"/>
<use data-text="1" xlink:href="#font_3_82" transform="matrix(11.956276,0,0,-11.95556,53.17807,68.1516)" fill-opacity=".25"/>
<path transform="matrix(1.00009,0,0,-1.00003,83.11276,17.403073)" stroke-width=".3985" stroke-linecap="butt" stroke-miterlimit="10" stroke-linejoin="miter" fill="none" stroke="#000000" stroke-opacity=".25" d="M-40.505-54.56725-27.00334-62.36288V-77.95328L-40.505-85.74892-54.00668-77.95328V-62.36288Z"/>
<path transform="matrix(1.00009,0,0,-1.00003,83.11276,17.403073)" stroke-width=".3985" stroke-linecap="butt" stroke-miterlimit="10" stroke-linejoin="miter" fill="none" stroke="#000000" stroke-opacity=".25" d="M-40.505-70.15808"/>
<use data-text="1" xlink:href="#font_3_82" transform="matrix(11.956276,0,0,-11.95556,39.67485,91.53831)" fill-opacity=".25"/>
<path transform="matrix(1.00009,0,0,-1.00003,83.11276,17.403073)" stroke-width=".3985" stroke-linecap="butt" stroke-miterlimit="10" stroke-linejoin="miter" fill="none" stroke="#000000" stroke-opacity=".25" d="M-54.00668-77.95328-40.505-85.74892V-101.3393L-54.00668-109.13493-67.50835-101.3393V-85.74892Z"/>
<path transform="matrix(1.00009,0,0,-1.00003,83.11276,17.403073)" stroke-width=".3985" stroke-linecap="butt" stroke-miterlimit="10" stroke-linejoin="miter" fill="none" stroke="#000000" stroke-opacity=".25" d="M-54.00668-93.5441"/>
<use data-text="1" xlink:href="#font_3_82" transform="matrix(11.956276,0,0,-11.95556,26.171647,114.925)" fill-opacity=".25"/>
<path transform="matrix(1.00009,0,0,-1.00003,83.11276,17.403073)" stroke-width=".3985" stroke-linecap="butt" stroke-miterlimit="10" stroke-linejoin="miter" fill="none" stroke="#000000" stroke-opacity=".25" d="M-67.50835-101.33931-54.00668-109.13495V-124.72534L-67.50835-132.52098-81.01001-124.72534V-109.13495Z"/>
<path transform="matrix(1.00009,0,0,-1.00003,83.11276,17.403073)" stroke-width=".3985" stroke-linecap="butt" stroke-miterlimit="10" stroke-linejoin="miter" fill="none" stroke="#000000" stroke-opacity=".25" d="M-67.50835-116.93015"/>
<use data-text="1" xlink:href="#font_3_82" transform="matrix(11.956276,0,0,-11.95556,12.669418,138.3117)" fill-opacity=".25"/>
<path transform="matrix(1.00009,0,0,-1.00003,83.11276,17.403073)" stroke-width=".3985" stroke-linecap="butt" stroke-miterlimit="10" stroke-linejoin="miter" fill="none" stroke="#000000" stroke-opacity=".25" d="M13.50166-7.79518 27.00333-15.59082V-31.18121L13.50166-38.97685 0-31.18121V-15.59082Z"/>
<path transform="matrix(1.00009,0,0,-1.00003,83.11276,17.403073)" stroke-width=".3985" stroke-linecap="butt" stroke-miterlimit="10" stroke-linejoin="miter" fill="none" stroke="#000000" stroke-opacity=".25" d="M13.50166-23.38602"/>
<use data-text="1" xlink:href="#font_3_82" transform="matrix(11.956276,0,0,-11.95556,93.686717,44.764898)" fill-opacity=".25"/>
<path transform="matrix(1.00009,0,0,-1.00003,83.11276,17.403073)" stroke-width=".3985" stroke-linecap="butt" stroke-miterlimit="10" stroke-linejoin="miter" fill="none" stroke="#000000" stroke-opacity=".25" d="M0-31.18121 13.50166-38.97685V-54.56723L0-62.36287-13.50166-54.56723V-38.97685Z"/>
<path transform="matrix(1.00009,0,0,-1.00003,83.11276,17.403073)" stroke-width=".3985" stroke-linecap="butt" stroke-miterlimit="10" stroke-linejoin="miter" fill="none" stroke="#000000" stroke-opacity=".25" d="M0-46.77203"/>
<use data-text="2" xlink:href="#font_3_107" transform="matrix(11.956276,0,0,-11.95556,80.1835,68.1516)" fill-opacity=".25"/>
<path transform="matrix(1.00009,0,0,-1.00003,83.11276,17.403073)" stroke-width=".3985" stroke-linecap="butt" stroke-miterlimit="10" stroke-linejoin="miter" fill="none" stroke="#000000" stroke-opacity=".25" d="M27.0042-31.18121 40.50586-38.97685V-54.56723L27.0042-62.36287 13.50253-54.56723V-38.97685Z"/>
<path transform="matrix(1.00009,0,0,-1.00003,83.11276,17.403073)" stroke-width=".3985" stroke-linecap="butt" stroke-miterlimit="10" stroke-linejoin="miter" fill="none" stroke="#000000" stroke-opacity=".25" d="M27.0042-46.77203"/>
<use data-text="1" xlink:href="#font_3_82" transform="matrix(11.956276,0,0,-11.95556,107.189929,68.1516)" fill-opacity=".25"/>
<path transform="matrix(1.00009,0,0,-1.00003,83.11276,17.403073)" stroke-width=".3985" stroke-linecap="butt" stroke-miterlimit="10" stroke-linejoin="miter" fill="none" stroke="#000000" stroke-opacity=".25" d="M-13.50166-54.56725 0-62.36288V-77.95328L-13.50166-85.74892-27.00333-77.95328V-62.36288Z"/>
<path transform="matrix(1.00009,0,0,-1.00003,83.11276,17.403073)" stroke-width=".3985" stroke-linecap="butt" stroke-miterlimit="10" stroke-linejoin="miter" fill="none" stroke="#000000" stroke-opacity=".25" d="M-13.50166-70.15808"/>
<use data-text="3" xlink:href="#font_3_106" transform="matrix(11.956276,0,0,-11.95556,66.68028,91.4133)" fill-opacity=".25"/>
<path transform="matrix(1.00009,0,0,-1.00003,83.11276,17.403073)" stroke-width=".3985" stroke-linecap="butt" stroke-miterlimit="10" stroke-linejoin="miter" fill="none" stroke="#000000" stroke-opacity=".25" d="M13.50253-54.56725 27.0042-62.36288V-77.95328L13.50253-85.74892 .00085-77.95328V-62.36288Z"/>
<path transform="matrix(1.00009,0,0,-1.00003,83.11276,17.403073)" stroke-width=".3985" stroke-linecap="butt" stroke-miterlimit="10" stroke-linejoin="miter" fill="none" stroke="#000000" stroke-opacity=".25" d="M13.50253-70.15808"/>
<use data-text="3" xlink:href="#font_3_106" transform="matrix(11.956276,0,0,-11.95556,93.686717,91.4133)" fill-opacity=".25"/>
<path transform="matrix(1.00009,0,0,-1.00003,83.11276,17.403073)" stroke-width=".3985" stroke-linecap="butt" stroke-miterlimit="10" stroke-linejoin="miter" fill="none" stroke="#000000" stroke-opacity=".25" d="M40.50673-54.56725 54.00839-62.36288V-77.95328L40.50673-85.74892 27.00507-77.95328V-62.36288Z"/>
<path transform="matrix(1.00009,0,0,-1.00003,83.11276,17.403073)" stroke-width=".3985" stroke-linecap="butt" stroke-miterlimit="10" stroke-linejoin="miter" fill="none" stroke="#000000" stroke-opacity=".25" d="M40.50673-70.15808"/>
<use data-text="1" xlink:href="#font_3_82" transform="matrix(11.956276,0,0,-11.95556,120.694149,91.53831)" fill-opacity=".25"/>
<path transform="matrix(1.00009,0,0,-1.00003,83.11276,17.403073)" stroke-width=".3985" stroke-linecap="butt" stroke-miterlimit="10" stroke-linejoin="miter" fill="none" stroke="#000000" stroke-opacity=".25" d="M-27.00333-77.95328-13.50166-85.74892V-101.3393L-27.00333-109.13493-40.50499-101.3393V-85.74892Z"/>
<path transform="matrix(1.00009,0,0,-1.00003,83.11276,17.403073)" stroke-width=".3985" stroke-linecap="butt" stroke-miterlimit="10" stroke-linejoin="miter" fill="none" stroke="#000000" stroke-opacity=".25" d="M-27.00333-93.5441"/>
<use data-text="4" xlink:href="#font_3_57" transform="matrix(11.956276,0,0,-11.95556,53.17807,114.98501)" fill-opacity=".25"/>
<path transform="matrix(1.00009,0,0,-1.00003,83.11276,17.403073)" stroke-width=".3985" stroke-linecap="butt" stroke-miterlimit="10" stroke-linejoin="miter" fill="none" stroke="#000000" stroke-opacity=".25" d="M.00084-77.95328 13.50252-85.74892V-101.3393L.00084-109.13493-13.50081-101.3393V-85.74892Z"/>
<path transform="matrix(1.00009,0,0,-1.00003,83.11276,17.403073)" stroke-width=".3985" stroke-linecap="butt" stroke-miterlimit="10" stroke-linejoin="miter" fill="none" stroke="#000000" stroke-opacity=".25" d="M.00084-93.5441"/>
<use data-text="6" xlink:href="#font_3_101" transform="matrix(11.956276,0,0,-11.95556,80.1845,114.799999)" fill-opacity=".25"/>
<path transform="matrix(1.00009,0,0,-1.00003,83.11276,17.403073)" stroke-width=".3985" stroke-linecap="butt" stroke-miterlimit="10" stroke-linejoin="miter" fill="none" stroke="#000000" stroke-opacity=".25" d="M27.00507-77.95328 40.50673-85.74892V-101.3393L27.00507-109.13493 13.50339-101.3393V-85.74892Z"/>
<path transform="matrix(1.00009,0,0,-1.00003,83.11276,17.403073)" stroke-width=".3985" stroke-linecap="butt" stroke-miterlimit="10" stroke-linejoin="miter" fill="none" stroke="#000000" stroke-opacity=".25" d="M27.00507-93.5441"/>
<use data-text="4" xlink:href="#font_3_57" transform="matrix(11.956276,0,0,-11.95556,107.19093,114.98501)" fill-opacity=".25"/>
<path transform="matrix(1.00009,0,0,-1.00003,83.11276,17.403073)" stroke-width=".3985" stroke-linecap="butt" stroke-miterlimit="10" stroke-linejoin="miter" fill="none" stroke="#000000" stroke-opacity=".25" d="M54.00928-77.95328 67.51094-85.74892V-101.3393L54.00928-109.13493 40.50761-101.3393V-85.74892Z"/>
<path transform="matrix(1.00009,0,0,-1.00003,83.11276,17.403073)" stroke-width=".3985" stroke-linecap="butt" stroke-miterlimit="10" stroke-linejoin="miter" fill="none" stroke="#000000" stroke-opacity=".25" d="M54.00928-93.5441"/>
<use data-text="1" xlink:href="#font_3_82" transform="matrix(11.956276,0,0,-11.95556,134.19736,114.925)" fill-opacity=".25"/>
<path transform="matrix(1.00009,0,0,-1.00003,83.11276,17.403073)" stroke-width=".3985" stroke-linecap="butt" stroke-miterlimit="10" stroke-linejoin="miter" fill="none" stroke="#000000" stroke-opacity=".25" d="M-40.505-101.33931-27.00334-109.13495V-124.72534L-40.505-132.52098-54.00668-124.72534V-109.13495Z"/>
<path transform="matrix(1.00009,0,0,-1.00003,83.11276,17.403073)" stroke-width=".3985" stroke-linecap="butt" stroke-miterlimit="10" stroke-linejoin="miter" fill="none" stroke="#000000" stroke-opacity=".25" d="M-40.505-116.93015"/>
<use data-text="5" xlink:href="#font_3_56" transform="matrix(11.956276,0,0,-11.95556,39.67485,138.18071)" fill-opacity=".25"/>
<path transform="matrix(1.00009,0,0,-1.00003,83.11276,17.403073)" stroke-width=".3985" stroke-linecap="butt" stroke-miterlimit="10" stroke-linejoin="miter" fill="none" stroke="#000000" stroke-opacity=".25" d="M-13.5008-101.33931 .00085-109.13495V-124.72534L-13.5008-132.52098-27.00246-124.72534V-109.13495Z"/>
<path transform="matrix(1.00009,0,0,-1.00003,83.11276,17.403073)" stroke-width=".3985" stroke-linecap="butt" stroke-miterlimit="10" stroke-linejoin="miter" fill="none" stroke="#000000" stroke-opacity=".25" d="M-13.5008-116.93015"/>
<use data-text="1" xlink:href="#font_3_82" transform="matrix(11.956276,0,0,-11.95556,63.75202,138.1867)" fill-opacity=".25"/>
<use data-text="0" xlink:href="#font_3_121" transform="matrix(11.956276,0,0,-11.95556,69.6106,138.1867)" fill-opacity=".25"/>
<path transform="matrix(1.00009,0,0,-1.00003,83.11276,17.403073)" stroke-width=".3985" stroke-linecap="butt" stroke-miterlimit="10" stroke-linejoin="miter" fill="none" stroke="#000000" stroke-opacity=".25" d="M13.50339-101.33931 27.00507-109.13495V-124.72534L13.50339-132.52098 .00172-124.72534V-109.13495Z"/>
<path transform="matrix(1.00009,0,0,-1.00003,83.11276,17.403073)" stroke-width=".3985" stroke-linecap="butt" stroke-miterlimit="10" stroke-linejoin="miter" fill="none" stroke="#000000" stroke-opacity=".25" d="M13.50339-116.93015"/>
<use data-text="1" xlink:href="#font_3_82" transform="matrix(11.956276,0,0,-11.95556,90.75845,138.1867)" fill-opacity=".25"/>
<use data-text="0" xlink:href="#font_3_121" transform="matrix(11.956276,0,0,-11.95556,96.617038,138.1867)" fill-opacity=".25"/>
<path transform="matrix(1.00009,0,0,-1.00003,83.11276,17.403073)" stroke-width=".3985" stroke-linecap="butt" stroke-miterlimit="10" stroke-linejoin="miter" fill="none" stroke="#000000" stroke-opacity=".25" d="M40.5076-101.33931 54.00926-109.13495V-124.72534L40.5076-132.52098 27.00592-124.72534V-109.13495Z"/>
<path transform="matrix(1.00009,0,0,-1.00003,83.11276,17.403073)" stroke-width=".3985" stroke-linecap="butt" stroke-miterlimit="10" stroke-linejoin="miter" fill="none" stroke="#000000" stroke-opacity=".25" d="M40.5076-116.93015"/>
<use data-text="5" xlink:href="#font_3_56" transform="matrix(11.956276,0,0,-11.95556,120.695148,138.18071)" fill-opacity=".25"/>
<path transform="matrix(1.00009,0,0,-1.00003,83.11276,17.403073)" stroke-width=".3985" stroke-linecap="butt" stroke-miterlimit="10" stroke-linejoin="miter" fill="none" stroke="#000000" stroke-opacity=".25" d="M67.51181-101.33931 81.01347-109.13495V-124.72534L67.51181-132.52098 54.01015-124.72534V-109.13495Z"/>
<path transform="matrix(1.00009,0,0,-1.00003,83.11276,17.403073)" stroke-width=".3985" stroke-linecap="butt" stroke-miterlimit="10" stroke-linejoin="miter" fill="none" stroke="#000000" stroke-opacity=".25" d="M67.51181-116.93015"/>
<use data-text="1" xlink:href="#font_3_82" transform="matrix(11.956276,0,0,-11.95556,147.70157,138.3117)" fill-opacity=".25"/>
</svg>
