<svg xmlns="http://www.w3.org/2000/svg" xmlns:xlink="http://www.w3.org/1999/xlink" xmlns:inkscape="http://www.inkscape.org/namespaces/inkscape" version="1.1" width="47" height="47" viewBox="0 0 47 47">
<path transform="matrix(1.00006,0,0,-1.00006,23.262375,23.67788)" stroke-width=".3985" stroke-linecap="butt" stroke-miterlimit="10" stroke-linejoin="miter" fill="none" stroke="#000000" d="M20.04422 20.04422H-20.04422V-20.04422H20.04422V20.04422L-20.04422-20.04422M-20.04422 20.04422 20.04422-20.04422"/>
<path transform="matrix(1.00006,0,0,-1.00006,23.262375,23.67788)" d="M22.03677 20.04422C22.03677 21.1447 21.1447 22.03677 20.04422 22.03677 18.94376 22.03677 18.05167 21.1447 18.05167 20.04422 18.05167 18.94376 18.94376 18.05167 20.04422 18.05167 21.1447 18.05167 22.03677 18.94376 22.03677 20.04422ZM20.04422 20.04422"/>
<path transform="matrix(1.00006,0,0,-1.00006,23.262375,23.67788)" d="M-18.05167 20.04422C-18.05167 21.1447-18.94376 22.03677-20.04422 22.03677-21.1447 22.03677-22.03677 21.1447-22.03677 20.04422-22.03677 18.94376-21.1447 18.05167-20.04422 18.05167-18.94376 18.05167-18.05167 18.94376-18.05167 20.04422ZM-20.04422 20.04422"/>
<path transform="matrix(1.00006,0,0,-1.00006,23.262375,23.67788)" d="M-18.05167-20.04422C-18.05167-18.94376-18.94376-18.05167-20.04422-18.05167-21.1447-18.05167-22.03677-18.94376-22.03677-20.04422-22.03677-21.1447-21.1447-22.03677-20.04422-22.03677-18.94376-22.03677-18.05167-21.1447-18.05167-20.04422ZM-20.04422-20.04422"/>
<path transform="matrix(1.00006,0,0,-1.00006,23.262375,23.67788)" d="M22.03677-20.04422C22.03677-18.94376 21.1447-18.05167 20.04422-18.05167 18.94376-18.05167 18.05167-18.94376 18.05167-20.04422 18.05167-21.1447 18.94376-22.03677 20.04422-22.03677 21.1447-22.03677 22.03677-21.1447 22.03677-20.04422ZM20.04422-20.04422"/>
</svg>
