<svg xmlns="http://www.w3.org/2000/svg" xmlns:xlink="http://www.w3.org/1999/xlink" xmlns:inkscape="http://www.inkscape.org/namespaces/inkscape" version="1.1" width="63" height="64" viewBox="0 0 63 64">
<path transform="matrix(1.00003,0,0,-1.00003,31.565445,60.32654)" stroke-width=".3985" stroke-linecap="butt" stroke-miterlimit="10" stroke-linejoin="miter" fill="none" stroke="#000000" d="M-28.3468 0V56.69362H28.3468V0L-28.3468 56.69362"/>
<path transform="matrix(1.00003,0,0,-1.00003,31.565445,60.32654)" d="M-26.35425 0C-26.35425 1.10046-27.24634 1.99255-28.3468 1.99255-29.44728 1.99255-30.33936 1.10046-30.33936 0-30.33936-1.10046-29.44728-1.99255-28.3468-1.99255-27.24634-1.99255-26.35425-1.10046-26.35425 0ZM-28.3468 0"/>
<path transform="matrix(1.00003,0,0,-1.00003,31.565445,60.32654)" d="M-26.35425 56.69362C-26.35425 57.79408-27.24634 58.68617-28.3468 58.68617-29.44728 58.68617-30.33936 57.79408-30.33936 56.69362-30.33936 55.59314-29.44728 54.70107-28.3468 54.70107-27.24634 54.70107-26.35425 55.59314-26.35425 56.69362ZM-28.3468 56.69362"/>
<path transform="matrix(1.00003,0,0,-1.00003,31.565445,60.32654)" d="M30.33936 56.69362C30.33936 57.79408 29.44728 58.68617 28.3468 58.68617 27.24634 58.68617 26.35425 57.79408 26.35425 56.69362 26.35425 55.59314 27.24634 54.70107 28.3468 54.70107 29.44728 54.70107 30.33936 55.59314 30.33936 56.69362ZM28.3468 56.69362"/>
<path transform="matrix(1.00003,0,0,-1.00003,31.565445,60.32654)" d="M30.33936 0C30.33936 1.10046 29.44728 1.99255 28.3468 1.99255 27.24634 1.99255 26.35425 1.10046 26.35425 0 26.35425-1.10046 27.24634-1.99255 28.3468-1.99255 29.44728-1.99255 30.33936-1.10046 30.33936 0ZM28.3468 0"/>
<path transform="matrix(1.00003,0,0,-1.00003,31.565445,60.32654)" stroke-width=".3985" stroke-linecap="butt" stroke-dasharray="2.98883,2.98883" stroke-miterlimit="10" stroke-linejoin="miter" fill="none" stroke="#000000" d="M28.3468 0H-28.3468"/>
</svg>
