<svg xmlns="http://www.w3.org/2000/svg" xmlns:xlink="http://www.w3.org/1999/xlink" xmlns:inkscape="http://www.inkscape.org/namespaces/inkscape" version="1.1" width="58" height="61" viewBox="0 0 58 61">
<path transform="matrix(1.00003,0,0,-1.0001,26.151284,30.595162)" stroke-width=".3985" stroke-linecap="butt" stroke-miterlimit="10" stroke-linejoin="miter" fill="none" stroke="#000000" d="M0 0"/>
<path transform="matrix(1.00003,0,0,-1.0001,26.151284,30.595162)" d="M1.99255 0C1.99255 1.10046 1.10046 1.99255 0 1.99255-1.10046 1.99255-1.99255 1.10046-1.99255 0-1.99255-1.10046-1.10046-1.99255 0-1.99255 1.10046-1.99255 1.99255-1.10046 1.99255 0ZM0 0"/>
<path transform="matrix(1.00003,0,0,-1.0001,26.151284,30.595162)" stroke-width=".3985" stroke-linecap="butt" stroke-miterlimit="10" stroke-linejoin="miter" fill="none" stroke="#000000" d="M0 0H28.3468L8.75974 26.95966"/>
<path transform="matrix(1.00003,0,0,-1.0001,26.151284,30.595162)" d="M30.33936 0C30.33936 1.10046 29.44728 1.99255 28.3468 1.99255 27.24634 1.99255 26.35425 1.10046 26.35425 0 26.35425-1.10046 27.24634-1.99255 28.3468-1.99255 29.44728-1.99255 30.33936-1.10046 30.33936 0ZM28.3468 0"/>
<path transform="matrix(1.00003,0,0,-1.0001,26.151284,30.595162)" stroke-width=".3985" stroke-linecap="butt" stroke-miterlimit="10" stroke-linejoin="miter" fill="none" stroke="#000000" d="M0 0 8.75974 26.95966-22.93315 16.66179"/>
<path transform="matrix(1.00003,0,0,-1.0001,26.151284,30.595162)" d="M10.75229 26.95966C10.75229 28.06012 9.86021 28.95221 8.75974 28.95221 7.65927 28.95221 6.76718 28.06012 6.76718 26.95966 6.76718 25.85918 7.65927 24.9671 8.75974 24.9671 9.86021 24.9671 10.75229 25.85918 10.75229 26.95966ZM8.75974 26.95966"/>
<path transform="matrix(1.00003,0,0,-1.0001,26.151284,30.595162)" stroke-width=".3985" stroke-linecap="butt" stroke-miterlimit="10" stroke-linejoin="miter" fill="none" stroke="#000000" d="M0 0-22.93315 16.66179V-16.66179"/>
<path transform="matrix(1.00003,0,0,-1.0001,26.151284,30.595162)" d="M-20.9406 16.66179C-20.9406 17.76225-21.83267 18.65434-22.93315 18.65434-24.03362 18.65434-24.9257 17.76225-24.9257 16.66179-24.9257 15.56131-24.03362 14.66924-22.93315 14.66924-21.83267 14.66924-20.9406 15.56131-20.9406 16.66179ZM-22.93315 16.66179"/>
<path transform="matrix(1.00003,0,0,-1.0001,26.151284,30.595162)" stroke-width=".3985" stroke-linecap="butt" stroke-miterlimit="10" stroke-linejoin="miter" fill="none" stroke="#000000" d="M0 0-22.93315-16.66179 8.75974-26.95966"/>
<path transform="matrix(1.00003,0,0,-1.0001,26.151284,30.595162)" d="M-20.9406-16.66179C-20.9406-15.56131-21.83267-14.66924-22.93315-14.66924-24.03362-14.66924-24.9257-15.56131-24.9257-16.66179-24.9257-17.76225-24.03362-18.65434-22.93315-18.65434-21.83267-18.65434-20.9406-17.76225-20.9406-16.66179ZM-22.93315-16.66179"/>
<path transform="matrix(1.00003,0,0,-1.0001,26.151284,30.595162)" stroke-width=".3985" stroke-linecap="butt" stroke-miterlimit="10" stroke-linejoin="miter" fill="none" stroke="#000000" d="M0 0 8.75974-26.95966 28.3468 0"/>
<path transform="matrix(1.00003,0,0,-1.0001,26.151284,30.595162)" d="M10.75229-26.95966C10.75229-25.85918 9.86021-24.9671 8.75974-24.9671 7.65927-24.9671 6.76718-25.85918 6.76718-26.95966 6.76718-28.06012 7.65927-28.95221 8.75974-28.95221 9.86021-28.95221 10.75229-28.06012 10.75229-26.95966ZM8.75974-26.95966"/>
</svg>
