<svg xmlns="http://www.w3.org/2000/svg" xmlns:xlink="http://www.w3.org/1999/xlink" xmlns:inkscape="http://www.inkscape.org/namespaces/inkscape" version="1.1" width="75" height="57" viewBox="0 0 75 57">
<defs>
<clipPath id="clip_1">
<path transform="matrix(1,0,0,-1.00003,37.401,21.630169)" d="M7.0867 0C7.0867 7.82784 .74115 14.17339-7.08669 14.17339-14.91454 14.17339-21.26009 7.82784-21.26009 0-21.26009-7.82784-14.91454-14.17339-7.08669-14.17339 .74115-14.17339 7.0867-7.82784 7.0867 0ZM-7.08669 0"/>
</clipPath>
<path id="font_2_1" d="M.1789856 .114868167C.13899231 .047973634 .099990848 .033981325 .055999757 .0309906 .04399109 .02999878 .034988405 .02999878 .034988405 .010986328 .034988405 .004989624 .039993287 0 .04798889 0 .07499695 0 .10598755 .0029907227 .13398743 .0029907227 .16699219 .0029907227 .20199585 0 .23399353 0 .23999024 0 .25299073 0 .25299073 .018997193 .25299073 .02999878 .24398804 .0309906 .23699951 .0309906 .21398926 .032989503 .18998719 .04096985 .18998719 .06593323 .18998719 .077926639 .19599915 .088897708 .20399475 .102890018L.27999879 .23068238H.5309906C.5329895 .2097168 .5469971 .07392883 .5469971 .063949588 .5469971 .033981325 .49499513 .0309906 .47499085 .0309906 .46099855 .0309906 .45098878 .0309906 .45098878 .010986328 .45098878 0 .46299745 0 .46499635 0 .5059967 0 .548996 .0029907227 .58999636 .0029907227 .61499026 .0029907227 .6779938 0 .7029877 0 .70899966 0 .72099307 0 .72099307 .019989014 .72099307 .0309906 .71099856 .0309906 .69799807 .0309906 .6359863 .0309906 .6359863 .037979127 .6329956 .06694031L.57199099 .691803C.56999209 .71180728 .56999209 .7158203 .5529938 .7158203 .5369873 .7158203 .5329895 .7088165 .5269928 .69880679L.1789856 .114868167M.29899598 .26168824 .49598695 .5917816 .5279999 .26168824H.29899598Z"/>
<path id="font_2_2" d="M.1599884 .07795715C.1499939 .038986207 .147995 .0309906 .068984989 .0309906 .051986696 .0309906 .041992189 .0309906 .041992189 .010986328 .041992189 0 .050994874 0 .068984989 0H.42599488C.58399966 0 .70199587 .11791992 .70199587 .21585083 .70199587 .28778077 .6439972 .3457489 .5469971 .35673524 .651001 .37573243 .7559967 .44970704 .7559967 .5446625 .7559967 .6186218 .6899872 .6826172 .56999209 .6826172H.23399353C.21499634 .6826172 .20498657 .6826172 .20498657 .6626129 .20498657 .6516113 .21398926 .6516113 .23298645 .6516113 .23498535 .6516113 .2539978 .6516113 .2709961 .6496124 .2889862 .6476135 .2979889 .64660647 .2979889 .6336212 .2979889 .6296234 .29699708 .62661746 .2939911 .614624L.1599884 .07795715M.31098939 .36573792 .37298585 .6136322C.38198854 .64860537 .38398744 .6516113 .4269867 .6516113H.55599978C.6439972 .6516113 .6649933 .5926361 .6649933 .5486603 .6649933 .46069337 .57899478 .36573792 .45700074 .36573792H.31098939M.2659912 .0309906C.2519989 .0309906 .25 .0309906 .24398804 .03199768 .23399353 .032989503 .23098755 .033996583 .23098755 .04197693 .23098755 .04498291 .23098755 .04698181 .23599243 .064971927L.30499269 .34375H.49398805C.58999636 .34375 .60899356 .2698059 .60899356 .22683716 .60899356 .12791443 .519989 .0309906 .4019928 .0309906H.2659912Z"/>
<path id="font_2_3" d="M.7599945 .69506838C.7599945 .69807437 .7579956 .7050781 .7489929 .7050781 .74598696 .7050781 .7449951 .70407107 .73399356 .69306948L.6639862 .61602786C.6549988 .6300354 .60899356 .7050781 .49798585 .7050781 .2749939 .7050781 .049987794 .48391725 .049987794 .25172425 .049987794 .08659363 .16799927-.022460938 .32099916-.022460938 .4079895-.022460938 .48399354 .017532349 .5369873 .063583377 .6299896 .14564514 .6469879 .2367096 .6469879 .23971558 .6469879 .24972534 .6369934 .24972534 .6349945 .24972534 .6289978 .24972534 .6239929 .24772644 .621994 .23971558 .61299136 .21069336 .58999636 .13963318 .5209961 .081588748 .45199586 .025543213 .3889923 .008529663 .33699037 .008529663 .24699402 .008529663 .14099121 .060577394 .14099121 .21670532 .14099121 .27374269 .1619873 .43588258 .2619934 .55296328 .32299806 .62402346 .4169922 .67407229 .5059967 .67407229 .60798647 .67407229 .6669922 .5970001 .6669922 .48091126 .6669922 .44088746 .6639862 .43988038 .6639862 .4298706 .6639862 .41986085 .6749878 .41986085 .67900088 .41986085 .69200137 .41986085 .69200137 .42185975 .69699099 .43988038L.7599945 .69506838Z"/>
</defs>
<g clip-path="url(#clip_1)">
<path transform="matrix(1,0,0,-1.00003,37.401,21.630169)" d="M21.26009 0C21.26009 7.82784 14.91454 14.17339 7.08669 14.17339-.74115 14.17339-7.0867 7.82784-7.0867 0-7.0867-7.82784-.74115-14.17339 7.08669-14.17339 14.91454-14.17339 21.26009-7.82784 21.26009 0ZM14.17339-14.17339C14.17339-6.34554 7.82784 0 0 0-7.82784 0-14.17339-6.34554-14.17339-14.17339-14.17339-22.00124-7.82784-28.34679 0-28.34679 7.82784-28.34679 14.17339-22.00124 14.17339-14.17339ZM0-14.17339" fill="#bfbfbf"/>
</g>
<path transform="matrix(1,0,0,-1.00003,37.401,21.630169)" stroke-width=".79701" stroke-linecap="butt" stroke-miterlimit="10" stroke-linejoin="miter" fill="none" stroke="#000000" d="M7.0867 0C7.0867 7.82784 .74115 14.17339-7.08669 14.17339-14.91454 14.17339-21.26009 7.82784-21.26009 0-21.26009-7.82784-14.91454-14.17339-7.08669-14.17339 .74115-14.17339 7.0867-7.82784 7.0867 0ZM21.26009 0C21.26009 7.82784 14.91454 14.17339 7.08669 14.17339-.74115 14.17339-7.0867 7.82784-7.0867 0-7.0867-7.82784-.74115-14.17339 7.08669-14.17339 14.91454-14.17339 21.26009-7.82784 21.26009 0ZM14.17339-14.17339C14.17339-6.34554 7.82784 0 0 0-7.82784 0-14.17339-6.34554-14.17339-14.17339-14.17339-22.00124-7.82784-28.34679 0-28.34679 7.82784-28.34679 14.17339-22.00124 14.17339-14.17339ZM-35.43349-34.01608V19.84267H35.43349V-34.01608ZM35.43349 19.84267"/>
<use data-text="A" xlink:href="#font_2_1" transform="matrix(10.9091,0,0,-10.909428,12.050001,9.090793)"/>
<use data-text="B" xlink:href="#font_2_2" transform="matrix(10.9091,0,0,-10.909428,54.25,9.090793)"/>
<use data-text="C" xlink:href="#font_2_3" transform="matrix(10.9091,0,0,-10.909428,48.522005,53.705137)"/>
</svg>
