<svg xmlns="http://www.w3.org/2000/svg" xmlns:xlink="http://www.w3.org/1999/xlink" xmlns:inkscape="http://www.inkscape.org/namespaces/inkscape" version="1.1" width="70" height="64" viewBox="0 0 70 64">
<path transform="matrix(1.00006,0,0,-1.00003,38.49935,31.97969)" stroke-width=".3985" stroke-linecap="butt" stroke-miterlimit="10" stroke-linejoin="miter" fill="none" stroke="#000000" d="M-28.3468-28.3468C-39.4012-18.77339-39.4012-9.57341-28.3468 0-39.4012 9.57341-39.4012 18.77339-28.3468 28.3468-17.2924 18.77339-17.2924 9.57341-28.3468 0-17.2924-9.57341-17.2924-18.77339-28.3468-28.3468"/>
<path transform="matrix(1.00006,0,0,-1.00003,38.49935,31.97969)" d="M-26.35425-28.3468C-26.35425-27.24634-27.24634-26.35425-28.3468-26.35425-29.44728-26.35425-30.33936-27.24634-30.33936-28.3468-30.33936-29.44728-29.44728-30.33936-28.3468-30.33936-27.24634-30.33936-26.35425-29.44728-26.35425-28.3468ZM-28.3468-28.3468"/>
<path transform="matrix(1.00006,0,0,-1.00003,38.49935,31.97969)" d="M-26.35425 0C-26.35425 1.10046-27.24634 1.99255-28.3468 1.99255-29.44728 1.99255-30.33936 1.10046-30.33936 0-30.33936-1.10046-29.44728-1.99255-28.3468-1.99255-27.24634-1.99255-26.35425-1.10046-26.35425 0ZM-28.3468 0"/>
<path transform="matrix(1.00006,0,0,-1.00003,38.49935,31.97969)" d="M-26.35425 28.3468C-26.35425 29.44728-27.24634 30.33936-28.3468 30.33936-29.44728 30.33936-30.33936 29.44728-30.33936 28.3468-30.33936 27.24634-29.44728 26.35425-28.3468 26.35425-27.24634 26.35425-26.35425 27.24634-26.35425 28.3468ZM-28.3468 28.3468"/>
<path transform="matrix(1.00006,0,0,-1.00003,38.49935,31.97969)" stroke-width=".3985" stroke-linecap="butt" stroke-miterlimit="10" stroke-linejoin="miter" fill="none" stroke="#000000" d="M28.3468 0-28.3468 28.3468M-28.3468 0H28.3468L-28.3468-28.3468"/>
<path transform="matrix(1.00006,0,0,-1.00003,38.49935,31.97969)" d="M30.33936 0C30.33936 1.10046 29.44728 1.99255 28.3468 1.99255 27.24634 1.99255 26.35425 1.10046 26.35425 0 26.35425-1.10046 27.24634-1.99255 28.3468-1.99255 29.44728-1.99255 30.33936-1.10046 30.33936 0ZM28.3468 0"/>
<path transform="matrix(1.00006,0,0,-1.00003,38.49935,31.97969)" stroke-width=".3985" stroke-linecap="butt" stroke-dasharray="2.98883,2.98883" stroke-miterlimit="10" stroke-linejoin="miter" fill="none" stroke="#000000" d="M-28.3468-28.3468V0"/>
<path transform="matrix(1.00006,0,0,-1.00003,38.49935,31.97969)" stroke-width=".3985" stroke-linecap="butt" stroke-dasharray="2.98883,2.98883" stroke-miterlimit="10" stroke-linejoin="miter" fill="none" stroke="#000000" d="M28.3468 0C12.65071 13.59323 3.04536 28.3468-28.3468 28.3468"/>
</svg>
