<svg xmlns="http://www.w3.org/2000/svg" xmlns:xlink="http://www.w3.org/1999/xlink" xmlns:inkscape="http://www.inkscape.org/namespaces/inkscape" version="1.1" width="243" height="78" viewBox="0 0 243 78">
<defs>
<path id="font_1_98" d="M.43399049 .12898255C.43399049 .16896057 .4139862 .19900513 .3919983 .21803284 .34999085 .25506593 .30999757 .26208497 .25 .27209474 .1749878 .2841034 .10798645 .29612733 .10798645 .3471985 .10798645 .3762207 .1349945 .4172821 .23899842 .4172821 .30899049 .4172821 .3619995 .3912506 .36799623 .3201599 .36898805 .30714417 .36999513 .2991333 .38598634 .2991333 .40499879 .2991333 .40499879 .308136 .40499879 .3271637V.41827394C.40499879 .43528749 .40499879 .44628907 .3889923 .44628907 .38398744 .44628907 .38198854 .44628907 .36698915 .4342804 .36499024 .4322815 .3639984 .4312744 .34899903 .419281 .31098939 .44528199 .2599945 .44628907 .23999024 .44628907 .08299255 .44628907 .052993776 .36721803 .052993776 .3221588 .052993776 .22402954 .17098999 .20500183 .24699402 .19299317 .2919922 .18598938 .3789978 .17196656 .3789978 .106033328 .3789978 .06712341 .34899903 .022232056 .24699402 .022232056 .15098572 .022232056 .11099243 .07809448 .09098816 .1529541 .08799744 .16195679 .085998538 .16796875 .07199097 .16796875 .052993776 .16796875 .052993776 .15896607 .052993776 .13896179V.018234253C.052993776 .0012207031 .052993776-.009765625 .068984989-.009765625 .07499695-.009765625 .07598877-.008773804 .09498596 .009231567L.117996219 .033203126C.16699219-.009765625 .22698975-.009765625 .24699402-.009765625 .394989-.009765625 .43399049 .070114139 .43399049 .12898255Z"/>
<path id="font_1_105" d="M.40098573 .12599182V.18110657H.3639984V.12799073C.3639984 .057159425 .32699586 .025222779 .2899933 .025222779 .21798706 .025222779 .21798706 .106033328 .21798706 .125V.39257813H.38198854V.43156434H.21798706V.6152344H.18099976C.17999268 .52638247 .13699341 .42855836 .035995485 .4245758V.39257813H.1349945V.125C.1349945 .020233155 .21398926-.009765625 .28199769-.009765625 .35099793-.009765625 .40098573 .045181276 .40098573 .12599182Z"/>
<path id="font_1_28" d="M.5799866 .09013367V.14515686H.54299929V.09213257C.54299929 .0821228 .54299929 .037109376 .5039978 .037109376 .46499635 .037109376 .46499635 .0821228 .46499635 .09213257V.29823304C.46499635 .39126588 .36999513 .44628907 .2579956 .44628907 .20999146 .44628907 .09199524 .44128419 .09199524 .35725404 .09199524 .33024598 .10998535 .30822755 .14099121 .30822755 .16999817 .30822755 .18899536 .33024598 .18899536 .35624696 .18899536 .37426759 .18099976 .39126588 .16299439 .39927674 .19599915 .41427613 .24598694 .41427613 .2559967 .41427613 .32699586 .41427613 .38198854 .37225343 .38198854 .29621888V.2702179C.33599855 .268219 .2559967 .2662201 .18299866 .24020386 .116989139 .2171936 .053985597 .17216492 .053985597 .10513306 .053985597 .016220093 .1599884-.009765625 .23799134-.009765625 .32199098-.009765625 .37199403 .032226564 .3939972 .07022095 .40098573 .018112183 .43399049-.0048828127 .46899415-.0048828127 .47299195-.0048828127 .5799866-.0048828127 .5799866 .09010315V.09013367M.38198854 .1421051C.38198854 .038223268 .2789917 .022232056 .24699402 .022232056 .19299317 .022232056 .14199829 .055221559 .14199829 .10522461 .14199829 .16122437 .19599915 .23422241 .38198854 .24023438V.1421051Z"/>
<path id="font_1_96" d="M.43399049 .37539674C.43399049 .41540528 .3959961 .44140626 .35198976 .44140626 .2919922 .44140626 .24099732 .4053955 .20999146 .33839417H.20899964V.44140626L.057998659 .43058778V.39160157C.12799073 .39160157 .13699341 .38458253 .13699341 .335495V.08206177C.13699341 .038986207 .1269989 .038986207 .057998659 .038986207V0C.08299255 .0019989014 .15699768 .0039978029 .1789856 .0039978029 .23098755 .0039978029 .2999878 .0009918213 .31399537 0V.038986207H.2919922C.21699524 .039398195 .21598816 .0493927 .21598816 .08340454V.22439575C.21598816 .31739808 .2639923 .4073944 .35299684 .4093933 .34399415 .40040589 .33999635 .38839723 .33999635 .37539674 .33999635 .34840394 .3600006 .32839967 .3869934 .32839967 .4139862 .32839967 .43399049 .34840394 .43399049 .37539674Z"/>
<path id="font_2_106" d="M.45700074 .17037964C.45700074 .252594 .3939972 .33088685 .2899933 .35191346 .37199403 .37893678 .42999269 .4490509 .42999269 .52809146 .42999269 .6100464 .34199525 .6660156 .24598694 .6660156 .14498902 .6660156 .068984989 .60606387 .068984989 .53009036 .068984989 .49710084 .09098816 .47808839 .11999512 .47808839 .15098572 .47808839 .17098999 .50009158 .17098999 .5290985 .17098999 .57910159 .12399292 .57910159 .10899353 .57910159 .13999939 .62802127 .20599365 .64100649 .24198914 .64100649 .2829895 .64100649 .33799745 .6190338 .33799745 .5290985 .33799745 .51708987 .33599855 .45906068 .30999757 .4149933 .27999879 .36691285 .24598694 .36390687 .22099304 .36291505 .21299744 .36190797 .18899536 .35990907 .18199158 .35990907 .17399597 .35890199 .16699219 .35791017 .16699219 .3479004 .16699219 .33691407 .17399597 .33691407 .19099427 .33691407H.23498535C.31698609 .33691407 .35398866 .2686615 .35398866 .17037964 .35398866 .034469606 .2849884 .0055389406 .24099732 .0055389406 .19799805 .0055389406 .12298584 .022491456 .08799744 .08137512 .12298584 .07637024 .1539917 .09837341 .1539917 .1363678 .1539917 .17237854 .1269989 .19238281 .09799194 .19238281 .07398987 .19238281 .041992189 .17837525 .041992189 .1343689 .041992189 .043441774 .1349945-.022460938 .24398804-.022460938 .3659973-.022460938 .45700074 .06838989 .45700074 .17037964Z"/>
<path id="font_1_81" d="M.56199648 .21325684C.56199648 .3382721 .44999696 .44628907 .30499269 .44628907 .15899658 .44628907 .04798889 .3382721 .04798889 .21325684 .04798889 .0912323 .16099549-.009765625 .30499269-.009765625 .44898988-.009765625 .56199648 .0912323 .56199648 .21325684M.46699525 .22225952C.46699525 .17424011 .46699525 .025222779 .30499269 .025222779 .14299011 .025222779 .14299011 .17424011 .14299011 .22225952 .14299011 .25326539 .14299011 .32226563 .17999268 .363266 .21398926 .39927674 .25698854 .41427613 .30499269 .41427613 .35299684 .41427613 .397995 .39927674 .43099977 .36227418 .46699525 .3212738 .46699525 .2542572 .46699525 .22225952Z"/>
<path id="font_1_84" d="M.62098696 .21640015C.62098696 .33740235 .5159912 .44140626 .37799073 .44140626 .2869873 .44140626 .23098755 .39639283 .21598816 .3824005V.44140626L.057998659 .43058778V.39160157C.12599182 .39160157 .13699341 .39160157 .13699341 .3455963V-.111450199C.13699341-.15446472 .1269989-.15446472 .057998659-.15446472V-.19335938C.06498718-.1924591 .1329956-.18945313 .17799378-.18945313 .22299195-.18936157 .2889862-.19236756 .29899598-.19335938V-.15437317C.22999573-.15437317 .21998596-.15437317 .21998596-.11148071V.048233034C.26098634 .009231567 .30799867-.009765625 .36299134-.009765625 .5019989-.009765625 .62098696 .089263919 .62098696 .2163086V.21640015M.526001 .2163086C.526001 .104263309 .44599916 .022232056 .35699464 .022232056 .27999879 .022232056 .23498535 .07725525 .21998596 .10626221V.33135987C.2539978 .37838746 .30899049 .4064026 .36799623 .4064026 .45899964 .4064026 .526001 .31835938 .526001 .2163086Z"/>
</defs>
<path transform="matrix(1,0,0,-1.00005,39.056,-9.23241)" stroke-width=".79701" stroke-linecap="butt" stroke-miterlimit="10" stroke-linejoin="miter" fill="none" stroke="#000000" d="M-18.41182-10.63004 0-21.2601V-42.52019L-18.41182-53.15024-36.82365-42.52019V-21.2601Z"/>
<path transform="matrix(1,0,0,-1.00005,39.056,-9.23241)" stroke-width=".3985" stroke-linecap="butt" stroke-miterlimit="10" stroke-linejoin="miter" fill="none" stroke="#000000" d="M-18.41182-31.89014"/>
<use data-text="s" xlink:href="#font_1_98" transform="matrix(5.9776,0,0,-5.9778988,13.046997,24.467276)"/>
<use data-text="t" xlink:href="#font_1_105" transform="matrix(5.9776,0,0,-5.9778988,15.964066,24.467276)"/>
<use data-text="a" xlink:href="#font_1_28" transform="matrix(5.9776,0,0,-5.9778988,18.83929,24.467276)"/>
<use data-text="r" xlink:href="#font_1_96" transform="matrix(5.9776,0,0,-5.9778988,22.491604,24.467276)"/>
<use data-text="t" xlink:href="#font_1_105" transform="matrix(5.9776,0,0,-5.9778988,25.366829,24.467276)"/>
<path transform="matrix(1,0,0,-1.00005,39.056,-9.23241)" stroke-width=".79701" stroke-linecap="butt" stroke-miterlimit="10" stroke-linejoin="miter" fill="none" stroke="#000000" d="M36.82367-42.5202 55.2355-53.15025V-74.41037L36.82367-85.04042 18.41183-74.41037V-53.15025Z"/>
<path transform="matrix(1,0,0,-1.00005,39.056,-9.23241)" stroke-width=".3985" stroke-linecap="butt" stroke-miterlimit="10" stroke-linejoin="miter" fill="none" stroke="#000000" d="M36.82367-63.7803"/>
<use data-text="3" xlink:href="#font_2_106" transform="matrix(10.9091,0,0,-10.909644,73.152,58.063959)"/>
<path transform="matrix(1,0,0,-1.00005,39.056,-9.23241)" stroke-width=".79701" stroke-linecap="butt" stroke-miterlimit="10" stroke-linejoin="miter" fill="none" stroke="#000000" d="M18.41182-10.63004 36.82365-21.2601V-42.52019L18.41182-53.15024 0-42.52019V-21.2601Z"/>
<path transform="matrix(1,0,0,-1.00005,39.056,-9.23241)" stroke-width=".3985" stroke-linecap="butt" stroke-miterlimit="10" stroke-linejoin="miter" fill="none" stroke="#000000" d="M18.41182-31.89014"/>
<path transform="matrix(1,0,0,-1.00005,39.056,-9.23241)" stroke-width=".79701" stroke-linecap="butt" stroke-miterlimit="10" stroke-linejoin="miter" fill="none" stroke="#000000" d="M0-42.5202 18.41182-53.15025V-74.41037L0-85.04042-18.41182-74.41037V-53.15025Z"/>
<path transform="matrix(1,0,0,-1.00005,39.056,-9.23241)" stroke-width=".3985" stroke-linecap="butt" stroke-miterlimit="10" stroke-linejoin="miter" fill="none" stroke="#000000" d="M0-63.7803"/>
<path transform="matrix(1,0,0,-1.00005,39.056,-9.23241)" stroke-width=".79701" stroke-linecap="butt" stroke-miterlimit="10" stroke-linejoin="miter" fill="none" stroke="#000000" d="M55.23552-10.63004 73.64734-21.2601V-42.52019L55.23552-53.15024 36.82368-42.52019V-21.2601Z"/>
<path transform="matrix(1,0,0,-1.00005,39.056,-9.23241)" stroke-width=".3985" stroke-linecap="butt" stroke-miterlimit="10" stroke-linejoin="miter" fill="none" stroke="#000000" d="M55.23552-31.89014"/>
<path transform="matrix(1,0,0,-1.00005,39.056,-9.23241)" stroke-width=".79701" stroke-linecap="butt" stroke-miterlimit="10" stroke-linejoin="miter" fill="none" stroke="#000000" d="M36.82367-42.5202 55.2355-53.15025V-74.41037L36.82367-85.04042 18.41183-74.41037V-53.15025Z"/>
<path transform="matrix(1,0,0,-1.00005,39.056,-9.23241)" stroke-width=".3985" stroke-linecap="butt" stroke-miterlimit="10" stroke-linejoin="miter" fill="none" stroke="#000000" d="M36.82367-63.7803"/>
<path transform="matrix(1,0,0,-1.00005,39.056,-9.23241)" stroke-width=".79701" stroke-linecap="butt" stroke-miterlimit="10" stroke-linejoin="miter" fill="none" stroke="#000000" d="M92.0592-10.63004 110.47104-21.2601V-42.52019L92.0592-53.15024 73.64737-42.52019V-21.2601Z"/>
<path transform="matrix(1,0,0,-1.00005,39.056,-9.23241)" stroke-width=".3985" stroke-linecap="butt" stroke-miterlimit="10" stroke-linejoin="miter" fill="none" stroke="#000000" d="M92.0592-31.89014"/>
<path transform="matrix(1,0,0,-1.00005,39.056,-9.23241)" stroke-width=".79701" stroke-linecap="butt" stroke-miterlimit="10" stroke-linejoin="miter" fill="none" stroke="#000000" d="M73.64735-42.5202 92.05919-53.15025V-74.41037L73.64735-85.04042 55.23553-74.41037V-53.15025Z"/>
<path transform="matrix(1,0,0,-1.00005,39.056,-9.23241)" stroke-width=".3985" stroke-linecap="butt" stroke-miterlimit="10" stroke-linejoin="miter" fill="none" stroke="#000000" d="M73.64735-63.7803"/>
<path transform="matrix(1,0,0,-1.00005,39.056,-9.23241)" stroke-width=".79701" stroke-linecap="butt" stroke-miterlimit="10" stroke-linejoin="miter" fill="none" stroke="#000000" d="M128.8829-10.63004 147.29473-21.2601V-42.52019L128.8829-53.15024 110.47107-42.52019V-21.2601Z"/>
<path transform="matrix(1,0,0,-1.00005,39.056,-9.23241)" stroke-width=".3985" stroke-linecap="butt" stroke-miterlimit="10" stroke-linejoin="miter" fill="none" stroke="#000000" d="M128.8829-31.89014"/>
<path transform="matrix(1,0,0,-1.00005,39.056,-9.23241)" stroke-width=".79701" stroke-linecap="butt" stroke-miterlimit="10" stroke-linejoin="miter" fill="none" stroke="#000000" d="M110.47105-42.5202 128.88289-53.15025V-74.41037L110.47105-85.04042 92.05922-74.41037V-53.15025Z"/>
<path transform="matrix(1,0,0,-1.00005,39.056,-9.23241)" stroke-width=".3985" stroke-linecap="butt" stroke-miterlimit="10" stroke-linejoin="miter" fill="none" stroke="#000000" d="M110.47105-63.7803"/>
<path transform="matrix(1,0,0,-1.00005,39.056,-9.23241)" stroke-width=".79701" stroke-linecap="butt" stroke-miterlimit="10" stroke-linejoin="miter" fill="none" stroke="#000000" d="M165.70659-10.63004 184.11843-21.2601V-42.52019L165.70659-53.15024 147.29476-42.52019V-21.2601Z"/>
<path transform="matrix(1,0,0,-1.00005,39.056,-9.23241)" stroke-width=".3985" stroke-linecap="butt" stroke-miterlimit="10" stroke-linejoin="miter" fill="none" stroke="#000000" d="M165.70659-31.89014"/>
<path transform="matrix(1,0,0,-1.00005,39.056,-9.23241)" stroke-width=".79701" stroke-linecap="butt" stroke-miterlimit="10" stroke-linejoin="miter" fill="none" stroke="#000000" d="M147.29474-42.5202 165.70658-53.15025V-74.41037L147.29474-85.04042 128.88292-74.41037V-53.15025Z"/>
<path transform="matrix(1,0,0,-1.00005,39.056,-9.23241)" stroke-width=".3985" stroke-linecap="butt" stroke-miterlimit="10" stroke-linejoin="miter" fill="none" stroke="#000000" d="M147.29474-63.7803"/>
<path transform="matrix(1,0,0,-1.00005,39.056,-9.23241)" stroke-width=".79701" stroke-linecap="butt" stroke-miterlimit="10" stroke-linejoin="miter" fill="none" stroke="#000000" d="M184.11844-42.5202 202.53026-53.15025V-74.41037L184.11844-85.04042 165.7066-74.41037V-53.15025Z"/>
<path transform="matrix(1,0,0,-1.00005,39.056,-9.23241)" stroke-width=".3985" stroke-linecap="butt" stroke-miterlimit="10" stroke-linejoin="miter" fill="none" stroke="#000000" d="M184.11844-63.7803"/>
<use data-text="s" xlink:href="#font_1_98" transform="matrix(5.9776,0,0,-5.9778988,216.432,55.809846)"/>
<use data-text="t" xlink:href="#font_1_105" transform="matrix(5.9776,0,0,-5.9778988,219.34908,55.809846)"/>
<use data-text="o" xlink:href="#font_1_81" transform="matrix(5.9776,0,0,-5.9778988,222.2243,55.809846)"/>
<use data-text="p" xlink:href="#font_1_84" transform="matrix(5.9776,0,0,-5.9778988,225.87662,55.809846)"/>
</svg>
