<svg xmlns="http://www.w3.org/2000/svg" xmlns:xlink="http://www.w3.org/1999/xlink" xmlns:inkscape="http://www.inkscape.org/namespaces/inkscape" version="1.1" width="140" height="140" viewBox="0 0 140 140">
<defs>
<path id="font_1_1" d="M.09799194 .10235596H.050994874V0H.7029877V.10235596H.6549988V.1736145C.6349945 .19377136 .60398867 .2303009 .57398989 .26036073V.5187073C.6139984 .55371096 .6689911 .58695986 .6689911 .59698489V.7529297H.526001V.69610598H.46099855V.7529297H.2939911V.69610598H.22898865V.7529297H.083999637V.59599307C.12098694 .56781008 .13899231 .5567322 .1789856 .521698V.26036073C.14898682 .2303009 .117996219 .1947937 .09799194 .17460633V.10235596M.117996219 .625V.71891787H.19499207V.6621094H.32798768V.71891787H.4249878V.6621094H.55999758V.71891787H.6349945V.625H.117996219M.1519928 .5899811H.6009979L.5499878 .55371096H.20399475L.1519928 .5899811M.21299744 .2693634V.5187073H.5399933V.2693634H.21299744M.15499878 .18261719 .20498657 .234375H.5479889L.59799197 .18261719H.15499878M.13198853 .10235596V.14860535H.62098696V.10235596H.13198853M.084991458 .0309906V.068359378H.6689911V.0309906H.084991458Z"/>
<path id="font_2_1" d="M.13198853 .327713V.35173036C.13198853 .6047821 .2559967 .64100649 .30699159 .64100649 .33099366 .64100649 .37298585 .634964 .394989 .6007538 .37998963 .6007538 .33999635 .6007538 .33999635 .5557556 .33999635 .524765 .3639984 .5097656 .38598634 .5097656 .4019928 .5097656 .43199159 .51875308 .43199159 .5577545 .43199159 .6178589 .3880005 .6660156 .30499269 .6660156 .1769867 .6660156 .041992189 .5367584 .041992189 .31570436 .041992189 .048553468 .1579895-.022460938 .25099183-.022460938 .3619995-.022460938 .45700074 .07156372 .45700074 .2036438 .45700074 .33070375 .36799623 .4267578 .25698854 .4267578 .18899536 .4267578 .1519928 .37573243 .13198853 .327713M.25099183 .0055389406C.18798828 .0055389406 .1579895 .06556702 .1519928 .080566409 .13398743 .127594 .13398743 .2076416 .13398743 .22564698 .13398743 .30369569 .1659851 .40374757 .2559967 .40374757 .27198792 .40374757 .31799317 .40374757 .34899903 .34172059 .36698915 .30470277 .36698915 .2536621 .36698915 .20463562 .36698915 .15661621 .36698915 .10658264 .34999085 .0705719 .31999208 .010528564 .27398683 .0055389406 .25099183 .0055389406Z"/>
</defs>
<path transform="matrix(1,0,0,-1.0001,2.2949982,138.07721)" d="M0 0V17.00824H17.00824V0ZM17.00824 17.00824V34.0165H34.0165V17.00824ZM34.0165 34.0165" fill="#e0e0e0"/>
<path transform="matrix(1,0,0,-1.0001,2.2949982,138.07721)" stroke-width=".3985" stroke-linecap="butt" stroke-miterlimit="10" stroke-linejoin="miter" fill="none" stroke="#000000" d="M0 0V17.00824H17.00824V0ZM17.00824 17.00824V34.0165H34.0165V17.00824ZM34.0165 34.0165"/>
<path transform="matrix(1,0,0,-1.0001,2.2949982,138.07721)" d="M0 34.0165V51.02477H17.00824V34.0165ZM17.00824 51.02477V68.03302H34.0165V51.02477ZM34.0165 68.03302" fill="#e0e0e0"/>
<path transform="matrix(1,0,0,-1.0001,2.2949982,138.07721)" stroke-width=".3985" stroke-linecap="butt" stroke-miterlimit="10" stroke-linejoin="miter" fill="none" stroke="#000000" d="M0 34.0165V51.02477H17.00824V34.0165ZM17.00824 51.02477V68.03302H34.0165V51.02477ZM34.0165 68.03302"/>
<path transform="matrix(1,0,0,-1.0001,2.2949982,138.07721)" d="M0 68.03302V85.04128H17.00824V68.03302ZM17.00824 85.04128V102.04953H34.0165V85.04128ZM34.0165 102.04953" fill="#e0e0e0"/>
<path transform="matrix(1,0,0,-1.0001,2.2949982,138.07721)" stroke-width=".3985" stroke-linecap="butt" stroke-miterlimit="10" stroke-linejoin="miter" fill="none" stroke="#000000" d="M0 68.03302V85.04128H17.00824V68.03302ZM17.00824 85.04128V102.04953H34.0165V85.04128ZM34.0165 102.04953"/>
<path transform="matrix(1,0,0,-1.0001,2.2949982,138.07721)" d="M0 102.04953V119.0578H17.00824V102.04953ZM17.00824 119.0578V136.06606H34.0165V119.0578ZM34.0165 136.06606" fill="#e0e0e0"/>
<path transform="matrix(1,0,0,-1.0001,2.2949982,138.07721)" stroke-width=".3985" stroke-linecap="butt" stroke-miterlimit="10" stroke-linejoin="miter" fill="none" stroke="#000000" d="M0 102.04953V119.0578H17.00824V102.04953ZM17.00824 119.0578V136.06606H34.0165V119.0578ZM34.0165 136.06606"/>
<path transform="matrix(1,0,0,-1.0001,2.2949982,138.07721)" d="M34.0165 0V17.00824H51.02477V0ZM51.02477 17.00824V34.0165H68.03302V17.00824ZM68.03302 34.0165" fill="#e0e0e0"/>
<path transform="matrix(1,0,0,-1.0001,2.2949982,138.07721)" stroke-width=".3985" stroke-linecap="butt" stroke-miterlimit="10" stroke-linejoin="miter" fill="none" stroke="#000000" d="M34.0165 0V17.00824H51.02477V0ZM51.02477 17.00824V34.0165H68.03302V17.00824ZM68.03302 34.0165"/>
<path transform="matrix(1,0,0,-1.0001,2.2949982,138.07721)" d="M34.0165 34.0165V51.02477H51.02477V34.0165ZM51.02477 51.02477V68.03302H68.03302V51.02477ZM68.03302 68.03302" fill="#e0e0e0"/>
<path transform="matrix(1,0,0,-1.0001,2.2949982,138.07721)" stroke-width=".3985" stroke-linecap="butt" stroke-miterlimit="10" stroke-linejoin="miter" fill="none" stroke="#000000" d="M34.0165 34.0165V51.02477H51.02477V34.0165ZM51.02477 51.02477V68.03302H68.03302V51.02477ZM68.03302 68.03302"/>
<path transform="matrix(1,0,0,-1.0001,2.2949982,138.07721)" d="M34.0165 68.03302V85.04128H51.02477V68.03302ZM51.02477 85.04128V102.04953H68.03302V85.04128ZM68.03302 102.04953" fill="#e0e0e0"/>
<path transform="matrix(1,0,0,-1.0001,2.2949982,138.07721)" stroke-width=".3985" stroke-linecap="butt" stroke-miterlimit="10" stroke-linejoin="miter" fill="none" stroke="#000000" d="M34.0165 68.03302V85.04128H51.02477V68.03302ZM51.02477 85.04128V102.04953H68.03302V85.04128ZM68.03302 102.04953"/>
<path transform="matrix(1,0,0,-1.0001,2.2949982,138.07721)" d="M34.0165 102.04953V119.0578H51.02477V102.04953ZM51.02477 119.0578V136.06606H68.03302V119.0578ZM68.03302 136.06606" fill="#e0e0e0"/>
<path transform="matrix(1,0,0,-1.0001,2.2949982,138.07721)" stroke-width=".3985" stroke-linecap="butt" stroke-miterlimit="10" stroke-linejoin="miter" fill="none" stroke="#000000" d="M34.0165 102.04953V119.0578H51.02477V102.04953ZM51.02477 119.0578V136.06606H68.03302V119.0578ZM68.03302 136.06606"/>
<path transform="matrix(1,0,0,-1.0001,2.2949982,138.07721)" d="M68.03302 0V17.00824H85.04128V0ZM85.04128 17.00824V34.0165H102.04953V17.00824ZM102.04953 34.0165" fill="#e0e0e0"/>
<path transform="matrix(1,0,0,-1.0001,2.2949982,138.07721)" stroke-width=".3985" stroke-linecap="butt" stroke-miterlimit="10" stroke-linejoin="miter" fill="none" stroke="#000000" d="M68.03302 0V17.00824H85.04128V0ZM85.04128 17.00824V34.0165H102.04953V17.00824ZM102.04953 34.0165"/>
<path transform="matrix(1,0,0,-1.0001,2.2949982,138.07721)" d="M68.03302 34.0165V51.02477H85.04128V34.0165ZM85.04128 51.02477V68.03302H102.04953V51.02477ZM102.04953 68.03302" fill="#e0e0e0"/>
<path transform="matrix(1,0,0,-1.0001,2.2949982,138.07721)" stroke-width=".3985" stroke-linecap="butt" stroke-miterlimit="10" stroke-linejoin="miter" fill="none" stroke="#000000" d="M68.03302 34.0165V51.02477H85.04128V34.0165ZM85.04128 51.02477V68.03302H102.04953V51.02477ZM102.04953 68.03302"/>
<path transform="matrix(1,0,0,-1.0001,2.2949982,138.07721)" d="M68.03302 68.03302V85.04128H85.04128V68.03302ZM85.04128 85.04128V102.04953H102.04953V85.04128ZM102.04953 102.04953" fill="#e0e0e0"/>
<path transform="matrix(1,0,0,-1.0001,2.2949982,138.07721)" stroke-width=".3985" stroke-linecap="butt" stroke-miterlimit="10" stroke-linejoin="miter" fill="none" stroke="#000000" d="M68.03302 68.03302V85.04128H85.04128V68.03302ZM85.04128 85.04128V102.04953H102.04953V85.04128ZM102.04953 102.04953"/>
<path transform="matrix(1,0,0,-1.0001,2.2949982,138.07721)" d="M68.03302 102.04953V119.0578H85.04128V102.04953ZM85.04128 119.0578V136.06606H102.04953V119.0578ZM102.04953 136.06606" fill="#e0e0e0"/>
<path transform="matrix(1,0,0,-1.0001,2.2949982,138.07721)" stroke-width=".3985" stroke-linecap="butt" stroke-miterlimit="10" stroke-linejoin="miter" fill="none" stroke="#000000" d="M68.03302 102.04953V119.0578H85.04128V102.04953ZM85.04128 119.0578V136.06606H102.04953V119.0578ZM102.04953 136.06606"/>
<path transform="matrix(1,0,0,-1.0001,2.2949982,138.07721)" d="M102.04953 0V17.00824H119.0578V0ZM119.0578 17.00824V34.0165H136.06606V17.00824ZM136.06606 34.0165" fill="#e0e0e0"/>
<path transform="matrix(1,0,0,-1.0001,2.2949982,138.07721)" stroke-width=".3985" stroke-linecap="butt" stroke-miterlimit="10" stroke-linejoin="miter" fill="none" stroke="#000000" d="M102.04953 0V17.00824H119.0578V0ZM119.0578 17.00824V34.0165H136.06606V17.00824ZM136.06606 34.0165"/>
<path transform="matrix(1,0,0,-1.0001,2.2949982,138.07721)" d="M102.04953 34.0165V51.02477H119.0578V34.0165ZM119.0578 51.02477V68.03302H136.06606V51.02477ZM136.06606 68.03302" fill="#e0e0e0"/>
<path transform="matrix(1,0,0,-1.0001,2.2949982,138.07721)" stroke-width=".3985" stroke-linecap="butt" stroke-miterlimit="10" stroke-linejoin="miter" fill="none" stroke="#000000" d="M102.04953 34.0165V51.02477H119.0578V34.0165ZM119.0578 51.02477V68.03302H136.06606V51.02477ZM136.06606 68.03302"/>
<path transform="matrix(1,0,0,-1.0001,2.2949982,138.07721)" d="M102.04953 68.03302V85.04128H119.0578V68.03302ZM119.0578 85.04128V102.04953H136.06606V85.04128ZM136.06606 102.04953" fill="#e0e0e0"/>
<path transform="matrix(1,0,0,-1.0001,2.2949982,138.07721)" stroke-width=".3985" stroke-linecap="butt" stroke-miterlimit="10" stroke-linejoin="miter" fill="none" stroke="#000000" d="M102.04953 68.03302V85.04128H119.0578V68.03302ZM119.0578 85.04128V102.04953H136.06606V85.04128ZM136.06606 102.04953"/>
<path transform="matrix(1,0,0,-1.0001,2.2949982,138.07721)" d="M102.04953 102.04953V119.0578H119.0578V102.04953ZM119.0578 119.0578V136.06606H136.06606V119.0578ZM136.06606 136.06606" fill="#e0e0e0"/>
<path transform="matrix(1,0,0,-1.0001,2.2949982,138.07721)" stroke-width=".3985" stroke-linecap="butt" stroke-miterlimit="10" stroke-linejoin="miter" fill="none" stroke="#000000" d="M102.04953 102.04953V119.0578H119.0578V102.04953ZM119.0578 119.0578V136.06606H136.06606V119.0578ZM136.06606 136.06606"/>
<path transform="matrix(1,0,0,-1.0001,2.2949982,138.07721)" stroke-width=".79701" stroke-linecap="butt" stroke-miterlimit="10" stroke-linejoin="miter" fill="none" stroke="#000000" d="M0 0V136.06606H136.06606V0ZM136.06606 136.06606"/>
<use data-text="R" xlink:href="#font_1_1" transform="matrix(14.3462,0,0,-14.347635,5.390999,15.839989)"/>
<use data-text="6" xlink:href="#font_2_1" transform="matrix(9.9626,0,0,-9.963596,42.324998,47.733179)"/>
</svg>
