<svg xmlns="http://www.w3.org/2000/svg" xmlns:xlink="http://www.w3.org/1999/xlink" xmlns:inkscape="http://www.inkscape.org/namespaces/inkscape" version="1.1" width="194" height="112" viewBox="0 0 194 112">
<defs>
<path id="font_1_27" d="M.84098818 0V.038986207H.81900027C.75 .038986207 .7429962 .049972536 .7319946 .076919559L.47898866 .68984988C.47099305 .7098541 .46199037 .7138672 .44799806 .7138672 .4269867 .7138672 .4229889 .70484927 .4169922 .68984988L.1749878 .103881839C.1539917 .052963258 .10798645 .038986207 .053985597 .038986207V0C.08999634 .0039978029 .12599182 .0039978029 .1619873 .0039978029 .20098877 .0039978029 .2689972 .0009918213 .28599549 0V.038986207C.23399353 .038986207 .21199036 .063949588 .21199036 .08590698 .21199036 .09190369 .21398926 .09489441 .21798706 .10588074L.2669983 .22467041H.56599429L.6259918 .08091736C.6279907 .076919559 .6309967 .06993103 .6309967 .06594849 .6309967 .038986207 .57398989 .038986207 .5469971 .038986207V0L.70199587 .0039978029 .84098818 0M.5499878 .26367188H.2829895L.4169922 .5877991 .5499878 .26367188Z"/>
<path id="font_1_72" d="M.30099488 0V.038986207C.23199463 .038986207 .22200012 .038986207 .22200012 .08201599V.69433596L.06399536 .6826172V.6436157C.13398743 .6436157 .14299011 .63661196 .14299011 .5876465V.081970218C.14299011 .038986207 .1329956 .038986207 .06399536 .038986207V0L.18199158 .0039978029C.22200012 .0039978029 .26098634 .0029907227 .30099488 0Z"/>
<path id="font_1_34" d="M.7709961 .18389893C.7709961 .26185609 .69299319 .33979798 .5519867 .3577881 .6539917 .37477113 .7389984 .43574525 .7389984 .5126953 .7389984 .6036377 .6259918 .6826172 .48298646 .6826172H.068984989V.6436157H.09498596C.1749878 .6436157 .1749878 .63160708 .1749878 .5986328V.083969119C.1749878 .050979616 .1749878 .038986207 .09498596 .038986207H.068984989V0H.5139923C.6599884-.0001373291 .7709961 .085861209 .7709961 .18385315V.18389893M.6349945 .5126648C.6349945 .43676759 .55799868 .37086488 .44299317 .37086488H.2679901V.6045532C.2679901 .6355438 .2679901 .6435547 .31698609 .6435547H.47599793C.57499697 .6439972 .6349945 .57899478 .6349945 .5130005V.5126648M.6639862 .18499756C.6639862 .11199951 .59098818 .038986207 .47799684 .038986207H.31698609C.2679901 .0390625 .2679901 .047058107 .2679901 .078048709V.3388672H.49398805C.60198977 .3388672 .6639862 .2569275 .6639862 .1849823V.18499756Z"/>
<path id="font_1_81" d="M.56199648 .21325684C.56199648 .3382721 .44999696 .44628907 .30499269 .44628907 .15899658 .44628907 .04798889 .3382721 .04798889 .21325684 .04798889 .0912323 .16099549-.009765625 .30499269-.009765625 .44898988-.009765625 .56199648 .0912323 .56199648 .21325684M.46699525 .22225952C.46699525 .17424011 .46699525 .025222779 .30499269 .025222779 .14299011 .025222779 .14299011 .17424011 .14299011 .22225952 .14299011 .25326539 .14299011 .32226563 .17999268 .363266 .21398926 .39927674 .25698854 .41427613 .30499269 .41427613 .35299684 .41427613 .397995 .39927674 .43099977 .36227418 .46699525 .3212738 .46699525 .2542572 .46699525 .22225952Z"/>
<path id="font_1_35" d="M.62098696 .21601868C.62098696 .33802796 .5130005 .44140626 .375 .44140626 .32199098 .44140626 .2649994 .4263916 .21598816 .38201905V.69433596L.057998659 .68333438V.6443329C.12799073 .6443329 .13699341 .6373291 .13699341 .5883484V.00022888184H.17399597L.20899964 .061203004C.24299622 .021224976 .2939911-.009765625 .36299134-.009765625 .5019989-.009765625 .62098696 .08918762 .62098696 .21609497V.21601868M.526001 .21609497C.526001 .02722168 .37998963 .022232056 .35798646 .022232056 .32398988 .022232056 .2749939 .032226564 .23498535 .08418274 .21998596 .10417175 .21998596 .106170658 .21998596 .12515259V.33203126C.25099183 .38201905 .31098939 .4093933 .36898805 .4093933 .42199708 .4093933 .46299745 .38304139 .48599244 .35601808 .5179901 .31703187 .526001 .2680664 .526001 .21609497Z"/>
<path id="font_1_42" d="M.7899933 .23370362C.7899933 .24472046 .78900149 .25473023 .7709961 .25473023 .7549896 .25473023 .7539978 .24671936 .7529907 .23770142 .7449951 .08456421 .60598757 .017501831 .49598695 .017501831 .37599183 .017501831 .18998719 .08857727 .18998719 .34179688 .18998719 .59002688 .37098695 .6651001 .49499513 .6651001 .60798647 .6651001 .72499087 .58802798 .75 .43489076 .7519989 .421875 .7529907 .41487123 .769989 .41487123 .7899933 .41487123 .7899933 .42288209 .7899933 .4429016V.6760864C.7899933 .6931 .7899933 .70410159 .7739868 .70410159 .7649994 .70410159 .7630005 .7000885 .7559967 .6911011L.70098879 .61505129C.6429901 .6730957 .56399539 .70410159 .48199464 .70410159 .2599945 .70410159 .07899475 .539978 .07899475 .34179688 .07899475 .140625 .2599945-.021484375 .48298646-.021484375 .66600039-.021484375 .7899933 .10658264 .7899933 .23370362Z"/>
<path id="font_1_28" d="M.5799866 .09013367V.14515686H.54299929V.09213257C.54299929 .0821228 .54299929 .037109376 .5039978 .037109376 .46499635 .037109376 .46499635 .0821228 .46499635 .09213257V.29823304C.46499635 .39126588 .36999513 .44628907 .2579956 .44628907 .20999146 .44628907 .09199524 .44128419 .09199524 .35725404 .09199524 .33024598 .10998535 .30822755 .14099121 .30822755 .16999817 .30822755 .18899536 .33024598 .18899536 .35624696 .18899536 .37426759 .18099976 .39126588 .16299439 .39927674 .19599915 .41427613 .24598694 .41427613 .2559967 .41427613 .32699586 .41427613 .38198854 .37225343 .38198854 .29621888V.2702179C.33599855 .268219 .2559967 .2662201 .18299866 .24020386 .116989139 .2171936 .053985597 .17216492 .053985597 .10513306 .053985597 .016220093 .1599884-.009765625 .23799134-.009765625 .32199098-.009765625 .37199403 .032226564 .3939972 .07022095 .40098573 .018112183 .43399049-.0048828127 .46899415-.0048828127 .47299195-.0048828127 .5799866-.0048828127 .5799866 .09010315V.09013367M.38198854 .1421051C.38198854 .038223268 .2789917 .022232056 .24699402 .022232056 .19299317 .022232056 .14199829 .055221559 .14199829 .10522461 .14199829 .16122437 .19599915 .23422241 .38198854 .24023438V.1421051Z"/>
<path id="font_1_105" d="M.40098573 .12599182V.18110657H.3639984V.12799073C.3639984 .057159425 .32699586 .025222779 .2899933 .025222779 .21798706 .025222779 .21798706 .106033328 .21798706 .125V.39257813H.38198854V.43156434H.21798706V.6152344H.18099976C.17999268 .52638247 .13699341 .42855836 .035995485 .4245758V.39257813H.1349945V.125C.1349945 .020233155 .21398926-.009765625 .28199769-.009765625 .35099793-.009765625 .40098573 .045181276 .40098573 .12599182Z"/>
<path id="font_1_46" d="M.83599856 .33480836C.83599856 .52767947 .6749878 .6826172 .48098756 .6826172H.066986087V.6436157H.09298706C.17298889 .6436157 .17298889 .63160708 .17298889 .5986328V.083969119C.17298889 .050979616 .17298889 .038986207 .09298706 .038986207H.066986087V0H.48199464C.6749878 0 .83599856 .14892578 .83599856 .33480836M.72898867 .33580018C.72898867 .2708435 .71798709 .1829071 .66600039 .124938968 .60398867 .05697632 .5189972 .038986207 .45399476 .038986207H.31799317C.2689972 .0390625 .2689972 .047058107 .2689972 .078048709V.6045532C.2689972 .6355438 .2689972 .6435547 .31799317 .6435547H.45298768C.5239868 .6435547 .60198977 .6215515 .6599884 .56059268 .71598818 .50064089 .72898867 .409729 .72898867 .33580018Z"/>
<path id="font_1_66" d="M.29299928 0V.038986207C.23098755 .038986207 .22200012 .038986207 .22200012 .08103943V.44140626L.067993167 .43058778V.39160157C.13398743 .39160157 .14299011 .38459779 .14299011 .33558656V.082595828C.14299011 .038986207 .1329956 .038986207 .06399536 .038986207V0L.18099976 .0039978029C.19099427 .0039978029 .2669983 .0019989014 .29299928 0M.23599243 .60112C.23599243 .6331177 .20999146 .6611328 .17599488 .6611328 .13899231 .6611328 .114990238 .63012698 .114990238 .60112 .114990238 .5691223 .14099121 .54112246 .1749878 .54112246 .21199036 .54112246 .23599243 .5721283 .23599243 .60112Z"/>
<path id="font_1_96" d="M.43399049 .37539674C.43399049 .41540528 .3959961 .44140626 .35198976 .44140626 .2919922 .44140626 .24099732 .4053955 .20999146 .33839417H.20899964V.44140626L.057998659 .43058778V.39160157C.12799073 .39160157 .13699341 .38458253 .13699341 .335495V.08206177C.13699341 .038986207 .1269989 .038986207 .057998659 .038986207V0C.08299255 .0019989014 .15699768 .0039978029 .1789856 .0039978029 .23098755 .0039978029 .2999878 .0009918213 .31399537 0V.038986207H.2919922C.21699524 .039398195 .21598816 .0493927 .21598816 .08340454V.22439575C.21598816 .31739808 .2639923 .4073944 .35299684 .4093933 .34399415 .40040589 .33999635 .38839723 .33999635 .37539674 .33999635 .34840394 .3600006 .32839967 .3869934 .32839967 .4139862 .32839967 .43399049 .34840394 .43399049 .37539674Z"/>
<path id="font_1_70" d="M.60899356 0V.038986207C.55599978 .038986207 .5419922 .04698181 .5069885 .08694458L.34799195 .2697754C.45700074 .35169984 .5079956 .3896637 .58299258 .3916626V.43066407C.56999209 .42965699 .5399933 .426651 .5079956 .426651 .46499635 .426651 .3939972 .42965699 .3849945 .43066407V.3916626C.40098573 .3896637 .40299989 .3756714 .40299989 .3756714 .40299989 .37167359 .40098573 .35469056 .37199403 .33370973L.21598816 .2208252V.69433596L.057998659 .6826172V.6436157C.12799073 .6436157 .13699341 .63661196 .13699341 .5876465V.081970218C.13699341 .038986207 .1269989 .038986207 .057998659 .038986207V0C.084991458 .0019989014 .15299988 .0039978029 .1749878 .0039978029L.2919922 0V.038986207C.22299195 .038986207 .21299744 .038986207 .21299744 .081970218V.1729126L.2889862 .22787476 .40098573 .097961429C.4119873 .08496094 .42599488 .06997681 .42599488 .055984498 .42599488 .041992189 .4099884 .038986207 .39898683 .038986207V0C.41999818 .0019989014 .48999024 .0039978029 .5159912 .0039978029 .5549927 .0039978029 .59999087 .0009918213 .60899356 0Z"/>
<path id="font_1_49" d="M.7719879 .26600648H.7350006C.70799258 .11204529 .6799927 .0390625 .48999024 .0390625H.31999208C.2709961 .0390625 .2709961 .047058107 .2709961 .078048709V.3330078H.3789978C.47999574 .3330078 .5 .30599977 .5 .21601868H.5369873V.4888153H.5C.5 .3989563 .47999574 .37199403 .3789978 .37199403H.2709961V.600647C.2709961 .6316376 .2709961 .63964846 .31999208 .63964846H.48098756C.6469879 .6397095 .68299868 .59173586 .70199587 .4458313H.7389984L.70799258 .67871096H.06498718V.6397095H.09098816C.17098999 .6397095 .17098999 .62771609 .17098999 .59472659V.08404541C.17098999 .05105591 .17098999 .0390625 .09098816 .0390625H.06498718V0H.72499087L.7719879 .26600648Z"/>
<path id="font_1_112" d="M.6029968 .3916626V.43066407C.6029968 .43066407 .5569916 .426651 .522995 .426651 .48999024 .426651 .43399049 .42965699 .42799378 .43066407V.3916626C.47099305 .3896942 .47099305 .3580475 .47099305 .3550415 .47099305 .34204103 .46598817 .3320465 .46199037 .3240509L.34498597 .08218384 .21499634 .3510437C.21199036 .35604859 .20899964 .36305238 .20899964 .3700409 .20899964 .3916626 .24499512 .3916626 .2619934 .3916626V.43066407L.14299011 .426651C.12199402 .426651 .06199646 .4286499 .039993287 .43066407V.3916626C.09899902 .3916626 .10899353 .3887024 .12399292 .3580475L.2889862 .014221191C.29899598-.0067749025 .30899049-.009765625 .32099916-.009765625 .34098817-.009765625 .34599305-.00077819827 .35299684 .013214111L.5059967 .3310547C.5299988 .37986756 .56599429 .39067079 .6029968 .3916626Z"/>
<path id="font_1_43" d="M.49899293 .12023926C.49899293 .13424683 .48399354 .13424683 .47999574 .13424683 .46699525 .13424683 .46499635 .12924195 .46099855 .11923218 .45498658 .10423279 .44400025 .07524109 .4099884 .052230836 .3880005 .037231447 .35499574 .025222779 .31599427 .025222779 .23899842 .025222779 .14898682 .08023071 .14898682 .21725464 .14898682 .2602539 .15699768 .31626893 .19299317 .3592682 .23799134 .4112854 .29100038 .4112854 .32099916 .4112854 .34899903 .4112854 .3829956 .41027833 .4099884 .40327455 .3999939 .39727784 .3889923 .38327027 .3889923 .36227418 .3889923 .3362732 .4079895 .31427003 .43699647 .31427003 .46798707 .31427003 .48599244 .3362732 .48599244 .363266 .48599244 .44328309 .37998963 .44628907 .31698609 .44628907 .13198853 .44628907 .053985597 .31427003 .053985597 .21624756 .053985597 .0912323 .16499329-.009765625 .30499269-.009765625 .46398927-.009765625 .49899293 .10923767 .49899293 .12023926Z"/>
<path id="font_1_98" d="M.43399049 .12898255C.43399049 .16896057 .4139862 .19900513 .3919983 .21803284 .34999085 .25506593 .30999757 .26208497 .25 .27209474 .1749878 .2841034 .10798645 .29612733 .10798645 .3471985 .10798645 .3762207 .1349945 .4172821 .23899842 .4172821 .30899049 .4172821 .3619995 .3912506 .36799623 .3201599 .36898805 .30714417 .36999513 .2991333 .38598634 .2991333 .40499879 .2991333 .40499879 .308136 .40499879 .3271637V.41827394C.40499879 .43528749 .40499879 .44628907 .3889923 .44628907 .38398744 .44628907 .38198854 .44628907 .36698915 .4342804 .36499024 .4322815 .3639984 .4312744 .34899903 .419281 .31098939 .44528199 .2599945 .44628907 .23999024 .44628907 .08299255 .44628907 .052993776 .36721803 .052993776 .3221588 .052993776 .22402954 .17098999 .20500183 .24699402 .19299317 .2919922 .18598938 .3789978 .17196656 .3789978 .106033328 .3789978 .06712341 .34899903 .022232056 .24699402 .022232056 .15098572 .022232056 .11099243 .07809448 .09098816 .1529541 .08799744 .16195679 .085998538 .16796875 .07199097 .16796875 .052993776 .16796875 .052993776 .15896607 .052993776 .13896179V.018234253C.052993776 .0012207031 .052993776-.009765625 .068984989-.009765625 .07499695-.009765625 .07598877-.008773804 .09498596 .009231567L.117996219 .033203126C.16699219-.009765625 .22698975-.009765625 .24699402-.009765625 .394989-.009765625 .43399049 .070114139 .43399049 .12898255Z"/>
<path id="font_1_97" d="M.59599307 .18325806C.59599307 .25335694 .5569916 .30143739 .5419922 .3164673 .4909973 .3675537 .46099855 .37356568 .33699037 .39961244L.24299622 .4206543C.19099427 .4376831 .14299011 .48176576 .14299011 .53886416 .14299011 .60598757 .20899964 .6680908 .30699159 .6680908 .3600006 .6680908 .41099549 .654068 .45199586 .6210022 .5109863 .57392886 .5219879 .50180056 .526001 .4777527 .5279999 .46272279 .5289917 .455719 .54499819 .455719 .56399539 .455719 .56399539 .46473695 .56399539 .48376466V.6760864C.56399539 .6931 .56399539 .70410159 .5479889 .70410159 .5439911 .70410159 .5379944 .70410159 .5299988 .6911011L.49299623 .6340332C.43598939 .690094 .3639984 .70410159 .30599977 .70410159 .17599488 .70410159 .07899475 .6159973 .07899475 .5128174 .07899475 .46072389 .102996829 .41664125 .13899231 .38258363 .18399048 .34150697 .21798706 .33450318 .32998658 .3114624 .43299867 .2894287 .45599366 .28440858 .4869995 .25535584 .49899293 .24334717 .5319977 .21128845 .5319977 .15826416 .5319977 .08938599 .46998597 .017501831 .3659973 .017501831 .27999879 .017501831 .12399292 .04345703 .115997318 .20326233 .114990238 .21829224 .114990238 .2263031 .09799194 .2263031 .07899475 .2263031 .07899475 .21730042 .07899475 .19726563V.006515503C.07899475-.010498047 .07899475-.021484375 .09498596-.021484375 .10398865-.021484375 .10598755-.017486573 .11099243-.009490967 .11399841-.0064849855 .1349945 .025497437 .14898682 .046463014 .22200012-.01449585 .31900025-.021484375 .3659973-.021484375 .5049896-.021484375 .59599307 .07740784 .59599307 .18325806Z"/>
</defs>
<path transform="matrix(1.00006,0,0,-1,11.103725,98.405)" stroke-width=".3985" stroke-linecap="butt" stroke-miterlimit="10" stroke-linejoin="miter" fill="none" stroke="#000000" d="M9.33498 85.04042C9.33498 90.19604 5.15562 94.37541 0 94.37541-5.15562 94.37541-9.33498 90.19604-9.33498 85.04042-9.33498 79.8848-5.15562 75.70543 0 75.70543 5.15562 75.70543 9.33498 79.8848 9.33498 85.04042ZM0 85.04042"/>
<use data-text="A" xlink:href="#font_1_27" transform="matrix(5.9779589,0,0,-5.9776,7.373502,15.499001)"/>
<use data-text="l" xlink:href="#font_1_72" transform="matrix(5.9779589,0,0,-5.9776,12.729753,15.499001)"/>
<path transform="matrix(1.00006,0,0,-1,11.103725,98.405)" stroke-width=".3985" stroke-linecap="butt" stroke-miterlimit="10" stroke-linejoin="miter" fill="none" stroke="#000000" d="M54.02992 85.04042C54.02992 91.39714 48.87692 96.55014 42.5202 96.55014 36.16348 96.55014 31.01048 91.39714 31.01048 85.04042 31.01048 78.6837 36.16348 73.5307 42.5202 73.5307 48.87692 73.5307 54.02992 78.6837 54.02992 85.04042ZM42.5202 85.04042"/>
<use data-text="B" xlink:href="#font_1_34" transform="matrix(5.9779589,0,0,-5.9776,47.235895,15.408997)"/>
<use data-text="o" xlink:href="#font_1_81" transform="matrix(5.9779589,0,0,-5.9776,52.323137,15.408997)"/>
<use data-text="b" xlink:href="#font_1_35" transform="matrix(5.9779589,0,0,-5.9776,55.97567,15.408997)"/>
<path transform="matrix(1.00006,0,0,-1,11.103725,98.405)" stroke-width=".3985" stroke-linecap="butt" stroke-miterlimit="10" stroke-linejoin="miter" fill="none" stroke="#000000" d="M96.1454 85.04042C96.1454 91.17361 91.17361 96.1454 85.04042 96.1454 78.90723 96.1454 73.93544 91.17361 73.93544 85.04042 73.93544 78.90723 78.90723 73.93544 85.04042 73.93544 91.17361 73.93544 96.1454 78.90723 96.1454 85.04042ZM85.04042 85.04042"/>
<use data-text="C" xlink:href="#font_1_42" transform="matrix(5.9779589,0,0,-5.9776,90.28447,15.405998)"/>
<use data-text="a" xlink:href="#font_1_28" transform="matrix(5.9779589,0,0,-5.9776,95.4853,15.405998)"/>
<use data-text="t" xlink:href="#font_1_105" transform="matrix(5.9779589,0,0,-5.9776,99.13783,15.405998)"/>
<path transform="matrix(1.00006,0,0,-1,11.103725,98.405)" stroke-width=".3985" stroke-linecap="butt" stroke-miterlimit="10" stroke-linejoin="miter" fill="none" stroke="#000000" d="M139.72708 85.04042C139.72708 91.75984 134.28006 97.20686 127.56062 97.20686 120.8412 97.20686 115.39418 91.75984 115.39418 85.04042 115.39418 78.321 120.8412 72.87398 127.56062 72.87398 134.28006 72.87398 139.72708 78.321 139.72708 85.04042ZM127.56062 85.04042"/>
<use data-text="D" xlink:href="#font_1_46" transform="matrix(5.9779589,0,0,-5.9776,131.51894,15.438995)"/>
<use data-text="i" xlink:href="#font_1_66" transform="matrix(5.9779589,0,0,-5.9776,136.99475,15.438995)"/>
<use data-text="r" xlink:href="#font_1_96" transform="matrix(5.9779589,0,0,-5.9776,139.099,15.438995)"/>
<use data-text="k" xlink:href="#font_1_70" transform="matrix(5.9779589,0,0,-5.9776,141.9744,15.438995)"/>
<path transform="matrix(1.00006,0,0,-1,11.103725,98.405)" stroke-width=".3985" stroke-linecap="butt" stroke-miterlimit="10" stroke-linejoin="miter" fill="none" stroke="#000000" d="M181.24811 85.04042C181.24811 91.20801 176.24843 96.20767 170.08086 96.20767 163.91327 96.20767 158.9136 91.20801 158.9136 85.04042 158.9136 78.87285 163.91327 73.87317 170.08086 73.87317 176.24843 73.87317 181.24811 78.87285 181.24811 85.04042ZM170.08086 85.04042"/>
<use data-text="E" xlink:href="#font_1_49" transform="matrix(5.9779589,0,0,-5.9776,175.18958,15.363998)"/>
<use data-text="v" xlink:href="#font_1_112" transform="matrix(5.9779589,0,0,-5.9776,180.08551,15.363998)"/>
<use data-text="a" xlink:href="#font_1_28" transform="matrix(5.9779589,0,0,-5.9776,183.55274,15.363998)"/>
<path transform="matrix(1.00006,0,0,-1,11.103725,98.405)" stroke-width=".3985" stroke-linecap="butt" stroke-miterlimit="10" stroke-linejoin="miter" fill="none" stroke="#000000" d="M33.43285 0C33.43285 6.7229 27.98299 12.17276 21.26009 12.17276 14.53717 12.17276 9.08731 6.7229 9.08731 0 9.08731-6.7229 14.53717-12.17276 21.26009-12.17276 27.98299-12.17276 33.43285-6.7229 33.43285 0ZM21.26009 0"/>
<use data-text="C" xlink:href="#font_1_42" transform="matrix(5.9779589,0,0,-5.9776,25.254574,100.446)"/>
<use data-text="a" xlink:href="#font_1_28" transform="matrix(5.9779589,0,0,-5.9776,30.455399,100.446)"/>
<use data-text="l" xlink:href="#font_1_72" transform="matrix(5.9779589,0,0,-5.9776,34.107934,100.446)"/>
<use data-text="c" xlink:href="#font_1_43" transform="matrix(5.9779589,0,0,-5.9776,36.212175,100.446)"/>
<path transform="matrix(1.00006,0,0,-1,11.103725,98.405)" stroke-width=".3985" stroke-linecap="butt" stroke-miterlimit="10" stroke-linejoin="miter" fill="none" stroke="#000000" d="M97.00548 0C97.00548 6.60818 91.64862 11.96504 85.04042 11.96504 78.43224 11.96504 73.07536 6.60818 73.07536 0 73.07536-6.60818 78.43224-11.96504 85.04042-11.96504 91.64862-11.96504 97.00548-6.60818 97.00548 0ZM85.04042 0"/>
<use data-text="D" xlink:href="#font_1_46" transform="matrix(5.9779589,0,0,-5.9776,89.26842,100.416)"/>
<use data-text="i" xlink:href="#font_1_66" transform="matrix(5.9779589,0,0,-5.9776,94.744228,100.416)"/>
<use data-text="s" xlink:href="#font_1_98" transform="matrix(5.9779589,0,0,-5.9776,96.848468,100.416)"/>
<use data-text="c" xlink:href="#font_1_43" transform="matrix(5.9779589,0,0,-5.9776,99.76571,100.416)"/>
<path transform="matrix(1.00006,0,0,-1,11.103725,98.405)" stroke-width=".3985" stroke-linecap="butt" stroke-miterlimit="10" stroke-linejoin="miter" fill="none" stroke="#000000" d="M160.65808 0C160.65808 6.53766 155.3584 11.83734 148.82074 11.83734 142.28307 11.83734 136.98339 6.53766 136.98339 0 136.98339-6.53766 142.28307-11.83734 148.82074-11.83734 155.3584-11.83734 160.65808-6.53766 160.65808 0ZM148.82074 0"/>
<use data-text="S" xlink:href="#font_1_97" transform="matrix(5.9779589,0,0,-5.9776,153.21125,100.446)"/>
<use data-text="t" xlink:href="#font_1_105" transform="matrix(5.9779589,0,0,-5.9776,157.25234,100.446)"/>
<use data-text="a" xlink:href="#font_1_28" transform="matrix(5.9779589,0,0,-5.9776,160.12773,100.446)"/>
<use data-text="t" xlink:href="#font_1_105" transform="matrix(5.9779589,0,0,-5.9776,163.78028,100.446)"/>
<path transform="matrix(1.00006,0,0,-1,11.103725,98.405)" stroke-width=".3985" stroke-linecap="butt" stroke-miterlimit="10" stroke-linejoin="miter" fill="none" stroke="#000000" d=""/>
<path transform="matrix(1.00006,0,0,-1,11.103725,98.405)" stroke-width=".3985" stroke-linecap="butt" stroke-miterlimit="10" stroke-linejoin="miter" fill="none" stroke="#000000" d="M2.31282 75.80026 18.26218 12.00403"/>
<path transform="matrix(1.00006,0,0,-1,11.103725,98.405)" stroke-width=".3985" stroke-linecap="butt" stroke-miterlimit="10" stroke-linejoin="miter" fill="none" stroke="#000000" d="M8.27884 80.32063 138.38788 5.97292"/>
<path transform="matrix(1.00006,0,0,-1,11.103725,98.405)" stroke-width=".3985" stroke-linecap="butt" stroke-miterlimit="10" stroke-linejoin="miter" fill="none" stroke="#000000" d=""/>
<path transform="matrix(1.00006,0,0,-1,11.103725,98.405)" stroke-width=".3985" stroke-linecap="butt" stroke-miterlimit="10" stroke-linejoin="miter" fill="none" stroke="#000000" d="M39.6857 73.69008 24.26372 12.00385"/>
<path transform="matrix(1.00006,0,0,-1,11.103725,98.405)" stroke-width=".3985" stroke-linecap="butt" stroke-miterlimit="10" stroke-linejoin="miter" fill="none" stroke="#000000" d="M47.76338 74.57797 79.61168 10.88135"/>
<path transform="matrix(1.00006,0,0,-1,11.103725,98.405)" stroke-width=".3985" stroke-linecap="butt" stroke-miterlimit="10" stroke-linejoin="miter" fill="none" stroke="#000000" d=""/>
<path transform="matrix(1.00006,0,0,-1,11.103725,98.405)" stroke-width=".3985" stroke-linecap="butt" stroke-miterlimit="10" stroke-linejoin="miter" fill="none" stroke="#000000" d="M78.26787 76.00644 28.68668 9.89845"/>
<path transform="matrix(1.00006,0,0,-1,11.103725,98.405)" stroke-width=".3985" stroke-linecap="butt" stroke-miterlimit="10" stroke-linejoin="miter" fill="none" stroke="#000000" d="M91.83562 76.00766 141.61765 9.6312"/>
<path transform="matrix(1.00006,0,0,-1,11.103725,98.405)" stroke-width=".3985" stroke-linecap="butt" stroke-miterlimit="10" stroke-linejoin="miter" fill="none" stroke="#000000" d=""/>
<path transform="matrix(1.00006,0,0,-1,11.103725,98.405)" stroke-width=".3985" stroke-linecap="butt" stroke-miterlimit="10" stroke-linejoin="miter" fill="none" stroke="#000000" d="M130.57854 73.05383 145.92177 11.67912"/>
<path transform="matrix(1.00006,0,0,-1,11.103725,98.405)" stroke-width=".3985" stroke-linecap="butt" stroke-miterlimit="10" stroke-linejoin="miter" fill="none" stroke="#000000" d=""/>
<path transform="matrix(1.00006,0,0,-1,11.103725,98.405)" stroke-width=".3985" stroke-linecap="butt" stroke-miterlimit="10" stroke-linejoin="miter" fill="none" stroke="#000000" d="M160.23207 79.41092 32.00548 6.13841"/>
<path transform="matrix(1.00006,0,0,-1,11.103725,98.405)" stroke-width=".3985" stroke-linecap="butt" stroke-miterlimit="10" stroke-linejoin="miter" fill="none" stroke="#000000" d="M162.06415 77.01213 93.65367 8.60175"/>
</svg>
