<svg xmlns="http://www.w3.org/2000/svg" xmlns:xlink="http://www.w3.org/1999/xlink" xmlns:inkscape="http://www.inkscape.org/namespaces/inkscape" version="1.1" width="32" height="61" viewBox="0 0 32 61">
<path transform="matrix(1.00002,0,0,-1.00003,1.9680593,59.093175)" stroke-width=".79701" stroke-linecap="butt" stroke-miterlimit="10" stroke-linejoin="miter" fill="none" stroke="#000000" d="M0 3.9851V52.70851C0 54.90945 1.78416 56.69362 3.9851 56.69362H24.3617C26.56264 56.69362 28.3468 54.90945 28.3468 52.70851V3.9851C28.3468 1.78416 26.56264 0 24.3617 0H3.9851C1.78416 0 0 1.78416 0 3.9851ZM28.3468 56.69362"/>
<path transform="matrix(1.00002,0,0,-1.00003,1.9680593,59.093175)" stroke-width=".3985" stroke-linecap="butt" stroke-miterlimit="10" stroke-linejoin="miter" fill="none" stroke="#000000" d="M0 28.3468H28.3468"/>
<path transform="matrix(1.00002,0,0,-1.00003,1.9680593,59.093175)" stroke-width=".3985" stroke-linecap="butt" stroke-miterlimit="10" stroke-linejoin="miter" fill="none" stroke="#000000" d="M14.17339 42.5202"/>
<path transform="matrix(1.00002,0,0,-1.00003,1.9680593,59.093175)" d="M9.07924 7.08669C9.07924 8.18715 8.18715 9.07924 7.08669 9.07924 5.9862 9.07924 5.09413 8.18715 5.09413 7.08669 5.09413 5.9862 5.9862 5.09413 7.08669 5.09413 8.18715 5.09413 9.07924 5.9862 9.07924 7.08669ZM7.08669 7.08669"/>
<path transform="matrix(1.00002,0,0,-1.00003,1.9680593,59.093175)" d="M16.16594 14.17339C16.16594 15.27386 15.27386 16.16594 14.17339 16.16594 13.07292 16.16594 12.18083 15.27386 12.18083 14.17339 12.18083 13.07292 13.07292 12.18083 14.17339 12.18083 15.27386 12.18083 16.16594 13.07292 16.16594 14.17339ZM14.17339 14.17339"/>
<path transform="matrix(1.00002,0,0,-1.00003,1.9680593,59.093175)" d="M23.25266 21.2601C23.25266 22.36057 22.36057 23.25266 21.2601 23.25266 20.15962 23.25266 19.26755 22.36057 19.26755 21.2601 19.26755 20.15962 20.15962 19.26755 21.2601 19.26755 22.36057 19.26755 23.25266 20.15962 23.25266 21.2601ZM21.2601 21.2601"/>
<path transform="matrix(1.00002,0,0,-1.00003,1.9680593,59.093175)" d="M16.16594 42.5202C16.16594 43.62067 15.27386 44.51276 14.17339 44.51276 13.07292 44.51276 12.18083 43.62067 12.18083 42.5202 12.18083 41.41972 13.07292 40.52765 14.17339 40.52765 15.27386 40.52765 16.16594 41.41972 16.16594 42.5202ZM14.17339 42.5202"/>
</svg>
