<svg xmlns="http://www.w3.org/2000/svg" xmlns:xlink="http://www.w3.org/1999/xlink" xmlns:inkscape="http://www.inkscape.org/namespaces/inkscape" version="1.1" width="32" height="60" viewBox="0 0 32 60">
<path transform="matrix(1.00002,0,0,-1,1.9680593,58.269)" stroke-width=".79701" stroke-linecap="butt" stroke-miterlimit="10" stroke-linejoin="miter" fill="none" stroke="#000000" d="M0 3.9851V52.70851C0 54.90945 1.78416 56.69362 3.9851 56.69362H24.3617C26.56264 56.69362 28.3468 54.90945 28.3468 52.70851V3.9851C28.3468 1.78416 26.56264 0 24.3617 0H3.9851C1.78416 0 0 1.78416 0 3.9851ZM28.3468 56.69362"/>
<path transform="matrix(1.00002,0,0,-1,1.9680593,58.269)" stroke-width=".3985" stroke-linecap="butt" stroke-miterlimit="10" stroke-linejoin="miter" fill="none" stroke="#000000" d="M0 28.3468H28.3468"/>
<path transform="matrix(1.00002,0,0,-1,1.9680593,58.269)" stroke-width=".3985" stroke-linecap="butt" stroke-miterlimit="10" stroke-linejoin="miter" fill="none" stroke="#000000" d="M21.2601 49.6069"/>
<path transform="matrix(1.00002,0,0,-1,1.9680593,58.269)" d="M9.07924 14.17339C9.07924 15.27386 8.18715 16.16594 7.08669 16.16594 5.9862 16.16594 5.09413 15.27386 5.09413 14.17339 5.09413 13.07292 5.9862 12.18083 7.08669 12.18083 8.18715 12.18083 9.07924 13.07292 9.07924 14.17339ZM7.08669 14.17339"/>
<path transform="matrix(1.00002,0,0,-1,1.9680593,58.269)" d="M23.25266 14.17339C23.25266 15.27386 22.36057 16.16594 21.2601 16.16594 20.15962 16.16594 19.26755 15.27386 19.26755 14.17339 19.26755 13.07292 20.15962 12.18083 21.2601 12.18083 22.36057 12.18083 23.25266 13.07292 23.25266 14.17339ZM21.2601 14.17339"/>
<path transform="matrix(1.00002,0,0,-1,1.9680593,58.269)" d="M9.07924 7.08669C9.07924 8.18715 8.18715 9.07924 7.08669 9.07924 5.9862 9.07924 5.09413 8.18715 5.09413 7.08669 5.09413 5.9862 5.9862 5.09413 7.08669 5.09413 8.18715 5.09413 9.07924 5.9862 9.07924 7.08669ZM7.08669 7.08669"/>
<path transform="matrix(1.00002,0,0,-1,1.9680593,58.269)" d="M9.07924 21.2601C9.07924 22.36057 8.18715 23.25266 7.08669 23.25266 5.9862 23.25266 5.09413 22.36057 5.09413 21.2601 5.09413 20.15962 5.9862 19.26755 7.08669 19.26755 8.18715 19.26755 9.07924 20.15962 9.07924 21.2601ZM7.08669 21.2601"/>
<path transform="matrix(1.00002,0,0,-1,1.9680593,58.269)" d="M23.25266 7.08669C23.25266 8.18715 22.36057 9.07924 21.2601 9.07924 20.15962 9.07924 19.26755 8.18715 19.26755 7.08669 19.26755 5.9862 20.15962 5.09413 21.2601 5.09413 22.36057 5.09413 23.25266 5.9862 23.25266 7.08669ZM21.2601 7.08669"/>
<path transform="matrix(1.00002,0,0,-1,1.9680593,58.269)" d="M23.25266 21.2601C23.25266 22.36057 22.36057 23.25266 21.2601 23.25266 20.15962 23.25266 19.26755 22.36057 19.26755 21.2601 19.26755 20.15962 20.15962 19.26755 21.2601 19.26755 22.36057 19.26755 23.25266 20.15962 23.25266 21.2601ZM21.2601 21.2601"/>
<path transform="matrix(1.00002,0,0,-1,1.9680593,58.269)" d="M9.07924 35.43349C9.07924 36.53397 8.18715 37.42604 7.08669 37.42604 5.9862 37.42604 5.09413 36.53397 5.09413 35.43349 5.09413 34.33302 5.9862 33.44093 7.08669 33.44093 8.18715 33.44093 9.07924 34.33302 9.07924 35.43349ZM7.08669 35.43349"/>
<path transform="matrix(1.00002,0,0,-1,1.9680593,58.269)" d="M9.07924 49.6069C9.07924 50.70738 8.18715 51.59946 7.08669 51.59946 5.9862 51.59946 5.09413 50.70738 5.09413 49.6069 5.09413 48.50644 5.9862 47.61435 7.08669 47.61435 8.18715 47.61435 9.07924 48.50644 9.07924 49.6069ZM7.08669 49.6069"/>
<path transform="matrix(1.00002,0,0,-1,1.9680593,58.269)" d="M23.25266 35.43349C23.25266 36.53397 22.36057 37.42604 21.2601 37.42604 20.15962 37.42604 19.26755 36.53397 19.26755 35.43349 19.26755 34.33302 20.15962 33.44093 21.2601 33.44093 22.36057 33.44093 23.25266 34.33302 23.25266 35.43349ZM21.2601 35.43349"/>
<path transform="matrix(1.00002,0,0,-1,1.9680593,58.269)" d="M23.25266 49.6069C23.25266 50.70738 22.36057 51.59946 21.2601 51.59946 20.15962 51.59946 19.26755 50.70738 19.26755 49.6069 19.26755 48.50644 20.15962 47.61435 21.2601 47.61435 22.36057 47.61435 23.25266 48.50644 23.25266 49.6069ZM21.2601 49.6069"/>
</svg>
