<svg xmlns="http://www.w3.org/2000/svg" xmlns:xlink="http://www.w3.org/1999/xlink" xmlns:inkscape="http://www.inkscape.org/namespaces/inkscape" version="1.1" width="140" height="123" viewBox="0 0 140 123">
<defs>
<path id="font_1_82" d="M.5049896 0V.038986207H.46199037C.35899354 .038986207 .35899354 .051986696 .35899354 .08496094V.63482668C.35899354 .66503909 .35499574 .66503909 .32499696 .66503909 .25898744 .60058596 .15699768 .60058596 .12098694 .60058596V.5615845C.14698792 .5615845 .21299744 .5615845 .272995 .58958438V.08496094C.272995 .051986696 .272995 .038986207 .16999817 .038986207H.1269989V0C.18199158 .0039978029 .2599945 .0039978029 .31599427 .0039978029 .37199403 .0039978029 .44999696 .0039978029 .5049896 0Z"/>
<path id="font_1_107" d="M.5379944 .18702698H.5009918C.49899293 .17301941 .4889984 .10699463 .47399903 .09599304 .46699525 .08999634 .38598634 .08999634 .37199403 .08999634H.18499756L.31298829 .19403076C.34700013 .22103882 .43598939 .28504945 .46699525 .31506349 .49699403 .3450775 .5379944 .39608766 .5379944 .46710206 .5379944 .5920563 .4249878 .66503909 .29100038 .66503909 .1619873 .66503909 .07199097 .58006289 .07199097 .48609925 .07199097 .43510438 .114990238 .42910768 .12599182 .42910768 .15098572 .42910768 .17999268 .44709779 .17999268 .48310853 .17999268 .50509646 .16699219 .5371094 .12298584 .5371094 .1459961 .5880585 .20698548 .6260376 .27598573 .6260376 .3809967 .6260376 .43699647 .5480957 .43699647 .46710206 .43699647 .39608766 .3899994 .32305909 .31999208 .25904847L.08299255 .041992189C.07299805 .03199768 .07199097 .0309906 .07199097 0H.5069885L.5379944 .18702698Z"/>
<path id="font_1_106" d="M.5469971 .1730957C.5469971 .24609375 .4909973 .3230896 .37199403 .35308839 .45098878 .37908937 .5149994 .44309999 .5149994 .5251007 .5149994 .60505679 .42099 .66503909 .30099488 .66503909 .18399048 .66503909 .09498596 .61105349 .09498596 .5290985 .09498596 .48609925 .12799073 .47409059 .147995 .47409059 .17399597 .47409059 .20098877 .49209596 .20098877 .5270996 .20098877 .5580902 .1789856 .5760956 .1519928 .5800934 .19898987 .6320343 .2899933 .6320343 .29899598 .6320343 .34999085 .6320343 .4139862 .60806277 .4139862 .5251007 .4139862 .47001649 .3829956 .37402345 .2829895 .36802674 .2649994 .36701966 .23799134 .36502076 .22898865 .36502076 .21899414 .36402894 .20799256 .36302186 .20799256 .34802247 .20799256 .33203126 .21899414 .33203126 .23599243 .33203126H.2939911C.3789978 .33203126 .43598939 .274765 .43598939 .17237854 .43598939 .062408449 .36999513 .014511108 .29699708 .014511108 .269989 .014511108 .16699219 .020492554 .12199402 .07836914 .16099549 .0823822 .1769867 .10836792 .1769867 .13537598 .1769867 .16937256 .15299988 .19238281 .11999512 .19238281 .09298706 .19238281 .06298828 .17536927 .06298828 .13337708 .06298828 .034469606 .17298889-.021484375 .2999878-.021484375 .44799806-.021484375 .5469971 .07337952 .5469971 .17237854V.1730957Z"/>
<path id="font_1_57" d="M.56399539 .1640625V.2030487H.44699098V.6448059C.44699098 .6678009 .44699098 .6748047 .42199708 .6748047 .4039917 .6748047 .4019928 .6717987 .3929901 .6598053L.04598999 .2030487V.1640625H.35699464V.08401489C.35699464 .050994874 .35699464 .038986207 .272995 .038986207H.24398804V0L.4019928 .0039978029 .55999758 0V.038986207H.5309906C.44699098 .038986207 .44699098 .050994874 .44699098 .08401489V.1640625H.56399539M.3639984 .2030487H.08898926L.3639984 .56585696V.2030487Z"/>
<path id="font_1_56" d="M.5379944 .200943C.5379944 .3149414 .44599916 .4189453 .31698609 .4189453 .2519989 .4189453 .20199585 .39793397 .16999817 .37094117V.5549774C.20298767 .54599 .23799134 .5419922 .27198792 .5419922 .2939911 .5419922 .34999085 .5419922 .41299439 .5769806 .42999269 .58699038 .49198915 .6279907 .49198915 .6489868 .49198915 .6620331 .48199464 .66503909 .47799684 .66503909 .47499085 .66503909 .47399903 .66503909 .46299745 .661026 .4269867 .6470337 .37599183 .6330261 .31098939 .6330261 .2619934 .6330261 .20799256 .6420288 .16299439 .6590271 .15299988 .6630249 .14898682 .66503909 .14498902 .66503909 .1309967 .66503909 .1309967 .6540375 .1309967 .638031V.33787538C.1309967 .32086183 .1309967 .30885316 .14898682 .30885316 .1579895 .30885316 .16099549 .31285096 .16799927 .32086183 .19299317 .35289 .23699951 .38693238 .31498719 .38693238 .43798829 .38693238 .43798829 .23677063 .43798829 .20472718 .43798829 .16567993 .43499757 .10961914 .4019928 .068573 .37098695 .030532837 .32499696 .014511108 .28199769 .014511108 .21299744 .014511108 .14399719 .05255127 .11999512 .11061096 .16899109 .11161804 .1749878 .15066529 .1749878 .16267395 .1749878 .18971253 .1539917 .21372986 .12298584 .21372986 .11399841 .21372986 .07199097 .20872498 .07199097 .15867615 .07199097 .0665741 .15899658-.021484375 .2849884-.021484375 .42199708-.021484375 .5379944 .07557678 .5379944 .20072937V.200943Z"/>
<path id="font_1_101" d="M.5469971 .20376587C.5469971 .23777771 .54299929 .30177308 .48199464 .3587799 .44699098 .3907776 .40299989 .42578126 .31799317 .42578126 .24798584 .42578126 .19699097 .3897705 .16299439 .33078004 .1639862 .38076783 .1659851 .46383668 .20098877 .52589419 .24499512 .6018219 .31098939 .63183596 .37098695 .63183596 .3939972 .63183596 .43998719 .6278229 .46398927 .599823 .4269867 .5939026 .42099 .5679016 .42099 .55189517 .42099 .52589419 .43899537 .50390627 .46899415 .50390627 .49899293 .50390627 .5179901 .52290347 .5179901 .55389407 .5179901 .61502078 .47200013 .66503909 .36999513 .66503909 .21499634 .66503909 .06298828 .529953 .06298828 .31677247 .06298828 .07356262 .17599488-.021484375 .30799867-.021484375 .34700013-.021484375 .4149933-.015487671 .47599793 .043533327 .5079956 .07556152 .5469971 .115600589 .5469971 .20367432V.20376587M.44699098 .20367432C.44699098 .13461304 .44499208 .10058594 .41099549 .060546876 .3869934 .030517579 .35499574 .014511108 .30699159 .014511108 .1659851 .014770508 .1659851 .18676758 .1659851 .22576905 .1659851 .31176759 .22299195 .3937683 .31298829 .3937683 .36499024 .3937683 .394989 .37277223 .4189911 .34077455 .44699098 .30177308 .44699098 .2567749 .44699098 .20376587V.20367432Z"/>
</defs>
<path transform="matrix(1.00002,0,0,-1.00003,70.14455,61.47458)" stroke-width=".3985" stroke-linecap="butt" stroke-miterlimit="10" stroke-linejoin="miter" fill="none" stroke="#000000" d="M29.0841 36.82365C29.0841 41.1448 25.58122 44.64769 21.26009 44.64769 16.93893 44.64769 13.43605 41.1448 13.43605 36.82365 13.43605 32.5025 16.93893 28.99962 21.26009 28.99962 25.58122 28.99962 29.0841 32.5025 29.0841 36.82365ZM21.26009 36.82365"/>
<use data-text="1" xlink:href="#font_1_82" transform="matrix(5.97772,0,0,-5.97778,89.57893,26.637536)"/>
<path transform="matrix(1.00002,0,0,-1.00003,70.14455,61.47458)" stroke-width=".3985" stroke-linecap="butt" stroke-miterlimit="10" stroke-linejoin="miter" fill="none" stroke="#000000" d=""/>
<path transform="matrix(1.00002,0,0,-1.00003,70.14455,61.47458)" stroke-width=".3985" stroke-linecap="butt" stroke-miterlimit="10" stroke-linejoin="miter" fill="none" stroke="#000000" d="M22.65627 44.73032C27.1272 70.08913 47.13448 58.53769 27.76012 42.28098"/>
<path transform="matrix(-.76605537,.6427793,.64277288,.76606306,97.90523,19.19233)" stroke-width=".31879" stroke-linecap="round" stroke-linejoin="round" fill="none" stroke="#000000" d="M-1.19551 1.59401C-1.09587 .99626 0 .09961 .29886 0 0-.09961-1.09587-.99626-1.19551-1.59401"/>
<path transform="matrix(1.00002,0,0,-1.00003,70.14455,61.47458)" stroke-width=".3985" stroke-linecap="butt" stroke-miterlimit="10" stroke-linejoin="miter" fill="none" stroke="#000000" d="M50.34424 0C50.34424 4.32114 46.84134 7.82402 42.5202 7.82402 38.19905 7.82402 34.69617 4.32114 34.69617 0 34.69617-4.32114 38.19905-7.82402 42.5202-7.82402 46.84134-7.82402 50.34424-4.32114 50.34424 0ZM42.5202 0"/>
<use data-text="2" xlink:href="#font_1_107" transform="matrix(5.97772,0,0,-5.97778,110.83936,63.46264)"/>
<path transform="matrix(1.00002,0,0,-1.00003,70.14455,61.47458)" stroke-width=".3985" stroke-linecap="butt" stroke-miterlimit="10" stroke-linejoin="miter" fill="none" stroke="#000000" d=""/>
<path transform="matrix(1.00002,0,0,-1.00003,70.14455,61.47458)" stroke-width=".3985" stroke-linecap="butt" stroke-miterlimit="10" stroke-linejoin="miter" fill="none" stroke="#000000" d="M50.06587 2.74387C74.19833 11.52773 74.19833-11.52773 50.49649-2.9006"/>
<path transform="matrix(-.93968889,-.34204028,-.34203685,.9396983,120.642047,64.37527)" stroke-width=".31879" stroke-linecap="round" stroke-linejoin="round" fill="none" stroke="#000000" d="M-1.19551 1.59401C-1.09587 .99626 0 .09961 .29886 0 0-.09961-1.09587-.99626-1.19551-1.59401"/>
<path transform="matrix(1.00002,0,0,-1.00003,70.14455,61.47458)" stroke-width=".3985" stroke-linecap="butt" stroke-miterlimit="10" stroke-linejoin="miter" fill="none" stroke="#000000" d="M29.12863-36.82365C29.12863-32.47792 25.6058-28.95511 21.26009-28.95511 16.91435-28.95511 13.39154-32.47792 13.39154-36.82365 13.39154-41.16939 16.91435-44.6922 21.26009-44.6922 25.6058-44.6922 29.12863-41.16939 29.12863-36.82365ZM21.26009-36.82365"/>
<use data-text="3" xlink:href="#font_1_106" transform="matrix(5.97772,0,0,-5.97778,89.57893,100.22374)"/>
<path transform="matrix(1.00002,0,0,-1.00003,70.14455,61.47458)" stroke-width=".3985" stroke-linecap="butt" stroke-miterlimit="10" stroke-linejoin="miter" fill="none" stroke="#000000" d=""/>
<path transform="matrix(1.00002,0,0,-1.00003,70.14455,61.47458)" stroke-width=".3985" stroke-linecap="butt" stroke-miterlimit="10" stroke-linejoin="miter" fill="none" stroke="#000000" d="M27.44313-42.01506C47.27881-58.65886 27.15993-70.27472 22.74355-45.22546"/>
<path transform="matrix(-.17360348,-.98482957,-.9848197,.17360522,92.88855,106.701419)" stroke-width=".31879" stroke-linecap="round" stroke-linejoin="round" fill="none" stroke="#000000" d="M-1.19551 1.59401C-1.09587 .99626 0 .09961 .29886 0 0-.09961-1.09587-.99626-1.19551-1.59401"/>
<path transform="matrix(1.00002,0,0,-1.00003,70.14455,61.47458)" stroke-width=".3985" stroke-linecap="butt" stroke-miterlimit="10" stroke-linejoin="miter" fill="none" stroke="#000000" d="M-13.39445-36.82365C-13.39445-32.47954-16.91597-28.95802-21.26009-28.95802-25.6042-28.95802-29.1257-32.47954-29.1257-36.82365-29.1257-41.16777-25.6042-44.68929-21.26009-44.68929-16.91597-44.68929-13.39445-41.16777-13.39445-36.82365ZM-21.26009-36.82365"/>
<use data-text="4" xlink:href="#font_1_57" transform="matrix(5.97772,0,0,-5.97778,47.058084,100.31674)"/>
<path transform="matrix(1.00002,0,0,-1.00003,70.14455,61.47458)" stroke-width=".3985" stroke-linecap="butt" stroke-miterlimit="10" stroke-linejoin="miter" fill="none" stroke="#000000" d=""/>
<path transform="matrix(1.00002,0,0,-1.00003,70.14455,61.47458)" stroke-width=".3985" stroke-linecap="butt" stroke-miterlimit="10" stroke-linejoin="miter" fill="none" stroke="#000000" d="M-22.6635-44.77129C-27.15765-70.26189-47.26883-58.65045-27.79208-42.30762"/>
<path transform="matrix(.76605537,-.64280936,-.6428029,-.76606306,42.35189,103.78348)" stroke-width=".31879" stroke-linecap="round" stroke-linejoin="round" fill="none" stroke="#000000" d="M-1.19551 1.59401C-1.09587 .99626 0 .09961 .29886 0 0-.09961-1.09587-.99626-1.19551-1.59401"/>
<path transform="matrix(1.00002,0,0,-1.00003,70.14455,61.47458)" stroke-width=".3985" stroke-linecap="butt" stroke-miterlimit="10" stroke-linejoin="miter" fill="none" stroke="#000000" d="M-34.65166 0C-34.65166 4.34572-38.17447 7.86853-42.5202 7.86853-46.86592 7.86853-50.38875 4.34572-50.38875 0-50.38875-4.34572-46.86592-7.86853-42.5202-7.86853-38.17447-7.86853-34.65166-4.34572-34.65166 0ZM-42.5202 0"/>
<use data-text="5" xlink:href="#font_1_56" transform="matrix(5.97772,0,0,-5.97778,25.797657,63.399637)"/>
<path transform="matrix(1.00002,0,0,-1.00003,70.14455,61.47458)" stroke-width=".3985" stroke-linecap="butt" stroke-miterlimit="10" stroke-linejoin="miter" fill="none" stroke="#000000" d=""/>
<path transform="matrix(1.00002,0,0,-1.00003,70.14455,61.47458)" stroke-width=".3985" stroke-linecap="butt" stroke-miterlimit="10" stroke-linejoin="miter" fill="none" stroke="#000000" d="M-50.10771-2.75908C-74.3754-11.5922-74.3754 11.5922-50.53833 2.9158"/>
<path transform="matrix(.93968889,.34204028,.34203685,-.9396983,19.605206,58.558694)" stroke-width=".31879" stroke-linecap="round" stroke-linejoin="round" fill="none" stroke="#000000" d="M-1.19551 1.59401C-1.09587 .99626 0 .09961 .29886 0 0-.09961-1.09587-.99626-1.19551-1.59401"/>
<path transform="matrix(1.00002,0,0,-1.00003,70.14455,61.47458)" stroke-width=".3985" stroke-linecap="butt" stroke-miterlimit="10" stroke-linejoin="miter" fill="none" stroke="#000000" d="M-13.39154 36.82365C-13.39154 41.16939-16.91435 44.6922-21.26009 44.6922-25.6058 44.6922-29.12863 41.16939-29.12863 36.82365-29.12863 32.47792-25.6058 28.95511-21.26009 28.95511-16.91435 28.95511-13.39154 32.47792-13.39154 36.82365ZM-21.26009 36.82365"/>
<use data-text="6" xlink:href="#font_1_101" transform="matrix(5.97772,0,0,-5.97778,47.058084,26.574532)"/>
<path transform="matrix(1.00002,0,0,-1.00003,70.14455,61.47458)" stroke-width=".3985" stroke-linecap="butt" stroke-miterlimit="10" stroke-linejoin="miter" fill="none" stroke="#000000" d=""/>
<path transform="matrix(1.00002,0,0,-1.00003,70.14455,61.47458)" stroke-width=".3985" stroke-linecap="butt" stroke-miterlimit="10" stroke-linejoin="miter" fill="none" stroke="#000000" d="M-27.44313 42.01506C-47.27881 58.65886-27.15993 70.27472-22.74355 45.22546"/>
<path transform="matrix(.17360348,.98482957,.9848197,-.17360522,47.400545,16.247742)" stroke-width=".31879" stroke-linecap="round" stroke-linejoin="round" fill="none" stroke="#000000" d="M-1.19551 1.59401C-1.09587 .99626 0 .09961 .29886 0 0-.09961-1.09587-.99626-1.19551-1.59401"/>
<path transform="matrix(1.00002,0,0,-1.00003,70.14455,61.47458)" stroke-width=".3985" stroke-linecap="butt" stroke-miterlimit="10" stroke-linejoin="miter" fill="none" stroke="#000000" d=""/>
<path transform="matrix(1.00002,0,0,-1.00003,70.14455,61.47458)" stroke-width=".3985" stroke-linecap="butt" stroke-miterlimit="10" stroke-linejoin="miter" fill="none" stroke="#000000" d="M38.51448 6.94969 25.50453 29.48265"/>
<path transform="matrix(-.50001,-.866036,-.86602738,.500015,95.64959,31.991055)" stroke-width=".31879" stroke-linecap="round" stroke-linejoin="round" fill="none" stroke="#000000" d="M-1.19551 1.59401C-1.09587 .99626 0 .09961 .29886 0 0-.09961-1.09587-.99626-1.19551-1.59401"/>
<path transform="matrix(1.00002,0,0,-1.00003,70.14455,61.47458)" stroke-width=".3985" stroke-linecap="butt" stroke-miterlimit="10" stroke-linejoin="miter" fill="none" stroke="#000000" d=""/>
<path transform="matrix(1.00002,0,0,-1.00003,70.14455,61.47458)" stroke-width=".3985" stroke-linecap="butt" stroke-miterlimit="10" stroke-linejoin="miter" fill="none" stroke="#000000" d="M21.26303-28.75948 21.26277 28.34573"/>
<path transform="matrix(0,-1.00003,-1.00002,-0,91.407749,33.128)" stroke-width=".31879" stroke-linecap="round" stroke-linejoin="round" fill="none" stroke="#000000" d="M-1.19551 1.59401C-1.09587 .99626 0 .09961 .29886 0 0-.09961-1.09587-.99626-1.19551-1.59401"/>
<path transform="matrix(1.00002,0,0,-1.00003,70.14455,61.47458)" stroke-width=".3985" stroke-linecap="butt" stroke-miterlimit="10" stroke-linejoin="miter" fill="none" stroke="#000000" d=""/>
<path transform="matrix(1.00002,0,0,-1.00003,70.14455,61.47458)" stroke-width=".3985" stroke-linecap="butt" stroke-miterlimit="10" stroke-linejoin="miter" fill="none" stroke="#000000" d="M-17.22987-29.84302 17.02155 29.48215"/>
<path transform="matrix(.49999003,-.866036,-.86602738,-.49999503,87.16642,31.991564)" stroke-width=".31879" stroke-linecap="round" stroke-linejoin="round" fill="none" stroke="#000000" d="M-1.19551 1.59401C-1.09587 .99626 0 .09961 .29886 0 0-.09961-1.09587-.99626-1.19551-1.59401"/>
<path transform="matrix(1.00002,0,0,-1.00003,70.14455,61.47458)" stroke-width=".3985" stroke-linecap="butt" stroke-miterlimit="10" stroke-linejoin="miter" fill="none" stroke="#000000" d=""/>
<path transform="matrix(1.00002,0,0,-1.00003,70.14455,61.47458)" stroke-width=".3985" stroke-linecap="butt" stroke-miterlimit="10" stroke-linejoin="miter" fill="none" stroke="#000000" d="M-14.2773-32.79558 35.17952-4.24136"/>
<path transform="matrix(.86602738,-.500015,-.50001,-.866036,105.32475,65.716068)" stroke-width=".31879" stroke-linecap="round" stroke-linejoin="round" fill="none" stroke="#000000" d="M-1.19551 1.59401C-1.09587 .99626 0 .09961 .29886 0 0-.09961-1.09587-.99626-1.19551-1.59401"/>
<path transform="matrix(1.00002,0,0,-1.00003,70.14455,61.47458)" stroke-width=".3985" stroke-linecap="butt" stroke-miterlimit="10" stroke-linejoin="miter" fill="none" stroke="#000000" d=""/>
<path transform="matrix(1.00002,0,0,-1.00003,70.14455,61.47458)" stroke-width=".3985" stroke-linecap="butt" stroke-miterlimit="10" stroke-linejoin="miter" fill="none" stroke="#000000" d="M-35.53784 4.0346 13.91643 32.58725"/>
<path transform="matrix(.86602738,-.49999503,-.49999003,-.866036,84.06123,28.886368)" stroke-width=".31879" stroke-linecap="round" stroke-linejoin="round" fill="none" stroke="#000000" d="M-1.19551 1.59401C-1.09587 .99626 0 .09961 .29886 0 0-.09961-1.09587-.99626-1.19551-1.59401"/>
<path transform="matrix(1.00002,0,0,-1.00003,70.14455,61.47458)" stroke-width=".3985" stroke-linecap="butt" stroke-miterlimit="10" stroke-linejoin="miter" fill="none" stroke="#000000" d=""/>
<path transform="matrix(1.00002,0,0,-1.00003,70.14455,61.47458)" stroke-width=".3985" stroke-linecap="butt" stroke-miterlimit="10" stroke-linejoin="miter" fill="none" stroke="#000000" d="M-13.19402 36.82922 12.78024 36.82886"/>
<path transform="matrix(1.00002,0,0,-1.00003,82.92504,24.644612)" stroke-width=".31879" stroke-linecap="round" stroke-linejoin="round" fill="none" stroke="#000000" d="M-1.19551 1.59401C-1.09587 .99626 0 .09961 .29886 0 0-.09961-1.09587-.99626-1.19551-1.59401"/>
<path transform="matrix(1.00002,0,0,-1.00003,70.14455,61.47458)" stroke-width=".3985" stroke-linecap="butt" stroke-miterlimit="10" stroke-linejoin="miter" fill="none" stroke="#000000" d=""/>
<path transform="matrix(1.00002,0,0,-1.00003,70.14455,61.47458)" stroke-width=".3985" stroke-linecap="butt" stroke-miterlimit="10" stroke-linejoin="miter" fill="none" stroke="#000000" d="M-14.27475 32.79413 35.17952 4.24136"/>
<path transform="matrix(.86602738,.500015,.50001,-.866036,105.32475,57.233095)" stroke-width=".31879" stroke-linecap="round" stroke-linejoin="round" fill="none" stroke="#000000" d="M-1.19551 1.59401C-1.09587 .99626 0 .09961 .29886 0 0-.09961-1.09587-.99626-1.19551-1.59401"/>
<path transform="matrix(1.00002,0,0,-1.00003,70.14455,61.47458)" stroke-width=".3985" stroke-linecap="butt" stroke-miterlimit="10" stroke-linejoin="miter" fill="none" stroke="#000000" d=""/>
<path transform="matrix(1.00002,0,0,-1.00003,70.14455,61.47458)" stroke-width=".3985" stroke-linecap="butt" stroke-miterlimit="10" stroke-linejoin="miter" fill="none" stroke="#000000" d="M-17.22827 29.84047 16.99928-29.4436"/>
<path transform="matrix(.49999003,.866036,.86602738,-.49999503,87.14416,90.91905)" stroke-width=".31879" stroke-linecap="round" stroke-linejoin="round" fill="none" stroke="#000000" d="M-1.19551 1.59401C-1.09587 .99626 0 .09961 .29886 0 0-.09961-1.09587-.99626-1.19551-1.59401"/>
</svg>
