<svg xmlns="http://www.w3.org/2000/svg" xmlns:xlink="http://www.w3.org/1999/xlink" xmlns:inkscape="http://www.inkscape.org/namespaces/inkscape" version="1.1" width="80" height="80" viewBox="0 0 80 80">
<path transform="matrix(1.00002,0,0,-1.00005,3.9680594,75.81084)" stroke-width=".3985" stroke-linecap="butt" stroke-miterlimit="10" stroke-linejoin="miter" fill="none" stroke="#bfbfbf" d="M0 0H74.41037M0 21.2601H74.41037M0 42.5202H74.41037M0 63.7803H74.41037M0 0V74.41037M21.2601 0V74.41037M42.5202 0V74.41037M63.7803 0V74.41037M74.41037 74.41037"/>
<path transform="matrix(1.00002,0,0,-1.00005,3.9680594,75.81084)" stroke-width=".79701" stroke-linecap="butt" stroke-miterlimit="10" stroke-linejoin="miter" fill="none" stroke="#000000" d="M0 0V73.703"/>
<path transform="matrix(0,-1.00005,-1.00002,-0,3.9680594,2.1041489)" stroke-width=".6376" stroke-linecap="round" stroke-linejoin="round" fill="none" stroke="#000000" d="M-1.55415 2.0722C-1.42464 1.29512 0 .1295 .38852 0 0-.1295-1.42464-1.29512-1.55415-2.0722"/>
<path transform="matrix(1.00002,0,0,-1.00005,3.9680594,75.81084)" stroke-width=".79701" stroke-linecap="butt" stroke-miterlimit="10" stroke-linejoin="miter" fill="none" stroke="#000000" d="M0 0H73.703"/>
<path transform="matrix(1.00002,0,0,-1.00005,77.67253,75.81084)" stroke-width=".6376" stroke-linecap="round" stroke-linejoin="round" fill="none" stroke="#000000" d="M-1.55415 2.0722C-1.42464 1.29512 0 .1295 .38852 0 0-.1295-1.42464-1.29512-1.55415-2.0722"/>
<path transform="matrix(1.00002,0,0,-1.00005,3.9680594,75.81084)" d="M23.50172 42.5202C23.50172 43.75822 22.49811 44.76183 21.2601 44.76183 20.02208 44.76183 19.01848 43.75822 19.01848 42.5202 19.01848 41.28218 20.02208 40.27858 21.2601 40.27858 22.49811 40.27858 23.50172 41.28218 23.50172 42.5202ZM44.76183 21.2601C44.76183 22.49811 43.75822 23.50172 42.5202 23.50172 41.28218 23.50172 40.27858 22.49811 40.27858 21.2601 40.27858 20.02208 41.28218 19.01848 42.5202 19.01848 43.75822 19.01848 44.76183 20.02208 44.76183 21.2601ZM66.02193 63.7803C66.02193 65.01833 65.01833 66.02193 63.7803 66.02193 62.54228 66.02193 61.53868 65.01833 61.53868 63.7803 61.53868 62.54228 62.54228 61.53868 63.7803 61.53868 65.01833 61.53868 66.02193 62.54228 66.02193 63.7803ZM63.7803 63.7803"/>
</svg>
