<svg xmlns="http://www.w3.org/2000/svg" xmlns:xlink="http://www.w3.org/1999/xlink" xmlns:inkscape="http://www.inkscape.org/namespaces/inkscape" version="1.1" width="120" height="47" viewBox="0 0 120 47">
<path transform="matrix(1.00005,0,0,-1.00005,59.901144,43.350568)" stroke-width=".3985" stroke-linecap="butt" stroke-miterlimit="10" stroke-linejoin="miter" fill="none" stroke="#000000" d="M-56.69362 0H0 56.69362L-28.3468 39.68535H28.3468L0 0-28.3468 39.68535M28.3468 39.68535-56.69362 0"/>
<path transform="matrix(1.00005,0,0,-1.00005,59.901144,43.350568)" d="M-54.70107 0C-54.70107 1.10046-55.59314 1.99255-56.69362 1.99255-57.79408 1.99255-58.68617 1.10046-58.68617 0-58.68617-1.10046-57.79408-1.99255-56.69362-1.99255-55.59314-1.99255-54.70107-1.10046-54.70107 0ZM-56.69362 0"/>
<path transform="matrix(1.00005,0,0,-1.00005,59.901144,43.350568)" d="M1.99255 0C1.99255 1.10046 1.10046 1.99255 0 1.99255-1.10046 1.99255-1.99255 1.10046-1.99255 0-1.99255-1.10046-1.10046-1.99255 0-1.99255 1.10046-1.99255 1.99255-1.10046 1.99255 0ZM0 0"/>
<path transform="matrix(1.00005,0,0,-1.00005,59.901144,43.350568)" d="M58.68617 0C58.68617 1.10046 57.79408 1.99255 56.69362 1.99255 55.59314 1.99255 54.70107 1.10046 54.70107 0 54.70107-1.10046 55.59314-1.99255 56.69362-1.99255 57.79408-1.99255 58.68617-1.10046 58.68617 0ZM56.69362 0"/>
<path transform="matrix(1.00005,0,0,-1.00005,59.901144,43.350568)" d="M-26.35425 39.68535C-26.35425 40.78583-27.24634 41.6779-28.3468 41.6779-29.44728 41.6779-30.33936 40.78583-30.33936 39.68535-30.33936 38.58488-29.44728 37.6928-28.3468 37.6928-27.24634 37.6928-26.35425 38.58488-26.35425 39.68535ZM-28.3468 39.68535"/>
<path transform="matrix(1.00005,0,0,-1.00005,59.901144,43.350568)" d="M30.33936 39.68535C30.33936 40.78583 29.44728 41.6779 28.3468 41.6779 27.24634 41.6779 26.35425 40.78583 26.35425 39.68535 26.35425 38.58488 27.24634 37.6928 28.3468 37.6928 29.44728 37.6928 30.33936 38.58488 30.33936 39.68535ZM28.3468 39.68535"/>
</svg>
