<svg xmlns="http://www.w3.org/2000/svg" xmlns:xlink="http://www.w3.org/1999/xlink" xmlns:inkscape="http://www.inkscape.org/namespaces/inkscape" version="1.1" width="63" height="35" viewBox="0 0 63 35">
<path transform="matrix(1.0001,0,0,-1.00008,31.555455,32.0116)" stroke-width=".3985" stroke-linecap="butt" stroke-miterlimit="10" stroke-linejoin="miter" fill="none" stroke="#000000" d="M-28.3468 0H0 28.3468V28.3468H0-28.3468V0L0 14.17339V0M0 14.17339 28.3468 0M0 14.17339V28.3468"/>
<path transform="matrix(1.0001,0,0,-1.00008,31.555455,32.0116)" d="M-28.3468 0"/>
<path transform="matrix(1.0001,0,0,-1.00008,31.555455,32.0116)" d="M-26.35425 0C-26.35425 1.10046-27.24634 1.99255-28.3468 1.99255-29.44728 1.99255-30.33936 1.10046-30.33936 0-30.33936-1.10046-29.44728-1.99255-28.3468-1.99255-27.24634-1.99255-26.35425-1.10046-26.35425 0ZM-28.3468 0"/>
<path transform="matrix(1.0001,0,0,-1.00008,31.555455,32.0116)" d="M0 0"/>
<path transform="matrix(1.0001,0,0,-1.00008,31.555455,32.0116)" d="M1.99255 0C1.99255 1.10046 1.10046 1.99255 0 1.99255-1.10046 1.99255-1.99255 1.10046-1.99255 0-1.99255-1.10046-1.10046-1.99255 0-1.99255 1.10046-1.99255 1.99255-1.10046 1.99255 0ZM0 0"/>
<path transform="matrix(1.0001,0,0,-1.00008,31.555455,32.0116)" d="M28.3468 0"/>
<path transform="matrix(1.0001,0,0,-1.00008,31.555455,32.0116)" d="M30.33936 0C30.33936 1.10046 29.44728 1.99255 28.3468 1.99255 27.24634 1.99255 26.35425 1.10046 26.35425 0 26.35425-1.10046 27.24634-1.99255 28.3468-1.99255 29.44728-1.99255 30.33936-1.10046 30.33936 0ZM28.3468 0"/>
<path transform="matrix(1.0001,0,0,-1.00008,31.555455,32.0116)" d="M28.3468 28.3468"/>
<path transform="matrix(1.0001,0,0,-1.00008,31.555455,32.0116)" d="M30.33936 28.3468C30.33936 29.44728 29.44728 30.33936 28.3468 30.33936 27.24634 30.33936 26.35425 29.44728 26.35425 28.3468 26.35425 27.24634 27.24634 26.35425 28.3468 26.35425 29.44728 26.35425 30.33936 27.24634 30.33936 28.3468ZM28.3468 28.3468"/>
<path transform="matrix(1.0001,0,0,-1.00008,31.555455,32.0116)" d="M0 28.3468"/>
<path transform="matrix(1.0001,0,0,-1.00008,31.555455,32.0116)" d="M1.99255 28.3468C1.99255 29.44728 1.10046 30.33936 0 30.33936-1.10046 30.33936-1.99255 29.44728-1.99255 28.3468-1.99255 27.24634-1.10046 26.35425 0 26.35425 1.10046 26.35425 1.99255 27.24634 1.99255 28.3468ZM0 28.3468"/>
<path transform="matrix(1.0001,0,0,-1.00008,31.555455,32.0116)" d="M-28.3468 28.3468"/>
<path transform="matrix(1.0001,0,0,-1.00008,31.555455,32.0116)" d="M-26.35425 28.3468C-26.35425 29.44728-27.24634 30.33936-28.3468 30.33936-29.44728 30.33936-30.33936 29.44728-30.33936 28.3468-30.33936 27.24634-29.44728 26.35425-28.3468 26.35425-27.24634 26.35425-26.35425 27.24634-26.35425 28.3468ZM-28.3468 28.3468"/>
<path transform="matrix(1.0001,0,0,-1.00008,31.555455,32.0116)" d="M0 14.17339"/>
<path transform="matrix(1.0001,0,0,-1.00008,31.555455,32.0116)" d="M1.99255 14.17339C1.99255 15.27386 1.10046 16.16594 0 16.16594-1.10046 16.16594-1.99255 15.27386-1.99255 14.17339-1.99255 13.07292-1.10046 12.18083 0 12.18083 1.10046 12.18083 1.99255 13.07292 1.99255 14.17339ZM0 14.17339"/>
</svg>
