<svg xmlns="http://www.w3.org/2000/svg" xmlns:xlink="http://www.w3.org/1999/xlink" xmlns:inkscape="http://www.inkscape.org/namespaces/inkscape" version="1.1" width="63" height="47" viewBox="0 0 63 47">
<defs>
<path id="font_1_4" d="M.5239868 .6603241C.5279999 .67433169 .5279999 .67633059 .5279999 .68032839 .5279999 .68933108 .5219879 .69433596 .5130005 .69433596 .49899293 .69433596 .41099549 .6863251 .3909912 .6843262 .3809967 .68333438 .36999513 .6823273 .36999513 .665329 .36999513 .6523285 .3809967 .6523285 .39698792 .6523285 .44400025 .6523285 .44400025 .6453247 .44400025 .6363373 .44400025 .6293335 .43499757 .5943451 .42999269 .573349L.41099549 .4963684C.40098573 .45837403 .3909912 .41937257 .38198854 .3803711 .36299134 .41638185 .33198548 .4423828 .2869873 .4423828 .17098999 .4423828 .041992189 .30433656 .041992189 .1512909 .041992189 .041259767 .11199951-.0107421879 .1789856-.0107421879 .24398804-.0107421879 .29699708 .043258668 .31298829 .06227112 .32398988 .007247925 .37399293-.0107421879 .4059906-.0107421879 .43499757-.0107421879 .45999146 .002243042 .48199464 .044265748 .5 .07727051 .5139923 .13928223 .5139923 .14329529 .5139923 .14828491 .5109863 .1552887 .5009918 .1552887 .4889984 .1552887 .48799134 .15029907 .48399354 .13128662 .46199037 .044265748 .43998719 .014251709 .40899659 .014251709 .38398744 .014251709 .37799073 .038253786 .37799073 .060272218 .37799073 .073272708 .3829956 .10127258 .38398744 .104278568L.5239868 .6603241M.31698609 .121276859C.31298829 .105285648 .31199647 .103271488 .29599 .08326721 .2599945 .040252687 .21899414 .014251709 .18199158 .014251709 .1329956 .014251709 .115997318 .06526184 .115997318 .10827637 .115997318 .15730286 .14498902 .27233888 .16899109 .32034303 .20098877 .3803711 .24699402 .41737367 .2869873 .41737367 .35398866 .41737367 .36898805 .3363495 .36898805 .3313446 .36898805 .32635499 .36698915 .32034303 .3659973 .3163452L.31698609 .121276859Z"/>
<path id="font_1_1" d="M.38198854 .3803711C.36299134 .41638185 .33198548 .4423828 .2869873 .4423828 .17098999 .4423828 .041992189 .30433656 .041992189 .1512909 .041992189 .041259767 .11199951-.0107421879 .1789856-.0107421879 .24398804-.0107421879 .29699708 .043258668 .31298829 .06227112 .32398988 .007247925 .37399293-.0107421879 .4059906-.0107421879 .43499757-.0107421879 .45999146 .002243042 .48199464 .044265748 .5 .07727051 .5139923 .13928223 .5139923 .14329529 .5139923 .14828491 .5109863 .1552887 .5009918 .1552887 .4889984 .1552887 .48799134 .15029907 .48399354 .13128662 .46199037 .044265748 .43998719 .014251709 .40899659 .014251709 .38398744 .014251709 .37799073 .038253786 .37799073 .060272218 .37799073 .07926941 .3829956 .09927368 .3919983 .1342926L.4169922 .23731995C.42399598 .2623291 .44198609 .33735658 .44599916 .35235597 .44999696 .36636354 .45599366 .3903656 .45599366 .39337159 .45599366 .40937806 .44299317 .42237855 .4249878 .42237855 .4119873 .42237855 .3869934 .41438294 .38198854 .3803711M.31698609 .122283939C.31199647 .103271488 .31199647 .10227966 .29599 .08326721 .2599945 .040252687 .21899414 .014251709 .18199158 .014251709 .1329956 .014251709 .115997318 .06526184 .115997318 .10827637 .115997318 .15730286 .14498902 .27233888 .16899109 .32034303 .20098877 .3803711 .24699402 .41737367 .2869873 .41737367 .35398866 .41737367 .36898805 .33735658 .36898805 .33035279 .36898805 .3253479 .36698915 .3193512 .3659973 .31533814L.31698609 .122283939Z"/>
<path id="font_1_3" d="M.4019928 .38200379C.3639984 .38101197 .34399415 .352005 .34399415 .3270111 .34399415 .29800416 .36999513 .29101563 .38198854 .29101563 .4019928 .29101563 .43798829 .30801393 .43798829 .355011 .43798829 .40827943 .3849945 .4423828 .31599427 .4423828 .17999268 .4423828 .042999269 .30400086 .042999269 .16012573 .042999269 .06021118 .10998535-.0107421879 .21099854-.0107421879 .36099244-.0107421879 .44499208 .093185428 .44499208 .106170658 .44499208 .11216736 .43798829 .120162967 .43099977 .120162967 .42599488 .120162967 .4249878 .119155887 .41600038 .108169559 .35598756 .034225465 .2649994 .014251709 .21299744 .014251709 .15699768 .014251709 .11999512 .051223756 .11999512 .12315369 .11999512 .16612244 .13899231 .2650299 .1789856 .32901 .20199585 .3650055 .2539978 .41737367 .31698609 .41737367 .33599855 .41737367 .37799073 .41333009 .4019928 .38200379Z"/>
<path id="font_1_2" d="M.23899842 .6603241C.24299622 .67433169 .24299622 .67633059 .24299622 .68032839 .24299622 .68933108 .23699951 .69433596 .22799683 .69433596 .21398926 .69433596 .12599182 .6863251 .10598755 .6843262 .09599304 .68333438 .084991458 .6823273 .084991458 .665329 .084991458 .6523285 .09599304 .6523285 .11199951 .6523285 .15899658 .6523285 .15899658 .6453247 .15899658 .6363373 .15899658 .6303406 .15899658 .6283264 .1519928 .6013336L.09899902 .3903656C.084991458 .3343506 .07199097 .28334046 .06098938 .23631287 .053985597 .21131897 .04699707 .18130493 .04699707 .14929199 .04699707 .06326294 .09498596-.0107421879 .18099976-.0107421879 .2979889-.0107421879 .42599488 .13027954 .42599488 .28033448 .42599488 .38237 .36299134 .4423828 .28799439 .4423828 .23699951 .4423828 .19299317 .40737916 .16999817 .38536073L.23899842 .6603241M.1559906 .32835389C.18399048 .36836244 .23498535 .41737367 .28599549 .41737367 .33299256 .41737367 .35198976 .37036134 .35198976 .323349 .35198976 .27833558 .32398988 .15429688 .29299928 .10127258 .2559967 .037261964 .21199036 .014251709 .18099976 .014251709 .1309967 .014251709 .11099243 .06427002 .11099243 .11528015 .11099243 .15029907 .117996219 .17730713 .14099121 .2683258L.1559906 .32835389Z"/>
<path id="font_1_5" d="M.13699341 .22949219C.19799805 .22949219 .2630005 .22949219 .31599427 .24247742 .4099884 .2654724 .4269867 .32144166 .4269867 .35542298 .4269867 .41238404 .37399293 .4423828 .31498719 .4423828 .19898987 .4423828 .04699707 .3444214 .04699707 .17242432 .04699707 .077316287 .102996829-.0107421879 .21099854-.0107421879 .36099244-.0107421879 .44499208 .09333801 .44499208 .10635376 .44499208 .112350467 .43798829 .12036133 .43099977 .12036133 .42599488 .12036133 .4249878 .11936951 .41600038 .10835266 .35598756 .03427124 .2649994 .014251709 .21299744 .014251709 .14199829 .014251709 .12298584 .081329349 .12298584 .13137818 .12298584 .13337708 .12298584 .16841126 .13699341 .22949219M.14399719 .25448609C.18798828 .41238404 .29899598 .41737367 .31498719 .41737367 .34899903 .41737367 .3899994 .40138246 .3899994 .35542298 .3899994 .25448609 .23899842 .25448609 .14399719 .25448609Z"/>
</defs>
<path transform="matrix(1,0,0,-1,31.736,24.826)" stroke-width=".3985" stroke-linecap="butt" stroke-miterlimit="10" stroke-linejoin="miter" fill="none" stroke="#000000" d="M-12.496-17.19986 0 21.2601 12.496-17.19986 20.2194 6.5698H-20.2194L-12.496-17.19986H12.496"/>
<path transform="matrix(1,0,0,-1,31.736,24.826)" d="M-10.50345-17.19986C-10.50345-16.0994-11.39554-15.2073-12.496-15.2073-13.59648-15.2073-14.48856-16.0994-14.48856-17.19986-14.48856-18.30034-13.59648-19.19241-12.496-19.19241-11.39554-19.19241-10.50345-18.30034-10.50345-17.19986ZM-12.496-17.19986"/>
<use data-text="d" xlink:href="#font_1_4" transform="matrix(8.9664,0,0,-8.9664,8.438,45.139)"/>
<path transform="matrix(1,0,0,-1,31.736,24.826)" d="M1.99255 21.2601C1.99255 22.36057 1.10046 23.25266 0 23.25266-1.10046 23.25266-1.99255 22.36057-1.99255 21.2601-1.99255 20.15962-1.10046 19.26755 0 19.26755 1.10046 19.26755 1.99255 20.15962 1.99255 21.2601ZM0 21.2601"/>
<use data-text="a" xlink:href="#font_1_1" transform="matrix(8.9664,0,0,-8.9664,37.763,5.4960005)"/>
<path transform="matrix(1,0,0,-1,31.736,24.826)" d="M14.48856-17.19986C14.48856-16.0994 13.59648-15.2073 12.496-15.2073 11.39554-15.2073 10.50345-16.0994 10.50345-17.19986 10.50345-18.30034 11.39554-19.19241 12.496-19.19241 13.59648-19.19241 14.48856-18.30034 14.48856-17.19986ZM12.496-17.19986"/>
<use data-text="c" xlink:href="#font_1_3" transform="matrix(8.9664,0,0,-8.9664,50.259004,43.955999)"/>
<path transform="matrix(1,0,0,-1,31.736,24.826)" d="M22.21196 6.5698C22.21196 7.67027 21.31987 8.56235 20.2194 8.56235 19.11893 8.56235 18.22685 7.67027 18.22685 6.5698 18.22685 5.46933 19.11893 4.57724 20.2194 4.57724 21.31987 4.57724 22.21196 5.46933 22.21196 6.5698ZM20.2194 6.5698"/>
<use data-text="b" xlink:href="#font_1_2" transform="matrix(8.9664,0,0,-8.9664,57.982004,21.369999)"/>
<path transform="matrix(1,0,0,-1,31.736,24.826)" d="M-18.22685 6.5698C-18.22685 7.67027-19.11893 8.56235-20.2194 8.56235-21.31987 8.56235-22.21196 7.67027-22.21196 6.5698-22.21196 5.46933-21.31987 4.57724-20.2194 4.57724-19.11893 4.57724-18.22685 5.46933-18.22685 6.5698ZM-20.2194 6.5698"/>
<use data-text="e" xlink:href="#font_1_5" transform="matrix(8.9664,0,0,-8.9664,1.2050018,20.186)"/>
</svg>
