<svg xmlns="http://www.w3.org/2000/svg" xmlns:xlink="http://www.w3.org/1999/xlink" xmlns:inkscape="http://www.inkscape.org/namespaces/inkscape" version="1.1" width="59" height="59" viewBox="0 0 59 59">
<path transform="matrix(1.00002,0,0,-1.00002,29.40525,29.820416)" stroke-width=".3985" stroke-linecap="butt" stroke-miterlimit="10" stroke-linejoin="miter" fill="none" stroke="#000000" d="M0 0"/>
<path transform="matrix(1.00002,0,0,-1.00002,29.40525,29.820416)" d="M1.99255 0C1.99255 1.10046 1.10046 1.99255 0 1.99255-1.10046 1.99255-1.99255 1.10046-1.99255 0-1.99255-1.10046-1.10046-1.99255 0-1.99255 1.10046-1.99255 1.99255-1.10046 1.99255 0ZM0 0"/>
<path transform="matrix(1.00002,0,0,-1.00002,29.40525,29.820416)" stroke-width=".3985" stroke-linecap="butt" stroke-miterlimit="10" stroke-linejoin="miter" fill="none" stroke="#000000" d="M0 0 26.188 10.84717"/>
<path transform="matrix(1.00002,0,0,-1.00002,29.40525,29.820416)" d="M28.18056 10.84717C28.18056 11.94763 27.28847 12.83972 26.188 12.83972 25.08752 12.83972 24.19545 11.94763 24.19545 10.84717 24.19545 9.74669 25.08752 8.85461 26.188 8.85461 27.28847 8.85461 28.18056 9.74669 28.18056 10.84717ZM26.188 10.84717"/>
<path transform="matrix(1.00002,0,0,-1.00002,29.40525,29.820416)" stroke-width=".3985" stroke-linecap="butt" stroke-miterlimit="10" stroke-linejoin="miter" fill="none" stroke="#000000" d="M0 0 10.84717 26.188"/>
<path transform="matrix(1.00002,0,0,-1.00002,29.40525,29.820416)" d="M12.83972 26.188C12.83972 27.28847 11.94763 28.18056 10.84717 28.18056 9.74669 28.18056 8.85461 27.28847 8.85461 26.188 8.85461 25.08752 9.74669 24.19545 10.84717 24.19545 11.94763 24.19545 12.83972 25.08752 12.83972 26.188ZM10.84717 26.188"/>
<path transform="matrix(1.00002,0,0,-1.00002,29.40525,29.820416)" stroke-width=".3985" stroke-linecap="butt" stroke-miterlimit="10" stroke-linejoin="miter" fill="none" stroke="#000000" d="M0 0-10.84717 26.188"/>
<path transform="matrix(1.00002,0,0,-1.00002,29.40525,29.820416)" d="M-8.85461 26.188C-8.85461 27.28847-9.74669 28.18056-10.84717 28.18056-11.94763 28.18056-12.83972 27.28847-12.83972 26.188-12.83972 25.08752-11.94763 24.19545-10.84717 24.19545-9.74669 24.19545-8.85461 25.08752-8.85461 26.188ZM-10.84717 26.188"/>
<path transform="matrix(1.00002,0,0,-1.00002,29.40525,29.820416)" stroke-width=".3985" stroke-linecap="butt" stroke-miterlimit="10" stroke-linejoin="miter" fill="none" stroke="#000000" d="M0 0-26.188 10.84717"/>
<path transform="matrix(1.00002,0,0,-1.00002,29.40525,29.820416)" d="M-24.19545 10.84717C-24.19545 11.94763-25.08752 12.83972-26.188 12.83972-27.28847 12.83972-28.18056 11.94763-28.18056 10.84717-28.18056 9.74669-27.28847 8.85461-26.188 8.85461-25.08752 8.85461-24.19545 9.74669-24.19545 10.84717ZM-26.188 10.84717"/>
<path transform="matrix(1.00002,0,0,-1.00002,29.40525,29.820416)" stroke-width=".3985" stroke-linecap="butt" stroke-miterlimit="10" stroke-linejoin="miter" fill="none" stroke="#000000" d="M0 0-26.188-10.84717"/>
<path transform="matrix(1.00002,0,0,-1.00002,29.40525,29.820416)" d="M-24.19545-10.84717C-24.19545-9.74669-25.08752-8.85461-26.188-8.85461-27.28847-8.85461-28.18056-9.74669-28.18056-10.84717-28.18056-11.94763-27.28847-12.83972-26.188-12.83972-25.08752-12.83972-24.19545-11.94763-24.19545-10.84717ZM-26.188-10.84717"/>
<path transform="matrix(1.00002,0,0,-1.00002,29.40525,29.820416)" stroke-width=".3985" stroke-linecap="butt" stroke-miterlimit="10" stroke-linejoin="miter" fill="none" stroke="#000000" d="M0 0-10.84717-26.188"/>
<path transform="matrix(1.00002,0,0,-1.00002,29.40525,29.820416)" d="M-8.85461-26.188C-8.85461-25.08752-9.74669-24.19545-10.84717-24.19545-11.94763-24.19545-12.83972-25.08752-12.83972-26.188-12.83972-27.28847-11.94763-28.18056-10.84717-28.18056-9.74669-28.18056-8.85461-27.28847-8.85461-26.188ZM-10.84717-26.188"/>
<path transform="matrix(1.00002,0,0,-1.00002,29.40525,29.820416)" stroke-width=".3985" stroke-linecap="butt" stroke-miterlimit="10" stroke-linejoin="miter" fill="none" stroke="#000000" d="M0 0 10.84717-26.188"/>
<path transform="matrix(1.00002,0,0,-1.00002,29.40525,29.820416)" d="M12.83972-26.188C12.83972-25.08752 11.94763-24.19545 10.84717-24.19545 9.74669-24.19545 8.85461-25.08752 8.85461-26.188 8.85461-27.28847 9.74669-28.18056 10.84717-28.18056 11.94763-28.18056 12.83972-27.28847 12.83972-26.188ZM10.84717-26.188"/>
<path transform="matrix(1.00002,0,0,-1.00002,29.40525,29.820416)" stroke-width=".3985" stroke-linecap="butt" stroke-miterlimit="10" stroke-linejoin="miter" fill="none" stroke="#000000" d="M0 0 26.188-10.84717"/>
<path transform="matrix(1.00002,0,0,-1.00002,29.40525,29.820416)" d="M28.18056-10.84717C28.18056-9.74669 27.28847-8.85461 26.188-8.85461 25.08752-8.85461 24.19545-9.74669 24.19545-10.84717 24.19545-11.94763 25.08752-12.83972 26.188-12.83972 27.28847-12.83972 28.18056-11.94763 28.18056-10.84717ZM26.188-10.84717"/>
</svg>
