<svg xmlns="http://www.w3.org/2000/svg" xmlns:xlink="http://www.w3.org/1999/xlink" xmlns:inkscape="http://www.inkscape.org/namespaces/inkscape" version="1.1" width="106" height="80" viewBox="0 0 106 80">
<path transform="matrix(1.00003,0,0,-1,32.98249,43.318)" stroke-width=".3985" stroke-linecap="butt" stroke-miterlimit="10" stroke-linejoin="miter" fill="none" stroke="#000000" d="M-19.84267 19.84267-29.764 29.764M-19.84267 19.84267-17.85828 39.68535M-19.84267 19.84267-3.96846 9.92133M-19.84267 19.84267-9.92133 3.96846"/>
<path transform="matrix(1.00003,0,0,-1,32.98249,43.318)" d="M-17.85011 19.84267C-17.85011 20.94313-18.74219 21.83522-19.84267 21.83522-20.94313 21.83522-21.83522 20.94313-21.83522 19.84267-21.83522 18.74219-20.94313 17.85011-19.84267 17.85011-18.74219 17.85011-17.85011 18.74219-17.85011 19.84267ZM-19.84267 19.84267"/>
<path transform="matrix(1.00003,0,0,-1,32.98249,43.318)" d="M-27.77145 29.764C-27.77145 30.86447-28.66353 31.75656-29.764 31.75656-30.86447 31.75656-31.75656 30.86447-31.75656 29.764-31.75656 28.66353-30.86447 27.77145-29.764 27.77145-28.66353 27.77145-27.77145 28.66353-27.77145 29.764ZM-29.764 29.764"/>
<path transform="matrix(1.00003,0,0,-1,32.98249,43.318)" d="M-15.86572 39.68535C-15.86572 40.78583-16.7578 41.6779-17.85828 41.6779-18.95874 41.6779-19.85083 40.78583-19.85083 39.68535-19.85083 38.58488-18.95874 37.6928-17.85828 37.6928-16.7578 37.6928-15.86572 38.58488-15.86572 39.68535ZM-17.85828 39.68535"/>
<path transform="matrix(1.00003,0,0,-1,32.98249,43.318)" d="M-1.9759 9.92133C-1.9759 11.02179-2.86798 11.91388-3.96846 11.91388-5.06892 11.91388-5.96101 11.02179-5.96101 9.92133-5.96101 8.82085-5.06892 7.92877-3.96846 7.92877-2.86798 7.92877-1.9759 8.82085-1.9759 9.92133ZM-3.96846 9.92133"/>
<path transform="matrix(1.00003,0,0,-1,32.98249,43.318)" d="M-7.92877 3.96846C-7.92877 5.06892-8.82085 5.96101-9.92133 5.96101-11.02179 5.96101-11.91388 5.06892-11.91388 3.96846-11.91388 2.86798-11.02179 1.9759-9.92133 1.9759-8.82085 1.9759-7.92877 2.86798-7.92877 3.96846ZM-9.92133 3.96846"/>
<path transform="matrix(1.00003,0,0,-1,32.98249,43.318)" stroke-width=".3985" stroke-linecap="butt" stroke-miterlimit="10" stroke-linejoin="miter" fill="none" stroke="#000000" d="M-19.84267 19.84267H19.84267L9.92133 25.79553M19.84267 19.84267V39.68535M19.84267 19.84267 29.764 25.79553M19.84267 19.84267H29.764"/>
<path transform="matrix(1.00003,0,0,-1,32.98249,43.318)" d="M21.83522 19.84267C21.83522 20.94313 20.94313 21.83522 19.84267 21.83522 18.74219 21.83522 17.85011 20.94313 17.85011 19.84267 17.85011 18.74219 18.74219 17.85011 19.84267 17.85011 20.94313 17.85011 21.83522 18.74219 21.83522 19.84267ZM19.84267 19.84267"/>
<path transform="matrix(1.00003,0,0,-1,32.98249,43.318)" d="M11.91388 25.79553C11.91388 26.896 11.02179 27.78809 9.92133 27.78809 8.82085 27.78809 7.92877 26.896 7.92877 25.79553 7.92877 24.69505 8.82085 23.80298 9.92133 23.80298 11.02179 23.80298 11.91388 24.69505 11.91388 25.79553ZM9.92133 25.79553"/>
<path transform="matrix(1.00003,0,0,-1,32.98249,43.318)" d="M21.83522 39.68535C21.83522 40.78583 20.94313 41.6779 19.84267 41.6779 18.74219 41.6779 17.85011 40.78583 17.85011 39.68535 17.85011 38.58488 18.74219 37.6928 19.84267 37.6928 20.94313 37.6928 21.83522 38.58488 21.83522 39.68535ZM19.84267 39.68535"/>
<path transform="matrix(1.00003,0,0,-1,32.98249,43.318)" d="M31.75656 25.79553C31.75656 26.896 30.86447 27.78809 29.764 27.78809 28.66353 27.78809 27.77145 26.896 27.77145 25.79553 27.77145 24.69505 28.66353 23.80298 29.764 23.80298 30.86447 23.80298 31.75656 24.69505 31.75656 25.79553ZM29.764 25.79553"/>
<path transform="matrix(1.00003,0,0,-1,32.98249,43.318)" d="M31.75656 19.84267C31.75656 20.94313 30.86447 21.83522 29.764 21.83522 28.66353 21.83522 27.77145 20.94313 27.77145 19.84267 27.77145 18.74219 28.66353 17.85011 29.764 17.85011 30.86447 17.85011 31.75656 18.74219 31.75656 19.84267ZM29.764 19.84267"/>
<path transform="matrix(1.00003,0,0,-1,32.98249,43.318)" stroke-width=".3985" stroke-linecap="butt" stroke-miterlimit="10" stroke-linejoin="miter" fill="none" stroke="#000000" d="M19.84267 19.84267 0 0-3.96846-19.84267M0 0 3.96846-19.84267M0 0H39.68535V19.84267L49.60667 29.764M39.68535 19.84267 47.62228 21.82706"/>
<path transform="matrix(1.00003,0,0,-1,32.98249,43.318)" d="M1.99255 0C1.99255 1.10046 1.10046 1.99255 0 1.99255-1.10046 1.99255-1.99255 1.10046-1.99255 0-1.99255-1.10046-1.10046-1.99255 0-1.99255 1.10046-1.99255 1.99255-1.10046 1.99255 0ZM0 0"/>
<path transform="matrix(1.00003,0,0,-1,32.98249,43.318)" d="M-1.9759-19.84267C-1.9759-18.74219-2.86798-17.85011-3.96846-17.85011-5.06892-17.85011-5.96101-18.74219-5.96101-19.84267-5.96101-20.94313-5.06892-21.83522-3.96846-21.83522-2.86798-21.83522-1.9759-20.94313-1.9759-19.84267ZM-3.96846-19.84267"/>
<path transform="matrix(1.00003,0,0,-1,32.98249,43.318)" d="M5.96101-19.84267C5.96101-18.74219 5.06892-17.85011 3.96846-17.85011 2.86798-17.85011 1.9759-18.74219 1.9759-19.84267 1.9759-20.94313 2.86798-21.83522 3.96846-21.83522 5.06892-21.83522 5.96101-20.94313 5.96101-19.84267ZM3.96846-19.84267"/>
<path transform="matrix(1.00003,0,0,-1,32.98249,43.318)" d="M41.6779 0C41.6779 1.10046 40.78583 1.99255 39.68535 1.99255 38.58488 1.99255 37.6928 1.10046 37.6928 0 37.6928-1.10046 38.58488-1.99255 39.68535-1.99255 40.78583-1.99255 41.6779-1.10046 41.6779 0ZM39.68535 0"/>
<path transform="matrix(1.00003,0,0,-1,32.98249,43.318)" d="M41.6779 19.84267C41.6779 20.94313 40.78583 21.83522 39.68535 21.83522 38.58488 21.83522 37.6928 20.94313 37.6928 19.84267 37.6928 18.74219 38.58488 17.85011 39.68535 17.85011 40.78583 17.85011 41.6779 18.74219 41.6779 19.84267ZM39.68535 19.84267"/>
<path transform="matrix(1.00003,0,0,-1,32.98249,43.318)" d="M51.59923 29.764C51.59923 30.86447 50.70715 31.75656 49.60667 31.75656 48.50621 31.75656 47.61412 30.86447 47.61412 29.764 47.61412 28.66353 48.50621 27.77145 49.60667 27.77145 50.70715 27.77145 51.59923 28.66353 51.59923 29.764ZM49.60667 29.764"/>
<path transform="matrix(1.00003,0,0,-1,32.98249,43.318)" d="M49.61484 21.82706C49.61484 22.92752 48.72276 23.81961 47.62228 23.81961 46.52182 23.81961 45.62973 22.92752 45.62973 21.82706 45.62973 20.72658 46.52182 19.8345 47.62228 19.8345 48.72276 19.8345 49.61484 20.72658 49.61484 21.82706ZM47.62228 21.82706"/>
<path transform="matrix(1.00003,0,0,-1,32.98249,43.318)" stroke-width=".3985" stroke-linecap="butt" stroke-miterlimit="10" stroke-linejoin="miter" fill="none" stroke="#000000" d="M39.68535 0V-19.84267L47.62228-9.92133M39.68535-19.84267 47.62228-27.77962M39.68535-19.84267V-33.73247M39.68535-19.84267 31.74838-27.77962M39.68535-19.84267 31.74838-11.90572"/>
<path transform="matrix(1.00003,0,0,-1,32.98249,43.318)" d="M41.6779-19.84267C41.6779-18.74219 40.78583-17.85011 39.68535-17.85011 38.58488-17.85011 37.6928-18.74219 37.6928-19.84267 37.6928-20.94313 38.58488-21.83522 39.68535-21.83522 40.78583-21.83522 41.6779-20.94313 41.6779-19.84267ZM39.68535-19.84267"/>
<path transform="matrix(1.00003,0,0,-1,32.98249,43.318)" d="M49.61484-9.92133C49.61484-8.82085 48.72276-7.92877 47.62228-7.92877 46.52182-7.92877 45.62973-8.82085 45.62973-9.92133 45.62973-11.02179 46.52182-11.91388 47.62228-11.91388 48.72276-11.91388 49.61484-11.02179 49.61484-9.92133ZM47.62228-9.92133"/>
<path transform="matrix(1.00003,0,0,-1,32.98249,43.318)" d="M49.61484-27.77962C49.61484-26.67914 48.72276-25.78706 47.62228-25.78706 46.52182-25.78706 45.62973-26.67914 45.62973-27.77962 45.62973-28.88008 46.52182-29.77217 47.62228-29.77217 48.72276-29.77217 49.61484-28.88008 49.61484-27.77962ZM47.62228-27.77962"/>
<path transform="matrix(1.00003,0,0,-1,32.98249,43.318)" d="M41.6779-33.73247C41.6779-32.632 40.78583-31.73991 39.68535-31.73991 38.58488-31.73991 37.6928-32.632 37.6928-33.73247 37.6928-34.83293 38.58488-35.72502 39.68535-35.72502 40.78583-35.72502 41.6779-34.83293 41.6779-33.73247ZM39.68535-33.73247"/>
<path transform="matrix(1.00003,0,0,-1,32.98249,43.318)" d="M33.74094-27.77962C33.74094-26.67914 32.84885-25.78706 31.74838-25.78706 30.6479-25.78706 29.75583-26.67914 29.75583-27.77962 29.75583-28.88008 30.6479-29.77217 31.74838-29.77217 32.84885-29.77217 33.74094-28.88008 33.74094-27.77962ZM31.74838-27.77962"/>
<path transform="matrix(1.00003,0,0,-1,32.98249,43.318)" d="M33.74094-11.90572C33.74094-10.80524 32.84885-9.91316 31.74838-9.91316 30.6479-9.91316 29.75583-10.80524 29.75583-11.90572 29.75583-13.00618 30.6479-13.89827 31.74838-13.89827 32.84885-13.89827 33.74094-13.00618 33.74094-11.90572ZM31.74838-11.90572"/>
<path transform="matrix(1.00003,0,0,-1,32.98249,43.318)" stroke-width=".3985" stroke-linecap="butt" stroke-miterlimit="10" stroke-linejoin="miter" fill="none" stroke="#000000" d="M39.68535 0 59.52802 19.84267V29.764L69.44937 39.68535M59.52802 19.84267V9.92133L69.44937 0"/>
<path transform="matrix(1.00003,0,0,-1,32.98249,43.318)" d="M61.52057 19.84267C61.52057 20.94313 60.6285 21.83522 59.52802 21.83522 58.42755 21.83522 57.53546 20.94313 57.53546 19.84267 57.53546 18.74219 58.42755 17.85011 59.52802 17.85011 60.6285 17.85011 61.52057 18.74219 61.52057 19.84267ZM59.52802 19.84267"/>
<path transform="matrix(1.00003,0,0,-1,32.98249,43.318)" d="M61.52057 29.764C61.52057 30.86447 60.6285 31.75656 59.52802 31.75656 58.42755 31.75656 57.53546 30.86447 57.53546 29.764 57.53546 28.66353 58.42755 27.77145 59.52802 27.77145 60.6285 27.77145 61.52057 28.66353 61.52057 29.764ZM59.52802 29.764"/>
<path transform="matrix(1.00003,0,0,-1,32.98249,43.318)" d="M71.44193 39.68535C71.44193 40.78583 70.54984 41.6779 69.44937 41.6779 68.34889 41.6779 67.45682 40.78583 67.45682 39.68535 67.45682 38.58488 68.34889 37.6928 69.44937 37.6928 70.54984 37.6928 71.44193 38.58488 71.44193 39.68535ZM69.44937 39.68535"/>
<path transform="matrix(1.00003,0,0,-1,32.98249,43.318)" d="M61.52057 9.92133C61.52057 11.02179 60.6285 11.91388 59.52802 11.91388 58.42755 11.91388 57.53546 11.02179 57.53546 9.92133 57.53546 8.82085 58.42755 7.92877 59.52802 7.92877 60.6285 7.92877 61.52057 8.82085 61.52057 9.92133ZM59.52802 9.92133"/>
<path transform="matrix(1.00003,0,0,-1,32.98249,43.318)" d="M71.44193 0C71.44193 1.10046 70.54984 1.99255 69.44937 1.99255 68.34889 1.99255 67.45682 1.10046 67.45682 0 67.45682-1.10046 68.34889-1.99255 69.44937-1.99255 70.54984-1.99255 71.44193-1.10046 71.44193 0ZM69.44937 0"/>
</svg>
