<svg xmlns="http://www.w3.org/2000/svg" xmlns:xlink="http://www.w3.org/1999/xlink" xmlns:inkscape="http://www.inkscape.org/namespaces/inkscape" version="1.1" width="82" height="71" viewBox="0 0 82 71">
<path transform="matrix(1,0,0,-1,41.238,45.746004)" stroke-width="1.79329" stroke-linecap="butt" stroke-miterlimit="10" stroke-linejoin="miter" fill="none" stroke="#000000" d="M0-22.67752H-39.27873L-19.63936 11.33876 0-22.67752H39.27873L19.63936 11.33876H-19.63936L0 45.35506 19.63936 11.33876 0-22.67752"/>
<path transform="matrix(1,0,0,-1,41.238,45.746004)" d="M2.39107-22.67752C2.39107-21.35695 1.32056-20.28644 0-20.28644-1.32056-20.28644-2.39107-21.35695-2.39107-22.67752-2.39107-23.99808-1.32056-25.06859 0-25.06859 1.32056-25.06859 2.39107-23.99808 2.39107-22.67752ZM0-22.67752" fill="#ffffff"/>
<path transform="matrix(1,0,0,-1,41.238,45.746004)" d="M41.6698-22.67752C41.6698-21.35695 40.59929-20.28644 39.27873-20.28644 37.95816-20.28644 36.88765-21.35695 36.88765-22.67752 36.88765-23.99808 37.95816-25.06859 39.27873-25.06859 40.59929-25.06859 41.6698-23.99808 41.6698-22.67752ZM39.27873-22.67752" fill="#ffffff"/>
<path transform="matrix(1,0,0,-1,41.238,45.746004)" d="M-36.88765-22.67752C-36.88765-21.35695-37.95816-20.28644-39.27873-20.28644-40.59929-20.28644-41.6698-21.35695-41.6698-22.67752-41.6698-23.99808-40.59929-25.06859-39.27873-25.06859-37.95816-25.06859-36.88765-23.99808-36.88765-22.67752ZM-39.27873-22.67752" fill="#ffffff"/>
<path transform="matrix(1,0,0,-1,41.238,45.746004)" d="M2.39107 45.35506C2.39107 46.67561 1.32056 47.74612 0 47.74612-1.32056 47.74612-2.39107 46.67561-2.39107 45.35506-2.39107 44.03448-1.32056 42.96397 0 42.96397 1.32056 42.96397 2.39107 44.03448 2.39107 45.35506ZM0 45.35506" fill="#ffffff"/>
<path transform="matrix(1,0,0,-1,41.238,45.746004)" d="M22.03043 11.33876C22.03043 12.65932 20.95992 13.72983 19.63936 13.72983 18.31879 13.72983 17.24828 12.65932 17.24828 11.33876 17.24828 10.01819 18.31879 8.94768 19.63936 8.94768 20.95992 8.94768 22.03043 10.01819 22.03043 11.33876ZM19.63936 11.33876" fill="#ffffff"/>
<path transform="matrix(1,0,0,-1,41.238,45.746004)" d="M-17.24828 11.33876C-17.24828 12.65932-18.31879 13.72983-19.63936 13.72983-20.95992 13.72983-22.03043 12.65932-22.03043 11.33876-22.03043 10.01819-20.95992 8.94768-19.63936 8.94768-18.31879 8.94768-17.24828 10.01819-17.24828 11.33876ZM-19.63936 11.33876" fill="#ffffff"/>
</svg>
