<svg xmlns="http://www.w3.org/2000/svg" xmlns:xlink="http://www.w3.org/1999/xlink" xmlns:inkscape="http://www.inkscape.org/namespaces/inkscape" version="1.1" width="42" height="37" viewBox="0 0 42 37">
<path transform="matrix(1.00002,0,0,-1.00005,20.599493,23.069354)" stroke-width="1.79329" stroke-linecap="butt" stroke-miterlimit="10" stroke-linejoin="miter" fill="none" stroke="#000000" d="M0 22.67752 19.63936-11.33876H-19.63936L0 22.67752"/>
<path transform="matrix(1.00002,0,0,-1.00005,20.599493,23.069354)" d="M2.39107 22.67752C2.39107 23.99808 1.32056 25.06859 0 25.06859-1.32056 25.06859-2.39107 23.99808-2.39107 22.67752-2.39107 21.35695-1.32056 20.28644 0 20.28644 1.32056 20.28644 2.39107 21.35695 2.39107 22.67752ZM0 22.67752" fill="#ffffff"/>
<path transform="matrix(1.00002,0,0,-1.00005,20.599493,23.069354)" d="M22.03043-11.33876C22.03043-10.01819 20.95992-8.94768 19.63936-8.94768 18.31879-8.94768 17.24828-10.01819 17.24828-11.33876 17.24828-12.65932 18.31879-13.72983 19.63936-13.72983 20.95992-13.72983 22.03043-12.65932 22.03043-11.33876ZM19.63936-11.33876" fill="#ffffff"/>
<path transform="matrix(1.00002,0,0,-1.00005,20.599493,23.069354)" d="M-17.24828-11.33876C-17.24828-10.01819-18.31879-8.94768-19.63936-8.94768-20.95992-8.94768-22.03043-10.01819-22.03043-11.33876-22.03043-12.65932-20.95992-13.72983-19.63936-13.72983-18.31879-13.72983-17.24828-12.65932-17.24828-11.33876ZM-19.63936-11.33876" fill="#ffffff"/>
</svg>
