<svg xmlns="http://www.w3.org/2000/svg" xmlns:xlink="http://www.w3.org/1999/xlink" xmlns:inkscape="http://www.inkscape.org/namespaces/inkscape" version="1.1" width="141" height="72" viewBox="0 0 141 72">
<path transform="matrix(1.00006,0,0,-1.00003,70.53008,70.23163)" stroke-width="1.19553" stroke-linecap="butt" stroke-miterlimit="10" stroke-linejoin="miter" fill="none" stroke="#000000" d="M-68.0326 0V68.0326H68.0326V0ZM68.0326 68.0326"/>
<path transform="matrix(1.00006,0,0,-1.00003,70.53008,70.23163)" stroke-width="1.19553" stroke-linecap="butt" stroke-miterlimit="10" stroke-linejoin="miter" fill="none" stroke="#000000" d="M-68.0326 40.8196H-61.22925M-52.15837 40.8196H-34.01628M-34.01628 36.28416H-22.67752M-13.60663 36.28416H6.8033M15.87419 36.28416H22.67752M22.67752 18.14206H34.01628M43.08716 18.14206H68.0326"/>
<path transform="matrix(1.00006,0,0,-1.00003,70.53008,70.23163)" stroke-width="1.19553" stroke-linecap="butt" stroke-miterlimit="10" stroke-linejoin="miter" fill="none" stroke="#000000" d="M-34.01628 0V18.14206M-34.01628 27.21297V47.62294M-34.01628 56.69382V68.0326"/>
<path transform="matrix(1.00006,0,0,-1.00003,70.53008,70.23163)" stroke-width="1.19553" stroke-linecap="butt" stroke-miterlimit="10" stroke-linejoin="miter" fill="none" stroke="#000000" d="M0 0V13.60663M0 22.67752V36.28416"/>
<path transform="matrix(1.00006,0,0,-1.00003,70.53008,70.23163)" stroke-width="1.19553" stroke-linecap="butt" stroke-miterlimit="10" stroke-linejoin="miter" fill="none" stroke="#000000" d="M22.67752 0V4.53543M22.67752 13.60663V22.67752M22.67752 31.7484V47.62294M22.67752 56.69382V68.0326"/>
</svg>
