<svg xmlns="http://www.w3.org/2000/svg" xmlns:xlink="http://www.w3.org/1999/xlink" xmlns:inkscape="http://www.inkscape.org/namespaces/inkscape" version="1.1" width="61" height="62" viewBox="0 0 61 62">
<path transform="matrix(1,0,0,-1.00005,28.743,31.299965)" stroke-width=".3985" stroke-linecap="butt" stroke-miterlimit="10" stroke-linejoin="miter" fill="none" stroke="#000000" d="M17.67262 22.1615-6.30682 27.63527-25.53833 12.29832V-12.29832L-6.30725-27.63483 17.67305-22.16107 28.3468 0Z"/>
<path transform="matrix(1,0,0,-1.00005,28.743,31.299965)" d="M19.66518 22.1615C19.66518 23.26196 18.7731 24.15405 17.67262 24.15405 16.57216 24.15405 15.68007 23.26196 15.68007 22.1615 15.68007 21.06102 16.57216 20.16895 17.67262 20.16895 18.7731 20.16895 19.66518 21.06102 19.66518 22.1615ZM17.67262 22.1615"/>
<path transform="matrix(1,0,0,-1.00005,28.743,31.299965)" d="M-4.31427 27.63527C-4.31427 28.73575-5.20634 29.62782-6.30682 29.62782-7.40729 29.62782-8.29938 28.73575-8.29938 27.63527-8.29938 26.5348-7.40729 25.64272-6.30682 25.64272-5.20634 25.64272-4.31427 26.5348-4.31427 27.63527ZM-6.30682 27.63527"/>
<path transform="matrix(1,0,0,-1.00005,28.743,31.299965)" d="M-23.54578 12.29832C-23.54578 13.3988-24.43785 14.29088-25.53833 14.29088-26.6388 14.29088-27.53088 13.3988-27.53088 12.29832-27.53088 11.19786-26.6388 10.30577-25.53833 10.30577-24.43785 10.30577-23.54578 11.19786-23.54578 12.29832ZM-25.53833 12.29832"/>
<path transform="matrix(1,0,0,-1.00005,28.743,31.299965)" d="M-23.54578-12.29832C-23.54578-11.19786-24.43785-10.30577-25.53833-10.30577-26.6388-10.30577-27.53088-11.19786-27.53088-12.29832-27.53088-13.3988-26.6388-14.29088-25.53833-14.29088-24.43785-14.29088-23.54578-13.3988-23.54578-12.29832ZM-25.53833-12.29832"/>
<path transform="matrix(1,0,0,-1.00005,28.743,31.299965)" d="M-4.3147-27.63483C-4.3147-26.53436-5.20677-25.64227-6.30725-25.64227-7.40771-25.64227-8.2998-26.53436-8.2998-27.63483-8.2998-28.7353-7.40771-29.62738-6.30725-29.62738-5.20677-29.62738-4.3147-28.7353-4.3147-27.63483ZM-6.30725-27.63483"/>
<path transform="matrix(1,0,0,-1.00005,28.743,31.299965)" d="M19.6656-22.16107C19.6656-21.06061 18.77353-20.16852 17.67305-20.16852 16.57259-20.16852 15.6805-21.06061 15.6805-22.16107 15.6805-23.26154 16.57259-24.15363 17.67305-24.15363 18.77353-24.15363 19.6656-23.26154 19.6656-22.16107ZM17.67305-22.16107"/>
<path transform="matrix(1,0,0,-1.00005,28.743,31.299965)" d="M30.33936 0C30.33936 1.10046 29.44728 1.99255 28.3468 1.99255 27.24634 1.99255 26.35425 1.10046 26.35425 0 26.35425-1.10046 27.24634-1.99255 28.3468-1.99255 29.44728-1.99255 30.33936-1.10046 30.33936 0ZM28.3468 0"/>
</svg>
