<svg xmlns="http://www.w3.org/2000/svg" xmlns:xlink="http://www.w3.org/1999/xlink" xmlns:inkscape="http://www.inkscape.org/namespaces/inkscape" version="1.1" width="75" height="52" viewBox="0 0 75 52">
<path transform="matrix(1.00002,0,0,-1.00006,37.223806,49.02322)" stroke-width=".3985" stroke-linecap="butt" stroke-miterlimit="10" stroke-linejoin="miter" fill="none" stroke="#000000" d="M0 0-34.01628 11.33876 0 34.01628 34.01628 11.33876 0 0-22.67752 45.35506 0 34.01628 22.67752 45.35506 0 0V34.01628"/>
<path transform="matrix(1.00002,0,0,-1.00006,37.223806,49.02322)" d="M1.99255 0C1.99255 1.10046 1.10046 1.99255 0 1.99255-1.10046 1.99255-1.99255 1.10046-1.99255 0-1.99255-1.10046-1.10046-1.99255 0-1.99255 1.10046-1.99255 1.99255-1.10046 1.99255 0ZM0 0"/>
<path transform="matrix(1.00002,0,0,-1.00006,37.223806,49.02322)" d="M-32.02373 11.33876C-32.02373 12.43922-32.9158 13.33131-34.01628 13.33131-35.11674 13.33131-36.00883 12.43922-36.00883 11.33876-36.00883 10.23828-35.11674 9.3462-34.01628 9.3462-32.9158 9.3462-32.02373 10.23828-32.02373 11.33876ZM-34.01628 11.33876"/>
<path transform="matrix(1.00002,0,0,-1.00006,37.223806,49.02322)" d="M1.99255 34.01628C1.99255 35.11674 1.10046 36.00883 0 36.00883-1.10046 36.00883-1.99255 35.11674-1.99255 34.01628-1.99255 32.9158-1.10046 32.02373 0 32.02373 1.10046 32.02373 1.99255 32.9158 1.99255 34.01628ZM0 34.01628"/>
<path transform="matrix(1.00002,0,0,-1.00006,37.223806,49.02322)" d="M36.00883 11.33876C36.00883 12.43922 35.11674 13.33131 34.01628 13.33131 32.9158 13.33131 32.02373 12.43922 32.02373 11.33876 32.02373 10.23828 32.9158 9.3462 34.01628 9.3462 35.11674 9.3462 36.00883 10.23828 36.00883 11.33876ZM34.01628 11.33876"/>
<path transform="matrix(1.00002,0,0,-1.00006,37.223806,49.02322)" d="M-20.68497 45.35506C-20.68497 46.45552-21.57704 47.34761-22.67752 47.34761-23.77798 47.34761-24.67007 46.45552-24.67007 45.35506-24.67007 44.25458-23.77798 43.3625-22.67752 43.3625-21.57704 43.3625-20.68497 44.25458-20.68497 45.35506ZM-22.67752 45.35506"/>
<path transform="matrix(1.00002,0,0,-1.00006,37.223806,49.02322)" d="M24.67007 45.35506C24.67007 46.45552 23.77798 47.34761 22.67752 47.34761 21.57704 47.34761 20.68497 46.45552 20.68497 45.35506 20.68497 44.25458 21.57704 43.3625 22.67752 43.3625 23.77798 43.3625 24.67007 44.25458 24.67007 45.35506ZM22.67752 45.35506"/>
</svg>
