<svg xmlns="http://www.w3.org/2000/svg" xmlns:xlink="http://www.w3.org/1999/xlink" xmlns:inkscape="http://www.inkscape.org/namespaces/inkscape" version="1.1" width="92" height="64" viewBox="0 0 92 64">
<path transform="matrix(1.00006,0,0,-1.00003,45.72792,60.357458)" stroke-width=".3985" stroke-linecap="butt" stroke-miterlimit="10" stroke-linejoin="miter" fill="none" stroke="#000000" d="M0 0-28.3468 28.3468-42.5202 56.69362M-28.3468 28.3468-14.17339 56.69362M0 0 28.3468 28.3468 42.5202 56.69362M28.3468 28.3468 14.17339 56.69362"/>
<path transform="matrix(1.00006,0,0,-1.00003,45.72792,60.357458)" d="M1.99255 0C1.99255 1.10046 1.10046 1.99255 0 1.99255-1.10046 1.99255-1.99255 1.10046-1.99255 0-1.99255-1.10046-1.10046-1.99255 0-1.99255 1.10046-1.99255 1.99255-1.10046 1.99255 0ZM0 0"/>
<path transform="matrix(1.00006,0,0,-1.00003,45.72792,60.357458)" d="M-26.35425 28.3468C-26.35425 29.44728-27.24634 30.33936-28.3468 30.33936-29.44728 30.33936-30.33936 29.44728-30.33936 28.3468-30.33936 27.24634-29.44728 26.35425-28.3468 26.35425-27.24634 26.35425-26.35425 27.24634-26.35425 28.3468ZM-28.3468 28.3468"/>
<path transform="matrix(1.00006,0,0,-1.00003,45.72792,60.357458)" d="M-40.52765 56.69362C-40.52765 57.79408-41.41972 58.68617-42.5202 58.68617-43.62067 58.68617-44.51276 57.79408-44.51276 56.69362-44.51276 55.59314-43.62067 54.70107-42.5202 54.70107-41.41972 54.70107-40.52765 55.59314-40.52765 56.69362ZM-42.5202 56.69362"/>
<path transform="matrix(1.00006,0,0,-1.00003,45.72792,60.357458)" d="M-12.18083 56.69362C-12.18083 57.79408-13.07292 58.68617-14.17339 58.68617-15.27386 58.68617-16.16594 57.79408-16.16594 56.69362-16.16594 55.59314-15.27386 54.70107-14.17339 54.70107-13.07292 54.70107-12.18083 55.59314-12.18083 56.69362ZM-14.17339 56.69362"/>
<path transform="matrix(1.00006,0,0,-1.00003,45.72792,60.357458)" d="M30.33936 28.3468C30.33936 29.44728 29.44728 30.33936 28.3468 30.33936 27.24634 30.33936 26.35425 29.44728 26.35425 28.3468 26.35425 27.24634 27.24634 26.35425 28.3468 26.35425 29.44728 26.35425 30.33936 27.24634 30.33936 28.3468ZM28.3468 28.3468"/>
<path transform="matrix(1.00006,0,0,-1.00003,45.72792,60.357458)" d="M44.51276 56.69362C44.51276 57.79408 43.62067 58.68617 42.5202 58.68617 41.41972 58.68617 40.52765 57.79408 40.52765 56.69362 40.52765 55.59314 41.41972 54.70107 42.5202 54.70107 43.62067 54.70107 44.51276 55.59314 44.51276 56.69362ZM42.5202 56.69362"/>
<path transform="matrix(1.00006,0,0,-1.00003,45.72792,60.357458)" d="M16.16594 56.69362C16.16594 57.79408 15.27386 58.68617 14.17339 58.68617 13.07292 58.68617 12.18083 57.79408 12.18083 56.69362 12.18083 55.59314 13.07292 54.70107 14.17339 54.70107 15.27386 54.70107 16.16594 55.59314 16.16594 56.69362ZM14.17339 56.69362"/>
</svg>
