<svg xmlns="http://www.w3.org/2000/svg" xmlns:xlink="http://www.w3.org/1999/xlink" xmlns:inkscape="http://www.inkscape.org/namespaces/inkscape" version="1.1" width="262" height="64" viewBox="0 0 262 64">
<path transform="matrix(1.00003,0,0,-1.00003,3.2175904,60.32654)" stroke-width=".3985" stroke-linecap="butt" stroke-miterlimit="10" stroke-linejoin="miter" fill="none" stroke="#000000" d="M0 0V56.69362"/>
<path transform="matrix(1.00003,0,0,-1.00003,3.2175904,60.32654)" d="M1.99255 0C1.99255 1.10046 1.10046 1.99255 0 1.99255-1.10046 1.99255-1.99255 1.10046-1.99255 0-1.99255-1.10046-1.10046-1.99255 0-1.99255 1.10046-1.99255 1.99255-1.10046 1.99255 0ZM0 0"/>
<path transform="matrix(1.00003,0,0,-1.00003,3.2175904,60.32654)" d="M1.99255 56.69362C1.99255 57.79408 1.10046 58.68617 0 58.68617-1.10046 58.68617-1.99255 57.79408-1.99255 56.69362-1.99255 55.59314-1.10046 54.70107 0 54.70107 1.10046 54.70107 1.99255 55.59314 1.99255 56.69362ZM0 56.69362"/>
<path transform="matrix(1.00003,0,0,-1.00003,3.2175904,60.32654)" stroke-width=".3985" stroke-linecap="butt" stroke-miterlimit="10" stroke-linejoin="miter" fill="none" stroke="#000000" d="M28.3468 0V56.69362"/>
<path transform="matrix(1.00003,0,0,-1.00003,3.2175904,60.32654)" d="M30.33936 0C30.33936 1.10046 29.44728 1.99255 28.3468 1.99255 27.24634 1.99255 26.35425 1.10046 26.35425 0 26.35425-1.10046 27.24634-1.99255 28.3468-1.99255 29.44728-1.99255 30.33936-1.10046 30.33936 0ZM28.3468 0"/>
<path transform="matrix(1.00003,0,0,-1.00003,3.2175904,60.32654)" d="M30.33936 56.69362C30.33936 57.79408 29.44728 58.68617 28.3468 58.68617 27.24634 58.68617 26.35425 57.79408 26.35425 56.69362 26.35425 55.59314 27.24634 54.70107 28.3468 54.70107 29.44728 54.70107 30.33936 55.59314 30.33936 56.69362ZM28.3468 56.69362"/>
<path transform="matrix(1.00003,0,0,-1.00003,3.2175904,60.32654)" stroke-width=".3985" stroke-linecap="butt" stroke-miterlimit="10" stroke-linejoin="miter" fill="none" stroke="#000000" d="M56.69362 0V56.69362"/>
<path transform="matrix(1.00003,0,0,-1.00003,3.2175904,60.32654)" d="M58.68617 0C58.68617 1.10046 57.79408 1.99255 56.69362 1.99255 55.59314 1.99255 54.70107 1.10046 54.70107 0 54.70107-1.10046 55.59314-1.99255 56.69362-1.99255 57.79408-1.99255 58.68617-1.10046 58.68617 0ZM56.69362 0"/>
<path transform="matrix(1.00003,0,0,-1.00003,3.2175904,60.32654)" d="M58.68617 56.69362C58.68617 57.79408 57.79408 58.68617 56.69362 58.68617 55.59314 58.68617 54.70107 57.79408 54.70107 56.69362 54.70107 55.59314 55.59314 54.70107 56.69362 54.70107 57.79408 54.70107 58.68617 55.59314 58.68617 56.69362ZM56.69362 56.69362"/>
<path transform="matrix(1.00003,0,0,-1.00003,3.2175904,60.32654)" stroke-width=".3985" stroke-linecap="butt" stroke-miterlimit="10" stroke-linejoin="miter" fill="none" stroke="#000000" d="M85.04042 0V56.69362"/>
<path transform="matrix(1.00003,0,0,-1.00003,3.2175904,60.32654)" d="M87.03297 0C87.03297 1.10046 86.1409 1.99255 85.04042 1.99255 83.93996 1.99255 83.04787 1.10046 83.04787 0 83.04787-1.10046 83.93996-1.99255 85.04042-1.99255 86.1409-1.99255 87.03297-1.10046 87.03297 0ZM85.04042 0"/>
<path transform="matrix(1.00003,0,0,-1.00003,3.2175904,60.32654)" d="M87.03297 56.69362C87.03297 57.79408 86.1409 58.68617 85.04042 58.68617 83.93996 58.68617 83.04787 57.79408 83.04787 56.69362 83.04787 55.59314 83.93996 54.70107 85.04042 54.70107 86.1409 54.70107 87.03297 55.59314 87.03297 56.69362ZM85.04042 56.69362"/>
<path transform="matrix(1.00003,0,0,-1.00003,3.2175904,60.32654)" stroke-width=".3985" stroke-linecap="butt" stroke-miterlimit="10" stroke-linejoin="miter" fill="none" stroke="#000000" d="M113.38724 0V56.69362"/>
<path transform="matrix(1.00003,0,0,-1.00003,3.2175904,60.32654)" d="M115.37979 0C115.37979 1.10046 114.4877 1.99255 113.38724 1.99255 112.28676 1.99255 111.39468 1.10046 111.39468 0 111.39468-1.10046 112.28676-1.99255 113.38724-1.99255 114.4877-1.99255 115.37979-1.10046 115.37979 0ZM113.38724 0"/>
<path transform="matrix(1.00003,0,0,-1.00003,3.2175904,60.32654)" d="M115.37979 56.69362C115.37979 57.79408 114.4877 58.68617 113.38724 58.68617 112.28676 58.68617 111.39468 57.79408 111.39468 56.69362 111.39468 55.59314 112.28676 54.70107 113.38724 54.70107 114.4877 54.70107 115.37979 55.59314 115.37979 56.69362ZM113.38724 56.69362"/>
<path transform="matrix(1.00003,0,0,-1.00003,3.2175904,60.32654)" stroke-width=".3985" stroke-linecap="butt" stroke-miterlimit="10" stroke-linejoin="miter" fill="none" stroke="#000000" d="M141.73404 0V56.69362"/>
<path transform="matrix(1.00003,0,0,-1.00003,3.2175904,60.32654)" d="M143.7266 0C143.7266 1.10046 142.83452 1.99255 141.73404 1.99255 140.63358 1.99255 139.74149 1.10046 139.74149 0 139.74149-1.10046 140.63358-1.99255 141.73404-1.99255 142.83452-1.99255 143.7266-1.10046 143.7266 0ZM141.73404 0"/>
<path transform="matrix(1.00003,0,0,-1.00003,3.2175904,60.32654)" d="M143.7266 56.69362C143.7266 57.79408 142.83452 58.68617 141.73404 58.68617 140.63358 58.68617 139.74149 57.79408 139.74149 56.69362 139.74149 55.59314 140.63358 54.70107 141.73404 54.70107 142.83452 54.70107 143.7266 55.59314 143.7266 56.69362ZM141.73404 56.69362"/>
<path transform="matrix(1.00003,0,0,-1.00003,3.2175904,60.32654)" stroke-width=".3985" stroke-linecap="butt" stroke-miterlimit="10" stroke-linejoin="miter" fill="none" stroke="#000000" d="M170.08086 0V56.69362"/>
<path transform="matrix(1.00003,0,0,-1.00003,3.2175904,60.32654)" d="M172.07341 0C172.07341 1.10046 171.18132 1.99255 170.08086 1.99255 168.98038 1.99255 168.0883 1.10046 168.0883 0 168.0883-1.10046 168.98038-1.99255 170.08086-1.99255 171.18132-1.99255 172.07341-1.10046 172.07341 0ZM170.08086 0"/>
<path transform="matrix(1.00003,0,0,-1.00003,3.2175904,60.32654)" d="M172.07341 56.69362C172.07341 57.79408 171.18132 58.68617 170.08086 58.68617 168.98038 58.68617 168.0883 57.79408 168.0883 56.69362 168.0883 55.59314 168.98038 54.70107 170.08086 54.70107 171.18132 54.70107 172.07341 55.59314 172.07341 56.69362ZM170.08086 56.69362"/>
<path transform="matrix(1.00003,0,0,-1.00003,3.2175904,60.32654)" stroke-width=".3985" stroke-linecap="butt" stroke-miterlimit="10" stroke-linejoin="miter" fill="none" stroke="#000000" d="M198.42766 0V56.69362"/>
<path transform="matrix(1.00003,0,0,-1.00003,3.2175904,60.32654)" d="M200.42021 0C200.42021 1.10046 199.52814 1.99255 198.42766 1.99255 197.3272 1.99255 196.4351 1.10046 196.4351 0 196.4351-1.10046 197.3272-1.99255 198.42766-1.99255 199.52814-1.99255 200.42021-1.10046 200.42021 0ZM198.42766 0"/>
<path transform="matrix(1.00003,0,0,-1.00003,3.2175904,60.32654)" d="M200.42021 56.69362C200.42021 57.79408 199.52814 58.68617 198.42766 58.68617 197.3272 58.68617 196.4351 57.79408 196.4351 56.69362 196.4351 55.59314 197.3272 54.70107 198.42766 54.70107 199.52814 54.70107 200.42021 55.59314 200.42021 56.69362ZM198.42766 56.69362"/>
<path transform="matrix(1.00003,0,0,-1.00003,3.2175904,60.32654)" stroke-width=".3985" stroke-linecap="butt" stroke-miterlimit="10" stroke-linejoin="miter" fill="none" stroke="#000000" d="M226.77448 0V56.69362"/>
<path transform="matrix(1.00003,0,0,-1.00003,3.2175904,60.32654)" d="M228.76703 0C228.76703 1.10046 227.87494 1.99255 226.77448 1.99255 225.674 1.99255 224.78192 1.10046 224.78192 0 224.78192-1.10046 225.674-1.99255 226.77448-1.99255 227.87494-1.99255 228.76703-1.10046 228.76703 0ZM226.77448 0"/>
<path transform="matrix(1.00003,0,0,-1.00003,3.2175904,60.32654)" d="M228.76703 56.69362C228.76703 57.79408 227.87494 58.68617 226.77448 58.68617 225.674 58.68617 224.78192 57.79408 224.78192 56.69362 224.78192 55.59314 225.674 54.70107 226.77448 54.70107 227.87494 54.70107 228.76703 55.59314 228.76703 56.69362ZM226.77448 56.69362"/>
<path transform="matrix(1.00003,0,0,-1.00003,3.2175904,60.32654)" stroke-width=".3985" stroke-linecap="butt" stroke-miterlimit="10" stroke-linejoin="miter" fill="none" stroke="#000000" d="M255.12128 0V56.69362"/>
<path transform="matrix(1.00003,0,0,-1.00003,3.2175904,60.32654)" d="M257.11384 0C257.11384 1.10046 256.22178 1.99255 255.12128 1.99255 254.02082 1.99255 253.12873 1.10046 253.12873 0 253.12873-1.10046 254.02082-1.99255 255.12128-1.99255 256.22178-1.99255 257.11384-1.10046 257.11384 0ZM255.12128 0"/>
<path transform="matrix(1.00003,0,0,-1.00003,3.2175904,60.32654)" d="M257.11384 56.69362C257.11384 57.79408 256.22178 58.68617 255.12128 58.68617 254.02082 58.68617 253.12873 57.79408 253.12873 56.69362 253.12873 55.59314 254.02082 54.70107 255.12128 54.70107 256.22178 54.70107 257.11384 55.59314 257.11384 56.69362ZM255.12128 56.69362"/>
<path transform="matrix(1.00003,0,0,-1.00003,3.2175904,60.32654)" stroke-width=".3985" stroke-linecap="butt" stroke-miterlimit="10" stroke-linejoin="miter" fill="none" stroke="#000000" d="M0 0 28.3468 56.69362 56.69362 0 85.04042 56.69362 113.38724 0 141.73404 56.69362 170.08086 0 198.42766 56.69362 226.77448 0 255.12128 56.69362"/>
<path transform="matrix(1.00003,0,0,-1.00003,3.2175904,60.32654)" stroke-width=".3985" stroke-linecap="butt" stroke-miterlimit="10" stroke-linejoin="miter" fill="none" stroke="#000000" d="M0 56.69362 28.3468 0 56.69362 56.69362 85.04042 0 113.38724 56.69362 141.73404 0 170.08086 56.69362 198.42766 0 226.77448 56.69362 255.12128 0"/>
</svg>
