<svg xmlns="http://www.w3.org/2000/svg" xmlns:xlink="http://www.w3.org/1999/xlink" xmlns:inkscape="http://www.inkscape.org/namespaces/inkscape" version="1.1" width="90" height="90" viewBox="0 0 90 90">
<path transform="matrix(1.00003,0,0,-1.00006,45.09285,46.15423)" stroke-width=".3985" stroke-linecap="butt" stroke-miterlimit="10" stroke-linejoin="miter" fill="none" stroke="#000000" d="M27.33163 32.57182"/>
<path transform="matrix(1.00003,0,0,-1.00006,45.09285,46.15423)" d="M29.32419 32.57182C29.32419 33.6723 28.4321 34.56438 27.33163 34.56438 26.23116 34.56438 25.33908 33.6723 25.33908 32.57182 25.33908 31.47136 26.23116 30.57927 27.33163 30.57927 28.4321 30.57927 29.32419 31.47136 29.32419 32.57182ZM27.33163 32.57182"/>
<path transform="matrix(1.00003,0,0,-1.00006,45.09285,46.15423)" stroke-width=".3985" stroke-linecap="butt" stroke-miterlimit="10" stroke-linejoin="miter" fill="none" stroke="#000000" d="M41.87442 7.3834"/>
<path transform="matrix(1.00003,0,0,-1.00006,45.09285,46.15423)" d="M43.86697 7.3834C43.86697 8.48389 42.97488 9.37596 41.87442 9.37596 40.77394 9.37596 39.88187 8.48389 39.88187 7.3834 39.88187 6.28294 40.77394 5.39085 41.87442 5.39085 42.97488 5.39085 43.86697 6.28294 43.86697 7.3834ZM41.87442 7.3834"/>
<path transform="matrix(1.00003,0,0,-1.00006,45.09285,46.15423)" stroke-width=".3985" stroke-linecap="butt" stroke-miterlimit="10" stroke-linejoin="miter" fill="none" stroke="#000000" d="M36.82367-21.2601"/>
<path transform="matrix(1.00003,0,0,-1.00006,45.09285,46.15423)" d="M38.81622-21.2601C38.81622-20.15962 37.92413-19.26755 36.82367-19.26755 35.72319-19.26755 34.83112-20.15962 34.83112-21.2601 34.83112-22.36057 35.72319-23.25266 36.82367-23.25266 37.92413-23.25266 38.81622-22.36057 38.81622-21.2601ZM36.82367-21.2601"/>
<path transform="matrix(1.00003,0,0,-1.00006,45.09285,46.15423)" stroke-width=".3985" stroke-linecap="butt" stroke-miterlimit="10" stroke-linejoin="miter" fill="none" stroke="#000000" d="M14.54279-39.95612"/>
<path transform="matrix(1.00003,0,0,-1.00006,45.09285,46.15423)" d="M16.53534-39.95612C16.53534-38.85564 15.64325-37.96356 14.54279-37.96356 13.4423-37.96356 12.55023-38.85564 12.55023-39.95612 12.55023-41.05658 13.4423-41.94867 14.54279-41.94867 15.64325-41.94867 16.53534-41.05658 16.53534-39.95612ZM14.54279-39.95612"/>
<path transform="matrix(1.00003,0,0,-1.00006,45.09285,46.15423)" stroke-width=".3985" stroke-linecap="butt" stroke-miterlimit="10" stroke-linejoin="miter" fill="none" stroke="#000000" d="M-14.54279-39.95612"/>
<path transform="matrix(1.00003,0,0,-1.00006,45.09285,46.15423)" d="M-12.55023-39.95612C-12.55023-38.85564-13.4423-37.96356-14.54279-37.96356-15.64325-37.96356-16.53534-38.85564-16.53534-39.95612-16.53534-41.05658-15.64325-41.94867-14.54279-41.94867-13.4423-41.94867-12.55023-41.05658-12.55023-39.95612ZM-14.54279-39.95612"/>
<path transform="matrix(1.00003,0,0,-1.00006,45.09285,46.15423)" stroke-width=".3985" stroke-linecap="butt" stroke-miterlimit="10" stroke-linejoin="miter" fill="none" stroke="#000000" d="M-36.82367-21.2601"/>
<path transform="matrix(1.00003,0,0,-1.00006,45.09285,46.15423)" d="M-34.83112-21.2601C-34.83112-20.15962-35.72319-19.26755-36.82367-19.26755-37.92413-19.26755-38.81622-20.15962-38.81622-21.2601-38.81622-22.36057-37.92413-23.25266-36.82367-23.25266-35.72319-23.25266-34.83112-22.36057-34.83112-21.2601ZM-36.82367-21.2601"/>
<path transform="matrix(1.00003,0,0,-1.00006,45.09285,46.15423)" stroke-width=".3985" stroke-linecap="butt" stroke-miterlimit="10" stroke-linejoin="miter" fill="none" stroke="#000000" d="M-41.87442 7.3834"/>
<path transform="matrix(1.00003,0,0,-1.00006,45.09285,46.15423)" d="M-39.88187 7.3834C-39.88187 8.48389-40.77394 9.37596-41.87442 9.37596-42.97488 9.37596-43.86697 8.48389-43.86697 7.3834-43.86697 6.28294-42.97488 5.39085-41.87442 5.39085-40.77394 5.39085-39.88187 6.28294-39.88187 7.3834ZM-41.87442 7.3834"/>
<path transform="matrix(1.00003,0,0,-1.00006,45.09285,46.15423)" stroke-width=".3985" stroke-linecap="butt" stroke-miterlimit="10" stroke-linejoin="miter" fill="none" stroke="#000000" d="M-27.33163 32.57182"/>
<path transform="matrix(1.00003,0,0,-1.00006,45.09285,46.15423)" d="M-25.33908 32.57182C-25.33908 33.6723-26.23116 34.56438-27.33163 34.56438-28.4321 34.56438-29.32419 33.6723-29.32419 32.57182-29.32419 31.47136-28.4321 30.57927-27.33163 30.57927-26.23116 30.57927-25.33908 31.47136-25.33908 32.57182ZM-27.33163 32.57182"/>
<path transform="matrix(1.00003,0,0,-1.00006,45.09285,46.15423)" stroke-width=".3985" stroke-linecap="butt" stroke-miterlimit="10" stroke-linejoin="miter" fill="none" stroke="#000000" d="M0 42.5202"/>
<path transform="matrix(1.00003,0,0,-1.00006,45.09285,46.15423)" d="M1.99255 42.5202C1.99255 43.62067 1.10046 44.51276 0 44.51276-1.10046 44.51276-1.99255 43.62067-1.99255 42.5202-1.99255 41.41972-1.10046 40.52765 0 40.52765 1.10046 40.52765 1.99255 41.41972 1.99255 42.5202ZM0 42.5202"/>
<path transform="matrix(1.00003,0,0,-1.00006,45.09285,46.15423)" stroke-width=".3985" stroke-linecap="butt" stroke-miterlimit="10" stroke-linejoin="miter" fill="none" stroke="#000000" d="M27.33163 32.57182-36.82367-21.2601H36.82367L-27.33163 32.57182 14.54279-39.95612-41.87442 7.3834H41.87442L-14.54279-39.95612 0 42.5202 27.33163 32.57182"/>
<path transform="matrix(1.00003,0,0,-1.00006,45.09285,46.15423)" stroke-width=".3985" stroke-linecap="butt" stroke-miterlimit="10" stroke-linejoin="miter" fill="none" stroke="#000000" d="M27.33163 32.57182 36.82367-21.2601-14.54279-39.95612M14.54279-39.95612H-14.54279M14.54279-39.95612-41.87442 7.3834-36.82367-21.2601 0 42.5202M36.82367-21.2601-41.87442 7.3834M0 42.5202 36.82367-21.2601"/>
</svg>
