<svg xmlns="http://www.w3.org/2000/svg" xmlns:xlink="http://www.w3.org/1999/xlink" xmlns:inkscape="http://www.inkscape.org/namespaces/inkscape" version="1.1" width="63" height="58" viewBox="0 0 63 58">
<path transform="matrix(1.00002,0,0,-1.00005,34.229768,29.176857)" stroke-width=".3985" stroke-linecap="butt" stroke-miterlimit="10" stroke-linejoin="miter" fill="none" stroke="#000000" d="M-25.51193-25.51193C-35.46083-16.89592-35.46083-8.616-25.51193 0-35.46083 8.616-35.46083 16.89592-25.51193 25.51193-15.56305 16.89592-15.56305 8.616-25.51193 0-15.56305-8.616-15.56305-16.89592-25.51193-25.51193"/>
<path transform="matrix(1.00002,0,0,-1.00005,34.229768,29.176857)" d="M-23.51938-25.51193C-23.51938-24.41147-24.41147-23.51938-25.51193-23.51938-26.61241-23.51938-27.50449-24.41147-27.50449-25.51193-27.50449-26.61241-26.61241-27.50449-25.51193-27.50449-24.41147-27.50449-23.51938-26.61241-23.51938-25.51193ZM-25.51193-25.51193"/>
<path transform="matrix(1.00002,0,0,-1.00005,34.229768,29.176857)" d="M-23.51938 0C-23.51938 1.10046-24.41147 1.99255-25.51193 1.99255-26.61241 1.99255-27.50449 1.10046-27.50449 0-27.50449-1.10046-26.61241-1.99255-25.51193-1.99255-24.41147-1.99255-23.51938-1.10046-23.51938 0ZM-25.51193 0"/>
<path transform="matrix(1.00002,0,0,-1.00005,34.229768,29.176857)" d="M-23.51938 25.51193C-23.51938 26.61241-24.41147 27.50449-25.51193 27.50449-26.61241 27.50449-27.50449 26.61241-27.50449 25.51193-27.50449 24.41147-26.61241 23.51938-25.51193 23.51938-24.41147 23.51938-23.51938 24.41147-23.51938 25.51193ZM-25.51193 25.51193"/>
<path transform="matrix(1.00002,0,0,-1.00005,34.229768,29.176857)" stroke-width=".3985" stroke-linecap="butt" stroke-miterlimit="10" stroke-linejoin="miter" fill="none" stroke="#000000" d="M25.51193 0-25.51193 25.51193M-25.51193 0H25.51193L-25.51193-25.51193"/>
<path transform="matrix(1.00002,0,0,-1.00005,34.229768,29.176857)" d="M27.50449 0C27.50449 1.10046 26.61241 1.99255 25.51193 1.99255 24.41147 1.99255 23.51938 1.10046 23.51938 0 23.51938-1.10046 24.41147-1.99255 25.51193-1.99255 26.61241-1.99255 27.50449-1.10046 27.50449 0ZM25.51193 0"/>
</svg>
