<svg xmlns="http://www.w3.org/2000/svg" xmlns:xlink="http://www.w3.org/1999/xlink" xmlns:inkscape="http://www.inkscape.org/namespaces/inkscape" version="1.1" width="86" height="86" viewBox="0 0 86 86">
<path transform="matrix(1.00005,0,0,-1,42.89329,43.349)" stroke-width=".3985" stroke-linecap="butt" stroke-miterlimit="10" stroke-linejoin="miter" fill="none" stroke="#000000" d="M39.68535 0 28.0618 28.0618"/>
<path transform="matrix(1.00005,0,0,-1,42.89329,43.349)" d="M41.6779 0C41.6779 1.10046 40.78583 1.99255 39.68535 1.99255 38.58488 1.99255 37.6928 1.10046 37.6928 0 37.6928-1.10046 38.58488-1.99255 39.68535-1.99255 40.78583-1.99255 41.6779-1.10046 41.6779 0ZM39.68535 0"/>
<path transform="matrix(1.00005,0,0,-1,42.89329,43.349)" stroke-width=".3985" stroke-linecap="butt" stroke-miterlimit="10" stroke-linejoin="miter" fill="none" stroke="#000000" d="M28.0618 28.0618 0 39.68535"/>
<path transform="matrix(1.00005,0,0,-1,42.89329,43.349)" d="M30.05435 28.0618C30.05435 29.16226 29.16226 30.05435 28.0618 30.05435 26.96132 30.05435 26.06924 29.16226 26.06924 28.0618 26.06924 26.96132 26.96132 26.06924 28.0618 26.06924 29.16226 26.06924 30.05435 26.96132 30.05435 28.0618ZM28.0618 28.0618"/>
<path transform="matrix(1.00005,0,0,-1,42.89329,43.349)" stroke-width=".3985" stroke-linecap="butt" stroke-miterlimit="10" stroke-linejoin="miter" fill="none" stroke="#000000" d="M0 39.68535-28.0618 28.0618"/>
<path transform="matrix(1.00005,0,0,-1,42.89329,43.349)" d="M1.99255 39.68535C1.99255 40.78583 1.10046 41.6779 0 41.6779-1.10046 41.6779-1.99255 40.78583-1.99255 39.68535-1.99255 38.58488-1.10046 37.6928 0 37.6928 1.10046 37.6928 1.99255 38.58488 1.99255 39.68535ZM0 39.68535"/>
<path transform="matrix(1.00005,0,0,-1,42.89329,43.349)" stroke-width=".3985" stroke-linecap="butt" stroke-miterlimit="10" stroke-linejoin="miter" fill="none" stroke="#000000" d="M-28.0618 28.0618-39.68535 0"/>
<path transform="matrix(1.00005,0,0,-1,42.89329,43.349)" d="M-26.06924 28.0618C-26.06924 29.16226-26.96132 30.05435-28.0618 30.05435-29.16226 30.05435-30.05435 29.16226-30.05435 28.0618-30.05435 26.96132-29.16226 26.06924-28.0618 26.06924-26.96132 26.06924-26.06924 26.96132-26.06924 28.0618ZM-28.0618 28.0618"/>
<path transform="matrix(1.00005,0,0,-1,42.89329,43.349)" stroke-width=".3985" stroke-linecap="butt" stroke-miterlimit="10" stroke-linejoin="miter" fill="none" stroke="#000000" d="M-39.68535 0-28.0618-28.0618"/>
<path transform="matrix(1.00005,0,0,-1,42.89329,43.349)" d="M-37.6928 0C-37.6928 1.10046-38.58488 1.99255-39.68535 1.99255-40.78583 1.99255-41.6779 1.10046-41.6779 0-41.6779-1.10046-40.78583-1.99255-39.68535-1.99255-38.58488-1.99255-37.6928-1.10046-37.6928 0ZM-39.68535 0"/>
<path transform="matrix(1.00005,0,0,-1,42.89329,43.349)" stroke-width=".3985" stroke-linecap="butt" stroke-miterlimit="10" stroke-linejoin="miter" fill="none" stroke="#000000" d="M-28.0618-28.0618 0-39.68535"/>
<path transform="matrix(1.00005,0,0,-1,42.89329,43.349)" d="M-26.06924-28.0618C-26.06924-26.96132-26.96132-26.06924-28.0618-26.06924-29.16226-26.06924-30.05435-26.96132-30.05435-28.0618-30.05435-29.16226-29.16226-30.05435-28.0618-30.05435-26.96132-30.05435-26.06924-29.16226-26.06924-28.0618ZM-28.0618-28.0618"/>
<path transform="matrix(1.00005,0,0,-1,42.89329,43.349)" stroke-width=".3985" stroke-linecap="butt" stroke-miterlimit="10" stroke-linejoin="miter" fill="none" stroke="#000000" d="M0-39.68535 28.0618-28.0618"/>
<path transform="matrix(1.00005,0,0,-1,42.89329,43.349)" d="M1.99255-39.68535C1.99255-38.58488 1.10046-37.6928 0-37.6928-1.10046-37.6928-1.99255-38.58488-1.99255-39.68535-1.99255-40.78583-1.10046-41.6779 0-41.6779 1.10046-41.6779 1.99255-40.78583 1.99255-39.68535ZM0-39.68535"/>
<path transform="matrix(1.00005,0,0,-1,42.89329,43.349)" stroke-width=".3985" stroke-linecap="butt" stroke-miterlimit="10" stroke-linejoin="miter" fill="none" stroke="#000000" d="M28.0618-28.0618 39.68535 0"/>
<path transform="matrix(1.00005,0,0,-1,42.89329,43.349)" d="M30.05435-28.0618C30.05435-26.96132 29.16226-26.06924 28.0618-26.06924 26.96132-26.06924 26.06924-26.96132 26.06924-28.0618 26.06924-29.16226 26.96132-30.05435 28.0618-30.05435 29.16226-30.05435 30.05435-29.16226 30.05435-28.0618ZM28.0618-28.0618"/>
<path transform="matrix(1.00005,0,0,-1,42.89329,43.349)" stroke-width=".3985" stroke-linecap="butt" stroke-miterlimit="10" stroke-linejoin="miter" fill="none" stroke="#000000" d="M0 0 28.0618 28.0618M0 0-28.0618 28.0618M0 0-28.0618-28.0618M0 0 28.0618-28.0618"/>
<path transform="matrix(1.00005,0,0,-1,42.89329,43.349)" d="M1.99255 0C1.99255 1.10046 1.10046 1.99255 0 1.99255-1.10046 1.99255-1.99255 1.10046-1.99255 0-1.99255-1.10046-1.10046-1.99255 0-1.99255 1.10046-1.99255 1.99255-1.10046 1.99255 0ZM0 0"/>
<path transform="matrix(1.00005,0,0,-1,42.89329,43.349)" stroke-width=".3985" stroke-linecap="butt" stroke-miterlimit="10" stroke-linejoin="miter" fill="none" stroke="#000000" d="M-19.84267 0 0 39.68535M-19.84267 0H-39.68535M-19.84267 0 0-39.68535"/>
<path transform="matrix(1.00005,0,0,-1,42.89329,43.349)" d="M-17.85011 0C-17.85011 1.10046-18.74219 1.99255-19.84267 1.99255-20.94313 1.99255-21.83522 1.10046-21.83522 0-21.83522-1.10046-20.94313-1.99255-19.84267-1.99255-18.74219-1.99255-17.85011-1.10046-17.85011 0ZM-19.84267 0"/>
<path transform="matrix(1.00005,0,0,-1,42.89329,43.349)" stroke-width=".3985" stroke-linecap="butt" stroke-miterlimit="10" stroke-linejoin="miter" fill="none" stroke="#000000" d="M19.84267 0 0 39.68535M19.84267 0H39.68535M19.84267 0 0-39.68535"/>
<path transform="matrix(1.00005,0,0,-1,42.89329,43.349)" d="M21.83522 0C21.83522 1.10046 20.94313 1.99255 19.84267 1.99255 18.74219 1.99255 17.85011 1.10046 17.85011 0 17.85011-1.10046 18.74219-1.99255 19.84267-1.99255 20.94313-1.99255 21.83522-1.10046 21.83522 0ZM19.84267 0"/>
</svg>
