<svg xmlns="http://www.w3.org/2000/svg" xmlns:xlink="http://www.w3.org/1999/xlink" xmlns:inkscape="http://www.inkscape.org/namespaces/inkscape" version="1.1" width="63" height="30" viewBox="0 0 63 30">
<path transform="matrix(1.00003,0,0,-1.00003,31.565445,26.31152)" stroke-width=".3985" stroke-linecap="butt" stroke-miterlimit="10" stroke-linejoin="miter" fill="none" stroke="#000000" d="M-28.3468 22.67752V0L0 22.67752V0L28.3468 22.67752V0L0 22.67752-28.3468 0 28.3468 22.67752M28.3468 0-28.3468 22.67752 0 0"/>
<path transform="matrix(1.00003,0,0,-1.00003,31.565445,26.31152)" d="M-26.35425 22.67752C-26.35425 23.77798-27.24634 24.67007-28.3468 24.67007-29.44728 24.67007-30.33936 23.77798-30.33936 22.67752-30.33936 21.57704-29.44728 20.68497-28.3468 20.68497-27.24634 20.68497-26.35425 21.57704-26.35425 22.67752ZM-28.3468 22.67752"/>
<path transform="matrix(1.00003,0,0,-1.00003,31.565445,26.31152)" d="M-26.35425 0C-26.35425 1.10046-27.24634 1.99255-28.3468 1.99255-29.44728 1.99255-30.33936 1.10046-30.33936 0-30.33936-1.10046-29.44728-1.99255-28.3468-1.99255-27.24634-1.99255-26.35425-1.10046-26.35425 0ZM-28.3468 0"/>
<path transform="matrix(1.00003,0,0,-1.00003,31.565445,26.31152)" d="M1.99255 22.67752C1.99255 23.77798 1.10046 24.67007 0 24.67007-1.10046 24.67007-1.99255 23.77798-1.99255 22.67752-1.99255 21.57704-1.10046 20.68497 0 20.68497 1.10046 20.68497 1.99255 21.57704 1.99255 22.67752ZM0 22.67752"/>
<path transform="matrix(1.00003,0,0,-1.00003,31.565445,26.31152)" d="M1.99255 0C1.99255 1.10046 1.10046 1.99255 0 1.99255-1.10046 1.99255-1.99255 1.10046-1.99255 0-1.99255-1.10046-1.10046-1.99255 0-1.99255 1.10046-1.99255 1.99255-1.10046 1.99255 0ZM0 0"/>
<path transform="matrix(1.00003,0,0,-1.00003,31.565445,26.31152)" d="M30.33936 22.67752C30.33936 23.77798 29.44728 24.67007 28.3468 24.67007 27.24634 24.67007 26.35425 23.77798 26.35425 22.67752 26.35425 21.57704 27.24634 20.68497 28.3468 20.68497 29.44728 20.68497 30.33936 21.57704 30.33936 22.67752ZM28.3468 22.67752"/>
<path transform="matrix(1.00003,0,0,-1.00003,31.565445,26.31152)" d="M30.33936 0C30.33936 1.10046 29.44728 1.99255 28.3468 1.99255 27.24634 1.99255 26.35425 1.10046 26.35425 0 26.35425-1.10046 27.24634-1.99255 28.3468-1.99255 29.44728-1.99255 30.33936-1.10046 30.33936 0ZM28.3468 0"/>
</svg>
