<svg xmlns="http://www.w3.org/2000/svg" xmlns:xlink="http://www.w3.org/1999/xlink" xmlns:inkscape="http://www.inkscape.org/namespaces/inkscape" version="1.1" width="154" height="128" viewBox="0 0 154 128">
<defs>
<path id="font_1_69" d="M.86499026 0V.038986207C.81199648 .038986207 .7859955 .040985109 .7509918 .083969119L.48199464 .41474916 .69599917 .5866394C.7639923 .64060977 .82398989 .6436157 .848999 .6436157V.6826172C.83399966 .6816101 .79599 .6786041 .7569885 .6786041L.61698916 .6826172V.6436157C.6319885 .6436157 .6529999 .63760378 .6529999 .6166229 .6529999 .6006317 .6380005 .5886383 .6309967 .5826416L.2709961 .29182435V.5986328C.2709961 .63160708 .2709961 .6436157 .35099793 .6436157H.3769989V.6826172L.22099304 .6786041 .06498718 .6826172V.6436157H.09098816C.17098999 .6436157 .17098999 .63160708 .17098999 .5986328V.083969119C.17098999 .050979616 .17098999 .038986207 .09098816 .038986207H.06498718V0L.22099304 .0039978029 .3769989 0V.038986207H.35099793C.2709961 .038986207 .2709961 .050979616 .2709961 .083969119V.24386597L.41299439 .35879518 .6259918 .095962528C.6339874 .08596802 .6419983 .07597351 .6419983 .064971927 .6419983 .038986207 .60899356 .038986207 .58898928 .038986207V0L.7429962 .0039978029 .86499026 0Z"/>
<path id="font_1_90" d="M.86099246-.008377075C.86099246-.00038146974 .86099246 .015625 .8450012 .015625 .83099368 .016113282 .8299866 .0041046144 .82899478-.0048828127 .82299807-.0592041 .769989-.083343509 .72698977-.083343509 .67900088-.083343509 .6519928-.0521698 .62098696 .008102417 .7669983 .06755066 .8549957 .19866944 .8549957 .33880616 .8549957 .5359802 .68499758 .70410159 .46699525 .70410159 .24899292 .70410159 .07899475 .5359802 .07899475 .33880616 .07899475 .140625 .25099183-.021484375 .46699525-.021484375 .48098756-.021484375 .5179901-.021484375 .57299807-.0084991459 .60398867-.11734009 .6259918-.19433594 .71899417-.19433594 .82099917-.19438172 .86099246-.07937622 .86099246-.008377075M.7480011 .3386078C.7480011 .16635132 .6639862 .08248901 .598999 .04762268 .57499697 .092437747 .5389862 .15234375 .46798707 .15234375 .41099549 .15234375 .36999513 .11236572 .36999513 .06654358 .36999513 .0446167 .37298585 .038619996 .3789978 .02861023 .2709961 .06454468 .18598938 .1673584 .18598938 .3386078 .18598938 .5669403 .33198548 .6690979 .46699525 .6690979 .60198977 .66833499 .7480011 .56533816 .7480011 .33833314V.3386078M.5609894 .02947998C.5589905 .02848816 .5169983 .013504028 .46699525 .013504028 .41299439 .013504028 .4019928 .050445558 .4019928 .06642151 .4019928 .09637451 .43099977 .12033081 .46798707 .12033081 .5179901 .12110901 .54299929 .085113529 .5609894 .03010559V.02947998Z"/>
<path id="font_1_49" d="M.7719879 .26600648H.7350006C.70799258 .11204529 .6799927 .0390625 .48999024 .0390625H.31999208C.2709961 .0390625 .2709961 .047058107 .2709961 .078048709V.3330078H.3789978C.47999574 .3330078 .5 .30599977 .5 .21601868H.5369873V.4888153H.5C.5 .3989563 .47999574 .37199403 .3789978 .37199403H.2709961V.600647C.2709961 .6316376 .2709961 .63964846 .31999208 .63964846H.48098756C.6469879 .6397095 .68299868 .59173586 .70199587 .4458313H.7389984L.70799258 .67871096H.06498718V.6397095H.09098816C.17098999 .6397095 .17098999 .62771609 .17098999 .59472659V.08404541C.17098999 .05105591 .17098999 .0390625 .09098816 .0390625H.06498718V0H.72499087L.7719879 .26600648Z"/>
<path id="font_1_27" d="M.84098818 0V.038986207H.81900027C.75 .038986207 .7429962 .049972536 .7319946 .076919559L.47898866 .68984988C.47099305 .7098541 .46199037 .7138672 .44799806 .7138672 .4269867 .7138672 .4229889 .70484927 .4169922 .68984988L.1749878 .103881839C.1539917 .052963258 .10798645 .038986207 .053985597 .038986207V0C.08999634 .0039978029 .12599182 .0039978029 .1619873 .0039978029 .20098877 .0039978029 .2689972 .0009918213 .28599549 0V.038986207C.23399353 .038986207 .21199036 .063949588 .21199036 .08590698 .21199036 .09190369 .21398926 .09489441 .21798706 .10588074L.2669983 .22467041H.56599429L.6259918 .08091736C.6279907 .076919559 .6309967 .06993103 .6309967 .06594849 .6309967 .038986207 .57398989 .038986207 .5469971 .038986207V0L.70199587 .0039978029 .84098818 0M.5499878 .26367188H.2829895L.4169922 .5877991 .5499878 .26367188Z"/>
<path id="font_1_42" d="M.7899933 .23370362C.7899933 .24472046 .78900149 .25473023 .7709961 .25473023 .7549896 .25473023 .7539978 .24671936 .7529907 .23770142 .7449951 .08456421 .60598757 .017501831 .49598695 .017501831 .37599183 .017501831 .18998719 .08857727 .18998719 .34179688 .18998719 .59002688 .37098695 .6651001 .49499513 .6651001 .60798647 .6651001 .72499087 .58802798 .75 .43489076 .7519989 .421875 .7529907 .41487123 .769989 .41487123 .7899933 .41487123 .7899933 .42288209 .7899933 .4429016V.6760864C.7899933 .6931 .7899933 .70410159 .7739868 .70410159 .7649994 .70410159 .7630005 .7000885 .7559967 .6911011L.70098879 .61505129C.6429901 .6730957 .56399539 .70410159 .48199464 .70410159 .2599945 .70410159 .07899475 .539978 .07899475 .34179688 .07899475 .140625 .2599945-.021484375 .48298646-.021484375 .66600039-.021484375 .7899933 .10658264 .7899933 .23370362Z"/>
<path id="font_1_34" d="M.7709961 .18389893C.7709961 .26185609 .69299319 .33979798 .5519867 .3577881 .6539917 .37477113 .7389984 .43574525 .7389984 .5126953 .7389984 .6036377 .6259918 .6826172 .48298646 .6826172H.068984989V.6436157H.09498596C.1749878 .6436157 .1749878 .63160708 .1749878 .5986328V.083969119C.1749878 .050979616 .1749878 .038986207 .09498596 .038986207H.068984989V0H.5139923C.6599884-.0001373291 .7709961 .085861209 .7709961 .18385315V.18389893M.6349945 .5126648C.6349945 .43676759 .55799868 .37086488 .44299317 .37086488H.2679901V.6045532C.2679901 .6355438 .2679901 .6435547 .31698609 .6435547H.47599793C.57499697 .6439972 .6349945 .57899478 .6349945 .5130005V.5126648M.6639862 .18499756C.6639862 .11199951 .59098818 .038986207 .47799684 .038986207H.31698609C.2679901 .0390625 .2679901 .047058107 .2679901 .078048709V.3388672H.49398805C.60198977 .3388672 .6639862 .2569275 .6639862 .1849823V.18499756Z"/>
<path id="font_1_46" d="M.83599856 .33480836C.83599856 .52767947 .6749878 .6826172 .48098756 .6826172H.066986087V.6436157H.09298706C.17298889 .6436157 .17298889 .63160708 .17298889 .5986328V.083969119C.17298889 .050979616 .17298889 .038986207 .09298706 .038986207H.066986087V0H.48199464C.6749878 0 .83599856 .14892578 .83599856 .33480836M.72898867 .33580018C.72898867 .2708435 .71798709 .1829071 .66600039 .124938968 .60398867 .05697632 .5189972 .038986207 .45399476 .038986207H.31799317C.2689972 .0390625 .2689972 .047058107 .2689972 .078048709V.6045532C.2689972 .6355438 .2689972 .6435547 .31799317 .6435547H.45298768C.5239868 .6435547 .60198977 .6215515 .6599884 .56059268 .71598818 .50064089 .72898867 .409729 .72898867 .33580018Z"/>
<path id="font_1_65" d="M.3829956 0V.038986207H.35398866C.2709961 .038986207 .2709961 .050979616 .2709961 .083969119V.5986328C.2709961 .63160708 .2709961 .6436157 .35398866 .6436157H.3829956V.6826172L.22099304 .6786041 .05899048 .6826172V.6436157H.08799744C.17098999 .6436157 .17098999 .63160708 .17098999 .5986328V.083969119C.17098999 .050979616 .17098999 .038986207 .08799744 .038986207H.05899048V0L.22099304 .0039978029 .3829956 0Z"/>
<path id="font_1_67" d="M.54599 .6436157V.6826172L.41099549 .6786041C.35798646 .6786041 .28399659 .6796112 .23199463 .6826172V.6436157H.2709961C.36999513 .6436157 .36999513 .63061526 .36999513 .5986023V.14961243C.36999513 .055633546 .30999757 .010513306 .2559967 .010513306 .24099732 .010513306 .18099976 .012512207 .13899231 .056640626 .1789856 .060638429 .19198609 .09063721 .19198609 .1136322 .19198609 .15162659 .1619873 .17063904 .1349945 .17063904 .114990238 .17063904 .07798767 .15763855 .07798767 .1116333 .07798767 .035583497 .15699768-.021484375 .2579956-.021484375 .3619995-.021392823 .46598817 .040603639 .46598817 .14860535V.60061648C.46598817 .6436157 .47599793 .6436157 .54599 .6436157Z"/>
<path id="font_1_54" d="M.7220001 .44612123 .69099429 .67871096H.06498718V.6397095H.09098816C.17098999 .6397095 .17098999 .6277313 .17098999 .59480288V.08404541C.17098999 .05101013 .17098999 .038986207 .09098816 .038986207H.06498718V0L.22399903 .0039978029C.27799989 .0039978029 .35099793 .0039978029 .4039917 0V.038986207H.36698915C.2709961 .038986207 .2709961 .05101013 .2709961 .08404541V.3203125H.37399293C.47599793 .3203125 .49299623 .29226686 .49299623 .20317078H.5299988V.47605897H.49299623C.49299623 .38723756 .47599793 .3592987 .37399293 .3592987H.2709961V.6007843C.2709961 .63171389 .2709961 .6397095 .31999208 .6397095H.46998597C.6409912 .6397095 .66600039 .5828247 .68499758 .44612123H.7220001Z"/>
<path id="font_1_58" d="M.871994 .23834229V.27734376C.84199526 .2753296 .7809906 .2733307 .73298647 .2733307 .6799927 .2733307 .59498599 .2733307 .54499819 .27734376V.23834229H.58799746C.69099429 .23834229 .69099429 .2253418 .69099429 .19236756V.12942505C.69099429 .10543823 .69099429 .067474368 .6299896 .040496828 .5799866 .017501831 .5149994 .017501831 .5049896 .017501831 .36799623 .017501831 .18998719 .09744263 .18998719 .34146119 .18998719 .59194949 .37399293 .6651001 .49499513 .6651001 .56999209 .6651001 .6259918 .6340332 .6629944 .6009674 .73298647 .5378418 .74598696 .46670533 .7519989 .42562867 .7539978 .41459657 .7669983 .41459657 .7709961 .41459657 .79100039 .41459657 .79100039 .42262269 .79100039 .44265748V.6760864C.79100039 .6931 .79100039 .70410159 .7749939 .70410159 .7659912 .70410159 .7639923 .7000885 .7569885 .6911011L.70199587 .61499026C.6429901 .6710968 .56999209 .70410159 .48298646 .70410159 .25898744 .70410159 .07899475 .5398407 .07899475 .34146119 .07899475 .14741516 .2519989-.021484375 .4869995-.021484375 .5469971-.021484375 .6629944-.012496948 .71199038 .05747986 .7319946 .028503418 .7679901-.00048828127 .7769928-.00048828127 .79100039-.00048828127 .79100039 .012512207 .79100039 .027496338V.19537354C.79100039 .23834229 .8009949 .23834229 .871994 .23834229Z"/>
<path id="font_1_62" d="M.8299866 0V.038986207H.80400088C.723999 .038986207 .723999 .050994874 .723999 .083984378V.59866335C.723999 .6316223 .723999 .6436157 .80400088 .6436157H.8299866V.6826172L.673996 .6786041 .5179901 .6826172V.6436157H.5439911C.6239929 .6436157 .6239929 .6316223 .6239929 .59866335V.3749237H.2709961V.59866335C.2709961 .6316223 .2709961 .6436157 .35099793 .6436157H.3769989V.6826172L.22099304 .6786041 .06498718 .6826172V.6436157H.09098816C.17098999 .6436157 .17098999 .6316223 .17098999 .59866335V.083984378C.17098999 .050994874 .17098999 .038986207 .09098816 .038986207H.06498718V0L.22099304 .0039978029 .3769989 0V.038986207H.35099793C.2709961 .038986207 .2709961 .050994874 .2709961 .083984378V.3359375H.6239929V.083984378C.6239929 .050994874 .6239929 .038986207 .5439911 .038986207H.5179901V0L.673996 .0039978029 .8299866 0Z"/>
</defs>
<path transform="matrix(1.00002,0,0,-1.00005,76.96264,64.1154)" stroke-width=".3985" stroke-linecap="butt" stroke-miterlimit="10" stroke-linejoin="miter" fill="none" stroke="#000000" d="M0 51.02368V-51.02368L48.52686-15.76736H-48.52686V15.76736M-29.99088-41.27922V41.27922L48.52686 15.76736 0-51.02368M48.52686 15.76736-29.99088-41.27922 0 51.02368-29.99088 41.27922"/>
<path transform="matrix(1.00002,0,0,-1.00005,76.96264,64.1154)" stroke-width=".3985" stroke-linecap="butt" stroke-miterlimit="10" stroke-linejoin="miter" fill="none" stroke="#000000" d="M0 51.02368 48.52686 15.76736 29.99088 41.27922 48.52686-15.76736 29.99088-41.27922-48.52686 15.76736-29.99088 41.27922 0-51.02368-29.99088-41.27922M-48.52686-15.76736"/>
<path transform="matrix(1.00002,0,0,-1.00005,76.96264,64.1154)" d="M1.99255 51.02368C1.99255 52.12416 1.10046 53.01624 0 53.01624-1.10046 53.01624-1.99255 52.12416-1.99255 51.02368-1.99255 49.92322-1.10046 49.03113 0 49.03113 1.10046 49.03113 1.99255 49.92322 1.99255 51.02368ZM0 51.02368"/>
<use data-text="K" xlink:href="#font_1_69" transform="matrix(5.97772,0,0,-5.9778988,66.36143,5.9024965)"/>
<use data-text="Q" xlink:href="#font_1_90" transform="matrix(5.97772,0,0,-5.9778988,71.72344,5.9024965)"/>
<use data-text="E" xlink:href="#font_1_49" transform="matrix(5.97772,0,0,-5.9778988,77.312618,5.9024965)"/>
<use data-text="A" xlink:href="#font_1_27" transform="matrix(5.97772,0,0,-5.9778988,82.20837,5.9024965)"/>
<path transform="matrix(1.00002,0,0,-1.00005,76.96264,64.1154)" d="M50.51941 15.76736C50.51941 16.86783 49.62732 17.75992 48.52686 17.75992 47.42638 17.75992 46.5343 16.86783 46.5343 15.76736 46.5343 14.66689 47.42638 13.77481 48.52686 13.77481 49.62732 13.77481 50.51941 14.66689 50.51941 15.76736ZM48.52686 15.76736"/>
<use data-text="K" xlink:href="#font_1_69" transform="matrix(5.97772,0,0,-5.9778988,131.51773,49.87169)"/>
<use data-text="Q" xlink:href="#font_1_90" transform="matrix(5.97772,0,0,-5.9778988,136.87975,49.87169)"/>
<use data-text="E" xlink:href="#font_1_49" transform="matrix(5.97772,0,0,-5.9778988,142.46892,49.87169)"/>
<use data-text="C" xlink:href="#font_1_42" transform="matrix(5.97772,0,0,-5.9778988,147.36467,49.87169)"/>
<path transform="matrix(1.00002,0,0,-1.00005,76.96264,64.1154)" d="M31.98343 41.27922C31.98343 42.37968 31.09135 43.27177 29.99088 43.27177 28.89041 43.27177 27.99832 42.37968 27.99832 41.27922 27.99832 40.17874 28.89041 39.28667 29.99088 39.28667 31.09135 39.28667 31.98343 40.17874 31.98343 41.27922ZM29.99088 41.27922"/>
<use data-text="K" xlink:href="#font_1_69" transform="matrix(5.97772,0,0,-5.9778988,96.48703,15.64698)"/>
<use data-text="Q" xlink:href="#font_1_90" transform="matrix(5.97772,0,0,-5.9778988,101.849048,15.64698)"/>
<use data-text="E" xlink:href="#font_1_49" transform="matrix(5.97772,0,0,-5.9778988,107.43822,15.64698)"/>
<use data-text="B" xlink:href="#font_1_34" transform="matrix(5.97772,0,0,-5.9778988,112.33397,15.64698)"/>
<path transform="matrix(1.00002,0,0,-1.00005,76.96264,64.1154)" d="M50.51941-15.76736C50.51941-14.66689 49.62732-13.77481 48.52686-13.77481 47.42638-13.77481 46.5343-14.66689 46.5343-15.76736 46.5343-16.86783 47.42638-17.75992 48.52686-17.75992 49.62732-17.75992 50.51941-16.86783 50.51941-15.76736ZM48.52686-15.76736"/>
<use data-text="K" xlink:href="#font_1_69" transform="matrix(5.97772,0,0,-5.9778988,131.51773,81.408267)"/>
<use data-text="Q" xlink:href="#font_1_90" transform="matrix(5.97772,0,0,-5.9778988,136.87975,81.408267)"/>
<use data-text="E" xlink:href="#font_1_49" transform="matrix(5.97772,0,0,-5.9778988,142.46892,81.408267)"/>
<use data-text="D" xlink:href="#font_1_46" transform="matrix(5.97772,0,0,-5.9778988,147.36467,81.408267)"/>
<path transform="matrix(1.00002,0,0,-1.00005,76.96264,64.1154)" d="M31.98343-41.27922C31.98343-40.17874 31.09135-39.28667 29.99088-39.28667 28.89041-39.28667 27.99832-40.17874 27.99832-41.27922 27.99832-42.37968 28.89041-43.27177 29.99088-43.27177 31.09135-43.27177 31.98343-42.37968 31.98343-41.27922ZM29.99088-41.27922"/>
<use data-text="K" xlink:href="#font_1_69" transform="matrix(5.97772,0,0,-5.9778988,96.58203,115.63197)"/>
<use data-text="Q" xlink:href="#font_1_90" transform="matrix(5.97772,0,0,-5.9778988,101.944049,115.63197)"/>
<use data-text="E" xlink:href="#font_1_49" transform="matrix(5.97772,0,0,-5.9778988,107.53322,115.63197)"/>
<use data-text="E" xlink:href="#font_1_49" transform="matrix(5.97772,0,0,-5.9778988,112.42897,115.63197)"/>
<path transform="matrix(1.00002,0,0,-1.00005,76.96264,64.1154)" d="M-46.5343 15.76736C-46.5343 16.86783-47.42638 17.75992-48.52686 17.75992-49.62732 17.75992-50.51941 16.86783-50.51941 15.76736-50.51941 14.66689-49.62732 13.77481-48.52686 13.77481-47.42638 13.77481-46.5343 14.66689-46.5343 15.76736ZM-48.52686 15.76736"/>
<use data-text="K" xlink:href="#font_1_69" transform="matrix(5.97772,0,0,-5.9778988,3.9121705,49.87169)"/>
<use data-text="Q" xlink:href="#font_1_90" transform="matrix(5.97772,0,0,-5.9778988,9.274185,49.87169)"/>
<use data-text="E" xlink:href="#font_1_49" transform="matrix(5.97772,0,0,-5.9778988,14.863358,49.87169)"/>
<use data-text="I" xlink:href="#font_1_65" transform="matrix(5.97772,0,0,-5.9778988,19.75911,49.87169)"/>
<path transform="matrix(1.00002,0,0,-1.00005,76.96264,64.1154)" d="M-27.99832 41.27922C-27.99832 42.37968-28.89041 43.27177-29.99088 43.27177-31.09135 43.27177-31.98343 42.37968-31.98343 41.27922-31.98343 40.17874-31.09135 39.28667-29.99088 39.28667-28.89041 39.28667-27.99832 40.17874-27.99832 41.27922ZM-29.99088 41.27922"/>
<use data-text="K" xlink:href="#font_1_69" transform="matrix(5.97772,0,0,-5.9778988,37.182844,15.64698)"/>
<use data-text="Q" xlink:href="#font_1_90" transform="matrix(5.97772,0,0,-5.9778988,42.544858,15.64698)"/>
<use data-text="E" xlink:href="#font_1_49" transform="matrix(5.97772,0,0,-5.9778988,48.13403,15.64698)"/>
<use data-text="J" xlink:href="#font_1_67" transform="matrix(5.97772,0,0,-5.9778988,53.02978,15.64698)"/>
<path transform="matrix(1.00002,0,0,-1.00005,76.96264,64.1154)" d="M1.99255-51.02368C1.99255-49.92322 1.10046-49.03113 0-49.03113-1.10046-49.03113-1.99255-49.92322-1.99255-51.02368-1.99255-52.12416-1.10046-53.01624 0-53.01624 1.10046-53.01624 1.99255-52.12416 1.99255-51.02368ZM0-51.02368"/>
<use data-text="K" xlink:href="#font_1_69" transform="matrix(5.97772,0,0,-5.9778988,66.68943,125.37746)"/>
<use data-text="Q" xlink:href="#font_1_90" transform="matrix(5.97772,0,0,-5.9778988,72.051448,125.37746)"/>
<use data-text="E" xlink:href="#font_1_49" transform="matrix(5.97772,0,0,-5.9778988,77.64062,125.37746)"/>
<use data-text="F" xlink:href="#font_1_54" transform="matrix(5.97772,0,0,-5.9778988,82.53637,125.37746)"/>
<path transform="matrix(1.00002,0,0,-1.00005,76.96264,64.1154)" d="M-27.99832-41.27922C-27.99832-40.17874-28.89041-39.28667-29.99088-39.28667-31.09135-39.28667-31.98343-40.17874-31.98343-41.27922-31.98343-42.37968-31.09135-43.27177-29.99088-43.27177-28.89041-43.27177-27.99832-42.37968-27.99832-41.27922ZM-29.99088-41.27922"/>
<use data-text="K" xlink:href="#font_1_69" transform="matrix(5.97772,0,0,-5.9778988,19.465489,106.92054)"/>
<use data-text="Q" xlink:href="#font_1_90" transform="matrix(5.97772,0,0,-5.9778988,24.827504,106.92054)"/>
<use data-text="E" xlink:href="#font_1_49" transform="matrix(5.97772,0,0,-5.9778988,30.416676,106.92054)"/>
<use data-text="G" xlink:href="#font_1_58" transform="matrix(5.97772,0,0,-5.9778988,35.312429,106.92054)"/>
<path transform="matrix(1.00002,0,0,-1.00005,76.96264,64.1154)" d="M-46.5343-15.76736C-46.5343-14.66689-47.42638-13.77481-48.52686-13.77481-49.62732-13.77481-50.51941-14.66689-50.51941-15.76736-50.51941-16.86783-49.62732-17.75992-48.52686-17.75992-47.42638-17.75992-46.5343-16.86783-46.5343-15.76736ZM-48.52686-15.76736"/>
<use data-text="K" xlink:href="#font_1_69" transform="matrix(5.97772,0,0,-5.9778988,1.2051239,81.408267)"/>
<use data-text="Q" xlink:href="#font_1_90" transform="matrix(5.97772,0,0,-5.9778988,6.5671389,81.408267)"/>
<use data-text="E" xlink:href="#font_1_49" transform="matrix(5.97772,0,0,-5.9778988,12.156311,81.408267)"/>
<use data-text="H" xlink:href="#font_1_62" transform="matrix(5.97772,0,0,-5.9778988,17.052063,81.408267)"/>
</svg>
