<svg xmlns="http://www.w3.org/2000/svg" xmlns:xlink="http://www.w3.org/1999/xlink" xmlns:inkscape="http://www.inkscape.org/namespaces/inkscape" version="1.1" width="63" height="35" viewBox="0 0 63 35">
<path transform="matrix(1.0001,0,0,-1.00008,31.555455,32.0116)" stroke-width=".3985" stroke-linecap="butt" stroke-miterlimit="10" stroke-linejoin="miter" fill="none" stroke="#000000" d="M-28.3468 0-14.17339 28.3468 0 0 14.17339 28.3468 28.3468 0-14.17339 28.3468M-28.3468 0 14.17339 28.3468"/>
<path transform="matrix(1.0001,0,0,-1.00008,31.555455,32.0116)" d="M-28.3468 0"/>
<path transform="matrix(1.0001,0,0,-1.00008,31.555455,32.0116)" d="M-26.35425 0C-26.35425 1.10046-27.24634 1.99255-28.3468 1.99255-29.44728 1.99255-30.33936 1.10046-30.33936 0-30.33936-1.10046-29.44728-1.99255-28.3468-1.99255-27.24634-1.99255-26.35425-1.10046-26.35425 0ZM-28.3468 0"/>
<path transform="matrix(1.0001,0,0,-1.00008,31.555455,32.0116)" d="M0 0"/>
<path transform="matrix(1.0001,0,0,-1.00008,31.555455,32.0116)" d="M1.99255 0C1.99255 1.10046 1.10046 1.99255 0 1.99255-1.10046 1.99255-1.99255 1.10046-1.99255 0-1.99255-1.10046-1.10046-1.99255 0-1.99255 1.10046-1.99255 1.99255-1.10046 1.99255 0ZM0 0"/>
<path transform="matrix(1.0001,0,0,-1.00008,31.555455,32.0116)" d="M28.3468 0"/>
<path transform="matrix(1.0001,0,0,-1.00008,31.555455,32.0116)" d="M30.33936 0C30.33936 1.10046 29.44728 1.99255 28.3468 1.99255 27.24634 1.99255 26.35425 1.10046 26.35425 0 26.35425-1.10046 27.24634-1.99255 28.3468-1.99255 29.44728-1.99255 30.33936-1.10046 30.33936 0ZM28.3468 0"/>
<path transform="matrix(1.0001,0,0,-1.00008,31.555455,32.0116)" d="M-14.17339 28.3468"/>
<path transform="matrix(1.0001,0,0,-1.00008,31.555455,32.0116)" d="M-12.18083 28.3468C-12.18083 29.44728-13.07292 30.33936-14.17339 30.33936-15.27386 30.33936-16.16594 29.44728-16.16594 28.3468-16.16594 27.24634-15.27386 26.35425-14.17339 26.35425-13.07292 26.35425-12.18083 27.24634-12.18083 28.3468ZM-14.17339 28.3468"/>
<path transform="matrix(1.0001,0,0,-1.00008,31.555455,32.0116)" d="M14.17339 28.3468"/>
<path transform="matrix(1.0001,0,0,-1.00008,31.555455,32.0116)" d="M16.16594 28.3468C16.16594 29.44728 15.27386 30.33936 14.17339 30.33936 13.07292 30.33936 12.18083 29.44728 12.18083 28.3468 12.18083 27.24634 13.07292 26.35425 14.17339 26.35425 15.27386 26.35425 16.16594 27.24634 16.16594 28.3468ZM14.17339 28.3468"/>
</svg>
