<svg xmlns="http://www.w3.org/2000/svg" xmlns:xlink="http://www.w3.org/1999/xlink" xmlns:inkscape="http://www.inkscape.org/namespaces/inkscape" version="1.1" width="63" height="52" viewBox="0 0 63 52">
<path transform="matrix(1.0001,0,0,-1.00006,31.555455,49.02322)" stroke-width=".3985" stroke-linecap="butt" stroke-miterlimit="10" stroke-linejoin="miter" fill="none" stroke="#000000" d="M-28.3468 0H0 28.3468L14.17339 22.67752 0 0-14.17339 22.67752 0 45.35506 14.17339 22.67752H-14.17339L-28.3468 0"/>
<path transform="matrix(1.0001,0,0,-1.00006,31.555455,49.02322)" d="M-26.35425 0C-26.35425 1.10046-27.24634 1.99255-28.3468 1.99255-29.44728 1.99255-30.33936 1.10046-30.33936 0-30.33936-1.10046-29.44728-1.99255-28.3468-1.99255-27.24634-1.99255-26.35425-1.10046-26.35425 0ZM-28.3468 0"/>
<path transform="matrix(1.0001,0,0,-1.00006,31.555455,49.02322)" d="M1.99255 0C1.99255 1.10046 1.10046 1.99255 0 1.99255-1.10046 1.99255-1.99255 1.10046-1.99255 0-1.99255-1.10046-1.10046-1.99255 0-1.99255 1.10046-1.99255 1.99255-1.10046 1.99255 0ZM0 0"/>
<path transform="matrix(1.0001,0,0,-1.00006,31.555455,49.02322)" d="M30.33936 0C30.33936 1.10046 29.44728 1.99255 28.3468 1.99255 27.24634 1.99255 26.35425 1.10046 26.35425 0 26.35425-1.10046 27.24634-1.99255 28.3468-1.99255 29.44728-1.99255 30.33936-1.10046 30.33936 0ZM28.3468 0"/>
<path transform="matrix(1.0001,0,0,-1.00006,31.555455,49.02322)" d="M16.16594 22.67752C16.16594 23.77798 15.27386 24.67007 14.17339 24.67007 13.07292 24.67007 12.18083 23.77798 12.18083 22.67752 12.18083 21.57704 13.07292 20.68497 14.17339 20.68497 15.27386 20.68497 16.16594 21.57704 16.16594 22.67752ZM14.17339 22.67752"/>
<path transform="matrix(1.0001,0,0,-1.00006,31.555455,49.02322)" d="M-12.18083 22.67752C-12.18083 23.77798-13.07292 24.67007-14.17339 24.67007-15.27386 24.67007-16.16594 23.77798-16.16594 22.67752-16.16594 21.57704-15.27386 20.68497-14.17339 20.68497-13.07292 20.68497-12.18083 21.57704-12.18083 22.67752ZM-14.17339 22.67752"/>
<path transform="matrix(1.0001,0,0,-1.00006,31.555455,49.02322)" d="M1.99255 45.35506C1.99255 46.45552 1.10046 47.34761 0 47.34761-1.10046 47.34761-1.99255 46.45552-1.99255 45.35506-1.99255 44.25458-1.10046 43.3625 0 43.3625 1.10046 43.3625 1.99255 44.25458 1.99255 45.35506ZM0 45.35506"/>
</svg>
