<svg xmlns="http://www.w3.org/2000/svg" xmlns:xlink="http://www.w3.org/1999/xlink" xmlns:inkscape="http://www.inkscape.org/namespaces/inkscape" version="1.1" width="67" height="76" viewBox="0 0 67 76">
<defs>
<path id="font_1_95" d="M.7319946 .08753967C.7319946 .09353638 .7319946 .104537967 .71899417 .104537967 .70799258 .104537967 .70799258 .09555054 .70700076 .08854675 .70098879 .017532349 .66600039-.00047302247 .6409912-.00047302247 .59199526-.00047302247 .58399966 .05053711 .56999209 .14355469L.5569916 .22355652C.5389862 .28756715 .48999024 .3205719 .43499757 .3395691 .5319977 .36357118 .6100006 .4245758 .6100006 .502594 .6100006 .5986023 .49598695 .6826172 .34899903 .6826172H.034988405V.6516113H.05899048C.13598633 .6516113 .13798523 .64060977 .13798523 .604599V.077545169C.13798523 .04197693 .13598633 .0309906 .05899048 .0309906H.034988405V0C.070999149 .0029907227 .14199829 .0029907227 .18099976 .0029907227 .21998596 .0029907227 .29100038 .0029907227 .32699586 0V.0309906H.30299378C.22599793 .0309906 .22399903 .04197693 .22399903 .077926639V.3305359H.33898927C.35499574 .3305359 .39698792 .3305359 .43199159 .29658509 .46998597 .26063539 .46998597 .22969055 .46998597 .16279602 .46998597 .09788513 .46998597 .05795288 .5109863 .019989014 .5519867-.016464234 .6069946-.022460938 .6369934-.022460938 .71499636-.022460938 .7319946 .059524537 .7319946 .087524417V.08753967M.5069885 .5025635C.5069885 .43354798 .48298646 .35253907 .33499146 .35253907H.22399903V.6116028C.22399903 .6345978 .22399903 .64660647 .24598694 .6496124 .2559967 .6516113 .2849884 .6516113 .30499269 .6516113 .394989 .6516113 .5069885 .6476135 .5069885 .5025635Z"/>
<path id="font_1_34" d="M.651001 .18289185C.651001 .26983644 .56900027 .34480287 .45799256 .35679627 .5549927 .3757782 .6239929 .43974305 .6239929 .51368716 .6239929 .6006317 .5319977 .6826172 .4019928 .6826172H.035995485V.6516113H.05999756C.13699341 .6516113 .13899231 .64060977 .13899231 .6046295V.07795715C.13899231 .041992189 .13699341 .0309906 .05999756 .0309906H.035995485V0H.42799378C.5609894-.0002593994 .651001 .08874512 .651001 .18273926V.18289185M.5269928 .5136719C.5269928 .44970704 .47799684 .36573792 .36698915 .36573792H.22200012V.6116333C.22200012 .64460757 .22399903 .6516113 .2709961 .6516113H.394989C.49198915 .65174868 .5269928 .56674197 .5269928 .51374819V.5136719M.5509949 .18386841C.5509949 .1129303 .49899293 .0309906 .3959961 .0309906H.2709961C.22399903 .0309906 .22200012 .037994386 .22200012 .07095337V.34375H.4099884C.5089874 .34399415 .5509949 .25099183 .5509949 .18399048V.18386841Z"/>
<path id="font_1_58" d="M.7350006 .24145508V.27246095L.61299136 .26945497C.57299807 .26945497 .48799134 .26945497 .45199586 .27246095V.24145508H.48399354C.57398989 .24145508 .57699587 .23045349 .57699587 .19346619V.12948609C.57699587 .017532349 .44999696 .008529663 .42199708 .008529663 .35699464 .008529663 .15899658 .043518068 .15899658 .34155274 .15899658 .6410217 .35598756 .67407229 .41600038 .67407229 .522995 .67407229 .6139984 .5839386 .6339874 .43670655 .6359863 .42268373 .6359863 .41967774 .6499939 .41967774 .66600039 .41967774 .66600039 .42268373 .66600039 .44371034V.68107607C.66600039 .69807437 .66600039 .7050781 .6549988 .7050781 .651001 .7050781 .6469879 .7050781 .6389923 .69306948L.58898928 .61898806C.5569916 .6510315 .5029907 .7050781 .4039917 .7050781 .21798706 .7050781 .055999757 .546875 .055999757 .34155274 .055999757 .13648987 .21598816-.022460938 .4059906-.022460938 .47898866-.022460938 .5589905 .0035247803 .59298709 .06251526 .60598757 .040527345 .6459961 .0005340576 .6569977 .0005340576 .66600039 .0005340576 .66600039 .008529663 .66600039 .023529053V.19746399C.66600039 .2364502 .66999819 .24145508 .7350006 .24145508Z"/>
</defs>
<path transform="matrix(1.00008,0,0,-1.00006,33.569089,60.47467)" stroke-width=".3985" stroke-linecap="butt" stroke-miterlimit="10" stroke-linejoin="miter" fill="none" stroke="#000000" d="M-28.3468 0H0 28.3468L14.17339 22.67752 0 0-14.17339 22.67752 0 45.35506 14.17339 22.67752H-14.17339L-28.3468 0"/>
<path transform="matrix(1.00008,0,0,-1.00006,33.569089,60.47467)" d="M-26.35425 0C-26.35425 1.10046-27.24634 1.99255-28.3468 1.99255-29.44728 1.99255-30.33936 1.10046-30.33936 0-30.33936-1.10046-29.44728-1.99255-28.3468-1.99255-27.24634-1.99255-26.35425-1.10046-26.35425 0ZM-28.3468 0"/>
<use data-text="R" xlink:href="#font_1_95" transform="matrix(10.909972,0,0,-10.909754,1.2054978,73.953479)"/>
<path transform="matrix(1.00008,0,0,-1.00006,33.569089,60.47467)" d="M1.99255 0C1.99255 1.10046 1.10046 1.99255 0 1.99255-1.10046 1.99255-1.99255 1.10046-1.99255 0-1.99255-1.10046-1.10046-1.99255 0-1.99255 1.10046-1.99255 1.99255-1.10046 1.99255 0ZM0 0"/>
<use data-text="B" xlink:href="#font_1_34" transform="matrix(10.909972,0,0,-10.909754,29.70678,73.953479)"/>
<path transform="matrix(1.00008,0,0,-1.00006,33.569089,60.47467)" d="M30.33936 0C30.33936 1.10046 29.44728 1.99255 28.3468 1.99255 27.24634 1.99255 26.35425 1.10046 26.35425 0 26.35425-1.10046 27.24634-1.99255 28.3468-1.99255 29.44728-1.99255 30.33936-1.10046 30.33936 0ZM28.3468 0"/>
<use data-text="G" xlink:href="#font_1_58" transform="matrix(10.909972,0,0,-10.909754,57.636014,74.1935)"/>
<path transform="matrix(1.00008,0,0,-1.00006,33.569089,60.47467)" d="M16.16594 22.67752C16.16594 23.77798 15.27386 24.67007 14.17339 24.67007 13.07292 24.67007 12.18083 23.77798 12.18083 22.67752 12.18083 21.57704 13.07292 20.68497 14.17339 20.68497 15.27386 20.68497 16.16594 21.57704 16.16594 22.67752ZM14.17339 22.67752"/>
<use data-text="R" xlink:href="#font_1_95" transform="matrix(10.909972,0,0,-10.909754,53.770708,41.400529)"/>
<path transform="matrix(1.00008,0,0,-1.00006,33.569089,60.47467)" d="M-12.18083 22.67752C-12.18083 23.77798-13.07292 24.67007-14.17339 24.67007-15.27386 24.67007-16.16594 23.77798-16.16594 22.67752-16.16594 21.57704-15.27386 20.68497-14.17339 20.68497-13.07292 20.68497-12.18083 21.57704-12.18083 22.67752ZM-14.17339 22.67752"/>
<use data-text="G" xlink:href="#font_1_58" transform="matrix(10.909972,0,0,-10.909754,4.802788,41.520536)"/>
<path transform="matrix(1.00008,0,0,-1.00006,33.569089,60.47467)" d="M1.99255 45.35506C1.99255 46.45552 1.10046 47.34761 0 47.34761-1.10046 47.34761-1.99255 46.45552-1.99255 45.35506-1.99255 44.25458-1.10046 43.3625 0 43.3625 1.10046 43.3625 1.99255 44.25458 1.99255 45.35506ZM0 45.35506"/>
<use data-text="B" xlink:href="#font_1_34" transform="matrix(10.909972,0,0,-10.909754,29.70678,9.08659)"/>
</svg>
