<svg xmlns="http://www.w3.org/2000/svg" xmlns:xlink="http://www.w3.org/1999/xlink" xmlns:inkscape="http://www.inkscape.org/namespaces/inkscape" version="1.1" width="127" height="133" viewBox="0 0 127 133">
<defs>
<path id="font_1_95" d="M.7319946 .08753967C.7319946 .09353638 .7319946 .104537967 .71899417 .104537967 .70799258 .104537967 .70799258 .09555054 .70700076 .08854675 .70098879 .017532349 .66600039-.00047302247 .6409912-.00047302247 .59199526-.00047302247 .58399966 .05053711 .56999209 .14355469L.5569916 .22355652C.5389862 .28756715 .48999024 .3205719 .43499757 .3395691 .5319977 .36357118 .6100006 .4245758 .6100006 .502594 .6100006 .5986023 .49598695 .6826172 .34899903 .6826172H.034988405V.6516113H.05899048C.13598633 .6516113 .13798523 .64060977 .13798523 .604599V.077545169C.13798523 .04197693 .13598633 .0309906 .05899048 .0309906H.034988405V0C.070999149 .0029907227 .14199829 .0029907227 .18099976 .0029907227 .21998596 .0029907227 .29100038 .0029907227 .32699586 0V.0309906H.30299378C.22599793 .0309906 .22399903 .04197693 .22399903 .077926639V.3305359H.33898927C.35499574 .3305359 .39698792 .3305359 .43199159 .29658509 .46998597 .26063539 .46998597 .22969055 .46998597 .16279602 .46998597 .09788513 .46998597 .05795288 .5109863 .019989014 .5519867-.016464234 .6069946-.022460938 .6369934-.022460938 .71499636-.022460938 .7319946 .059524537 .7319946 .087524417V.08753967M.5069885 .5025635C.5069885 .43354798 .48298646 .35253907 .33499146 .35253907H.22399903V.6116028C.22399903 .6345978 .22399903 .64660647 .24598694 .6496124 .2559967 .6516113 .2849884 .6516113 .30499269 .6516113 .394989 .6516113 .5069885 .6476135 .5069885 .5025635Z"/>
<path id="font_1_34" d="M.651001 .18289185C.651001 .26983644 .56900027 .34480287 .45799256 .35679627 .5549927 .3757782 .6239929 .43974305 .6239929 .51368716 .6239929 .6006317 .5319977 .6826172 .4019928 .6826172H.035995485V.6516113H.05999756C.13699341 .6516113 .13899231 .64060977 .13899231 .6046295V.07795715C.13899231 .041992189 .13699341 .0309906 .05999756 .0309906H.035995485V0H.42799378C.5609894-.0002593994 .651001 .08874512 .651001 .18273926V.18289185M.5269928 .5136719C.5269928 .44970704 .47799684 .36573792 .36698915 .36573792H.22200012V.6116333C.22200012 .64460757 .22399903 .6516113 .2709961 .6516113H.394989C.49198915 .65174868 .5269928 .56674197 .5269928 .51374819V.5136719M.5509949 .18386841C.5509949 .1129303 .49899293 .0309906 .3959961 .0309906H.2709961C.22399903 .0309906 .22200012 .037994386 .22200012 .07095337V.34375H.4099884C.5089874 .34399415 .5509949 .25099183 .5509949 .18399048V.18386841Z"/>
<path id="font_1_58" d="M.7350006 .24145508V.27246095L.61299136 .26945497C.57299807 .26945497 .48799134 .26945497 .45199586 .27246095V.24145508H.48399354C.57398989 .24145508 .57699587 .23045349 .57699587 .19346619V.12948609C.57699587 .017532349 .44999696 .008529663 .42199708 .008529663 .35699464 .008529663 .15899658 .043518068 .15899658 .34155274 .15899658 .6410217 .35598756 .67407229 .41600038 .67407229 .522995 .67407229 .6139984 .5839386 .6339874 .43670655 .6359863 .42268373 .6359863 .41967774 .6499939 .41967774 .66600039 .41967774 .66600039 .42268373 .66600039 .44371034V.68107607C.66600039 .69807437 .66600039 .7050781 .6549988 .7050781 .651001 .7050781 .6469879 .7050781 .6389923 .69306948L.58898928 .61898806C.5569916 .6510315 .5029907 .7050781 .4039917 .7050781 .21798706 .7050781 .055999757 .546875 .055999757 .34155274 .055999757 .13648987 .21598816-.022460938 .4059906-.022460938 .47898866-.022460938 .5589905 .0035247803 .59298709 .06251526 .60598757 .040527345 .6459961 .0005340576 .6569977 .0005340576 .66600039 .0005340576 .66600039 .008529663 .66600039 .023529053V.19746399C.66600039 .2364502 .66999819 .24145508 .7350006 .24145508Z"/>
<path id="font_1_83" d="M.6239929 .4967041C.6239929 .59465029 .5249939 .6826172 .3880005 .6826172H.034988405V.6516113H.05899048C.13598633 .6516113 .13798523 .64060977 .13798523 .6046295V.07795715C.13798523 .041992189 .13598633 .0309906 .05899048 .0309906H.034988405V0C.069992069 .0029907227 .14399719 .0029907227 .18199158 .0029907227 .21998596 .0029907227 .29499818 .0029907227 .32998658 0V.0309906H.30599977C.22898865 .0309906 .22698975 .041992189 .22698975 .07795715V.3157959H.3959961C.5159912 .3157959 .6239929 .39675904 .6239929 .4967041M.5209961 .4967041C.5209961 .4497223 .5209961 .34179688 .3619995 .34179688H.22399903V.6116333C.22399903 .64460757 .22599793 .6516113 .272995 .6516113H.3619995C.5209961 .6516113 .5209961 .54566958 .5209961 .4967041Z"/>
<path id="font_1_117" d="M.73799136 .6516113V.6826172C.70700076 .680603 .6669922 .6796112 .6399994 .6796112L.5249939 .6826172V.6516113C.56599429 .6516113 .58200076 .63261416 .58200076 .6126251 .58200076 .6016388 .57598879 .5886383 .57199099 .5826416L.40699769 .31481935 .22599793 .6096344C.21899414 .6196289 .21899414 .6216278 .21899414 .62661746 .21899414 .6476135 .24398804 .6516113 .2889862 .6516113V.6826172C.25299073 .6796112 .17999268 .6796112 .14099121 .6796112L.010986328 .6826172V.6516113H.0289917C.09700012 .6516113 .10499573 .64060977 .12098694 .614624L.33099366 .2728424V.07795715C.33099366 .041992189 .32899476 .0309906 .2519989 .0309906H.22799683V0C.2639923 .0029907227 .33499146 .0029907227 .37399293 .0029907227 .41299439 .0029907227 .48399354 .0029907227 .519989 0V.0309906H.49699403C.41999818 .0309906 .4169922 .040985109 .4169922 .079956058V.2728424L.6100006 .5866394C.6469879 .6476135 .70599368 .6516113 .73799136 .6516113Z"/>
</defs>
<path transform="matrix(1.00005,0,0,-1.00005,63.790437,66.37952)" stroke-width=".3985" stroke-linecap="butt" stroke-miterlimit="10" stroke-linejoin="miter" fill="none" stroke="#000000" d="M0 51.02368V-51.02368L48.52686-15.76736H-48.52686V15.76736M-29.99088-41.27922V41.27922L48.52686 15.76736 0-51.02368M48.52686 15.76736-29.99088-41.27922 0 51.02368-29.99088 41.27922"/>
<path transform="matrix(1.00005,0,0,-1.00005,63.790437,66.37952)" stroke-width="1.24535" stroke-linecap="butt" stroke-miterlimit="10" stroke-linejoin="miter" fill="none" stroke="#000000" d="M0 51.02368 48.52686 15.76736 0-51.02368-29.99088-41.27922V41.27922L0 51.02368V-51.02368L-29.99088 41.27922 48.52686 15.76736-29.99088-41.27922 0 51.02368"/>
<path transform="matrix(1.00005,0,0,-1.00005,63.790437,66.37952)" stroke-width=".3985" stroke-linecap="butt" stroke-miterlimit="10" stroke-linejoin="miter" fill="none" stroke="#000000" d="M0 51.02368 48.52686 15.76736 29.99088 41.27922 48.52686-15.76736 29.99088-41.27922-48.52686 15.76736-29.99088 41.27922 0-51.02368-29.99088-41.27922M-48.52686-15.76736"/>
<path transform="matrix(1.00005,0,0,-1.00005,63.790437,66.37952)" d="M1.99255 51.02368C1.99255 52.12416 1.10046 53.01624 0 53.01624-1.10046 53.01624-1.99255 52.12416-1.99255 51.02368-1.99255 49.92322-1.10046 49.03113 0 49.03113 1.10046 49.03113 1.99255 49.92322 1.99255 51.02368ZM0 51.02368"/>
<use data-text="R" xlink:href="#font_1_95" transform="matrix(10.909644,0,0,-10.909644,59.775236,9.085655)"/>
<path transform="matrix(1.00005,0,0,-1.00005,63.790437,66.37952)" d="M50.51941 15.76736C50.51941 16.86783 49.62732 17.75992 48.52686 17.75992 47.42638 17.75992 46.5343 16.86783 46.5343 15.76736 46.5343 14.66689 47.42638 13.77481 48.52686 13.77481 49.62732 13.77481 50.51941 14.66689 50.51941 15.76736ZM48.52686 15.76736"/>
<use data-text="B" xlink:href="#font_1_34" transform="matrix(10.909644,0,0,-10.909644,118.34716,54.336915)"/>
<path transform="matrix(1.00005,0,0,-1.00005,63.790437,66.37952)" d="M31.98343 41.27922C31.98343 42.37968 31.09135 43.27177 29.99088 43.27177 28.89041 43.27177 27.99832 42.37968 27.99832 41.27922 27.99832 40.17874 28.89041 39.28667 29.99088 39.28667 31.09135 39.28667 31.98343 40.17874 31.98343 41.27922ZM29.99088 41.27922"/>
<use data-text="G" xlink:href="#font_1_58" transform="matrix(10.909644,0,0,-10.909644,89.50072,18.831139)"/>
<path transform="matrix(1.00005,0,0,-1.00005,63.790437,66.37952)" d="M50.51941-15.76736C50.51941-14.66689 49.62732-13.77481 48.52686-13.77481 47.42638-13.77481 46.5343-14.66689 46.5343-15.76736 46.5343-16.86783 47.42638-17.75992 48.52686-17.75992 49.62732-17.75992 50.51941-16.86783 50.51941-15.76736ZM48.52686-15.76736"/>
<use data-text="B" xlink:href="#font_1_34" transform="matrix(10.909644,0,0,-10.909644,118.34716,85.87349)"/>
<path transform="matrix(1.00005,0,0,-1.00005,63.790437,66.37952)" d="M31.98343-41.27922C31.98343-40.17874 31.09135-39.28667 29.99088-39.28667 28.89041-39.28667 27.99832-40.17874 27.99832-41.27922 27.99832-42.37968 28.89041-43.27177 29.99088-43.27177 31.09135-43.27177 31.98343-42.37968 31.98343-41.27922ZM29.99088-41.27922"/>
<use data-text="G" xlink:href="#font_1_58" transform="matrix(10.909644,0,0,-10.909644,89.50072,121.37926)"/>
<path transform="matrix(1.00005,0,0,-1.00005,63.790437,66.37952)" d="M-46.5343 15.76736C-46.5343 16.86783-47.42638 17.75992-48.52686 17.75992-49.62732 17.75992-50.51941 16.86783-50.51941 15.76736-50.51941 14.66689-49.62732 13.77481-48.52686 13.77481-47.42638 13.77481-46.5343 14.66689-46.5343 15.76736ZM-48.52686 15.76736"/>
<use data-text="B" xlink:href="#font_1_34" transform="matrix(10.909644,0,0,-10.909644,1.5103302,54.336915)"/>
<path transform="matrix(1.00005,0,0,-1.00005,63.790437,66.37952)" d="M-27.99832 41.27922C-27.99832 42.37968-28.89041 43.27177-29.99088 43.27177-31.09135 43.27177-31.98343 42.37968-31.98343 41.27922-31.98343 40.17874-31.09135 39.28667-29.99088 39.28667-28.89041 39.28667-27.99832 40.17874-27.99832 41.27922ZM-29.99088 41.27922"/>
<use data-text="P" xlink:href="#font_1_83" transform="matrix(10.909644,0,0,-10.909644,30.083752,19.071156)"/>
<path transform="matrix(1.00005,0,0,-1.00005,63.790437,66.37952)" d="M1.99255-51.02368C1.99255-49.92322 1.10046-49.03113 0-49.03113-1.10046-49.03113-1.99255-49.92322-1.99255-51.02368-1.99255-52.12416-1.10046-53.01624 0-53.01624 1.10046-53.01624 1.99255-52.12416 1.99255-51.02368ZM0-51.02368"/>
<use data-text="G" xlink:href="#font_1_58" transform="matrix(10.909644,0,0,-10.909644,59.50822,131.12474)"/>
<path transform="matrix(1.00005,0,0,-1.00005,63.790437,66.37952)" d="M-27.99832-41.27922C-27.99832-40.17874-28.89041-39.28667-29.99088-39.28667-31.09135-39.28667-31.98343-40.17874-31.98343-41.27922-31.98343-42.37968-31.09135-43.27177-29.99088-43.27177-28.89041-43.27177-27.99832-42.37968-27.99832-41.27922ZM-29.99088-41.27922"/>
<use data-text="Y" xlink:href="#font_1_117" transform="matrix(10.909644,0,0,-10.909644,19.588227,111.386768)"/>
<path transform="matrix(1.00005,0,0,-1.00005,63.790437,66.37952)" d="M-46.5343-15.76736C-46.5343-14.66689-47.42638-13.77481-48.52686-13.77481-49.62732-13.77481-50.51941-14.66689-50.51941-15.76736-50.51941-16.86783-49.62732-17.75992-48.52686-17.75992-47.42638-17.75992-46.5343-16.86783-46.5343-15.76736ZM-48.52686-15.76736"/>
<use data-text="R" xlink:href="#font_1_95" transform="matrix(10.909644,0,0,-10.909644,1.2043152,85.75348)"/>
</svg>
