<svg xmlns="http://www.w3.org/2000/svg" xmlns:xlink="http://www.w3.org/1999/xlink" xmlns:inkscape="http://www.inkscape.org/namespaces/inkscape" version="1.1" width="77" height="138" viewBox="0 0 77 138">
<defs>
<path id="font_1_1" d="M.22599793 .12182617C.18798828 .063949588 .1539917 .04397583 .09799194 .039993287 .083999637 .038986207 .07199097 .037994386 .07199097 .01499939 .07199097 .004989624 .07998657 0 .08699036 0 .114990238 0 .147995 .0039978029 .1769867 .0039978029 .20098877 .0039978029 .2599945 0 .28399659 0 .29499818 0 .30599977 .004989624 .30599977 .024993897 .30599977 .038986207 .2919922 .039993287 .2889862 .039993287 .2649994 .040985109 .24299622 .04698181 .24299622 .06893921 .24299622 .0809021 .2539978 .09786987 .25698854 .10386658L.33898927 .22662354H.6399994L.66600039 .06593323C.66600039 .039993287 .60798647 .039993287 .59799197 .039993287 .58499148 .039993287 .56900027 .039993287 .56900027 .01499939 .56900027 .009994507 .57398989 0 .58599856 0 .6159973 0 .68899539 .0039978029 .71899417 .0039978029 .7389984 .0039978029 .7579956 .0029907227 .7779999 .0029907227 .7979889 .0029907227 .81999209 0 .83898928 0 .8450012 0 .86099246 0 .86099246 .024993897 .86099246 .039993287 .84799197 .039993287 .83299258 .039993287 .7709961 .039993287 .769989 .04698181 .7659912 .07192993L.66600039 .68685916C.6629944 .7048645 .6619873 .7138672 .6399994 .7138672 .61898806 .7138672 .61299136 .7058563 .60398867 .691864L.22599793 .12182617M.36499024 .26661683 .58099368 .5917969 .6329956 .26661683H.36499024Z"/>
<path id="font_1_2" d="M.20999146 .082977298C.20098877 .04698181 .19898987 .039993287 .12399292 .039993287 .101989749 .039993287 .099990848 .039993287 .09599304 .036987306 .09098816 .032989503 .08699036 .019989014 .08699036 .01399231 .08999634 0 .09899902 0 .11898804 0H.526001C.69898989 0 .83499148 .112960819 .83499148 .21292115 .83499148 .27488709 .7809906 .3408661 .6559906 .35786439 .7709961 .3758545 .8849945 .4487915 .8849945 .53970339 .8849945 .6116333 .80599978 .6826172 .6649933 .6826172H.28199769C.2630005 .6826172 .24798584 .6826172 .24798584 .65760806 .24798584 .64260867 .2630005 .64260867 .2809906 .64260867 .29899598 .64260867 .32398988 .64260867 .34498597 .6356201 .34498597 .6256256 .34498597 .6196289 .34098817 .6036377L.20999146 .082977298M.37399293 .3718567 .43299867 .6086426C.44099427 .64060977 .44198609 .64260867 .48399354 .64260867H.6489868C.7529907 .64260867 .7829895 .57966616 .7829895 .53770449 .7829895 .45578004 .67900088 .3718567 .55599978 .3718567H.37399293M.32598878 .039993287C.30699159 .039993287 .30499269 .039993287 .29299928 .04298401L.36499024 .3388672H.58299258C.70899966 .3388672 .7299957 .2578888 .7299957 .21791077 .7299957 .12194824 .6239929 .039993287 .5 .039993287H.32598878Z"/>
<path id="font_1_3" d="M.8889923 .6750946C.8909912 .6840973 .8919983 .6880951 .8919983 .690094 .8919983 .6920929 .8909912 .70410159 .8769989 .70410159 .86898806 .70410159 .8679962 .7030945 .8580017 .6920929L.7829895 .6140442C.72898867 .6810913 .6559906 .70410159 .58399966 .70410159 .32998658 .70410159 .084991458 .48994447 .084991458 .2667389 .084991458 .094573978 .22499085-.021484375 .41099549-.021484375 .5149994-.021484375 .60598757 .021514893 .6649933 .06755066 .7639923 .1466217 .7799988 .23570252 .7799988 .2407074 .7799988 .25071717 .7709961 .25473023 .7619934 .25473023 .75 .25473023 .74598696 .25071717 .7429962 .2407074 .69499209 .08456421 .5379944 .018508912 .4269867 .018508912 .35299684 .018508912 .18998719 .048538209 .18998719 .2387085 .18998719 .27874757 .19898987 .41687013 .30899049 .5379791 .3619995 .59703066 .46899415 .664093 .59399417 .664093 .72299197 .664093 .7899933 .5720062 .7899933 .46691896 .7899933 .4499054 .7869873 .43188478 .7869873 .42988587 .7869873 .41487123 .8019867 .41487123 .8069916 .41487123 .81999209 .41487123 .82499697 .41586305 .8299866 .43688966L.8889923 .6750946Z"/>
<path id="font_1_4" d="M.20899964 .082962039C.19999695 .04698181 .19799805 .039993287 .12298584 .039993287 .100997928 .039993287 .09899902 .039993287 .09498596 .036987306 .08999634 .032989503 .085998538 .019989014 .085998538 .01399231 .08898926 0 .09799194 0 .117996219 0H.49398805C.7200012 0 .94400027 .19688416 .94400027 .41674806 .94400027 .5756531 .8279877 .6826172 .6639862 .6826172H.2809906C.26098634 .6826172 .24699402 .6826172 .24699402 .65760806 .24699402 .64260867 .2619934 .64260867 .27999879 .64260867 .2979889 .64260867 .32299806 .64260867 .34399415 .63560488 .34399415 .62561038 .34399415 .6196289 .33999635 .6036377L.20899964 .082962039M.43499757 .6086273C.44299317 .64060977 .44299317 .64260867 .48599244 .64260867H.6259918C.7429962 .64260867 .8450012 .5866394 .8450012 .44873048 .8450012 .41575624 .83200076 .25585938 .73599246 .1499176 .6839905 .09196472 .59298709 .039993287 .47599793 .039993287H.32798768C.30899049 .039993287 .30699159 .039993287 .29499818 .04298401L.43499757 .6086273Z"/>
<path id="font_1_5" d="M.36698915 .33200074H.48599244C.57598879 .33200074 .5799866 .31500245 .5799866 .28399659 .5799866 .2599945 .57699587 .24899292 .57099917 .2290039 .57099917 .22799683 .57299807 .21499634 .58999636 .21499634 .60398867 .21499634 .60598757 .22000122 .6100006 .23699951L.66999819 .47485353C.66999819 .47584535 .66799929 .48883058 .651001 .48883058 .6359863 .48883058 .6339874 .48184205 .6309967 .4688568 .60899356 .38697816 .58200076 .37199403 .48799134 .37199403H.37799073L.43598939 .60466006C.44400025 .63661196 .44499208 .63861086 .4869995 .63861086H.6609955C.7939911 .63861086 .83399966 .61564639 .83399966 .51878359 .83399966 .5008087 .8299866 .47885133 .8299866 .4618683 .8299866 .4449005 .84399417 .4449005 .848999 .4449005 .86499026 .4449005 .8659973 .45288087 .8679962 .4708557L.8860016 .6476135C.8889923 .6786041 .8809967 .6786041 .85598757 .6786041H.27799989C.25898744 .6786041 .24499512 .6786041 .24499512 .6536102 .24499512 .63861086 .2579956 .63861086 .2769928 .63861086 .29499818 .63861086 .31999208 .63861086 .34098817 .6316223 .34098817 .62164309 .34098817 .61564639 .33699037 .5996704L.20698548 .08299255C.19799805 .04699707 .19599915 .039993287 .12098694 .039993287 .09799194 .039993287 .084991458 .039993287 .084991458 .01499939 .084991458 0 .09799194 0 .115997318 0H.70999148C.7299957 0 .7319946 0 .73599246 .0029907227 .7389984 .005996704 .7389984 .0079956059 .74598696 .019989014 .7579956 .04699707 .84799197 .24499512 .84799197 .2519989 .84799197 .2669983 .83299258 .2669983 .82899478 .2669983 .81599429 .2669983 .8149872 .2639923 .80400088 .24099732 .7369995 .09098816 .68499758 .039993287 .5119934 .039993287H.32998658C.31098939 .039993287 .30899049 .039993287 .29699708 .042999269L.36698915 .33200074Z"/>
<path id="font_2_1" d="M.35899354 .6349335C.35899354 .66503909 .35499574 .66503909 .32499696 .66503909 .25898744 .60058596 .15699768 .60058596 .12098694 .60058596V.5615845C.14698792 .5615845 .21299744 .5615845 .272995 .58958438V.08496094C.272995 .051986696 .272995 .038986207 .16999817 .038986207H.1269989V0C.18199158 .0039978029 .2599945 .0039978029 .31599427 .0039978029 .37199403 .0039978029 .44999696 .0039978029 .5049896 0V.038986207H.46199037C.35899354 .038986207 .35899354 .051986696 .35899354 .08496094V.6349335Z"/>
<path id="font_2_2" d="M.5379944 .18702698H.5009918C.49899293 .17301941 .4889984 .10699463 .47399903 .09599304 .46699525 .08999634 .38598634 .08999634 .37199403 .08999634H.18499756L.31298829 .19403076C.34700013 .22103882 .43598939 .28504945 .46699525 .31506349 .49699403 .3450775 .5379944 .39608766 .5379944 .46710206 .5379944 .5920563 .4249878 .66503909 .29100038 .66503909 .1619873 .66503909 .07199097 .58006289 .07199097 .48609925 .07199097 .43510438 .114990238 .42910768 .12599182 .42910768 .15098572 .42910768 .17999268 .44709779 .17999268 .48310853 .17999268 .50509646 .16699219 .5371094 .12298584 .5371094 .1459961 .5880585 .20698548 .6260376 .27598573 .6260376 .3809967 .6260376 .43699647 .5480957 .43699647 .46710206 .43699647 .39608766 .3899994 .32305909 .31999208 .25904847L.08299255 .041992189C.07299805 .03199768 .07199097 .0309906 .07199097 0H.5069885L.5379944 .18702698Z"/>
<path id="font_2_3" d="M.2939911 .33203126C.3789978 .33203126 .43598939 .274765 .43598939 .17237854 .43598939 .062408449 .36999513 .014511108 .29699708 .014511108 .269989 .014511108 .16699219 .020492554 .12199402 .07836914 .16099549 .0823822 .1769867 .10836792 .1769867 .13537598 .1769867 .16937256 .15299988 .19238281 .11999512 .19238281 .09298706 .19238281 .06298828 .17536927 .06298828 .13337708 .06298828 .034469606 .17298889-.021484375 .2999878-.021484375 .44799806-.021484375 .5469971 .07337952 .5469971 .17237854 .5469971 .24562073 .4909973 .3229828 .37199403 .35302735 .45098878 .37902833 .5149994 .44306947 .5149994 .5251007 .5149994 .60505679 .42099 .66503909 .30099488 .66503909 .18399048 .66503909 .09498596 .61105349 .09498596 .5290985 .09498596 .48609925 .12799073 .47409059 .147995 .47409059 .17399597 .47409059 .20098877 .49209596 .20098877 .5270996 .20098877 .5580902 .1789856 .5760956 .1519928 .5800934 .19898987 .6320343 .2899933 .6320343 .29899598 .6320343 .34999085 .6320343 .4139862 .60806277 .4139862 .5251007 .4139862 .47009278 .3829956 .37402345 .2829895 .36802674 .2649994 .36701966 .23799134 .36502076 .22898865 .36502076 .21899414 .36402894 .20799256 .36302186 .20799256 .34802247 .20799256 .33203126 .21899414 .33203126 .23599243 .33203126H.2939911Z"/>
</defs>
<path transform="matrix(1.00006,0,0,-1,3.2053719,68.875)" stroke-width=".3985" stroke-linecap="butt" stroke-miterlimit="10" stroke-linejoin="miter" fill="none" stroke="#000000" d="M0 0 28.3468 56.69362M0 0 28.3468 28.3468M0 0H28.3468M0 0 28.3468-28.3468M0 0 28.3468-56.69362"/>
<path transform="matrix(1.00006,0,0,-1,3.2053719,68.875)" d="M1.99255 0C1.99255 1.10046 1.10046 1.99255 0 1.99255-1.10046 1.99255-1.99255 1.10046-1.99255 0-1.99255-1.10046-1.10046-1.99255 0-1.99255 1.10046-1.99255 1.99255-1.10046 1.99255 0ZM0 0"/>
<path transform="matrix(1.00006,0,0,-1,3.2053719,68.875)" d="M30.33936 56.69362C30.33936 57.79408 29.44728 58.68617 28.3468 58.68617 27.24634 58.68617 26.35425 57.79408 26.35425 56.69362 26.35425 55.59314 27.24634 54.70107 28.3468 54.70107 29.44728 54.70107 30.33936 55.59314 30.33936 56.69362ZM28.3468 56.69362"/>
<use data-text="A" xlink:href="#font_1_1" transform="matrix(5.9779589,0,0,-5.9776,20.002379,14.223999)"/>
<path transform="matrix(1.00006,0,0,-1,3.2053719,68.875)" d="M30.33936 28.3468C30.33936 29.44728 29.44728 30.33936 28.3468 30.33936 27.24634 30.33936 26.35425 29.44728 26.35425 28.3468 26.35425 27.24634 27.24634 26.35425 28.3468 26.35425 29.44728 26.35425 30.33936 27.24634 30.33936 28.3468ZM28.3468 28.3468"/>
<use data-text="B" xlink:href="#font_1_2" transform="matrix(5.9779589,0,0,-5.9776,19.701363,42.571)"/>
<path transform="matrix(1.00006,0,0,-1,3.2053719,68.875)" d="M30.33936 0C30.33936 1.10046 29.44728 1.99255 28.3468 1.99255 27.24634 1.99255 26.35425 1.10046 26.35425 0 26.35425-1.10046 27.24634-1.99255 28.3468-1.99255 29.44728-1.99255 30.33936-1.10046 30.33936 0ZM28.3468 0"/>
<use data-text="C" xlink:href="#font_1_3" transform="matrix(5.9779589,0,0,-5.9776,19.83037,70.917)"/>
<path transform="matrix(1.00006,0,0,-1,3.2053719,68.875)" d="M30.33936-28.3468C30.33936-27.24634 29.44728-26.35425 28.3468-26.35425 27.24634-26.35425 26.35425-27.24634 26.35425-28.3468 26.35425-29.44728 27.24634-30.33936 28.3468-30.33936 29.44728-30.33936 30.33936-29.44728 30.33936-28.3468ZM28.3468-28.3468"/>
<use data-text="D" xlink:href="#font_1_4" transform="matrix(5.9779589,0,0,-5.9776,19.365342,99.264)"/>
<path transform="matrix(1.00006,0,0,-1,3.2053719,68.875)" d="M30.33936-56.69362C30.33936-55.59314 29.44728-54.70107 28.3468-54.70107 27.24634-54.70107 26.35425-55.59314 26.35425-56.69362 26.35425-57.79408 27.24634-58.68617 28.3468-58.68617 29.44728-58.68617 30.33936-57.79408 30.33936-56.69362ZM28.3468-56.69362"/>
<use data-text="E" xlink:href="#font_1_5" transform="matrix(5.9779589,0,0,-5.9776,19.82837,127.611)"/>
<path transform="matrix(1.00006,0,0,-1,3.2053719,68.875)" stroke-width=".3985" stroke-linecap="butt" stroke-miterlimit="10" stroke-linejoin="miter" fill="none" stroke="#000000" d="M28.3468 56.69362 56.69362 65.19774M28.3468 56.69362H56.69362M28.3468 56.69362 56.69362 48.18947"/>
<path transform="matrix(1.00006,0,0,-1,3.2053719,68.875)" d="M58.68617 65.19774C58.68617 66.2982 57.79408 67.19029 56.69362 67.19029 55.59314 67.19029 54.70107 66.2982 54.70107 65.19774 54.70107 64.09726 55.59314 63.20518 56.69362 63.20518 57.79408 63.20518 58.68617 64.09726 58.68617 65.19774ZM56.69362 65.19774"/>
<use data-text="1" xlink:href="#font_2_1" transform="matrix(5.9779589,0,0,-5.9776,50.22219,5.6030008)"/>
<path transform="matrix(1.00006,0,0,-1,3.2053719,68.875)" d="M58.68617 56.69362C58.68617 57.79408 57.79408 58.68617 56.69362 58.68617 55.59314 58.68617 54.70107 57.79408 54.70107 56.69362 54.70107 55.59314 55.59314 54.70107 56.69362 54.70107 57.79408 54.70107 58.68617 55.59314 58.68617 56.69362ZM56.69362 56.69362"/>
<use data-text="2" xlink:href="#font_2_2" transform="matrix(5.9779589,0,0,-5.9776,50.22219,14.108002)"/>
<path transform="matrix(1.00006,0,0,-1,3.2053719,68.875)" d="M58.68617 48.18947C58.68617 49.28995 57.79408 50.18202 56.69362 50.18202 55.59314 50.18202 54.70107 49.28995 54.70107 48.18947 54.70107 47.089 55.59314 46.19691 56.69362 46.19691 57.79408 46.19691 58.68617 47.089 58.68617 48.18947ZM56.69362 48.18947"/>
<use data-text="3" xlink:href="#font_2_3" transform="matrix(5.9779589,0,0,-5.9776,50.22219,22.612)"/>
<path transform="matrix(1.00006,0,0,-1,3.2053719,68.875)" stroke-width=".3985" stroke-linecap="butt" stroke-miterlimit="10" stroke-linejoin="miter" fill="none" stroke="#000000" d="M28.3468 28.3468 56.69362 36.85092M28.3468 28.3468H56.69362M28.3468 28.3468 56.69362 19.84267"/>
<path transform="matrix(1.00006,0,0,-1,3.2053719,68.875)" d="M58.68617 36.85092C58.68617 37.9514 57.79408 38.84348 56.69362 38.84348 55.59314 38.84348 54.70107 37.9514 54.70107 36.85092 54.70107 35.75046 55.59314 34.85837 56.69362 34.85837 57.79408 34.85837 58.68617 35.75046 58.68617 36.85092ZM56.69362 36.85092"/>
<use data-text="1" xlink:href="#font_2_1" transform="matrix(5.9779589,0,0,-5.9776,50.22219,33.95)"/>
<path transform="matrix(1.00006,0,0,-1,3.2053719,68.875)" d="M58.68617 28.3468C58.68617 29.44728 57.79408 30.33936 56.69362 30.33936 55.59314 30.33936 54.70107 29.44728 54.70107 28.3468 54.70107 27.24634 55.59314 26.35425 56.69362 26.35425 57.79408 26.35425 58.68617 27.24634 58.68617 28.3468ZM56.69362 28.3468"/>
<use data-text="2" xlink:href="#font_2_2" transform="matrix(5.9779589,0,0,-5.9776,50.22219,42.454004)"/>
<path transform="matrix(1.00006,0,0,-1,3.2053719,68.875)" d="M58.68617 19.84267C58.68617 20.94313 57.79408 21.83522 56.69362 21.83522 55.59314 21.83522 54.70107 20.94313 54.70107 19.84267 54.70107 18.74219 55.59314 17.85011 56.69362 17.85011 57.79408 17.85011 58.68617 18.74219 58.68617 19.84267ZM56.69362 19.84267"/>
<use data-text="3" xlink:href="#font_2_3" transform="matrix(5.9779589,0,0,-5.9776,50.22219,50.958)"/>
<path transform="matrix(1.00006,0,0,-1,3.2053719,68.875)" stroke-width=".3985" stroke-linecap="butt" stroke-miterlimit="10" stroke-linejoin="miter" fill="none" stroke="#000000" d="M28.3468 0 56.69362 8.50412M28.3468 0H56.69362M28.3468 0 56.69362-8.50412"/>
<path transform="matrix(1.00006,0,0,-1,3.2053719,68.875)" d="M58.68617 8.50412C58.68617 9.60458 57.79408 10.49667 56.69362 10.49667 55.59314 10.49667 54.70107 9.60458 54.70107 8.50412 54.70107 7.40364 55.59314 6.51157 56.69362 6.51157 57.79408 6.51157 58.68617 7.40364 58.68617 8.50412ZM56.69362 8.50412"/>
<use data-text="1" xlink:href="#font_2_1" transform="matrix(5.9779589,0,0,-5.9776,50.22219,62.297)"/>
<path transform="matrix(1.00006,0,0,-1,3.2053719,68.875)" d="M58.68617 0C58.68617 1.10046 57.79408 1.99255 56.69362 1.99255 55.59314 1.99255 54.70107 1.10046 54.70107 0 54.70107-1.10046 55.59314-1.99255 56.69362-1.99255 57.79408-1.99255 58.68617-1.10046 58.68617 0ZM56.69362 0"/>
<use data-text="2" xlink:href="#font_2_2" transform="matrix(5.9779589,0,0,-5.9776,50.22219,70.801)"/>
<path transform="matrix(1.00006,0,0,-1,3.2053719,68.875)" d="M58.68617-8.50412C58.68617-7.40364 57.79408-6.51157 56.69362-6.51157 55.59314-6.51157 54.70107-7.40364 54.70107-8.50412 54.70107-9.60458 55.59314-10.49667 56.69362-10.49667 57.79408-10.49667 58.68617-9.60458 58.68617-8.50412ZM56.69362-8.50412"/>
<use data-text="3" xlink:href="#font_2_3" transform="matrix(5.9779589,0,0,-5.9776,50.22219,79.305)"/>
<path transform="matrix(1.00006,0,0,-1,3.2053719,68.875)" stroke-width=".3985" stroke-linecap="butt" stroke-miterlimit="10" stroke-linejoin="miter" fill="none" stroke="#000000" d="M28.3468-28.3468 56.69362-19.84267M28.3468-28.3468H56.69362M28.3468-28.3468 56.69362-36.85092"/>
<path transform="matrix(1.00006,0,0,-1,3.2053719,68.875)" d="M58.68617-19.84267C58.68617-18.74219 57.79408-17.85011 56.69362-17.85011 55.59314-17.85011 54.70107-18.74219 54.70107-19.84267 54.70107-20.94313 55.59314-21.83522 56.69362-21.83522 57.79408-21.83522 58.68617-20.94313 58.68617-19.84267ZM56.69362-19.84267"/>
<use data-text="1" xlink:href="#font_2_1" transform="matrix(5.9779589,0,0,-5.9776,50.22219,90.644)"/>
<path transform="matrix(1.00006,0,0,-1,3.2053719,68.875)" d="M58.68617-28.3468C58.68617-27.24634 57.79408-26.35425 56.69362-26.35425 55.59314-26.35425 54.70107-27.24634 54.70107-28.3468 54.70107-29.44728 55.59314-30.33936 56.69362-30.33936 57.79408-30.33936 58.68617-29.44728 58.68617-28.3468ZM56.69362-28.3468"/>
<use data-text="2" xlink:href="#font_2_2" transform="matrix(5.9779589,0,0,-5.9776,50.22219,99.148)"/>
<path transform="matrix(1.00006,0,0,-1,3.2053719,68.875)" d="M58.68617-36.85092C58.68617-35.75046 57.79408-34.85837 56.69362-34.85837 55.59314-34.85837 54.70107-35.75046 54.70107-36.85092 54.70107-37.9514 55.59314-38.84348 56.69362-38.84348 57.79408-38.84348 58.68617-37.9514 58.68617-36.85092ZM56.69362-36.85092"/>
<use data-text="3" xlink:href="#font_2_3" transform="matrix(5.9779589,0,0,-5.9776,50.22219,107.652)"/>
<path transform="matrix(1.00006,0,0,-1,3.2053719,68.875)" stroke-width=".3985" stroke-linecap="butt" stroke-miterlimit="10" stroke-linejoin="miter" fill="none" stroke="#000000" d="M28.3468-56.69362 56.69362-48.18947M28.3468-56.69362H56.69362M28.3468-56.69362 56.69362-65.19774"/>
<path transform="matrix(1.00006,0,0,-1,3.2053719,68.875)" d="M58.68617-48.18947C58.68617-47.089 57.79408-46.19691 56.69362-46.19691 55.59314-46.19691 54.70107-47.089 54.70107-48.18947 54.70107-49.28995 55.59314-50.18202 56.69362-50.18202 57.79408-50.18202 58.68617-49.28995 58.68617-48.18947ZM56.69362-48.18947"/>
<use data-text="1" xlink:href="#font_2_1" transform="matrix(5.9779589,0,0,-5.9776,50.22219,118.991)"/>
<path transform="matrix(1.00006,0,0,-1,3.2053719,68.875)" d="M58.68617-56.69362C58.68617-55.59314 57.79408-54.70107 56.69362-54.70107 55.59314-54.70107 54.70107-55.59314 54.70107-56.69362 54.70107-57.79408 55.59314-58.68617 56.69362-58.68617 57.79408-58.68617 58.68617-57.79408 58.68617-56.69362ZM56.69362-56.69362"/>
<use data-text="2" xlink:href="#font_2_2" transform="matrix(5.9779589,0,0,-5.9776,50.22219,127.494998)"/>
<path transform="matrix(1.00006,0,0,-1,3.2053719,68.875)" d="M58.68617-65.19774C58.68617-64.09726 57.79408-63.20518 56.69362-63.20518 55.59314-63.20518 54.70107-64.09726 54.70107-65.19774 54.70107-66.2982 55.59314-67.19029 56.69362-67.19029 57.79408-67.19029 58.68617-66.2982 58.68617-65.19774ZM56.69362-65.19774"/>
<use data-text="3" xlink:href="#font_2_3" transform="matrix(5.9779589,0,0,-5.9776,50.22219,135.999)"/>
<path transform="matrix(1.00006,0,0,-1,3.2053719,68.875)" stroke-width=".3985" stroke-linecap="butt" stroke-miterlimit="10" stroke-linejoin="miter" fill="none" stroke="#000000" d="M59.52846-65.19774"/>
<use data-text="A" xlink:href="#font_1_1" transform="matrix(5.9779589,0,0,-5.9776,66.573169,5.720001)"/>
<use data-text="1" xlink:href="#font_2_1" transform="matrix(5.9779589,0,0,-5.9776,72.0975,5.720001)"/>
<use data-text="A" xlink:href="#font_1_1" transform="matrix(5.9779589,0,0,-5.9776,66.573169,14.223999)"/>
<use data-text="2" xlink:href="#font_2_2" transform="matrix(5.9779589,0,0,-5.9776,72.0975,14.223999)"/>
<use data-text="A" xlink:href="#font_1_1" transform="matrix(5.9779589,0,0,-5.9776,66.573169,22.728)"/>
<use data-text="3" xlink:href="#font_2_3" transform="matrix(5.9779589,0,0,-5.9776,72.0975,22.728)"/>
<use data-text="B" xlink:href="#font_1_2" transform="matrix(5.9779589,0,0,-5.9776,66.573169,34.066)"/>
<use data-text="1" xlink:href="#font_2_1" transform="matrix(5.9779589,0,0,-5.9776,72.39852,34.066)"/>
<use data-text="B" xlink:href="#font_1_2" transform="matrix(5.9779589,0,0,-5.9776,66.573169,42.571)"/>
<use data-text="2" xlink:href="#font_2_2" transform="matrix(5.9779589,0,0,-5.9776,72.39852,42.571)"/>
<use data-text="B" xlink:href="#font_1_2" transform="matrix(5.9779589,0,0,-5.9776,66.573169,51.075)"/>
<use data-text="3" xlink:href="#font_2_3" transform="matrix(5.9779589,0,0,-5.9776,72.39852,51.075)"/>
<use data-text="C" xlink:href="#font_1_3" transform="matrix(5.9779589,0,0,-5.9776,66.573169,62.413003)"/>
<use data-text="1" xlink:href="#font_2_1" transform="matrix(5.9779589,0,0,-5.9776,72.26951,62.413003)"/>
<use data-text="C" xlink:href="#font_1_3" transform="matrix(5.9779589,0,0,-5.9776,66.573169,70.917)"/>
<use data-text="2" xlink:href="#font_2_2" transform="matrix(5.9779589,0,0,-5.9776,72.26951,70.917)"/>
<use data-text="C" xlink:href="#font_1_3" transform="matrix(5.9779589,0,0,-5.9776,66.573169,79.422)"/>
<use data-text="3" xlink:href="#font_2_3" transform="matrix(5.9779589,0,0,-5.9776,72.26951,79.422)"/>
<use data-text="D" xlink:href="#font_1_4" transform="matrix(5.9779589,0,0,-5.9776,66.573169,90.76)"/>
<use data-text="1" xlink:href="#font_2_1" transform="matrix(5.9779589,0,0,-5.9776,72.73454,90.76)"/>
<use data-text="D" xlink:href="#font_1_4" transform="matrix(5.9779589,0,0,-5.9776,66.573169,99.264)"/>
<use data-text="2" xlink:href="#font_2_2" transform="matrix(5.9779589,0,0,-5.9776,72.73454,99.264)"/>
<use data-text="D" xlink:href="#font_1_4" transform="matrix(5.9779589,0,0,-5.9776,66.573169,107.768009)"/>
<use data-text="3" xlink:href="#font_2_3" transform="matrix(5.9779589,0,0,-5.9776,72.73454,107.768009)"/>
<use data-text="E" xlink:href="#font_1_5" transform="matrix(5.9779589,0,0,-5.9776,66.573169,119.106998)"/>
<use data-text="1" xlink:href="#font_2_1" transform="matrix(5.9779589,0,0,-5.9776,72.271518,119.106998)"/>
<use data-text="E" xlink:href="#font_1_5" transform="matrix(5.9779589,0,0,-5.9776,66.573169,127.611)"/>
<use data-text="2" xlink:href="#font_2_2" transform="matrix(5.9779589,0,0,-5.9776,72.271518,127.611)"/>
<use data-text="E" xlink:href="#font_1_5" transform="matrix(5.9779589,0,0,-5.9776,66.573169,136.11499)"/>
<use data-text="3" xlink:href="#font_2_3" transform="matrix(5.9779589,0,0,-5.9776,72.271518,136.11499)"/>
</svg>
