<svg xmlns="http://www.w3.org/2000/svg" xmlns:xlink="http://www.w3.org/1999/xlink" xmlns:inkscape="http://www.inkscape.org/namespaces/inkscape" version="1.1" width="135" height="66" viewBox="0 0 135 66">
<path transform="matrix(1.00003,0,0,-1.00002,67.79207,72.53607)" d="M-61.53868 10.63004C-61.53868 11.86806-62.54228 12.87166-63.7803 12.87166-65.01833 12.87166-66.02193 11.86806-66.02193 10.63004-66.02193 9.39201-65.01833 8.38841-63.7803 8.38841-62.54228 8.38841-61.53868 9.39201-61.53868 10.63004ZM-63.7803 10.63004"/>
<path transform="matrix(1.00003,0,0,-1.00002,67.79207,72.53607)" stroke-width=".3985" stroke-linecap="butt" stroke-miterlimit="10" stroke-linejoin="miter" fill="none" stroke="#000000" d="M-61.53868 10.63004C-61.53868 11.86806-62.54228 12.87166-63.7803 12.87166-65.01833 12.87166-66.02193 11.86806-66.02193 10.63004-66.02193 9.39201-65.01833 8.38841-63.7803 8.38841-62.54228 8.38841-61.53868 9.39201-61.53868 10.63004ZM-63.7803 10.63004"/>
<path transform="matrix(1.00003,0,0,-1.00002,67.79207,72.53607)" d="M-40.27858 10.63004C-40.27858 11.86806-41.28218 12.87166-42.5202 12.87166-43.75822 12.87166-44.76183 11.86806-44.76183 10.63004-44.76183 9.39201-43.75822 8.38841-42.5202 8.38841-41.28218 8.38841-40.27858 9.39201-40.27858 10.63004ZM-42.5202 10.63004"/>
<path transform="matrix(1.00003,0,0,-1.00002,67.79207,72.53607)" stroke-width=".3985" stroke-linecap="butt" stroke-miterlimit="10" stroke-linejoin="miter" fill="none" stroke="#000000" d="M-40.27858 10.63004C-40.27858 11.86806-41.28218 12.87166-42.5202 12.87166-43.75822 12.87166-44.76183 11.86806-44.76183 10.63004-44.76183 9.39201-43.75822 8.38841-42.5202 8.38841-41.28218 8.38841-40.27858 9.39201-40.27858 10.63004ZM-42.5202 10.63004"/>
<path transform="matrix(1.00003,0,0,-1.00002,67.79207,72.53607)" d="M-19.01848 10.63004C-19.01848 11.86806-20.02208 12.87166-21.2601 12.87166-22.49811 12.87166-23.50172 11.86806-23.50172 10.63004-23.50172 9.39201-22.49811 8.38841-21.2601 8.38841-20.02208 8.38841-19.01848 9.39201-19.01848 10.63004ZM-21.2601 10.63004"/>
<path transform="matrix(1.00003,0,0,-1.00002,67.79207,72.53607)" stroke-width=".3985" stroke-linecap="butt" stroke-miterlimit="10" stroke-linejoin="miter" fill="none" stroke="#000000" d="M-19.01848 10.63004C-19.01848 11.86806-20.02208 12.87166-21.2601 12.87166-22.49811 12.87166-23.50172 11.86806-23.50172 10.63004-23.50172 9.39201-22.49811 8.38841-21.2601 8.38841-20.02208 8.38841-19.01848 9.39201-19.01848 10.63004ZM-21.2601 10.63004"/>
<path transform="matrix(1.00003,0,0,-1.00002,67.79207,72.53607)" d="M2.24162 10.63004C2.24162 11.86806 1.238 12.87166 0 12.87166-1.238 12.87166-2.24162 11.86806-2.24162 10.63004-2.24162 9.39201-1.238 8.38841 0 8.38841 1.238 8.38841 2.24162 9.39201 2.24162 10.63004ZM0 10.63004"/>
<path transform="matrix(1.00003,0,0,-1.00002,67.79207,72.53607)" stroke-width=".3985" stroke-linecap="butt" stroke-miterlimit="10" stroke-linejoin="miter" fill="none" stroke="#000000" d="M2.24162 10.63004C2.24162 11.86806 1.238 12.87166 0 12.87166-1.238 12.87166-2.24162 11.86806-2.24162 10.63004-2.24162 9.39201-1.238 8.38841 0 8.38841 1.238 8.38841 2.24162 9.39201 2.24162 10.63004ZM0 10.63004"/>
<path transform="matrix(1.00003,0,0,-1.00002,67.79207,72.53607)" d="M23.50172 10.63004C23.50172 11.86806 22.49811 12.87166 21.2601 12.87166 20.02208 12.87166 19.01848 11.86806 19.01848 10.63004 19.01848 9.39201 20.02208 8.38841 21.2601 8.38841 22.49811 8.38841 23.50172 9.39201 23.50172 10.63004ZM21.2601 10.63004"/>
<path transform="matrix(1.00003,0,0,-1.00002,67.79207,72.53607)" stroke-width=".3985" stroke-linecap="butt" stroke-miterlimit="10" stroke-linejoin="miter" fill="none" stroke="#000000" d="M23.50172 10.63004C23.50172 11.86806 22.49811 12.87166 21.2601 12.87166 20.02208 12.87166 19.01848 11.86806 19.01848 10.63004 19.01848 9.39201 20.02208 8.38841 21.2601 8.38841 22.49811 8.38841 23.50172 9.39201 23.50172 10.63004ZM21.2601 10.63004"/>
<path transform="matrix(1.00003,0,0,-1.00002,67.79207,72.53607)" d="M44.76183 10.63004C44.76183 11.86806 43.75822 12.87166 42.5202 12.87166 41.28218 12.87166 40.27858 11.86806 40.27858 10.63004 40.27858 9.39201 41.28218 8.38841 42.5202 8.38841 43.75822 8.38841 44.76183 9.39201 44.76183 10.63004ZM42.5202 10.63004"/>
<path transform="matrix(1.00003,0,0,-1.00002,67.79207,72.53607)" stroke-width=".3985" stroke-linecap="butt" stroke-miterlimit="10" stroke-linejoin="miter" fill="none" stroke="#000000" d="M44.76183 10.63004C44.76183 11.86806 43.75822 12.87166 42.5202 12.87166 41.28218 12.87166 40.27858 11.86806 40.27858 10.63004 40.27858 9.39201 41.28218 8.38841 42.5202 8.38841 43.75822 8.38841 44.76183 9.39201 44.76183 10.63004ZM42.5202 10.63004"/>
<path transform="matrix(1.00003,0,0,-1.00002,67.79207,72.53607)" d="M66.02193 10.63004C66.02193 11.86806 65.01833 12.87166 63.7803 12.87166 62.54228 12.87166 61.53868 11.86806 61.53868 10.63004 61.53868 9.39201 62.54228 8.38841 63.7803 8.38841 65.01833 8.38841 66.02193 9.39201 66.02193 10.63004ZM63.7803 10.63004"/>
<path transform="matrix(1.00003,0,0,-1.00002,67.79207,72.53607)" stroke-width=".3985" stroke-linecap="butt" stroke-miterlimit="10" stroke-linejoin="miter" fill="none" stroke="#000000" d="M66.02193 10.63004C66.02193 11.86806 65.01833 12.87166 63.7803 12.87166 62.54228 12.87166 61.53868 11.86806 61.53868 10.63004 61.53868 9.39201 62.54228 8.38841 63.7803 8.38841 65.01833 8.38841 66.02193 9.39201 66.02193 10.63004ZM63.7803 10.63004"/>
<path transform="matrix(1.00003,0,0,-1.00002,67.79207,72.53607)" d="M62.0801 34.54765C62.0801 35.78568 61.07649 36.78928 59.83847 36.78928 58.60046 36.78928 57.59685 35.78568 57.59685 34.54765 57.59685 33.30965 58.60046 32.30603 59.83847 32.30603 61.07649 32.30603 62.0801 33.30965 62.0801 34.54765ZM59.83847 34.54765"/>
<path transform="matrix(1.00003,0,0,-1.00002,67.79207,72.53607)" stroke-width=".3985" stroke-linecap="butt" stroke-miterlimit="10" stroke-linejoin="miter" fill="none" stroke="#000000" d="M62.0801 34.54765C62.0801 35.78568 61.07649 36.78928 59.83847 36.78928 58.60046 36.78928 57.59685 35.78568 57.59685 34.54765 57.59685 33.30965 58.60046 32.30603 59.83847 32.30603 61.07649 32.30603 62.0801 33.30965 62.0801 34.54765ZM59.83847 34.54765"/>
<path transform="matrix(1.00003,0,0,-1.00002,67.79207,72.53607)" d="M36.78928 59.83847C36.78928 61.07649 35.78568 62.0801 34.54765 62.0801 33.30965 62.0801 32.30603 61.07649 32.30603 59.83847 32.30603 58.60046 33.30965 57.59685 34.54765 57.59685 35.78568 57.59685 36.78928 58.60046 36.78928 59.83847ZM34.54765 59.83847"/>
<path transform="matrix(1.00003,0,0,-1.00002,67.79207,72.53607)" stroke-width=".3985" stroke-linecap="butt" stroke-miterlimit="10" stroke-linejoin="miter" fill="none" stroke="#000000" d="M36.78928 59.83847C36.78928 61.07649 35.78568 62.0801 34.54765 62.0801 33.30965 62.0801 32.30603 61.07649 32.30603 59.83847 32.30603 58.60046 33.30965 57.59685 34.54765 57.59685 35.78568 57.59685 36.78928 58.60046 36.78928 59.83847ZM34.54765 59.83847"/>
<path transform="matrix(1.00003,0,0,-1.00002,67.79207,72.53607)" d="M2.24162 69.09532C2.24162 70.33334 1.238 71.33694 0 71.33694-1.238 71.33694-2.24162 70.33334-2.24162 69.09532-2.24162 67.8573-1.238 66.8537 0 66.8537 1.238 66.8537 2.24162 67.8573 2.24162 69.09532ZM0 69.09532"/>
<path transform="matrix(1.00003,0,0,-1.00002,67.79207,72.53607)" stroke-width=".3985" stroke-linecap="butt" stroke-miterlimit="10" stroke-linejoin="miter" fill="none" stroke="#000000" d="M2.24162 69.09532C2.24162 70.33334 1.238 71.33694 0 71.33694-1.238 71.33694-2.24162 70.33334-2.24162 69.09532-2.24162 67.8573-1.238 66.8537 0 66.8537 1.238 66.8537 2.24162 67.8573 2.24162 69.09532ZM0 69.09532"/>
<path transform="matrix(1.00003,0,0,-1.00002,67.79207,72.53607)" d="M-32.30603 59.83847C-32.30603 61.07649-33.30965 62.0801-34.54765 62.0801-35.78568 62.0801-36.78928 61.07649-36.78928 59.83847-36.78928 58.60046-35.78568 57.59685-34.54765 57.59685-33.30965 57.59685-32.30603 58.60046-32.30603 59.83847ZM-34.54765 59.83847"/>
<path transform="matrix(1.00003,0,0,-1.00002,67.79207,72.53607)" stroke-width=".3985" stroke-linecap="butt" stroke-miterlimit="10" stroke-linejoin="miter" fill="none" stroke="#000000" d="M-32.30603 59.83847C-32.30603 61.07649-33.30965 62.0801-34.54765 62.0801-35.78568 62.0801-36.78928 61.07649-36.78928 59.83847-36.78928 58.60046-35.78568 57.59685-34.54765 57.59685-33.30965 57.59685-32.30603 58.60046-32.30603 59.83847ZM-34.54765 59.83847"/>
<path transform="matrix(1.00003,0,0,-1.00002,67.79207,72.53607)" d="M-57.59685 34.54765C-57.59685 35.78568-58.60046 36.78928-59.83847 36.78928-61.07649 36.78928-62.0801 35.78568-62.0801 34.54765-62.0801 33.30965-61.07649 32.30603-59.83847 32.30603-58.60046 32.30603-57.59685 33.30965-57.59685 34.54765ZM-59.83847 34.54765"/>
<path transform="matrix(1.00003,0,0,-1.00002,67.79207,72.53607)" stroke-width=".3985" stroke-linecap="butt" stroke-miterlimit="10" stroke-linejoin="miter" fill="none" stroke="#000000" d="M-57.59685 34.54765C-57.59685 35.78568-58.60046 36.78928-59.83847 36.78928-61.07649 36.78928-62.0801 35.78568-62.0801 34.54765-62.0801 33.30965-61.07649 32.30603-59.83847 32.30603-58.60046 32.30603-57.59685 33.30965-57.59685 34.54765ZM-59.83847 34.54765"/>
</svg>
