<svg xmlns="http://www.w3.org/2000/svg" xmlns:xlink="http://www.w3.org/1999/xlink" xmlns:inkscape="http://www.inkscape.org/namespaces/inkscape" version="1.1" width="41" height="59" viewBox="0 0 41 59">
<defs>
<path id="font_1_1" d="M.7599945 .69506838C.7599945 .69807437 .7579956 .7050781 .7489929 .7050781 .74598696 .7050781 .7449951 .70407107 .73399356 .69306948L.6639862 .61602786C.6549988 .6300354 .60899356 .7050781 .49798585 .7050781 .2749939 .7050781 .049987794 .48391725 .049987794 .25172425 .049987794 .08659363 .16799927-.022460938 .32099916-.022460938 .4079895-.022460938 .48399354 .017532349 .5369873 .063583377 .6299896 .14564514 .6469879 .2367096 .6469879 .23971558 .6469879 .24972534 .6369934 .24972534 .6349945 .24972534 .6289978 .24972534 .6239929 .24772644 .621994 .23971558 .61299136 .21069336 .58999636 .13963318 .5209961 .081588748 .45199586 .025543213 .3889923 .008529663 .33699037 .008529663 .24699402 .008529663 .14099121 .060577394 .14099121 .21670532 .14099121 .27374269 .1619873 .43588258 .2619934 .55296328 .32299806 .62402346 .4169922 .67407229 .5059967 .67407229 .60798647 .67407229 .6669922 .5970001 .6669922 .48091126 .6669922 .44088746 .6639862 .43988038 .6639862 .4298706 .6639862 .41986085 .6749878 .41986085 .67900088 .41986085 .69200137 .41986085 .69200137 .42185975 .69699099 .43988038L.7599945 .69506838Z"/>
<path id="font_2_1" d="M.13798523 .33073426C.13798523 .41377259 .14498902 .4868164 .18099976 .54782107 .21099854 .5978241 .2619934 .6390381 .32499696 .6390381 .34498597 .6390381 .3909912 .63601687 .4139862 .60084536 .36898805 .5988312 .36499024 .5648346 .36499024 .553833 .36499024 .5238342 .3880005 .50683596 .4119873 .50683596 .42999269 .50683596 .45899964 .51782229 .45899964 .5558319 .45899964 .615921 .4139862 .66503909 .32398988 .66503909 .18499756 .66503909 .04399109 .53282168 .04399109 .31672669 .04399109 .045532228 .16999817-.021484375 .2669983-.021484375 .31498719-.021484375 .36698915-.0084991459 .4119873 .03453064 .45199586 .07354736 .48599244 .11558533 .48599244 .20263672 .48599244 .33372499 .3869934 .42578126 .27598573 .42578126 .20399475 .42578126 .16099549 .37976075 .13798523 .33073426M.2669983 .008514404C.21398926 .008514404 .18099976 .045532228 .1659851 .07354736 .14299011 .11859131 .14099121 .18663025 .14099121 .22465515 .14099121 .32373048 .19499207 .3977661 .27198792 .3977661 .32199098 .3977661 .35198976 .37176515 .37098695 .33673097 .3919983 .29971314 .3919983 .25468446 .3919983 .2036438 .3919983 .15260315 .3919983 .10858154 .37199403 .07255554 .34599305 .026519776 .31098939 .008514404 .2669983 .008514404Z"/>
</defs>
<path transform="matrix(1.00002,0,0,-1.00008,20.214467,18.394513)" stroke-width=".3985" stroke-linecap="butt" stroke-miterlimit="10" stroke-linejoin="miter" fill="none" stroke="#000000" d="M17.00824 0 8.50412 14.7296H-8.50412L-17.00824 0-8.50412-14.7296H8.50412Z"/>
<path transform="matrix(1.00002,0,0,-1.00008,20.214467,18.394513)" d="M19.0008 0C19.0008 1.10046 18.1087 1.99255 17.00824 1.99255 15.90776 1.99255 15.01569 1.10046 15.01569 0 15.01569-1.10046 15.90776-1.99255 17.00824-1.99255 18.1087-1.99255 19.0008-1.10046 19.0008 0ZM17.00824 0"/>
<path transform="matrix(1.00002,0,0,-1.00008,20.214467,18.394513)" d="M10.49667 14.7296C10.49667 15.83008 9.60458 16.72215 8.50412 16.72215 7.40364 16.72215 6.51157 15.83008 6.51157 14.7296 6.51157 13.62914 7.40364 12.73705 8.50412 12.73705 9.60458 12.73705 10.49667 13.62914 10.49667 14.7296ZM8.50412 14.7296"/>
<path transform="matrix(1.00002,0,0,-1.00008,20.214467,18.394513)" d="M-6.51157 14.7296C-6.51157 15.83008-7.40364 16.72215-8.50412 16.72215-9.60458 16.72215-10.49667 15.83008-10.49667 14.7296-10.49667 13.62914-9.60458 12.73705-8.50412 12.73705-7.40364 12.73705-6.51157 13.62914-6.51157 14.7296ZM-8.50412 14.7296"/>
<path transform="matrix(1.00002,0,0,-1.00008,20.214467,18.394513)" d="M-15.01569 0C-15.01569 1.10046-15.90776 1.99255-17.00824 1.99255-18.1087 1.99255-19.0008 1.10046-19.0008 0-19.0008-1.10046-18.1087-1.99255-17.00824-1.99255-15.90776-1.99255-15.01569-1.10046-15.01569 0ZM-17.00824 0"/>
<path transform="matrix(1.00002,0,0,-1.00008,20.214467,18.394513)" d="M-6.51157-14.7296C-6.51157-13.62914-7.40364-12.73705-8.50412-12.73705-9.60458-12.73705-10.49667-13.62914-10.49667-14.7296-10.49667-15.83008-9.60458-16.72215-8.50412-16.72215-7.40364-16.72215-6.51157-15.83008-6.51157-14.7296ZM-8.50412-14.7296"/>
<path transform="matrix(1.00002,0,0,-1.00008,20.214467,18.394513)" d="M10.49667-14.7296C10.49667-13.62914 9.60458-12.73705 8.50412-12.73705 7.40364-12.73705 6.51157-13.62914 6.51157-14.7296 6.51157-15.83008 7.40364-16.72215 8.50412-16.72215 9.60458-16.72215 10.49667-15.83008 10.49667-14.7296ZM8.50412-14.7296"/>
<path transform="matrix(1.00002,0,0,-1.00008,20.214467,18.394513)" stroke-width=".3985" stroke-linecap="butt" stroke-miterlimit="10" stroke-linejoin="miter" fill="none" stroke="#000000" d="M0-25.51236"/>
<use data-text="C" xlink:href="#font_1_1" transform="matrix(10.909318,0,0,-10.909972,13.949341,55.19945)"/>
<use data-text="6" xlink:href="#font_2_1" transform="matrix(7.9702599,0,0,-7.9707376,21.746499,56.836587)"/>
</svg>
