<svg xmlns="http://www.w3.org/2000/svg" xmlns:xlink="http://www.w3.org/1999/xlink" xmlns:inkscape="http://www.inkscape.org/namespaces/inkscape" version="1.1" width="121" height="46" viewBox="0 0 121 46">
<defs>
<path id="font_1_1" d="M.38198854 .3803711C.36299134 .41638185 .33198548 .4423828 .2869873 .4423828 .17098999 .4423828 .041992189 .30433656 .041992189 .1512909 .041992189 .041259767 .11199951-.0107421879 .1789856-.0107421879 .24398804-.0107421879 .29699708 .043258668 .31298829 .06227112 .32398988 .007247925 .37399293-.0107421879 .4059906-.0107421879 .43499757-.0107421879 .45999146 .002243042 .48199464 .044265748 .5 .07727051 .5139923 .13928223 .5139923 .14329529 .5139923 .14828491 .5109863 .1552887 .5009918 .1552887 .4889984 .1552887 .48799134 .15029907 .48399354 .13128662 .46199037 .044265748 .43998719 .014251709 .40899659 .014251709 .38398744 .014251709 .37799073 .038253786 .37799073 .060272218 .37799073 .07926941 .3829956 .09927368 .3919983 .1342926L.4169922 .23731995C.42399598 .2623291 .44198609 .33735658 .44599916 .35235597 .44999696 .36636354 .45599366 .3903656 .45599366 .39337159 .45599366 .40937806 .44299317 .42237855 .4249878 .42237855 .4119873 .42237855 .3869934 .41438294 .38198854 .3803711M.31698609 .122283939C.31199647 .103271488 .31199647 .10227966 .29599 .08326721 .2599945 .040252687 .21899414 .014251709 .18199158 .014251709 .1329956 .014251709 .115997318 .06526184 .115997318 .10827637 .115997318 .15730286 .14498902 .27233888 .16899109 .32034303 .20098877 .3803711 .24699402 .41737367 .2869873 .41737367 .35398866 .41737367 .36898805 .33735658 .36898805 .33035279 .36898805 .3253479 .36698915 .3193512 .3659973 .31533814L.31698609 .122283939Z"/>
<path id="font_1_2" d="M.23899842 .6603241C.24299622 .67433169 .24299622 .67633059 .24299622 .68032839 .24299622 .68933108 .23699951 .69433596 .22799683 .69433596 .21398926 .69433596 .12599182 .6863251 .10598755 .6843262 .09599304 .68333438 .084991458 .6823273 .084991458 .665329 .084991458 .6523285 .09599304 .6523285 .11199951 .6523285 .15899658 .6523285 .15899658 .6453247 .15899658 .6363373 .15899658 .6303406 .15899658 .6283264 .1519928 .6013336L.09899902 .3903656C.084991458 .3343506 .07199097 .28334046 .06098938 .23631287 .053985597 .21131897 .04699707 .18130493 .04699707 .14929199 .04699707 .06326294 .09498596-.0107421879 .18099976-.0107421879 .2979889-.0107421879 .42599488 .13027954 .42599488 .28033448 .42599488 .38237 .36299134 .4423828 .28799439 .4423828 .23699951 .4423828 .19299317 .40737916 .16999817 .38536073L.23899842 .6603241M.1559906 .32835389C.18399048 .36836244 .23498535 .41737367 .28599549 .41737367 .33299256 .41737367 .35198976 .37036134 .35198976 .323349 .35198976 .27833558 .32398988 .15429688 .29299928 .10127258 .2559967 .037261964 .21199036 .014251709 .18099976 .014251709 .1309967 .014251709 .11099243 .06427002 .11099243 .11528015 .11099243 .15029907 .117996219 .17730713 .14099121 .2683258L.1559906 .32835389Z"/>
<path id="font_1_3" d="M.4019928 .38200379C.3639984 .38101197 .34399415 .352005 .34399415 .3270111 .34399415 .29800416 .36999513 .29101563 .38198854 .29101563 .4019928 .29101563 .43798829 .30801393 .43798829 .355011 .43798829 .40827943 .3849945 .4423828 .31599427 .4423828 .17999268 .4423828 .042999269 .30400086 .042999269 .16012573 .042999269 .06021118 .10998535-.0107421879 .21099854-.0107421879 .36099244-.0107421879 .44499208 .093185428 .44499208 .106170658 .44499208 .11216736 .43798829 .120162967 .43099977 .120162967 .42599488 .120162967 .4249878 .119155887 .41600038 .108169559 .35598756 .034225465 .2649994 .014251709 .21299744 .014251709 .15699768 .014251709 .11999512 .051223756 .11999512 .12315369 .11999512 .16612244 .13899231 .2650299 .1789856 .32901 .20199585 .3650055 .2539978 .41737367 .31698609 .41737367 .33599855 .41737367 .37799073 .41333009 .4019928 .38200379Z"/>
<path id="font_1_4" d="M.5239868 .6603241C.5279999 .67433169 .5279999 .67633059 .5279999 .68032839 .5279999 .68933108 .5219879 .69433596 .5130005 .69433596 .49899293 .69433596 .41099549 .6863251 .3909912 .6843262 .3809967 .68333438 .36999513 .6823273 .36999513 .665329 .36999513 .6523285 .3809967 .6523285 .39698792 .6523285 .44400025 .6523285 .44400025 .6453247 .44400025 .6363373 .44400025 .6293335 .43499757 .5943451 .42999269 .573349L.41099549 .4963684C.40098573 .45837403 .3909912 .41937257 .38198854 .3803711 .36299134 .41638185 .33198548 .4423828 .2869873 .4423828 .17098999 .4423828 .041992189 .30433656 .041992189 .1512909 .041992189 .041259767 .11199951-.0107421879 .1789856-.0107421879 .24398804-.0107421879 .29699708 .043258668 .31298829 .06227112 .32398988 .007247925 .37399293-.0107421879 .4059906-.0107421879 .43499757-.0107421879 .45999146 .002243042 .48199464 .044265748 .5 .07727051 .5139923 .13928223 .5139923 .14329529 .5139923 .14828491 .5109863 .1552887 .5009918 .1552887 .4889984 .1552887 .48799134 .15029907 .48399354 .13128662 .46199037 .044265748 .43998719 .014251709 .40899659 .014251709 .38398744 .014251709 .37799073 .038253786 .37799073 .060272218 .37799073 .073272708 .3829956 .10127258 .38398744 .104278568L.5239868 .6603241M.31698609 .121276859C.31298829 .105285648 .31199647 .103271488 .29599 .08326721 .2599945 .040252687 .21899414 .014251709 .18199158 .014251709 .1329956 .014251709 .115997318 .06526184 .115997318 .10827637 .115997318 .15730286 .14498902 .27233888 .16899109 .32034303 .20098877 .3803711 .24699402 .41737367 .2869873 .41737367 .35398866 .41737367 .36898805 .3363495 .36898805 .3313446 .36898805 .32635499 .36698915 .32034303 .3659973 .3163452L.31698609 .121276859Z"/>
<path id="font_1_5" d="M.13699341 .22949219C.19799805 .22949219 .2630005 .22949219 .31599427 .24247742 .4099884 .2654724 .4269867 .32144166 .4269867 .35542298 .4269867 .41238404 .37399293 .4423828 .31498719 .4423828 .19898987 .4423828 .04699707 .3444214 .04699707 .17242432 .04699707 .077316287 .102996829-.0107421879 .21099854-.0107421879 .36099244-.0107421879 .44499208 .09333801 .44499208 .10635376 .44499208 .112350467 .43798829 .12036133 .43099977 .12036133 .42599488 .12036133 .4249878 .11936951 .41600038 .10835266 .35598756 .03427124 .2649994 .014251709 .21299744 .014251709 .14199829 .014251709 .12298584 .081329349 .12298584 .13137818 .12298584 .13337708 .12298584 .16841126 .13699341 .22949219M.14399719 .25448609C.18798828 .41238404 .29899598 .41737367 .31498719 .41737367 .34899903 .41737367 .3899994 .40138246 .3899994 .35542298 .3899994 .25448609 .23899842 .25448609 .14399719 .25448609Z"/>
<path id="font_1_6" d="M.37399293 .3996582H.46398927C.48399354 .3996582 .49398805 .3996582 .49398805 .41766358 .49398805 .43066407 .48399354 .43066407 .46499635 .43066407H.37998963C.3909912 .49082948 .40499879 .5730438 .41799928 .62705996 .4269867 .6660614 .45098878 .68006899 .47099305 .68006899 .47698976 .68006899 .5 .67807009 .5169983 .6660614 .49699403 .66204836 .46798707 .6440582 .46798707 .61105349 .46798707 .5860596 .4869995 .575058 .5059967 .575058 .5329895 .575058 .5609894 .59706118 .5609894 .63505557 .5609894 .68006899 .5169983 .7050781 .46998597 .7050781 .4249878 .7050781 .37998963 .6730652 .35899354 .63204959 .33699037 .5890503 .32998658 .5499878 .30899049 .43066407H.23699951C.21798706 .43066407 .20599365 .43066407 .20599365 .4126587 .20599365 .3996582 .21699524 .3996582 .23498535 .3996582H.30299378C.2749939 .25474549 .23999024 .054855348 .21798706-.049087526 .20599365-.10406494 .18998719-.18008423 .14199829-.18008423 .1269989-.18008423 .10699463-.17407227 .09700012-.16607666 .12199402-.1620636 .14698792-.1410675 .14698792-.111068729 .14698792-.08607483 .12799073-.07507324 .10899353-.07507324 .08198547-.07507324 .053985597-.097076419 .053985597-.1350708 .053985597-.18109131 .099990848-.20507813 .14199829-.20507813 .24398804-.20507813 .29100038-.039093019 .30699159 .04685974L.37399293 .3996582Z"/>
<path id="font_1_7" d="M.4869995 .39335633C.4869995 .4093628 .47399903 .42237855 .45599366 .42237855 .43899537 .42237855 .41799928 .41036988 .41299439 .38233949 .3909912 .42037965 .35899354 .4423828 .31799317 .4423828 .19699097 .4423828 .07398987 .30026246 .07398987 .16012573 .07398987 .06602478 .1329956 0 .21299744 0 .2579956 0 .2979889 .024993897 .33099366 .055023195 .31799317 0 .3019867-.06703186 .2939911-.08503723 .2889862-.09605408 .25299073-.18008423 .1519928-.18008423 .13198853-.18008423 .099990848-.1790924 .07499695-.17208863 .09399414-.16407776 .11099243-.14207459 .11099243-.12106323 .11099243-.0990448 .09399414-.08503723 .07299805-.08503723 .049987794-.08503723 .017990113-.10305786 .017990113-.14407349 .017990113-.19308472 .07398987-.20507813 .1539917-.20507813 .2829895-.20507813 .35699464-.13105774 .37298585-.06703186L.4869995 .39335633M.34999085 .13009644C.34599305 .112075809 .34498597 .110076908 .32899476 .091049198 .27799989 .03300476 .23599243 .024993897 .21598816 .024993897 .16699219 .024993897 .14898682 .07304382 .14898682 .11808777 .14898682 .15711975 .17298889 .26922608 .20298767 .32728578 .22898865 .3743286 .272995 .41737367 .31900025 .41737367 .3829956 .41737367 .3999939 .34129334 .3999939 .33229066 .3999939 .33029176 .397995 .32228089 .39698792 .317276L.34999085 .13009644Z"/>
<path id="font_1_8" d="M.2869873 .6603241C.29100038 .67433169 .29100038 .67633059 .29100038 .68032839 .29100038 .68933108 .2849884 .69433596 .27598573 .69433596 .2619934 .69433596 .17399597 .6863251 .1539917 .6843262 .14399719 .68333438 .1329956 .6823273 .1329956 .665329 .1329956 .6523285 .14399719 .6523285 .1599884 .6523285 .20698548 .6523285 .20698548 .6453247 .20698548 .6363373 .20698548 .6323395 .20698548 .6303406 .20199585 .6123352L.05899048 .037261964C.054992677 .023254395 .054992677 .021255494 .054992677 .018249512 .054992677 .002243042 .067993167-.0107421879 .085998538-.0107421879 .102996829-.0107421879 .116989139-.00074768069 .12399292 .013244629 .12599182 .018249512 .1349945 .054260255 .13999939 .07527161L.16299439 .16429138C.1659851 .17930603 .17599488 .21731568 .1789856 .23231507L.19099427 .27633668C.19599915 .29934693 .25299073 .41737367 .36099244 .41737367 .4149933 .41737367 .4149933 .36436463 .4149933 .34735108 .4149933 .28633119 .36799623 .16429138 .35699464 .13328552 .34498597 .10227966 .34098817 .0922699 .34098817 .073272708 .34098817 .019256592 .38198854-.0107421879 .4269867-.0107421879 .522995-.0107421879 .56199648 .1322937 .56199648 .14329529 .56199648 .14828491 .5589905 .1552887 .548996 .1552887 .5379944 .1552887 .5369873 .15029907 .5329895 .13728333 .5079956 .052261354 .46598817 .014251709 .42999269 .014251709 .4229889 .014251709 .40499879 .014251709 .40499879 .04626465 .40499879 .0712738 .4149933 .09727478 .4229889 .119277957 .44299317 .17030335 .48298646 .27633668 .48298646 .33235169 .48298646 .42137147 .4169922 .4423828 .3639984 .4423828 .3039856 .4423828 .25299073 .41438294 .21299744 .36535646L.2869873 .6603241Z"/>
<path id="font_1_9" d="M.2899933 .62428286C.2899933 .646286 .27398683 .6612854 .2519989 .6612854 .22499085 .6612854 .19799805 .6352844 .19799805 .60827639 .19799805 .58828738 .21299744 .57128909 .23599243 .57128909 .2630005 .57128909 .2899933 .59628298 .2899933 .62428286M.3039856 .14329529C.3039856 .14828491 .30099488 .1552887 .29100038 .1552887 .27999879 .1552887 .2789917 .15029907 .2749939 .13728333 .25099183 .055267335 .20999146 .014251709 .17199707 .014251709 .1559906 .014251709 .147995 .022247315 .147995 .04725647 .147995 .0712738 .1559906 .09327698 .1639862 .11227417 .18199158 .16029358 .18199158 .16229248 .19499207 .1933136 .21099854 .23631287 .23298645 .29333497 .24299622 .3213501 .25 .33935548 .25 .34934999 .25 .35835267 .25 .41537477 .20498657 .4423828 .16499329 .4423828 .067993167 .4423828 .0289917 .29934693 .0289917 .28833009 .0289917 .2793274 .035995485 .27633668 .042999269 .27633668 .053985597 .27633668 .054992677 .28233338 .05899048 .29533387 .07998657 .36636354 .117996219 .41737367 .1619873 .41737367 .17199707 .41737367 .18598938 .41537477 .18598938 .38536073 .18598938 .36036683 .17599488 .3343506 .16699219 .31134034L.09599304 .12628174C.08898926 .107284549 .08299255 .091278079 .08299255 .073272708 .08299255 .026260376 .117996219-.0107421879 .16899109-.0107421879 .2659912-.0107421879 .3039856 .13328552 .3039856 .14329529Z"/>
</defs>
<path transform="matrix(1.00003,0,0,-1,3.9992405,31.339)" stroke-width=".3985" stroke-linecap="butt" stroke-miterlimit="10" stroke-linejoin="miter" fill="none" stroke="#000000" d="M0 0H28.3468L14.17339 28.3468M28.3468 0 42.5202 28.3468M28.3468 0H56.69362 85.04042L70.867 28.3468M85.04042 0 99.21382 28.3468M85.04042 0H113.38724"/>
<path transform="matrix(1.00003,0,0,-1,3.9992405,31.339)" stroke-width=".3985" stroke-linecap="butt" stroke-miterlimit="10" stroke-linejoin="miter" fill="none" stroke="#000000" d="M0 0"/>
<path transform="matrix(1.00003,0,0,-1,3.9992405,31.339)" d="M1.99255 0C1.99255 1.10046 1.10046 1.99255 0 1.99255-1.10046 1.99255-1.99255 1.10046-1.99255 0-1.99255-1.10046-1.10046-1.99255 0-1.99255 1.10046-1.99255 1.99255-1.10046 1.99255 0ZM0 0"/>
<use data-text="a" xlink:href="#font_1_1" transform="matrix(8.966669,0,0,-8.9664,1.558167,40.579)"/>
<path transform="matrix(1.00003,0,0,-1,3.9992405,31.339)" stroke-width=".3985" stroke-linecap="butt" stroke-miterlimit="10" stroke-linejoin="miter" fill="none" stroke="#000000" d="M28.3468 0"/>
<path transform="matrix(1.00003,0,0,-1,3.9992405,31.339)" d="M30.33936 0C30.33936 1.10046 29.44728 1.99255 28.3468 1.99255 27.24634 1.99255 26.35425 1.10046 26.35425 0 26.35425-1.10046 27.24634-1.99255 28.3468-1.99255 29.44728-1.99255 30.33936-1.10046 30.33936 0ZM28.3468 0"/>
<use data-text="b" xlink:href="#font_1_2" transform="matrix(8.966669,0,0,-8.9664,30.372033,42.945)"/>
<path transform="matrix(1.00003,0,0,-1,3.9992405,31.339)" stroke-width=".3985" stroke-linecap="butt" stroke-miterlimit="10" stroke-linejoin="miter" fill="none" stroke="#000000" d="M14.17339 28.3468"/>
<path transform="matrix(1.00003,0,0,-1,3.9992405,31.339)" d="M16.16594 28.3468C16.16594 29.44728 15.27386 30.33936 14.17339 30.33936 13.07292 30.33936 12.18083 29.44728 12.18083 28.3468 12.18083 27.24634 13.07292 26.35425 14.17339 26.35425 15.27386 26.35425 16.16594 27.24634 16.16594 28.3468ZM14.17339 28.3468"/>
<use data-text="c" xlink:href="#font_1_3" transform="matrix(8.966669,0,0,-8.9664,16.178606,12.231999)"/>
<path transform="matrix(1.00003,0,0,-1,3.9992405,31.339)" stroke-width=".3985" stroke-linecap="butt" stroke-miterlimit="10" stroke-linejoin="miter" fill="none" stroke="#000000" d="M42.5202 28.3468"/>
<path transform="matrix(1.00003,0,0,-1,3.9992405,31.339)" d="M44.51276 28.3468C44.51276 29.44728 43.62067 30.33936 42.5202 30.33936 41.41972 30.33936 40.52765 29.44728 40.52765 28.3468 40.52765 27.24634 41.41972 26.35425 42.5202 26.35425 43.62067 26.35425 44.51276 27.24634 44.51276 28.3468ZM42.5202 28.3468"/>
<use data-text="d" xlink:href="#font_1_4" transform="matrix(8.966669,0,0,-8.9664,44.133447,14.598001)"/>
<path transform="matrix(1.00003,0,0,-1,3.9992405,31.339)" stroke-width=".3985" stroke-linecap="butt" stroke-miterlimit="10" stroke-linejoin="miter" fill="none" stroke="#000000" d="M56.69362 0"/>
<path transform="matrix(1.00003,0,0,-1,3.9992405,31.339)" d="M58.68617 0C58.68617 1.10046 57.79408 1.99255 56.69362 1.99255 55.59314 1.99255 54.70107 1.10046 54.70107 0 54.70107-1.10046 55.59314-1.99255 56.69362-1.99255 57.79408-1.99255 58.68617-1.10046 58.68617 0ZM56.69362 0"/>
<use data-text="e" xlink:href="#font_1_5" transform="matrix(8.966669,0,0,-8.9664,58.55188,40.579)"/>
<path transform="matrix(1.00003,0,0,-1,3.9992405,31.339)" stroke-width=".3985" stroke-linecap="butt" stroke-miterlimit="10" stroke-linejoin="miter" fill="none" stroke="#000000" d="M85.04042 0"/>
<path transform="matrix(1.00003,0,0,-1,3.9992405,31.339)" d="M87.03297 0C87.03297 1.10046 86.1409 1.99255 85.04042 1.99255 83.93996 1.99255 83.04787 1.10046 83.04787 0 83.04787-1.10046 83.93996-1.99255 85.04042-1.99255 86.1409-1.99255 87.03297-1.10046 87.03297 0ZM85.04042 0"/>
<use data-text="f" xlink:href="#font_1_6" transform="matrix(8.966669,0,0,-8.9664,86.31771,42.945)"/>
<path transform="matrix(1.00003,0,0,-1,3.9992405,31.339)" stroke-width=".3985" stroke-linecap="butt" stroke-miterlimit="10" stroke-linejoin="miter" fill="none" stroke="#000000" d="M70.867 28.3468"/>
<path transform="matrix(1.00003,0,0,-1,3.9992405,31.339)" d="M72.85956 28.3468C72.85956 29.44728 71.96748 30.33936 70.867 30.33936 69.76654 30.33936 68.87445 29.44728 68.87445 28.3468 68.87445 27.24634 69.76654 26.35425 70.867 26.35425 71.96748 26.35425 72.85956 27.24634 72.85956 28.3468ZM70.867 28.3468"/>
<use data-text="g" xlink:href="#font_1_7" transform="matrix(8.966669,0,0,-8.9664,72.5103,12.231999)"/>
<path transform="matrix(1.00003,0,0,-1,3.9992405,31.339)" stroke-width=".3985" stroke-linecap="butt" stroke-miterlimit="10" stroke-linejoin="miter" fill="none" stroke="#000000" d="M99.21382 28.3468"/>
<path transform="matrix(1.00003,0,0,-1,3.9992405,31.339)" d="M101.20638 28.3468C101.20638 29.44728 100.31429 30.33936 99.21382 30.33936 98.11334 30.33936 97.22127 29.44728 97.22127 28.3468 97.22127 27.24634 98.11334 26.35425 99.21382 26.35425 100.31429 26.35425 101.20638 27.24634 101.20638 28.3468ZM99.21382 28.3468"/>
<use data-text="h" xlink:href="#font_1_8" transform="matrix(8.966669,0,0,-8.9664,100.561138,14.598001)"/>
<path transform="matrix(1.00003,0,0,-1,3.9992405,31.339)" stroke-width=".3985" stroke-linecap="butt" stroke-miterlimit="10" stroke-linejoin="miter" fill="none" stroke="#000000" d="M113.38724 0"/>
<path transform="matrix(1.00003,0,0,-1,3.9992405,31.339)" d="M115.37979 0C115.37979 1.10046 114.4877 1.99255 113.38724 1.99255 112.28676 1.99255 111.39468 1.10046 111.39468 0 111.39468-1.10046 112.28676-1.99255 113.38724-1.99255 114.4877-1.99255 115.37979-1.10046 115.37979 0ZM113.38724 0"/>
<use data-text="i" xlink:href="#font_1_9" transform="matrix(8.966669,0,0,-8.9664,115.81359,42.635)"/>
</svg>
