<svg xmlns="http://www.w3.org/2000/svg" xmlns:xlink="http://www.w3.org/1999/xlink" xmlns:inkscape="http://www.inkscape.org/namespaces/inkscape" version="1.1" width="93" height="89" viewBox="0 0 93 89">
<path transform="matrix(1.00005,0,0,-1.00002,46.345464,49.01974)" stroke-width=".3985" stroke-linecap="butt" stroke-miterlimit="10" stroke-linejoin="miter" fill="none" stroke="#000000" d="M0 0V22.67752L-43.1356 14.01564 0 45.35506-21.5678 7.0078"/>
<path transform="matrix(1.00005,0,0,-1.00002,46.345464,49.01974)" d="M1.99255 0C1.99255 1.10046 1.10046 1.99255 0 1.99255-1.10046 1.99255-1.99255 1.10046-1.99255 0-1.99255-1.10046-1.10046-1.99255 0-1.99255 1.10046-1.99255 1.99255-1.10046 1.99255 0ZM0 0"/>
<path transform="matrix(1.00005,0,0,-1.00002,46.345464,49.01974)" d="M1.99255 22.67752C1.99255 23.77798 1.10046 24.67007 0 24.67007-1.10046 24.67007-1.99255 23.77798-1.99255 22.67752-1.99255 21.57704-1.10046 20.68497 0 20.68497 1.10046 20.68497 1.99255 21.57704 1.99255 22.67752ZM0 22.67752"/>
<path transform="matrix(1.00005,0,0,-1.00002,46.345464,49.01974)" d="M-41.14305 14.01564C-41.14305 15.1161-42.03514 16.0082-43.1356 16.0082-44.23608 16.0082-45.12816 15.1161-45.12816 14.01564-45.12816 12.91516-44.23608 12.02309-43.1356 12.02309-42.03514 12.02309-41.14305 12.91516-41.14305 14.01564ZM-43.1356 14.01564"/>
<path transform="matrix(1.00005,0,0,-1.00002,46.345464,49.01974)" stroke-width=".3985" stroke-linecap="butt" stroke-miterlimit="10" stroke-linejoin="miter" fill="none" stroke="#000000" d="M0 0-21.5678 7.0078-26.65895-36.69318-43.1356 14.01564-13.32947-18.34657"/>
<path transform="matrix(1.00005,0,0,-1.00002,46.345464,49.01974)" d="M1.99255 0C1.99255 1.10046 1.10046 1.99255 0 1.99255-1.10046 1.99255-1.99255 1.10046-1.99255 0-1.99255-1.10046-1.10046-1.99255 0-1.99255 1.10046-1.99255 1.99255-1.10046 1.99255 0ZM0 0"/>
<path transform="matrix(1.00005,0,0,-1.00002,46.345464,49.01974)" d="M-19.57524 7.0078C-19.57524 8.10828-20.46733 9.00035-21.5678 9.00035-22.66827 9.00035-23.56035 8.10828-23.56035 7.0078-23.56035 5.90733-22.66827 5.01524-21.5678 5.01524-20.46733 5.01524-19.57524 5.90733-19.57524 7.0078ZM-21.5678 7.0078"/>
<path transform="matrix(1.00005,0,0,-1.00002,46.345464,49.01974)" d="M-24.6664-36.69318C-24.6664-35.5927-25.55849-34.70062-26.65895-34.70062-27.75943-34.70062-28.6515-35.5927-28.6515-36.69318-28.6515-37.79364-27.75943-38.68573-26.65895-38.68573-25.55849-38.68573-24.6664-37.79364-24.6664-36.69318ZM-26.65895-36.69318"/>
<path transform="matrix(1.00005,0,0,-1.00002,46.345464,49.01974)" stroke-width=".3985" stroke-linecap="butt" stroke-miterlimit="10" stroke-linejoin="miter" fill="none" stroke="#000000" d="M0 0-13.32947-18.34657 26.65895-36.69318H-26.65895L13.32947-18.34657"/>
<path transform="matrix(1.00005,0,0,-1.00002,46.345464,49.01974)" d="M1.99255 0C1.99255 1.10046 1.10046 1.99255 0 1.99255-1.10046 1.99255-1.99255 1.10046-1.99255 0-1.99255-1.10046-1.10046-1.99255 0-1.99255 1.10046-1.99255 1.99255-1.10046 1.99255 0ZM0 0"/>
<path transform="matrix(1.00005,0,0,-1.00002,46.345464,49.01974)" d="M-11.33691-18.34657C-11.33691-17.24611-12.22899-16.35402-13.32947-16.35402-14.42993-16.35402-15.32202-17.24611-15.32202-18.34657-15.32202-19.44705-14.42993-20.33913-13.32947-20.33913-12.22899-20.33913-11.33691-19.44705-11.33691-18.34657ZM-13.32947-18.34657"/>
<path transform="matrix(1.00005,0,0,-1.00002,46.345464,49.01974)" d="M28.6515-36.69318C28.6515-35.5927 27.75943-34.70062 26.65895-34.70062 25.55849-34.70062 24.6664-35.5927 24.6664-36.69318 24.6664-37.79364 25.55849-38.68573 26.65895-38.68573 27.75943-38.68573 28.6515-37.79364 28.6515-36.69318ZM26.65895-36.69318"/>
<path transform="matrix(1.00005,0,0,-1.00002,46.345464,49.01974)" stroke-width=".3985" stroke-linecap="butt" stroke-miterlimit="10" stroke-linejoin="miter" fill="none" stroke="#000000" d="M0 0 13.32947-18.34657 43.1356 14.01564 26.65895-36.69318 21.5678 7.0078"/>
<path transform="matrix(1.00005,0,0,-1.00002,46.345464,49.01974)" d="M1.99255 0C1.99255 1.10046 1.10046 1.99255 0 1.99255-1.10046 1.99255-1.99255 1.10046-1.99255 0-1.99255-1.10046-1.10046-1.99255 0-1.99255 1.10046-1.99255 1.99255-1.10046 1.99255 0ZM0 0"/>
<path transform="matrix(1.00005,0,0,-1.00002,46.345464,49.01974)" d="M15.32202-18.34657C15.32202-17.24611 14.42993-16.35402 13.32947-16.35402 12.22899-16.35402 11.33691-17.24611 11.33691-18.34657 11.33691-19.44705 12.22899-20.33913 13.32947-20.33913 14.42993-20.33913 15.32202-19.44705 15.32202-18.34657ZM13.32947-18.34657"/>
<path transform="matrix(1.00005,0,0,-1.00002,46.345464,49.01974)" d="M45.12816 14.01564C45.12816 15.1161 44.23608 16.0082 43.1356 16.0082 42.03514 16.0082 41.14305 15.1161 41.14305 14.01564 41.14305 12.91516 42.03514 12.02309 43.1356 12.02309 44.23608 12.02309 45.12816 12.91516 45.12816 14.01564ZM43.1356 14.01564"/>
<path transform="matrix(1.00005,0,0,-1.00002,46.345464,49.01974)" stroke-width=".3985" stroke-linecap="butt" stroke-miterlimit="10" stroke-linejoin="miter" fill="none" stroke="#000000" d="M0 0 21.5678 7.0078 0 45.35506 43.1356 14.01564 0 22.67752"/>
<path transform="matrix(1.00005,0,0,-1.00002,46.345464,49.01974)" d="M1.99255 0C1.99255 1.10046 1.10046 1.99255 0 1.99255-1.10046 1.99255-1.99255 1.10046-1.99255 0-1.99255-1.10046-1.10046-1.99255 0-1.99255 1.10046-1.99255 1.99255-1.10046 1.99255 0ZM0 0"/>
<path transform="matrix(1.00005,0,0,-1.00002,46.345464,49.01974)" d="M23.56035 7.0078C23.56035 8.10828 22.66827 9.00035 21.5678 9.00035 20.46733 9.00035 19.57524 8.10828 19.57524 7.0078 19.57524 5.90733 20.46733 5.01524 21.5678 5.01524 22.66827 5.01524 23.56035 5.90733 23.56035 7.0078ZM21.5678 7.0078"/>
<path transform="matrix(1.00005,0,0,-1.00002,46.345464,49.01974)" d="M1.99255 45.35506C1.99255 46.45552 1.10046 47.34761 0 47.34761-1.10046 47.34761-1.99255 46.45552-1.99255 45.35506-1.99255 44.25458-1.10046 43.3625 0 43.3625 1.10046 43.3625 1.99255 44.25458 1.99255 45.35506ZM0 45.35506"/>
</svg>
