<svg xmlns="http://www.w3.org/2000/svg" xmlns:xlink="http://www.w3.org/1999/xlink" xmlns:inkscape="http://www.inkscape.org/namespaces/inkscape" version="1.1" width="64" height="51" viewBox="0 0 64 51">
<defs>
<path id="font_1_1" d="M.38198854 .3803711C.36299134 .41638185 .33198548 .4423828 .2869873 .4423828 .17098999 .4423828 .041992189 .30433656 .041992189 .1512909 .041992189 .041259767 .11199951-.0107421879 .1789856-.0107421879 .24398804-.0107421879 .29699708 .043258668 .31298829 .06227112 .32398988 .007247925 .37399293-.0107421879 .4059906-.0107421879 .43499757-.0107421879 .45999146 .002243042 .48199464 .044265748 .5 .07727051 .5139923 .13928223 .5139923 .14329529 .5139923 .14828491 .5109863 .1552887 .5009918 .1552887 .4889984 .1552887 .48799134 .15029907 .48399354 .13128662 .46199037 .044265748 .43998719 .014251709 .40899659 .014251709 .38398744 .014251709 .37799073 .038253786 .37799073 .060272218 .37799073 .07926941 .3829956 .09927368 .3919983 .1342926L.4169922 .23731995C.42399598 .2623291 .44198609 .33735658 .44599916 .35235597 .44999696 .36636354 .45599366 .3903656 .45599366 .39337159 .45599366 .40937806 .44299317 .42237855 .4249878 .42237855 .4119873 .42237855 .3869934 .41438294 .38198854 .3803711M.31698609 .122283939C.31199647 .103271488 .31199647 .10227966 .29599 .08326721 .2599945 .040252687 .21899414 .014251709 .18199158 .014251709 .1329956 .014251709 .115997318 .06526184 .115997318 .10827637 .115997318 .15730286 .14498902 .27233888 .16899109 .32034303 .20098877 .3803711 .24699402 .41737367 .2869873 .41737367 .35398866 .41737367 .36898805 .33735658 .36898805 .33035279 .36898805 .3253479 .36698915 .3193512 .3659973 .31533814L.31698609 .122283939Z"/>
<path id="font_1_2" d="M.23899842 .6603241C.24299622 .67433169 .24299622 .67633059 .24299622 .68032839 .24299622 .68933108 .23699951 .69433596 .22799683 .69433596 .21398926 .69433596 .12599182 .6863251 .10598755 .6843262 .09599304 .68333438 .084991458 .6823273 .084991458 .665329 .084991458 .6523285 .09599304 .6523285 .11199951 .6523285 .15899658 .6523285 .15899658 .6453247 .15899658 .6363373 .15899658 .6303406 .15899658 .6283264 .1519928 .6013336L.09899902 .3903656C.084991458 .3343506 .07199097 .28334046 .06098938 .23631287 .053985597 .21131897 .04699707 .18130493 .04699707 .14929199 .04699707 .06326294 .09498596-.0107421879 .18099976-.0107421879 .2979889-.0107421879 .42599488 .13027954 .42599488 .28033448 .42599488 .38237 .36299134 .4423828 .28799439 .4423828 .23699951 .4423828 .19299317 .40737916 .16999817 .38536073L.23899842 .6603241M.1559906 .32835389C.18399048 .36836244 .23498535 .41737367 .28599549 .41737367 .33299256 .41737367 .35198976 .37036134 .35198976 .323349 .35198976 .27833558 .32398988 .15429688 .29299928 .10127258 .2559967 .037261964 .21199036 .014251709 .18099976 .014251709 .1309967 .014251709 .11099243 .06427002 .11099243 .11528015 .11099243 .15029907 .117996219 .17730713 .14099121 .2683258L.1559906 .32835389Z"/>
<path id="font_1_3" d="M.4019928 .38200379C.3639984 .38101197 .34399415 .352005 .34399415 .3270111 .34399415 .29800416 .36999513 .29101563 .38198854 .29101563 .4019928 .29101563 .43798829 .30801393 .43798829 .355011 .43798829 .40827943 .3849945 .4423828 .31599427 .4423828 .17999268 .4423828 .042999269 .30400086 .042999269 .16012573 .042999269 .06021118 .10998535-.0107421879 .21099854-.0107421879 .36099244-.0107421879 .44499208 .093185428 .44499208 .106170658 .44499208 .11216736 .43798829 .120162967 .43099977 .120162967 .42599488 .120162967 .4249878 .119155887 .41600038 .108169559 .35598756 .034225465 .2649994 .014251709 .21299744 .014251709 .15699768 .014251709 .11999512 .051223756 .11999512 .12315369 .11999512 .16612244 .13899231 .2650299 .1789856 .32901 .20199585 .3650055 .2539978 .41737367 .31698609 .41737367 .33599855 .41737367 .37799073 .41333009 .4019928 .38200379Z"/>
<path id="font_1_4" d="M.5239868 .6603241C.5279999 .67433169 .5279999 .67633059 .5279999 .68032839 .5279999 .68933108 .5219879 .69433596 .5130005 .69433596 .49899293 .69433596 .41099549 .6863251 .3909912 .6843262 .3809967 .68333438 .36999513 .6823273 .36999513 .665329 .36999513 .6523285 .3809967 .6523285 .39698792 .6523285 .44400025 .6523285 .44400025 .6453247 .44400025 .6363373 .44400025 .6293335 .43499757 .5943451 .42999269 .573349L.41099549 .4963684C.40098573 .45837403 .3909912 .41937257 .38198854 .3803711 .36299134 .41638185 .33198548 .4423828 .2869873 .4423828 .17098999 .4423828 .041992189 .30433656 .041992189 .1512909 .041992189 .041259767 .11199951-.0107421879 .1789856-.0107421879 .24398804-.0107421879 .29699708 .043258668 .31298829 .06227112 .32398988 .007247925 .37399293-.0107421879 .4059906-.0107421879 .43499757-.0107421879 .45999146 .002243042 .48199464 .044265748 .5 .07727051 .5139923 .13928223 .5139923 .14329529 .5139923 .14828491 .5109863 .1552887 .5009918 .1552887 .4889984 .1552887 .48799134 .15029907 .48399354 .13128662 .46199037 .044265748 .43998719 .014251709 .40899659 .014251709 .38398744 .014251709 .37799073 .038253786 .37799073 .060272218 .37799073 .073272708 .3829956 .10127258 .38398744 .104278568L.5239868 .6603241M.31698609 .121276859C.31298829 .105285648 .31199647 .103271488 .29599 .08326721 .2599945 .040252687 .21899414 .014251709 .18199158 .014251709 .1329956 .014251709 .115997318 .06526184 .115997318 .10827637 .115997318 .15730286 .14498902 .27233888 .16899109 .32034303 .20098877 .3803711 .24699402 .41737367 .2869873 .41737367 .35398866 .41737367 .36898805 .3363495 .36898805 .3313446 .36898805 .32635499 .36698915 .32034303 .3659973 .3163452L.31698609 .121276859Z"/>
<path id="font_2_1" d="M.7599945 .69506838C.7599945 .69807437 .7579956 .7050781 .7489929 .7050781 .74598696 .7050781 .7449951 .70407107 .73399356 .69306948L.6639862 .61598208C.6549988 .6300049 .60899356 .7050781 .49798585 .7050781 .2749939 .7050781 .049987794 .4837799 .049987794 .25144959 .049987794 .09249878 .16099549-.022460938 .32299806-.022460938 .36698915-.022460938 .4119873-.013473511 .44799806 .0015258789 .49798585 .021530152 .5169983 .042526246 .5349884 .06251526 .5439911 .037521364 .56999209 .0005340576 .5799866 .0005340576 .58499148 .0005340576 .58699038 .0035247803 .58699038 .0045318605 .58898928 .0065307619 .598999 .044525148 .60398867 .06550598L.6230011 .14248657C.6269989 .15948487 .6319885 .1764679 .6359863 .19346619 .6469879 .2384491 .647995 .240448 .7049866 .24145508 .70999148 .24145508 .72099307 .2424469 .72099307 .26145936 .72099307 .26844789 .71598818 .27246095 .70799258 .27246095 .68499758 .27246095 .6259918 .26945497 .6029968 .26945497 .57199099 .26945497 .49398805 .27246095 .46299745 .27246095 .45399476 .27246095 .44198609 .27246095 .44198609 .25245667 .44198609 .24145508 .44999696 .24145508 .47200013 .24145508 .47299195 .24145508 .5019989 .24145508 .5249939 .23945618 .5509949 .2364502 .55599978 .23345948 .55599978 .22045899 .55599978 .2114563 .54499819 .16647339 .5349884 .12948609 .5069885 .01953125 .3769989 .008529663 .34199525 .008529663 .24598694 .008529663 .14099121 .06550598 .14099121 .21846009 .14099121 .24945069 .15098572 .41467286 .2559967 .5448761 .30999757 .6129761 .40699769 .67407229 .5059967 .67407229 .60798647 .67407229 .6669922 .59695437 .6669922 .48077394 .6669922 .44070436 .6639862 .43971253 .6639862 .4296875 .6639862 .41967774 .6749878 .41967774 .67900088 .41967774 .69200137 .41967774 .69200137 .42167665 .69699099 .43971253L.7599945 .69506838Z"/>
<path id="font_3_1" d="M.28199769 .20405579C.2979889 .21907044 .33999635 .2520752 .35598756 .26608277 .41799928 .32312013 .47698976 .3781433 .47698976 .46917726 .47698976 .588089 .3769989 .66503909 .2519989 .66503909 .13198853 .66503909 .052993776 .57411196 .052993776 .48516847 .052993776 .4361725 .09199524 .4291687 .10598755 .4291687 .1269989 .4291687 .1579895 .4441681 .1579895 .48217774 .1579895 .5341797 .10798645 .5341797 .09599304 .5341797 .125 .6070709 .19198609 .6320343 .24099732 .6320343 .33399964 .6320343 .38198854 .55314639 .38198854 .46917726 .38198854 .36514283 .30899049 .28910829 .19099427 .16804505L.06498718 .037994386C.052993776 .026992798 .052993776 .024993897 .052993776 0H.44799806L.47698976 .17904663H.44599916C.44299317 .1590271 .43499757 .10900879 .4229889 .08999634 .4169922 .08198547 .34098817 .08198547 .32499696 .08198547H.14698792L.28199769 .20405579Z"/>
</defs>
<path transform="matrix(1.00008,0,0,-1.00003,31.99596,25.6702)" stroke-width=".3985" stroke-linecap="butt" stroke-miterlimit="10" stroke-linejoin="miter" fill="none" stroke="#000000" d="M-28.3468 0H0 28.3468M0 0-14.17339 22.67752M-14.17339 22.67752-28.3468 0"/>
<path transform="matrix(1.00008,0,0,-1.00003,31.99596,25.6702)" d="M-26.35425 0C-26.35425 1.10046-27.24634 1.99255-28.3468 1.99255-29.44728 1.99255-30.33936 1.10046-30.33936 0-30.33936-1.10046-29.44728-1.99255-28.3468-1.99255-27.24634-1.99255-26.35425-1.10046-26.35425 0ZM-28.3468 0"/>
<use data-text="a" xlink:href="#font_1_1" transform="matrix(8.967117,0,0,-8.966669,1.2054978,35.5585)"/>
<path transform="matrix(1.00008,0,0,-1.00003,31.99596,25.6702)" d="M1.99255 0C1.99255 1.10046 1.10046 1.99255 0 1.99255-1.10046 1.99255-1.99255 1.10046-1.99255 0-1.99255-1.10046-1.10046-1.99255 0-1.99255 1.10046-1.99255 1.99255-1.10046 1.99255 0ZM0 0"/>
<use data-text="b" xlink:href="#font_1_2" transform="matrix(8.967117,0,0,-8.966669,30.020802,37.92457)"/>
<path transform="matrix(1.00008,0,0,-1.00003,31.99596,25.6702)" d="M30.33936 0C30.33936 1.10046 29.44728 1.99255 28.3468 1.99255 27.24634 1.99255 26.35425 1.10046 26.35425 0 26.35425-1.10046 27.24634-1.99255 28.3468-1.99255 29.44728-1.99255 30.33936-1.10046 30.33936 0ZM28.3468 0"/>
<use data-text="c" xlink:href="#font_1_3" transform="matrix(8.967117,0,0,-8.966669,58.350069,35.5585)"/>
<path transform="matrix(1.00008,0,0,-1.00003,31.99596,25.6702)" d="M-12.18083 22.67752C-12.18083 23.77798-13.07292 24.67007-14.17339 24.67007-15.27386 24.67007-16.16594 23.77798-16.16594 22.67752-16.16594 21.57704-15.27386 20.68497-14.17339 20.68497-13.07292 20.68497-12.18083 21.57704-12.18083 22.67752ZM-14.17339 22.67752"/>
<use data-text="d" xlink:href="#font_1_4" transform="matrix(8.967117,0,0,-8.966669,15.433634,15.244888)"/>
<use data-text="G" xlink:href="#font_2_1" transform="matrix(10.909972,0,0,-10.909428,25.340428,48.299879)"/>
<use data-text="2" xlink:href="#font_3_1" transform="matrix(7.9707376,0,0,-7.9703395,33.918115,49.936929)"/>
</svg>
