<svg xmlns="http://www.w3.org/2000/svg" xmlns:xlink="http://www.w3.org/1999/xlink" xmlns:inkscape="http://www.inkscape.org/namespaces/inkscape" version="1.1" width="64" height="56" viewBox="0 0 64 56">
<path transform="matrix(1.0001,0,0,-1.00005,31.555455,28.013798)" stroke-width=".19925" stroke-linecap="butt" stroke-miterlimit="10" stroke-linejoin="miter" fill="none" stroke="#000000" d="M28.3468 0 14.17339 24.5491-28.3468 0Z"/>
<path transform="matrix(1.0001,0,0,-1.00005,31.555455,28.013798)" d="M30.33936 0C30.33936 1.10046 29.44728 1.99255 28.3468 1.99255 27.24634 1.99255 26.35425 1.10046 26.35425 0 26.35425-1.10046 27.24634-1.99255 28.3468-1.99255 29.44728-1.99255 30.33936-1.10046 30.33936 0ZM28.3468 0"/>
<path transform="matrix(1.0001,0,0,-1.00005,31.555455,28.013798)" stroke-width=".19925" stroke-linecap="butt" stroke-miterlimit="10" stroke-linejoin="miter" fill="none" stroke="#000000" d="M14.17339 24.5491H-14.17339V-24.5491Z"/>
<path transform="matrix(1.0001,0,0,-1.00005,31.555455,28.013798)" d="M16.16594 24.5491C16.16594 25.64958 15.27386 26.54166 14.17339 26.54166 13.07292 26.54166 12.18083 25.64958 12.18083 24.5491 12.18083 23.44864 13.07292 22.55655 14.17339 22.55655 15.27386 22.55655 16.16594 23.44864 16.16594 24.5491ZM14.17339 24.5491"/>
<path transform="matrix(1.0001,0,0,-1.00005,31.555455,28.013798)" stroke-width=".19925" stroke-linecap="butt" stroke-miterlimit="10" stroke-linejoin="miter" fill="none" stroke="#000000" d="M-14.17339 24.5491-28.3468 0 14.17339-24.5491Z"/>
<path transform="matrix(1.0001,0,0,-1.00005,31.555455,28.013798)" d="M-12.18083 24.5491C-12.18083 25.64958-13.07292 26.54166-14.17339 26.54166-15.27386 26.54166-16.16594 25.64958-16.16594 24.5491-16.16594 23.44864-15.27386 22.55655-14.17339 22.55655-13.07292 22.55655-12.18083 23.44864-12.18083 24.5491ZM-14.17339 24.5491"/>
<path transform="matrix(1.0001,0,0,-1.00005,31.555455,28.013798)" stroke-width=".19925" stroke-linecap="butt" stroke-miterlimit="10" stroke-linejoin="miter" fill="none" stroke="#000000" d="M-28.3468 0-14.17339-24.5491 28.3468 0Z"/>
<path transform="matrix(1.0001,0,0,-1.00005,31.555455,28.013798)" d="M-26.35425 0C-26.35425 1.10046-27.24634 1.99255-28.3468 1.99255-29.44728 1.99255-30.33936 1.10046-30.33936 0-30.33936-1.10046-29.44728-1.99255-28.3468-1.99255-27.24634-1.99255-26.35425-1.10046-26.35425 0ZM-28.3468 0"/>
<path transform="matrix(1.0001,0,0,-1.00005,31.555455,28.013798)" stroke-width=".19925" stroke-linecap="butt" stroke-miterlimit="10" stroke-linejoin="miter" fill="none" stroke="#000000" d="M-14.17339-24.5491H14.17339V24.5491Z"/>
<path transform="matrix(1.0001,0,0,-1.00005,31.555455,28.013798)" d="M-12.18083-24.5491C-12.18083-23.44864-13.07292-22.55655-14.17339-22.55655-15.27386-22.55655-16.16594-23.44864-16.16594-24.5491-16.16594-25.64958-15.27386-26.54166-14.17339-26.54166-13.07292-26.54166-12.18083-25.64958-12.18083-24.5491ZM-14.17339-24.5491"/>
<path transform="matrix(1.0001,0,0,-1.00005,31.555455,28.013798)" stroke-width=".19925" stroke-linecap="butt" stroke-miterlimit="10" stroke-linejoin="miter" fill="none" stroke="#000000" d="M14.17339-24.5491 28.3468 0-14.17339 24.5491Z"/>
<path transform="matrix(1.0001,0,0,-1.00005,31.555455,28.013798)" d="M16.16594-24.5491C16.16594-23.44864 15.27386-22.55655 14.17339-22.55655 13.07292-22.55655 12.18083-23.44864 12.18083-24.5491 12.18083-25.64958 13.07292-26.54166 14.17339-26.54166 15.27386-26.54166 16.16594-25.64958 16.16594-24.5491ZM14.17339-24.5491"/>
<path transform="matrix(1.0001,0,0,-1.00005,31.555455,28.013798)" stroke-width=".19925" stroke-linecap="butt" stroke-miterlimit="10" stroke-linejoin="miter" fill="none" stroke="#000000" d="M28.3468 0 14.17339 24.5491-28.3468 0Z"/>
<path transform="matrix(1.0001,0,0,-1.00005,31.555455,28.013798)" d="M30.33936 0C30.33936 1.10046 29.44728 1.99255 28.3468 1.99255 27.24634 1.99255 26.35425 1.10046 26.35425 0 26.35425-1.10046 27.24634-1.99255 28.3468-1.99255 29.44728-1.99255 30.33936-1.10046 30.33936 0ZM28.3468 0"/>
<path transform="matrix(1.0001,0,0,-1.00005,31.555455,28.013798)" stroke-width="1.19553" stroke-linecap="butt" stroke-miterlimit="10" stroke-linejoin="miter" fill="none" stroke="#000000" d="M28.3468 0 14.17339 24.5491-28.3468 0-14.17339-24.5491 28.3468 0H-28.3468M14.17339 24.5491-14.17339-24.5491"/>
</svg>
