<svg xmlns="http://www.w3.org/2000/svg" xmlns:xlink="http://www.w3.org/1999/xlink" xmlns:inkscape="http://www.inkscape.org/namespaces/inkscape" version="1.1" width="64" height="50" viewBox="0 0 64 50">
<defs>
<path id="font_1_95" d="M.7519989 .088897708C.7519989 .09489441 .7519989 .10687256 .73799136 .10687256 .72499087 .10687256 .72499087 .09788513 .723999 .08988953 .71899417 .026992798 .6879883 .0029907227 .6569977 .0029907227 .625 .0029907227 .6139984 .022994996 .60598757 .039978029 .5970001 .061935426 .58799746 .12983704 .58200076 .17475891 .57398989 .23666382 .5649872 .3035431 .45399476 .33850099 .548996 .36550904 .6269989 .42453004 .6269989 .5025635 .6269989 .601593 .5059967 .6826172 .35899354 .6826172H.039993287V.6516113H.06298828C.13999939 .6516113 .14199829 .64060977 .14199829 .6035919V.07891846C.14199829 .04197693 .13999939 .0309906 .06298828 .0309906H.039993287V0C.08699036 .0029907227 .13699341 .0029907227 .18499756 .0029907227 .23298645 .0029907227 .2829895 .0029907227 .33099366 0V.0309906H.30799867C.23098755 .0309906 .22898865 .04197693 .22898865 .07891846V.32850648H.34899903C.42099 .32850648 .45298768 .29057313 .45700074 .28657533 .4869995 .24963379 .4869995 .23466492 .4869995 .16377259 .4869995 .09687805 .4869995 .052963258 .5349884 .01499939 .58200076-.022003174 .6419983-.022003174 .6529999-.022003174 .7369995-.022003174 .7519989 .064941409 .7519989 .088897708M.5249939 .5025635C.5249939 .41653443 .48098756 .35351563 .34498597 .35351563H.22898865V.6105957C.22898865 .63661196 .23098755 .6456146 .25 .6496124 .25898744 .6516113 .29100038 .6516113 .31199647 .6516113 .397995 .6516113 .5249939 .6516113 .5249939 .5025635Z"/>
<path id="font_1_34" d="M.66999819 .18199158C.66999819 .27198792 .58299258 .34498597 .47200013 .35699464 .57099917 .37677003 .6409912 .43974305 .6409912 .51368716 .6409912 .6016388 .54499819 .6826172 .41299439 .6826172H.040985109V.6516113H.06399536C.14099121 .6516113 .14299011 .64060977 .14299011 .6036377V.07896423C.14299011 .041992189 .14099121 .0309906 .06399536 .0309906H.040985109V0H.44099427C.57598879-.00022888184 .66999819 .088760379 .66999819 .1817627V.18199158M.54499819 .51368716C.54499819 .4367218 .47799684 .36776734 .38398744 .36776734H.22698975V.6106262C.22698975 .64460757 .22898865 .6516113 .27598573 .6516113H.4059906C.5039978 .6517639 .54499819 .573761 .54499819 .5137634V.51368716M.57099917 .18388367C.57099917 .106933597 .5109863 .0309906 .4079895 .0309906H.27598573C.22898865 .0309906 .22698975 .037994386 .22698975 .07196045V.34277345H.41600038C.5319977 .34298707 .57099917 .24499512 .57099917 .18399048V.18388367Z"/>
</defs>
<path transform="matrix(1.00008,0,0,-1.00003,31.865948,24.708352)" stroke-width=".3985" stroke-linecap="butt" stroke-miterlimit="10" stroke-linejoin="miter" fill="none" stroke="#000000" d="M8.01752 8.01752 20.04422 20.04422H-20.04422M8.01752 8.01752H-8.01752"/>
<path transform="matrix(1.00008,0,0,-1.00003,31.865948,24.708352)" d="M10.01007 8.01752C10.01007 9.11798 9.11798 10.01007 8.01752 10.01007 6.91704 10.01007 6.02496 9.11798 6.02496 8.01752 6.02496 6.91704 6.91704 6.02496 8.01752 6.02496 9.11798 6.02496 10.01007 6.91704 10.01007 8.01752ZM8.01752 8.01752"/>
<path transform="matrix(1.00008,0,0,-1.00003,31.865948,24.708352)" d="M22.03677 20.04422C22.03677 21.1447 21.1447 22.03677 20.04422 22.03677 18.94376 22.03677 18.05167 21.1447 18.05167 20.04422 18.05167 18.94376 18.94376 18.05167 20.04422 18.05167 21.1447 18.05167 22.03677 18.94376 22.03677 20.04422ZM20.04422 20.04422"/>
<path transform="matrix(1.00008,0,0,-1.00003,31.865948,24.708352)" stroke-width=".3985" stroke-linecap="butt" stroke-miterlimit="10" stroke-linejoin="miter" fill="none" stroke="#000000" d="M-8.01752 8.01752-20.04422 20.04422V-20.04422M-8.01752 8.01752V-8.01752"/>
<path transform="matrix(1.00008,0,0,-1.00003,31.865948,24.708352)" d="M-6.02496 8.01752C-6.02496 9.11798-6.91704 10.01007-8.01752 10.01007-9.11798 10.01007-10.01007 9.11798-10.01007 8.01752-10.01007 6.91704-9.11798 6.02496-8.01752 6.02496-6.91704 6.02496-6.02496 6.91704-6.02496 8.01752ZM-8.01752 8.01752"/>
<path transform="matrix(1.00008,0,0,-1.00003,31.865948,24.708352)" d="M-18.05167 20.04422C-18.05167 21.1447-18.94376 22.03677-20.04422 22.03677-21.1447 22.03677-22.03677 21.1447-22.03677 20.04422-22.03677 18.94376-21.1447 18.05167-20.04422 18.05167-18.94376 18.05167-18.05167 18.94376-18.05167 20.04422ZM-20.04422 20.04422"/>
<path transform="matrix(1.00008,0,0,-1.00003,31.865948,24.708352)" stroke-width=".3985" stroke-linecap="butt" stroke-miterlimit="10" stroke-linejoin="miter" fill="none" stroke="#000000" d="M-8.01752-8.01752-20.04422-20.04422H20.04422M-8.01752-8.01752H8.01752"/>
<path transform="matrix(1.00008,0,0,-1.00003,31.865948,24.708352)" d="M-6.02496-8.01752C-6.02496-6.91704-6.91704-6.02496-8.01752-6.02496-9.11798-6.02496-10.01007-6.91704-10.01007-8.01752-10.01007-9.11798-9.11798-10.01007-8.01752-10.01007-6.91704-10.01007-6.02496-9.11798-6.02496-8.01752ZM-8.01752-8.01752"/>
<path transform="matrix(1.00008,0,0,-1.00003,31.865948,24.708352)" d="M-18.05167-20.04422C-18.05167-18.94376-18.94376-18.05167-20.04422-18.05167-21.1447-18.05167-22.03677-18.94376-22.03677-20.04422-22.03677-21.1447-21.1447-22.03677-20.04422-22.03677-18.94376-22.03677-18.05167-21.1447-18.05167-20.04422ZM-20.04422-20.04422"/>
<path transform="matrix(1.00008,0,0,-1.00003,31.865948,24.708352)" stroke-width=".3985" stroke-linecap="butt" stroke-miterlimit="10" stroke-linejoin="miter" fill="none" stroke="#000000" d="M8.01752-8.01752 20.04422-20.04422V20.04422M8.01752-8.01752V8.01752"/>
<path transform="matrix(1.00008,0,0,-1.00003,31.865948,24.708352)" d="M10.01007-8.01752C10.01007-6.91704 9.11798-6.02496 8.01752-6.02496 6.91704-6.02496 6.02496-6.91704 6.02496-8.01752 6.02496-9.11798 6.91704-10.01007 8.01752-10.01007 9.11798-10.01007 10.01007-9.11798 10.01007-8.01752ZM8.01752-8.01752"/>
<path transform="matrix(1.00008,0,0,-1.00003,31.865948,24.708352)" d="M22.03677-20.04422C22.03677-18.94376 21.1447-18.05167 20.04422-18.05167 18.94376-18.05167 18.05167-18.94376 18.05167-20.04422 18.05167-21.1447 18.94376-22.03677 20.04422-22.03677 21.1447-22.03677 22.03677-21.1447 22.03677-20.04422ZM20.04422-20.04422"/>
<path transform="matrix(1.00008,0,0,-1.00003,31.865948,24.708352)" stroke-width=".3985" stroke-linecap="butt" stroke-miterlimit="10" stroke-linejoin="miter" fill="none" stroke="#000000" d="M20.04422-20.04422"/>
<use data-text="R" xlink:href="#font_1_95" transform="matrix(8.967117,0,0,-8.966669,43.719896,19.6542)"/>
<use data-text="B" xlink:href="#font_1_34" transform="matrix(8.967117,0,0,-8.966669,13.484478,19.753203)"/>
<use data-text="R" xlink:href="#font_1_95" transform="matrix(8.967117,0,0,-8.966669,13.233458,35.689683)"/>
<use data-text="B" xlink:href="#font_1_34" transform="matrix(8.967117,0,0,-8.966669,43.719896,35.788686)"/>
<use data-text="B" xlink:href="#font_1_34" transform="matrix(8.967117,0,0,-8.966669,55.746858,7.7258417)"/>
<use data-text="R" xlink:href="#font_1_95" transform="matrix(8.967117,0,0,-8.966669,1.2054939,7.6268389)"/>
<use data-text="B" xlink:href="#font_1_34" transform="matrix(8.967117,0,0,-8.966669,1.4565163,47.815046)"/>
<use data-text="R" xlink:href="#font_1_95" transform="matrix(8.967117,0,0,-8.966669,55.746858,47.71704)"/>
</svg>
