<svg xmlns="http://www.w3.org/2000/svg" xmlns:xlink="http://www.w3.org/1999/xlink" xmlns:inkscape="http://www.inkscape.org/namespaces/inkscape" version="1.1" width="143" height="140" viewBox="0 0 143 140">
<defs>
<path id="font_1_27" d="M.84098818 0V.038986207H.81900027C.75 .038986207 .7429962 .049972536 .7319946 .076919559L.47898866 .68984988C.47099305 .7098541 .46199037 .7138672 .44799806 .7138672 .4269867 .7138672 .4229889 .70484927 .4169922 .68984988L.1749878 .103881839C.1539917 .052963258 .10798645 .038986207 .053985597 .038986207V0C.08999634 .0039978029 .12599182 .0039978029 .1619873 .0039978029 .20098877 .0039978029 .2689972 .0009918213 .28599549 0V.038986207C.23399353 .038986207 .21199036 .063949588 .21199036 .08590698 .21199036 .09190369 .21398926 .09489441 .21798706 .10588074L.2669983 .22467041H.56599429L.6259918 .08091736C.6279907 .076919559 .6309967 .06993103 .6309967 .06594849 .6309967 .038986207 .57398989 .038986207 .5469971 .038986207V0L.70199587 .0039978029 .84098818 0M.5499878 .26367188H.2829895L.4169922 .5877991 .5499878 .26367188Z"/>
<path id="font_1_72" d="M.30099488 0V.038986207C.23199463 .038986207 .22200012 .038986207 .22200012 .08201599V.69433596L.06399536 .6826172V.6436157C.13398743 .6436157 .14299011 .63661196 .14299011 .5876465V.081970218C.14299011 .038986207 .1329956 .038986207 .06399536 .038986207V0L.18199158 .0039978029C.22200012 .0039978029 .26098634 .0029907227 .30099488 0Z"/>
<path id="font_1_34" d="M.7709961 .18389893C.7709961 .26185609 .69299319 .33979798 .5519867 .3577881 .6539917 .37477113 .7389984 .43574525 .7389984 .5126953 .7389984 .6036377 .6259918 .6826172 .48298646 .6826172H.068984989V.6436157H.09498596C.1749878 .6436157 .1749878 .63160708 .1749878 .5986328V.083969119C.1749878 .050979616 .1749878 .038986207 .09498596 .038986207H.068984989V0H.5139923C.6599884-.0001373291 .7709961 .085861209 .7709961 .18385315V.18389893M.6349945 .5126648C.6349945 .43676759 .55799868 .37086488 .44299317 .37086488H.2679901V.6045532C.2679901 .6355438 .2679901 .6435547 .31698609 .6435547H.47599793C.57499697 .6439972 .6349945 .57899478 .6349945 .5130005V.5126648M.6639862 .18499756C.6639862 .11199951 .59098818 .038986207 .47799684 .038986207H.31698609C.2679901 .0390625 .2679901 .047058107 .2679901 .078048709V.3388672H.49398805C.60198977 .3388672 .6639862 .2569275 .6639862 .1849823V.18499756Z"/>
<path id="font_1_81" d="M.56199648 .21325684C.56199648 .3382721 .44999696 .44628907 .30499269 .44628907 .15899658 .44628907 .04798889 .3382721 .04798889 .21325684 .04798889 .0912323 .16099549-.009765625 .30499269-.009765625 .44898988-.009765625 .56199648 .0912323 .56199648 .21325684M.46699525 .22225952C.46699525 .17424011 .46699525 .025222779 .30499269 .025222779 .14299011 .025222779 .14299011 .17424011 .14299011 .22225952 .14299011 .25326539 .14299011 .32226563 .17999268 .363266 .21398926 .39927674 .25698854 .41427613 .30499269 .41427613 .35299684 .41427613 .397995 .39927674 .43099977 .36227418 .46699525 .3212738 .46699525 .2542572 .46699525 .22225952Z"/>
<path id="font_1_35" d="M.62098696 .21601868C.62098696 .33802796 .5130005 .44140626 .375 .44140626 .32199098 .44140626 .2649994 .4263916 .21598816 .38201905V.69433596L.057998659 .68333438V.6443329C.12799073 .6443329 .13699341 .6373291 .13699341 .5883484V.00022888184H.17399597L.20899964 .061203004C.24299622 .021224976 .2939911-.009765625 .36299134-.009765625 .5019989-.009765625 .62098696 .08918762 .62098696 .21609497V.21601868M.526001 .21609497C.526001 .02722168 .37998963 .022232056 .35798646 .022232056 .32398988 .022232056 .2749939 .032226564 .23498535 .08418274 .21998596 .10417175 .21998596 .106170658 .21998596 .12515259V.33203126C.25099183 .38201905 .31098939 .4093933 .36898805 .4093933 .42199708 .4093933 .46299745 .38304139 .48599244 .35601808 .5179901 .31703187 .526001 .2680664 .526001 .21609497Z"/>
<path id="font_1_42" d="M.7899933 .23370362C.7899933 .24472046 .78900149 .25473023 .7709961 .25473023 .7549896 .25473023 .7539978 .24671936 .7529907 .23770142 .7449951 .08456421 .60598757 .017501831 .49598695 .017501831 .37599183 .017501831 .18998719 .08857727 .18998719 .34179688 .18998719 .59002688 .37098695 .6651001 .49499513 .6651001 .60798647 .6651001 .72499087 .58802798 .75 .43489076 .7519989 .421875 .7529907 .41487123 .769989 .41487123 .7899933 .41487123 .7899933 .42288209 .7899933 .4429016V.6760864C.7899933 .6931 .7899933 .70410159 .7739868 .70410159 .7649994 .70410159 .7630005 .7000885 .7559967 .6911011L.70098879 .61505129C.6429901 .6730957 .56399539 .70410159 .48199464 .70410159 .2599945 .70410159 .07899475 .539978 .07899475 .34179688 .07899475 .140625 .2599945-.021484375 .48298646-.021484375 .66600039-.021484375 .7899933 .10658264 .7899933 .23370362Z"/>
<path id="font_1_28" d="M.5799866 .09013367V.14515686H.54299929V.09213257C.54299929 .0821228 .54299929 .037109376 .5039978 .037109376 .46499635 .037109376 .46499635 .0821228 .46499635 .09213257V.29823304C.46499635 .39126588 .36999513 .44628907 .2579956 .44628907 .20999146 .44628907 .09199524 .44128419 .09199524 .35725404 .09199524 .33024598 .10998535 .30822755 .14099121 .30822755 .16999817 .30822755 .18899536 .33024598 .18899536 .35624696 .18899536 .37426759 .18099976 .39126588 .16299439 .39927674 .19599915 .41427613 .24598694 .41427613 .2559967 .41427613 .32699586 .41427613 .38198854 .37225343 .38198854 .29621888V.2702179C.33599855 .268219 .2559967 .2662201 .18299866 .24020386 .116989139 .2171936 .053985597 .17216492 .053985597 .10513306 .053985597 .016220093 .1599884-.009765625 .23799134-.009765625 .32199098-.009765625 .37199403 .032226564 .3939972 .07022095 .40098573 .018112183 .43399049-.0048828127 .46899415-.0048828127 .47299195-.0048828127 .5799866-.0048828127 .5799866 .09010315V.09013367M.38198854 .1421051C.38198854 .038223268 .2789917 .022232056 .24699402 .022232056 .19299317 .022232056 .14199829 .055221559 .14199829 .10522461 .14199829 .16122437 .19599915 .23422241 .38198854 .24023438V.1421051Z"/>
<path id="font_1_105" d="M.40098573 .12599182V.18110657H.3639984V.12799073C.3639984 .057159425 .32699586 .025222779 .2899933 .025222779 .21798706 .025222779 .21798706 .106033328 .21798706 .125V.39257813H.38198854V.43156434H.21798706V.6152344H.18099976C.17999268 .52638247 .13699341 .42855836 .035995485 .4245758V.39257813H.1349945V.125C.1349945 .020233155 .21398926-.009765625 .28199769-.009765625 .35099793-.009765625 .40098573 .045181276 .40098573 .12599182Z"/>
<path id="font_1_46" d="M.83599856 .33480836C.83599856 .52767947 .6749878 .6826172 .48098756 .6826172H.066986087V.6436157H.09298706C.17298889 .6436157 .17298889 .63160708 .17298889 .5986328V.083969119C.17298889 .050979616 .17298889 .038986207 .09298706 .038986207H.066986087V0H.48199464C.6749878 0 .83599856 .14892578 .83599856 .33480836M.72898867 .33580018C.72898867 .2708435 .71798709 .1829071 .66600039 .124938968 .60398867 .05697632 .5189972 .038986207 .45399476 .038986207H.31799317C.2689972 .0390625 .2689972 .047058107 .2689972 .078048709V.6045532C.2689972 .6355438 .2689972 .6435547 .31799317 .6435547H.45298768C.5239868 .6435547 .60198977 .6215515 .6599884 .56059268 .71598818 .50064089 .72898867 .409729 .72898867 .33580018Z"/>
<path id="font_1_66" d="M.29299928 0V.038986207C.23098755 .038986207 .22200012 .038986207 .22200012 .08103943V.44140626L.067993167 .43058778V.39160157C.13398743 .39160157 .14299011 .38459779 .14299011 .33558656V.082595828C.14299011 .038986207 .1329956 .038986207 .06399536 .038986207V0L.18099976 .0039978029C.19099427 .0039978029 .2669983 .0019989014 .29299928 0M.23599243 .60112C.23599243 .6331177 .20999146 .6611328 .17599488 .6611328 .13899231 .6611328 .114990238 .63012698 .114990238 .60112 .114990238 .5691223 .14099121 .54112246 .1749878 .54112246 .21199036 .54112246 .23599243 .5721283 .23599243 .60112Z"/>
<path id="font_1_96" d="M.43399049 .37539674C.43399049 .41540528 .3959961 .44140626 .35198976 .44140626 .2919922 .44140626 .24099732 .4053955 .20999146 .33839417H.20899964V.44140626L.057998659 .43058778V.39160157C.12799073 .39160157 .13699341 .38458253 .13699341 .335495V.08206177C.13699341 .038986207 .1269989 .038986207 .057998659 .038986207V0C.08299255 .0019989014 .15699768 .0039978029 .1789856 .0039978029 .23098755 .0039978029 .2999878 .0009918213 .31399537 0V.038986207H.2919922C.21699524 .039398195 .21598816 .0493927 .21598816 .08340454V.22439575C.21598816 .31739808 .2639923 .4073944 .35299684 .4093933 .34399415 .40040589 .33999635 .38839723 .33999635 .37539674 .33999635 .34840394 .3600006 .32839967 .3869934 .32839967 .4139862 .32839967 .43399049 .34840394 .43399049 .37539674Z"/>
<path id="font_1_70" d="M.60899356 0V.038986207C.55599978 .038986207 .5419922 .04698181 .5069885 .08694458L.34799195 .2697754C.45700074 .35169984 .5079956 .3896637 .58299258 .3916626V.43066407C.56999209 .42965699 .5399933 .426651 .5079956 .426651 .46499635 .426651 .3939972 .42965699 .3849945 .43066407V.3916626C.40098573 .3896637 .40299989 .3756714 .40299989 .3756714 .40299989 .37167359 .40098573 .35469056 .37199403 .33370973L.21598816 .2208252V.69433596L.057998659 .6826172V.6436157C.12799073 .6436157 .13699341 .63661196 .13699341 .5876465V.081970218C.13699341 .038986207 .1269989 .038986207 .057998659 .038986207V0C.084991458 .0019989014 .15299988 .0039978029 .1749878 .0039978029L.2919922 0V.038986207C.22299195 .038986207 .21299744 .038986207 .21299744 .081970218V.1729126L.2889862 .22787476 .40098573 .097961429C.4119873 .08496094 .42599488 .06997681 .42599488 .055984498 .42599488 .041992189 .4099884 .038986207 .39898683 .038986207V0C.41999818 .0019989014 .48999024 .0039978029 .5159912 .0039978029 .5549927 .0039978029 .59999087 .0009918213 .60899356 0Z"/>
<path id="font_1_49" d="M.7719879 .26600648H.7350006C.70799258 .11204529 .6799927 .0390625 .48999024 .0390625H.31999208C.2709961 .0390625 .2709961 .047058107 .2709961 .078048709V.3330078H.3789978C.47999574 .3330078 .5 .30599977 .5 .21601868H.5369873V.4888153H.5C.5 .3989563 .47999574 .37199403 .3789978 .37199403H.2709961V.600647C.2709961 .6316376 .2709961 .63964846 .31999208 .63964846H.48098756C.6469879 .6397095 .68299868 .59173586 .70199587 .4458313H.7389984L.70799258 .67871096H.06498718V.6397095H.09098816C.17098999 .6397095 .17098999 .62771609 .17098999 .59472659V.08404541C.17098999 .05105591 .17098999 .0390625 .09098816 .0390625H.06498718V0H.72499087L.7719879 .26600648Z"/>
<path id="font_1_112" d="M.6029968 .3916626V.43066407C.6029968 .43066407 .5569916 .426651 .522995 .426651 .48999024 .426651 .43399049 .42965699 .42799378 .43066407V.3916626C.47099305 .3896942 .47099305 .3580475 .47099305 .3550415 .47099305 .34204103 .46598817 .3320465 .46199037 .3240509L.34498597 .08218384 .21499634 .3510437C.21199036 .35604859 .20899964 .36305238 .20899964 .3700409 .20899964 .3916626 .24499512 .3916626 .2619934 .3916626V.43066407L.14299011 .426651C.12199402 .426651 .06199646 .4286499 .039993287 .43066407V.3916626C.09899902 .3916626 .10899353 .3887024 .12399292 .3580475L.2889862 .014221191C.29899598-.0067749025 .30899049-.009765625 .32099916-.009765625 .34098817-.009765625 .34599305-.00077819827 .35299684 .013214111L.5059967 .3310547C.5299988 .37986756 .56599429 .39067079 .6029968 .3916626Z"/>
</defs>
<path transform="matrix(1,0,0,-1.00008,65.912,67.63961)" stroke-width=".3985" stroke-linecap="butt" stroke-miterlimit="10" stroke-linejoin="miter" fill="none" stroke="#000000" d="M22.4746 40.43947C22.4746 45.59511 18.29524 49.77446 13.1396 49.77446 7.98398 49.77446 3.80463 45.59511 3.80463 40.43947 3.80463 35.28384 7.98398 31.10449 13.1396 31.10449 18.29524 31.10449 22.4746 35.28384 22.4746 40.43947ZM13.1396 40.43947"/>
<use data-text="A" xlink:href="#font_1_27" transform="matrix(5.9776,0,0,-5.9780786,75.32201,29.331547)"/>
<use data-text="l" xlink:href="#font_1_72" transform="matrix(5.9776,0,0,-5.9780786,80.67793,29.331547)"/>
<path transform="matrix(1,0,0,-1.00008,65.912,67.63961)" stroke-width=".3985" stroke-linecap="butt" stroke-miterlimit="10" stroke-linejoin="miter" fill="none" stroke="#000000" d="M54.02992 0C54.02992 6.35672 48.87692 11.50972 42.5202 11.50972 36.16348 11.50972 31.01048 6.35672 31.01048 0 31.01048-6.35672 36.16348-11.50972 42.5202-11.50972 48.87692-11.50972 54.02992-6.35672 54.02992 0ZM42.5202 0"/>
<use data-text="B" xlink:href="#font_1_34" transform="matrix(5.9776,0,0,-5.9780786,102.04201,69.68378)"/>
<use data-text="o" xlink:href="#font_1_81" transform="matrix(5.9776,0,0,-5.9780786,107.12894,69.68378)"/>
<use data-text="b" xlink:href="#font_1_35" transform="matrix(5.9776,0,0,-5.9780786,110.78125,69.68378)"/>
<path transform="matrix(1,0,0,-1.00008,65.912,67.63961)" stroke-width=".3985" stroke-linecap="butt" stroke-miterlimit="10" stroke-linejoin="miter" fill="none" stroke="#000000" d="M24.2446-40.43947C24.2446-34.30627 19.2728-29.33449 13.1396-29.33449 7.00642-29.33449 2.03462-34.30627 2.03462-40.43947 2.03462-46.57266 7.00642-51.54446 13.1396-51.54446 19.2728-51.54446 24.2446-46.57266 24.2446-40.43947ZM13.1396-40.43947"/>
<use data-text="C" xlink:href="#font_1_42" transform="matrix(5.9776,0,0,-5.9780786,73.188,110.12401)"/>
<use data-text="a" xlink:href="#font_1_28" transform="matrix(5.9776,0,0,-5.9780786,78.38852,110.12401)"/>
<use data-text="t" xlink:href="#font_1_105" transform="matrix(5.9776,0,0,-5.9780786,82.04083,110.12401)"/>
<path transform="matrix(1,0,0,-1.00008,65.912,67.63961)" stroke-width=".3985" stroke-linecap="butt" stroke-miterlimit="10" stroke-linejoin="miter" fill="none" stroke="#000000" d="M-22.23328-24.99268C-22.23328-18.27325-27.6803-12.82623-34.39973-12.82623-41.11916-12.82623-46.56618-18.27325-46.56618-24.99268-46.56618-31.71211-41.11916-37.15913-34.39973-37.15913-27.6803-37.15913-22.23328-31.71211-22.23328-24.99268ZM-34.39973-24.99268"/>
<use data-text="D" xlink:href="#font_1_46" transform="matrix(5.9776,0,0,-5.9780786,24.360005,94.70877)"/>
<use data-text="i" xlink:href="#font_1_66" transform="matrix(5.9776,0,0,-5.9780786,29.835484,94.70877)"/>
<use data-text="r" xlink:href="#font_1_96" transform="matrix(5.9776,0,0,-5.9780786,31.939602,94.70877)"/>
<use data-text="k" xlink:href="#font_1_70" transform="matrix(5.9776,0,0,-5.9780786,34.81483,94.70877)"/>
<path transform="matrix(1,0,0,-1.00008,65.912,67.63961)" stroke-width=".3985" stroke-linecap="butt" stroke-miterlimit="10" stroke-linejoin="miter" fill="none" stroke="#000000" d="M-23.23248 24.99268C-23.23248 31.16026-28.23215 36.15994-34.39973 36.15994-40.5673 36.15994-45.56699 31.16026-45.56699 24.99268-45.56699 18.8251-40.5673 13.82542-34.39973 13.82542-28.23215 13.82542-23.23248 18.8251-23.23248 24.99268ZM-34.39973 24.99268"/>
<use data-text="E" xlink:href="#font_1_49" transform="matrix(5.9776,0,0,-5.9780786,25.508004,44.64477)"/>
<use data-text="v" xlink:href="#font_1_112" transform="matrix(5.9776,0,0,-5.9780786,30.403656,44.64477)"/>
<use data-text="a" xlink:href="#font_1_28" transform="matrix(5.9776,0,0,-5.9780786,33.87066,44.64477)"/>
<path transform="matrix(1,0,0,-1.00008,65.912,67.63961)" stroke-width=".3985" stroke-linecap="butt" stroke-miterlimit="10" stroke-linejoin="miter" fill="none" stroke="#000000" d=""/>
<path transform="matrix(1,0,0,-1.00008,65.912,67.63961)" stroke-width=".3985" stroke-linecap="butt" stroke-miterlimit="10" stroke-linejoin="miter" fill="none" stroke="#000000" d="M19.29349 48.31947C34.69731 68.03462 11.91966 75.4358 12.79305 50.43182"/>
<path transform="matrix(-.61568,.788043,.78798,.6157292,85.20549,19.316277)" stroke-width=".31879" stroke-linecap="round" stroke-linejoin="round" fill="none" stroke="#000000" d="M-1.19551 1.59401C-1.09587 .99626 0 .09961 .29886 0 0-.09961-1.09587-.99626-1.19551-1.59401"/>
<path transform="matrix(.03488,.9994499,.99937,-.03488279,78.70503,17.203759)" stroke-width=".31879" stroke-linecap="round" stroke-linejoin="round" fill="none" stroke="#000000" d="M-1.19551 1.59401C-1.09587 .99626 0 .09961 .29886 0 0-.09961-1.09587-.99626-1.19551-1.59401"/>
<path transform="matrix(1,0,0,-1.00008,65.912,67.63961)" stroke-width=".3985" stroke-linecap="butt" stroke-miterlimit="10" stroke-linejoin="miter" fill="none" stroke="#000000" d=""/>
<path transform="matrix(1,0,0,-1.00008,65.912,67.63961)" stroke-width=".3985" stroke-linecap="butt" stroke-miterlimit="10" stroke-linejoin="miter" fill="none" stroke="#000000" d="M53.9604-4.16106C82.88002-14.68747 82.88002 14.68747 53.9604 4.16106"/>
<path transform="matrix(-.93967,-.34205736,-.34203,.9397452,119.872409,71.801)" stroke-width=".31879" stroke-linecap="round" stroke-linejoin="round" fill="none" stroke="#000000" d="M-1.19551 1.59401C-1.09587 .99626 0 .09961 .29886 0 0-.09961-1.09587-.99626-1.19551-1.59401"/>
<path transform="matrix(-.93967,.34205736,.34203,.9397452,119.872409,63.478219)" stroke-width=".31879" stroke-linecap="round" stroke-linejoin="round" fill="none" stroke="#000000" d="M-1.19551 1.59401C-1.09587 .99626 0 .09961 .29886 0 0-.09961-1.09587-.99626-1.19551-1.59401"/>
<path transform="matrix(1,0,0,-1.00008,65.912,67.63961)" stroke-width=".3985" stroke-linecap="butt" stroke-miterlimit="10" stroke-linejoin="miter" fill="none" stroke="#000000" d=""/>
<path transform="matrix(1,0,0,-1.00008,65.912,67.63961)" stroke-width=".3985" stroke-linecap="butt" stroke-miterlimit="10" stroke-linejoin="miter" fill="none" stroke="#000000" d="M12.73137-52.20093C11.69287-81.93271 38.69965-73.15733 20.38322-49.71443"/>
<path transform="matrix(.03488,-.9994499,-.99937,-.03488279,78.64336,119.84472)" stroke-width=".31879" stroke-linecap="round" stroke-linejoin="round" fill="none" stroke="#000000" d="M-1.19551 1.59401C-1.09587 .99626 0 .09961 .29886 0 0-.09961-1.09587-.99626-1.19551-1.59401"/>
<path transform="matrix(-.61566,-.788043,-.78798,.61570927,86.29524,117.35802)" stroke-width=".31879" stroke-linecap="round" stroke-linejoin="round" fill="none" stroke="#000000" d="M-1.19551 1.59401C-1.09587 .99626 0 .09961 .29886 0 0-.09961-1.09587-.99626-1.19551-1.59401"/>
<path transform="matrix(1,0,0,-1.00008,65.912,67.63961)" stroke-width=".3985" stroke-linecap="butt" stroke-miterlimit="10" stroke-linejoin="miter" fill="none" stroke="#000000" d=""/>
<path transform="matrix(1,0,0,-1.00008,65.912,67.63961)" stroke-width=".3985" stroke-linecap="butt" stroke-miterlimit="10" stroke-linejoin="miter" fill="none" stroke="#000000" d="M-46.73232-28.53085C-78.14458-37.53769-59.84877-62.71983-41.57594-35.62819"/>
<path transform="matrix(.96126,-.27562205,-.2756,-.9613369,19.179673,96.172748)" stroke-width=".31879" stroke-linecap="round" stroke-linejoin="round" fill="none" stroke="#000000" d="M-1.19551 1.59401C-1.09587 .99626 0 .09961 .29886 0 0-.09961-1.09587-.99626-1.19551-1.59401"/>
<path transform="matrix(.55916,-.8290963,-.82903,-.5592047,24.336045,103.27066)" stroke-width=".31879" stroke-linecap="round" stroke-linejoin="round" fill="none" stroke="#000000" d="M-1.19551 1.59401C-1.09587 .99626 0 .09961 .29886 0 0-.09961-1.09587-.99626-1.19551-1.59401"/>
<path transform="matrix(1,0,0,-1.00008,65.912,67.63961)" stroke-width=".3985" stroke-linecap="butt" stroke-miterlimit="10" stroke-linejoin="miter" fill="none" stroke="#000000" d=""/>
<path transform="matrix(1,0,0,-1.00008,65.912,67.63961)" stroke-width=".3985" stroke-linecap="butt" stroke-miterlimit="10" stroke-linejoin="miter" fill="none" stroke="#000000" d="M-41.01714 34.79971C-57.79326 59.67232-74.61104 36.5245-45.77173 28.25539"/>
<path transform="matrix(.55916,.8290963,.82903,-.5592047,24.894852,32.837099)" stroke-width=".31879" stroke-linecap="round" stroke-linejoin="round" fill="none" stroke="#000000" d="M-1.19551 1.59401C-1.09587 .99626 0 .09961 .29886 0 0-.09961-1.09587-.99626-1.19551-1.59401"/>
<path transform="matrix(.96126,.27562205,.2756,-.9613369,20.140263,39.381959)" stroke-width=".31879" stroke-linecap="round" stroke-linejoin="round" fill="none" stroke="#000000" d="M-1.19551 1.59401C-1.09587 .99626 0 .09961 .29886 0 0-.09961-1.09587-.99626-1.19551-1.59401"/>
<path transform="matrix(1,0,0,-1.00008,65.912,67.63961)" stroke-width=".3985" stroke-linecap="butt" stroke-miterlimit="10" stroke-linejoin="miter" fill="none" stroke="#000000" d=""/>
<path transform="matrix(1,0,0,-1.00008,65.912,67.63961)" stroke-width=".3985" stroke-linecap="butt" stroke-miterlimit="10" stroke-linejoin="miter" fill="none" stroke="#000000" d="M35.37427 9.84537 19.01573 32.35977"/>
<path transform="matrix(.58778,.80905476,.80899,-.587827,101.286258,57.79344)" stroke-width=".31879" stroke-linecap="round" stroke-linejoin="round" fill="none" stroke="#000000" d="M-1.19551 1.59401C-1.09587 .99626 0 .09961 .29886 0 0-.09961-1.09587-.99626-1.19551-1.59401"/>
<path transform="matrix(-.58778,-.80905476,-.80899,.587827,84.92775,35.27726)" stroke-width=".31879" stroke-linecap="round" stroke-linejoin="round" fill="none" stroke="#000000" d="M-1.19551 1.59401C-1.09587 .99626 0 .09961 .29886 0 0-.09961-1.09587-.99626-1.19551-1.59401"/>
<path transform="matrix(1,0,0,-1.00008,65.912,67.63961)" stroke-width=".3985" stroke-linecap="butt" stroke-miterlimit="10" stroke-linejoin="miter" fill="none" stroke="#000000" d=""/>
<path transform="matrix(1,0,0,-1.00008,65.912,67.63961)" stroke-width=".3985" stroke-linecap="butt" stroke-miterlimit="10" stroke-linejoin="miter" fill="none" stroke="#000000" d="M13.14136-28.68068 13.14134 30.45087"/>
<path transform="matrix(0,1.00008,1,0,79.05336,96.322589)" stroke-width=".31879" stroke-linecap="round" stroke-linejoin="round" fill="none" stroke="#000000" d="M-1.19551 1.59401C-1.09587 .99626 0 .09961 .29886 0 0-.09961-1.09587-.99626-1.19551-1.59401"/>
<path transform="matrix(0,-1.00008,-1,-0,79.053348,37.186304)" stroke-width=".31879" stroke-linecap="round" stroke-linejoin="round" fill="none" stroke="#000000" d="M-1.19551 1.59401C-1.09587 .99626 0 .09961 .29886 0 0-.09961-1.09587-.99626-1.19551-1.59401"/>
<path transform="matrix(1,0,0,-1.00008,65.912,67.63961)" stroke-width=".3985" stroke-linecap="butt" stroke-miterlimit="10" stroke-linejoin="miter" fill="none" stroke="#000000" d=""/>
<path transform="matrix(1,0,0,-1.00008,65.912,67.63961)" stroke-width=".3985" stroke-linecap="butt" stroke-miterlimit="10" stroke-linejoin="miter" fill="none" stroke="#000000" d="M-26.86568-14.61946 7.2671 32.35959"/>
<path transform="matrix(-.58778,.80906477,.809,.587827,39.04634,82.26024)" stroke-width=".31879" stroke-linecap="round" stroke-linejoin="round" fill="none" stroke="#000000" d="M-1.19551 1.59401C-1.09587 .99626 0 .09961 .29886 0 0-.09961-1.09587-.99626-1.19551-1.59401"/>
<path transform="matrix(.58778,-.80906477,-.809,-.587827,73.17909,35.27743)" stroke-width=".31879" stroke-linecap="round" stroke-linejoin="round" fill="none" stroke="#000000" d="M-1.19551 1.59401C-1.09587 .99626 0 .09961 .29886 0 0-.09961-1.09587-.99626-1.19551-1.59401"/>
<path transform="matrix(1,0,0,-1.00008,65.912,67.63961)" stroke-width=".3985" stroke-linecap="butt" stroke-miterlimit="10" stroke-linejoin="miter" fill="none" stroke="#000000" d=""/>
<path transform="matrix(1,0,0,-1.00008,65.912,67.63961)" stroke-width=".3985" stroke-linecap="butt" stroke-miterlimit="10" stroke-linejoin="miter" fill="none" stroke="#000000" d="M-23.15717 28.6516 3.63658 37.35706"/>
<path transform="matrix(-.95107,.3090147,.30899,.95114609,42.754854,38.98571)" stroke-width=".31879" stroke-linecap="round" stroke-linejoin="round" fill="none" stroke="#000000" d="M-1.19551 1.59401C-1.09587 .99626 0 .09961 .29886 0 0-.09961-1.09587-.99626-1.19551-1.59401"/>
<path transform="matrix(.95107,-.3090147,-.30899,-.95114609,69.54857,30.279583)" stroke-width=".31879" stroke-linecap="round" stroke-linejoin="round" fill="none" stroke="#000000" d="M-1.19551 1.59401C-1.09587 .99626 0 .09961 .29886 0 0-.09961-1.09587-.99626-1.19551-1.59401"/>
<path transform="matrix(1,0,0,-1.00008,65.912,67.63961)" stroke-width=".3985" stroke-linecap="butt" stroke-miterlimit="10" stroke-linejoin="miter" fill="none" stroke="#000000" d=""/>
<path transform="matrix(1,0,0,-1.00008,65.912,67.63961)" stroke-width=".3985" stroke-linecap="butt" stroke-miterlimit="10" stroke-linejoin="miter" fill="none" stroke="#000000" d="M20.05681-30.92819 35.37392-9.84506"/>
<path transform="matrix(-.58775,.80910477,.80904,.58779707,85.96881,98.570278)" stroke-width=".31879" stroke-linecap="round" stroke-linejoin="round" fill="none" stroke="#000000" d="M-1.19551 1.59401C-1.09587 .99626 0 .09961 .29886 0 0-.09961-1.09587-.99626-1.19551-1.59401"/>
<path transform="matrix(.58775,-.80910477,-.80904,-.58779707,101.28592,77.48546)" stroke-width=".31879" stroke-linecap="round" stroke-linejoin="round" fill="none" stroke="#000000" d="M-1.19551 1.59401C-1.09587 .99626 0 .09961 .29886 0 0-.09961-1.09587-.99626-1.19551-1.59401"/>
<path transform="matrix(1,0,0,-1.00008,65.912,67.63961)" stroke-width=".3985" stroke-linecap="butt" stroke-miterlimit="10" stroke-linejoin="miter" fill="none" stroke="#000000" d=""/>
<path transform="matrix(1,0,0,-1.00008,65.912,67.63961)" stroke-width=".3985" stroke-linecap="butt" stroke-miterlimit="10" stroke-linejoin="miter" fill="none" stroke="#000000" d="M-23.15665 21.34172 30.95236 3.76053"/>
<path transform="matrix(-.95105,-.3090247,-.309,.95112606,42.755353,46.29618)" stroke-width=".31879" stroke-linecap="round" stroke-linejoin="round" fill="none" stroke="#000000" d="M-1.19551 1.59401C-1.09587 .99626 0 .09961 .29886 0 0-.09961-1.09587-.99626-1.19551-1.59401"/>
<path transform="matrix(.95105,.3090247,.309,-.95112606,96.864368,63.87878)" stroke-width=".31879" stroke-linecap="round" stroke-linejoin="round" fill="none" stroke="#000000" d="M-1.19551 1.59401C-1.09587 .99626 0 .09961 .29886 0 0-.09961-1.09587-.99626-1.19551-1.59401"/>
<path transform="matrix(1,0,0,-1.00008,65.912,67.63961)" stroke-width=".3985" stroke-linecap="butt" stroke-miterlimit="10" stroke-linejoin="miter" fill="none" stroke="#000000" d=""/>
<path transform="matrix(1,0,0,-1.00008,65.912,67.63961)" stroke-width=".3985" stroke-linecap="butt" stroke-miterlimit="10" stroke-linejoin="miter" fill="none" stroke="#000000" d="M-22.20682-28.96054 1.95299-36.81017"/>
<path transform="matrix(-.95107,-.3090147,-.30899,.95114609,43.7052,96.602489)" stroke-width=".31879" stroke-linecap="round" stroke-linejoin="round" fill="none" stroke="#000000" d="M-1.19551 1.59401C-1.09587 .99626 0 .09961 .29886 0 0-.09961-1.09587-.99626-1.19551-1.59401"/>
<path transform="matrix(.95105,.3090047,.30898,-.95112606,67.86499,104.45273)" stroke-width=".31879" stroke-linecap="round" stroke-linejoin="round" fill="none" stroke="#000000" d="M-1.19551 1.59401C-1.09587 .99626 0 .09961 .29886 0 0-.09961-1.09587-.99626-1.19551-1.59401"/>
<path transform="matrix(1,0,0,-1.00008,65.912,67.63961)" stroke-width=".3985" stroke-linecap="butt" stroke-miterlimit="10" stroke-linejoin="miter" fill="none" stroke="#000000" d=""/>
<path transform="matrix(1,0,0,-1.00008,65.912,67.63961)" stroke-width=".3985" stroke-linecap="butt" stroke-miterlimit="10" stroke-linejoin="miter" fill="none" stroke="#000000" d="M-27.45303 15.42793 6.22661-30.92752"/>
<path transform="matrix(-.58778,-.80906477,-.809,.587827,38.458986,52.210447)" stroke-width=".31879" stroke-linecap="round" stroke-linejoin="round" fill="none" stroke="#000000" d="M-1.19551 1.59401C-1.09587 .99626 0 .09961 .29886 0 0-.09961-1.09587-.99626-1.19551-1.59401"/>
<path transform="matrix(.58778,.80906477,.809,-.587827,72.1386,98.5696)" stroke-width=".31879" stroke-linecap="round" stroke-linejoin="round" fill="none" stroke="#000000" d="M-1.19551 1.59401C-1.09587 .99626 0 .09961 .29886 0 0-.09961-1.09587-.99626-1.19551-1.59401"/>
</svg>
