<svg xmlns="http://www.w3.org/2000/svg" xmlns:xlink="http://www.w3.org/1999/xlink" xmlns:inkscape="http://www.inkscape.org/namespaces/inkscape" version="1.1" width="205" height="51" viewBox="0 0 205 51">
<defs>
<path id="font_1_1" d="M.08799744 .059265138C.084991458 .044265748 .07899475 .021255494 .07899475 .01625061 .07899475-.0017547608 .09298706-.0107421879 .10798645-.0107421879 .11999512-.0107421879 .13798523-.002746582 .14498902 .01725769 .1459961 .019256592 .1579895 .06626892 .1639862 .091278079L.18598938 .18130493C.19198609 .2033081 .19799805 .22531128 .20298767 .24832154 .20698548 .26531983 .21499634 .29434205 .21598816 .29833985 .23098755 .3293457 .28399659 .42037965 .3789978 .42037965 .42399598 .42037965 .43299867 .38336183 .43299867 .35035707 .43299867 .28833009 .38398744 .16029358 .36799623 .11727905 .35899354 .0942688 .35798646 .08227539 .35798646 .0712738 .35798646 .024261475 .3929901-.0107421879 .43998719-.0107421879 .5339966-.0107421879 .57099917 .13528443 .57099917 .14329529 .57099917 .1532898 .56199648 .1532898 .5589905 .1532898 .548996 .1532898 .548996 .15029907 .5439911 .13528443 .5239868 .06726074 .4909973 .011245728 .44198609 .011245728 .4249878 .011245728 .41799928 .021255494 .41799928 .044265748 .41799928 .0692749 .4269867 .09327698 .43598939 .11528015 .45498658 .16830445 .49699403 .27833558 .49699403 .3353424 .49699403 .40237428 .45399476 .4423828 .38198854 .4423828 .2919922 .4423828 .24299622 .37835694 .22599793 .35534669 .22099304 .41137696 .17999268 .4423828 .13398743 .4423828 .08799744 .4423828 .068984989 .4033661 .05899048 .38536073 .042999269 .35134889 .0289917 .29232789 .0289917 .28833009 .0289917 .27833558 .038986207 .27833558 .040985109 .27833558 .050994874 .27833558 .051986696 .2793274 .057998659 .30133058 .07499695 .37236024 .09498596 .42037965 .1309967 .42037965 .15098572 .42037965 .1619873 .4073639 .1619873 .37435914 .1619873 .35334779 .15899658 .3423462 .1459961 .29032899L.08799744 .059265138Z"/>
<path id="font_2_4" d="M.68699648 .32714845C.70199587 .32714845 .72099307 .32714845 .72099307 .34713746 .72099307 .36714173 .70199587 .36714173 .6879883 .36714173H.08898926C.07499695 .36714173 .055999757 .36714173 .055999757 .34713746 .055999757 .32714845 .07499695 .32714845 .08999634 .32714845H.68699648M.6879883 .13284302C.70199587 .13284302 .72099307 .13284302 .72099307 .15284729 .72099307 .17285156 .70199587 .17285156 .68699648 .17285156H.08999634C.07499695 .17285156 .055999757 .17285156 .055999757 .15284729 .055999757 .13284302 .07499695 .13284302 .08898926 .13284302H.6879883Z"/>
<path id="font_2_1" d="M.45999146 .31976319C.45999146 .39982606 .45498658 .47988893 .41999818 .5539398 .37399293 .65000918 .2919922 .6660156 .25 .6660156 .18998719 .6660156 .116989139 .64001467 .07598877 .54693606 .04399109 .47789 .038986207 .39982606 .038986207 .31976319 .038986207 .24472046 .042999269 .15464783 .083999637 .07859802 .1269989-.0024719239 .19999695-.022460938 .24899292-.022460938 .30299378-.022460938 .3789978-.0014648438 .4229889 .09359741 .45498658 .16265869 .45999146 .2407074 .45999146 .31976319M.24899292-.00047302247C.20999146-.00047302247 .15098572 .024551392 .1329956 .12062073 .12199402 .18066406 .12199402 .2727356 .12199402 .3317871 .12199402 .39582826 .12199402 .46188355 .12998963 .5159149 .14898682 .63500979 .22399903 .64401248 .24899292 .64401248 .28199769 .64401248 .34799195 .6259918 .36698915 .52693179 .3769989 .47088624 .3769989 .39482118 .3769989 .3317871 .3769989 .25672914 .3769989 .18867493 .3659973 .12461853 .35099793 .029556275 .2939911-.00047302247 .24899292-.00047302247Z"/>
<path id="font_2_2" d="M.2939911 .64004519C.2939911 .66400149 .2939911 .6660156 .2709961 .6660156 .20899964 .60227969 .12098694 .60227969 .08898926 .60227969V.57128909C.10899353 .57128909 .16799927 .57128909 .21998596 .5972748V.07902527C.21998596 .042999269 .21699524 .0309906 .1269989 .0309906H.09498596V0C.12998963 .0029907227 .21699524 .0029907227 .25698854 .0029907227 .29699708 .0029907227 .38398744 .0029907227 .4189911 0V.0309906H.3869934C.29699708 .0309906 .2939911 .041992189 .2939911 .07902527V.64004519Z"/>
<path id="font_2_3" d="M.1269989 .07699585 .23298645 .18003845C.3889923 .31811524 .44898988 .3721466 .44898988 .47216798 .44898988 .5860901 .35899354 .6660156 .23699951 .6660156 .12399292 .6660156 .049987794 .57411196 .049987794 .48516847 .049987794 .4291687 .099990848 .4291687 .102996829 .4291687 .11999512 .4291687 .15499878 .44117738 .15499878 .48217774 .15499878 .5081787 .13699341 .5341797 .101989749 .5341797 .09399414 .5341797 .09199524 .5341797 .08898926 .5331726 .11199951 .59806826 .1659851 .63500979 .22399903 .63500979 .31498719 .63500979 .35798646 .5541382 .35798646 .47216798 .35798646 .39215089 .30799867 .31311036 .25299073 .25108338L.06098938 .036987306C.049987794 .025985718 .049987794 .023986817 .049987794 0H.42099L.44898988 .17404175H.42399598C.4189911 .14402771 .4119873 .1000061 .4019928 .084991458 .394989 .07699585 .32899476 .07699585 .30699159 .07699585H.1269989Z"/>
</defs>
<path transform="matrix(1.00005,0,0,-1,14.479973,20.671)" d="M0 0"/>
<path transform="matrix(1.00005,0,0,-1,14.479973,20.671)" stroke-width=".3985" stroke-linecap="butt" stroke-miterlimit="10" stroke-linejoin="miter" fill="none" stroke="#000000" d="M0 0"/>
<path transform="matrix(1.00005,0,0,-1,14.479973,20.671)" d="M1.99255 0C1.99255 1.10046 1.10046 1.99255 0 1.99255-1.10046 1.99255-1.99255 1.10046-1.99255 0-1.99255-1.10046-1.10046-1.99255 0-1.99255 1.10046-1.99255 1.99255-1.10046 1.99255 0ZM0 0"/>
<use data-text="n" xlink:href="#font_1_1" transform="matrix(10.909644,0,0,-10.9091,1.2053108,48.545)"/>
<use data-text="=" xlink:href="#font_2_4" transform="matrix(10.909644,0,0,-10.9091,10.783789,48.545)"/>
<use data-text="0" xlink:href="#font_2_1" transform="matrix(10.909644,0,0,-10.9091,22.282555,48.545)"/>
<path transform="matrix(1.00005,0,0,-1,14.479973,20.671)" d="M93.54454-8.50412"/>
<path transform="matrix(1.00005,0,0,-1,14.479973,20.671)" stroke-width=".3985" stroke-linecap="butt" stroke-miterlimit="10" stroke-linejoin="miter" fill="none" stroke="#000000" d="M93.54454-8.50412"/>
<path transform="matrix(1.00005,0,0,-1,14.479973,20.671)" d="M87.03297 0C87.03297 1.10046 86.1409 1.99255 85.04042 1.99255 83.93996 1.99255 83.04787 1.10046 83.04787 0 83.04787-1.10046 83.93996-1.99255 85.04042-1.99255 86.1409-1.99255 87.03297-1.10046 87.03297 0ZM85.04042 0"/>
<path transform="matrix(1.00005,0,0,-1,14.479973,20.671)" d="M95.5371 8.50412C95.5371 9.60458 94.64502 10.49667 93.54454 10.49667 92.44408 10.49667 91.55199 9.60458 91.55199 8.50412 91.55199 7.40364 92.44408 6.51157 93.54454 6.51157 94.64502 6.51157 95.5371 7.40364 95.5371 8.50412ZM93.54454 8.50412"/>
<path transform="matrix(1.00005,0,0,-1,14.479973,20.671)" d="M78.52884-8.50412C78.52884-7.40364 77.63675-6.51157 76.53629-6.51157 75.4358-6.51157 74.54373-7.40364 74.54373-8.50412 74.54373-9.60458 75.4358-10.49667 76.53629-10.49667 77.63675-10.49667 78.52884-9.60458 78.52884-8.50412ZM76.53629-8.50412"/>
<path transform="matrix(1.00005,0,0,-1,14.479973,20.671)" d="M78.52884 8.50412C78.52884 9.60458 77.63675 10.49667 76.53629 10.49667 75.4358 10.49667 74.54373 9.60458 74.54373 8.50412 74.54373 7.40364 75.4358 6.51157 76.53629 6.51157 77.63675 6.51157 78.52884 7.40364 78.52884 8.50412ZM76.53629 8.50412"/>
<path transform="matrix(1.00005,0,0,-1,14.479973,20.671)" d="M95.5371-8.50412C95.5371-7.40364 94.64502-6.51157 93.54454-6.51157 92.44408-6.51157 91.55199-7.40364 91.55199-8.50412 91.55199-9.60458 92.44408-10.49667 93.54454-10.49667 94.64502-10.49667 95.5371-9.60458 95.5371-8.50412ZM93.54454-8.50412"/>
<use data-text="n" xlink:href="#font_1_1" transform="matrix(10.909644,0,0,-10.9091,86.24956,48.545)"/>
<use data-text="=" xlink:href="#font_2_4" transform="matrix(10.909644,0,0,-10.9091,95.82803,48.545)"/>
<use data-text="1" xlink:href="#font_2_2" transform="matrix(10.909644,0,0,-10.9091,107.3268,48.545)"/>
<path transform="matrix(1.00005,0,0,-1,14.479973,20.671)" d="M187.0891-17.00824"/>
<path transform="matrix(1.00005,0,0,-1,14.479973,20.671)" stroke-width=".3985" stroke-linecap="butt" stroke-miterlimit="10" stroke-linejoin="miter" fill="none" stroke="#000000" d="M187.0891-17.00824"/>
<path transform="matrix(1.00005,0,0,-1,14.479973,20.671)" d="M172.07341 0C172.07341 1.10046 171.18132 1.99255 170.08086 1.99255 168.98038 1.99255 168.0883 1.10046 168.0883 0 168.0883-1.10046 168.98038-1.99255 170.08086-1.99255 171.18132-1.99255 172.07341-1.10046 172.07341 0ZM170.08086 0"/>
<path transform="matrix(1.00005,0,0,-1,14.479973,20.671)" d="M180.57753 8.50412C180.57753 9.60458 179.68544 10.49667 178.58498 10.49667 177.4845 10.49667 176.59243 9.60458 176.59243 8.50412 176.59243 7.40364 177.4845 6.51157 178.58498 6.51157 179.68544 6.51157 180.57753 7.40364 180.57753 8.50412ZM178.58498 8.50412"/>
<path transform="matrix(1.00005,0,0,-1,14.479973,20.671)" d="M163.56926-8.50412C163.56926-7.40364 162.67719-6.51157 161.5767-6.51157 160.47624-6.51157 159.58415-7.40364 159.58415-8.50412 159.58415-9.60458 160.47624-10.49667 161.5767-10.49667 162.67719-10.49667 163.56926-9.60458 163.56926-8.50412ZM161.5767-8.50412"/>
<path transform="matrix(1.00005,0,0,-1,14.479973,20.671)" d="M163.56926 8.50412C163.56926 9.60458 162.67719 10.49667 161.5767 10.49667 160.47624 10.49667 159.58415 9.60458 159.58415 8.50412 159.58415 7.40364 160.47624 6.51157 161.5767 6.51157 162.67719 6.51157 163.56926 7.40364 163.56926 8.50412ZM161.5767 8.50412"/>
<path transform="matrix(1.00005,0,0,-1,14.479973,20.671)" d="M180.57753-8.50412C180.57753-7.40364 179.68544-6.51157 178.58498-6.51157 177.4845-6.51157 176.59243-7.40364 176.59243-8.50412 176.59243-9.60458 177.4845-10.49667 178.58498-10.49667 179.68544-10.49667 180.57753-9.60458 180.57753-8.50412ZM178.58498-8.50412"/>
<path transform="matrix(1.00005,0,0,-1,14.479973,20.671)" d="M189.08165 17.00824C189.08165 18.1087 188.18958 19.0008 187.0891 19.0008 185.98863 19.0008 185.09654 18.1087 185.09654 17.00824 185.09654 15.90776 185.98863 15.01569 187.0891 15.01569 188.18958 15.01569 189.08165 15.90776 189.08165 17.00824ZM187.0891 17.00824"/>
<path transform="matrix(1.00005,0,0,-1,14.479973,20.671)" d="M155.06514-17.00824C155.06514-15.90776 154.17307-15.01569 153.07259-15.01569 151.97212-15.01569 151.08003-15.90776 151.08003-17.00824 151.08003-18.1087 151.97212-19.0008 153.07259-19.0008 154.17307-19.0008 155.06514-18.1087 155.06514-17.00824ZM153.07259-17.00824"/>
<path transform="matrix(1.00005,0,0,-1,14.479973,20.671)" d="M155.06514 17.00824C155.06514 18.1087 154.17307 19.0008 153.07259 19.0008 151.97212 19.0008 151.08003 18.1087 151.08003 17.00824 151.08003 15.90776 151.97212 15.01569 153.07259 15.01569 154.17307 15.01569 155.06514 15.90776 155.06514 17.00824ZM153.07259 17.00824"/>
<path transform="matrix(1.00005,0,0,-1,14.479973,20.671)" d="M189.08165-17.00824C189.08165-15.90776 188.18958-15.01569 187.0891-15.01569 185.98863-15.01569 185.09654-15.90776 185.09654-17.00824 185.09654-18.1087 185.98863-19.0008 187.0891-19.0008 188.18958-19.0008 189.08165-18.1087 189.08165-17.00824ZM187.0891-17.00824"/>
<use data-text="n" xlink:href="#font_1_1" transform="matrix(10.909644,0,0,-10.9091,171.2948,48.545)"/>
<use data-text="=" xlink:href="#font_2_4" transform="matrix(10.909644,0,0,-10.9091,180.87329,48.545)"/>
<use data-text="2" xlink:href="#font_2_3" transform="matrix(10.909644,0,0,-10.9091,192.37206,48.545)"/>
</svg>
