<svg xmlns="http://www.w3.org/2000/svg" xmlns:xlink="http://www.w3.org/1999/xlink" xmlns:inkscape="http://www.inkscape.org/namespaces/inkscape" version="1.1" width="122" height="67" viewBox="0 0 122 67">
<defs>
<path id="font_1_76" d="M.71598818 .6516113V.6826172L.598999 .6796112 .48199464 .6826172V.6516113C.58499148 .6516113 .58499148 .6046295 .58499148 .577652V.15092469L.23199463 .6696167C.22299195 .6816101 .22200012 .6826172 .20298767 .6826172H.032989503V.6516113H.06199646C.07699585 .6516113 .09700012 .65060427 .11199951 .6496124 .1349945 .64660647 .13598633 .6456146 .13598633 .62661746V.10494995C.13598633 .07795715 .13598633 .0309906 .032989503 .0309906V0L.1499939 .0029907227 .2669983 0V.0309906C.1639862 .0309906 .1639862 .07795715 .1639862 .10494995V.62461856C.16899109 .6196289 .16999817 .6186218 .17399597 .6126251L.58200076 .0129852299C.59098818 .0009918213 .59199526 0 .598999 0 .61299136 0 .61299136 .0069885256 .61299136 .025985718V.577652C.61299136 .6046295 .61299136 .6516113 .71598818 .6516113Z"/>
<path id="font_1_81" d="M.47099305 .21424866C.47099305 .34223939 .37098695 .4482422 .25 .4482422 .125 .4482422 .027999878 .3392334 .027999878 .21424866 .027999878 .085250858 .13198853-.0107421879 .24899292-.0107421879 .36999513-.0107421879 .47099305 .087249759 .47099305 .21424866M.3880005 .22224427C.3880005 .18624878 .3880005 .13224793 .3659973 .08824158 .34399415 .04324341 .2999878 .014251709 .25 .014251709 .20698548 .014251709 .16299439 .035247804 .13598633 .08125305 .11099243 .12524414 .11099243 .18624878 .11099243 .22224427 .11099243 .26124574 .11099243 .31523133 .1349945 .35923768 .1619873 .40522767 .20899964 .426239 .24899292 .426239 .29299928 .426239 .33599855 .40423585 .3619995 .36123658 .3880005 .3182373 .3880005 .26023866 .3880005 .22224427Z"/>
<path id="font_1_105" d="M.33198548 .12385559V.18066406H.30699159V.12585449C.30699159 .052108766 .2769928 .014251709 .23999024 .014251709 .17298889 .014251709 .17298889 .10491943 .17298889 .12187195V.3996582H.31599427V.43066407H.17298889V.6142578H.147995C.14698792 .5324249 .116989139 .42565919 .018997193 .42166139V.3996582H.10398865V.12408447C.10398865 .0012512207 .19699097-.0107421879 .23298645-.0107421879 .3039856-.0107421879 .33198548 .060180665 .33198548 .12408447V.12385559Z"/>
<path id="font_1_66" d="M.24699402 0V.0309906C.18099976 .0309906 .1769867 .035995485 .1769867 .075042728V.4423828L.036987306 .43066407V.3996582C.101989749 .3996582 .11099243 .3936615 .11099243 .3447113V.07595825C.11099243 .0309906 .099990848 .0309906 .032989503 .0309906V0L.14299011 .0029907227C.17799378 .0029907227 .21299744 .0009918213 .24699402 0M.19198609 .603775C.19198609 .6307678 .16899109 .6567688 .13899231 .6567688 .10499573 .6567688 .084991458 .6287689 .084991458 .603775 .084991458 .57676699 .10798645 .55078127 .13798523 .55078127 .17199707 .55078127 .19198609 .5787811 .19198609 .603775Z"/>
<path id="font_1_77" d="M.5349884 0V.0309906C.48298646 .0309906 .45799256 .0309906 .45700074 .061019899V.25221253C.45700074 .3383026 .45700074 .36932374 .42599488 .405365 .4119873 .42237855 .3789978 .4423828 .32099916 .4423828 .24798584 .4423828 .20098877 .39935304 .17298889 .33729554V.4423828L.03199768 .43066407V.3996582C.101989749 .3996582 .10998535 .39266969 .10998535 .34370423V.07595825C.10998535 .0309906 .09899902 .0309906 .03199768 .0309906V0L.14498902 .0029907227 .25698854 0V.0309906C.18998719 .0309906 .1789856 .0309906 .1789856 .07595825V.25978089C.1789856 .36431886 .25 .42037965 .31399537 .42037965 .3769989 .42037965 .3880005 .36631776 .3880005 .30926515V.076034549C.3880005 .0309906 .3769989 .0309906 .30999757 .0309906V0L.4229889 .0029907227 .5349884 0Z"/>
<path id="font_1_68" d="M.20999146-.049972536V.4423828L.057998659 .43138124V.40037538C.1349945 .40037538 .14399719 .39337159 .14399719 .34432984V-.051971437C.14399719-.09700012 .1349945-.18309021 .070999149-.18309021 .06599426-.18309021 .042999269-.18309021 .016998291-.17001343 .03199768-.16600037 .051986696-.1519928 .051986696-.125 .051986696-.09899902 .033996583-.07899475 .005996704-.07899475-.022003174-.07899475-.040008546-.09899902-.040008546-.125-.040008546-.17704773 .015991211-.20507813 .07299805-.20507813 .147995-.20507813 .20999146-.14100647 .20999146-.049972536M.20999146 .6042175C.20999146 .6312256 .18699646 .65722659 .15699768 .65722659 .12298584 .65722659 .102996829 .6292114 .102996829 .6042175 .102996829 .57722476 .12599182 .55122378 .1559906 .55122378 .18998719 .55122378 .20999146 .57922366 .20999146 .6042175Z"/>
<path id="font_1_50" d="M.4149933 .11933899C.4149933 .12934876 .40699769 .13134766 .4019928 .13134766 .3929901 .13134766 .3909912 .12535095 .3889923 .11734009 .35398866 .014251709 .2639923 .014251709 .2539978 .014251709 .20399475 .014251709 .1639862 .044281007 .14099121 .08131409 .11099243 .12934876 .11099243 .19540406 .11099243 .23144531H.3899994C.4119873 .23144531 .4149933 .23144531 .4149933 .2524414 .4149933 .35131837 .36099244 .4482422 .23599243 .4482422 .11999512 .4482422 .027999878 .34532167 .027999878 .22042847 .027999878 .08631897 .1329956-.0107421879 .24798584-.0107421879 .36999513-.0107421879 .4149933 .10032654 .4149933 .11933899M.34899903 .2524414H.11199951C.117996219 .40126039 .20199585 .426239 .23599243 .426239 .33898927 .426239 .34899903 .2913971 .34899903 .2524414Z"/>
<path id="font_1_43" d="M.4149933 .119140628C.4149933 .12911988 .40499879 .12911988 .4019928 .12911988 .3929901 .12911988 .3909912 .12512207 .3889923 .119140628 .3600006 .026229859 .29499818 .014251709 .2579956 .014251709 .20498657 .014251709 .116989139 .0572052 .116989139 .21801758 .116989139 .38093568 .19898987 .42323304 .2519989 .42323304 .26098634 .42323304 .32398988 .42222596 .35899354 .38594056 .31799317 .38293458 .31199647 .3529358 .31199647 .3399353 .31199647 .31393434 .32998658 .2939453 .35798646 .2939453 .38398744 .2939453 .4039917 .3109436 .4039917 .34094239 .4039917 .40911866 .32798768 .4482422 .25099183 .4482422 .12599182 .4482422 .033996583 .3399353 .033996583 .21601868 .033996583 .08816528 .1329956-.0107421879 .24899292-.0107421879 .3829956-.0107421879 .4149933 .10914612 .4149933 .119140628Z"/>
<path id="font_1_112" d="M.5079956 .3996582V.43066407C.4850006 .4286499 .45599366 .42765809 .43299867 .42765809L.34599305 .43066407V.3996582C.3829956 .39865113 .3939972 .37568666 .3939972 .35671998 .3939972 .34773255 .3919983 .34373475 .3880005 .3327484L.28599549 .078125 .17399597 .35671998C.16799927 .3697052 .16799927 .37368775 .16799927 .37368775 .16799927 .3996582 .20698548 .3996582 .22499085 .3996582V.43066407L.115997318 .42765809C.08898926 .42765809 .04899597 .4286499 .018997193 .43066407V.3996582C.08198547 .3996582 .085998538 .3936615 .09899902 .36271668L.24299622 .008224487C.24899292-.0057525637 .25099183-.0107421879 .2639923-.0107421879 .2769928-.0107421879 .2809906-.0017700195 .2849884 .008224487L.41600038 .3327484C.4249878 .3557129 .44198609 .39865113 .5079956 .3996582Z"/>
</defs>
<path transform="matrix(1,0,0,-1,61.296,37.85)" d="M-39.68535 34.01608C-39.68535 35.58173-40.95454 36.85092-42.5202 36.85092-44.08585 36.85092-45.35506 35.58173-45.35506 34.01608-45.35506 32.45042-44.08585 31.18123-42.5202 31.18123-40.95454 31.18123-39.68535 32.45042-39.68535 34.01608ZM-11.33855 34.01608C-11.33855 35.58173-12.60774 36.85092-14.17339 36.85092-15.73904 36.85092-17.00824 35.58173-17.00824 34.01608-17.00824 32.45042-15.73904 31.18123-14.17339 31.18123-12.60774 31.18123-11.33855 32.45042-11.33855 34.01608ZM17.00824 34.01608C17.00824 35.58173 15.73904 36.85092 14.17339 36.85092 12.60774 36.85092 11.33855 35.58173 11.33855 34.01608 11.33855 32.45042 12.60774 31.18123 14.17339 31.18123 15.73904 31.18123 17.00824 32.45042 17.00824 34.01608ZM45.35506 34.01608C45.35506 35.58173 44.08585 36.85092 42.5202 36.85092 40.95454 36.85092 39.68535 35.58173 39.68535 34.01608 39.68535 32.45042 40.95454 31.18123 42.5202 31.18123 44.08585 31.18123 45.35506 32.45042 45.35506 34.01608ZM42.5202 34.01608"/>
<path transform="matrix(1,0,0,-1,61.296,37.85)" stroke-width=".3985" stroke-linecap="butt" stroke-miterlimit="10" stroke-linejoin="miter" fill="none" stroke="#000000" d="M-42.5202 28.3468-56.4887 .40985"/>
<path transform="matrix(-.44717,.89436,.89436,.44717,4.8073198,37.44013)" stroke-width=".31879" stroke-linecap="round" stroke-linejoin="round" fill="none" stroke="#000000" d="M-1.19551 1.59401C-1.09587 .99626 0 .09961 .29886 0 0-.09961-1.09587-.99626-1.19551-1.59401"/>
<path transform="matrix(1,0,0,-1,61.296,37.85)" stroke-width=".3985" stroke-linecap="butt" stroke-miterlimit="10" stroke-linejoin="miter" fill="none" stroke="#000000" d="M-14.17339 28.3468-28.14188 .40985"/>
<path transform="matrix(-.44717,.89436,.89436,.44717,33.154146,37.44013)" stroke-width=".31879" stroke-linecap="round" stroke-linejoin="round" fill="none" stroke="#000000" d="M-1.19551 1.59401C-1.09587 .99626 0 .09961 .29886 0 0-.09961-1.09587-.99626-1.19551-1.59401"/>
<path transform="matrix(1,0,0,-1,61.296,37.85)" stroke-width=".3985" stroke-linecap="butt" stroke-miterlimit="10" stroke-linejoin="miter" fill="none" stroke="#000000" d="M14.17339 28.3468 25.34177 .42548"/>
<path transform="matrix(.37135,.92845,.92845,-.37135,86.63775,37.42452)" stroke-width=".31879" stroke-linecap="round" stroke-linejoin="round" fill="none" stroke="#000000" d="M-1.19551 1.59401C-1.09587 .99626 0 .09961 .29886 0 0-.09961-1.09587-.99626-1.19551-1.59401"/>
<path transform="matrix(1,0,0,-1,61.296,37.85)" stroke-width=".3985" stroke-linecap="butt" stroke-miterlimit="10" stroke-linejoin="miter" fill="none" stroke="#000000" d="M42.5202 28.3468 31.35182 .42548"/>
<path transform="matrix(-.37135,.92845,.92845,.37135,92.64784,37.42452)" stroke-width=".31879" stroke-linecap="round" stroke-linejoin="round" fill="none" stroke="#000000" d="M-1.19551 1.59401C-1.09587 .99626 0 .09961 .29886 0 0-.09961-1.09587-.99626-1.19551-1.59401"/>
<path transform="matrix(1,0,0,-1,61.296,37.85)" stroke-width=".3985" stroke-linecap="butt" stroke-miterlimit="10" stroke-linejoin="miter" fill="none" stroke="#000000" d="M-53.85876-5.66927C-53.85876-4.1036-55.12796-2.83441-56.69362-2.83441-58.25926-2.83441-59.52846-4.1036-59.52846-5.66927-59.52846-7.23492-58.25926-8.50412-56.69362-8.50412-55.12796-8.50412-53.85876-7.23492-53.85876-5.66927ZM-25.51195-5.66927C-25.51195-4.1036-26.78114-2.83441-28.3468-2.83441-29.91246-2.83441-31.18166-4.1036-31.18166-5.66927-31.18166-7.23492-29.91246-8.50412-28.3468-8.50412-26.78114-8.50412-25.51195-7.23492-25.51195-5.66927ZM2.83484-5.66927C2.83484-4.1036 1.56564-2.83441 0-2.83441-1.56564-2.83441-2.83484-4.1036-2.83484-5.66927-2.83484-7.23492-1.56564-8.50412 0-8.50412 1.56564-8.50412 2.83484-7.23492 2.83484-5.66927ZM31.18166-5.66927C31.18166-4.1036 29.91246-2.83441 28.3468-2.83441 26.78114-2.83441 25.51195-4.1036 25.51195-5.66927 25.51195-7.23492 26.78114-8.50412 28.3468-8.50412 29.91246-8.50412 31.18166-7.23492 31.18166-5.66927ZM59.52846-5.66927C59.52846-4.1036 58.25926-2.83441 56.69362-2.83441 55.12796-2.83441 53.85876-4.1036 53.85876-5.66927 53.85876-7.23492 55.12796-8.50412 56.69362-8.50412 58.25926-8.50412 59.52846-7.23492 59.52846-5.66927ZM56.69362-5.66927"/>
<use data-text="N" xlink:href="#font_1_76" transform="matrix(10.9091,0,0,-10.9091,30.69,63.309999)"/>
<use data-text="o" xlink:href="#font_1_81" transform="matrix(10.9091,0,0,-10.9091,38.871828,63.309999)"/>
<use data-text="t" xlink:href="#font_1_105" transform="matrix(10.9091,0,0,-10.9091,44.326379,63.309999)"/>
<use data-text="i" xlink:href="#font_1_66" transform="matrix(10.9091,0,0,-10.9091,52.202745,63.309999)"/>
<use data-text="n" xlink:href="#font_1_77" transform="matrix(10.9091,0,0,-10.9091,55.235475,63.309999)"/>
<use data-text="j" xlink:href="#font_1_68" transform="matrix(10.9091,0,0,-10.9091,61.300935,63.309999)"/>
<use data-text="e" xlink:href="#font_1_50" transform="matrix(10.9091,0,0,-10.9091,64.63912,63.309999)"/>
<use data-text="c" xlink:href="#font_1_43" transform="matrix(10.9091,0,0,-10.9091,69.482769,63.309999)"/>
<use data-text="t" xlink:href="#font_1_105" transform="matrix(10.9091,0,0,-10.9091,74.32641,63.309999)"/>
<use data-text="i" xlink:href="#font_1_66" transform="matrix(10.9091,0,0,-10.9091,78.570049,63.309999)"/>
<use data-text="v" xlink:href="#font_1_112" transform="matrix(10.9091,0,0,-10.9091,81.602779,63.309999)"/>
<use data-text="e" xlink:href="#font_1_50" transform="matrix(10.9091,0,0,-10.9091,87.06823,63.309999)"/>
</svg>
