<svg xmlns="http://www.w3.org/2000/svg" xmlns:xlink="http://www.w3.org/1999/xlink" xmlns:inkscape="http://www.inkscape.org/namespaces/inkscape" version="1.1" width="58" height="84" viewBox="0 0 58 84">
<path transform="matrix(1.00005,0,0,-1.00005,28.718585,80.201419)" stroke-width=".3985" stroke-linecap="butt" stroke-miterlimit="10" stroke-linejoin="miter" fill="none" stroke="#000000" d="M-25.51193 0H25.51193V51.0239H-25.51193V0L25.51193 51.0239M-25.51193 51.0239 25.51193 0M0 25.51193"/>
<path transform="matrix(1.00005,0,0,-1.00005,28.718585,80.201419)" d="M-23.51938 0C-23.51938 1.10046-24.41147 1.99255-25.51193 1.99255-26.61241 1.99255-27.50449 1.10046-27.50449 0-27.50449-1.10046-26.61241-1.99255-25.51193-1.99255-24.41147-1.99255-23.51938-1.10046-23.51938 0ZM-25.51193 0"/>
<path transform="matrix(1.00005,0,0,-1.00005,28.718585,80.201419)" d="M27.50449 0C27.50449 1.10046 26.61241 1.99255 25.51193 1.99255 24.41147 1.99255 23.51938 1.10046 23.51938 0 23.51938-1.10046 24.41147-1.99255 25.51193-1.99255 26.61241-1.99255 27.50449-1.10046 27.50449 0ZM25.51193 0"/>
<path transform="matrix(1.00005,0,0,-1.00005,28.718585,80.201419)" d="M27.50449 51.0239C27.50449 52.12437 26.61241 53.01645 25.51193 53.01645 24.41147 53.01645 23.51938 52.12437 23.51938 51.0239 23.51938 49.92343 24.41147 49.03134 25.51193 49.03134 26.61241 49.03134 27.50449 49.92343 27.50449 51.0239ZM25.51193 51.0239"/>
<path transform="matrix(1.00005,0,0,-1.00005,28.718585,80.201419)" d="M-23.51938 51.0239C-23.51938 52.12437-24.41147 53.01645-25.51193 53.01645-26.61241 53.01645-27.50449 52.12437-27.50449 51.0239-27.50449 49.92343-26.61241 49.03134-25.51193 49.03134-24.41147 49.03134-23.51938 49.92343-23.51938 51.0239ZM-25.51193 51.0239"/>
<path transform="matrix(1.00005,0,0,-1.00005,28.718585,80.201419)" d="M1.99255 25.51193C1.99255 26.61241 1.10046 27.50449 0 27.50449-1.10046 27.50449-1.99255 26.61241-1.99255 25.51193-1.99255 24.41147-1.10046 23.51938 0 23.51938 1.10046 23.51938 1.99255 24.41147 1.99255 25.51193ZM0 25.51193"/>
<path transform="matrix(1.00005,0,0,-1.00005,28.718585,80.201419)" stroke-width=".3985" stroke-linecap="butt" stroke-miterlimit="10" stroke-linejoin="miter" fill="none" stroke="#000000" d="M-25.51193 51.0239 0 76.53586 25.51193 51.0239"/>
<path transform="matrix(1.00005,0,0,-1.00005,28.718585,80.201419)" d="M1.99255 76.53586C1.99255 77.63632 1.10046 78.52841 0 78.52841-1.10046 78.52841-1.99255 77.63632-1.99255 76.53586-1.99255 75.43538-1.10046 74.5433 0 74.5433 1.10046 74.5433 1.99255 75.43538 1.99255 76.53586ZM0 76.53586"/>
</svg>
