<svg xmlns="http://www.w3.org/2000/svg" xmlns:xlink="http://www.w3.org/1999/xlink" xmlns:inkscape="http://www.inkscape.org/namespaces/inkscape" version="1.1" width="105" height="92" viewBox="0 0 105 92">
<path transform="matrix(1.00005,0,0,-1.00002,52.938947,60.35597)" stroke-width=".3985" stroke-linecap="butt" stroke-miterlimit="10" stroke-linejoin="miter" fill="none" stroke="#000000" d="M49.09824-28.3468 0 56.69362-49.09824-28.3468H49.09824"/>
<path transform="matrix(1.00005,0,0,-1.00002,52.938947,60.35597)" d="M51.09079-28.3468C51.09079-27.24634 50.1987-26.35425 49.09824-26.35425 47.99776-26.35425 47.10568-27.24634 47.10568-28.3468 47.10568-29.44728 47.99776-30.33936 49.09824-30.33936 50.1987-30.33936 51.09079-29.44728 51.09079-28.3468ZM49.09824-28.3468"/>
<path transform="matrix(1.00005,0,0,-1.00002,52.938947,60.35597)" d="M1.99255 56.69362C1.99255 57.79408 1.10046 58.68617 0 58.68617-1.10046 58.68617-1.99255 57.79408-1.99255 56.69362-1.99255 55.59314-1.10046 54.70107 0 54.70107 1.10046 54.70107 1.99255 55.59314 1.99255 56.69362ZM0 56.69362"/>
<path transform="matrix(1.00005,0,0,-1.00002,52.938947,60.35597)" d="M-47.10568-28.3468C-47.10568-27.24634-47.99776-26.35425-49.09824-26.35425-50.1987-26.35425-51.09079-27.24634-51.09079-28.3468-51.09079-29.44728-50.1987-30.33936-49.09824-30.33936-47.99776-30.33936-47.10568-29.44728-47.10568-28.3468ZM-49.09824-28.3468"/>
<path transform="matrix(1.00005,0,0,-1.00002,52.938947,60.35597)" stroke-width=".3985" stroke-linecap="butt" stroke-miterlimit="10" stroke-linejoin="miter" fill="none" stroke="#000000" d="M0-28.34679V56.69362"/>
<path transform="matrix(1.00005,0,0,-1.00002,52.938947,60.35597)" d="M1.99255-28.34679C1.99255-27.24632 1.10046-26.35423 0-26.35423-1.10046-26.35423-1.99255-27.24632-1.99255-28.34679-1.99255-29.44727-1.10046-30.33934 0-30.33934 1.10046-30.33934 1.99255-29.44727 1.99255-28.34679ZM0-28.34679"/>
<path transform="matrix(1.00005,0,0,-1.00002,52.938947,60.35597)" stroke-width=".3985" stroke-linecap="butt" stroke-miterlimit="10" stroke-linejoin="miter" fill="none" stroke="#000000" d="M-24.5491 14.1734 0-28.34679 24.5491 14.1734H-24.5491"/>
<path transform="matrix(1.00005,0,0,-1.00002,52.938947,60.35597)" d="M-22.55655 14.1734C-22.55655 15.27388-23.44864 16.16595-24.5491 16.16595-25.64958 16.16595-26.54166 15.27388-26.54166 14.1734-26.54166 13.07294-25.64958 12.18085-24.5491 12.18085-23.44864 12.18085-22.55655 13.07294-22.55655 14.1734ZM-24.5491 14.1734"/>
<path transform="matrix(1.00005,0,0,-1.00002,52.938947,60.35597)" d="M1.99255-28.34679C1.99255-27.24632 1.10046-26.35423 0-26.35423-1.10046-26.35423-1.99255-27.24632-1.99255-28.34679-1.99255-29.44727-1.10046-30.33934 0-30.33934 1.10046-30.33934 1.99255-29.44727 1.99255-28.34679ZM0-28.34679"/>
<path transform="matrix(1.00005,0,0,-1.00002,52.938947,60.35597)" d="M26.54166 14.1734C26.54166 15.27388 25.64958 16.16595 24.5491 16.16595 23.44864 16.16595 22.55655 15.27388 22.55655 14.1734 22.55655 13.07294 23.44864 12.18085 24.5491 12.18085 25.64958 12.18085 26.54166 13.07294 26.54166 14.1734ZM24.5491 14.1734"/>
</svg>
