<svg xmlns="http://www.w3.org/2000/svg" xmlns:xlink="http://www.w3.org/1999/xlink" xmlns:inkscape="http://www.inkscape.org/namespaces/inkscape" version="1.1" width="120" height="105" viewBox="0 0 120 105">
<path transform="matrix(1.00005,0,0,-1.00003,59.901144,52.762224)" stroke-width=".3985" stroke-linecap="butt" stroke-miterlimit="10" stroke-linejoin="miter" fill="none" stroke="#000000" d="M0 0 28.3468 49.09824H-28.3468L0 0H56.69362L28.3468-49.09824 0 0H-56.69362L-28.3468-49.09824 0 0"/>
<path transform="matrix(1.00005,0,0,-1.00003,59.901144,52.762224)" d="M1.99255 0C1.99255 1.10046 1.10046 1.99255 0 1.99255-1.10046 1.99255-1.99255 1.10046-1.99255 0-1.99255-1.10046-1.10046-1.99255 0-1.99255 1.10046-1.99255 1.99255-1.10046 1.99255 0ZM0 0"/>
<path transform="matrix(1.00005,0,0,-1.00003,59.901144,52.762224)" d="M30.33936 49.09824C30.33936 50.1987 29.44728 51.09079 28.3468 51.09079 27.24634 51.09079 26.35425 50.1987 26.35425 49.09824 26.35425 47.99776 27.24634 47.10568 28.3468 47.10568 29.44728 47.10568 30.33936 47.99776 30.33936 49.09824ZM28.3468 49.09824"/>
<path transform="matrix(1.00005,0,0,-1.00003,59.901144,52.762224)" d="M-26.35425 49.09824C-26.35425 50.1987-27.24634 51.09079-28.3468 51.09079-29.44728 51.09079-30.33936 50.1987-30.33936 49.09824-30.33936 47.99776-29.44728 47.10568-28.3468 47.10568-27.24634 47.10568-26.35425 47.99776-26.35425 49.09824ZM-28.3468 49.09824"/>
<path transform="matrix(1.00005,0,0,-1.00003,59.901144,52.762224)" d="M58.68617 0C58.68617 1.10046 57.79408 1.99255 56.69362 1.99255 55.59314 1.99255 54.70107 1.10046 54.70107 0 54.70107-1.10046 55.59314-1.99255 56.69362-1.99255 57.79408-1.99255 58.68617-1.10046 58.68617 0ZM56.69362 0"/>
<path transform="matrix(1.00005,0,0,-1.00003,59.901144,52.762224)" d="M30.33936-49.09824C30.33936-47.99776 29.44728-47.10568 28.3468-47.10568 27.24634-47.10568 26.35425-47.99776 26.35425-49.09824 26.35425-50.1987 27.24634-51.09079 28.3468-51.09079 29.44728-51.09079 30.33936-50.1987 30.33936-49.09824ZM28.3468-49.09824"/>
<path transform="matrix(1.00005,0,0,-1.00003,59.901144,52.762224)" d="M-54.70107 0C-54.70107 1.10046-55.59314 1.99255-56.69362 1.99255-57.79408 1.99255-58.68617 1.10046-58.68617 0-58.68617-1.10046-57.79408-1.99255-56.69362-1.99255-55.59314-1.99255-54.70107-1.10046-54.70107 0ZM-56.69362 0"/>
<path transform="matrix(1.00005,0,0,-1.00003,59.901144,52.762224)" d="M-26.35425-49.09824C-26.35425-47.99776-27.24634-47.10568-28.3468-47.10568-29.44728-47.10568-30.33936-47.99776-30.33936-49.09824-30.33936-50.1987-29.44728-51.09079-28.3468-51.09079-27.24634-51.09079-26.35425-50.1987-26.35425-49.09824ZM-28.3468-49.09824"/>
</svg>
