<svg xmlns="http://www.w3.org/2000/svg" xmlns:xlink="http://www.w3.org/1999/xlink" xmlns:inkscape="http://www.inkscape.org/namespaces/inkscape" version="1.1" width="247" height="142" viewBox="0 0 247 142">
<defs>
<path id="font_1_1" d="M.69999697-2.3488923C.69999697-2.3448945 .69799807-2.3428956 .69599917-2.3399049 .6589966-2.3029023 .59199526-2.2359009 .5249939-2.1278992 .3639984-1.8699188 .29100038-1.5449219 .29100038-1.1599274 .29100038-.89094546 .32699586-.5439453 .49198915-.24595642 .57099917-.10395813 .6529999-.021957398 .69699099 .022033692 .69999697 .025024414 .69999697 .027038575 .69999697 .030029297 .69999697 .040039064 .69299319 .040039064 .67900088 .040039064 .6649933 .040039064 .6629944 .040039064 .647995 .025024414 .31298829-.279953 .20799256-.73794558 .20799256-1.1589356 .20799256-1.5519257 .2979889-1.9479065 .5519867-2.2469025 .57199099-2.2698975 .6100006-2.3108979 .651001-2.3468934 .6629944-2.358902 .6649933-2.358902 .67900088-2.358902 .69299319-2.358902 .69999697-2.358902 .69999697-2.3488923Z"/>
<path id="font_2_1" d="M.45999146 .31976319C.45999146 .39982606 .45498658 .47988893 .41999818 .5539398 .37399293 .65000918 .2919922 .6660156 .25 .6660156 .18998719 .6660156 .116989139 .64001467 .07598877 .54693606 .04399109 .47789 .038986207 .39982606 .038986207 .31976319 .038986207 .24472046 .042999269 .15464783 .083999637 .07859802 .1269989-.0024719239 .19999695-.022460938 .24899292-.022460938 .30299378-.022460938 .3789978-.0014648438 .4229889 .09359741 .45498658 .16265869 .45999146 .2407074 .45999146 .31976319M.24899292-.00047302247C.20999146-.00047302247 .15098572 .024551392 .1329956 .12062073 .12199402 .18066406 .12199402 .2727356 .12199402 .3317871 .12199402 .39582826 .12199402 .46188355 .12998963 .5159149 .14898682 .63500979 .22399903 .64401248 .24899292 .64401248 .28199769 .64401248 .34799195 .6259918 .36698915 .52693179 .3769989 .47088624 .3769989 .39482118 .3769989 .3317871 .3769989 .25672914 .3769989 .18867493 .3659973 .12461853 .35099793 .029556275 .2939911-.00047302247 .24899292-.00047302247Z"/>
<path id="font_1_2" d="M.5269928-1.1599274C.5269928-.76693728 .43699647-.37095643 .18299866-.07196045 .16299439-.048965455 .125-.007965088 .083999637 .028030396 .07199097 .040039064 .069992069 .040039064 .055999757 .040039064 .04399109 .040039064 .034988405 .040039064 .034988405 .030029297 .034988405 .026031495 .038986207 .022033692 .040985109 .02003479 .07598877-.015960694 .14299011-.082962039 .20999146-.19096375 .37098695-.4489441 .44400025-.77394106 .44400025-1.1589356 .44400025-1.4279175 .4079895-1.7749176 .24299622-2.0729066 .1639862-2.2149049 .08099365-2.2978974 .038986207-2.3399049 .036987306-2.3428956 .034988405-2.3459016 .034988405-2.3488923 .034988405-2.358902 .04399109-2.358902 .055999757-2.358902 .069992069-2.358902 .07199097-2.358902 .08699036-2.3439027 .42199708-2.03891 .5269928-1.5809174 .5269928-1.1599274Z"/>
<path id="font_2_2" d="M.2939911 .64004519C.2939911 .66400149 .2939911 .6660156 .2709961 .6660156 .20899964 .60227969 .12098694 .60227969 .08898926 .60227969V.57128909C.10899353 .57128909 .16799927 .57128909 .21998596 .5972748V.07902527C.21998596 .042999269 .21699524 .0309906 .1269989 .0309906H.09498596V0C.12998963 .0029907227 .21699524 .0029907227 .25698854 .0029907227 .29699708 .0029907227 .38398744 .0029907227 .4189911 0V.0309906H.3869934C.29699708 .0309906 .2939911 .041992189 .2939911 .07902527V.64004519Z"/>
<path id="font_2_3" d="M.1269989 .07699585 .23298645 .18003845C.3889923 .31811524 .44898988 .3721466 .44898988 .47216798 .44898988 .5860901 .35899354 .6660156 .23699951 .6660156 .12399292 .6660156 .049987794 .57411196 .049987794 .48516847 .049987794 .4291687 .099990848 .4291687 .102996829 .4291687 .11999512 .4291687 .15499878 .44117738 .15499878 .48217774 .15499878 .5081787 .13699341 .5341797 .101989749 .5341797 .09399414 .5341797 .09199524 .5341797 .08898926 .5331726 .11199951 .59806826 .1659851 .63500979 .22399903 .63500979 .31498719 .63500979 .35798646 .5541382 .35798646 .47216798 .35798646 .39215089 .30799867 .31311036 .25299073 .25108338L.06098938 .036987306C.049987794 .025985718 .049987794 .023986817 .049987794 0H.42099L.44898988 .17404175H.42399598C.4189911 .14402771 .4119873 .1000061 .4019928 .084991458 .394989 .07699585 .32899476 .07699585 .30699159 .07699585H.1269989Z"/>
<path id="font_2_4" d="M.2899933 .35191346C.37199403 .37893678 .42999269 .4490509 .42999269 .52809146 .42999269 .6100464 .34199525 .6660156 .24598694 .6660156 .14498902 .6660156 .068984989 .60606387 .068984989 .53009036 .068984989 .49710084 .09098816 .47808839 .11999512 .47808839 .15098572 .47808839 .17098999 .50009158 .17098999 .5290985 .17098999 .57910159 .12399292 .57910159 .10899353 .57910159 .13999939 .62802127 .20599365 .64100649 .24198914 .64100649 .2829895 .64100649 .33799745 .6190338 .33799745 .5290985 .33799745 .51708987 .33599855 .45906068 .30999757 .4149933 .27999879 .36691285 .24598694 .36390687 .22099304 .36291505 .21299744 .36190797 .18899536 .35990907 .18199158 .35990907 .17399597 .35890199 .16699219 .35791017 .16699219 .3479004 .16699219 .33691407 .17399597 .33691407 .19099427 .33691407H.23498535C.31698609 .33691407 .35398866 .2686615 .35398866 .17037964 .35398866 .034469606 .2849884 .0055389406 .24099732 .0055389406 .19799805 .0055389406 .12298584 .022491456 .08799744 .08137512 .12298584 .07637024 .1539917 .09837341 .1539917 .1363678 .1539917 .17237854 .1269989 .19238281 .09799194 .19238281 .07398987 .19238281 .041992189 .17837525 .041992189 .1343689 .041992189 .043441774 .1349945-.022460938 .24398804-.022460938 .3659973-.022460938 .45700074 .06838989 .45700074 .17037964 .45700074 .252594 .3939972 .33088685 .2899933 .35191346Z"/>
<path id="font_2_5" d="M.2939911 .16503906V.07800293C.2939911 .041992189 .2919922 .0309906 .21798706 .0309906H.19699097V0C.23799134 .0029907227 .2899933 .0029907227 .33198548 .0029907227 .37399293 .0029907227 .4269867 .0029907227 .46798707 0V.0309906H.44699098C.37298585 .0309906 .37098695 .041992189 .37098695 .07800293V.16503906H.47099305V.19602967H.37098695V.65075686C.37098695 .67074587 .37098695 .6767578 .35499574 .6767578 .34599305 .6767578 .34298707 .6767578 .33499146 .66474917L.027999878 .19602967V.16503906H.2939911M.2999878 .19602967H.055999757L.2999878 .5688019V.19602967Z"/>
</defs>
<path transform="matrix(1.00002,0,0,-1.00009,123.35161,14.727886)" stroke-width=".3985" stroke-linecap="butt" stroke-miterlimit="10" stroke-linejoin="miter" fill="none" stroke="#000000" d="M0 0"/>
<use data-text="(" xlink:href="#font_1_1" transform="matrix(10.909318,0,0,-10.910082,112.59339,2.0727463)"/>
<use data-text="0" xlink:href="#font_2_1" transform="matrix(10.909318,0,0,-10.910082,120.62356,10.074467)"/>
<use data-text="0" xlink:href="#font_2_1" transform="matrix(10.909318,0,0,-10.910082,120.62356,24.939805)"/>
<use data-text=")" xlink:href="#font_1_2" transform="matrix(10.909318,0,0,-10.910082,126.07766,2.0717488)"/>
<path transform="matrix(1.00002,0,0,-1.00009,123.35161,14.727886)" stroke-width=".3985" stroke-linecap="butt" stroke-miterlimit="10" stroke-linejoin="miter" fill="none" stroke="#000000" d="M-28.3468-28.3468"/>
<use data-text="(" xlink:href="#font_1_1" transform="matrix(10.909318,0,0,-10.910082,84.24583,30.422299)"/>
<use data-text="1" xlink:href="#font_2_2" transform="matrix(10.909318,0,0,-10.910082,92.27599,38.42402)"/>
<use data-text="0" xlink:href="#font_2_1" transform="matrix(10.909318,0,0,-10.910082,92.27599,53.289358)"/>
<use data-text=")" xlink:href="#font_1_2" transform="matrix(10.909318,0,0,-10.910082,97.730098,30.4213)"/>
<path transform="matrix(1.00002,0,0,-1.00009,123.35161,14.727886)" stroke-width=".3985" stroke-linecap="butt" stroke-miterlimit="10" stroke-linejoin="miter" fill="none" stroke="#000000" d="M28.3468-28.3468"/>
<use data-text="(" xlink:href="#font_1_1" transform="matrix(10.909318,0,0,-10.910082,140.94097,30.422299)"/>
<use data-text="1" xlink:href="#font_2_2" transform="matrix(10.909318,0,0,-10.910082,148.97113,38.42402)"/>
<use data-text="1" xlink:href="#font_2_2" transform="matrix(10.909318,0,0,-10.910082,148.97113,53.289358)"/>
<use data-text=")" xlink:href="#font_1_2" transform="matrix(10.909318,0,0,-10.910082,154.42523,30.4213)"/>
<path transform="matrix(1.00002,0,0,-1.00009,123.35161,14.727886)" stroke-width=".3985" stroke-linecap="butt" stroke-miterlimit="10" stroke-linejoin="miter" fill="none" stroke="#000000" d="M-56.69362-56.69362"/>
<use data-text="(" xlink:href="#font_1_1" transform="matrix(10.909318,0,0,-10.910082,55.89926,58.771856)"/>
<use data-text="2" xlink:href="#font_2_3" transform="matrix(10.909318,0,0,-10.910082,63.92943,66.773578)"/>
<use data-text="0" xlink:href="#font_2_1" transform="matrix(10.909318,0,0,-10.910082,63.92943,81.638919)"/>
<use data-text=")" xlink:href="#font_1_2" transform="matrix(10.909318,0,0,-10.910082,69.38353,58.77086)"/>
<path transform="matrix(1.00002,0,0,-1.00009,123.35161,14.727886)" stroke-width=".3985" stroke-linecap="butt" stroke-miterlimit="10" stroke-linejoin="miter" fill="none" stroke="#000000" d="M0-56.69362"/>
<use data-text="(" xlink:href="#font_1_1" transform="matrix(10.909318,0,0,-10.910082,112.59339,58.771856)"/>
<use data-text="2" xlink:href="#font_2_3" transform="matrix(10.909318,0,0,-10.910082,120.62356,66.773578)"/>
<use data-text="1" xlink:href="#font_2_2" transform="matrix(10.909318,0,0,-10.910082,120.62356,81.638919)"/>
<use data-text=")" xlink:href="#font_1_2" transform="matrix(10.909318,0,0,-10.910082,126.07766,58.77086)"/>
<path transform="matrix(1.00002,0,0,-1.00009,123.35161,14.727886)" stroke-width=".3985" stroke-linecap="butt" stroke-miterlimit="10" stroke-linejoin="miter" fill="none" stroke="#000000" d="M56.69362-56.69362"/>
<use data-text="(" xlink:href="#font_1_1" transform="matrix(10.909318,0,0,-10.910082,169.28853,58.771856)"/>
<use data-text="2" xlink:href="#font_2_3" transform="matrix(10.909318,0,0,-10.910082,177.3187,66.773578)"/>
<use data-text="2" xlink:href="#font_2_3" transform="matrix(10.909318,0,0,-10.910082,177.3187,81.638919)"/>
<use data-text=")" xlink:href="#font_1_2" transform="matrix(10.909318,0,0,-10.910082,182.7728,58.77086)"/>
<path transform="matrix(1.00002,0,0,-1.00009,123.35161,14.727886)" stroke-width=".3985" stroke-linecap="butt" stroke-miterlimit="10" stroke-linejoin="miter" fill="none" stroke="#000000" d="M-85.04042-85.04042"/>
<use data-text="(" xlink:href="#font_1_1" transform="matrix(10.909318,0,0,-10.910082,27.551697,87.1214)"/>
<use data-text="3" xlink:href="#font_2_4" transform="matrix(10.909318,0,0,-10.910082,35.581865,95.123119)"/>
<use data-text="0" xlink:href="#font_2_1" transform="matrix(10.909318,0,0,-10.910082,35.581865,109.98846)"/>
<use data-text=")" xlink:href="#font_1_2" transform="matrix(10.909318,0,0,-10.910082,41.035966,87.1204)"/>
<path transform="matrix(1.00002,0,0,-1.00009,123.35161,14.727886)" stroke-width=".3985" stroke-linecap="butt" stroke-miterlimit="10" stroke-linejoin="miter" fill="none" stroke="#000000" d="M-28.3468-85.04042"/>
<use data-text="(" xlink:href="#font_1_1" transform="matrix(10.909318,0,0,-10.910082,84.24583,87.1214)"/>
<use data-text="3" xlink:href="#font_2_4" transform="matrix(10.909318,0,0,-10.910082,92.27599,95.123119)"/>
<use data-text="1" xlink:href="#font_2_2" transform="matrix(10.909318,0,0,-10.910082,92.27599,109.98846)"/>
<use data-text=")" xlink:href="#font_1_2" transform="matrix(10.909318,0,0,-10.910082,97.730098,87.1204)"/>
<path transform="matrix(1.00002,0,0,-1.00009,123.35161,14.727886)" stroke-width=".3985" stroke-linecap="butt" stroke-miterlimit="10" stroke-linejoin="miter" fill="none" stroke="#000000" d="M28.3468-85.04042"/>
<use data-text="(" xlink:href="#font_1_1" transform="matrix(10.909318,0,0,-10.910082,140.94097,87.1214)"/>
<use data-text="3" xlink:href="#font_2_4" transform="matrix(10.909318,0,0,-10.910082,148.97113,95.123119)"/>
<use data-text="2" xlink:href="#font_2_3" transform="matrix(10.909318,0,0,-10.910082,148.97113,109.98846)"/>
<use data-text=")" xlink:href="#font_1_2" transform="matrix(10.909318,0,0,-10.910082,154.42523,87.1204)"/>
<path transform="matrix(1.00002,0,0,-1.00009,123.35161,14.727886)" stroke-width=".3985" stroke-linecap="butt" stroke-miterlimit="10" stroke-linejoin="miter" fill="none" stroke="#000000" d="M85.04042-85.04042"/>
<use data-text="(" xlink:href="#font_1_1" transform="matrix(10.909318,0,0,-10.910082,197.6361,87.1214)"/>
<use data-text="3" xlink:href="#font_2_4" transform="matrix(10.909318,0,0,-10.910082,205.66626,95.123119)"/>
<use data-text="3" xlink:href="#font_2_4" transform="matrix(10.909318,0,0,-10.910082,205.66626,109.98846)"/>
<use data-text=")" xlink:href="#font_1_2" transform="matrix(10.909318,0,0,-10.910082,211.12036,87.1204)"/>
<path transform="matrix(1.00002,0,0,-1.00009,123.35161,14.727886)" stroke-width=".3985" stroke-linecap="butt" stroke-miterlimit="10" stroke-linejoin="miter" fill="none" stroke="#000000" d="M-113.38724-113.38724"/>
<use data-text="(" xlink:href="#font_1_1" transform="matrix(10.909318,0,0,-10.910082,-.7958832,115.47095)"/>
<use data-text="4" xlink:href="#font_2_5" transform="matrix(10.909318,0,0,-10.910082,7.2342836,123.47267)"/>
<use data-text="0" xlink:href="#font_2_1" transform="matrix(10.909318,0,0,-10.910082,7.2342836,138.33802)"/>
<use data-text=")" xlink:href="#font_1_2" transform="matrix(10.909318,0,0,-10.910082,12.688385,115.469959)"/>
<path transform="matrix(1.00002,0,0,-1.00009,123.35161,14.727886)" stroke-width=".3985" stroke-linecap="butt" stroke-miterlimit="10" stroke-linejoin="miter" fill="none" stroke="#000000" d="M-56.69362-113.38724"/>
<use data-text="(" xlink:href="#font_1_1" transform="matrix(10.909318,0,0,-10.910082,55.89926,115.47095)"/>
<use data-text="4" xlink:href="#font_2_5" transform="matrix(10.909318,0,0,-10.910082,63.92943,123.47267)"/>
<use data-text="1" xlink:href="#font_2_2" transform="matrix(10.909318,0,0,-10.910082,63.92943,138.33802)"/>
<use data-text=")" xlink:href="#font_1_2" transform="matrix(10.909318,0,0,-10.910082,69.38353,115.469959)"/>
<path transform="matrix(1.00002,0,0,-1.00009,123.35161,14.727886)" stroke-width=".3985" stroke-linecap="butt" stroke-miterlimit="10" stroke-linejoin="miter" fill="none" stroke="#000000" d="M0-113.38724"/>
<use data-text="(" xlink:href="#font_1_1" transform="matrix(10.909318,0,0,-10.910082,112.59339,115.47095)"/>
<use data-text="4" xlink:href="#font_2_5" transform="matrix(10.909318,0,0,-10.910082,120.62356,123.47267)"/>
<use data-text="2" xlink:href="#font_2_3" transform="matrix(10.909318,0,0,-10.910082,120.62356,138.33802)"/>
<use data-text=")" xlink:href="#font_1_2" transform="matrix(10.909318,0,0,-10.910082,126.07766,115.469959)"/>
<path transform="matrix(1.00002,0,0,-1.00009,123.35161,14.727886)" stroke-width=".3985" stroke-linecap="butt" stroke-miterlimit="10" stroke-linejoin="miter" fill="none" stroke="#000000" d="M56.69362-113.38724"/>
<use data-text="(" xlink:href="#font_1_1" transform="matrix(10.909318,0,0,-10.910082,169.28853,115.47095)"/>
<use data-text="4" xlink:href="#font_2_5" transform="matrix(10.909318,0,0,-10.910082,177.3187,123.47267)"/>
<use data-text="3" xlink:href="#font_2_4" transform="matrix(10.909318,0,0,-10.910082,177.3187,138.33802)"/>
<use data-text=")" xlink:href="#font_1_2" transform="matrix(10.909318,0,0,-10.910082,182.7728,115.469959)"/>
<path transform="matrix(1.00002,0,0,-1.00009,123.35161,14.727886)" stroke-width=".3985" stroke-linecap="butt" stroke-miterlimit="10" stroke-linejoin="miter" fill="none" stroke="#000000" d="M113.38724-113.38724"/>
<use data-text="(" xlink:href="#font_1_1" transform="matrix(10.909318,0,0,-10.910082,225.98267,115.47095)"/>
<use data-text="4" xlink:href="#font_2_5" transform="matrix(10.909318,0,0,-10.910082,234.01282,123.47267)"/>
<use data-text="4" xlink:href="#font_2_5" transform="matrix(10.909318,0,0,-10.910082,234.01282,138.33802)"/>
<use data-text=")" xlink:href="#font_1_2" transform="matrix(10.909318,0,0,-10.910082,239.46692,115.469959)"/>
</svg>
