<svg xmlns="http://www.w3.org/2000/svg" xmlns:xlink="http://www.w3.org/1999/xlink" xmlns:inkscape="http://www.inkscape.org/namespaces/inkscape" version="1.1" width="82" height="78" viewBox="0 0 82 78">
<path transform="matrix(1.00005,0,0,-1.00003,40.951196,42.748956)" stroke-width=".79701" stroke-linecap="butt" stroke-miterlimit="10" stroke-linejoin="miter" fill="none" stroke="#000000" d="M37.74335 12.26358 0 39.68535-37.74335 12.26358-23.3264-32.10626H23.3264Z"/>
<path transform="matrix(1.00005,0,0,-1.00003,40.951196,42.748956)" stroke-width=".79701" stroke-linecap="butt" stroke-miterlimit="10" stroke-linejoin="miter" fill="none" stroke="#000000" d="M18.87167 6.13179H-18.87167L11.6632-16.05313 0 19.84267-11.6632-16.05313Z"/>
<path transform="matrix(1.00005,0,0,-1.00003,40.951196,42.748956)" stroke-width=".79701" stroke-linecap="butt" stroke-miterlimit="10" stroke-linejoin="miter" fill="none" stroke="#000000" d="M18.87167 6.13179 37.74335 12.26358"/>
<path transform="matrix(1.00005,0,0,-1.00003,40.951196,42.748956)" d="M20.86423 6.13179C20.86423 7.23225 19.97214 8.12434 18.87167 8.12434 17.7712 8.12434 16.87912 7.23225 16.87912 6.13179 16.87912 5.03131 17.7712 4.13924 18.87167 4.13924 19.97214 4.13924 20.86423 5.03131 20.86423 6.13179ZM18.87167 6.13179"/>
<path transform="matrix(1.00005,0,0,-1.00003,40.951196,42.748956)" d="M39.7359 12.26358C39.7359 13.36404 38.84381 14.25613 37.74335 14.25613 36.64287 14.25613 35.7508 13.36404 35.7508 12.26358 35.7508 11.16312 36.64287 10.27103 37.74335 10.27103 38.84381 10.27103 39.7359 11.16312 39.7359 12.26358ZM37.74335 12.26358"/>
<path transform="matrix(1.00005,0,0,-1.00003,40.951196,42.748956)" stroke-width=".79701" stroke-linecap="butt" stroke-miterlimit="10" stroke-linejoin="miter" fill="none" stroke="#000000" d="M0 19.84267V39.68535"/>
<path transform="matrix(1.00005,0,0,-1.00003,40.951196,42.748956)" d="M1.99255 19.84267C1.99255 20.94313 1.10046 21.83522 0 21.83522-1.10046 21.83522-1.99255 20.94313-1.99255 19.84267-1.99255 18.74219-1.10046 17.85011 0 17.85011 1.10046 17.85011 1.99255 18.74219 1.99255 19.84267ZM0 19.84267"/>
<path transform="matrix(1.00005,0,0,-1.00003,40.951196,42.748956)" d="M1.99255 39.68535C1.99255 40.78583 1.10046 41.6779 0 41.6779-1.10046 41.6779-1.99255 40.78583-1.99255 39.68535-1.99255 38.58488-1.10046 37.6928 0 37.6928 1.10046 37.6928 1.99255 38.58488 1.99255 39.68535ZM0 39.68535"/>
<path transform="matrix(1.00005,0,0,-1.00003,40.951196,42.748956)" stroke-width=".79701" stroke-linecap="butt" stroke-miterlimit="10" stroke-linejoin="miter" fill="none" stroke="#000000" d="M-18.87167 6.13179-37.74335 12.26358"/>
<path transform="matrix(1.00005,0,0,-1.00003,40.951196,42.748956)" d="M-16.87912 6.13179C-16.87912 7.23225-17.7712 8.12434-18.87167 8.12434-19.97214 8.12434-20.86423 7.23225-20.86423 6.13179-20.86423 5.03131-19.97214 4.13924-18.87167 4.13924-17.7712 4.13924-16.87912 5.03131-16.87912 6.13179ZM-18.87167 6.13179"/>
<path transform="matrix(1.00005,0,0,-1.00003,40.951196,42.748956)" d="M-35.7508 12.26358C-35.7508 13.36404-36.64287 14.25613-37.74335 14.25613-38.84381 14.25613-39.7359 13.36404-39.7359 12.26358-39.7359 11.16312-38.84381 10.27103-37.74335 10.27103-36.64287 10.27103-35.7508 11.16312-35.7508 12.26358ZM-37.74335 12.26358"/>
<path transform="matrix(1.00005,0,0,-1.00003,40.951196,42.748956)" stroke-width=".79701" stroke-linecap="butt" stroke-miterlimit="10" stroke-linejoin="miter" fill="none" stroke="#000000" d="M-11.6632-16.05313-23.3264-32.10626"/>
<path transform="matrix(1.00005,0,0,-1.00003,40.951196,42.748956)" d="M-9.67064-16.05313C-9.67064-14.95265-10.56273-14.06058-11.6632-14.06058-12.76367-14.06058-13.65575-14.95265-13.65575-16.05313-13.65575-17.1536-12.76367-18.04568-11.6632-18.04568-10.56273-18.04568-9.67064-17.1536-9.67064-16.05313ZM-11.6632-16.05313"/>
<path transform="matrix(1.00005,0,0,-1.00003,40.951196,42.748956)" d="M-21.33385-32.10626C-21.33385-31.0058-22.22592-30.11371-23.3264-30.11371-24.42686-30.11371-25.31895-31.0058-25.31895-32.10626-25.31895-33.20674-24.42686-34.09882-23.3264-34.09882-22.22592-34.09882-21.33385-33.20674-21.33385-32.10626ZM-23.3264-32.10626"/>
<path transform="matrix(1.00005,0,0,-1.00003,40.951196,42.748956)" stroke-width=".79701" stroke-linecap="butt" stroke-miterlimit="10" stroke-linejoin="miter" fill="none" stroke="#000000" d="M11.6632-16.05313 23.3264-32.10626"/>
<path transform="matrix(1.00005,0,0,-1.00003,40.951196,42.748956)" d="M13.65575-16.05313C13.65575-14.95265 12.76367-14.06058 11.6632-14.06058 10.56273-14.06058 9.67064-14.95265 9.67064-16.05313 9.67064-17.1536 10.56273-18.04568 11.6632-18.04568 12.76367-18.04568 13.65575-17.1536 13.65575-16.05313ZM11.6632-16.05313"/>
<path transform="matrix(1.00005,0,0,-1.00003,40.951196,42.748956)" d="M25.31895-32.10626C25.31895-31.0058 24.42686-30.11371 23.3264-30.11371 22.22592-30.11371 21.33385-31.0058 21.33385-32.10626 21.33385-33.20674 22.22592-34.09882 23.3264-34.09882 24.42686-34.09882 25.31895-33.20674 25.31895-32.10626ZM23.3264-32.10626"/>
</svg>
