<svg xmlns="http://www.w3.org/2000/svg" xmlns:xlink="http://www.w3.org/1999/xlink" xmlns:inkscape="http://www.inkscape.org/namespaces/inkscape" version="1.1" width="63" height="64" viewBox="0 0 63 64">
<path transform="matrix(1.0001,0,0,-1.00003,17.38004,46.18403)" stroke-width=".3985" stroke-linecap="butt" stroke-miterlimit="10" stroke-linejoin="miter" fill="none" stroke="#000000" d="M0 0H28.3468V28.3468H0V0"/>
<path transform="matrix(1.0001,0,0,-1.00003,17.38004,46.18403)" d="M1.99255 0C1.99255 1.10046 1.10046 1.99255 0 1.99255-1.10046 1.99255-1.99255 1.10046-1.99255 0-1.99255-1.10046-1.10046-1.99255 0-1.99255 1.10046-1.99255 1.99255-1.10046 1.99255 0ZM0 0"/>
<path transform="matrix(1.0001,0,0,-1.00003,17.38004,46.18403)" d="M30.33936 0C30.33936 1.10046 29.44728 1.99255 28.3468 1.99255 27.24634 1.99255 26.35425 1.10046 26.35425 0 26.35425-1.10046 27.24634-1.99255 28.3468-1.99255 29.44728-1.99255 30.33936-1.10046 30.33936 0ZM28.3468 0"/>
<path transform="matrix(1.0001,0,0,-1.00003,17.38004,46.18403)" d="M30.33936 28.3468C30.33936 29.44728 29.44728 30.33936 28.3468 30.33936 27.24634 30.33936 26.35425 29.44728 26.35425 28.3468 26.35425 27.24634 27.24634 26.35425 28.3468 26.35425 29.44728 26.35425 30.33936 27.24634 30.33936 28.3468ZM28.3468 28.3468"/>
<path transform="matrix(1.0001,0,0,-1.00003,17.38004,46.18403)" d="M1.99255 28.3468C1.99255 29.44728 1.10046 30.33936 0 30.33936-1.10046 30.33936-1.99255 29.44728-1.99255 28.3468-1.99255 27.24634-1.10046 26.35425 0 26.35425 1.10046 26.35425 1.99255 27.24634 1.99255 28.3468ZM0 28.3468"/>
<path transform="matrix(1.0001,0,0,-1.00003,17.38004,46.18403)" stroke-width=".3985" stroke-linecap="butt" stroke-miterlimit="10" stroke-linejoin="miter" fill="none" stroke="#000000" d="M-14.17339-14.17339V42.5202H42.5202V-14.17339H-14.17339"/>
<path transform="matrix(1.0001,0,0,-1.00003,17.38004,46.18403)" d="M-12.18083-14.17339C-12.18083-13.07292-13.07292-12.18083-14.17339-12.18083-15.27386-12.18083-16.16594-13.07292-16.16594-14.17339-16.16594-15.27386-15.27386-16.16594-14.17339-16.16594-13.07292-16.16594-12.18083-15.27386-12.18083-14.17339ZM-14.17339-14.17339"/>
<path transform="matrix(1.0001,0,0,-1.00003,17.38004,46.18403)" d="M-12.18083 42.5202C-12.18083 43.62067-13.07292 44.51276-14.17339 44.51276-15.27386 44.51276-16.16594 43.62067-16.16594 42.5202-16.16594 41.41972-15.27386 40.52765-14.17339 40.52765-13.07292 40.52765-12.18083 41.41972-12.18083 42.5202ZM-14.17339 42.5202"/>
<path transform="matrix(1.0001,0,0,-1.00003,17.38004,46.18403)" d="M44.51276 42.5202C44.51276 43.62067 43.62067 44.51276 42.5202 44.51276 41.41972 44.51276 40.52765 43.62067 40.52765 42.5202 40.52765 41.41972 41.41972 40.52765 42.5202 40.52765 43.62067 40.52765 44.51276 41.41972 44.51276 42.5202ZM42.5202 42.5202"/>
<path transform="matrix(1.0001,0,0,-1.00003,17.38004,46.18403)" d="M44.51276-14.17339C44.51276-13.07292 43.62067-12.18083 42.5202-12.18083 41.41972-12.18083 40.52765-13.07292 40.52765-14.17339 40.52765-15.27386 41.41972-16.16594 42.5202-16.16594 43.62067-16.16594 44.51276-15.27386 44.51276-14.17339ZM42.5202-14.17339"/>
<path transform="matrix(1.0001,0,0,-1.00003,17.38004,46.18403)" stroke-width=".3985" stroke-linecap="butt" stroke-miterlimit="10" stroke-linejoin="miter" fill="none" stroke="#000000" d="M0 0-14.17339-14.17339M28.3468 0 42.5202-14.17339M28.3468 28.3468 42.5202 42.5202M0 28.3468-14.17339 42.5202"/>
</svg>
