<svg xmlns="http://www.w3.org/2000/svg" xmlns:xlink="http://www.w3.org/1999/xlink" xmlns:inkscape="http://www.inkscape.org/namespaces/inkscape" version="1.1" width="156" height="56" viewBox="0 0 156 56">
<path transform="matrix(1.00008,0,0,-1.00006,77.63777,29.145207)" stroke-width=".3985" stroke-linecap="butt" stroke-miterlimit="10" stroke-linejoin="miter" fill="none" stroke="#000000" d="M-51.0239 0 0 25.51193 51.0239 0"/>
<path transform="matrix(1.00008,0,0,-1.00006,77.63777,29.145207)" d="M-49.03134 0C-49.03134 1.10046-49.92343 1.99255-51.0239 1.99255-52.12437 1.99255-53.01645 1.10046-53.01645 0-53.01645-1.10046-52.12437-1.99255-51.0239-1.99255-49.92343-1.99255-49.03134-1.10046-49.03134 0ZM-51.0239 0"/>
<path transform="matrix(1.00008,0,0,-1.00006,77.63777,29.145207)" d="M1.99255 25.51193C1.99255 26.61241 1.10046 27.50449 0 27.50449-1.10046 27.50449-1.99255 26.61241-1.99255 25.51193-1.99255 24.41147-1.10046 23.51938 0 23.51938 1.10046 23.51938 1.99255 24.41147 1.99255 25.51193ZM0 25.51193"/>
<path transform="matrix(1.00008,0,0,-1.00006,77.63777,29.145207)" d="M53.01645 0C53.01645 1.10046 52.12437 1.99255 51.0239 1.99255 49.92343 1.99255 49.03134 1.10046 49.03134 0 49.03134-1.10046 49.92343-1.99255 51.0239-1.99255 52.12437-1.99255 53.01645-1.10046 53.01645 0ZM51.0239 0"/>
<path transform="matrix(1.00008,0,0,-1.00006,77.63777,29.145207)" stroke-width=".3985" stroke-linecap="butt" stroke-miterlimit="10" stroke-linejoin="miter" fill="none" stroke="#000000" d="M-51.0239 0-63.77986-12.75595M-51.0239 0V-12.75595M-51.0239 0-38.26791-12.75595"/>
<path transform="matrix(1.00008,0,0,-1.00006,77.63777,29.145207)" stroke-width=".3985" stroke-linecap="butt" stroke-dasharray="2.98883,2.98883" stroke-miterlimit="10" stroke-linejoin="miter" fill="none" stroke="#000000" d="M-63.77986-12.75595-76.53586-25.51193M-51.0239-12.75595V-25.51193M-38.26791-12.75595-25.51193-25.51193"/>
<path transform="matrix(1.00008,0,0,-1.00006,77.63777,29.145207)" stroke-width=".3985" stroke-linecap="butt" stroke-miterlimit="10" stroke-linejoin="miter" fill="none" stroke="#000000" d="M51.0239 0 63.77986-12.75595M51.0239 0V-12.75595M51.0239 0 38.26791-12.75595"/>
<path transform="matrix(1.00008,0,0,-1.00006,77.63777,29.145207)" stroke-width=".3985" stroke-linecap="butt" stroke-dasharray="2.98883,2.98883" stroke-miterlimit="10" stroke-linejoin="miter" fill="none" stroke="#000000" d="M63.77986-12.75595 76.53586-25.51193M51.0239-12.75595V-25.51193M38.26791-12.75595 25.51193-25.51193"/>
<path transform="matrix(1.00008,0,0,-1.00006,77.63777,29.145207)" stroke-width=".3985" stroke-linecap="butt" stroke-miterlimit="10" stroke-linejoin="miter" fill="none" stroke="#000000" d="M0 25.51193-6.37796 0M0 25.51193V0M0 25.51193 6.37796 0"/>
<path transform="matrix(1.00008,0,0,-1.00006,77.63777,29.145207)" stroke-width=".3985" stroke-linecap="butt" stroke-dasharray="2.98883,2.98883" stroke-miterlimit="10" stroke-linejoin="miter" fill="none" stroke="#000000" d="M-6.37796 0-12.75595-25.51193M0 0V-25.51193M6.37796 0 12.75595-25.51193"/>
</svg>
