<svg xmlns="http://www.w3.org/2000/svg" xmlns:xlink="http://www.w3.org/1999/xlink" xmlns:inkscape="http://www.inkscape.org/namespaces/inkscape" version="1.1" width="61" height="58" viewBox="0 0 61 58">
<path transform="matrix(1.0001,0,0,-1.00003,30.179322,31.97969)" stroke-width="1.19553" stroke-linecap="butt" stroke-miterlimit="10" stroke-linejoin="miter" fill="none" stroke="#000000" d="M0 28.3468V14.17339M0 14.17339-8.33089-11.46657M-8.33089-11.46657-16.66179-22.93315-26.95966 8.75974-13.47981 4.37987H13.47981L26.95966 8.75974 16.66179-22.93315 8.33089-11.46657"/>
<path transform="matrix(.95116516,.30899928,.3090209,-.95109859,9.049908,25.114605)" stroke-width=".9564" stroke-linecap="round" stroke-linejoin="round" fill="none" stroke="#000000" d="M-1.91284 2.55046C-1.75343 1.59402 0 .15938 .4782 0 0-.15938-1.75343-1.59402-1.91284-2.55046"/>
<path transform="matrix(1.0001,0,0,-1.00003,30.179322,31.97969)" stroke-width=".3985" stroke-linecap="butt" stroke-miterlimit="10" stroke-linejoin="miter" fill="none" stroke="#000000" d="M26.95966 8.75974 0 28.3468-26.95966 8.75974-16.66179-22.93315H16.66179Z"/>
<path transform="matrix(1.0001,0,0,-1.00003,30.179322,31.97969)" stroke-width=".3985" stroke-linecap="butt" stroke-miterlimit="10" stroke-linejoin="miter" fill="none" stroke="#000000" d="M13.47981 4.37987H-13.47981L8.33089-11.46657 0 14.17339-8.33089-11.46657Z"/>
<path transform="matrix(1.0001,0,0,-1.00003,30.179322,31.97969)" stroke-width=".3985" stroke-linecap="butt" stroke-miterlimit="10" stroke-linejoin="miter" fill="none" stroke="#000000" d="M13.47981 4.37987 26.95966 8.75974"/>
<path transform="matrix(1.0001,0,0,-1.00003,30.179322,31.97969)" d="M15.47237 4.37987C15.47237 5.48033 14.58029 6.37242 13.47981 6.37242 12.37935 6.37242 11.48726 5.48033 11.48726 4.37987 11.48726 3.27939 12.37935 2.38731 13.47981 2.38731 14.58029 2.38731 15.47237 3.27939 15.47237 4.37987ZM13.47981 4.37987"/>
<path transform="matrix(1.0001,0,0,-1.00003,30.179322,31.97969)" d="M28.95221 8.75974C28.95221 9.86021 28.06012 10.75229 26.95966 10.75229 25.85918 10.75229 24.9671 9.86021 24.9671 8.75974 24.9671 7.65927 25.85918 6.76718 26.95966 6.76718 28.06012 6.76718 28.95221 7.65927 28.95221 8.75974ZM26.95966 8.75974"/>
<path transform="matrix(1.0001,0,0,-1.00003,30.179322,31.97969)" stroke-width=".3985" stroke-linecap="butt" stroke-miterlimit="10" stroke-linejoin="miter" fill="none" stroke="#000000" d="M0 14.17339V28.3468"/>
<path transform="matrix(1.0001,0,0,-1.00003,30.179322,31.97969)" d="M1.99255 14.17339C1.99255 15.27386 1.10046 16.16594 0 16.16594-1.10046 16.16594-1.99255 15.27386-1.99255 14.17339-1.99255 13.07292-1.10046 12.18083 0 12.18083 1.10046 12.18083 1.99255 13.07292 1.99255 14.17339ZM0 14.17339"/>
<path transform="matrix(1.0001,0,0,-1.00003,30.179322,31.97969)" d="M1.99255 28.3468C1.99255 29.44728 1.10046 30.33936 0 30.33936-1.10046 30.33936-1.99255 29.44728-1.99255 28.3468-1.99255 27.24634-1.10046 26.35425 0 26.35425 1.10046 26.35425 1.99255 27.24634 1.99255 28.3468ZM0 28.3468"/>
<path transform="matrix(1.0001,0,0,-1.00003,30.179322,31.97969)" stroke-width=".3985" stroke-linecap="butt" stroke-miterlimit="10" stroke-linejoin="miter" fill="none" stroke="#000000" d="M-13.47981 4.37987-26.95966 8.75974"/>
<path transform="matrix(1.0001,0,0,-1.00003,30.179322,31.97969)" d="M-11.48726 4.37987C-11.48726 5.48033-12.37935 6.37242-13.47981 6.37242-14.58029 6.37242-15.47237 5.48033-15.47237 4.37987-15.47237 3.27939-14.58029 2.38731-13.47981 2.38731-12.37935 2.38731-11.48726 3.27939-11.48726 4.37987ZM-13.47981 4.37987"/>
<path transform="matrix(1.0001,0,0,-1.00003,30.179322,31.97969)" d="M-24.9671 8.75974C-24.9671 9.86021-25.85918 10.75229-26.95966 10.75229-28.06012 10.75229-28.95221 9.86021-28.95221 8.75974-28.95221 7.65927-28.06012 6.76718-26.95966 6.76718-25.85918 6.76718-24.9671 7.65927-24.9671 8.75974ZM-26.95966 8.75974"/>
<path transform="matrix(1.0001,0,0,-1.00003,30.179322,31.97969)" stroke-width=".3985" stroke-linecap="butt" stroke-miterlimit="10" stroke-linejoin="miter" fill="none" stroke="#000000" d="M-8.33089-11.46657-16.66179-22.93315"/>
<path transform="matrix(1.0001,0,0,-1.00003,30.179322,31.97969)" d="M-6.33833-11.46657C-6.33833-10.3661-7.23042-9.47401-8.33089-9.47401-9.43137-9.47401-10.32344-10.3661-10.32344-11.46657-10.32344-12.56705-9.43137-13.45912-8.33089-13.45912-7.23042-13.45912-6.33833-12.56705-6.33833-11.46657ZM-8.33089-11.46657"/>
<path transform="matrix(1.0001,0,0,-1.00003,30.179322,31.97969)" d="M-14.66924-22.93315C-14.66924-21.83267-15.56131-20.9406-16.66179-20.9406-17.76225-20.9406-18.65434-21.83267-18.65434-22.93315-18.65434-24.03362-17.76225-24.9257-16.66179-24.9257-15.56131-24.9257-14.66924-24.03362-14.66924-22.93315ZM-16.66179-22.93315"/>
<path transform="matrix(1.0001,0,0,-1.00003,30.179322,31.97969)" stroke-width=".3985" stroke-linecap="butt" stroke-miterlimit="10" stroke-linejoin="miter" fill="none" stroke="#000000" d="M8.33089-11.46657 16.66179-22.93315"/>
<path transform="matrix(1.0001,0,0,-1.00003,30.179322,31.97969)" d="M10.32344-11.46657C10.32344-10.3661 9.43137-9.47401 8.33089-9.47401 7.23042-9.47401 6.33833-10.3661 6.33833-11.46657 6.33833-12.56705 7.23042-13.45912 8.33089-13.45912 9.43137-13.45912 10.32344-12.56705 10.32344-11.46657ZM8.33089-11.46657"/>
<path transform="matrix(1.0001,0,0,-1.00003,30.179322,31.97969)" d="M18.65434-22.93315C18.65434-21.83267 17.76225-20.9406 16.66179-20.9406 15.56131-20.9406 14.66924-21.83267 14.66924-22.93315 14.66924-24.03362 15.56131-24.9257 16.66179-24.9257 17.76225-24.9257 18.65434-24.03362 18.65434-22.93315ZM16.66179-22.93315"/>
</svg>
