<svg xmlns="http://www.w3.org/2000/svg" xmlns:xlink="http://www.w3.org/1999/xlink" xmlns:inkscape="http://www.inkscape.org/namespaces/inkscape" version="1.1" width="35" height="35" viewBox="0 0 35 35">
<path transform="matrix(1.00009,0,0,-1.00008,17.379836,17.837468)" stroke-width=".3985" stroke-linecap="butt" stroke-miterlimit="10" stroke-linejoin="miter" fill="none" stroke="#000000" d="M-14.17339-14.17339 14.17339 14.17339"/>
<path transform="matrix(1.00009,0,0,-1.00008,17.379836,17.837468)" d="M-12.18083-14.17339C-12.18083-13.07292-13.07292-12.18083-14.17339-12.18083-15.27386-12.18083-16.16594-13.07292-16.16594-14.17339-16.16594-15.27386-15.27386-16.16594-14.17339-16.16594-13.07292-16.16594-12.18083-15.27386-12.18083-14.17339ZM-14.17339-14.17339"/>
<path transform="matrix(1.00009,0,0,-1.00008,17.379836,17.837468)" d="M16.16594 14.17339C16.16594 15.27386 15.27386 16.16594 14.17339 16.16594 13.07292 16.16594 12.18083 15.27386 12.18083 14.17339 12.18083 13.07292 13.07292 12.18083 14.17339 12.18083 15.27386 12.18083 16.16594 13.07292 16.16594 14.17339ZM14.17339 14.17339"/>
</svg>
