<svg xmlns="http://www.w3.org/2000/svg" xmlns:xlink="http://www.w3.org/1999/xlink" xmlns:inkscape="http://www.inkscape.org/namespaces/inkscape" version="1.1" width="75" height="60" viewBox="0 0 75 60">
<defs>
<path id="font_1_1" d="M.30299378 .3157959H.47299195C.61499026 .3157959 .7539978 .41973878 .7539978 .53167727 .7539978 .6086273 .6879883 .6826172 .5569916 .6826172H.23298645C.21398926 .6826172 .20298767 .6826172 .20298767 .66360476 .20298767 .6516113 .21199036 .6516113 .23199463 .6516113 .24499512 .6516113 .2630005 .65060427 .2749939 .6496124 .29100038 .6476135 .29699708 .64460757 .29699708 .6336212 .29699708 .6296234 .29599 .62661746 .29299928 .614624L.15899658 .07795715C.14898682 .038986207 .14698792 .0309906 .067993167 .0309906 .050994874 .0309906 .039993287 .0309906 .039993287 .011993408 .039993287 0 .051986696 0 .054992677 0 .08299255 0 .1539917 .0029907227 .18199158 .0029907227 .20298767 .0029907227 .22499085 .0019989014 .24598694 .0019989014 .2679901 .0019989014 .2899933 0 .31098939 0 .31799317 0 .33099366 0 .33099366 .019989014 .33099366 .0309906 .32199098 .0309906 .30299378 .0309906 .2659912 .0309906 .23799134 .0309906 .23799134 .048980714 .23799134 .054977418 .23999024 .05996704 .24099732 .065963748L.30299378 .3157959M.375 .6136322C.38398744 .64860537 .38598634 .6516113 .42900086 .6516113H.5249939C.60798647 .6516113 .6609955 .62461856 .6609955 .55566409 .6609955 .5166931 .6409912 .43074037 .60198977 .39476014 .5519867 .34977723 .49198915 .34179688 .44799806 .34179688H.30699159L.375 .6136322Z"/>
<path id="font_2_1" d="M.15499878 .5588074C.20599365 .5458069 .23599243 .5458069 .2519989 .5458069 .38398744 .5458069 .46199037 .6358032 .46199037 .6508026 .46199037 .6618042 .45498658 .6648102 .44999696 .6648102 .44799806 .6648102 .44599916 .6648102 .44198609 .6618042 .41799928 .6528015 .36499024 .6328125 .29100038 .6328125 .2630005 .6328125 .20999146 .6348114 .14498902 .6598053 .1349945 .6648102 .1329956 .6648102 .13198853 .6648102 .11898804 .6648102 .11898804 .6538086 .11898804 .6378021V.34251405C.11898804 .32548524 .11898804 .3134613 .1349945 .3134613 .14399719 .3134613 .14498902 .3154602 .15499878 .32748414 .19799805 .38259889 .25898744 .390625 .2939911 .390625 .35398866 .390625 .3809967 .34251405 .38598634 .33450318 .4039917 .30143739 .4099884 .26335145 .4099884 .20524597 .4099884 .17524719 .4099884 .116256717 .37998963 .07234192 .35499574 .03640747 .31199647 .012466431 .2630005 .012466431 .19799805 .012466431 .1309967 .04838562 .10598755 .11425781 .14399719 .11125183 .16299439 .13624573 .16299439 .16325379 .16299439 .20625305 .12599182 .21424866 .11299133 .21424866 .11099243 .21424866 .06298828 .21424866 .06298828 .1602478 .06298828 .07034302 .14498902-.01953125 .2649994-.01953125 .3929901-.01953125 .5049896 .07533264 .5049896 .20124817 .5049896 .31445313 .4189911 .41862489 .29499818 .41862489 .25099183 .41862489 .19898987 .4076233 .15499878 .36956788V.5588074Z"/>
</defs>
<path transform="matrix(1.00006,0,0,-1.00002,37.237215,37.650575)" stroke-width=".3985" stroke-linecap="butt" stroke-miterlimit="10" stroke-linejoin="miter" fill="none" stroke="#000000" d="M-34.0165 0-17.00824 8.50412 0 0 17.00824 12.75616 8.50412 25.51236 34.0165 34.0165"/>
<path transform="matrix(1.00006,0,0,-1.00002,37.237215,37.650575)" d="M-32.02394 0C-32.02394 1.10046-32.91603 1.99255-34.0165 1.99255-35.11697 1.99255-36.00905 1.10046-36.00905 0-36.00905-1.10046-35.11697-1.99255-34.0165-1.99255-32.91603-1.99255-32.02394-1.10046-32.02394 0ZM-34.0165 0"/>
<path transform="matrix(1.00006,0,0,-1.00002,37.237215,37.650575)" d="M-15.01569 8.50412C-15.01569 9.60458-15.90776 10.49667-17.00824 10.49667-18.1087 10.49667-19.0008 9.60458-19.0008 8.50412-19.0008 7.40364-18.1087 6.51157-17.00824 6.51157-15.90776 6.51157-15.01569 7.40364-15.01569 8.50412ZM-17.00824 8.50412"/>
<path transform="matrix(1.00006,0,0,-1.00002,37.237215,37.650575)" d="M1.99255 0C1.99255 1.10046 1.10046 1.99255 0 1.99255-1.10046 1.99255-1.99255 1.10046-1.99255 0-1.99255-1.10046-1.10046-1.99255 0-1.99255 1.10046-1.99255 1.99255-1.10046 1.99255 0ZM0 0"/>
<path transform="matrix(1.00006,0,0,-1.00002,37.237215,37.650575)" d="M19.0008 12.75616C19.0008 13.85664 18.1087 14.74872 17.00824 14.74872 15.90776 14.74872 15.01569 13.85664 15.01569 12.75616 15.01569 11.6557 15.90776 10.76361 17.00824 10.76361 18.1087 10.76361 19.0008 11.6557 19.0008 12.75616ZM17.00824 12.75616"/>
<path transform="matrix(1.00006,0,0,-1.00002,37.237215,37.650575)" d="M10.49667 25.51236C10.49667 26.61284 9.60458 27.50491 8.50412 27.50491 7.40364 27.50491 6.51157 26.61284 6.51157 25.51236 6.51157 24.4119 7.40364 23.5198 8.50412 23.5198 9.60458 23.5198 10.49667 24.4119 10.49667 25.51236ZM8.50412 25.51236"/>
<path transform="matrix(1.00006,0,0,-1.00002,37.237215,37.650575)" d="M36.00905 34.0165C36.00905 35.11697 35.11697 36.00905 34.0165 36.00905 32.91603 36.00905 32.02394 35.11697 32.02394 34.0165 32.02394 32.91603 32.91603 32.02394 34.0165 32.02394 35.11697 32.02394 36.00905 32.91603 36.00905 34.0165ZM34.0165 34.0165"/>
<path transform="matrix(1.00006,0,0,-1.00002,37.237215,37.650575)" stroke-width=".3985" stroke-linecap="butt" stroke-miterlimit="10" stroke-linejoin="miter" fill="none" stroke="#000000" d="M0-8.50412"/>
<use data-text="P" xlink:href="#font_1_1" transform="matrix(9.963197,0,0,-9.962799,31.803887,56.482954)"/>
<use data-text="5" xlink:href="#font_2_1" transform="matrix(6.9742186,0,0,-6.97394,38.200265,57.97798)"/>
</svg>
