<svg xmlns="http://www.w3.org/2000/svg" xmlns:xlink="http://www.w3.org/1999/xlink" xmlns:inkscape="http://www.inkscape.org/namespaces/inkscape" version="1.1" width="67" height="30" viewBox="0 0 67 30">
<defs>
<path id="font_1_1" d="M.3919983 .38137818C.3829956 .39839173 .35398866 .44140626 .29299928 .44140626 .17399597 .44140626 .042999269 .3023529 .042999269 .15428162 .042999269 .050247194 .10998535-.009765625 .18699646-.009765625 .25099183-.009765625 .30599977 .041229249 .32398988 .06124878 .34199525-.0077667238 .4099884-.009765625 .42199708-.009765625 .46798707-.009765625 .4909973 .02822876 .49899293 .04524231 .5189972 .08125305 .5329895 .13928223 .5329895 .14328003 .5329895 .14927674 .5289917 .15628052 .5169983 .15628052 .5049896 .15628052 .5029907 .15028382 .49699403 .12527466 .48298646 .070251468 .46398927 .018234253 .4249878 .018234253 .4019928 .018234253 .3929901 .037231447 .3929901 .06524658 .3929901 .08226013 .4019928 .11627197 .4079895 .14128113 .4139862 .16629029 .42900086 .22631836 .43299867 .24432373L.45298768 .32035829C.45799256 .3443756 .46899415 .38638307 .46899415 .39138795 .46899415 .4143982 .44999696 .4223938 .43699647 .4223938 .42199708 .4223938 .39698792 .4123993 .3919983 .38137818M.32398988 .10826111C.27398683 .039230348 .22200012 .018234253 .18998719 .018234253 .14399719 .018234253 .12098694 .0602417 .12098694 .11227417 .12098694 .1592865 .147995 .2663269 .16999817 .3103485 .19898987 .37138368 .24798584 .4133911 .2939911 .4133911 .35899354 .4133911 .37799073 .34036256 .37799073 .32835389 .37799073 .32435609 .35299684 .22631836 .34700013 .20030213 .33399964 .1532898 .33399964 .1512909 .32398988 .10826111Z"/>
<path id="font_1_2" d="M.24398804 .66430667C.24499512 .66630557 .24798584 .67930606 .24798584 .68029788 .24798584 .68530276 .24398804 .6943054 .23199463 .6943054 .22799683 .6943054 .19699097 .69129946 .17399597 .68930056L.117996219 .68530276C.09599304 .68330386 .085998538 .682312 .085998538 .66430667 .085998538 .6502991 .099990848 .6502991 .11199951 .6502991 .1599884 .6502991 .1599884 .64430239 .1599884 .63531497 .1599884 .62931826 .1499939 .5893402 .14399719 .5663452L.056991579 .2183075C.04899597 .18429566 .04899597 .16929627 .04899597 .15228272 .04899597 .049240114 .11199951-.009765625 .18899536-.009765625 .31199647-.009765625 .43998719 .13227844 .43998719 .27734376 .43998719 .37638856 .37599183 .44140626 .29599 .44140626 .23999024 .44140626 .19699097 .4053955 .1749878 .38638307L.24398804 .66430667M.18899536 .018234253C.15299988 .018234253 .116989139 .04623413 .116989139 .119277957 .116989139 .14628601 .12098694 .17129517 .1329956 .21931458 .13999939 .24832154 .14698792 .27633668 .15499878 .3053589 .1599884 .32336427 .1599884 .32536317 .17199707 .34036256 .20599365 .38238526 .25099183 .4133911 .29299928 .4133911 .34298707 .4133911 .3619995 .36437989 .3619995 .3193512 .3619995 .28234864 .33999635 .17529297 .30999757 .11627197 .28399659 .0622406 .23599243 .018234253 .18899536 .018234253Z"/>
<path id="font_1_3" d="M.40899659 .38304139C.36799623 .3780365 .35499574 .34703065 .35499574 .32702638 .35499574 .29803468 .3809967 .29003907 .3939972 .29003907 .39898683 .29003907 .44999696 .29403688 .44999696 .35502626 .44999696 .4163971 .38398744 .44140626 .32398988 .44140626 .18199158 .44140626 .04399109 .3030243 .04399109 .16311646 .04399109 .06819153 .10899353-.009765625 .21998596-.009765625 .37799073-.009765625 .46099855 .091171268 .46099855 .10417175 .46099855 .11315918 .45098878 .120147708 .44499208 .120147708 .43899537 .120147708 .43598939 .11715698 .43099977 .11116028 .35198976 .018234253 .23999024 .018234253 .22200012 .018234253 .16799927 .018234253 .125 .051208497 .125 .12715149 .125 .17111206 .14498902 .27703858 .19198609 .33903504 .23599243 .39518739 .28599549 .4133911 .32499696 .4133911 .33699037 .4133911 .3829956 .41238404 .40899659 .38304139Z"/>
<path id="font_1_4" d="M.5379944 .66430667C.5389862 .66630557 .5419922 .67930606 .5419922 .68029788 .5419922 .68530276 .5379944 .6943054 .526001 .6943054 .5219879 .6943054 .4909973 .69129946 .46798707 .68930056L.4119873 .68530276C.3899994 .68330386 .37998963 .682312 .37998963 .66430667 .37998963 .6502991 .3939972 .6502991 .4059906 .6502991 .45399476 .6502991 .45399476 .64430239 .45399476 .63531497 .45399476 .62931826 .44599916 .59632876 .44099427 .5763397L.3919983 .38137818C.3829956 .39839173 .35398866 .44140626 .29299928 .44140626 .17399597 .44140626 .042999269 .3023529 .042999269 .15428162 .042999269 .050247194 .10998535-.009765625 .18699646-.009765625 .25099183-.009765625 .30599977 .041229249 .32398988 .06124878 .34199525-.0077667238 .4099884-.009765625 .42199708-.009765625 .46798707-.009765625 .4909973 .02822876 .49899293 .04524231 .5189972 .08125305 .5329895 .13928223 .5329895 .14328003 .5329895 .14927674 .5289917 .15628052 .5169983 .15628052 .5049896 .15628052 .5029907 .15028382 .49699403 .12527466 .48298646 .070251468 .46398927 .018234253 .4249878 .018234253 .4019928 .018234253 .3929901 .037231447 .3929901 .06524658 .3929901 .08425903 .3959961 .09526062 .39898683 .10826111L.5379944 .66430667M.32398988 .10826111C.27398683 .039230348 .22200012 .018234253 .18998719 .018234253 .14399719 .018234253 .12098694 .0602417 .12098694 .11227417 .12098694 .1592865 .147995 .2663269 .16999817 .3103485 .19898987 .37138368 .24798584 .4133911 .2939911 .4133911 .35899354 .4133911 .37799073 .34036256 .37799073 .32835389 .37799073 .32435609 .35299684 .22631836 .34700013 .20030213 .33399964 .1532898 .33399964 .1512909 .32398988 .10826111Z"/>
</defs>
<path transform="matrix(1.00008,0,0,-1,33.569414,16.642)" stroke-width=".3985" stroke-linecap="butt" stroke-miterlimit="10" stroke-linejoin="miter" fill="none" stroke="#000000" d="M-29.764 0H-9.92133M-29.764 0C-9.92133 19.84267-9.92133 19.84267 9.92133 0H29.764C9.92133 19.84267 9.92133 19.84267-9.92133 0H9.92133"/>
<path transform="matrix(1.00008,0,0,-1,33.569414,16.642)" d="M-27.77145 0C-27.77145 1.10046-28.66353 1.99255-29.764 1.99255-30.86447 1.99255-31.75656 1.10046-31.75656 0-31.75656-1.10046-30.86447-1.99255-29.764-1.99255-28.66353-1.99255-27.77145-1.10046-27.77145 0ZM-29.764 0"/>
<path transform="matrix(1.00008,0,0,-1,33.569414,16.642)" d="M-7.92877 0C-7.92877 1.10046-8.82085 1.99255-9.92133 1.99255-11.02179 1.99255-11.91388 1.10046-11.91388 0-11.91388-1.10046-11.02179-1.99255-9.92133-1.99255-8.82085-1.99255-7.92877-1.10046-7.92877 0ZM-9.92133 0"/>
<path transform="matrix(1.00008,0,0,-1,33.569414,16.642)" d="M11.91388 0C11.91388 1.10046 11.02179 1.99255 9.92133 1.99255 8.82085 1.99255 7.92877 1.10046 7.92877 0 7.92877-1.10046 8.82085-1.99255 9.92133-1.99255 11.02179-1.99255 11.91388-1.10046 11.91388 0ZM9.92133 0"/>
<path transform="matrix(1.00008,0,0,-1,33.569414,16.642)" d="M31.75656 0C31.75656 1.10046 30.86447 1.99255 29.764 1.99255 28.66353 1.99255 27.77145 1.10046 27.77145 0 27.77145-1.10046 28.66353-1.99255 29.764-1.99255 30.86447-1.99255 31.75656-1.10046 31.75656 0ZM29.764 0"/>
<path transform="matrix(1.00008,0,0,-1,33.569414,16.642)" stroke-width=".3985" stroke-linecap="butt" stroke-miterlimit="10" stroke-linejoin="miter" fill="none" stroke="#000000" d="M29.764-14.882"/>
<use data-text="a" xlink:href="#font_1_1" transform="matrix(7.9707376,0,0,-7.9701,1.5538483,28.668002)"/>
<use data-text="b" xlink:href="#font_1_2" transform="matrix(7.9707376,0,0,-7.9701,21.835473,28.668002)"/>
<use data-text="c" xlink:href="#font_1_3" transform="matrix(7.9707376,0,0,-7.9701,41.65706,28.668002)"/>
<use data-text="d" xlink:href="#font_1_4" transform="matrix(7.9707376,0,0,-7.9701,61.156618,28.668002)"/>
</svg>
