<svg xmlns="http://www.w3.org/2000/svg" xmlns:xlink="http://www.w3.org/1999/xlink" xmlns:inkscape="http://www.inkscape.org/namespaces/inkscape" version="1.1" width="70" height="58" viewBox="0 0 70 58">
<path transform="matrix(1.00006,0,0,-1.00005,38.49935,29.146008)" stroke-width=".3985" stroke-linecap="butt" stroke-miterlimit="10" stroke-linejoin="miter" fill="none" stroke="#000000" d="M-28.3468-25.51193C-39.4012-16.89592-39.4012-8.616-28.3468 0-39.4012 8.616-39.4012 16.89592-28.3468 25.51193-17.2924 16.89592-17.2924 8.616-28.3468 0-17.2924-8.616-17.2924-16.89592-28.3468-25.51193"/>
<path transform="matrix(1.00006,0,0,-1.00005,38.49935,29.146008)" d="M-26.35425-25.51193C-26.35425-24.41147-27.24634-23.51938-28.3468-23.51938-29.44728-23.51938-30.33936-24.41147-30.33936-25.51193-30.33936-26.61241-29.44728-27.50449-28.3468-27.50449-27.24634-27.50449-26.35425-26.61241-26.35425-25.51193ZM-28.3468-25.51193"/>
<path transform="matrix(1.00006,0,0,-1.00005,38.49935,29.146008)" d="M-26.35425 0C-26.35425 1.10046-27.24634 1.99255-28.3468 1.99255-29.44728 1.99255-30.33936 1.10046-30.33936 0-30.33936-1.10046-29.44728-1.99255-28.3468-1.99255-27.24634-1.99255-26.35425-1.10046-26.35425 0ZM-28.3468 0"/>
<path transform="matrix(1.00006,0,0,-1.00005,38.49935,29.146008)" d="M-26.35425 25.51193C-26.35425 26.61241-27.24634 27.50449-28.3468 27.50449-29.44728 27.50449-30.33936 26.61241-30.33936 25.51193-30.33936 24.41147-29.44728 23.51938-28.3468 23.51938-27.24634 23.51938-26.35425 24.41147-26.35425 25.51193ZM-28.3468 25.51193"/>
<path transform="matrix(1.00006,0,0,-1.00005,38.49935,29.146008)" stroke-width=".3985" stroke-linecap="butt" stroke-miterlimit="10" stroke-linejoin="miter" fill="none" stroke="#000000" d="M28.3468 0-28.3468 25.51193M-28.3468 0H28.3468L-28.3468-25.51193"/>
<path transform="matrix(1.00006,0,0,-1.00005,38.49935,29.146008)" d="M30.33936 0C30.33936 1.10046 29.44728 1.99255 28.3468 1.99255 27.24634 1.99255 26.35425 1.10046 26.35425 0 26.35425-1.10046 27.24634-1.99255 28.3468-1.99255 29.44728-1.99255 30.33936-1.10046 30.33936 0ZM28.3468 0"/>
</svg>
