<svg xmlns="http://www.w3.org/2000/svg" xmlns:xlink="http://www.w3.org/1999/xlink" xmlns:inkscape="http://www.inkscape.org/namespaces/inkscape" version="1.1" width="61" height="58" viewBox="0 0 61 58">
<path transform="matrix(1.00005,0,0,-1.00003,30.165657,32.0106)" stroke-width=".3985" stroke-linecap="butt" stroke-miterlimit="10" stroke-linejoin="miter" fill="none" stroke="#000000" d="M26.95966 8.75974 0 28.3468 16.66179-22.93315"/>
<path transform="matrix(1.00005,0,0,-1.00003,30.165657,32.0106)" d="M28.95221 8.75974C28.95221 9.86021 28.06012 10.75229 26.95966 10.75229 25.85918 10.75229 24.9671 9.86021 24.9671 8.75974 24.9671 7.65927 25.85918 6.76718 26.95966 6.76718 28.06012 6.76718 28.95221 7.65927 28.95221 8.75974ZM26.95966 8.75974"/>
<path transform="matrix(1.00005,0,0,-1.00003,30.165657,32.0106)" stroke-width=".3985" stroke-linecap="butt" stroke-miterlimit="10" stroke-linejoin="miter" fill="none" stroke="#000000" d="M0 28.3468-26.95966 8.75974H26.95966"/>
<path transform="matrix(1.00005,0,0,-1.00003,30.165657,32.0106)" d="M1.99255 28.3468C1.99255 29.44728 1.10046 30.33936 0 30.33936-1.10046 30.33936-1.99255 29.44728-1.99255 28.3468-1.99255 27.24634-1.10046 26.35425 0 26.35425 1.10046 26.35425 1.99255 27.24634 1.99255 28.3468ZM0 28.3468"/>
<path transform="matrix(1.00005,0,0,-1.00003,30.165657,32.0106)" stroke-width=".3985" stroke-linecap="butt" stroke-miterlimit="10" stroke-linejoin="miter" fill="none" stroke="#000000" d="M-26.95966 8.75974-16.66179-22.93315 0 28.3468"/>
<path transform="matrix(1.00005,0,0,-1.00003,30.165657,32.0106)" d="M-24.9671 8.75974C-24.9671 9.86021-25.85918 10.75229-26.95966 10.75229-28.06012 10.75229-28.95221 9.86021-28.95221 8.75974-28.95221 7.65927-28.06012 6.76718-26.95966 6.76718-25.85918 6.76718-24.9671 7.65927-24.9671 8.75974ZM-26.95966 8.75974"/>
<path transform="matrix(1.00005,0,0,-1.00003,30.165657,32.0106)" stroke-width=".3985" stroke-linecap="butt" stroke-miterlimit="10" stroke-linejoin="miter" fill="none" stroke="#000000" d="M-16.66179-22.93315H16.66179L-26.95966 8.75974"/>
<path transform="matrix(1.00005,0,0,-1.00003,30.165657,32.0106)" d="M-14.66924-22.93315C-14.66924-21.83267-15.56131-20.9406-16.66179-20.9406-17.76225-20.9406-18.65434-21.83267-18.65434-22.93315-18.65434-24.03362-17.76225-24.9257-16.66179-24.9257-15.56131-24.9257-14.66924-24.03362-14.66924-22.93315ZM-16.66179-22.93315"/>
<path transform="matrix(1.00005,0,0,-1.00003,30.165657,32.0106)" stroke-width=".3985" stroke-linecap="butt" stroke-miterlimit="10" stroke-linejoin="miter" fill="none" stroke="#000000" d="M16.66179-22.93315 26.95966 8.75974-16.66179-22.93315"/>
<path transform="matrix(1.00005,0,0,-1.00003,30.165657,32.0106)" d="M18.65434-22.93315C18.65434-21.83267 17.76225-20.9406 16.66179-20.9406 15.56131-20.9406 14.66924-21.83267 14.66924-22.93315 14.66924-24.03362 15.56131-24.9257 16.66179-24.9257 17.76225-24.9257 18.65434-24.03362 18.65434-22.93315ZM16.66179-22.93315"/>
</svg>
