<svg xmlns="http://www.w3.org/2000/svg" xmlns:xlink="http://www.w3.org/1999/xlink" xmlns:inkscape="http://www.inkscape.org/namespaces/inkscape" version="1.1" width="81" height="67" viewBox="0 0 81 67">
<path transform="matrix(1.00003,0,0,-1.00006,32.97408,43.351884)" stroke-width=".3985" stroke-linecap="butt" stroke-miterlimit="10" stroke-linejoin="miter" fill="none" stroke="#000000" d="M-29.7638 0-14.88188 39.68535 0 0 44.64568-19.84267 29.7638 0-14.88188 39.68535M44.64568-19.84267-29.7638 0"/>
<path transform="matrix(1.00003,0,0,-1.00006,32.97408,43.351884)" d="M-27.77124 0C-27.77124 1.10046-28.66333 1.99255-29.7638 1.99255-30.86426 1.99255-31.75635 1.10046-31.75635 0-31.75635-1.10046-30.86426-1.99255-29.7638-1.99255-28.66333-1.99255-27.77124-1.10046-27.77124 0ZM-29.7638 0"/>
<path transform="matrix(1.00003,0,0,-1.00006,32.97408,43.351884)" d="M-12.88933 39.68535C-12.88933 40.78583-13.7814 41.6779-14.88188 41.6779-15.98235 41.6779-16.87444 40.78583-16.87444 39.68535-16.87444 38.58488-15.98235 37.6928-14.88188 37.6928-13.7814 37.6928-12.88933 38.58488-12.88933 39.68535ZM-14.88188 39.68535"/>
<path transform="matrix(1.00003,0,0,-1.00006,32.97408,43.351884)" d="M1.99255 0C1.99255 1.10046 1.10046 1.99255 0 1.99255-1.10046 1.99255-1.99255 1.10046-1.99255 0-1.99255-1.10046-1.10046-1.99255 0-1.99255 1.10046-1.99255 1.99255-1.10046 1.99255 0ZM0 0"/>
<path transform="matrix(1.00003,0,0,-1.00006,32.97408,43.351884)" d="M46.63823-19.84267C46.63823-18.74219 45.74615-17.85011 44.64568-17.85011 43.54521-17.85011 42.65312-18.74219 42.65312-19.84267 42.65312-20.94313 43.54521-21.83522 44.64568-21.83522 45.74615-21.83522 46.63823-20.94313 46.63823-19.84267ZM44.64568-19.84267"/>
<path transform="matrix(1.00003,0,0,-1.00006,32.97408,43.351884)" d="M31.75635 0C31.75635 1.10046 30.86426 1.99255 29.7638 1.99255 28.66333 1.99255 27.77124 1.10046 27.77124 0 27.77124-1.10046 28.66333-1.99255 29.7638-1.99255 30.86426-1.99255 31.75635-1.10046 31.75635 0ZM29.7638 0"/>
</svg>
