<svg xmlns="http://www.w3.org/2000/svg" xmlns:xlink="http://www.w3.org/1999/xlink" xmlns:inkscape="http://www.inkscape.org/namespaces/inkscape" version="1.1" width="114" height="110" viewBox="0 0 114 110">
<path transform="matrix(1.00002,0,0,-1,57.13681,60.325)" stroke-width=".3985" stroke-linecap="butt" stroke-miterlimit="10" stroke-linejoin="miter" fill="none" stroke="#000000" d="M26.95966 8.75974 0 28.3468-26.95966 8.75974-16.66179-22.93315H16.66179Z"/>
<path transform="matrix(1.00002,0,0,-1,57.13681,60.325)" stroke-width=".3985" stroke-linecap="butt" stroke-miterlimit="10" stroke-linejoin="miter" fill="none" stroke="#000000" d="M26.95966 8.75974H-26.95966L16.66179-22.93315 0 28.3468-16.66179-22.93315Z"/>
<path transform="matrix(1.00002,0,0,-1,57.13681,60.325)" stroke-width=".3985" stroke-linecap="butt" stroke-miterlimit="10" stroke-linejoin="miter" fill="none" stroke="#000000" d="M26.95966 8.75974 53.91931 17.5195"/>
<path transform="matrix(1.00002,0,0,-1,57.13681,60.325)" d="M28.95221 8.75974C28.95221 9.86021 28.06012 10.75229 26.95966 10.75229 25.85918 10.75229 24.9671 9.86021 24.9671 8.75974 24.9671 7.65927 25.85918 6.76718 26.95966 6.76718 28.06012 6.76718 28.95221 7.65927 28.95221 8.75974ZM26.95966 8.75974"/>
<path transform="matrix(1.00002,0,0,-1,57.13681,60.325)" d="M55.91187 17.5195C55.91187 18.61996 55.01979 19.51205 53.91931 19.51205 52.81885 19.51205 51.92676 18.61996 51.92676 17.5195 51.92676 16.41902 52.81885 15.52695 53.91931 15.52695 55.01979 15.52695 55.91187 16.41902 55.91187 17.5195ZM53.91931 17.5195"/>
<path transform="matrix(1.00002,0,0,-1,57.13681,60.325)" stroke-width=".3985" stroke-linecap="butt" stroke-miterlimit="10" stroke-linejoin="miter" fill="none" stroke="#000000" d="M0 28.3468V56.69362"/>
<path transform="matrix(1.00002,0,0,-1,57.13681,60.325)" d="M1.99255 28.3468C1.99255 29.44728 1.10046 30.33936 0 30.33936-1.10046 30.33936-1.99255 29.44728-1.99255 28.3468-1.99255 27.24634-1.10046 26.35425 0 26.35425 1.10046 26.35425 1.99255 27.24634 1.99255 28.3468ZM0 28.3468"/>
<path transform="matrix(1.00002,0,0,-1,57.13681,60.325)" d="M1.99255 56.69362C1.99255 57.79408 1.10046 58.68617 0 58.68617-1.10046 58.68617-1.99255 57.79408-1.99255 56.69362-1.99255 55.59314-1.10046 54.70107 0 54.70107 1.10046 54.70107 1.99255 55.59314 1.99255 56.69362ZM0 56.69362"/>
<path transform="matrix(1.00002,0,0,-1,57.13681,60.325)" stroke-width=".3985" stroke-linecap="butt" stroke-miterlimit="10" stroke-linejoin="miter" fill="none" stroke="#000000" d="M-26.95966 8.75974-53.91931 17.5195"/>
<path transform="matrix(1.00002,0,0,-1,57.13681,60.325)" d="M-24.9671 8.75974C-24.9671 9.86021-25.85918 10.75229-26.95966 10.75229-28.06012 10.75229-28.95221 9.86021-28.95221 8.75974-28.95221 7.65927-28.06012 6.76718-26.95966 6.76718-25.85918 6.76718-24.9671 7.65927-24.9671 8.75974ZM-26.95966 8.75974"/>
<path transform="matrix(1.00002,0,0,-1,57.13681,60.325)" d="M-51.92676 17.5195C-51.92676 18.61996-52.81885 19.51205-53.91931 19.51205-55.01979 19.51205-55.91187 18.61996-55.91187 17.5195-55.91187 16.41902-55.01979 15.52695-53.91931 15.52695-52.81885 15.52695-51.92676 16.41902-51.92676 17.5195ZM-53.91931 17.5195"/>
<path transform="matrix(1.00002,0,0,-1,57.13681,60.325)" stroke-width=".3985" stroke-linecap="butt" stroke-miterlimit="10" stroke-linejoin="miter" fill="none" stroke="#000000" d="M-16.66179-22.93315-33.32358-45.8663"/>
<path transform="matrix(1.00002,0,0,-1,57.13681,60.325)" d="M-14.66924-22.93315C-14.66924-21.83267-15.56131-20.9406-16.66179-20.9406-17.76225-20.9406-18.65434-21.83267-18.65434-22.93315-18.65434-24.03362-17.76225-24.9257-16.66179-24.9257-15.56131-24.9257-14.66924-24.03362-14.66924-22.93315ZM-16.66179-22.93315"/>
<path transform="matrix(1.00002,0,0,-1,57.13681,60.325)" d="M-31.33102-45.8663C-31.33102-44.76584-32.22311-43.87375-33.32358-43.87375-34.42406-43.87375-35.31613-44.76584-35.31613-45.8663-35.31613-46.96678-34.42406-47.85886-33.32358-47.85886-32.22311-47.85886-31.33102-46.96678-31.33102-45.8663ZM-33.32358-45.8663"/>
<path transform="matrix(1.00002,0,0,-1,57.13681,60.325)" stroke-width=".3985" stroke-linecap="butt" stroke-miterlimit="10" stroke-linejoin="miter" fill="none" stroke="#000000" d="M16.66179-22.93315 33.32358-45.8663"/>
<path transform="matrix(1.00002,0,0,-1,57.13681,60.325)" d="M18.65434-22.93315C18.65434-21.83267 17.76225-20.9406 16.66179-20.9406 15.56131-20.9406 14.66924-21.83267 14.66924-22.93315 14.66924-24.03362 15.56131-24.9257 16.66179-24.9257 17.76225-24.9257 18.65434-24.03362 18.65434-22.93315ZM16.66179-22.93315"/>
<path transform="matrix(1.00002,0,0,-1,57.13681,60.325)" d="M35.31613-45.8663C35.31613-44.76584 34.42406-43.87375 33.32358-43.87375 32.22311-43.87375 31.33102-44.76584 31.33102-45.8663 31.33102-46.96678 32.22311-47.85886 33.32358-47.85886 34.42406-47.85886 35.31613-46.96678 35.31613-45.8663ZM33.32358-45.8663"/>
</svg>
