<svg xmlns="http://www.w3.org/2000/svg" xmlns:xlink="http://www.w3.org/1999/xlink" xmlns:inkscape="http://www.inkscape.org/namespaces/inkscape" version="1.1" width="63" height="41" viewBox="0 0 63 41">
<path transform="matrix(1.0001,0,0,-1.00003,31.555455,37.68677)" stroke-width=".3985" stroke-linecap="butt" stroke-miterlimit="10" stroke-linejoin="miter" fill="none" stroke="#000000" d="M-28.3468 34.01608V0L0 34.01608V0L28.3468 34.01608V0L0 34.01608-28.3468 0 28.3468 34.01608M28.3468 0-28.3468 34.01608 0 0"/>
<path transform="matrix(1.0001,0,0,-1.00003,31.555455,37.68677)" d="M-26.35425 34.01608C-26.35425 35.11655-27.24634 36.00864-28.3468 36.00864-29.44728 36.00864-30.33936 35.11655-30.33936 34.01608-30.33936 32.9156-29.44728 32.02353-28.3468 32.02353-27.24634 32.02353-26.35425 32.9156-26.35425 34.01608ZM-28.3468 34.01608"/>
<path transform="matrix(1.0001,0,0,-1.00003,31.555455,37.68677)" d="M-26.35425 0C-26.35425 1.10046-27.24634 1.99255-28.3468 1.99255-29.44728 1.99255-30.33936 1.10046-30.33936 0-30.33936-1.10046-29.44728-1.99255-28.3468-1.99255-27.24634-1.99255-26.35425-1.10046-26.35425 0ZM-28.3468 0"/>
<path transform="matrix(1.0001,0,0,-1.00003,31.555455,37.68677)" d="M1.99255 34.01608C1.99255 35.11655 1.10046 36.00864 0 36.00864-1.10046 36.00864-1.99255 35.11655-1.99255 34.01608-1.99255 32.9156-1.10046 32.02353 0 32.02353 1.10046 32.02353 1.99255 32.9156 1.99255 34.01608ZM0 34.01608"/>
<path transform="matrix(1.0001,0,0,-1.00003,31.555455,37.68677)" d="M1.99255 0C1.99255 1.10046 1.10046 1.99255 0 1.99255-1.10046 1.99255-1.99255 1.10046-1.99255 0-1.99255-1.10046-1.10046-1.99255 0-1.99255 1.10046-1.99255 1.99255-1.10046 1.99255 0ZM0 0"/>
<path transform="matrix(1.0001,0,0,-1.00003,31.555455,37.68677)" d="M30.33936 34.01608C30.33936 35.11655 29.44728 36.00864 28.3468 36.00864 27.24634 36.00864 26.35425 35.11655 26.35425 34.01608 26.35425 32.9156 27.24634 32.02353 28.3468 32.02353 29.44728 32.02353 30.33936 32.9156 30.33936 34.01608ZM28.3468 34.01608"/>
<path transform="matrix(1.0001,0,0,-1.00003,31.555455,37.68677)" d="M30.33936 0C30.33936 1.10046 29.44728 1.99255 28.3468 1.99255 27.24634 1.99255 26.35425 1.10046 26.35425 0 26.35425-1.10046 27.24634-1.99255 28.3468-1.99255 29.44728-1.99255 30.33936-1.10046 30.33936 0ZM28.3468 0"/>
</svg>
