<svg xmlns="http://www.w3.org/2000/svg" xmlns:xlink="http://www.w3.org/1999/xlink" xmlns:inkscape="http://www.inkscape.org/namespaces/inkscape" version="1.1" width="58" height="61" viewBox="0 0 58 61">
<defs>
<path id="font_1_1" d="M.5089874 .40376283C.5079956 .40675355 .5039978 .41474916 .5039978 .41775514 .5039978 .41874696 .5219879 .43273927 .5329895 .44073487L.70799258 .5756531C.8019867 .64460757 .84098818 .64860537 .87098696 .6516113 .8789978 .65260317 .8889923 .6536102 .8889923 .6716156 .8889923 .6756134 .8860016 .6826172 .8779907 .6826172 .85598757 .6826172 .83099368 .6796112 .8069916 .6796112 .7709961 .6796112 .7319946 .6826172 .69599917 .6826172 .68899539 .6826172 .6769867 .6826172 .6769867 .6626129 .6769867 .65560916 .6819916 .65260317 .68899539 .6516113 .71099856 .6496124 .7200012 .64460757 .7200012 .63061526 .7200012 .6126251 .6899872 .5896454 .6839905 .5846405L.2939911 .28483583 .37399293 .6056366C.3829956 .6416168 .3849945 .6516113 .45799256 .6516113 .48298646 .6516113 .49198915 .6516113 .49198915 .6716156 .49198915 .680603 .48399354 .6826172 .47799684 .6826172 .44999696 .6826172 .37799073 .6796112 .34999085 .6796112 .32099916 .6796112 .25 .6826172 .22099304 .6826172 .21398926 .6826172 .20098877 .6826172 .20098877 .66360476 .20098877 .6516113 .20999146 .6516113 .22999573 .6516113 .24299622 .6516113 .26098634 .65060427 .272995 .6496124 .2889862 .6476135 .29499818 .64460757 .29499818 .6336212 .29499818 .6296234 .2939911 .62661746 .29100038 .614624L.15699768 .07795715C.14698792 .038986207 .14498902 .0309906 .06599426 .0309906 .04899597 .0309906 .037994386 .0309906 .037994386 .011993408 .037994386 0 .049987794 0 .052993776 0 .08099365 0 .1519928 .0029907227 .17999268 .0029907227 .20098877 .0029907227 .22299195 .0019989014 .24398804 .0019989014 .2659912 .0019989014 .28799439 0 .30899049 0 .31599427 0 .32899476 0 .32899476 .019989014 .32899476 .0309906 .31999208 .0309906 .30099488 .0309906 .2639923 .0309906 .23599243 .0309906 .23599243 .048980714 .23599243 .05596924 .24198914 .07795715 .24499512 .09295654 .25898744 .14492798 .27198792 .19789124 .2849884 .24986267L.43399049 .3657837 .5499878 .096954349C.56199648 .06996155 .56199648 .06796265 .56199648 .061965944 .56199648 .03199768 .5189972 .0309906 .5099945 .0309906 .49899293 .0309906 .48799134 .0309906 .48799134 .010986328 .48799134 0 .5 0 .5019989 0 .5419922 0 .58399966 .0029907227 .6239929 .0029907227 .6459961 .0029907227 .69999697 0 .7220001 0 .72698977 0 .73999026 0 .73999026 .019989014 .73999026 .0309906 .72898867 .0309906 .7200012 .0309906 .67900088 .03199768 .66600039 .040985109 .651001 .07595825L.5089874 .40376283Z"/>
<path id="font_2_1" d="M.5049896 .18203736H.47099305C.46798707 .16001892 .45799256 .100997928 .44499208 .09098816 .43699647 .084991458 .3600006 .084991458 .34599305 .084991458H.1619873C.2669983 .17803955 .3019867 .20603943 .3619995 .25306703 .43598939 .312088 .5049896 .374115 .5049896 .46914674 .5049896 .5900879 .39898683 .6640625 .2709961 .6640625 .14698792 .6640625 .06298828 .57710269 .06298828 .4851532 .06298828 .43414308 .10598755 .42915345 .115997318 .42915345 .13999939 .42915345 .16899109 .44615174 .16899109 .48214723 .16899109 .5001526 .1619873 .53515627 .10998535 .53515627 .14099121 .6060791 .20899964 .62805178 .2559967 .62805178 .35598756 .62805178 .4079895 .5501404 .4079895 .46914674 .4079895 .38212586 .34599305 .3130951 .31399537 .27708436L.07299805 .038986207C.06298828 .02999878 .06298828 .027999878 .06298828 0H.47499085L.5049896 .18203736Z"/>
<path id="font_3_1" d="M.21099854 .015991211C.21099854-.03907776 .20098877-.10321045 .1329956-.16732788 .1289978-.17134094 .12599182-.17434693 .12599182-.17933655 .12599182-.18634033 .13398743-.19334412 .13999939-.19334412 .1539917-.19334412 .23899842-.113220218 .23899842 .005996704 .23899842 .067993167 .21499634 .114990238 .16899109 .114990238 .13598633 .114990238 .11199951 .08898926 .11199951 .057998659 .11199951 .025985718 .1349945 0 .16999817 0 .19400025 0 .20999146 .015991211 .21099854 .015991211Z"/>
<path id="font_2_2" d="M.272995 .33428956C.35099793 .33428956 .40699769 .2803192 .40699769 .1733551 .40699769 .04940796 .33499146 .012466431 .2769928 .012466431 .23699951 .012466431 .14898682 .0234375 .10699463 .082351688 .1539917 .084350589 .16499329 .11735535 .16499329 .13835144 .16499329 .17034912 .14099121 .19335938 .10998535 .19335938 .08198547 .19335938 .053985597 .17634583 .053985597 .13534546 .053985597 .041412355 .1579895-.01953125 .2789917-.01953125 .41799928-.01953125 .5139923 .07336426 .5139923 .1733551 .5139923 .2513275 .44999696 .32929994 .33999635 .35229493 .44499208 .39024354 .48298646 .4650879 .48298646 .5260773 .48298646 .60505679 .3919983 .6640625 .2809906 .6640625 .16999817 .6640625 .084991458 .61006167 .084991458 .5300751 .084991458 .49606324 .10699463 .47706605 .13699341 .47706605 .16799927 .47706605 .18798828 .5000763 .18798828 .5280762 .18798828 .5570679 .16799927 .57806399 .13699341 .5800781 .17199707 .62405398 .24099732 .63505557 .27799989 .63505557 .32299806 .63505557 .38598634 .6130676 .38598634 .5260773 .38598634 .48406983 .37199403 .43814088 .34599305 .4072113 .31298829 .36927796 .2849884 .3672943 .23498535 .36428834 .20999146 .3623047 .20799256 .3623047 .20298767 .3612976 .20098877 .3612976 .19299317 .3592987 .19299317 .34829713 .19299317 .33428956 .20199585 .33428956 .21899414 .33428956H.272995Z"/>
</defs>
<path transform="matrix(1,0,0,-1.00005,28.726998,37.65143)" stroke-width=".3985" stroke-linecap="butt" stroke-miterlimit="10" stroke-linejoin="miter" fill="none" stroke="#000000" d="M-25.51237 0-12.75616 34.0165 0 0 12.75616 34.0165 25.51237 0-12.75616 34.0165M12.75616 34.0165-25.51237 0"/>
<path transform="matrix(1,0,0,-1.00005,28.726998,37.65143)" d="M-23.51982 0C-23.51982 1.10046-24.41191 1.99255-25.51237 1.99255-26.61285 1.99255-27.50493 1.10046-27.50493 0-27.50493-1.10046-26.61285-1.99255-25.51237-1.99255-24.41191-1.99255-23.51982-1.10046-23.51982 0ZM-25.51237 0"/>
<path transform="matrix(1,0,0,-1.00005,28.726998,37.65143)" d="M-10.76361 34.0165C-10.76361 35.11697-11.6557 36.00905-12.75616 36.00905-13.85664 36.00905-14.74872 35.11697-14.74872 34.0165-14.74872 32.91603-13.85664 32.02394-12.75616 32.02394-11.6557 32.02394-10.76361 32.91603-10.76361 34.0165ZM-12.75616 34.0165"/>
<path transform="matrix(1,0,0,-1.00005,28.726998,37.65143)" d="M1.99255 0C1.99255 1.10046 1.10046 1.99255 0 1.99255-1.10046 1.99255-1.99255 1.10046-1.99255 0-1.99255-1.10046-1.10046-1.99255 0-1.99255 1.10046-1.99255 1.99255-1.10046 1.99255 0ZM0 0"/>
<path transform="matrix(1,0,0,-1.00005,28.726998,37.65143)" d="M14.74872 34.0165C14.74872 35.11697 13.85664 36.00905 12.75616 36.00905 11.6557 36.00905 10.76361 35.11697 10.76361 34.0165 10.76361 32.91603 11.6557 32.02394 12.75616 32.02394 13.85664 32.02394 14.74872 32.91603 14.74872 34.0165ZM12.75616 34.0165"/>
<path transform="matrix(1,0,0,-1.00005,28.726998,37.65143)" d="M27.50493 0C27.50493 1.10046 26.61285 1.99255 25.51237 1.99255 24.41191 1.99255 23.51982 1.10046 23.51982 0 23.51982-1.10046 24.41191-1.99255 25.51237-1.99255 26.61285-1.99255 27.50493-1.10046 27.50493 0ZM25.51237 0"/>
<path transform="matrix(1,0,0,-1.00005,28.726998,37.65143)" stroke-width=".3985" stroke-linecap="butt" stroke-miterlimit="10" stroke-linejoin="miter" fill="none" stroke="#000000" d="M0-8.50412"/>
<use data-text="K" xlink:href="#font_1_1" transform="matrix(9.9626,0,0,-9.963098,19.092995,56.484369)"/>
<use data-text="2" xlink:href="#font_2_1" transform="matrix(6.9738,0,0,-6.9741489,27.554993,57.979448)"/>
<use data-text="," xlink:href="#font_3_1" transform="matrix(6.9738,0,0,-6.9741489,31.525994,57.979448)"/>
<use data-text="3" xlink:href="#font_2_2" transform="matrix(6.9738,0,0,-6.9741489,33.89199,57.979448)"/>
</svg>
