<svg xmlns="http://www.w3.org/2000/svg" xmlns:xlink="http://www.w3.org/1999/xlink" xmlns:inkscape="http://www.inkscape.org/namespaces/inkscape" version="1.1" width="92" height="52" viewBox="0 0 92 52">
<path transform="matrix(1.00005,0,0,-1.00005,45.74443,48.992)" stroke-width=".3985" stroke-linecap="butt" stroke-miterlimit="10" stroke-linejoin="miter" fill="none" stroke="#000000" d="M-42.5202 0-21.26009 45.35506 0 0 21.26009 45.35506 42.5202 0-21.26009 45.35506M21.26009 45.35506-42.5202 0"/>
<path transform="matrix(1.00005,0,0,-1.00005,45.74443,48.992)" d="M-40.52765 0C-40.52765 1.10046-41.41972 1.99255-42.5202 1.99255-43.62067 1.99255-44.51276 1.10046-44.51276 0-44.51276-1.10046-43.62067-1.99255-42.5202-1.99255-41.41972-1.99255-40.52765-1.10046-40.52765 0ZM-42.5202 0"/>
<path transform="matrix(1.00005,0,0,-1.00005,45.74443,48.992)" d="M-19.26753 45.35506C-19.26753 46.45552-20.1596 47.34761-21.26009 47.34761-22.36055 47.34761-23.25264 46.45552-23.25264 45.35506-23.25264 44.25458-22.36055 43.3625-21.26009 43.3625-20.1596 43.3625-19.26753 44.25458-19.26753 45.35506ZM-21.26009 45.35506"/>
<path transform="matrix(1.00005,0,0,-1.00005,45.74443,48.992)" d="M1.99255 0C1.99255 1.10046 1.10046 1.99255 0 1.99255-1.10046 1.99255-1.99255 1.10046-1.99255 0-1.99255-1.10046-1.10046-1.99255 0-1.99255 1.10046-1.99255 1.99255-1.10046 1.99255 0ZM0 0"/>
<path transform="matrix(1.00005,0,0,-1.00005,45.74443,48.992)" d="M23.25264 45.35506C23.25264 46.45552 22.36055 47.34761 21.26009 47.34761 20.1596 47.34761 19.26753 46.45552 19.26753 45.35506 19.26753 44.25458 20.1596 43.3625 21.26009 43.3625 22.36055 43.3625 23.25264 44.25458 23.25264 45.35506ZM21.26009 45.35506"/>
<path transform="matrix(1.00005,0,0,-1.00005,45.74443,48.992)" d="M44.51276 0C44.51276 1.10046 43.62067 1.99255 42.5202 1.99255 41.41972 1.99255 40.52765 1.10046 40.52765 0 40.52765-1.10046 41.41972-1.99255 42.5202-1.99255 43.62067-1.99255 44.51276-1.10046 44.51276 0ZM42.5202 0"/>
</svg>
