<svg xmlns="http://www.w3.org/2000/svg" xmlns:xlink="http://www.w3.org/1999/xlink" xmlns:inkscape="http://www.inkscape.org/namespaces/inkscape" version="1.1" width="60" height="59" viewBox="0 0 60 59">
<path transform="matrix(1.00003,0,0,-1,30.115935,29.546)" stroke-width=".3985" stroke-linecap="butt" stroke-linejoin="bevel" fill="none" stroke="#000000" d="M2.98883 2.98883-28.3468 0 0 28.3468Z"/>
<path transform="matrix(1.00003,0,0,-1,30.115935,29.546)" stroke-width=".3985" stroke-linecap="butt" stroke-linejoin="bevel" fill="none" stroke="#000000" d="M28.3468 0 2.98883 2.98883 0 28.3468Z"/>
<path transform="matrix(1.00003,0,0,-1,30.115935,29.546)" stroke-width=".3985" stroke-linecap="butt" stroke-linejoin="bevel" fill="none" stroke="#000000" d="M2.98883 2.98883-28.3468 0 0-28.3468Z"/>
<path transform="matrix(1.00003,0,0,-1,30.115935,29.546)" stroke-width=".3985" stroke-linecap="butt" stroke-linejoin="bevel" fill="none" stroke="#000000" d="M28.3468 0 2.98883 2.98883 0-28.3468Z"/>
<path transform="matrix(1.00003,0,0,-1,30.115935,29.546)" d="M-28.3468 0-2.98883-2.98883 0 28.3468Z" fill="#f2b6c2" fill-opacity=".7"/>
<path transform="matrix(1.00003,0,0,-1,30.115935,29.546)" stroke-width=".3985" stroke-linecap="butt" stroke-linejoin="bevel" fill="none" stroke="#000000" d="M-28.3468 0-2.98883-2.98883 0 28.3468Z"/>
<path transform="matrix(1.00003,0,0,-1,30.115935,29.546)" d="M-2.98883-2.98883 28.3468 0 0 28.3468Z" fill="#cc99cc" fill-opacity=".7"/>
<path transform="matrix(1.00003,0,0,-1,30.115935,29.546)" stroke-width=".3985" stroke-linecap="butt" stroke-linejoin="bevel" fill="none" stroke="#000000" d="M-2.98883-2.98883 28.3468 0 0 28.3468Z"/>
<path transform="matrix(1.00003,0,0,-1,30.115935,29.546)" d="M-28.3468 0-2.98883-2.98883 0-28.3468Z" fill="#000040" fill-opacity=".7"/>
<path transform="matrix(1.00003,0,0,-1,30.115935,29.546)" stroke-width=".3985" stroke-linecap="butt" stroke-linejoin="bevel" fill="none" stroke="#000000" d="M-28.3468 0-2.98883-2.98883 0-28.3468Z"/>
<path transform="matrix(1.00003,0,0,-1,30.115935,29.546)" d="M-2.98883-2.98883 28.3468 0 0-28.3468Z" fill="#8f0030" fill-opacity=".7"/>
<path transform="matrix(1.00003,0,0,-1,30.115935,29.546)" stroke-width=".3985" stroke-linecap="butt" stroke-linejoin="bevel" fill="none" stroke="#000000" d="M-2.98883-2.98883 28.3468 0 0-28.3468Z"/>
</svg>
