<svg xmlns="http://www.w3.org/2000/svg" xmlns:xlink="http://www.w3.org/1999/xlink" xmlns:inkscape="http://www.inkscape.org/namespaces/inkscape" version="1.1" width="373" height="135" viewBox="0 0 373 135">
<defs>
<path id="font_1_2" d="M.43998719 .16790772H.41799928C.4149933 .15092469 .40699769 .09597778 .39698792 .07998657 .3899994 .070999149 .33299256 .070999149 .30299378 .070999149H.117996219C.14498902 .09397888 .20599365 .15792847 .23199463 .18190003 .38398744 .3217926 .43998719 .37374879 .43998719 .47270204 .43998719 .5878906 .34899903 .66503909 .23298645 .66503909 .116989139 .66503909 .04899597 .5658264 .04899597 .4797058 .04899597 .42871095 .09298706 .42871095 .09599304 .42871095 .116989139 .42871095 .14299011 .44371034 .14299011 .475708 .14299011 .5037079 .12399292 .5227051 .09599304 .5227051 .08699036 .5227051 .084991458 .5227051 .08198547 .521698 .100997928 .5899048 .15499878 .6360321 .21998596 .6360321 .30499269 .6360321 .35699464 .56481936 .35699464 .47270204 .35699464 .3877411 .30799867 .313797 .25099183 .24984741L.04899597 .023986817V0H.4139862L.43998719 .16790772Z"/>
<path id="font_1_4" d="M.36099244 .6508026C.36099244 .6697998 .36099244 .6748047 .34700013 .6748047 .33898927 .6748047 .33599855 .6748047 .32798768 .662796L.026992798 .19598389V.16699219H.2899933V.07598877C.2899933 .038986207 .28799439 .0289917 .21499634 .0289917H.19499207V0C.21798706 .0019989014 .29699708 .0019989014 .32499696 .0019989014 .35299684 .0019989014 .43299867 .0019989014 .45599366 0V.0289917H.43598939C.3639984 .0289917 .36099244 .038986207 .36099244 .07598877V.16699219H.46199037V.19598389H.36099244V.6508026M.29499818 .5728302V.19598389H.051986696L.29499818 .5728302Z"/>
<path id="font_1_9" d="M.3659973 .29078675C.3659973 .05493164 .26098634 .005508423 .20098877 .005508423 .1769867 .005508423 .12399292 .008544922 .09899902 .043945314H.10499573C.11199951 .041915895 .147995 .047943117 .147995 .08493042 .147995 .106933597 .1329956 .12593079 .10699463 .12593079 .08099365 .12593079 .06498718 .108932498 .06498718 .08293152 .06498718 .02067566 .114990238-.021484375 .20199585-.021484375 .32699586-.021484375 .44799806 .11193848 .44799806 .32881166 .44799806 .5980072 .33599855 .66503909 .24798584 .66503909 .13798523 .66503909 .040985109 .5729828 .040985109 .44088746 .040985109 .3087921 .13398743 .21875 .23399353 .21875 .30799867 .21875 .34599305 .2727661 .3659973 .32380677V.29078675M.23799134 .23873902C.1749878 .23873902 .147995 .28977967 .13899231 .3087921 .12298584 .34681703 .12298584 .39485169 .12298584 .43988038 .12298584 .4959259 .12298584 .5439606 .14898682 .58499148 .16699219 .6120148 .19400025 .641037 .24798584 .641037 .30499269 .641037 .33399964 .59098818 .34399415 .5679779 .3639984 .51893618 .3639984 .43388368 .3639984 .41886903 .3639984 .33480836 .32598878 .23873902 .23799134 .23873902Z"/>
<path id="font_2_1" d="M.1789856 .114868167C.13899231 .047973634 .099990848 .033981325 .055999757 .0309906 .04399109 .02999878 .034988405 .02999878 .034988405 .010986328 .034988405 .004989624 .039993287 0 .04798889 0 .07499695 0 .10598755 .0029907227 .13398743 .0029907227 .16699219 .0029907227 .20199585 0 .23399353 0 .23999024 0 .25299073 0 .25299073 .018997193 .25299073 .02999878 .24398804 .0309906 .23699951 .0309906 .21398926 .032989503 .18998719 .04096985 .18998719 .06593323 .18998719 .077926639 .19599915 .088897708 .20399475 .102890018L.27999879 .23068238H.5309906C.5329895 .2097168 .5469971 .07392883 .5469971 .063949588 .5469971 .033981325 .49499513 .0309906 .47499085 .0309906 .46099855 .0309906 .45098878 .0309906 .45098878 .010986328 .45098878 0 .46299745 0 .46499635 0 .5059967 0 .548996 .0029907227 .58999636 .0029907227 .61499026 .0029907227 .6779938 0 .7029877 0 .70899966 0 .72099307 0 .72099307 .019989014 .72099307 .0309906 .71099856 .0309906 .69799807 .0309906 .6359863 .0309906 .6359863 .037979127 .6329956 .06694031L.57199099 .691803C.56999209 .71180728 .56999209 .7158203 .5529938 .7158203 .5369873 .7158203 .5329895 .7088165 .5269928 .69880679L.1789856 .114868167M.29899598 .26168824 .49598695 .5917816 .5279999 .26168824H.29899598Z"/>
<path id="font_1_1" d="M.28799439 .64105227C.28799439 .664032 .28799439 .66503909 .2679901 .66503909 .24398804 .6380615 .19400025 .6012573 .09098816 .6012573V.5722656C.11399841 .5722656 .1639862 .5722656 .21899414 .59825137V.07701111C.21899414 .041000368 .21598816 .0289917 .12799073 .0289917H.09700012V0C.12399292 .0019989014 .22099304 .0019989014 .2539978 .0019989014 .2869873 .0019989014 .3829956 .0019989014 .4099884 0V.0289917H.3789978C.29100038 .0289917 .28799439 .041000368 .28799439 .07701111V.64105227Z"/>
<path id="font_1_6" d="M.12298584 .34773255C.12298584 .60061648 .24598694 .641037 .2999878 .641037 .33599855 .641037 .37199403 .62991335 .3909912 .5996094 .3789978 .5996094 .34098817 .5996094 .34098817 .558609 .34098817 .53660586 .35598756 .51760867 .38198854 .51760867 .40699769 .51760867 .42399598 .53260806 .42399598 .56159976 .42399598 .6137543 .38598634 .66503909 .29899598 .66503909 .17298889 .66503909 .040985109 .53559878 .040985109 .31570436 .040985109 .040527345 .16099549-.021484375 .24598694-.021484375 .35499574-.021484375 .44799806 .07354736 .44799806 .2036438 .44799806 .33673097 .35499574 .42578126 .25498963 .42578126 .1659851 .42578126 .1329956 .34873963 .12298584 .32070924V.34773255M.24598694 .005508423C.18299866 .005508423 .15299988 .061538698 .14399719 .08256531 .1349945 .10858154 .125 .15760803 .125 .22766114 .125 .30670167 .16099549 .40577699 .25099183 .40577699 .30599977 .40577699 .33499146 .3687439 .34999085 .33473207 .3659973 .29769898 .3659973 .2476654 .3659973 .20463562 .3659973 .15361023 .3659973 .10858154 .34700013 .07055664 .32199098 .022521973 .28599549 .005508423 .24598694 .005508423Z"/>
<path id="font_1_8" d="M.2979889 .36079408C.34799195 .38781739 .42099 .43385316 .42099 .5179291 .42099 .6049957 .33699037 .66503909 .24499512 .66503909 .1459961 .66503909 .067993167 .59199526 .067993167 .5009155 .067993167 .46688844 .07798767 .43286134 .10598755 .39883424 .116989139 .38581849 .117996219 .38482667 .18798828 .3357849 .09098816 .29074098 .040985109 .22369385 .040985109 .15063477 .040985109 .044540407 .14199829-.021484375 .24398804-.021484375 .35499574-.021484375 .44799806 .060546876 .44799806 .16563416 .44799806 .2677307 .37599183 .3127594 .2979889 .36079408M.1619873 .4508667C.14898682 .45988465 .10899353 .48590089 .10899353 .5349426 .10899353 .59999087 .1769867 .641037 .24398804 .641037 .31599427 .641037 .37998963 .58898928 .37998963 .516922 .37998963 .45587159 .33599855 .4068451 .27799989 .3748169L.1619873 .4508667M.20899964 .32176209 .32998658 .2427063C.35598756 .22569275 .4019928 .19465637 .4019928 .13360596 .4019928 .057556154 .32499696 .005508423 .24499512 .005508423 .1599884 .005508423 .08699036 .06756592 .08699036 .15063477 .08699036 .22869873 .14399719 .29174806 .20899964 .32176209Z"/>
<path id="font_2_2" d="M.1599884 .07795715C.1499939 .038986207 .147995 .0309906 .068984989 .0309906 .051986696 .0309906 .041992189 .0309906 .041992189 .010986328 .041992189 0 .050994874 0 .068984989 0H.42599488C.58399966 0 .70199587 .11791992 .70199587 .21585083 .70199587 .28778077 .6439972 .3457489 .5469971 .35673524 .651001 .37573243 .7559967 .44970704 .7559967 .5446625 .7559967 .6186218 .6899872 .6826172 .56999209 .6826172H.23399353C.21499634 .6826172 .20498657 .6826172 .20498657 .6626129 .20498657 .6516113 .21398926 .6516113 .23298645 .6516113 .23498535 .6516113 .2539978 .6516113 .2709961 .6496124 .2889862 .6476135 .2979889 .64660647 .2979889 .6336212 .2979889 .6296234 .29699708 .62661746 .2939911 .614624L.1599884 .07795715M.31098939 .36573792 .37298585 .6136322C.38198854 .64860537 .38398744 .6516113 .4269867 .6516113H.55599978C.6439972 .6516113 .6649933 .5926361 .6649933 .5486603 .6649933 .46069337 .57899478 .36573792 .45700074 .36573792H.31098939M.2659912 .0309906C.2519989 .0309906 .25 .0309906 .24398804 .03199768 .23399353 .032989503 .23098755 .033996583 .23098755 .04197693 .23098755 .04498291 .23098755 .04698181 .23599243 .064971927L.30499269 .34375H.49398805C.58999636 .34375 .60899356 .2698059 .60899356 .22683716 .60899356 .12791443 .519989 .0309906 .4019928 .0309906H.2659912Z"/>
<path id="font_1_3" d="M.18399048 .35888673C.16699219 .35787965 .16299439 .35688783 .16299439 .34788514 .16299439 .33789063 .16799927 .33789063 .18598938 .33789063H.23199463C.31698609 .33789063 .35499574 .267807 .35499574 .17172241 .35499574 .04058838 .2869873 .005508423 .23799134 .005508423 .18998719 .005508423 .10798645 .028564454 .07899475 .09472656 .11099243 .08970642 .13999939 .10771179 .13999939 .14372254 .13999939 .17271424 .11898804 .1927185 .09098816 .1927185 .066986087 .1927185 .040985109 .1787262 .040985109 .14071656 .040985109 .051620485 .12998963-.021484375 .24099732-.021484375 .3600006-.021484375 .44799806 .06965637 .44799806 .17071533 .44799806 .26280213 .37399293 .33488465 .27799989 .35188294 .36499024 .3769226 .42099 .45011903 .42099 .5282135 .42099 .6071167 .33898927 .66503909 .24198914 .66503909 .14199829 .66503909 .067993167 .604126 .067993167 .5312042 .067993167 .49121095 .09899902 .48321534 .11399841 .48321534 .1349945 .48321534 .15899658 .49821473 .15899658 .5282135 .15899658 .5602112 .1349945 .57421877 .11299133 .57421877 .10699463 .57421877 .10499573 .57421877 .101989749 .57321169 .13999939 .641037 .23399353 .641037 .23899842 .641037 .27198792 .641037 .33699037 .6260681 .33699037 .5282135 .33699037 .5092163 .33399964 .453125 .30499269 .41001893 .2749939 .3658905 .24099732 .36288453 .21398926 .36187745L.18399048 .35888673Z"/>
<path id="font_1_5" d="M.12799073 .5727997C.17098999 .5588074 .20599365 .5578003 .21699524 .5578003 .32998658 .5578003 .4019928 .6409912 .4019928 .6550598 .4019928 .6590576 .3999939 .6640625 .3939972 .6640625 .3919983 .6640625 .3899994 .6640625 .3809967 .66004946 .32499696 .6358795 .2769928 .6328125 .25099183 .6328125 .18499756 .6328125 .13798523 .6530609 .11898804 .6610565 .11199951 .6640625 .10998535 .6640625 .10899353 .6640625 .100997928 .6640625 .100997928 .65805056 .100997928 .64201357V.34495545C.100997928 .32695008 .100997928 .32095338 .11299133 .32095338 .117996219 .32095338 .11898804 .32196046 .1289978 .33395387 .15699768 .37493897 .20399475 .39894105 .2539978 .39894105 .30699159 .39894105 .33299256 .34994508 .34098817 .33294679 .35798646 .29396058 .35899354 .2449646 .35899354 .20697022 .35899354 .16897583 .35899354 .11193848 .33099366 .0667572 .30899049 .03060913 .269989 .005508423 .22599793 .005508423 .1599884 .005508423 .09498596 .050689699 .07699585 .12397766 .08198547 .12197876 .08799744 .12097168 .09298706 .12097168 .10998535 .12097168 .13699341 .13098145 .13699341 .16497803 .13699341 .1929779 .117996219 .20898438 .09298706 .20898438 .07499695 .20898438 .04899597 .19998169 .04899597 .16098023 .04899597 .075790408 .116989139-.021484375 .22799683-.021484375 .34098817-.021484375 .43998719 .073791507 .43998719 .20097351 .43998719 .3199463 .3600006 .4189453 .25498963 .4189453 .19799805 .4189453 .1539917 .39393617 .12799073 .36595155V.5727997Z"/>
<path id="font_1_7" d="M.47499085 .62054446V.6435547H.23399353C.11299133 .6435547 .11099243 .6567688 .10699463 .67578127H.084991458L.053985597 .47554017H.07598877C.07899475 .49354554 .08799744 .555542 .100997928 .5665436 .10899353 .5725403 .18399048 .5725403 .19799805 .5725403H.4099884L.3039856 .42053224C.2769928 .38153077 .17599488 .21751404 .17599488 .029510498 .17599488 .018508912 .17599488-.021484375 .21699524-.021484375 .25898744-.021484375 .25898744 .017501831 .25898744 .030517579V.08052063C.25898744 .2295227 .2829895 .34553529 .32998658 .41253663L.47499085 .62054446Z"/>
<path id="font_2_3" d="M.7599945 .69506838C.7599945 .69807437 .7579956 .7050781 .7489929 .7050781 .74598696 .7050781 .7449951 .70407107 .73399356 .69306948L.6639862 .61602786C.6549988 .6300354 .60899356 .7050781 .49798585 .7050781 .2749939 .7050781 .049987794 .48391725 .049987794 .25172425 .049987794 .08659363 .16799927-.022460938 .32099916-.022460938 .4079895-.022460938 .48399354 .017532349 .5369873 .063583377 .6299896 .14564514 .6469879 .2367096 .6469879 .23971558 .6469879 .24972534 .6369934 .24972534 .6349945 .24972534 .6289978 .24972534 .6239929 .24772644 .621994 .23971558 .61299136 .21069336 .58999636 .13963318 .5209961 .081588748 .45199586 .025543213 .3889923 .008529663 .33699037 .008529663 .24699402 .008529663 .14099121 .060577394 .14099121 .21670532 .14099121 .27374269 .1619873 .43588258 .2619934 .55296328 .32299806 .62402346 .4169922 .67407229 .5059967 .67407229 .60798647 .67407229 .6669922 .5970001 .6669922 .48091126 .6669922 .44088746 .6639862 .43988038 .6639862 .4298706 .6639862 .41986085 .6749878 .41986085 .67900088 .41986085 .69200137 .41986085 .69200137 .42185975 .69699099 .43988038L.7599945 .69506838Z"/>
</defs>
<path transform="matrix(1.00003,0,0,-1.00009,58.861799,58.29554)" stroke-width="1.19553" stroke-linecap="butt" stroke-miterlimit="10" stroke-linejoin="miter" fill="none" stroke="#000000" d="M56.69362 0C56.69362 31.31142 31.31142 56.69362 0 56.69362-31.31142 56.69362-56.69362 31.31142-56.69362 0-56.69362-31.31142-31.31142-56.69362 0-56.69362 31.31142-56.69362 56.69362-31.31142 56.69362 0ZM0 0"/>
<path transform="matrix(1.00003,0,0,-1.00009,58.861799,58.29554)" stroke-width=".3985" stroke-linecap="butt" stroke-miterlimit="10" stroke-linejoin="miter" fill="none" stroke="#000000" d="M4.25183 0C4.25183 2.34824 2.34824 4.25183 0 4.25183-2.34824 4.25183-4.25183 2.34824-4.25183 0-4.25183-2.34824-2.34824-4.25183 0-4.25183 2.34824-4.25183 4.25183-2.34824 4.25183 0ZM0 0"/>
<path transform="matrix(1.00003,0,0,-1.00009,58.861799,58.29554)" d="M2.83484 0C2.83484 1.56564 1.56564 2.83484 0 2.83484-1.56564 2.83484-2.83484 1.56564-2.83484 0-2.83484-1.56564-1.56564-2.83484 0-2.83484 1.56564-2.83484 2.83484-1.56564 2.83484 0ZM0 0"/>
<path transform="matrix(1.00003,0,0,-1.00009,58.861799,58.29554)" stroke-width=".3985" stroke-linecap="butt" stroke-miterlimit="10" stroke-linejoin="miter" fill="none" stroke="#000000" d="M2.83484 0C2.83484 1.56564 1.56564 2.83484 0 2.83484-1.56564 2.83484-2.83484 1.56564-2.83484 0-2.83484-1.56564-1.56564-2.83484 0-2.83484 1.56564-2.83484 2.83484-1.56564 2.83484 0ZM0 0"/>
<path transform="matrix(1.00003,0,0,-1.00009,58.861799,58.29554)" stroke-width=".3985" stroke-linecap="butt" stroke-miterlimit="10" stroke-linejoin="miter" fill="none" stroke="#000000" d="M0 0H56.69362M0 0-28.3468 49.09824M0 0-28.3468-49.09824"/>
<path transform="matrix(1.00003,0,0,-1.00009,58.861799,58.29554)" stroke-width="1.59404" stroke-linecap="butt" stroke-miterlimit="10" stroke-linejoin="miter" fill="none" stroke="#000000" d="M0 0-35.77971 20.65735"/>
<path transform="matrix(-.866036,-.500045,-.500015,.866088,23.08102,37.636354)" stroke-width="1.27522" stroke-linecap="round" stroke-linejoin="round" fill="none" stroke="#000000" d="M-2.27148 3.02866C-2.0822 1.8929 0 .18927 .56786 0 0-.18927-2.0822-1.8929-2.27148-3.02866"/>
<use data-text="2" xlink:href="#font_1_2" transform="matrix(14.346631,0,0,-14.347491,69.52412,38.367746)"/>
<use data-text="4" xlink:href="#font_1_4" transform="matrix(14.346631,0,0,-14.347491,27.001843,62.918958)"/>
<use data-text="9" xlink:href="#font_1_9" transform="matrix(14.346631,0,0,-14.347491,69.52412,87.47017)"/>
<use data-text="A" xlink:href="#font_2_1" transform="matrix(10.909428,0,0,-10.910082,54.770677,132.89626)"/>
<path transform="matrix(1.00003,0,0,-1.00009,58.861799,58.29554)" stroke-width="1.19553" stroke-linecap="butt" stroke-miterlimit="10" stroke-linejoin="miter" fill="none" stroke="#000000" d="M184.2543 0C184.2543 31.31142 158.87212 56.69362 127.56068 56.69362 96.24927 56.69362 70.86707 31.31142 70.86707 0 70.86707-31.31142 96.24927-56.69362 127.56068-56.69362 158.87212-56.69362 184.2543-31.31142 184.2543 0ZM127.56068 0"/>
<path transform="matrix(1.00003,0,0,-1.00009,58.861799,58.29554)" stroke-width=".3985" stroke-linecap="butt" stroke-miterlimit="10" stroke-linejoin="miter" fill="none" stroke="#000000" d="M131.81253 0C131.81253 2.34824 129.90894 4.25183 127.56068 4.25183 125.21243 4.25183 123.30885 2.34824 123.30885 0 123.30885-2.34824 125.21243-4.25183 127.56068-4.25183 129.90894-4.25183 131.81253-2.34824 131.81253 0ZM127.56068 0"/>
<path transform="matrix(1.00003,0,0,-1.00009,58.861799,58.29554)" d="M130.39554 0C130.39554 1.56564 129.12635 2.83484 127.56068 2.83484 125.99504 2.83484 124.72585 1.56564 124.72585 0 124.72585-1.56564 125.99504-2.83484 127.56068-2.83484 129.12635-2.83484 130.39554-1.56564 130.39554 0ZM127.56068 0"/>
<path transform="matrix(1.00003,0,0,-1.00009,58.861799,58.29554)" stroke-width=".3985" stroke-linecap="butt" stroke-miterlimit="10" stroke-linejoin="miter" fill="none" stroke="#000000" d="M130.39554 0C130.39554 1.56564 129.12635 2.83484 127.56068 2.83484 125.99504 2.83484 124.72585 1.56564 124.72585 0 124.72585-1.56564 125.99504-2.83484 127.56068-2.83484 129.12635-2.83484 130.39554-1.56564 130.39554 0ZM127.56068 0"/>
<path transform="matrix(1.00003,0,0,-1.00009,58.861799,58.29554)" stroke-width=".3985" stroke-linecap="butt" stroke-miterlimit="10" stroke-linejoin="miter" fill="none" stroke="#000000" d="M127.56068 0H184.2543M127.56068 0 99.21388 49.09824M127.56068 0 99.21388-49.09824"/>
<path transform="matrix(1.00003,0,0,-1.00009,58.861799,58.29554)" stroke-width="1.59404" stroke-linecap="butt" stroke-miterlimit="10" stroke-linejoin="miter" fill="none" stroke="#000000" d="M127.56068 0 163.3404 20.65735"/>
<path transform="matrix(.866036,-.500045,-.500015,-.866088,222.2071,37.636354)" stroke-width="1.27522" stroke-linecap="round" stroke-linejoin="round" fill="none" stroke="#000000" d="M-2.27148 3.02866C-2.0822 1.8929 0 .18927 .56786 0 0-.18927-2.0822-1.8929-2.27148-3.02866"/>
<use data-text="1" xlink:href="#font_1_1" transform="matrix(14.346631,0,0,-14.347491,197.08795,38.367746)"/>
<use data-text="6" xlink:href="#font_1_6" transform="matrix(14.346631,0,0,-14.347491,154.56668,62.918958)"/>
<use data-text="8" xlink:href="#font_1_8" transform="matrix(14.346631,0,0,-14.347491,197.08795,87.47017)"/>
<use data-text="B" xlink:href="#font_2_2" transform="matrix(10.909428,0,0,-10.910082,182.0155,132.89626)"/>
<path transform="matrix(1.00003,0,0,-1.00009,58.861799,58.29554)" stroke-width="1.19553" stroke-linecap="butt" stroke-miterlimit="10" stroke-linejoin="miter" fill="none" stroke="#000000" d="M311.815 0C311.815 31.31142 286.43284 56.69362 255.12139 56.69362 223.80997 56.69362 198.42777 31.31142 198.42777 0 198.42777-31.31142 223.80997-56.69362 255.12139-56.69362 286.43284-56.69362 311.815-31.31142 311.815 0ZM255.12139 0"/>
<path transform="matrix(1.00003,0,0,-1.00009,58.861799,58.29554)" stroke-width=".3985" stroke-linecap="butt" stroke-miterlimit="10" stroke-linejoin="miter" fill="none" stroke="#000000" d="M259.37324 0C259.37324 2.34824 257.46965 4.25183 255.12139 4.25183 252.77313 4.25183 250.86956 2.34824 250.86956 0 250.86956-2.34824 252.77313-4.25183 255.12139-4.25183 257.46965-4.25183 259.37324-2.34824 259.37324 0ZM255.12139 0"/>
<path transform="matrix(1.00003,0,0,-1.00009,58.861799,58.29554)" d="M257.95625 0C257.95625 1.56564 256.68705 2.83484 255.12139 2.83484 253.55574 2.83484 252.28655 1.56564 252.28655 0 252.28655-1.56564 253.55574-2.83484 255.12139-2.83484 256.68705-2.83484 257.95625-1.56564 257.95625 0ZM255.12139 0"/>
<path transform="matrix(1.00003,0,0,-1.00009,58.861799,58.29554)" stroke-width=".3985" stroke-linecap="butt" stroke-miterlimit="10" stroke-linejoin="miter" fill="none" stroke="#000000" d="M257.95625 0C257.95625 1.56564 256.68705 2.83484 255.12139 2.83484 253.55574 2.83484 252.28655 1.56564 252.28655 0 252.28655-1.56564 253.55574-2.83484 255.12139-2.83484 256.68705-2.83484 257.95625-1.56564 257.95625 0ZM255.12139 0"/>
<path transform="matrix(1.00003,0,0,-1.00009,58.861799,58.29554)" stroke-width=".3985" stroke-linecap="butt" stroke-miterlimit="10" stroke-linejoin="miter" fill="none" stroke="#000000" d="M255.12139 0H311.815M255.12139 0 226.77458 49.09824M255.12139 0 226.77458-49.09824"/>
<path transform="matrix(1.00003,0,0,-1.00009,58.861799,58.29554)" stroke-width="1.59404" stroke-linecap="butt" stroke-miterlimit="10" stroke-linejoin="miter" fill="none" stroke="#000000" d="M255.12139 0 290.9011-20.65735"/>
<path transform="matrix(.866036,.500045,.500015,-.866088,349.7716,78.95473)" stroke-width="1.27522" stroke-linecap="round" stroke-linejoin="round" fill="none" stroke="#000000" d="M-2.27148 3.02866C-2.0822 1.8929 0 .18927 .56786 0 0-.18927-2.0822-1.8929-2.27148-3.02866"/>
<use data-text="3" xlink:href="#font_1_3" transform="matrix(14.346631,0,0,-14.347491,324.65278,38.367746)"/>
<use data-text="5" xlink:href="#font_1_5" transform="matrix(14.346631,0,0,-14.347491,282.1315,62.918958)"/>
<use data-text="7" xlink:href="#font_1_7" transform="matrix(14.346631,0,0,-14.347491,324.65278,87.47017)"/>
<use data-text="C" xlink:href="#font_2_3" transform="matrix(10.909428,0,0,-10.910082,309.70234,132.89626)"/>
</svg>
