<svg xmlns="http://www.w3.org/2000/svg" xmlns:xlink="http://www.w3.org/1999/xlink" xmlns:inkscape="http://www.inkscape.org/namespaces/inkscape" version="1.1" width="118" height="119" viewBox="0 0 118 119">
<defs>
<path id="font_1_1" d="M.30099488 .119277957C.29599 .102264408 .29599 .1002655 .28199769 .08125305 .2599945 .053237916 .21598816 .010223389 .16899109 .010223389 .12799073 .010223389 .10499573 .04724121 .10499573 .10626221 .10499573 .1612854 .13598633 .2733307 .15499878 .3153534 .18899536 .38539125 .23599243 .42140199 .2749939 .42140199 .34098817 .42140199 .35398866 .33937074 .35398866 .33135987 .35398866 .33036805 .35099793 .3173523 .34999085 .3153534L.30099488 .119277957M.36499024 .37538148C.35398866 .4013977 .32699586 .44140626 .2749939 .44140626 .1619873 .44140626 .039993287 .29534913 .039993287 .14727783 .039993287 .04824829 .09799194-.009765625 .1659851-.009765625 .22099304-.009765625 .2679901 .033233644 .29599 .06625366 .30599977 .007232666 .35299684-.009765625 .3829956-.009765625 .41299439-.009765625 .43699647 .008224487 .45498658 .04423523 .47099305 .07824707 .4850006 .13926697 .4850006 .14326477 .4850006 .14826966 .48098756 .15226746 .47499085 .15226746 .46598817 .15226746 .46499635 .14726258 .46099855 .13226319 .44599916 .07324219 .4269867 .010223389 .38598634 .010223389 .35699464 .010223389 .35499574 .036239625 .35499574 .056243898 .35499574 .07923889 .35798646 .09025574 .36698915 .1292572 .37399293 .15426636 .3789978 .17626953 .3869934 .20527649 .42399598 .35533143 .43299867 .39134217 .43299867 .39733888 .43299867 .41133119 .42199708 .42233277 .40699769 .42233277 .375 .42233277 .36698915 .3873291 .36499024 .3753357V.37538148Z"/>
<path id="font_1_2" d="M.23098755 .6693268C.23199463 .6733246 .23399353 .6793213 .23399353 .6843262 .23399353 .69433596 .22399903 .69433596 .22200012 .69433596 .22099304 .69433596 .18499756 .69132998 .16699219 .68933108 .1499939 .688324 .1349945 .6863251 .116989139 .68533328 .09298706 .68333438 .085998538 .6823273 .085998538 .6643219 .085998538 .6543274 .09599304 .6543274 .10598755 .6543274 .15699768 .6543274 .15699768 .6453247 .15699768 .6353302 .15699768 .6283417 .14898682 .59935 .14498902 .58135989L.12098694 .48538209C.11099243 .44540406 .053985597 .2183075 .049987794 .20030213 .04499817 .17529297 .04499817 .15829468 .04499817 .14527893 .04499817 .04324341 .101989749-.009765625 .16699219-.009765625 .2829895-.009765625 .40299989 .13928223 .40299989 .28434754 .40299989 .3763733 .35099793 .44140626 .27598573 .44140626 .22399903 .44140626 .1769867 .39839173 .1579895 .37838746L.23098755 .6693268M.16799927 .010223389C.13598633 .010223389 .100997928 .034240724 .100997928 .11227417 .100997928 .14527893 .10398865 .16429138 .12199402 .23431397 .125 .24732971 .14099121 .3113556 .14498902 .32435609 .14698792 .33236695 .20599365 .42140199 .27398683 .42140199 .31799317 .42140199 .33799745 .37738038 .33799745 .32536317 .33799745 .27734376 .30999757 .16429138 .2849884 .11227417 .2599945 .058242799 .21398926 .010223389 .16799927 .010223389Z"/>
<path id="font_2_32" d="M.4249878 .4412384C.4249878 .45622254 .4149933 .46022035 .4059906 .46520997L.2639923 .5341644 .4039917 .60310366C.41600038 .60910037 .4249878 .61309817 .4249878 .6280823 .4249878 .6440735 .41299439 .6550751 .39898683 .6550751 .3959961 .6550751 .3909912 .6550751 .3789978 .6460724L.25498963 .55314639 .2689972 .71502688C.269989 .7280121 .2689972 .75 .24499512 .75 .22999573 .75 .21699524 .7380066 .21998596 .72502139V.71502688L.23399353 .55314639 .10998535 .64508059C.09799194 .654068 .09700012 .6550751 .08999634 .6550751 .07598877 .6550751 .06399536 .6440735 .06399536 .6280823 .06399536 .61309817 .07398987 .60910037 .08299255 .6041107L.22499085 .53515627 .084991458 .46621705C.07299805 .46022035 .06399536 .45622254 .06399536 .4412384 .06399536 .4252472 .07598877 .41426087 .08999634 .41426087 .09298706 .41426087 .09799194 .41426087 .10998535 .4232483L.23399353 .5161743 .21998596 .35031129V.3453064C.21699524 .3313141 .22999573 .31933595 .24499512 .31933595 .2689972 .31933595 .269989 .3413086 .2689972 .35429383L.25498963 .5161743 .3789978 .4242401C.3909912 .4152527 .3919983 .41426087 .39898683 .41426087 .41299439 .41426087 .4249878 .4252472 .4249878 .4412384Z"/>
<path id="font_1_3" d="M.3909912 .37597657C.37199403 .37597657 .36299134 .37597657 .34899903 .3639679 .34298707 .358963 .33198548 .34396363 .33198548 .3279724 .33198548 .30796815 .34700013 .29597474 .3659973 .29597474 .3899994 .29597474 .4169922 .31596376 .4169922 .3559723 .4169922 .40423585 .37098695 .44140626 .3019867 .44140626 .17098999 .44140626 .039993287 .29797364 .039993287 .15609741 .039993287 .06916809 .09399414-.009765625 .19599915-.009765625 .33198548-.009765625 .41799928 .09614563 .41799928 .10913086 .41799928 .11512756 .4119873 .12013245 .4079895 .12013245 .40499879 .12013245 .4039917 .119125369 .394989 .11013794 .33099366 .02520752 .23599243 .010223389 .19799805 .010223389 .1289978 .010223389 .10699463 .07017517 .10699463 .12013245 .10699463 .15509033 .12399292 .25201417 .1599884 .31996156 .18598938 .36697389 .23999024 .42140199 .30299378 .42140199 .31599427 .42140199 .37098695 .41937257 .3909912 .37597657Z"/>
<path id="font_1_4" d="M.5029907 .6693268C.5039978 .6733246 .5059967 .6793213 .5059967 .6843262 .5059967 .69433596 .49598695 .69433596 .49398805 .69433596 .49299623 .69433596 .44400025 .6903229 .43899537 .68933108 .42199708 .688324 .40699769 .6863251 .3889923 .68533328 .3639984 .68333438 .35699464 .6823273 .35699464 .6643219 .35699464 .6543274 .36499024 .6543274 .3789978 .6543274 .42799378 .6543274 .42900086 .6453247 .42900086 .6353302 .42900086 .6293335 .4269867 .6213379 .42599488 .61834719L.36499024 .37538148C.35398866 .4013977 .32699586 .44140626 .2749939 .44140626 .1619873 .44140626 .039993287 .29534913 .039993287 .14727783 .039993287 .04824829 .09799194-.009765625 .1659851-.009765625 .22099304-.009765625 .2679901 .033233644 .29599 .06625366 .30599977 .007232666 .35299684-.009765625 .3829956-.009765625 .41299439-.009765625 .43699647 .008224487 .45498658 .04423523 .47099305 .07826233 .4850006 .13928223 .4850006 .14328003 .4850006 .14828491 .48098756 .15228272 .47499085 .15228272 .46598817 .15228272 .46499635 .14727783 .46099855 .13227844 .44599916 .07325745 .4269867 .010223389 .38598634 .010223389 .35699464 .010223389 .35499574 .036239625 .35499574 .056243898 .35499574 .0602417 .35499574 .08125305 .3619995 .10926819L.5029907 .6693268M.30099488 .119277957C.29599 .102264408 .29599 .1002655 .28199769 .08125305 .2599945 .053237916 .21598816 .010223389 .16899109 .010223389 .12799073 .010223389 .10499573 .04724121 .10499573 .10626221 .10499573 .1612854 .13598633 .2733307 .15499878 .3153534 .18899536 .38539125 .23599243 .42140199 .2749939 .42140199 .34098817 .42140199 .35398866 .33937074 .35398866 .33135987 .35398866 .33036805 .35099793 .3173523 .34999085 .3153534L.30099488 .119277957Z"/>
</defs>
<path transform="matrix(1.00003,0,0,-1.00005,2.565107,116.38682)" stroke-width=".24907" stroke-linecap="butt" stroke-miterlimit="10" stroke-linejoin="miter" fill="none" stroke="#000000" d="M0 0H113.38724M0 28.3468H113.38724M0 56.69362H113.38724M0 85.04042H113.38724M0 113.37727H113.38724M0 0V113.38724M28.3468 0V113.38724M56.69362 0V113.38724M85.04042 0V113.38724M113.37727 0V113.38724M113.38724 113.38724"/>
<path transform="matrix(1.00003,0,0,-1.00005,2.565107,116.38682)" stroke-width="1.99255" stroke-linecap="square" stroke-miterlimit="10" stroke-linejoin="miter" fill="none" stroke="#000000" d="M0 0H113.38724M0 56.69362H113.38724M0 113.37727H113.38724M0 0V113.38724M56.69362 0V113.38724M113.37727 0V113.38724M113.38724 113.38724"/>
<use data-text="a" xlink:href="#font_1_1" transform="matrix(14.346631,0,0,-14.346916,13.051422,20.257019)"/>
<use data-text="b" xlink:href="#font_1_2" transform="matrix(14.346631,0,0,-14.346916,98.796,22.150109)"/>
<use data-text="*" xlink:href="#font_2_32" transform="matrix(14.346631,0,0,-14.346916,41.571279,50.896547)"/>
<use data-text="a" xlink:href="#font_1_1" transform="matrix(14.346631,0,0,-14.346916,69.74713,48.60443)"/>
<use data-text="a" xlink:href="#font_1_1" transform="matrix(14.346631,0,0,-14.346916,41.399274,76.95285)"/>
<use data-text="*" xlink:href="#font_2_32" transform="matrix(14.346631,0,0,-14.346916,69.91913,79.244968)"/>
<use data-text="c" xlink:href="#font_1_3" transform="matrix(14.346631,0,0,-14.346916,13.716442,105.30126)"/>
<use data-text="d" xlink:href="#font_1_4" transform="matrix(14.346631,0,0,-14.346916,98.13198,107.19436)"/>
</svg>
