<?xml version="1.0" encoding="UTF-8"?>
<svg xmlns="http://www.w3.org/2000/svg" xmlns:xlink="http://www.w3.org/1999/xlink" width="70pt" height="64pt" viewBox="0 0 70 64" version="1.1">
<g id="surface1">
<path style="fill:none;stroke-width:0.3985;stroke-linecap:butt;stroke-linejoin:miter;stroke:rgb(0%,0%,0%);stroke-opacity:1;stroke-miterlimit:10;" d="M -28.346188 -28.347585 C -39.399992 -18.773654 -39.399992 -9.574711 -28.346188 -0.000779297 C -39.399992 9.573152 -39.399992 18.772095 -28.346188 28.346027 C -17.292385 18.772095 -17.292385 9.573152 -28.346188 -0.000779297 C -17.292385 -9.574711 -17.292385 -18.773654 -28.346188 -28.347585 " transform="matrix(1.00008,0,0,-1.00003,38.5008,31.979689)"/>
<path style=" stroke:none;fill-rule:nonzero;fill:rgb(0%,0%,0%);fill-opacity:1;" d="M 12.144531 60.328125 C 12.144531 59.226563 11.253906 58.335938 10.152344 58.335938 C 9.050781 58.335938 8.160156 59.226563 8.160156 60.328125 C 8.160156 61.429688 9.050781 62.320313 10.152344 62.320313 C 11.253906 62.320313 12.144531 61.429688 12.144531 60.328125 Z M 12.144531 60.328125 "/>
<path style=" stroke:none;fill-rule:nonzero;fill:rgb(0%,0%,0%);fill-opacity:1;" d="M 12.144531 31.980469 C 12.144531 30.878906 11.253906 29.988281 10.152344 29.988281 C 9.050781 29.988281 8.160156 30.878906 8.160156 31.980469 C 8.160156 33.082031 9.050781 33.972656 10.152344 33.972656 C 11.253906 33.972656 12.144531 33.082031 12.144531 31.980469 Z M 12.144531 31.980469 "/>
<path style=" stroke:none;fill-rule:nonzero;fill:rgb(0%,0%,0%);fill-opacity:1;" d="M 12.144531 3.632813 C 12.144531 2.53125 11.253906 1.640625 10.152344 1.640625 C 9.050781 1.640625 8.160156 2.53125 8.160156 3.632813 C 8.160156 4.734375 9.050781 5.625 10.152344 5.625 C 11.253906 5.625 12.144531 4.734375 12.144531 3.632813 Z M 12.144531 3.632813 "/>
<path style="fill:none;stroke-width:0.3985;stroke-linecap:butt;stroke-linejoin:miter;stroke:rgb(0%,0%,0%);stroke-opacity:1;stroke-miterlimit:10;" d="M 28.348495 -0.000779297 L -28.346188 28.346027 M -28.346188 -0.000779297 L 28.348495 -0.000779297 L -28.346188 -28.347585 " transform="matrix(1.00008,0,0,-1.00003,38.5008,31.979689)"/>
<path style=" stroke:none;fill-rule:nonzero;fill:rgb(0%,0%,0%);fill-opacity:1;" d="M 68.84375 31.980469 C 68.84375 30.878906 67.949219 29.988281 66.851563 29.988281 C 65.75 29.988281 64.855469 30.878906 64.855469 31.980469 C 64.855469 33.082031 65.75 33.972656 66.851563 33.972656 C 67.949219 33.972656 68.84375 33.082031 68.84375 31.980469 Z M 68.84375 31.980469 "/>
<path style="fill:none;stroke-width:0.3985;stroke-linecap:butt;stroke-linejoin:miter;stroke:rgb(0%,0%,0%);stroke-opacity:1;stroke-dasharray:2.98883,2.98883;stroke-miterlimit:10;" d="M -28.346188 -28.347585 L -28.346188 -0.000779297 " transform="matrix(1.00008,0,0,-1.00003,38.5008,31.979689)"/>
<path style="fill:none;stroke-width:0.3985;stroke-linecap:butt;stroke-linejoin:miter;stroke:rgb(0%,0%,0%);stroke-opacity:1;stroke-dasharray:2.98883,2.98883;stroke-miterlimit:10;" d="M 28.348495 -0.000779297 C 12.650532 13.592563 3.045832 28.346027 -28.346188 28.346027 " transform="matrix(1.00008,0,0,-1.00003,38.5008,31.979689)"/>
</g>
</svg>
