<?xml version="1.0" encoding="UTF-8"?>
<svg xmlns="http://www.w3.org/2000/svg" xmlns:xlink="http://www.w3.org/1999/xlink" width="32pt" height="60pt" viewBox="0 0 32 60" version="1.1">
<g id="surface1">
<path style="fill:none;stroke-width:0.79701;stroke-linecap:butt;stroke-linejoin:miter;stroke:rgb(0%,0%,0%);stroke-opacity:1;stroke-miterlimit:10;" d="M 0.00187719 3.984094 L 0.00187719 52.70675 C 0.00187719 54.909875 1.78302 56.695031 3.986013 56.695031 L 24.359791 56.695031 C 26.562784 56.695031 28.347833 54.909875 28.347833 52.70675 L 28.347833 3.984094 C 28.347833 1.784875 26.562784 -0.00028125 24.359791 -0.00028125 L 3.986013 -0.00028125 C 1.78302 -0.00028125 0.00187719 1.784875 0.00187719 3.984094 Z M 0.00187719 3.984094 " transform="matrix(1.00006,0,0,-1,2.294998,58.238)"/>
<path style="fill:none;stroke-width:0.3985;stroke-linecap:butt;stroke-linejoin:miter;stroke:rgb(0%,0%,0%);stroke-opacity:1;stroke-miterlimit:10;" d="M 0.00187719 28.347375 L 28.347833 28.347375 " transform="matrix(1.00006,0,0,-1,2.294998,58.238)"/>
<path style=" stroke:none;fill-rule:nonzero;fill:rgb(0%,0%,0%);fill-opacity:1;" d="M 11.375 51.152344 C 11.375 50.050781 10.484375 49.160156 9.382813 49.160156 C 8.28125 49.160156 7.390625 50.050781 7.390625 51.152344 C 7.390625 52.25 8.28125 53.144531 9.382813 53.144531 C 10.484375 53.144531 11.375 52.25 11.375 51.152344 Z M 11.375 51.152344 "/>
<path style=" stroke:none;fill-rule:nonzero;fill:rgb(0%,0%,0%);fill-opacity:1;" d="M 11.375 36.976563 C 11.375 35.878906 10.484375 34.984375 9.382813 34.984375 C 8.28125 34.984375 7.390625 35.878906 7.390625 36.976563 C 7.390625 38.078125 8.28125 38.96875 9.382813 38.96875 C 10.484375 38.96875 11.375 38.078125 11.375 36.976563 Z M 11.375 36.976563 "/>
<path style=" stroke:none;fill-rule:nonzero;fill:rgb(0%,0%,0%);fill-opacity:1;" d="M 25.550781 51.152344 C 25.550781 50.050781 24.65625 49.160156 23.554688 49.160156 C 22.457031 49.160156 21.5625 50.050781 21.5625 51.152344 C 21.5625 52.25 22.457031 53.144531 23.554688 53.144531 C 24.65625 53.144531 25.550781 52.25 25.550781 51.152344 Z M 25.550781 51.152344 "/>
<path style=" stroke:none;fill-rule:nonzero;fill:rgb(0%,0%,0%);fill-opacity:1;" d="M 25.550781 36.976563 C 25.550781 35.878906 24.65625 34.984375 23.554688 34.984375 C 22.457031 34.984375 21.5625 35.878906 21.5625 36.976563 C 21.5625 38.078125 22.457031 38.96875 23.554688 38.96875 C 24.65625 38.96875 25.550781 38.078125 25.550781 36.976563 Z M 25.550781 36.976563 "/>
<path style=" stroke:none;fill-rule:nonzero;fill:rgb(0%,0%,0%);fill-opacity:1;" d="M 11.375 22.804688 C 11.375 21.703125 10.484375 20.8125 9.382813 20.8125 C 8.28125 20.8125 7.390625 21.703125 7.390625 22.804688 C 7.390625 23.90625 8.28125 24.796875 9.382813 24.796875 C 10.484375 24.796875 11.375 23.90625 11.375 22.804688 Z M 11.375 22.804688 "/>
<path style=" stroke:none;fill-rule:nonzero;fill:rgb(0%,0%,0%);fill-opacity:1;" d="M 25.550781 8.632813 C 25.550781 7.53125 24.65625 6.636719 23.554688 6.636719 C 22.457031 6.636719 21.5625 7.53125 21.5625 8.632813 C 21.5625 9.730469 22.457031 10.625 23.554688 10.625 C 24.65625 10.625 25.550781 9.730469 25.550781 8.632813 Z M 25.550781 8.632813 "/>
</g>
</svg>
