<?xml version="1.0" encoding="UTF-8"?>
<svg xmlns="http://www.w3.org/2000/svg" xmlns:xlink="http://www.w3.org/1999/xlink" width="80pt" height="80pt" viewBox="0 0 80 80" version="1.1">
<g id="surface1">
<path style="fill:none;stroke-width:0.3985;stroke-linecap:butt;stroke-linejoin:miter;stroke:rgb(75%,75%,75%);stroke-opacity:1;stroke-miterlimit:10;" d="M 0.001875 0.000864257 L 74.412031 0.000864257 M 0.001875 21.26152 L 74.412031 21.26152 M 0.001875 42.51827 L 74.412031 42.51827 M 0.001875 63.778925 L 74.412031 63.778925 M 0.001875 0.000864257 L 0.001875 74.411206 M 21.259687 0.000864257 L 21.259687 74.411206 M 42.521406 0.000864257 L 42.521406 74.411206 M 63.779219 0.000864257 L 63.779219 74.411206 " transform="matrix(1,0,0,-1.00005,4.295,76.411021)"/>
<path style="fill:none;stroke-width:0.79701;stroke-linecap:butt;stroke-linejoin:miter;stroke:rgb(0%,0%,0%);stroke-opacity:1;stroke-miterlimit:10;" d="M 0.001875 0.000864257 L 0.001875 73.70421 " transform="matrix(1,0,0,-1.00005,4.295,76.411021)"/>
<path style="fill:none;stroke-width:0.6376;stroke-linecap:round;stroke-linejoin:round;stroke:rgb(0%,0%,0%);stroke-opacity:1;stroke-miterlimit:10;" d="M -1.553399 2.072344 C -1.4245 1.295 0.00121034 0.130938 0.38791 -0.001875 C 0.00121034 -0.130781 -1.4245 -1.294844 -1.553399 -2.072187 " transform="matrix(0,-1.00005,-1,0,4.295,2.704335)"/>
<path style="fill:none;stroke-width:0.79701;stroke-linecap:butt;stroke-linejoin:miter;stroke:rgb(0%,0%,0%);stroke-opacity:1;stroke-miterlimit:10;" d="M 0.001875 0.000864257 L 73.701094 0.000864257 " transform="matrix(1,0,0,-1.00005,4.295,76.411021)"/>
<path style="fill:none;stroke-width:0.6376;stroke-linecap:round;stroke-linejoin:round;stroke:rgb(0%,0%,0%);stroke-opacity:1;stroke-miterlimit:10;" d="M -1.552688 2.071073 C -1.423781 1.293768 -0.00190625 0.129764 0.388719 0.000864257 C -0.00190625 -0.128036 -1.423781 -1.295946 -1.552688 -2.073251 " transform="matrix(1,0,0,-1.00005,77.998,76.411021)"/>
<path style=" stroke:none;fill-rule:nonzero;fill:rgb(0%,0%,0%);fill-opacity:1;" d="M 27.796875 33.890625 C 27.796875 32.652344 26.792969 31.648438 25.554688 31.648438 C 24.316406 31.648438 23.3125 32.652344 23.3125 33.890625 C 23.3125 35.125 24.316406 36.128906 25.554688 36.128906 C 26.792969 36.128906 27.796875 35.125 27.796875 33.890625 Z M 49.058594 55.148438 C 49.058594 53.910156 48.054688 52.90625 46.816406 52.90625 C 45.578125 52.90625 44.574219 53.910156 44.574219 55.148438 C 44.574219 56.386719 45.578125 57.390625 46.816406 57.390625 C 48.054688 57.390625 49.058594 56.386719 49.058594 55.148438 Z M 70.316406 12.628906 C 70.316406 11.390625 69.3125 10.386719 68.074219 10.386719 C 66.835938 10.386719 65.832031 11.390625 65.832031 12.628906 C 65.832031 13.867188 66.835938 14.871094 68.074219 14.871094 C 69.3125 14.871094 70.316406 13.867188 70.316406 12.628906 Z M 70.316406 12.628906 "/>
</g>
</svg>
