<?xml version="1.0" encoding="UTF-8"?>
<svg xmlns="http://www.w3.org/2000/svg" xmlns:xlink="http://www.w3.org/1999/xlink" width="75pt" height="52pt" viewBox="0 0 75 52" version="1.1">
<g id="surface1">
<path style="fill:none;stroke-width:0.3985;stroke-linecap:butt;stroke-linejoin:miter;stroke:rgb(0%,0%,0%);stroke-opacity:1;stroke-miterlimit:10;" d="M -0.000337523 -0.000187891 L -34.017147 11.339089 L -0.000337523 34.017642 L 34.016472 11.339089 L -0.000337523 -0.000187891 L -22.678211 45.356919 L -0.000337523 34.017642 L 22.677536 45.356919 L -0.000337523 -0.000187891 L -0.000337523 34.017642 " transform="matrix(1.00008,0,0,-1.00005,37.238619,48.992)"/>
<path style=" stroke:none;fill-rule:nonzero;fill:rgb(0%,0%,0%);fill-opacity:1;" d="M 39.230469 48.992188 C 39.230469 47.890625 38.339844 47 37.238281 47 C 36.136719 47 35.246094 47.890625 35.246094 48.992188 C 35.246094 50.09375 36.136719 50.984375 37.238281 50.984375 C 38.339844 50.984375 39.230469 50.09375 39.230469 48.992188 Z M 39.230469 48.992188 "/>
<path style=" stroke:none;fill-rule:nonzero;fill:rgb(0%,0%,0%);fill-opacity:1;" d="M 5.210938 37.652344 C 5.210938 36.550781 4.320313 35.660156 3.21875 35.660156 C 2.117188 35.660156 1.226563 36.550781 1.226563 37.652344 C 1.226563 38.753906 2.117188 39.644531 3.21875 39.644531 C 4.320313 39.644531 5.210938 38.753906 5.210938 37.652344 Z M 5.210938 37.652344 "/>
<path style=" stroke:none;fill-rule:nonzero;fill:rgb(0%,0%,0%);fill-opacity:1;" d="M 39.230469 14.972656 C 39.230469 13.875 38.339844 12.980469 37.238281 12.980469 C 36.136719 12.980469 35.246094 13.875 35.246094 14.972656 C 35.246094 16.074219 36.136719 16.964844 37.238281 16.964844 C 38.339844 16.964844 39.230469 16.074219 39.230469 14.972656 Z M 39.230469 14.972656 "/>
<path style=" stroke:none;fill-rule:nonzero;fill:rgb(0%,0%,0%);fill-opacity:1;" d="M 73.25 37.652344 C 73.25 36.550781 72.359375 35.660156 71.257813 35.660156 C 70.15625 35.660156 69.265625 36.550781 69.265625 37.652344 C 69.265625 38.753906 70.15625 39.644531 71.257813 39.644531 C 72.359375 39.644531 73.25 38.753906 73.25 37.652344 Z M 73.25 37.652344 "/>
<path style=" stroke:none;fill-rule:nonzero;fill:rgb(0%,0%,0%);fill-opacity:1;" d="M 16.550781 3.632813 C 16.550781 2.535156 15.660156 1.640625 14.558594 1.640625 C 13.457031 1.640625 12.566406 2.535156 12.566406 3.632813 C 12.566406 4.734375 13.457031 5.628906 14.558594 5.628906 C 15.660156 5.628906 16.550781 4.734375 16.550781 3.632813 Z M 16.550781 3.632813 "/>
<path style=" stroke:none;fill-rule:nonzero;fill:rgb(0%,0%,0%);fill-opacity:1;" d="M 61.910156 3.632813 C 61.910156 2.535156 61.019531 1.640625 59.917969 1.640625 C 58.816406 1.640625 57.925781 2.535156 57.925781 3.632813 C 57.925781 4.734375 58.816406 5.628906 59.917969 5.628906 C 61.019531 5.628906 61.910156 4.734375 61.910156 3.632813 Z M 61.910156 3.632813 "/>
</g>
</svg>
