<?xml version="1.0" encoding="UTF-8"?>
<svg xmlns="http://www.w3.org/2000/svg" xmlns:xlink="http://www.w3.org/1999/xlink" width="63pt" height="35pt" viewBox="0 0 63 35" version="1.1">
<g id="surface1">
<path style="fill:none;stroke-width:0.3985;stroke-linecap:butt;stroke-linejoin:miter;stroke:rgb(0%,0%,0%);stroke-opacity:1;stroke-miterlimit:10;" d="M 0.000532378 0.0013697 L -28.345423 28.346758 M 0.000532378 0.0013697 L 0.000532378 28.346758 M 0.000532378 0.0013697 L 28.346488 28.346758 " transform="matrix(1.00006,0,0,-1.00008,31.565874,31.981839)"/>
<path style=" stroke:none;fill-rule:nonzero;fill:rgb(0%,0%,0%);fill-opacity:1;" d="M 33.558594 31.980469 C 33.558594 30.882813 32.667969 29.988281 31.566406 29.988281 C 30.464844 29.988281 29.574219 30.882813 29.574219 31.980469 C 29.574219 33.082031 30.464844 33.972656 31.566406 33.972656 C 32.667969 33.972656 33.558594 33.082031 33.558594 31.980469 Z M 33.558594 31.980469 "/>
<path style=" stroke:none;fill-rule:nonzero;fill:rgb(0%,0%,0%);fill-opacity:1;" d="M 5.210938 3.632813 C 5.210938 2.53125 4.316406 1.640625 3.21875 1.640625 C 2.117188 1.640625 1.226563 2.53125 1.226563 3.632813 C 1.226563 4.734375 2.117188 5.625 3.21875 5.625 C 4.316406 5.625 5.210938 4.734375 5.210938 3.632813 Z M 5.210938 3.632813 "/>
<path style=" stroke:none;fill-rule:nonzero;fill:rgb(0%,0%,0%);fill-opacity:1;" d="M 33.558594 3.632813 C 33.558594 2.53125 32.667969 1.640625 31.566406 1.640625 C 30.464844 1.640625 29.574219 2.53125 29.574219 3.632813 C 29.574219 4.734375 30.464844 5.625 31.566406 5.625 C 32.667969 5.625 33.558594 4.734375 33.558594 3.632813 Z M 33.558594 3.632813 "/>
<path style=" stroke:none;fill-rule:nonzero;fill:rgb(0%,0%,0%);fill-opacity:1;" d="M 61.90625 3.632813 C 61.90625 2.53125 61.015625 1.640625 59.914063 1.640625 C 58.8125 1.640625 57.921875 2.53125 57.921875 3.632813 C 57.921875 4.734375 58.8125 5.625 59.914063 5.625 C 61.015625 5.625 61.90625 4.734375 61.90625 3.632813 Z M 61.90625 3.632813 "/>
</g>
</svg>
