<?xml version="1.0" encoding="UTF-8"?>
<svg xmlns="http://www.w3.org/2000/svg" xmlns:xlink="http://www.w3.org/1999/xlink" width="64pt" height="58pt" viewBox="0 0 64 58" version="1.1">
<g id="surface1">
<path style="fill:none;stroke-width:0.3985;stroke-linecap:butt;stroke-linejoin:miter;stroke:rgb(0%,0%,0%);stroke-opacity:1;stroke-miterlimit:10;" d="M -25.513823 -25.512873 C -35.462743 -16.896117 -35.462743 -8.615281 -25.513823 0.00147603 C -35.462743 8.614327 -35.462743 16.895163 -25.513823 25.511919 C -15.564902 16.895163 -15.564902 8.614327 -25.513823 0.00147603 C -15.564902 -8.615281 -15.564902 -16.896117 -25.513823 -25.512873 " transform="matrix(1.00003,0,0,-1.00005,34.557557,29.146007)"/>
<path style=" stroke:none;fill-rule:nonzero;fill:rgb(0%,0%,0%);fill-opacity:1;" d="M 11.039063 54.660156 C 11.039063 53.558594 10.144531 52.667969 9.042969 52.667969 C 7.945313 52.667969 7.050781 53.558594 7.050781 54.660156 C 7.050781 55.757813 7.945313 56.652344 9.042969 56.652344 C 10.144531 56.652344 11.039063 55.757813 11.039063 54.660156 Z M 11.039063 54.660156 "/>
<path style=" stroke:none;fill-rule:nonzero;fill:rgb(0%,0%,0%);fill-opacity:1;" d="M 11.039063 29.144531 C 11.039063 28.046875 10.144531 27.152344 9.042969 27.152344 C 7.945313 27.152344 7.050781 28.046875 7.050781 29.144531 C 7.050781 30.246094 7.945313 31.136719 9.042969 31.136719 C 10.144531 31.136719 11.039063 30.246094 11.039063 29.144531 Z M 11.039063 29.144531 "/>
<path style=" stroke:none;fill-rule:nonzero;fill:rgb(0%,0%,0%);fill-opacity:1;" d="M 11.039063 3.632813 C 11.039063 2.53125 10.144531 1.640625 9.042969 1.640625 C 7.945313 1.640625 7.050781 2.53125 7.050781 3.632813 C 7.050781 4.734375 7.945313 5.625 9.042969 5.625 C 10.144531 5.625 11.039063 4.734375 11.039063 3.632813 Z M 11.039063 3.632813 "/>
<path style="fill:none;stroke-width:0.3985;stroke-linecap:butt;stroke-linejoin:miter;stroke:rgb(0%,0%,0%);stroke-opacity:1;stroke-miterlimit:10;" d="M 25.51199 0.00147603 L -25.513823 25.511919 M -25.513823 0.00147603 L 25.51199 0.00147603 L -25.513823 -25.512873 " transform="matrix(1.00003,0,0,-1.00005,34.557557,29.146007)"/>
<path style=" stroke:none;fill-rule:nonzero;fill:rgb(0%,0%,0%);fill-opacity:1;" d="M 62.0625 29.144531 C 62.0625 28.046875 61.171875 27.152344 60.070313 27.152344 C 58.96875 27.152344 58.078125 28.046875 58.078125 29.144531 C 58.078125 30.246094 58.96875 31.136719 60.070313 31.136719 C 61.171875 31.136719 62.0625 30.246094 62.0625 29.144531 Z M 62.0625 29.144531 "/>
</g>
</svg>
