<?xml version="1.0" encoding="UTF-8"?>
<svg xmlns="http://www.w3.org/2000/svg" xmlns:xlink="http://www.w3.org/1999/xlink" width="86pt" height="86pt" viewBox="0 0 86 86" version="1.1">
<g id="surface1">
<path style="fill:none;stroke-width:0.3985;stroke-linecap:butt;stroke-linejoin:miter;stroke:rgb(0%,0%,0%);stroke-opacity:1;stroke-miterlimit:10;" d="M 39.685532 0.00143339 L 28.060764 28.061689 " transform="matrix(1.00002,0,0,-1.00008,42.903518,43.321746)"/>
<path style=" stroke:none;fill-rule:nonzero;fill:rgb(0%,0%,0%);fill-opacity:1;" d="M 84.582031 43.320313 C 84.582031 42.222656 83.691406 41.328125 82.589844 41.328125 C 81.488281 41.328125 80.597656 42.222656 80.597656 43.320313 C 80.597656 44.421875 81.488281 45.316406 82.589844 45.316406 C 83.691406 45.316406 84.582031 44.421875 84.582031 43.320313 Z M 84.582031 43.320313 "/>
<path style="fill:none;stroke-width:0.3985;stroke-linecap:butt;stroke-linejoin:miter;stroke:rgb(0%,0%,0%);stroke-opacity:1;stroke-miterlimit:10;" d="M 28.060764 28.061689 L -0.00117429 39.685759 " transform="matrix(1.00002,0,0,-1.00008,42.903518,43.321746)"/>
<path style=" stroke:none;fill-rule:nonzero;fill:rgb(0%,0%,0%);fill-opacity:1;" d="M 72.957031 15.257813 C 72.957031 14.15625 72.066406 13.265625 70.964844 13.265625 C 69.867188 13.265625 68.972656 14.15625 68.972656 15.257813 C 68.972656 16.359375 69.867188 17.25 70.964844 17.25 C 72.066406 17.25 72.957031 16.359375 72.957031 15.257813 Z M 72.957031 15.257813 "/>
<path style="fill:none;stroke-width:0.3985;stroke-linecap:butt;stroke-linejoin:miter;stroke:rgb(0%,0%,0%);stroke-opacity:1;stroke-miterlimit:10;" d="M -0.00117429 39.685759 L -28.063113 28.061689 " transform="matrix(1.00002,0,0,-1.00008,42.903518,43.321746)"/>
<path style=" stroke:none;fill-rule:nonzero;fill:rgb(0%,0%,0%);fill-opacity:1;" d="M 44.894531 3.632813 C 44.894531 2.53125 44.003906 1.640625 42.902344 1.640625 C 41.804688 1.640625 40.910156 2.53125 40.910156 3.632813 C 40.910156 4.734375 41.804688 5.625 42.902344 5.625 C 44.003906 5.625 44.894531 4.734375 44.894531 3.632813 Z M 44.894531 3.632813 "/>
<path style="fill:none;stroke-width:0.3985;stroke-linecap:butt;stroke-linejoin:miter;stroke:rgb(0%,0%,0%);stroke-opacity:1;stroke-miterlimit:10;" d="M -28.063113 28.061689 L -39.683974 0.00143339 " transform="matrix(1.00002,0,0,-1.00008,42.903518,43.321746)"/>
<path style=" stroke:none;fill-rule:nonzero;fill:rgb(0%,0%,0%);fill-opacity:1;" d="M 16.832031 15.257813 C 16.832031 14.15625 15.941406 13.265625 14.839844 13.265625 C 13.742188 13.265625 12.847656 14.15625 12.847656 15.257813 C 12.847656 16.359375 13.742188 17.25 14.839844 17.25 C 15.941406 17.25 16.832031 16.359375 16.832031 15.257813 Z M 16.832031 15.257813 "/>
<path style="fill:none;stroke-width:0.3985;stroke-linecap:butt;stroke-linejoin:miter;stroke:rgb(0%,0%,0%);stroke-opacity:1;stroke-miterlimit:10;" d="M -39.683974 0.00143339 L -28.063113 -28.062728 " transform="matrix(1.00002,0,0,-1.00008,42.903518,43.321746)"/>
<path style=" stroke:none;fill-rule:nonzero;fill:rgb(0%,0%,0%);fill-opacity:1;" d="M 5.210938 43.320313 C 5.210938 42.222656 4.316406 41.328125 3.21875 41.328125 C 2.117188 41.328125 1.226563 42.222656 1.226563 43.320313 C 1.226563 44.421875 2.117188 45.316406 3.21875 45.316406 C 4.316406 45.316406 5.210938 44.421875 5.210938 43.320313 Z M 5.210938 43.320313 "/>
<path style="fill:none;stroke-width:0.3985;stroke-linecap:butt;stroke-linejoin:miter;stroke:rgb(0%,0%,0%);stroke-opacity:1;stroke-miterlimit:10;" d="M -28.063113 -28.062728 L -0.00117429 -39.686798 " transform="matrix(1.00002,0,0,-1.00008,42.903518,43.321746)"/>
<path style=" stroke:none;fill-rule:nonzero;fill:rgb(0%,0%,0%);fill-opacity:1;" d="M 16.832031 71.386719 C 16.832031 70.285156 15.941406 69.394531 14.839844 69.394531 C 13.742188 69.394531 12.847656 70.285156 12.847656 71.386719 C 12.847656 72.488281 13.742188 73.378906 14.839844 73.378906 C 15.941406 73.378906 16.832031 72.488281 16.832031 71.386719 Z M 16.832031 71.386719 "/>
<path style="fill:none;stroke-width:0.3985;stroke-linecap:butt;stroke-linejoin:miter;stroke:rgb(0%,0%,0%);stroke-opacity:1;stroke-miterlimit:10;" d="M -0.00117429 -39.686798 L 28.060764 -28.062728 " transform="matrix(1.00002,0,0,-1.00008,42.903518,43.321746)"/>
<path style=" stroke:none;fill-rule:nonzero;fill:rgb(0%,0%,0%);fill-opacity:1;" d="M 44.894531 83.011719 C 44.894531 81.910156 44.003906 81.015625 42.902344 81.015625 C 41.804688 81.015625 40.910156 81.910156 40.910156 83.011719 C 40.910156 84.109375 41.804688 85.003906 42.902344 85.003906 C 44.003906 85.003906 44.894531 84.109375 44.894531 83.011719 Z M 44.894531 83.011719 "/>
<path style="fill:none;stroke-width:0.3985;stroke-linecap:butt;stroke-linejoin:miter;stroke:rgb(0%,0%,0%);stroke-opacity:1;stroke-miterlimit:10;" d="M 28.060764 -28.062728 L 39.685532 0.00143339 " transform="matrix(1.00002,0,0,-1.00008,42.903518,43.321746)"/>
<path style=" stroke:none;fill-rule:nonzero;fill:rgb(0%,0%,0%);fill-opacity:1;" d="M 72.957031 71.386719 C 72.957031 70.285156 72.066406 69.394531 70.964844 69.394531 C 69.867188 69.394531 68.972656 70.285156 68.972656 71.386719 C 68.972656 72.488281 69.867188 73.378906 70.964844 73.378906 C 72.066406 73.378906 72.957031 72.488281 72.957031 71.386719 Z M 72.957031 71.386719 "/>
<path style="fill:none;stroke-width:0.3985;stroke-linecap:butt;stroke-linejoin:miter;stroke:rgb(0%,0%,0%);stroke-opacity:1;stroke-miterlimit:10;" d="M -0.00117429 0.00143339 L 28.060764 28.061689 M -0.00117429 0.00143339 L -28.063113 28.061689 M -0.00117429 0.00143339 L -28.063113 -28.062728 M -0.00117429 0.00143339 L 28.060764 -28.062728 " transform="matrix(1.00002,0,0,-1.00008,42.903518,43.321746)"/>
<path style=" stroke:none;fill-rule:nonzero;fill:rgb(0%,0%,0%);fill-opacity:1;" d="M 44.894531 43.320313 C 44.894531 42.222656 44.003906 41.328125 42.902344 41.328125 C 41.804688 41.328125 40.910156 42.222656 40.910156 43.320313 C 40.910156 44.421875 41.804688 45.316406 42.902344 45.316406 C 44.003906 45.316406 44.894531 44.421875 44.894531 43.320313 Z M 44.894531 43.320313 "/>
<path style="fill:none;stroke-width:0.3985;stroke-linecap:butt;stroke-linejoin:miter;stroke:rgb(0%,0%,0%);stroke-opacity:1;stroke-miterlimit:10;" d="M -19.844527 0.00143339 L -0.00117429 39.685759 M -19.844527 0.00143339 L -39.683974 0.00143339 M -19.844527 0.00143339 L -0.00117429 -39.686798 " transform="matrix(1.00002,0,0,-1.00008,42.903518,43.321746)"/>
<path style=" stroke:none;fill-rule:nonzero;fill:rgb(0%,0%,0%);fill-opacity:1;" d="M 25.054688 43.320313 C 25.054688 42.222656 24.160156 41.328125 23.058594 41.328125 C 21.960938 41.328125 21.066406 42.222656 21.066406 43.320313 C 21.066406 44.421875 21.960938 45.316406 23.058594 45.316406 C 24.160156 45.316406 25.054688 44.421875 25.054688 43.320313 Z M 25.054688 43.320313 "/>
<path style="fill:none;stroke-width:0.3985;stroke-linecap:butt;stroke-linejoin:miter;stroke:rgb(0%,0%,0%);stroke-opacity:1;stroke-miterlimit:10;" d="M 19.842179 0.00143339 L -0.00117429 39.685759 M 19.842179 0.00143339 L 39.685532 0.00143339 M 19.842179 0.00143339 L -0.00117429 -39.686798 " transform="matrix(1.00002,0,0,-1.00008,42.903518,43.321746)"/>
<path style=" stroke:none;fill-rule:nonzero;fill:rgb(0%,0%,0%);fill-opacity:1;" d="M 64.738281 43.320313 C 64.738281 42.222656 63.847656 41.328125 62.746094 41.328125 C 61.644531 41.328125 60.753906 42.222656 60.753906 43.320313 C 60.753906 44.421875 61.644531 45.316406 62.746094 45.316406 C 63.847656 45.316406 64.738281 44.421875 64.738281 43.320313 Z M 64.738281 43.320313 "/>
</g>
</svg>
