<?xml version="1.0" encoding="UTF-8"?>
<svg xmlns="http://www.w3.org/2000/svg" xmlns:xlink="http://www.w3.org/1999/xlink" width="59pt" height="60pt" viewBox="0 0 59 60" version="1.1">
<g id="surface1">
<path style=" stroke:none;fill-rule:nonzero;fill:rgb(0%,0%,0%);fill-opacity:1;" d="M 31.757813 30.148438 C 31.757813 29.046875 30.867188 28.15625 29.765625 28.15625 C 28.667969 28.15625 27.773438 29.046875 27.773438 30.148438 C 27.773438 31.25 28.667969 32.140625 29.765625 32.140625 C 30.867188 32.140625 31.757813 31.25 31.757813 30.148438 Z M 31.757813 30.148438 "/>
<path style="fill:none;stroke-width:0.3985;stroke-linecap:butt;stroke-linejoin:miter;stroke:rgb(0%,0%,0%);stroke-opacity:1;stroke-miterlimit:10;" d="M -0.00134082 0.000226993 L 26.188494 10.847558 " transform="matrix(1.00006,0,0,-1.00003,29.766966,30.148665)"/>
<path style=" stroke:none;fill-rule:nonzero;fill:rgb(0%,0%,0%);fill-opacity:1;" d="M 57.949219 19.300781 C 57.949219 18.199219 57.058594 17.308594 55.957031 17.308594 C 54.855469 17.308594 53.964844 18.199219 53.964844 19.300781 C 53.964844 20.402344 54.855469 21.292969 55.957031 21.292969 C 57.058594 21.292969 57.949219 20.402344 57.949219 19.300781 Z M 57.949219 19.300781 "/>
<path style="fill:none;stroke-width:0.3985;stroke-linecap:butt;stroke-linejoin:miter;stroke:rgb(0%,0%,0%);stroke-opacity:1;stroke-miterlimit:10;" d="M -0.00134082 0.000226993 L 10.845665 26.186941 " transform="matrix(1.00006,0,0,-1.00003,29.766966,30.148665)"/>
<path style=" stroke:none;fill-rule:nonzero;fill:rgb(0%,0%,0%);fill-opacity:1;" d="M 42.609375 3.960938 C 42.609375 2.859375 41.714844 1.96875 40.613281 1.96875 C 39.515625 1.96875 38.621094 2.859375 38.621094 3.960938 C 38.621094 5.058594 39.515625 5.953125 40.613281 5.953125 C 41.714844 5.953125 42.609375 5.058594 42.609375 3.960938 Z M 42.609375 3.960938 "/>
<path style="fill:none;stroke-width:0.3985;stroke-linecap:butt;stroke-linejoin:miter;stroke:rgb(0%,0%,0%);stroke-opacity:1;stroke-miterlimit:10;" d="M -0.00134082 0.000226993 L -10.848346 26.186941 " transform="matrix(1.00006,0,0,-1.00003,29.766966,30.148665)"/>
<path style=" stroke:none;fill-rule:nonzero;fill:rgb(0%,0%,0%);fill-opacity:1;" d="M 20.910156 3.960938 C 20.910156 2.859375 20.019531 1.96875 18.917969 1.96875 C 17.820313 1.96875 16.925781 2.859375 16.925781 3.960938 C 16.925781 5.058594 17.820313 5.953125 18.917969 5.953125 C 20.019531 5.953125 20.910156 5.058594 20.910156 3.960938 Z M 20.910156 3.960938 "/>
<path style="fill:none;stroke-width:0.3985;stroke-linecap:butt;stroke-linejoin:miter;stroke:rgb(0%,0%,0%);stroke-opacity:1;stroke-miterlimit:10;" d="M -0.00134082 0.000226993 L -26.18727 10.847558 " transform="matrix(1.00006,0,0,-1.00003,29.766966,30.148665)"/>
<path style=" stroke:none;fill-rule:nonzero;fill:rgb(0%,0%,0%);fill-opacity:1;" d="M 5.570313 19.300781 C 5.570313 18.199219 4.679688 17.308594 3.578125 17.308594 C 2.476563 17.308594 1.585938 18.199219 1.585938 19.300781 C 1.585938 20.402344 2.476563 21.292969 3.578125 21.292969 C 4.679688 21.292969 5.570313 20.402344 5.570313 19.300781 Z M 5.570313 19.300781 "/>
<path style="fill:none;stroke-width:0.3985;stroke-linecap:butt;stroke-linejoin:miter;stroke:rgb(0%,0%,0%);stroke-opacity:1;stroke-miterlimit:10;" d="M -0.00134082 0.000226993 L -26.18727 -10.847104 " transform="matrix(1.00006,0,0,-1.00003,29.766966,30.148665)"/>
<path style=" stroke:none;fill-rule:nonzero;fill:rgb(0%,0%,0%);fill-opacity:1;" d="M 5.570313 40.996094 C 5.570313 39.894531 4.679688 39.003906 3.578125 39.003906 C 2.476563 39.003906 1.585938 39.894531 1.585938 40.996094 C 1.585938 42.097656 2.476563 42.988281 3.578125 42.988281 C 4.679688 42.988281 5.570313 42.097656 5.570313 40.996094 Z M 5.570313 40.996094 "/>
<path style="fill:none;stroke-width:0.3985;stroke-linecap:butt;stroke-linejoin:miter;stroke:rgb(0%,0%,0%);stroke-opacity:1;stroke-miterlimit:10;" d="M -0.00134082 0.000226993 L -10.848346 -26.186487 " transform="matrix(1.00006,0,0,-1.00003,29.766966,30.148665)"/>
<path style=" stroke:none;fill-rule:nonzero;fill:rgb(0%,0%,0%);fill-opacity:1;" d="M 20.910156 56.335938 C 20.910156 55.238281 20.019531 54.34375 18.917969 54.34375 C 17.820313 54.34375 16.925781 55.238281 16.925781 56.335938 C 16.925781 57.4375 17.820313 58.328125 18.917969 58.328125 C 20.019531 58.328125 20.910156 57.4375 20.910156 56.335938 Z M 20.910156 56.335938 "/>
<path style="fill:none;stroke-width:0.3985;stroke-linecap:butt;stroke-linejoin:miter;stroke:rgb(0%,0%,0%);stroke-opacity:1;stroke-miterlimit:10;" d="M -0.00134082 0.000226993 L 10.845665 -26.186487 " transform="matrix(1.00006,0,0,-1.00003,29.766966,30.148665)"/>
<path style=" stroke:none;fill-rule:nonzero;fill:rgb(0%,0%,0%);fill-opacity:1;" d="M 42.609375 56.335938 C 42.609375 55.238281 41.714844 54.34375 40.613281 54.34375 C 39.515625 54.34375 38.621094 55.238281 38.621094 56.335938 C 38.621094 57.4375 39.515625 58.328125 40.613281 58.328125 C 41.714844 58.328125 42.609375 57.4375 42.609375 56.335938 Z M 42.609375 56.335938 "/>
<path style="fill:none;stroke-width:0.3985;stroke-linecap:butt;stroke-linejoin:miter;stroke:rgb(0%,0%,0%);stroke-opacity:1;stroke-miterlimit:10;" d="M -0.00134082 0.000226993 L 26.188494 -10.847104 " transform="matrix(1.00006,0,0,-1.00003,29.766966,30.148665)"/>
<path style=" stroke:none;fill-rule:nonzero;fill:rgb(0%,0%,0%);fill-opacity:1;" d="M 57.949219 40.996094 C 57.949219 39.894531 57.058594 39.003906 55.957031 39.003906 C 54.855469 39.003906 53.964844 39.894531 53.964844 40.996094 C 53.964844 42.097656 54.855469 42.988281 55.957031 42.988281 C 57.058594 42.988281 57.949219 42.097656 57.949219 40.996094 Z M 57.949219 40.996094 "/>
</g>
</svg>
