<?xml version="1.0" encoding="UTF-8"?>
<svg xmlns="http://www.w3.org/2000/svg" xmlns:xlink="http://www.w3.org/1999/xlink" width="75pt" height="53pt" viewBox="0 0 75 53" version="1.1">
<g id="surface1">
<path style="fill:none;stroke-width:0.3985;stroke-linecap:butt;stroke-linejoin:miter;stroke:rgb(0%,0%,0%);stroke-opacity:1;stroke-miterlimit:10;" d="M 0.000126494 0.00059375 L -34.017704 11.340437 L 0.000126494 34.016219 L 34.017957 11.340437 L 0.000126494 0.00059375 L -22.678427 45.356062 L 0.000126494 34.016219 L 22.67868 45.356062 L 0.000126494 0.00059375 L 0.000126494 34.016219 " transform="matrix(1.00005,0,0,-1,37.59753,49.317)"/>
<path style=" stroke:none;fill-rule:nonzero;fill:rgb(0%,0%,0%);fill-opacity:1;" d="M 39.589844 49.316406 C 39.589844 48.214844 38.699219 47.324219 37.597656 47.324219 C 36.496094 47.324219 35.605469 48.214844 35.605469 49.316406 C 35.605469 50.417969 36.496094 51.308594 37.597656 51.308594 C 38.699219 51.308594 39.589844 50.417969 39.589844 49.316406 Z M 39.589844 49.316406 "/>
<path style=" stroke:none;fill-rule:nonzero;fill:rgb(0%,0%,0%);fill-opacity:1;" d="M 5.570313 37.976563 C 5.570313 36.878906 4.679688 35.984375 3.578125 35.984375 C 2.480469 35.984375 1.585938 36.878906 1.585938 37.976563 C 1.585938 39.078125 2.480469 39.972656 3.578125 39.972656 C 4.679688 39.972656 5.570313 39.078125 5.570313 37.976563 Z M 5.570313 37.976563 "/>
<path style=" stroke:none;fill-rule:nonzero;fill:rgb(0%,0%,0%);fill-opacity:1;" d="M 39.589844 15.300781 C 39.589844 14.199219 38.699219 13.308594 37.597656 13.308594 C 36.496094 13.308594 35.605469 14.199219 35.605469 15.300781 C 35.605469 16.402344 36.496094 17.292969 37.597656 17.292969 C 38.699219 17.292969 39.589844 16.402344 39.589844 15.300781 Z M 39.589844 15.300781 "/>
<path style=" stroke:none;fill-rule:nonzero;fill:rgb(0%,0%,0%);fill-opacity:1;" d="M 73.609375 37.976563 C 73.609375 36.878906 72.714844 35.984375 71.617188 35.984375 C 70.515625 35.984375 69.621094 36.878906 69.621094 37.976563 C 69.621094 39.078125 70.515625 39.972656 71.617188 39.972656 C 72.714844 39.972656 73.609375 39.078125 73.609375 37.976563 Z M 73.609375 37.976563 "/>
<path style=" stroke:none;fill-rule:nonzero;fill:rgb(0%,0%,0%);fill-opacity:1;" d="M 16.910156 3.960938 C 16.910156 2.863281 16.019531 1.96875 14.917969 1.96875 C 13.820313 1.96875 12.925781 2.863281 12.925781 3.960938 C 12.925781 5.0625 13.820313 5.953125 14.917969 5.953125 C 16.019531 5.953125 16.910156 5.0625 16.910156 3.960938 Z M 16.910156 3.960938 "/>
<path style=" stroke:none;fill-rule:nonzero;fill:rgb(0%,0%,0%);fill-opacity:1;" d="M 62.269531 3.960938 C 62.269531 2.863281 61.375 1.96875 60.277344 1.96875 C 59.175781 1.96875 58.285156 2.863281 58.285156 3.960938 C 58.285156 5.0625 59.175781 5.953125 60.277344 5.953125 C 61.375 5.953125 62.269531 5.0625 62.269531 3.960938 Z M 62.269531 3.960938 "/>
</g>
</svg>
