<?xml version="1.0" encoding="UTF-8"?>
<svg xmlns="http://www.w3.org/2000/svg" xmlns:xlink="http://www.w3.org/1999/xlink" width="93pt" height="89pt" viewBox="0 0 93 89" version="1.1">
<g id="surface1">
<path style="fill:none;stroke-width:0.3985;stroke-linecap:butt;stroke-linejoin:miter;stroke:rgb(0%,0%,0%);stroke-opacity:1;stroke-miterlimit:10;" d="M 0.000881652 0.00071875 L 0.000881652 22.6765 L -43.134974 14.016344 L 0.000881652 45.356187 L -21.568999 7.008531 " transform="matrix(1.00002,0,0,-1,46.354587,48.989)"/>
<path style=" stroke:none;fill-rule:nonzero;fill:rgb(0%,0%,0%);fill-opacity:1;" d="M 48.347656 48.988281 C 48.347656 47.886719 47.453125 46.996094 46.355469 46.996094 C 45.253906 46.996094 44.363281 47.886719 44.363281 48.988281 C 44.363281 50.089844 45.253906 50.980469 46.355469 50.980469 C 47.453125 50.980469 48.347656 50.089844 48.347656 48.988281 Z M 48.347656 48.988281 "/>
<path style=" stroke:none;fill-rule:nonzero;fill:rgb(0%,0%,0%);fill-opacity:1;" d="M 48.347656 26.3125 C 48.347656 25.210938 47.453125 24.320313 46.355469 24.320313 C 45.253906 24.320313 44.363281 25.210938 44.363281 26.3125 C 44.363281 27.410156 45.253906 28.304688 46.355469 28.304688 C 47.453125 28.304688 48.347656 27.410156 48.347656 26.3125 Z M 48.347656 26.3125 "/>
<path style=" stroke:none;fill-rule:nonzero;fill:rgb(0%,0%,0%);fill-opacity:1;" d="M 5.210938 34.972656 C 5.210938 33.871094 4.320313 32.980469 3.21875 32.980469 C 2.117188 32.980469 1.226563 33.871094 1.226563 34.972656 C 1.226563 36.074219 2.117188 36.964844 3.21875 36.964844 C 4.320313 36.964844 5.210938 36.074219 5.210938 34.972656 Z M 5.210938 34.972656 "/>
<path style="fill:none;stroke-width:0.3985;stroke-linecap:butt;stroke-linejoin:miter;stroke:rgb(0%,0%,19.999695%);stroke-opacity:1;stroke-miterlimit:10;" d="M 0.000881652 22.6765 L -21.568999 7.008531 " transform="matrix(1.00002,0,0,-1,46.354587,48.989)"/>
<path style="fill:none;stroke-width:0.3985;stroke-linecap:butt;stroke-linejoin:miter;stroke:rgb(0%,0%,0%);stroke-opacity:1;stroke-miterlimit:10;" d="M 0.000881652 0.00071875 L -21.568999 7.008531 L -26.658741 -36.694594 L -43.134974 14.016344 L -13.330883 -18.346938 " transform="matrix(1.00002,0,0,-1,46.354587,48.989)"/>
<path style=" stroke:none;fill-rule:nonzero;fill:rgb(0%,0%,0%);fill-opacity:1;" d="M 48.347656 48.988281 C 48.347656 47.886719 47.453125 46.996094 46.355469 46.996094 C 45.253906 46.996094 44.363281 47.886719 44.363281 48.988281 C 44.363281 50.089844 45.253906 50.980469 46.355469 50.980469 C 47.453125 50.980469 48.347656 50.089844 48.347656 48.988281 Z M 48.347656 48.988281 "/>
<path style=" stroke:none;fill-rule:nonzero;fill:rgb(0%,0%,0%);fill-opacity:1;" d="M 26.777344 41.980469 C 26.777344 40.878906 25.886719 39.988281 24.785156 39.988281 C 23.6875 39.988281 22.792969 40.878906 22.792969 41.980469 C 22.792969 43.082031 23.6875 43.972656 24.785156 43.972656 C 25.886719 43.972656 26.777344 43.082031 26.777344 41.980469 Z M 26.777344 41.980469 "/>
<path style=" stroke:none;fill-rule:nonzero;fill:rgb(0%,0%,0%);fill-opacity:1;" d="M 21.6875 85.683594 C 21.6875 84.582031 20.796875 83.691406 19.695313 83.691406 C 18.59375 83.691406 17.703125 84.582031 17.703125 85.683594 C 17.703125 86.78125 18.59375 87.675781 19.695313 87.675781 C 20.796875 87.675781 21.6875 86.78125 21.6875 85.683594 Z M 21.6875 85.683594 "/>
<path style="fill:none;stroke-width:0.3985;stroke-linecap:butt;stroke-linejoin:miter;stroke:rgb(0%,0%,19.999695%);stroke-opacity:1;stroke-miterlimit:10;" d="M -21.568999 7.008531 L -13.330883 -18.346938 " transform="matrix(1.00002,0,0,-1,46.354587,48.989)"/>
<path style="fill:none;stroke-width:0.3985;stroke-linecap:butt;stroke-linejoin:miter;stroke:rgb(0%,0%,0%);stroke-opacity:1;stroke-miterlimit:10;" d="M 0.000881652 0.00071875 L -13.330883 -18.346938 L 26.660505 -36.694594 L -26.658741 -36.694594 L 13.32874 -18.346938 " transform="matrix(1.00002,0,0,-1,46.354587,48.989)"/>
<path style=" stroke:none;fill-rule:nonzero;fill:rgb(0%,0%,0%);fill-opacity:1;" d="M 48.347656 48.988281 C 48.347656 47.886719 47.453125 46.996094 46.355469 46.996094 C 45.253906 46.996094 44.363281 47.886719 44.363281 48.988281 C 44.363281 50.089844 45.253906 50.980469 46.355469 50.980469 C 47.453125 50.980469 48.347656 50.089844 48.347656 48.988281 Z M 48.347656 48.988281 "/>
<path style=" stroke:none;fill-rule:nonzero;fill:rgb(0%,0%,0%);fill-opacity:1;" d="M 35.015625 67.335938 C 35.015625 66.234375 34.125 65.34375 33.023438 65.34375 C 31.925781 65.34375 31.03125 66.234375 31.03125 67.335938 C 31.03125 68.4375 31.925781 69.328125 33.023438 69.328125 C 34.125 69.328125 35.015625 68.4375 35.015625 67.335938 Z M 35.015625 67.335938 "/>
<path style=" stroke:none;fill-rule:nonzero;fill:rgb(0%,0%,0%);fill-opacity:1;" d="M 75.007813 85.683594 C 75.007813 84.582031 74.113281 83.691406 73.015625 83.691406 C 71.914063 83.691406 71.019531 84.582031 71.019531 85.683594 C 71.019531 86.78125 71.914063 87.675781 73.015625 87.675781 C 74.113281 87.675781 75.007813 86.78125 75.007813 85.683594 Z M 75.007813 85.683594 "/>
<path style="fill:none;stroke-width:0.3985;stroke-linecap:butt;stroke-linejoin:miter;stroke:rgb(0%,0%,19.999695%);stroke-opacity:1;stroke-miterlimit:10;" d="M -13.330883 -18.346938 L 13.32874 -18.346938 " transform="matrix(1.00002,0,0,-1,46.354587,48.989)"/>
<path style="fill:none;stroke-width:0.3985;stroke-linecap:butt;stroke-linejoin:miter;stroke:rgb(0%,0%,0%);stroke-opacity:1;stroke-miterlimit:10;" d="M 0.000881652 0.00071875 L 13.32874 -18.346938 L 43.136738 14.016344 L 26.660505 -36.694594 L 21.566857 7.008531 " transform="matrix(1.00002,0,0,-1,46.354587,48.989)"/>
<path style=" stroke:none;fill-rule:nonzero;fill:rgb(0%,0%,0%);fill-opacity:1;" d="M 48.347656 48.988281 C 48.347656 47.886719 47.453125 46.996094 46.355469 46.996094 C 45.253906 46.996094 44.363281 47.886719 44.363281 48.988281 C 44.363281 50.089844 45.253906 50.980469 46.355469 50.980469 C 47.453125 50.980469 48.347656 50.089844 48.347656 48.988281 Z M 48.347656 48.988281 "/>
<path style=" stroke:none;fill-rule:nonzero;fill:rgb(0%,0%,0%);fill-opacity:1;" d="M 61.675781 67.335938 C 61.675781 66.234375 60.785156 65.34375 59.683594 65.34375 C 58.582031 65.34375 57.691406 66.234375 57.691406 67.335938 C 57.691406 68.4375 58.582031 69.328125 59.683594 69.328125 C 60.785156 69.328125 61.675781 68.4375 61.675781 67.335938 Z M 61.675781 67.335938 "/>
<path style=" stroke:none;fill-rule:nonzero;fill:rgb(0%,0%,0%);fill-opacity:1;" d="M 91.484375 34.972656 C 91.484375 33.871094 90.589844 32.980469 89.492188 32.980469 C 88.390625 32.980469 87.5 33.871094 87.5 34.972656 C 87.5 36.074219 88.390625 36.964844 89.492188 36.964844 C 90.589844 36.964844 91.484375 36.074219 91.484375 34.972656 Z M 91.484375 34.972656 "/>
<path style="fill:none;stroke-width:0.3985;stroke-linecap:butt;stroke-linejoin:miter;stroke:rgb(0%,0%,19.999695%);stroke-opacity:1;stroke-miterlimit:10;" d="M 13.32874 -18.346938 L 21.566857 7.008531 " transform="matrix(1.00002,0,0,-1,46.354587,48.989)"/>
<path style="fill:none;stroke-width:0.3985;stroke-linecap:butt;stroke-linejoin:miter;stroke:rgb(0%,0%,0%);stroke-opacity:1;stroke-miterlimit:10;" d="M 0.000881652 0.00071875 L 21.566857 7.008531 L 0.000881652 45.356187 L 43.136738 14.016344 L 0.000881652 22.6765 " transform="matrix(1.00002,0,0,-1,46.354587,48.989)"/>
<path style=" stroke:none;fill-rule:nonzero;fill:rgb(0%,0%,0%);fill-opacity:1;" d="M 48.347656 48.988281 C 48.347656 47.886719 47.453125 46.996094 46.355469 46.996094 C 45.253906 46.996094 44.363281 47.886719 44.363281 48.988281 C 44.363281 50.089844 45.253906 50.980469 46.355469 50.980469 C 47.453125 50.980469 48.347656 50.089844 48.347656 48.988281 Z M 48.347656 48.988281 "/>
<path style=" stroke:none;fill-rule:nonzero;fill:rgb(0%,0%,0%);fill-opacity:1;" d="M 69.914063 41.980469 C 69.914063 40.878906 69.023438 39.988281 67.921875 39.988281 C 66.824219 39.988281 65.929688 40.878906 65.929688 41.980469 C 65.929688 43.082031 66.824219 43.972656 67.921875 43.972656 C 69.023438 43.972656 69.914063 43.082031 69.914063 41.980469 Z M 69.914063 41.980469 "/>
<path style=" stroke:none;fill-rule:nonzero;fill:rgb(0%,0%,0%);fill-opacity:1;" d="M 48.347656 3.632813 C 48.347656 2.535156 47.453125 1.640625 46.355469 1.640625 C 45.253906 1.640625 44.363281 2.535156 44.363281 3.632813 C 44.363281 4.734375 45.253906 5.625 46.355469 5.625 C 47.453125 5.625 48.347656 4.734375 48.347656 3.632813 Z M 48.347656 3.632813 "/>
<path style="fill:none;stroke-width:0.3985;stroke-linecap:butt;stroke-linejoin:miter;stroke:rgb(0%,0%,19.999695%);stroke-opacity:1;stroke-miterlimit:10;" d="M 21.566857 7.008531 L 0.000881652 22.6765 " transform="matrix(1.00002,0,0,-1,46.354587,48.989)"/>
</g>
</svg>
