<?xml version="1.0" encoding="UTF-8"?>
<svg xmlns="http://www.w3.org/2000/svg" xmlns:xlink="http://www.w3.org/1999/xlink" width="136pt" height="66pt" viewBox="0 0 136 66" version="1.1">
<g id="surface1">
<path style="fill-rule:nonzero;fill:rgb(0%,0%,0%);fill-opacity:1;stroke-width:0.3985;stroke-linecap:butt;stroke-linejoin:miter;stroke:rgb(0%,0%,0%);stroke-opacity:1;stroke-miterlimit:10;" d="M -61.538627 10.628118 C -61.538627 11.866374 -62.542513 12.87026 -63.780769 12.87026 C -65.019026 12.87026 -66.022912 11.866374 -66.022912 10.628118 C -66.022912 9.393767 -65.019026 8.389881 -63.780769 8.389881 C -62.542513 8.389881 -61.538627 9.393767 -61.538627 10.628118 Z M -61.538627 10.628118 " transform="matrix(1.00002,0,0,-1.00002,68.117982,73.136143)"/>
<path style="fill-rule:nonzero;fill:rgb(0%,0%,0%);fill-opacity:1;stroke-width:0.3985;stroke-linecap:butt;stroke-linejoin:miter;stroke:rgb(0%,0%,0%);stroke-opacity:1;stroke-miterlimit:10;" d="M -40.277333 10.628118 C -40.277333 11.866374 -41.281219 12.87026 -42.519476 12.87026 C -43.757732 12.87026 -44.761618 11.866374 -44.761618 10.628118 C -44.761618 9.393767 -43.757732 8.389881 -42.519476 8.389881 C -41.281219 8.389881 -40.277333 9.393767 -40.277333 10.628118 Z M -40.277333 10.628118 " transform="matrix(1.00002,0,0,-1.00002,68.117982,73.136143)"/>
<path style="fill-rule:nonzero;fill:rgb(0%,0%,0%);fill-opacity:1;stroke-width:0.3985;stroke-linecap:butt;stroke-linejoin:miter;stroke:rgb(0%,0%,0%);stroke-opacity:1;stroke-miterlimit:10;" d="M -19.019946 10.628118 C -19.019946 11.866374 -20.023832 12.87026 -21.258182 12.87026 C -22.496439 12.87026 -23.500325 11.866374 -23.500325 10.628118 C -23.500325 9.393767 -22.496439 8.389881 -21.258182 8.389881 C -20.023832 8.389881 -19.019946 9.393767 -19.019946 10.628118 Z M -19.019946 10.628118 " transform="matrix(1.00002,0,0,-1.00002,68.117982,73.136143)"/>
<path style="fill-rule:nonzero;fill:rgb(0%,0%,0%);fill-opacity:1;stroke-width:0.3985;stroke-linecap:butt;stroke-linejoin:miter;stroke:rgb(0%,0%,0%);stroke-opacity:1;stroke-miterlimit:10;" d="M 2.241348 10.628118 C 2.241348 11.866374 1.237462 12.87026 -0.000794824 12.87026 C -1.239051 12.87026 -2.242937 11.866374 -2.242937 10.628118 C -2.242937 9.393767 -1.239051 8.389881 -0.000794824 8.389881 C 1.237462 8.389881 2.241348 9.393767 2.241348 10.628118 Z M 2.241348 10.628118 " transform="matrix(1.00002,0,0,-1.00002,68.117982,73.136143)"/>
<path style="fill-rule:nonzero;fill:rgb(0%,0%,0%);fill-opacity:1;stroke-width:0.3985;stroke-linecap:butt;stroke-linejoin:miter;stroke:rgb(0%,0%,0%);stroke-opacity:1;stroke-miterlimit:10;" d="M 23.502641 10.628118 C 23.502641 11.866374 22.498755 12.87026 21.260499 12.87026 C 20.022242 12.87026 19.018356 11.866374 19.018356 10.628118 C 19.018356 9.393767 20.022242 8.389881 21.260499 8.389881 C 22.498755 8.389881 23.502641 9.393767 23.502641 10.628118 Z M 23.502641 10.628118 " transform="matrix(1.00002,0,0,-1.00002,68.117982,73.136143)"/>
<path style="fill-rule:nonzero;fill:rgb(0%,0%,0%);fill-opacity:1;stroke-width:0.3985;stroke-linecap:butt;stroke-linejoin:miter;stroke:rgb(0%,0%,0%);stroke-opacity:1;stroke-miterlimit:10;" d="M 44.760029 10.628118 C 44.760029 11.866374 43.760049 12.87026 42.521792 12.87026 C 41.283536 12.87026 40.27965 11.866374 40.27965 10.628118 C 40.27965 9.393767 41.283536 8.389881 42.521792 8.389881 C 43.760049 8.389881 44.760029 9.393767 44.760029 10.628118 Z M 44.760029 10.628118 " transform="matrix(1.00002,0,0,-1.00002,68.117982,73.136143)"/>
<path style="fill-rule:nonzero;fill:rgb(0%,0%,0%);fill-opacity:1;stroke-width:0.3985;stroke-linecap:butt;stroke-linejoin:miter;stroke:rgb(0%,0%,0%);stroke-opacity:1;stroke-miterlimit:10;" d="M 66.021322 10.628118 C 66.021322 11.866374 65.017436 12.87026 63.77918 12.87026 C 62.540923 12.87026 61.537037 11.866374 61.537037 10.628118 C 61.537037 9.393767 62.540923 8.389881 63.77918 8.389881 C 65.017436 8.389881 66.021322 9.393767 66.021322 10.628118 Z M 66.021322 10.628118 " transform="matrix(1.00002,0,0,-1.00002,68.117982,73.136143)"/>
<path style="fill-rule:nonzero;fill:rgb(0%,0%,0%);fill-opacity:1;stroke-width:0.3985;stroke-linecap:butt;stroke-linejoin:miter;stroke:rgb(0%,0%,0%);stroke-opacity:1;stroke-miterlimit:10;" d="M 62.079995 34.549514 C 62.079995 35.783865 61.076109 36.787751 59.837852 36.787751 C 58.599596 36.787751 57.595709 35.783865 57.595709 34.549514 C 57.595709 33.311258 58.599596 32.307372 59.837852 32.307372 C 61.076109 32.307372 62.079995 33.311258 62.079995 34.549514 Z M 62.079995 34.549514 " transform="matrix(1.00002,0,0,-1.00002,68.117982,73.136143)"/>
<path style="fill-rule:nonzero;fill:rgb(0%,0%,0%);fill-opacity:1;stroke-width:0.3985;stroke-linecap:butt;stroke-linejoin:miter;stroke:rgb(0%,0%,0%);stroke-opacity:1;stroke-miterlimit:10;" d="M 36.787532 59.838071 C 36.787532 61.076327 35.787552 62.080214 34.549295 62.080214 C 33.311039 62.080214 32.307153 61.076327 32.307153 59.838071 C 32.307153 58.599814 33.311039 57.595928 34.549295 57.595928 C 35.787552 57.595928 36.787532 58.599814 36.787532 59.838071 Z M 36.787532 59.838071 " transform="matrix(1.00002,0,0,-1.00002,68.117982,73.136143)"/>
<path style="fill-rule:nonzero;fill:rgb(0%,0%,0%);fill-opacity:1;stroke-width:0.3985;stroke-linecap:butt;stroke-linejoin:miter;stroke:rgb(0%,0%,0%);stroke-opacity:1;stroke-miterlimit:10;" d="M 2.241348 69.095698 C 2.241348 70.333955 1.237462 71.337841 -0.000794824 71.337841 C -1.239051 71.337841 -2.242937 70.333955 -2.242937 69.095698 C -2.242937 67.857442 -1.239051 66.853556 -0.000794824 66.853556 C 1.237462 66.853556 2.241348 67.857442 2.241348 69.095698 Z M 2.241348 69.095698 " transform="matrix(1.00002,0,0,-1.00002,68.117982,73.136143)"/>
<path style="fill-rule:nonzero;fill:rgb(0%,0%,0%);fill-opacity:1;stroke-width:0.3985;stroke-linecap:butt;stroke-linejoin:miter;stroke:rgb(0%,0%,0%);stroke-opacity:1;stroke-miterlimit:10;" d="M -32.304836 59.838071 C -32.304836 61.076327 -33.308722 62.080214 -34.546979 62.080214 C -35.785235 62.080214 -36.789122 61.076327 -36.789122 59.838071 C -36.789122 58.599814 -35.785235 57.595928 -34.546979 57.595928 C -33.308722 57.595928 -32.304836 58.599814 -32.304836 59.838071 Z M -32.304836 59.838071 " transform="matrix(1.00002,0,0,-1.00002,68.117982,73.136143)"/>
<path style="fill-rule:nonzero;fill:rgb(0%,0%,0%);fill-opacity:1;stroke-width:0.3985;stroke-linecap:butt;stroke-linejoin:miter;stroke:rgb(0%,0%,0%);stroke-opacity:1;stroke-miterlimit:10;" d="M -57.597299 34.549514 C -57.597299 35.783865 -58.601185 36.787751 -59.839442 36.787751 C -61.077698 36.787751 -62.081584 35.783865 -62.081584 34.549514 C -62.081584 33.311258 -61.077698 32.307372 -59.839442 32.307372 C -58.601185 32.307372 -57.597299 33.311258 -57.597299 34.549514 Z M -57.597299 34.549514 " transform="matrix(1.00002,0,0,-1.00002,68.117982,73.136143)"/>
</g>
</svg>
