<?xml version="1.0" encoding="UTF-8"?>
<svg xmlns="http://www.w3.org/2000/svg" xmlns:xlink="http://www.w3.org/1999/xlink" width="141pt" height="72pt" viewBox="0 0 141 72" version="1.1">
<g id="surface1">
<path style="fill:none;stroke-width:1.19553;stroke-linecap:butt;stroke-linejoin:miter;stroke:rgb(0%,0%,0%);stroke-opacity:1;stroke-miterlimit:10;" d="M -68.034492 0.00115818 L -68.034492 68.034273 L 68.032748 68.034273 L 68.032748 0.00115818 Z M -68.034492 0.00115818 " transform="matrix(1.00008,0,0,-1.00003,70.532122,70.231627)"/>
<path style="fill:none;stroke-width:1.19553;stroke-linecap:butt;stroke-linejoin:miter;stroke:rgb(0%,0%,0%);stroke-opacity:1;stroke-miterlimit:10;" d="M -68.034492 40.820246 L -61.230349 40.820246 M -52.156856 40.820246 L -34.017682 40.820246 M -34.017682 36.285226 L -22.678745 36.285226 M -13.605252 36.285226 L 6.803271 36.285226 M 15.872858 36.285226 L 22.677001 36.285226 M 22.677001 18.141239 L 34.015938 18.141239 M 43.085525 18.141239 L 68.032748 18.141239 " transform="matrix(1.00008,0,0,-1.00003,70.532122,70.231627)"/>
<path style="fill:none;stroke-width:1.19553;stroke-linecap:butt;stroke-linejoin:miter;stroke:rgb(0%,0%,0%);stroke-opacity:1;stroke-miterlimit:10;" d="M -34.017682 0.00115818 L -34.017682 18.141239 M -34.017682 27.211279 L -34.017682 47.624729 M -34.017682 56.69477 L -34.017682 68.034273 " transform="matrix(1.00008,0,0,-1.00003,70.532122,70.231627)"/>
<path style="fill:none;stroke-width:1.19553;stroke-linecap:butt;stroke-linejoin:miter;stroke:rgb(0%,0%,0%);stroke-opacity:1;stroke-miterlimit:10;" d="M -0.00087201 0.00115818 L -0.00087201 13.606219 M -0.00087201 22.676259 L -0.00087201 36.285226 " transform="matrix(1.00008,0,0,-1.00003,70.532122,70.231627)"/>
<path style="fill:none;stroke-width:1.19553;stroke-linecap:butt;stroke-linejoin:miter;stroke:rgb(0%,0%,0%);stroke-opacity:1;stroke-miterlimit:10;" d="M 22.677001 0.00115818 L 22.677001 4.536178 M 22.677001 13.606219 L 22.677001 22.676259 M 22.677001 31.750206 L 22.677001 47.624729 M 22.677001 56.69477 L 22.677001 68.034273 " transform="matrix(1.00008,0,0,-1.00003,70.532122,70.231627)"/>
</g>
</svg>
