<?xml version="1.0" encoding="UTF-8"?>
<svg xmlns="http://www.w3.org/2000/svg" xmlns:xlink="http://www.w3.org/1999/xlink" width="85pt" height="44pt" viewBox="0 0 85 44" version="1.1">
<g id="surface1">
<path style=" stroke:none;fill-rule:nonzero;fill:rgb(0%,0%,0%);fill-opacity:1;" d="M 19.957031 4.152344 C 19.957031 2.742188 18.8125 1.601563 17.402344 1.601563 C 15.996094 1.601563 14.851563 2.742188 14.851563 4.152344 C 14.851563 5.5625 15.996094 6.703125 17.402344 6.703125 C 18.8125 6.703125 19.957031 5.5625 19.957031 4.152344 Z M 45.46875 4.152344 C 45.46875 2.742188 44.324219 1.601563 42.917969 1.601563 C 41.507813 1.601563 40.367188 2.742188 40.367188 4.152344 C 40.367188 5.5625 41.507813 6.703125 42.917969 6.703125 C 44.324219 6.703125 45.46875 5.5625 45.46875 4.152344 Z M 70.980469 4.152344 C 70.980469 2.742188 69.839844 1.601563 68.429688 1.601563 C 67.019531 1.601563 65.878906 2.742188 65.878906 4.152344 C 65.878906 5.5625 67.019531 6.703125 68.429688 6.703125 C 69.839844 6.703125 70.980469 5.5625 70.980469 4.152344 Z M 70.980469 4.152344 "/>
<path style="fill:none;stroke-width:0.3985;stroke-linecap:butt;stroke-linejoin:miter;stroke:rgb(0%,0%,0%);stroke-opacity:1;stroke-miterlimit:10;" d="M -28.064313 25.512487 L -38.099168 0.424901 " transform="matrix(1.00003,0,0,-1.00009,42.916717,34.768689)"/>
<path style="fill:none;stroke-width:0.31879;stroke-linecap:round;stroke-linejoin:round;stroke:rgb(0%,0%,0%);stroke-opacity:1;stroke-miterlimit:10;" d="M -1.196494 1.594011 C -1.095663 0.994848 -0.00110574 0.0989814 0.299188 0.000322557 C -0.00182809 -0.0990459 -1.094907 -0.994855 -1.195721 -1.594738 " transform="matrix(-0.371381,0.928524,0.928468,0.371403,4.817845,34.343171)"/>
<path style="fill:none;stroke-width:0.3985;stroke-linecap:butt;stroke-linejoin:miter;stroke:rgb(0%,0%,0%);stroke-opacity:1;stroke-miterlimit:10;" d="M -22.958997 25.512487 L -12.928048 0.424901 " transform="matrix(1.00003,0,0,-1.00009,42.916717,34.768689)"/>
<path style="fill:none;stroke-width:0.31879;stroke-linecap:round;stroke-linejoin:round;stroke:rgb(0%,0%,0%);stroke-opacity:1;stroke-miterlimit:10;" d="M -1.195509 1.595267 C -1.094696 0.995384 -0.00161656 0.0995747 0.299399 0.00020628 C -0.000894214 -0.0984526 -1.096902 -0.997946 -1.196283 -1.593482 " transform="matrix(0.371381,0.928524,0.928468,-0.371403,29.99018,34.343171)"/>
<path style="fill:none;stroke-width:0.3985;stroke-linecap:butt;stroke-linejoin:miter;stroke:rgb(0%,0%,0%);stroke-opacity:1;stroke-miterlimit:10;" d="M 0.00125126 25.512487 L 12.551656 0.409277 " transform="matrix(1.00003,0,0,-1.00009,42.916717,34.768689)"/>
<path style="fill:none;stroke-width:0.31879;stroke-linecap:round;stroke-linejoin:round;stroke:rgb(0%,0%,0%);stroke-opacity:1;stroke-miterlimit:10;" d="M -1.194067 1.593514 C -1.096248 0.994298 -0.000935328 0.10162 0.297788 0.000304696 C -0.000938352 -0.0992838 -1.096278 -0.997275 -1.194115 -1.59475 " transform="matrix(0.447183,0.89444,0.894387,-0.44721,55.468124,34.358782)"/>
<path style="fill:none;stroke-width:0.3985;stroke-linecap:butt;stroke-linejoin:miter;stroke:rgb(0%,0%,0%);stroke-opacity:1;stroke-miterlimit:10;" d="M 25.512205 25.512487 L 38.062609 0.409277 " transform="matrix(1.00003,0,0,-1.00009,42.916717,34.768689)"/>
<path style="fill:none;stroke-width:0.31879;stroke-linecap:round;stroke-linejoin:round;stroke:rgb(0%,0%,0%);stroke-opacity:1;stroke-miterlimit:10;" d="M -1.194508 1.592631 C -1.094942 0.99691 -0.00137657 0.100738 0.297347 -0.000577801 C -0.00137959 -0.100166 -1.094972 -0.994663 -1.194556 -1.595632 " transform="matrix(0.447183,0.89444,0.894387,-0.44721,80.980829,34.358782)"/>
<path style="fill:none;stroke-width:0.3985;stroke-linecap:butt;stroke-linejoin:miter;stroke:rgb(0%,0%,0%);stroke-opacity:1;stroke-miterlimit:10;" d="M -10.205474 -5.101945 C -10.205474 -3.691916 -11.346065 -2.551394 -12.756179 -2.551394 C -14.166292 -2.551394 -15.306883 -3.691916 -15.306883 -5.101945 C -15.306883 -6.511975 -14.166292 -7.652497 -12.756179 -7.652497 C -11.346065 -7.652497 -10.205474 -6.511975 -10.205474 -5.101945 Z M 15.30548 -5.101945 C 15.30548 -3.691916 14.164889 -2.551394 12.754775 -2.551394 C 11.348567 -2.551394 10.20407 -3.691916 10.20407 -5.101945 C 10.20407 -6.511975 11.348567 -7.652497 12.754775 -7.652497 C 14.164889 -7.652497 15.30548 -6.511975 15.30548 -5.101945 Z M -35.716427 -5.101945 C -35.716427 -3.691916 -36.857018 -2.551394 -38.267132 -2.551394 C -39.677246 -2.551394 -40.817837 -3.691916 -40.817837 -5.101945 C -40.817837 -6.511975 -39.677246 -7.652497 -38.267132 -7.652497 C -36.857018 -7.652497 -35.716427 -6.511975 -35.716427 -5.101945 Z M 40.820339 -5.101945 C 40.820339 -3.691916 39.675842 -2.551394 38.269634 -2.551394 C 36.859521 -2.551394 35.715024 -3.691916 35.715024 -5.101945 C 35.715024 -6.511975 36.859521 -7.652497 38.269634 -7.652497 C 39.675842 -7.652497 40.820339 -6.511975 40.820339 -5.101945 Z M 40.820339 -5.101945 " transform="matrix(1.00003,0,0,-1.00009,42.916717,34.768689)"/>
</g>
</svg>
