<?xml version="1.0" encoding="UTF-8"?>
<svg xmlns="http://www.w3.org/2000/svg" xmlns:xlink="http://www.w3.org/1999/xlink" width="63pt" height="41pt" viewBox="0 0 63 41" version="1.1">
<g id="surface1">
<path style="fill:none;stroke-width:0.3985;stroke-linecap:butt;stroke-linejoin:miter;stroke:rgb(0%,0%,0%);stroke-opacity:1;stroke-miterlimit:10;" d="M -28.345423 34.017174 L -28.345423 -0.00167687 L 0.000532378 34.017174 L 0.000532378 -0.00167687 L 28.346488 34.017174 L 28.346488 -0.00167687 L 0.000532378 34.017174 L -28.345423 -0.00167687 L 28.346488 34.017174 M 28.346488 -0.00167687 L -28.345423 34.017174 L 0.000532378 -0.00167687 " transform="matrix(1.00006,0,0,-1.00002,31.565874,37.654573)"/>
<path style=" stroke:none;fill-rule:nonzero;fill:rgb(0%,0%,0%);fill-opacity:1;" d="M 5.210938 3.636719 C 5.210938 2.539063 4.316406 1.644531 3.21875 1.644531 C 2.117188 1.644531 1.226563 2.539063 1.226563 3.636719 C 1.226563 4.738281 2.117188 5.628906 3.21875 5.628906 C 4.316406 5.628906 5.210938 4.738281 5.210938 3.636719 Z M 5.210938 3.636719 "/>
<path style=" stroke:none;fill-rule:nonzero;fill:rgb(0%,0%,0%);fill-opacity:1;" d="M 5.210938 37.65625 C 5.210938 36.554688 4.316406 35.660156 3.21875 35.660156 C 2.117188 35.660156 1.226563 36.554688 1.226563 37.65625 C 1.226563 38.753906 2.117188 39.648438 3.21875 39.648438 C 4.316406 39.648438 5.210938 38.753906 5.210938 37.65625 Z M 5.210938 37.65625 "/>
<path style=" stroke:none;fill-rule:nonzero;fill:rgb(0%,0%,0%);fill-opacity:1;" d="M 33.558594 3.636719 C 33.558594 2.539063 32.667969 1.644531 31.566406 1.644531 C 30.464844 1.644531 29.574219 2.539063 29.574219 3.636719 C 29.574219 4.738281 30.464844 5.628906 31.566406 5.628906 C 32.667969 5.628906 33.558594 4.738281 33.558594 3.636719 Z M 33.558594 3.636719 "/>
<path style=" stroke:none;fill-rule:nonzero;fill:rgb(0%,0%,0%);fill-opacity:1;" d="M 33.558594 37.65625 C 33.558594 36.554688 32.667969 35.660156 31.566406 35.660156 C 30.464844 35.660156 29.574219 36.554688 29.574219 37.65625 C 29.574219 38.753906 30.464844 39.648438 31.566406 39.648438 C 32.667969 39.648438 33.558594 38.753906 33.558594 37.65625 Z M 33.558594 37.65625 "/>
<path style=" stroke:none;fill-rule:nonzero;fill:rgb(0%,0%,0%);fill-opacity:1;" d="M 61.90625 3.636719 C 61.90625 2.539063 61.015625 1.644531 59.914063 1.644531 C 58.8125 1.644531 57.921875 2.539063 57.921875 3.636719 C 57.921875 4.738281 58.8125 5.628906 59.914063 5.628906 C 61.015625 5.628906 61.90625 4.738281 61.90625 3.636719 Z M 61.90625 3.636719 "/>
<path style=" stroke:none;fill-rule:nonzero;fill:rgb(0%,0%,0%);fill-opacity:1;" d="M 61.90625 37.65625 C 61.90625 36.554688 61.015625 35.660156 59.914063 35.660156 C 58.8125 35.660156 57.921875 36.554688 57.921875 37.65625 C 57.921875 38.753906 58.8125 39.648438 59.914063 39.648438 C 61.015625 39.648438 61.90625 38.753906 61.90625 37.65625 Z M 61.90625 37.65625 "/>
</g>
</svg>
