<?xml version="1.0" encoding="UTF-8"?>
<svg xmlns="http://www.w3.org/2000/svg" xmlns:xlink="http://www.w3.org/1999/xlink" width="186pt" height="118pt" viewBox="0 0 186 118" version="1.1">
<g id="surface1">
<path style="fill-rule:nonzero;fill:rgb(89.99939%,89.99939%,89.99939%);fill-opacity:1;stroke-width:0.69739;stroke-linecap:butt;stroke-linejoin:miter;stroke:rgb(100%,100%,100%);stroke-opacity:1;stroke-miterlimit:10;" d="M 46.444906 -103.474519 L 46.831625 -102.767509 L 47.280844 -102.701105 L 47.34725 -102.865162 L 46.925375 -103.474519 Z M 48.47225 -102.73626 L 49.698813 -103.251869 L 50.116781 -103.185465 L 50.437094 -102.412051 L 50.308188 -101.73629 L 49.47225 -101.638637 L 48.667563 -101.994095 Z M 54.593344 -104.732294 L 55.335531 -105.826011 L 55.816 -105.763513 L 56.042563 -105.665859 L 56.331625 -105.923664 L 57.073813 -105.892415 L 57.269125 -105.603361 L 56.687094 -105.247903 L 56.300375 -104.505738 L 55.882406 -103.798728 L 54.72225 -104.376836 Z M 58.620688 -106.501772 L 58.8785 -106.115065 L 59.812094 -106.310371 L 59.941 -106.212718 L 61.163656 -106.34162 L 61.101156 -106.599425 L 60.585531 -106.888479 L 59.714438 -106.825981 Z M 59.683188 -107.532991 L 60.069906 -108.306405 L 60.683188 -108.083756 L 60.745688 -107.759547 L 60.425375 -107.34159 L 59.683188 -107.275186 Z M 61.069906 -107.310341 L 61.519125 -106.728328 L 62.452719 -107.212688 L 63.323813 -107.439244 L 64.191 -107.986102 L 64.191 -108.372809 L 63.483969 -108.724361 L 62.519125 -108.919668 L 62.03475 -108.630614 Z M 64.386313 -110.400092 L 64.706625 -110.142288 L 65.386313 -110.466497 L 66.898031 -111.173507 L 67.573813 -111.591463 L 67.898031 -112.075823 L 68.28475 -112.946891 L 69.089438 -113.462501 L 69.023031 -113.720305 L 68.2535 -114.364817 L 67.413656 -114.653871 L 67.124594 -114.524969 L 66.511313 -114.880427 L 66.030844 -115.521033 L 65.577719 -116.103046 L 65.22225 -116.071797 L 64.515219 -115.556188 L 64.448813 -114.653871 L 64.577719 -114.169511 L 64.257406 -113.040638 L 63.839438 -112.689086 L 63.808188 -112.173477 L 64.257406 -111.97817 L 64.675375 -111.368813 L 64.773031 -111.173507 L 64.448813 -110.818049 Z M 64.386313 -110.400092 " transform="matrix(1,0,0,-1.00003,0.059,-0.567467)"/>
<path style="fill-rule:nonzero;fill:rgb(89.99939%,89.99939%,89.99939%);fill-opacity:1;stroke-width:0.69739;stroke-linecap:butt;stroke-linejoin:miter;stroke:rgb(100%,100%,100%);stroke-opacity:1;stroke-miterlimit:10;" d="M 31.499594 -90.396786 L 31.433188 -107.404089 L 31.7535 -107.599395 L 32.366781 -107.630644 L 32.655844 -107.404089 L 33.171469 -107.404089 L 33.206625 -107.986102 L 34.589438 -109.337624 L 34.687094 -109.853234 L 35.362875 -109.466527 L 35.491781 -109.435278 L 35.558188 -108.822015 L 35.84725 -108.501712 L 36.069906 -108.466557 L 36.456625 -108.177503 L 37.069906 -108.595459 L 37.198813 -109.177473 L 37.585531 -109.404029 L 37.812094 -109.884483 L 38.585531 -110.239941 L 39.261313 -111.431311 L 39.808188 -112.204726 L 40.261313 -112.751584 L 40.550375 -113.49375 L 41.546469 -113.849208 L 42.577719 -114.267164 L 42.773031 -115.138232 L 42.866781 -115.747588 L 42.675375 -116.423349 L 42.319906 -116.876461 L 41.999594 -116.716309 L 41.710531 -116.103046 L 41.15975 -115.813993 L 40.808188 -115.587437 L 40.644125 -115.747588 L 40.937094 -116.294447 L 40.968344 -117.036612 L 40.741781 -117.134265 L 40.355063 -116.747558 L 39.937094 -116.489753 L 40.03475 -116.810056 L 40.292563 -117.165514 L 40.132406 -117.325666 C 40.132406 -117.325666 39.968344 -117.263168 39.874594 -117.134265 C 39.776938 -117.005363 39.452719 -116.458504 39.452719 -116.458504 L 39.261313 -116.005393 C 39.261313 -116.005393 39.194906 -116.263198 39.066 -116.2007 C 38.937094 -116.134295 38.808188 -115.90774 38.808188 -115.90774 L 39.163656 -115.521033 L 38.874594 -115.231979 L 38.874594 -114.235915 L 38.714438 -114.235915 L 38.550375 -114.911676 L 38.327719 -115.009329 L 38.132406 -114.267164 L 38.0035 -113.524999 L 37.843344 -113.427345 L 37.90975 -114.556218 L 37.90975 -114.782773 L 37.616781 -114.524969 L 36.90975 -113.333598 L 36.491781 -113.235945 L 36.362875 -112.49378 L 36.038656 -111.915672 L 35.718344 -111.689116 L 35.718344 -111.239911 L 36.136313 -110.982106 L 36.038656 -110.915702 L 35.523031 -111.044604 L 34.84725 -110.56415 L 34.331625 -109.982136 L 33.366781 -109.466527 L 32.562094 -108.950917 L 32.819906 -108.306405 L 32.819906 -107.986102 L 32.464438 -108.306405 L 31.882406 -108.532961 L 31.144125 -108.306405 L 30.015219 -107.825951 L 28.921469 -107.825951 L 28.792563 -107.919698 L 27.5035 -107.146284 L 27.085531 -107.083786 L 26.538656 -105.923664 L 25.827719 -105.990068 L 25.120688 -106.279122 L 25.218344 -107.181439 L 25.441 -106.599425 L 25.636313 -106.665829 L 25.343344 -107.532991 L 25.987875 -106.986132 L 26.116781 -107.310341 L 25.343344 -108.177503 L 25.089438 -108.115005 L 24.991781 -107.728298 L 24.733969 -107.568146 L 24.476156 -107.790796 L 23.929281 -107.439244 L 23.316 -107.8572 L 22.960531 -108.275156 L 22.28475 -108.693112 L 21.351156 -108.661863 L 21.2535 -108.243907 L 21.995688 -108.115005 L 21.995688 -107.8572 L 21.542563 -107.728298 L 21.737875 -107.243937 L 22.187094 -106.470523 L 22.187094 -106.115065 L 22.22225 -105.954913 L 23.089438 -105.505708 L 23.28475 -105.763513 L 23.831625 -105.763513 L 23.573813 -105.247903 L 22.831625 -105.181499 L 21.835531 -105.732264 L 21.351156 -106.408025 L 20.995688 -106.923634 L 20.773031 -107.372839 L 19.933188 -107.661893 L 19.319906 -108.177503 L 19.257406 -108.501712 L 19.706625 -108.693112 L 19.870688 -109.111069 L 19.319906 -109.755581 L 18.03475 -110.595399 L 16.487875 -111.431311 L 16.069906 -111.657867 L 15.0035 -111.884423 L 13.941 -112.333628 L 14.296469 -112.591433 L 14.007406 -112.880487 L 13.90975 -113.107042 L 13.362875 -112.915642 L 12.718344 -112.946891 L 12.558188 -113.396096 L 12.362875 -113.396096 L 12.429281 -112.915642 L 11.718344 -113.169541 L 11.140219 -113.364847 L 10.464438 -113.107042 L 9.882406 -113.49375 L 9.237875 -113.49375 L 8.819906 -113.751554 L 8.499594 -113.911706 L 8.077719 -113.849208 L 7.566 -113.622652 L 7.112875 -113.751554 L 6.921469 -113.942955 L 6.59725 -113.720305 L 6.59725 -113.333598 L 7.210531 -113.075793 L 8.464438 -113.204696 L 9.335531 -112.880487 L 9.7535 -112.462531 L 10.335531 -112.333628 L 10.687094 -112.173477 L 11.237875 -112.204726 L 11.558188 -112.462531 L 11.7535 -112.400032 L 12.202719 -111.849268 L 12.816 -111.657867 L 13.491781 -111.528965 L 13.749594 -111.462561 L 13.8785 -111.560214 L 14.038656 -111.560214 L 14.296469 -110.818049 L 15.101156 -110.528995 L 15.487875 -109.790736 L 15.941 -108.888419 L 16.261313 -108.595459 L 16.327719 -108.083756 L 16.0035 -108.337654 L 15.327719 -108.466557 L 15.198813 -107.986102 L 14.941 -107.919698 L 14.745688 -108.115005 L 14.714438 -108.693112 L 14.425375 -108.661863 L 14.136313 -107.501742 L 13.8785 -107.759547 L 13.651938 -107.661893 L 13.589438 -107.275186 L 12.780844 -107.310341 L 12.362875 -107.532991 L 11.84725 -107.470493 L 12.140219 -107.181439 L 12.233969 -106.665829 L 12.105063 -106.279122 L 12.394125 -106.083816 L 12.651938 -106.052567 L 12.523031 -105.697109 L 12.523031 -104.829947 L 12.331625 -104.63464 L 12.171469 -104.923694 L 10.944906 -104.923694 L 10.655844 -104.665889 L 10.526938 -103.892475 L 10.108969 -103.185465 L 10.108969 -102.994065 L 10.526938 -102.830007 L 10.558188 -102.412051 L 10.78475 -102.185495 L 10.624594 -102.091748 L 10.366781 -102.185495 L 10.140219 -101.638637 L 10.335531 -100.642573 L 11.237875 -99.998061 L 11.7535 -99.673852 L 12.140219 -98.935593 L 12.687094 -98.677788 L 13.202719 -98.900437 L 13.265219 -99.384798 L 13.749594 -99.318394 L 14.394125 -98.837939 L 14.714438 -98.966842 L 14.90975 -99.095744 L 15.230063 -99.095744 L 15.683188 -98.837939 L 15.843344 -97.966872 C 15.843344 -97.966872 15.905844 -97.388764 16.03475 -97.291111 C 16.163656 -97.193457 16.230063 -97.095804 16.230063 -97.095804 L 16.0035 -96.713003 L 15.487875 -96.873154 L 14.843344 -97.033306 L 14.456625 -96.935653 L 13.749594 -96.584101 L 12.749594 -96.548945 L 12.042563 -95.810686 L 12.140219 -95.037272 L 12.269125 -94.552912 L 11.84725 -94.197453 L 11.460531 -93.459194 L 11.558188 -93.295137 L 12.90975 -93.20139 L 13.331625 -93.20139 L 13.523031 -93.39279 L 13.651938 -93.39279 L 13.620688 -93.072487 L 14.394125 -92.943585 L 14.90975 -93.006083 L 15.198813 -93.232639 L 14.90975 -93.650595 L 14.812094 -93.939649 L 15.358969 -94.263858 L 16.358969 -94.61541 L 16.710531 -94.424009 L 16.261313 -93.552942 L 16.069906 -92.90843 L 16.261313 -92.748278 L 15.585531 -92.361571 L 15.487875 -92.135015 L 15.585531 -91.814712 L 15.425375 -91.041298 L 14.843344 -90.107732 L 14.362875 -89.27182 L 14.941 -88.885113 L 15.585531 -88.885113 L 15.941 -89.014015 L 16.776938 -88.97886 L 17.519125 -88.27185 L 17.741781 -87.658587 L 18.483969 -87.178133 L 18.804281 -87.369533 L 19.355063 -87.240631 L 20.093344 -86.822675 L 20.319906 -86.791426 L 20.515219 -86.951577 L 21.413656 -86.920328 L 21.964438 -86.307065 L 22.187094 -86.307065 L 22.898031 -86.791426 L 23.28475 -87.209382 L 23.187094 -87.435938 L 23.316 -87.658587 L 23.636313 -87.338284 L 24.40975 -87.400782 L 24.476156 -88.142948 L 24.862875 -88.432001 L 26.280844 -88.560904 L 27.53475 -89.400722 L 27.823813 -89.205416 L 28.855063 -89.721025 L 29.276938 -89.592123 L 29.65975 -89.431971 L 30.6285 -89.818679 Z M 8.562094 -96.162238 L 8.980063 -97.224706 L 8.948813 -97.420013 L 8.370688 -97.353609 L 8.015219 -96.548945 L 7.65975 -96.259892 L 7.179281 -96.259892 L 7.144125 -95.744282 L 7.499594 -95.259922 L 7.726156 -95.744282 L 8.015219 -96.033336 Z M 8.046469 -102.830007 L 8.788656 -102.994065 L 9.530844 -103.185465 L 9.691 -103.380772 L 9.366781 -104.119031 L 8.757406 -104.087782 L 8.077719 -103.380772 Z M 3.925375 -100.02931 L 4.148031 -100.544919 L 4.374594 -100.865222 L 4.148031 -101.02928 L 3.730063 -100.416017 L 3.730063 -100.02931 Z M 1.187094 -114.587467 L 1.862875 -114.138262 L 2.538656 -113.942955 L 3.054281 -114.009359 L 3.151938 -114.329662 L 3.538656 -114.427315 L 3.925375 -114.040608 L 3.858969 -113.720305 L 4.405844 -113.591403 L 4.987875 -114.107012 L 4.761313 -114.458564 L 3.890219 -114.68512 L 3.343344 -114.587467 L 2.605063 -114.364817 L 1.733969 -114.653871 L 1.413656 -114.716369 Z M 10.944906 -113.68515 L 11.269125 -114.071857 L 11.687094 -113.751554 L 11.398031 -113.49375 Z M 11.526938 -114.298413 L 11.7535 -113.849208 L 12.171469 -113.911706 L 12.011313 -114.298413 Z M 16.230063 -113.911706 L 16.519125 -114.267164 L 16.710531 -114.040608 L 16.550375 -113.653901 Z M 17.968344 -111.431311 L 18.194906 -112.591433 L 18.773031 -112.751584 L 19.773031 -112.173477 L 20.644125 -111.657867 L 20.319906 -111.173507 L 20.417563 -110.689146 L 19.999594 -110.946951 L 19.417563 -110.7868 L 19.741781 -110.56415 L 20.1285 -110.724301 L 20.901938 -110.368843 L 20.995688 -110.07979 L 20.515219 -109.919638 L 20.675375 -109.532931 L 20.1285 -109.919638 L 19.191 -110.626648 L 18.226156 -111.204756 Z M 26.40975 -107.470493 L 26.890219 -107.181439 L 26.698813 -106.825981 L 26.343344 -107.017381 Z M 26.40975 -107.470493 " transform="matrix(1,0,0,-1.00003,0.059,-0.567467)"/>
<path style="fill-rule:nonzero;fill:rgb(89.99939%,89.99939%,89.99939%);fill-opacity:1;stroke-width:0.69739;stroke-linecap:butt;stroke-linejoin:miter;stroke:rgb(100%,100%,100%);stroke-opacity:1;stroke-miterlimit:10;" d="M 151.398031 -87.502342 L 151.851156 -88.959329 L 152.593344 -90.900677 L 153.655844 -92.767809 L 154.398031 -94.025584 L 155.362875 -95.119301 L 156.167563 -95.861466 L 156.491781 -96.44348 L 156.265219 -96.701285 L 156.105063 -96.959089 L 156.683188 -98.439514 L 157.265219 -99.017621 L 157.776938 -100.08009 L 158.487875 -101.240211 L 159.390219 -102.884693 L 159.648031 -104.396366 L 159.745688 -106.783013 L 159.870688 -107.134565 L 159.808188 -107.814232 L 159.323813 -108.072037 L 159.390219 -108.458744 L 159.261313 -108.841545 L 159.323813 -109.325906 L 159.421469 -109.712613 L 158.874594 -110.357125 L 158.261313 -110.646179 L 157.487875 -110.681334 L 157.198813 -111.001637 L 156.714438 -111.193037 L 156.456625 -111.09929 L 156.233969 -110.903984 L 156.167563 -110.325876 L 156.007406 -109.650115 L 155.331625 -108.618896 L 154.620688 -108.165784 L 153.84725 -108.103286 L 153.687094 -108.361091 L 153.077719 -107.490023 L 152.948813 -106.783013 L 152.433188 -105.97835 L 152.077719 -105.751794 L 151.7535 -106.169751 L 151.401938 -106.107252 L 150.983969 -105.107282 L 150.401938 -104.333868 L 149.823813 -103.2714 L 149.308188 -102.658137 L 148.59725 -101.915972 L 149.019125 -101.435518 L 149.65975 -100.337894 L 149.6285 -100.017591 L 148.726156 -99.822285 L 148.405844 -99.951187 L 148.468344 -100.08009 L 148.983969 -100.275396 L 148.694906 -101.177713 L 148.53475 -101.275366 L 148.179281 -100.466797 L 147.921469 -99.501982 L 147.858969 -98.955123 L 148.148031 -98.021558 L 148.148031 -96.119271 L 147.53475 -95.377106 L 147.276938 -94.767749 L 146.245688 -94.509944 L 145.858969 -94.381042 L 145.538656 -93.865432 L 144.862875 -93.541223 L 144.636313 -92.865462 L 144.089438 -92.674062 L 143.605063 -91.931896 L 142.769125 -91.642843 L 142.187094 -91.353789 L 141.671469 -91.353789 L 140.866781 -91.51394 L 140.835531 -91.900647 L 140.995688 -92.092048 L 140.898031 -92.318604 L 140.288656 -92.287355 L 139.546469 -92.994365 L 138.839438 -93.381072 L 138.066 -93.381072 L 137.421469 -93.638877 L 137.355063 -93.092018 L 137.03475 -92.705311 L 136.452719 -92.478755 L 136.132406 -92.189701 L 134.523031 -91.416287 L 133.007406 -91.060829 L 132.136313 -91.189731 L 130.944906 -91.287385 L 129.7535 -91.705341 L 129.062094 -91.830337 L 129.015219 -90.224916 L 128.499594 -89.838209 L 128.144125 -89.482751 L 128.206625 -88.873394 L 130.237875 -88.61559 L 135.327719 -88.033576 L 136.679281 -87.904674 L 137.765219 -87.963266 L 138.276938 -88.732774 L 138.569906 -89.025734 L 140.183188 -89.127293 L 142.339438 -88.998391 L 146.624594 -88.740586 L 147.710531 -88.607777 L 148.726156 -88.646839 L 148.812094 -89.224946 L 149.257406 -89.389004 L 149.304281 -88.467157 L 148.999594 -87.63515 L 149.261313 -87.346097 L 150.366781 -87.435938 Z M 153.898031 -113.884363 L 154.382406 -113.755461 L 154.640219 -113.708587 L 154.929281 -113.239851 L 155.394125 -112.919548 L 155.651938 -113.013295 L 155.991781 -113.0797 L 156.073813 -113.286725 L 155.3785 -113.528905 L 154.542563 -113.821865 L 154.073813 -114.060139 Z M 156.589438 -112.884393 L 156.827719 -113.095324 L 157.3785 -112.677368 L 158.441 -111.837549 L 159.179281 -111.064135 L 159.679281 -109.743862 L 159.874594 -109.407935 L 159.905844 -108.732174 L 159.761313 -108.825921 L 159.566 -109.39231 L 159.276938 -110.310251 L 158.632406 -111.357095 L 157.765219 -112.193007 L 157.085531 -112.579715 Z M 156.589438 -112.884393 " transform="matrix(1,0,0,-1.00003,0.059,-0.567467)"/>
<path style="fill-rule:nonzero;fill:rgb(89.99939%,89.99939%,89.99939%);fill-opacity:1;stroke-width:0.69739;stroke-linecap:butt;stroke-linejoin:miter;stroke:rgb(100%,100%,100%);stroke-opacity:1;stroke-miterlimit:10;" d="M 175.5035 -28.379116 L 175.679281 -28.164278 L 175.894125 -27.508048 L 175.386313 -27.328366 L 175.292563 -26.715103 L 174.519125 -26.488547 L 174.452719 -25.941689 L 173.0035 -21.269954 L 172.089438 -18.371603 L 171.90975 -18.371603 L 171.780844 -18.695812 L 171.651938 -18.598159 L 171.456625 -18.402852 L 171.167563 -18.789559 L 171.15975 -19.793436 L 171.22225 -20.922308 L 171.608969 -21.469167 L 171.608969 -22.27383 L 170.866781 -23.285518 L 170.351156 -23.508168 L 170.351156 -23.734724 L 170.577719 -24.090182 L 170.577719 -25.797162 L 170.413656 -27.633044 L 170.382406 -28.597859 L 170.577719 -28.855664 L 170.542563 -29.75798 L 170.448813 -30.113439 L 170.640219 -30.254059 L 173.983969 -29.371273 L 174.417563 -29.254089 L 174.78475 -28.699418 Z M 175.5035 -28.379116 " transform="matrix(1,0,0,-1.00003,0.059,-0.567467)"/>
<path style="fill-rule:nonzero;fill:rgb(89.99939%,89.99939%,89.99939%);fill-opacity:1;stroke-width:0.69739;stroke-linecap:butt;stroke-linejoin:miter;stroke:rgb(100%,100%,100%);stroke-opacity:1;stroke-miterlimit:10;" d="M 139.054281 -35.316407 L 138.40975 -33.671926 L 137.956625 -31.867292 L 137.476156 -31.22278 L 136.960531 -30.871228 L 136.636313 -31.093878 L 135.862875 -31.449336 L 135.476156 -32.449306 L 134.929281 -33.191471 L 134.702719 -33.316467 L 134.413656 -33.191471 C 134.413656 -33.191471 133.898031 -32.898511 133.929281 -32.769609 C 133.964438 -32.640706 134.026938 -31.773545 134.026938 -31.773545 L 134.702719 -31.51574 L 134.866781 -30.839979 L 134.995688 -30.32437 L 135.476156 -30.000161 L 135.413656 -28.004127 L 135.089438 -27.551015 L 134.831625 -27.390864 L 134.671469 -26.972908 L 134.831625 -26.812756 L 135.155844 -26.875254 L 135.187094 -26.554952 L 134.702719 -26.10184 L 134.444906 -25.586231 L 133.929281 -25.586231 L 133.030844 -25.297177 L 131.933188 -24.621416 L 131.386313 -24.621416 L 131.257406 -24.750318 L 131.066 -24.652665 L 130.452719 -24.20346 L 129.870688 -24.555012 L 129.292563 -25.008123 L 129.358969 -25.715133 L 129.550375 -25.781537 L 129.968344 -25.879191 L 130.066 -26.039342 L 129.550375 -26.199493 L 129.03475 -26.265898 L 128.745688 -26.61745 L 128.679281 -27.035406 L 128.745688 -27.359615 L 128.808188 -28.453332 L 128.101156 -28.871288 L 127.97225 -28.840039 L 127.97225 -28.004127 L 128.230063 -27.519766 L 128.358969 -27.035406 L 128.198813 -26.875254 L 127.812094 -27.035406 L 127.616781 -27.875224 L 127.069906 -28.10178 L 126.714438 -28.488487 L 126.683188 -28.679888 L 126.812094 -28.840039 L 126.683188 -29.355649 L 126.233969 -29.453302 L 126.233969 -29.679858 L 126.394125 -30.160312 L 126.167563 -31.386838 L 125.84725 -32.191501 L 125.976156 -33.125067 L 126.069906 -33.351623 L 125.90975 -33.832077 L 125.84725 -33.996135 L 125.780844 -34.542993 L 126.491781 -35.734364 L 127.069906 -37.023387 L 127.358969 -37.988202 L 127.198813 -38.921768 L 127.007406 -40.113139 L 126.523031 -41.144358 L 126.456625 -41.695122 L 125.808188 -42.308385 L 126.687094 -42.277136 L 130.956625 -41.824025 L 132.405844 -41.628718 L 132.425375 -41.960739 L 133.788656 -41.718559 L 135.843344 -41.417787 L 136.608969 -41.327946 L 136.636313 -41.210762 L 136.667563 -40.921708 L 137.089438 -40.179543 L 137.487875 -39.831897 L 137.441 -38.828021 L 137.761313 -38.507718 L 137.976156 -38.441314 L 138.023031 -37.730398 L 138.327719 -37.128853 L 138.538656 -37.249943 L 138.569906 -37.378846 L 138.730063 -37.410095 L 139.116781 -37.214788 Z M 139.054281 -35.316407 " transform="matrix(1,0,0,-1.00003,0.059,-0.567467)"/>
<path style="fill-rule:nonzero;fill:rgb(89.99939%,89.99939%,89.99939%);fill-opacity:1;stroke-width:0.69739;stroke-linecap:butt;stroke-linejoin:miter;stroke:rgb(100%,100%,100%);stroke-opacity:1;stroke-miterlimit:10;" d="M 115.890219 -16.352133 L 116.257406 -15.941989 L 116.687094 -15.781837 L 117.757406 -15.008423 L 118.214438 -14.891239 L 118.304281 -14.984986 L 117.280844 -16.008393 L 116.620688 -16.3951 L 116.210531 -16.578688 Z M 133.062094 -22.754284 L 133.191 -23.250363 L 133.835531 -23.285518 L 134.093344 -23.043338 C 134.093344 -23.043338 134.077719 -22.754284 134.011313 -22.719129 C 133.948813 -22.68788 133.691 -22.348046 133.691 -22.348046 L 133.2535 -22.398826 L 132.933188 -22.430075 L 132.866781 -22.656631 Z M 113.077719 -22.160552 L 113.218344 -22.043368 L 113.765219 -21.883217 L 114.476156 -21.434011 L 114.476156 -21.238705 L 114.605063 -21.109802 L 115.796469 -20.918402 L 116.280844 -20.531695 L 117.148031 -20.109832 L 117.179281 -19.852028 L 117.566 -19.27392 L 117.921469 -19.113769 L 118.179281 -18.75831 L 118.632406 -18.309105 L 119.499594 -17.824745 L 120.433188 -17.727091 L 120.65975 -17.953647 L 120.59725 -18.145048 L 119.855063 -18.340354 L 119.566 -18.953617 L 119.112875 -19.113769 L 119.015219 -19.594223 L 118.53475 -20.238735 L 118.468344 -20.754344 L 118.632406 -20.851998 L 118.823813 -20.625442 L 119.530844 -20.047334 L 119.788656 -20.305139 L 120.241781 -20.305139 L 120.886313 -20.49654 L 121.175375 -20.723095 L 121.464438 -21.336358 L 122.011313 -21.883217 L 122.78475 -21.851968 L 123.077719 -21.656661 L 123.398031 -21.914466 L 123.718344 -22.012119 L 123.976156 -21.851968 L 124.202719 -21.851968 L 124.526938 -21.656661 L 125.331625 -20.949651 L 126.007406 -20.723095 L 127.327719 -20.660597 L 128.230063 -20.27389 L 128.745688 -20.016085 L 129.03475 -20.047334 L 129.03475 -21.176207 L 129.132406 -21.238705 L 129.710531 -21.398856 L 130.09725 -21.305109 L 131.323813 -20.9809 L 131.546469 -20.754344 L 131.835531 -20.851998 L 131.835531 -22.238675 L 132.480063 -22.848031 L 132.737875 -22.976934 L 132.995688 -23.172241 L 132.737875 -23.234739 L 132.577719 -23.172241 L 131.835531 -23.074587 L 131.417563 -23.20349 L 130.968344 -23.172241 L 130.323813 -23.461294 L 129.968344 -23.461294 L 128.808188 -23.20349 L 127.776938 -23.234739 L 127.394125 -23.750348 L 126.007406 -23.879251 L 125.523031 -24.043308 L 125.300375 -24.652665 L 125.042563 -24.879221 L 124.944906 -24.847971 L 124.655844 -24.523762 L 123.7535 -25.008123 L 123.624594 -25.008123 L 123.398031 -24.683914 L 123.237875 -24.719069 L 122.851156 -25.586231 L 122.655844 -26.390894 L 122.023031 -27.789289 L 121.788656 -27.582264 L 121.515219 -27.375239 L 121.1285 -25.32452 L 120.421469 -25.054997 L 120.015219 -24.597979 L 117.59725 -24.05112 L 117.030844 -23.844095 L 115.390219 -23.414421 L 113.816 -23.183959 Z M 113.077719 -22.160552 " transform="matrix(1,0,0,-1.00003,0.059,-0.567467)"/>
<path style="fill-rule:nonzero;fill:rgb(89.99939%,89.99939%,89.99939%);fill-opacity:1;stroke-width:0.69739;stroke-linecap:butt;stroke-linejoin:miter;stroke:rgb(100%,100%,100%);stroke-opacity:1;stroke-miterlimit:10;" d="M 168.269125 -30.695452 L 168.331625 -29.632984 L 167.757406 -27.484611 L 167.6285 -27.418207 L 167.046469 -27.160402 L 167.206625 -26.582294 L 167.046469 -26.160432 L 166.507406 -25.238585 L 166.702719 -24.46517 L 166.542563 -23.433951 L 166.058188 -22.144928 L 165.898031 -21.164488 L 171.163656 -19.824685 L 171.22225 -20.922308 L 171.605063 -21.469167 L 171.605063 -22.27383 L 170.866781 -23.281612 L 170.351156 -23.512074 L 170.34725 -23.734724 L 170.608969 -24.035496 L 170.546469 -25.648729 L 170.425375 -27.49633 L 170.382406 -28.601765 L 170.573813 -28.85957 L 170.542563 -29.769699 L 170.444906 -30.109532 L 170.648031 -30.254059 L 169.167563 -30.550925 Z M 168.269125 -30.695452 " transform="matrix(1,0,0,-1.00003,0.059,-0.567467)"/>
<path style="fill-rule:nonzero;fill:rgb(89.99939%,89.99939%,89.99939%);fill-opacity:1;stroke-width:0.69739;stroke-linecap:butt;stroke-linejoin:miter;stroke:rgb(100%,100%,100%);stroke-opacity:1;stroke-miterlimit:10;" d="M 183.882406 -15.707621 L 184.269125 -16.125577 L 184.718344 -16.867742 L 184.718344 -17.254449 L 184.300375 -18.188015 L 183.913656 -18.316917 L 183.237875 -18.93018 L 182.269125 -20.023897 C 182.269125 -20.023897 182.140219 -20.023897 182.011313 -20.023897 C 181.882406 -20.023897 181.819906 -19.605941 181.819906 -19.605941 L 181.464438 -19.63719 L 181.273031 -19.926244 L 180.788656 -20.215298 L 180.59725 -20.508258 L 180.917563 -20.797312 L 180.819906 -20.926214 L 180.726156 -21.473073 L 180.339438 -21.441824 L 180.339438 -21.117615 L 180.273031 -20.85981 L 179.983969 -20.926214 L 179.6285 -20.281702 L 179.210531 -20.539507 L 179.468344 -20.828561 L 179.53475 -21.055117 L 179.370688 -21.312921 L 179.437094 -21.926184 L 179.468344 -22.246487 L 179.148031 -22.762097 L 178.566 -22.85975 L 178.5035 -23.437858 L 177.441 -24.05112 L 177.183188 -24.148774 L 176.858969 -23.855814 L 176.245688 -24.56673 L 176.441 -25.211242 L 176.151938 -25.469047 L 176.116781 -26.336208 L 175.894125 -27.586171 L 175.405844 -27.355709 L 175.308188 -26.742446 L 174.53475 -26.51589 L 174.468344 -25.969032 L 173.019125 -21.297297 L 172.085531 -18.383322 L 172.366781 -18.355979 L 172.667563 -18.438008 L 172.667563 -17.922398 L 172.929281 -17.027894 L 173.444906 -16.094328 L 173.733969 -15.289664 L 173.34725 -14.805304 L 173.34725 -13.613934 L 173.507406 -13.418627 L 173.671469 -12.871768 L 173.636313 -12.582714 L 173.605063 -11.6179 L 173.960531 -10.649179 L 174.538656 -8.879701 L 174.960531 -8.039882 L 175.218344 -8.039882 L 175.47225 -8.075037 L 175.47225 -8.297687 L 175.730063 -8.750798 L 176.280844 -8.879701 L 176.441 -8.715643 L 176.441 -8.524242 L 177.245688 -7.946135 L 177.601156 -7.590677 L 177.890219 -7.621926 L 179.081625 -8.106286 L 179.468344 -8.297687 L 181.273031 -14.258445 L 182.464438 -14.258445 L 182.624594 -14.645153 L 182.655844 -15.609967 L 183.237875 -16.063079 L 183.398031 -16.063079 L 183.429281 -15.965425 L 183.335531 -15.73887 Z M 179.710531 -21.715253 L 180.015219 -21.406668 L 180.288656 -21.6176 L 180.401938 -22.10196 L 180.066 -22.277736 Z M 181.046469 -20.539507 L 181.401938 -20.91059 C 181.401938 -20.91059 181.65975 -20.926214 181.65975 -20.85981 C 181.65975 -20.797312 181.706625 -20.457478 181.706625 -20.457478 L 181.886313 -20.297327 L 181.72225 -19.941869 L 181.319906 -20.086396 Z M 181.046469 -20.539507 " transform="matrix(1,0,0,-1.00003,0.059,-0.567467)"/>
<path style="fill-rule:nonzero;fill:rgb(89.99939%,89.99939%,89.99939%);fill-opacity:1;stroke-width:0.69739;stroke-linecap:butt;stroke-linejoin:miter;stroke:rgb(100%,100%,100%);stroke-opacity:1;stroke-miterlimit:10;" d="M 174.163656 -35.644523 L 173.429281 -32.664143 L 174.675375 -32.296967 L 175.112875 -32.683674 L 175.773031 -33.543023 L 176.308188 -34.421903 L 175.710531 -34.742206 L 175.452719 -34.710957 L 175.226156 -35.066415 L 174.741781 -35.453122 Z M 174.163656 -35.644523 " transform="matrix(1,0,0,-1.00003,0.059,-0.567467)"/>
<path style="fill-rule:nonzero;fill:rgb(89.99939%,89.99939%,89.99939%);fill-opacity:1;stroke-width:0.69739;stroke-linecap:butt;stroke-linejoin:miter;stroke:rgb(100%,100%,100%);stroke-opacity:1;stroke-miterlimit:10;" d="M 165.456625 -37.609307 L 165.233969 -37.414001 L 164.718344 -37.382752 L 164.265219 -36.996045 L 163.941 -35.777331 L 163.2535 -35.792956 L 162.765219 -35.253909 L 158.901938 -36.128883 L 150.335531 -37.867112 L 148.835531 -38.109292 L 148.687094 -36.820269 L 148.97225 -36.597619 L 149.230063 -36.371063 L 149.421469 -36.05076 L 149.776938 -35.824205 L 150.163656 -35.468747 L 150.261313 -35.148444 L 150.679281 -34.601585 L 150.905844 -34.406278 L 150.870688 -34.214878 L 150.612875 -33.601615 L 150.261313 -33.570366 L 149.874594 -32.347746 L 150.452719 -31.992288 L 151.323813 -31.703235 L 152.1285 -31.44543 L 152.773031 -31.347776 L 154.026938 -31.316527 L 154.413656 -31.574332 L 154.737875 -31.605581 L 155.155844 -31.347776 L 155.671469 -31.121221 L 156.702719 -31.023567 L 157.120688 -30.672016 L 157.476156 -30.027504 L 157.796469 -29.640796 L 158.214438 -29.640796 L 158.601156 -29.414241 L 158.636313 -28.965035 L 158.343344 -28.543173 L 158.280844 -28.254119 L 158.507406 -27.836163 L 158.507406 -27.547109 L 158.151938 -27.547109 L 157.796469 -27.386958 L 157.636313 -27.160402 L 157.605063 -26.644793 L 158.765219 -25.551075 L 158.894125 -25.387018 L 159.183188 -24.80891 L 159.761313 -23.906593 L 160.308188 -23.164428 L 160.730063 -22.683974 L 161.210531 -22.316797 L 161.823813 -22.070711 L 162.917563 -21.812906 L 163.562094 -21.844155 L 164.464438 -21.555102 L 165.97225 -21.141051 L 166.077719 -22.133209 L 166.558188 -23.422233 L 166.72225 -24.453452 L 166.526938 -25.226866 L 167.042563 -26.129183 L 167.202719 -26.547139 L 167.042563 -27.129153 L 167.620688 -27.386958 L 167.749594 -27.449456 L 168.362875 -29.640796 L 168.257406 -30.648579 L 168.15975 -32.804764 L 168.319906 -33.902387 L 168.483969 -34.609397 L 168.773031 -36.058573 L 168.773031 -37.671806 L 168.546469 -38.121011 L 168.913656 -38.519436 L 169.069906 -38.851458 L 168.687094 -39.206916 L 168.749594 -39.46472 L 169.007406 -39.402222 L 169.296469 -39.144418 L 169.749594 -38.628808 L 169.97225 -38.499906 L 170.296469 -38.628808 L 170.745688 -38.660057 L 172.323813 -37.886643 L 172.905844 -37.339784 L 173.163656 -37.05073 L 173.999594 -37.371033 L 173.323813 -38.078043 L 172.550375 -38.660057 L 171.132406 -39.722525 L 170.616781 -39.913926 L 169.456625 -40.300633 L 168.651938 -40.527189 L 168.417563 -40.421723 L 168.370688 -39.68737 L 168.468344 -39.140511 L 168.433188 -38.718649 L 167.874594 -38.382722 L 166.97225 -38.187415 L 166.198813 -37.964765 Z M 165.456625 -37.609307 " transform="matrix(1,0,0,-1.00003,0.059,-0.567467)"/>
<path style="fill-rule:nonzero;fill:rgb(89.99939%,89.99939%,89.99939%);fill-opacity:1;stroke-width:0.69739;stroke-linecap:butt;stroke-linejoin:miter;stroke:rgb(100%,100%,100%);stroke-opacity:1;stroke-miterlimit:10;" d="M 164.40975 -44.773155 L 164.671469 -44.718469 L 165.136313 -44.468477 L 165.3785 -43.972398 L 165.698813 -43.523192 L 166.343344 -42.90993 L 166.343344 -42.749778 L 165.858969 -42.425569 L 165.151938 -41.945115 L 164.956625 -41.429505 L 164.40975 -41.363101 L 164.3785 -41.136545 L 164.218344 -40.589687 L 164.667563 -40.363131 L 164.702719 -39.882677 L 164.444906 -39.624872 L 164.476156 -39.300663 L 164.862875 -38.691306 L 164.862875 -38.078043 L 165.398031 -37.550715 L 165.214438 -37.417907 L 164.714438 -37.378846 L 164.257406 -36.992138 L 163.948813 -35.773425 L 163.249594 -35.792956 L 162.761313 -35.253909 L 159.155844 -36.089822 L 150.585531 -37.828051 L 148.816 -38.121011 L 148.691 -36.820269 L 147.620688 -37.831957 L 147.366781 -37.925704 L 146.526938 -38.527249 L 147.108969 -42.339634 L 147.601156 -44.277076 L 148.312094 -48.116805 L 148.964438 -47.987902 L 151.343344 -47.691036 L 158.901938 -46.163738 L 161.866781 -45.601255 L 163.519125 -45.277046 L 163.573813 -45.230173 L 163.991781 -44.905963 Z M 164.40975 -44.773155 " transform="matrix(1,0,0,-1.00003,0.059,-0.567467)"/>
<path style="fill-rule:nonzero;fill:rgb(89.99939%,89.99939%,89.99939%);fill-opacity:1;stroke-width:0.69739;stroke-linecap:butt;stroke-linejoin:miter;stroke:rgb(100%,100%,100%);stroke-opacity:1;stroke-miterlimit:10;" d="M 165.319906 -37.550715 L 164.855063 -38.097574 L 164.855063 -38.706931 L 164.468344 -39.320194 L 164.437094 -39.644403 L 164.694906 -39.902207 L 164.663656 -40.382662 L 164.210531 -40.609217 L 164.374594 -41.156076 L 164.405844 -41.382632 L 164.952719 -41.44513 L 165.144125 -41.960739 L 165.855063 -42.4451 L 166.339438 -42.769309 L 166.339438 -42.92946 L 165.741781 -43.4646 L 165.421469 -43.917712 L 165.132406 -44.46457 L 164.679281 -44.722375 L 164.589438 -45.042678 L 164.538656 -45.280952 L 164.417563 -45.800468 L 164.636313 -46.249673 L 165.280844 -46.827781 L 166.245688 -47.280892 L 167.050375 -47.409795 L 167.085531 -47.698848 L 166.921469 -47.894155 L 166.987875 -48.441014 L 167.148031 -48.441014 L 167.566 -47.956653 L 167.730063 -46.991838 L 168.276938 -46.183269 L 168.886313 -44.898151 L 169.112875 -43.800528 L 168.983969 -43.573972 L 168.952719 -41.706841 L 168.6285 -41.03108 L 168.405844 -41.191231 L 167.858969 -41.257635 L 167.761313 -41.159982 L 167.987875 -40.968582 L 168.405844 -40.581874 L 168.417563 -40.363131 L 168.339438 -39.679558 L 168.456625 -39.128793 L 168.433188 -38.73818 L 167.870688 -38.390534 L 166.858969 -38.156166 L 166.03475 -37.878831 Z M 165.319906 -37.550715 " transform="matrix(1,0,0,-1.00003,0.059,-0.567467)"/>
<path style="fill-rule:nonzero;fill:rgb(89.99939%,89.99939%,89.99939%);fill-opacity:1;stroke-width:0.69739;stroke-linecap:butt;stroke-linejoin:miter;stroke:rgb(100%,100%,100%);stroke-opacity:1;stroke-miterlimit:10;" d="M 164.511313 -45.484071 L 164.585531 -45.058303 L 164.65975 -44.722375 L 164.335531 -44.800498 L 164.015219 -44.894245 L 163.573813 -45.245797 L 163.917563 -46.249673 L 164.366781 -47.378546 L 164.788656 -49.312081 L 165.108969 -50.56595 L 166.108969 -50.534701 L 167.331625 -50.300333 L 166.8785 -48.827721 L 166.687094 -48.925374 L 165.980063 -48.441014 L 165.624594 -47.507448 L 165.237875 -46.796532 L 164.608969 -46.226236 L 164.437094 -45.80828 Z M 164.511313 -45.484071 " transform="matrix(1,0,0,-1.00003,0.059,-0.567467)"/>
<path style="fill-rule:nonzero;fill:rgb(89.99939%,89.99939%,89.99939%);fill-opacity:1;stroke-width:0.69739;stroke-linecap:butt;stroke-linejoin:miter;stroke:rgb(100%,100%,100%);stroke-opacity:1;stroke-miterlimit:10;" d="M 167.335531 -50.296427 L 166.136313 -50.534701 L 165.112875 -50.558138 L 164.745688 -49.179273 L 164.358969 -47.351203 L 163.84725 -46.120771 L 163.593344 -45.241891 L 162.09725 -45.5661 L 159.132406 -46.128583 L 151.667563 -47.632444 L 151.894125 -48.632414 L 152.089438 -49.75738 L 152.151938 -49.694882 L 152.569906 -49.210522 L 153.023031 -48.691006 L 153.5035 -48.56601 L 153.796469 -48.276956 L 154.148031 -47.761347 L 154.405844 -47.890249 L 154.987875 -47.827751 L 155.5035 -47.405888 L 155.901938 -47.116835 L 156.269125 -47.023087 L 156.59725 -47.245737 L 157.179281 -47.534791 L 157.562094 -47.890249 L 157.804281 -48.194927 L 158.6285 -48.534761 L 158.6285 -49.112869 L 159.72225 -49.370673 L 159.948813 -49.480045 L 160.230063 -49.077713 L 160.804281 -49.468327 L 160.550375 -49.964405 L 160.398031 -50.75735 L 160.042563 -51.27296 L 160.042563 -51.690916 L 160.171469 -52.046374 L 161.183188 -52.315897 L 162.042563 -52.304179 L 162.651938 -52.49558 L 163.073813 -52.561984 L 163.265219 -52.144028 L 162.976156 -51.722165 L 162.976156 -51.370613 L 162.491781 -50.952657 L 162.073813 -49.855034 L 162.331625 -48.792566 L 162.300375 -48.374609 L 162.042563 -48.116805 C 162.042563 -48.116805 162.331625 -47.792596 162.331625 -47.663693 C 162.331625 -47.534791 162.429281 -47.245737 162.429281 -47.245737 L 162.816 -46.987932 L 163.198813 -46.667629 L 163.296469 -46.85903 L 163.007406 -47.183239 L 162.749594 -47.921498 L 162.816 -48.148054 L 163.167563 -48.214458 L 163.265219 -49.308175 L 162.84725 -49.499576 L 162.90975 -50.210492 L 163.007406 -50.179243 L 163.233969 -49.792536 L 163.554281 -50.144088 L 163.233969 -50.401892 L 163.167563 -51.081559 L 163.683188 -51.75732 L 164.456625 -51.851068 L 164.780844 -51.690916 L 165.425375 -52.526829 L 165.694906 -52.632294 L 167.019125 -52.073717 L 167.421469 -51.27296 Z M 164.151938 -52.093248 L 164.3785 -52.593233 L 164.40975 -52.948691 L 164.636313 -53.319774 C 164.636313 -53.319774 164.812094 -53.140091 164.812094 -53.077593 C 164.812094 -53.011189 164.667563 -52.46433 164.667563 -52.46433 L 164.523031 -51.999501 Z M 164.151938 -52.093248 " transform="matrix(1,0,0,-1.00003,0.059,-0.567467)"/>
<path style="fill-rule:nonzero;fill:rgb(89.99939%,89.99939%,89.99939%);fill-opacity:1;stroke-width:0.69739;stroke-linecap:butt;stroke-linejoin:miter;stroke:rgb(100%,100%,100%);stroke-opacity:1;stroke-miterlimit:10;" d="M 165.710531 -53.015095 L 165.679281 -52.628388 L 166.964438 -52.120591 L 166.812094 -52.761197 L 166.230063 -53.51508 L 166.148031 -54.429115 L 166.237875 -55.104876 L 165.874594 -56.097034 L 165.444906 -56.475929 L 165.151938 -55.554082 L 165.241781 -54.468177 L 165.558188 -53.632264 Z M 166.374594 -58.655551 L 154.78475 -61.159382 L 147.323813 -62.214038 L 145.995688 -62.139821 L 145.480063 -62.522622 L 144.019125 -62.56559 L 142.34725 -62.760897 L 140.171469 -63.081199 L 142.257406 -61.964045 L 142.257406 -61.549995 L 142.558188 -61.124227 L 144.65975 -58.831327 L 145.448813 -59.721925 L 146.202719 -59.917232 L 146.710531 -59.68677 L 147.155844 -59.428965 L 147.65975 -59.694582 L 148.441 -59.409435 L 148.812094 -58.503212 L 149.331625 -58.608677 L 149.901938 -58.186815 L 150.257406 -58.284468 L 150.823813 -57.550115 L 150.890219 -57.136065 L 150.698813 -56.882167 L 150.898031 -56.511084 L 151.952719 -54.061939 L 152.073813 -52.921348 L 152.319906 -52.815882 L 152.7535 -53.304149 L 153.538656 -53.241651 L 153.921469 -51.733884 L 154.476156 -51.624512 L 154.687094 -51.077653 L 155.202719 -50.608917 L 155.7535 -49.472233 L 155.769125 -48.46445 L 157.726156 -49.226146 C 157.862875 -49.292551 157.894125 -48.218364 157.894125 -48.218364 L 158.620688 -48.538667 L 158.636313 -49.124587 L 159.788656 -49.382392 L 160.210531 -49.61676 L 160.542563 -50.026904 L 160.413656 -50.753444 L 160.023031 -51.269054 L 160.046469 -51.679198 L 160.163656 -52.05028 L 161.155844 -52.304179 L 162.042563 -52.311991 L 162.655844 -52.499486 L 163.042563 -52.561984 L 163.183188 -53.179153 L 163.819906 -53.257275 L 163.991781 -53.499456 L 163.905844 -54.433021 L 164.179281 -54.651765 L 164.085531 -55.034566 L 164.327719 -55.194717 L 164.28475 -55.468147 L 163.745688 -55.452522 L 163.765219 -55.772825 L 164.218344 -56.081409 L 164.245688 -56.362651 L 164.59725 -56.718109 L 164.694906 -57.222 L 164.187094 -57.49543 L 164.499594 -57.792296 L 165.655844 -57.456368 Z M 166.374594 -58.655551 " transform="matrix(1,0,0,-1.00003,0.059,-0.567467)"/>
<path style="fill-rule:nonzero;fill:rgb(89.99939%,89.99939%,89.99939%);fill-opacity:1;stroke-width:0.69739;stroke-linecap:butt;stroke-linejoin:miter;stroke:rgb(100%,100%,100%);stroke-opacity:1;stroke-miterlimit:10;" d="M 151.671469 -47.61682 L 151.894125 -48.601165 L 152.108969 -49.804254 L 152.53475 -49.288645 L 152.983969 -48.675382 L 153.487875 -48.554292 L 153.780844 -48.265238 L 154.132406 -47.749628 L 154.421469 -47.878531 L 154.999594 -47.812126 L 155.515219 -47.39417 L 155.917563 -47.105116 L 156.28475 -47.007463 L 156.542563 -47.210582 L 157.269125 -47.573852 L 157.655844 -47.92931 L 157.929281 -48.187115 L 157.776938 -49.292551 L 156.616781 -48.784753 L 155.769125 -48.46445 L 155.749594 -49.49567 L 155.202719 -50.597199 L 154.698813 -51.081559 L 154.460531 -51.628418 L 153.933188 -51.729978 L 153.7535 -52.4448 L 153.546469 -53.233839 L 152.757406 -53.300243 L 152.292563 -52.815882 L 152.081625 -52.925254 L 151.952719 -54.015065 L 151.687094 -54.722075 L 150.698813 -56.905604 L 150.874594 -57.136065 L 150.835531 -57.51496 L 150.276938 -58.288375 L 149.913656 -58.182909 L 149.323813 -58.612584 L 148.816 -58.499306 L 148.417563 -59.405529 C 148.417563 -59.405529 147.769125 -59.690676 147.636313 -59.678958 C 147.605063 -59.675052 147.144125 -59.428965 147.144125 -59.428965 L 146.679281 -59.702395 L 146.198813 -59.913326 L 145.452719 -59.733644 L 145.230063 -59.503182 L 144.792563 -58.897731 L 144.167563 -58.503212 L 143.823813 -57.780577 L 142.97225 -57.089192 L 142.843344 -56.639986 L 142.327719 -56.350933 L 142.167563 -56.026724 L 142.116781 -54.97988 L 142.554281 -54.964255 L 142.941 -54.804104 L 142.97225 -54.257245 L 143.292563 -53.964285 L 143.327719 -52.968222 L 143.519125 -52.194807 L 143.776938 -52.065905 L 144.03475 -52.292461 L 144.132406 -52.644013 L 144.483969 -52.452612 L 144.581625 -52.128403 L 144.355063 -51.776851 L 144.355063 -51.292491 L 144.550375 -51.034686 L 144.999594 -50.358925 L 145.257406 -50.069871 L 145.679281 -50.163618 L 146.1285 -49.843315 L 146.741781 -49.167554 L 147.191 -48.39414 L 147.257406 -47.265268 L 147.351156 -46.265298 L 147.351156 -45.331732 L 147.1285 -44.722375 L 147.319906 -44.429415 L 147.577719 -44.171611 L 148.273031 -48.124617 L 149.194906 -47.976184 Z M 151.671469 -47.61682 " transform="matrix(1,0,0,-1.00003,0.059,-0.567467)"/>
<path style="fill-rule:nonzero;fill:rgb(89.99939%,89.99939%,89.99939%);fill-opacity:1;stroke-width:0.69739;stroke-linecap:butt;stroke-linejoin:miter;stroke:rgb(100%,100%,100%);stroke-opacity:1;stroke-miterlimit:10;" d="M 146.519125 -38.523342 L 145.304281 -39.328006 L 144.530844 -39.781117 L 143.855063 -40.519376 L 143.050375 -41.292791 L 142.405844 -41.456848 L 141.823813 -41.550595 L 140.730063 -42.066205 L 140.312094 -42.10136 L 139.636313 -41.488097 L 138.605063 -41.617 L 138.089438 -41.327946 L 137.612875 -41.058423 L 136.640219 -41.199043 L 134.608969 -41.519346 L 132.3785 -41.956833 L 132.636313 -44.870808 L 132.987875 -47.609007 L 133.5035 -52.280742 L 133.616781 -53.241651 L 134.437094 -53.214308 L 134.921469 -53.054157 L 135.593344 -53.354929 L 136.0035 -54.225996 L 137.026938 -54.22209 L 137.405844 -54.643953 L 137.757406 -54.628328 L 138.261313 -54.362711 L 138.761313 -54.436928 L 139.839438 -54.534581 L 140.183188 -54.108812 L 140.651938 -53.851008 L 141.066 -53.714293 L 141.194906 -54.261152 L 141.546469 -54.456458 L 142.241781 -54.921288 L 142.675375 -54.905664 L 142.941 -54.80801 L 142.976156 -54.257245 L 143.292563 -53.968192 L 143.312094 -53.011189 C 143.312094 -53.011189 143.519125 -52.194807 143.519125 -52.194807 L 143.776938 -52.073717 L 144.038656 -52.304179 L 144.148031 -52.640106 L 144.487875 -52.433081 L 144.577719 -52.144028 L 144.355063 -51.765133 L 144.366781 -51.304209 L 144.519125 -51.089372 L 144.944906 -50.429235 L 145.155844 -50.124557 L 145.573813 -50.218304 L 146.026938 -49.898001 L 146.636313 -49.22224 L 147.191 -48.409765 L 147.2535 -47.401982 L 147.351156 -46.402012 L 147.316 -45.34345 L 147.124594 -44.769249 L 147.194906 -44.530975 L 147.554281 -44.183329 L 147.09725 -42.378696 Z M 146.519125 -38.523342 " transform="matrix(1,0,0,-1.00003,0.059,-0.567467)"/>
<path style="fill-rule:nonzero;fill:rgb(89.99939%,89.99939%,89.99939%);fill-opacity:1;stroke-width:0.69739;stroke-linecap:butt;stroke-linejoin:miter;stroke:rgb(100%,100%,100%);stroke-opacity:1;stroke-miterlimit:10;" d="M 123.452719 -59.772705 L 123.464438 -59.20241 L 123.562094 -58.300093 L 124.015219 -57.718079 L 124.366781 -56.948571 L 124.882406 -56.108752 L 124.788656 -54.948631 L 124.433188 -54.401772 L 124.366781 -53.75726 L 124.530844 -52.663543 L 124.433188 -51.276866 L 124.175375 -48.089462 L 123.917563 -45.027054 L 123.72225 -42.691186 L 124.335531 -42.870868 L 124.624594 -43.062269 L 124.851156 -42.999771 L 125.269125 -42.613064 L 125.831625 -42.288855 L 126.84725 -42.257605 L 131.230063 -41.8084 L 132.339438 -41.699028 L 132.640219 -44.878621 L 133.487875 -52.22215 L 133.605063 -53.370553 L 133.530844 -53.823665 L 133.776938 -54.179123 L 133.796469 -54.452552 L 133.292563 -54.772855 L 132.589438 -55.081439 L 131.948813 -55.190811 L 131.831625 -56.159532 L 130.917563 -56.819669 L 130.362875 -57.620426 L 130.425375 -58.093068 L 130.312094 -58.397746 L 129.648031 -58.397746 L 129.331625 -58.077443 L 128.835531 -58.327436 L 128.300375 -58.628208 L 128.331625 -59.237565 L 128.093344 -59.288345 L 128.0035 -59.085226 L 127.569906 -58.784453 L 126.921469 -59.053977 L 126.612875 -59.651615 L 126.327719 -59.491463 L 126.038656 -59.171161 L 125.148031 -59.268814 L 124.03475 -59.460214 Z M 123.452719 -59.772705 " transform="matrix(1,0,0,-1.00003,0.059,-0.567467)"/>
<path style="fill-rule:nonzero;fill:rgb(89.99939%,89.99939%,89.99939%);fill-opacity:1;stroke-width:0.69739;stroke-linecap:butt;stroke-linejoin:miter;stroke:rgb(100%,100%,100%);stroke-opacity:1;stroke-miterlimit:10;" d="M 123.448813 -59.846922 L 123.452719 -59.20241 L 123.566 -58.276656 L 124.030844 -57.694642 L 124.401938 -56.882167 L 124.84725 -56.085316 L 124.773031 -55.038472 L 124.374594 -54.335368 L 124.355063 -53.667419 L 124.495688 -52.61667 L 124.327719 -51.187025 L 124.116781 -48.042588 L 123.858969 -45.05049 L 123.675375 -42.730248 L 123.620688 -42.546659 L 123.460531 -42.03105 L 123.202719 -41.292791 L 122.8785 -40.937333 L 122.589438 -40.421723 L 122.542563 -39.328006 L 113.417563 -39.847521 L 113.464438 -40.320164 L 113.921469 -40.456878 L 114.101156 -40.683434 L 114.194906 -41.046704 L 114.968344 -41.730278 L 115.105063 -42.187295 L 114.968344 -42.870868 L 114.605063 -43.597409 L 114.468344 -44.1013 L 114.011313 -44.46457 L 113.648031 -44.601285 L 112.59725 -44.874714 L 112.460531 -45.237985 L 112.323813 -45.648129 L 112.460531 -45.921558 L 112.827719 -46.241861 L 112.780844 -47.062149 L 112.417563 -47.378546 L 112.280844 -47.698848 L 112.280844 -48.245707 L 111.913656 -48.335548 L 111.59725 -48.56601 L 111.550375 -48.835533 L 111.59725 -49.245677 L 111.2535 -49.511294 L 111.050375 -50.065965 L 111.140219 -50.796412 L 111.59725 -52.253399 L 113.054281 -53.75726 L 114.148031 -54.487707 L 114.101156 -55.350963 L 114.28475 -55.624392 L 115.558188 -55.718139 L 116.105063 -55.987662 L 115.968344 -56.718109 L 115.515219 -57.901667 L 115.3785 -58.542273 L 115.831625 -59.315687 L 117.108969 -60.362531 L 118.019125 -60.499246 L 118.429281 -61.503122 L 118.839438 -62.139821 L 118.655844 -62.729648 L 118.976156 -63.549935 L 119.339438 -63.960079 L 119.620688 -63.784303 L 119.804281 -63.374159 L 120.245688 -63.022607 L 120.667563 -62.901517 L 121.187094 -63.135885 L 121.90975 -63.413221 L 122.148031 -63.350723 L 122.187094 -62.901517 L 121.929281 -62.421063 L 121.991781 -61.948421 L 122.358969 -61.678898 L 122.960531 -61.518746 L 123.210531 -61.424999 L 123.089438 -61.15157 L 122.933188 -60.682834 L 123.218344 -60.483621 Z M 123.448813 -59.846922 " transform="matrix(1,0,0,-1.00003,0.059,-0.567467)"/>
<path style="fill-rule:nonzero;fill:rgb(89.99939%,89.99939%,89.99939%);fill-opacity:1;stroke-width:0.69739;stroke-linecap:butt;stroke-linejoin:miter;stroke:rgb(100%,100%,100%);stroke-opacity:1;stroke-miterlimit:10;" d="M 174.163656 -35.640616 L 173.429281 -32.675862 L 172.491781 -32.85945 L 168.261313 -33.804734 L 168.460531 -34.44534 L 168.749594 -35.894515 L 168.78475 -37.683524 L 168.542563 -38.117105 L 168.925375 -38.499906 L 169.776938 -37.722585 L 170.483969 -37.078073 L 170.870688 -36.660117 L 171.030844 -36.789019 L 171.577719 -36.499966 L 172.608969 -36.27341 Z M 174.163656 -35.640616 " transform="matrix(1,0,0,-1.00003,0.059,-0.567467)"/>
<path style="fill-rule:nonzero;fill:rgb(89.99939%,89.99939%,89.99939%);fill-opacity:1;stroke-width:0.69739;stroke-linecap:butt;stroke-linejoin:miter;stroke:rgb(100%,100%,100%);stroke-opacity:1;stroke-miterlimit:10;" d="M 122.554281 -39.328006 L 122.542563 -38.699118 L 122.308188 -37.796802 L 122.179281 -36.570276 L 121.952719 -36.089822 L 122.148031 -35.476559 L 122.308188 -34.898451 L 122.59725 -34.382842 L 122.468344 -33.703175 L 122.339438 -32.996165 L 122.437094 -32.640706 L 122.823813 -32.160252 L 122.855063 -31.609487 L 122.694906 -31.351683 L 122.823813 -30.839979 L 122.733969 -30.007973 L 123.280844 -28.879101 L 123.858969 -27.527579 L 123.894125 -27.074467 L 123.827719 -26.883067 L 123.667563 -26.98072 L 122.827719 -28.234589 L 122.280844 -29.039252 L 121.894125 -29.39471 L 121.733969 -29.847821 L 121.343344 -30.007973 L 121.120688 -30.39468 L 120.827719 -30.328276 L 120.796469 -29.976724 L 121.054281 -29.492363 L 121.47225 -28.558798 L 121.827719 -28.234589 L 122.026938 -27.765853 L 121.515219 -27.386958 L 121.120688 -25.320614 L 120.413656 -25.054997 L 120.026938 -24.594073 L 117.608969 -24.05112 L 117.038656 -23.848001 L 115.401938 -23.418327 L 113.823813 -23.187865 L 113.073813 -22.164458 L 112.921469 -22.27383 L 112.683188 -22.242581 L 112.554281 -22.016025 L 112.288656 -22.074617 L 112.062094 -22.109772 L 111.710531 -22.301173 L 111.515219 -22.172271 L 111.644125 -21.785563 L 112.030844 -21.176207 L 112.257406 -20.949651 L 111.870688 -20.660597 L 111.452719 -20.820749 L 110.870688 -21.207456 L 109.390219 -21.851968 L 108.812094 -21.98087 L 108.230063 -21.883217 L 108.03475 -21.707441 L 107.612875 -22.27383 L 107.566 -22.820689 L 107.566 -24.504232 L 107.339438 -24.824535 L 106.292563 -25.597949 L 105.835531 -26.781507 L 105.929281 -26.828381 L 106.429281 -27.238525 L 106.566 -27.875224 L 106.202719 -28.51583 L 106.202719 -29.289244 L 106.292563 -30.609517 L 106.886313 -31.20325 L 107.566 -31.20325 L 107.933188 -31.839949 L 108.616781 -31.92979 L 109.390219 -33.070381 L 110.800375 -33.890669 L 111.210531 -34.437528 L 111.394125 -35.917952 L 111.530844 -36.578088 L 111.987875 -36.894485 L 112.030844 -37.167914 L 111.620688 -37.851488 L 111.667563 -38.492093 L 112.167563 -39.265508 L 112.671469 -39.492063 L 113.261313 -39.581904 L 113.530844 -39.85924 Z M 122.554281 -39.328006 " transform="matrix(1,0,0,-1.00003,0.059,-0.567467)"/>
<path style="fill-rule:nonzero;fill:rgb(89.99939%,89.99939%,89.99939%);fill-opacity:1;stroke-width:0.69739;stroke-linecap:butt;stroke-linejoin:miter;stroke:rgb(100%,100%,100%);stroke-opacity:1;stroke-miterlimit:10;" d="M 166.374594 -58.643833 L 166.792563 -59.624272 L 167.499594 -60.913296 L 167.983969 -61.39375 L 168.112875 -61.846862 L 167.6285 -61.878111 L 167.788656 -62.007013 L 167.726156 -62.846832 L 167.210531 -63.104636 L 167.081625 -63.522592 L 166.823813 -64.1007 L 166.081625 -64.424909 L 165.59725 -64.358505 L 165.308188 -64.327256 L 164.987875 -64.069451 L 165.050375 -64.327256 L 165.050375 -64.518656 L 165.437094 -64.518656 L 165.59725 -64.776461 L 165.210531 -66.034236 L 166.050375 -66.034236 L 166.179281 -66.354539 L 166.6285 -65.905334 L 166.886313 -65.80768 L 166.499594 -66.518596 L 165.890219 -67.483411 L 165.632406 -67.483411 L 165.405844 -67.385758 L 164.858969 -67.51466 L 163.827719 -67.999021 L 162.538656 -69.061489 L 161.862875 -69.995055 L 161.476156 -71.284078 L 161.3785 -71.768439 L 160.444906 -71.866092 L 159.358969 -72.131709 L 157.374594 -70.49504 L 154.862875 -68.983366 L 154.28475 -68.823215 L 151.773031 -69.112269 L 150.917563 -69.260702 L 150.59725 -68.61619 L 150.007406 -68.194327 L 146.718344 -68.291981 L 145.269125 -68.452132 L 143.468344 -69.354449 L 142.241781 -69.870058 L 138.023031 -70.385668 L 138.120688 -69.577098 L 138.476156 -69.288045 L 139.023031 -69.159142 L 139.151938 -68.416977 L 139.991781 -67.870118 L 140.765219 -67.581064 L 141.601156 -66.870148 L 142.47225 -66.452192 L 142.601156 -65.838929 L 143.374594 -65.069421 L 143.5035 -65.034266 C 143.5035 -65.034266 143.5035 -65.260822 143.663656 -65.260822 C 143.823813 -65.260822 144.050375 -65.327226 144.050375 -65.327226 L 144.499594 -64.61631 L 144.917563 -64.487407 L 145.370688 -64.553812 L 145.691 -63.842895 L 146.273031 -63.327286 L 146.366781 -62.90933 L 146.405844 -62.182789 L 147.257406 -62.178883 L 148.691 -62.007013 L 151.831625 -61.557808 L 154.84725 -61.143758 L 159.15975 -60.20238 L 163.140219 -59.354749 L 165.370688 -58.874294 Z M 167.226156 -65.260822 L 167.741781 -64.760837 L 168.370688 -64.245227 L 168.675375 -64.116325 L 168.706625 -63.713993 L 168.577719 -62.491373 L 168.288656 -62.022637 L 168.15975 -61.651555 L 168.304281 -61.604681 L 168.851156 -62.698398 L 168.933188 -63.585091 L 168.901938 -64.260852 L 168.226156 -64.569436 L 167.65975 -65.04989 L 167.437094 -65.292071 Z M 167.226156 -65.260822 " transform="matrix(1,0,0,-1.00003,0.059,-0.567467)"/>
<path style="fill-rule:nonzero;fill:rgb(89.99939%,89.99939%,89.99939%);fill-opacity:1;stroke-width:0.69739;stroke-linecap:butt;stroke-linejoin:miter;stroke:rgb(100%,100%,100%);stroke-opacity:1;stroke-miterlimit:10;" d="M 160.566 -49.983936 L 160.194906 -49.61676 L 159.948813 -49.480045 L 160.237875 -49.077713 L 160.812094 -49.468327 Z M 160.566 -49.983936 " transform="matrix(1,0,0,-1.00003,0.059,-0.567467)"/>
<path style="fill-rule:nonzero;fill:rgb(89.99939%,89.99939%,89.99939%);fill-opacity:1;stroke-width:0.69739;stroke-linecap:butt;stroke-linejoin:miter;stroke:rgb(100%,100%,100%);stroke-opacity:1;stroke-miterlimit:10;" d="M 179.257406 -34.523462 L 179.687094 -34.386748 L 179.780844 -34.043008 L 179.983969 -34.066445 L 180.191 -34.523462 L 179.937094 -34.613304 L 179.163656 -34.63674 Z M 177.386313 -34.679708 L 177.843344 -34.156286 L 178.163656 -34.156286 L 178.526938 -34.453152 L 178.046469 -34.660177 L 177.616781 -34.863296 Z M 170.452719 -30.300933 L 173.968344 -29.375179 L 174.421469 -29.246277 L 174.804281 -28.6877 L 175.546469 -28.359585 L 176.124594 -29.238465 L 175.640219 -30.269684 L 175.573813 -30.558738 L 175.960531 -31.074347 L 176.187094 -30.914196 L 176.542563 -30.914196 L 176.991781 -31.425899 L 177.765219 -32.621176 L 178.47225 -32.714923 L 178.925375 -32.523522 L 179.280844 -32.168064 L 179.116781 -31.621206 L 178.698813 -31.296997 L 178.40975 -31.461054 L 178.218344 -31.20325 L 178.312094 -31.105596 L 178.730063 -31.074347 L 179.085531 -31.234499 L 179.47225 -31.718859 L 179.667563 -32.296967 L 179.730063 -32.781327 L 178.894125 -33.070381 L 178.120688 -33.457088 L 177.34725 -34.359405 L 176.960531 -34.648459 L 176.960531 -34.457058 L 177.444906 -34.164098 L 177.538656 -33.812546 L 177.3785 -33.199283 L 176.800375 -33.488337 L 176.636313 -33.777391 L 176.733969 -34.230503 L 176.323813 -34.429715 L 175.776938 -33.527399 L 175.09725 -32.656331 L 174.687094 -32.296967 L 173.386313 -32.671956 L 172.370688 -32.878981 L 168.249594 -33.793016 L 168.116781 -32.843825 L 168.245688 -30.734514 L 169.101156 -30.558738 Z M 170.452719 -30.300933 " transform="matrix(1,0,0,-1.00003,0.059,-0.567467)"/>
<path style="fill-rule:nonzero;fill:rgb(89.99939%,89.99939%,89.99939%);fill-opacity:1;stroke-width:0.69739;stroke-linecap:butt;stroke-linejoin:miter;stroke:rgb(100%,100%,100%);stroke-opacity:1;stroke-miterlimit:10;" d="M 138.816 -63.413221 L 128.476156 -64.413191 L 125.335531 -64.768649 L 124.417563 -64.870208 L 123.644125 -64.862396 L 123.601156 -65.678778 L 121.97225 -65.733464 L 120.585531 -65.862366 L 118.97225 -65.838929 L 118.691 -67.245137 L 118.355063 -68.338854 L 117.698813 -68.885713 L 117.429281 -69.760687 L 117.362875 -70.276296 L 116.558188 -70.725501 L 116.84725 -71.436418 L 116.655844 -72.303579 L 116.464438 -72.463731 L 138.015219 -70.389574 L 138.093344 -69.600535 L 138.456625 -69.303669 L 139.019125 -69.155236 L 139.151938 -68.413071 L 139.968344 -67.874024 L 140.776938 -67.577158 L 141.589438 -66.866242 L 142.476156 -66.460004 L 142.577719 -65.850648 L 143.386313 -65.057703 L 143.499594 -65.034266 C 143.499594 -65.034266 143.5035 -65.260822 143.663656 -65.260822 C 143.827719 -65.260822 144.050375 -65.331132 144.050375 -65.331132 L 144.5035 -64.61631 L 144.913656 -64.487407 L 145.366781 -64.545999 L 145.687094 -63.838989 L 146.276938 -63.315567 L 146.358969 -62.92886 L 146.421469 -62.186695 L 145.991781 -62.147634 L 145.476156 -62.553872 L 144.081625 -62.557778 L 140.425375 -63.034326 Z M 138.816 -63.413221 " transform="matrix(1,0,0,-1.00003,0.059,-0.567467)"/>
<path style="fill-rule:nonzero;fill:rgb(89.99939%,89.99939%,89.99939%);fill-opacity:1;stroke-width:0.69739;stroke-linecap:butt;stroke-linejoin:miter;stroke:rgb(100%,100%,100%);stroke-opacity:1;stroke-miterlimit:10;" d="M 118.323813 -68.354479 L 117.530844 -68.499006 L 116.511313 -68.370103 L 116.59725 -68.053707 L 117.191 -67.542003 L 117.3785 -66.811556 L 117.011313 -66.22173 L 101.386313 -66.721715 L 101.706625 -68.088862 L 101.706625 -69.729438 L 101.980063 -71.912966 L 102.026938 -79.455708 L 102.480063 -79.842415 L 103.073813 -79.568986 L 103.620688 -79.795542 L 103.7535 -81.104096 L 114.839438 -80.877541 L 115.066 -80.463491 L 115.007406 -79.752574 L 114.644125 -79.162748 L 114.964438 -78.865882 L 114.644125 -78.365897 L 114.780844 -77.865912 L 115.054281 -76.748758 L 115.558188 -76.338614 L 115.421469 -75.881597 L 116.148031 -74.811316 L 116.694906 -74.537887 L 116.671469 -74.241021 L 116.605063 -73.877751 L 117.171469 -72.764503 L 117.651938 -72.510604 L 117.730063 -71.830937 L 118.081625 -71.580944 L 117.456625 -71.487197 L 117.187094 -70.68644 L 117.745688 -70.213798 L 117.855063 -69.811466 L 118.108969 -69.002897 Z M 118.323813 -68.354479 " transform="matrix(1,0,0,-1.00003,0.059,-0.567467)"/>
<path style="fill-rule:nonzero;fill:rgb(89.99939%,89.99939%,89.99939%);fill-opacity:1;stroke-width:0.69739;stroke-linecap:butt;stroke-linejoin:miter;stroke:rgb(100%,100%,100%);stroke-opacity:1;stroke-miterlimit:10;" d="M 111.273031 -49.437078 L 110.769125 -48.823815 L 110.542563 -48.366797 L 97.718344 -48.847252 L 97.265219 -48.866782 L 97.515219 -49.370673 L 97.468344 -49.823785 L 97.968344 -50.601105 L 98.585531 -51.421393 L 99.198813 -51.964345 L 99.6285 -52.011219 L 99.929281 -52.194807 L 99.929281 -52.784633 L 99.566 -53.104936 L 99.47225 -53.561954 L 99.882406 -54.245527 L 100.382406 -54.835353 L 100.886313 -55.198623 L 101.15975 -57.522772 L 101.22225 -64.710057 L 101.265219 -65.643623 L 101.358969 -66.717809 L 105.827719 -66.545939 L 110.452719 -66.409225 L 114.59725 -66.249073 L 116.917563 -66.2022 L 117.351156 -66.885773 L 117.214438 -67.545909 L 116.601156 -68.022457 L 116.487875 -68.389634 L 117.558188 -68.479475 L 118.335531 -68.34276 L 118.675375 -67.249043 L 118.804281 -66.081109 L 119.22225 -65.573312 L 119.741781 -65.276446 L 119.749594 -64.670996 L 119.952719 -64.284288 L 119.616781 -63.776491 L 119.351156 -63.971798 L 118.952719 -63.530405 L 118.698813 -62.581214 L 118.858969 -62.077323 L 118.468344 -61.397656 L 118.105063 -60.483621 L 117.148031 -60.32347 L 115.761313 -59.210222 L 115.417563 -58.389934 L 115.577719 -57.753234 L 115.987875 -56.546239 L 116.077719 -55.975944 L 115.691 -55.768919 L 114.323813 -55.608767 L 114.120688 -55.268934 L 114.09725 -54.425209 L 113.0035 -53.741636 L 111.612875 -52.194807 L 111.15975 -50.733914 L 111.112875 -49.894095 Z M 111.273031 -49.437078 " transform="matrix(1,0,0,-1.00003,0.059,-0.567467)"/>
<path style="fill-rule:nonzero;fill:rgb(89.99939%,89.99939%,89.99939%);fill-opacity:1;stroke-width:0.69739;stroke-linecap:butt;stroke-linejoin:miter;stroke:rgb(100%,100%,100%);stroke-opacity:1;stroke-miterlimit:10;" d="M 133.956625 -70.846592 L 133.956625 -71.280172 L 133.991781 -71.698128 L 134.120688 -72.377796 L 134.796469 -73.955873 L 135.280844 -75.920658 L 135.569906 -77.143278 L 135.890219 -78.108092 L 136.179281 -79.49477 L 136.601156 -80.752544 L 137.116781 -81.428305 L 137.210531 -82.104066 L 137.59725 -82.264218 L 137.632406 -82.682174 L 137.276938 -83.650895 L 137.179281 -84.295407 L 137.148031 -84.682114 L 137.468344 -85.549275 L 137.53475 -86.611744 L 137.374594 -87.096104 L 137.5035 -87.256255 L 137.792563 -87.420313 L 137.831625 -88.060919 L 138.276938 -88.728868 L 138.726156 -89.158542 L 140.304281 -89.189791 L 142.460531 -89.060889 L 146.745688 -88.803084 L 147.831625 -88.670276 L 148.741781 -88.674182 L 148.776938 -89.256195 L 149.292563 -89.416347 L 149.355063 -88.545279 L 149.03475 -87.642963 L 149.257406 -87.32266 L 150.417563 -87.482811 L 151.40975 -87.545309 L 151.257406 -86.291441 L 151.706625 -84.295407 L 151.995688 -83.455588 L 151.901938 -82.939979 L 152.566 -81.697828 L 152.464438 -81.428305 L 152.081625 -81.568926 L 151.566 -81.311121 L 151.437094 -80.893165 L 151.179281 -80.182249 L 150.730063 -79.764293 L 150.214438 -79.63539 L 149.890219 -78.670576 L 149.308188 -77.408895 L 148.47225 -77.022188 L 148.050375 -76.63548 L 147.792563 -76.119871 L 147.374594 -75.733164 L 146.925375 -75.475359 L 146.47225 -74.893345 L 145.862875 -74.44414 L 144.960531 -74.088682 L 144.862875 -73.799628 L 144.3785 -73.217614 L 144.28475 -72.92856 L 143.605063 -71.940309 L 142.905844 -71.959839 L 142.155844 -71.491103 L 141.874594 -71.233299 L 141.812094 -70.877841 L 141.983969 -70.491133 L 142.429281 -70.268484 L 142.300375 -69.850528 Z M 133.956625 -70.846592 " transform="matrix(1,0,0,-1.00003,0.059,-0.567467)"/>
<path style="fill-rule:nonzero;fill:rgb(89.99939%,89.99939%,89.99939%);fill-opacity:1;stroke-width:0.69739;stroke-linecap:butt;stroke-linejoin:miter;stroke:rgb(100%,100%,100%);stroke-opacity:1;stroke-miterlimit:10;" d="M 152.421469 -81.330652 L 152.066 -81.522053 L 151.550375 -81.264248 L 151.421469 -80.846292 L 151.163656 -80.139281 L 150.714438 -79.717419 L 150.198813 -79.588517 L 149.874594 -78.623702 L 149.327719 -77.432331 L 148.491781 -77.045624 L 148.069906 -76.658917 L 147.812094 -76.143308 L 147.394125 -75.7566 L 146.944906 -75.498796 L 146.491781 -74.920688 L 145.882406 -74.467577 L 144.980063 -74.112119 L 144.882406 -73.823065 L 144.398031 -73.244957 L 144.304281 -72.955903 L 143.624594 -71.924684 L 142.948813 -71.955933 L 142.144125 -71.471573 L 141.886313 -71.213768 L 141.823813 -70.862216 L 141.983969 -70.475509 L 142.433188 -70.280202 L 142.331625 -69.823185 L 143.480063 -69.358355 L 145.296469 -68.44432 L 146.84725 -68.284168 L 150.058188 -68.198233 L 150.585531 -68.573222 L 150.917563 -69.241171 L 151.776938 -69.120081 L 154.288656 -68.831027 L 154.866781 -68.991178 L 157.382406 -70.506758 L 159.394125 -72.123897 L 158.316 -73.213708 L 157.800375 -74.436328 L 157.702719 -75.694102 L 157.3785 -75.854254 L 157.155844 -76.401112 L 156.671469 -76.530015 L 156.2535 -77.237025 L 155.706625 -77.78779 L 155.2535 -78.463551 L 154.933188 -78.623702 L 154.22225 -79.299463 L 153.644125 -79.330712 L 153.835531 -79.975224 L 152.839438 -81.072847 Z M 152.421469 -81.330652 " transform="matrix(1,0,0,-1.00003,0.059,-0.567467)"/>
<path style="fill-rule:nonzero;fill:rgb(89.99939%,89.99939%,89.99939%);fill-opacity:1;stroke-width:0.69739;stroke-linecap:butt;stroke-linejoin:miter;stroke:rgb(100%,100%,100%);stroke-opacity:1;stroke-miterlimit:10;" d="M 144.65975 -58.835233 L 144.202719 -59.311781 L 143.487875 -60.108632 L 142.507406 -61.198443 L 142.265219 -61.538277 L 142.2535 -61.960139 L 141.3785 -62.389814 L 140.2535 -63.065575 L 138.812094 -63.424939 L 128.476156 -64.401472 L 125.335531 -64.753024 L 124.417563 -64.85849 L 123.644125 -64.850678 L 123.601156 -65.694402 L 121.968344 -65.721745 L 120.585531 -65.850648 L 118.991781 -65.838929 L 119.233969 -65.573312 L 119.733969 -65.268634 L 119.776938 -64.631934 L 119.960531 -64.264758 L 119.640219 -63.760867 L 119.800375 -63.381972 L 120.249594 -63.026514 L 120.667563 -62.897611 L 121.218344 -63.155416 L 121.925375 -63.413221 L 122.151938 -63.346817 L 122.183188 -62.897611 L 121.925375 -62.413251 L 121.991781 -61.964045 L 122.374594 -61.671086 L 122.890219 -61.542183 L 123.214438 -61.413281 L 123.054281 -61.061729 L 122.925375 -60.675022 L 123.22225 -60.475809 C 123.226156 -60.467997 123.47225 -59.772705 123.47225 -59.745362 L 124.077719 -59.452402 L 125.140219 -59.261002 L 126.03475 -59.163348 L 126.312094 -59.487557 L 126.616781 -59.659427 L 126.933188 -59.042258 L 127.569906 -58.784453 L 128.007406 -59.081319 L 128.089438 -59.280532 L 128.323813 -59.225846 L 128.292563 -58.639926 L 128.913656 -58.292281 L 129.343344 -58.077443 L 129.648031 -58.409465 L 130.308188 -58.397746 L 130.425375 -58.085256 L 130.351156 -57.63605 L 130.870688 -56.839199 L 131.823813 -56.15172 L 131.964438 -55.190811 L 132.546469 -55.097064 L 133.300375 -54.768949 L 133.788656 -54.429115 L 133.749594 -54.116625 L 133.523031 -53.827571 L 133.636313 -53.229933 L 134.468344 -53.206496 L 134.925375 -53.058063 L 135.593344 -53.34321 L 136.0035 -54.214278 L 137.026938 -54.218184 L 137.433188 -54.655671 L 137.757406 -54.628328 L 138.273031 -54.370523 L 139.319906 -54.487707 L 139.831625 -54.530675 L 140.167563 -54.120531 L 140.687094 -53.835383 L 141.062094 -53.694762 L 141.191 -54.261152 L 141.601156 -54.472083 L 142.124594 -54.886133 L 142.148031 -56.015005 L 142.312094 -56.331402 L 142.827719 -56.639986 L 142.980063 -57.097004 L 143.808188 -57.780577 L 144.167563 -58.503212 Z M 144.65975 -58.835233 " transform="matrix(1,0,0,-1.00003,0.059,-0.567467)"/>
<path style="fill-rule:nonzero;fill:rgb(89.99939%,89.99939%,89.99939%);fill-opacity:1;stroke-width:0.69739;stroke-linecap:butt;stroke-linejoin:miter;stroke:rgb(100%,100%,100%);stroke-opacity:1;stroke-miterlimit:10;" d="M 125.792563 -91.740496 L 125.495688 -88.885113 L 124.948813 -85.15085 L 124.980063 -82.346247 L 125.140219 -76.162838 L 125.108969 -72.846532 L 125.140219 -71.56532 L 134.0035 -70.846592 L 133.976156 -71.280172 L 134.007406 -71.698128 L 134.136313 -72.373889 L 134.812094 -73.951967 L 135.296469 -75.916752 L 135.585531 -77.143278 L 135.90975 -78.108092 L 136.198813 -79.49477 L 136.616781 -80.748638 L 137.132406 -81.428305 L 137.230063 -82.104066 L 137.616781 -82.264218 L 137.648031 -82.682174 L 137.292563 -83.650895 L 137.194906 -84.295407 L 137.163656 -84.682114 L 137.487875 -85.549275 L 137.550375 -86.611744 L 137.390219 -87.096104 L 137.519125 -87.256255 L 137.808188 -87.416407 L 137.874594 -87.994515 L 136.757406 -87.924204 L 135.405844 -88.053107 L 130.316 -88.631214 L 128.241781 -88.912456 L 128.198813 -89.486657 L 128.550375 -89.838209 L 129.066 -90.224916 L 129.183188 -91.8069 L 128.077719 -92.318604 L 127.530844 -92.256105 L 128.077719 -91.869398 L 128.077719 -91.677998 L 127.468344 -90.482721 L 127.015219 -90.353819 L 126.726156 -91.224886 L 126.468344 -91.771745 L 126.339438 -91.740496 Z M 125.792563 -91.740496 " transform="matrix(1,0,0,-1.00003,0.059,-0.567467)"/>
<path style="fill-rule:nonzero;fill:rgb(89.99939%,89.99939%,89.99939%);fill-opacity:1;stroke-width:0.69739;stroke-linecap:butt;stroke-linejoin:miter;stroke:rgb(100%,100%,100%);stroke-opacity:1;stroke-miterlimit:10;" d="M 121.140219 -91.490503 L 120.487875 -90.861616 L 120.687094 -89.763993 L 120.554281 -89.584311 L 118.710531 -89.78743 L 113.72225 -89.877271 L 113.585531 -89.400722 L 113.769125 -87.717179 L 114.429281 -86.529715 L 115.433188 -84.799298 L 115.319906 -84.32275 L 115.569906 -84.186035 L 115.65975 -83.795422 L 115.202719 -83.385278 L 115.183188 -82.998571 L 114.816 -82.135315 L 114.788656 -80.869728 L 103.733969 -81.057223 L 103.741781 -82.963416 L 103.8785 -84.830547 L 104.015219 -85.603961 L 104.515219 -86.424249 L 104.694906 -87.428125 L 105.562094 -88.521843 L 105.608969 -89.158542 L 105.745688 -89.295257 L 105.608969 -90.9788 L 105.015219 -91.982676 L 105.335531 -92.39282 L 105.198813 -92.892805 L 105.062094 -94.349793 L 104.788656 -94.990398 L 104.812094 -95.709127 L 105.745688 -95.408355 L 108.15975 -95.447416 L 110.22225 -96.158332 L 111.511313 -96.380982 L 112.249594 -96.091928 L 112.894125 -96.318484 L 113.538656 -96.509884 L 113.698813 -96.091928 L 113.054281 -95.865372 L 112.538656 -95.963026 L 111.991781 -95.642723 C 111.991781 -95.642723 112.026938 -95.384918 112.155844 -95.349763 C 112.28475 -95.318514 112.765219 -95.158362 112.765219 -95.158362 L 113.120688 -95.447416 L 113.476156 -95.256015 L 114.120688 -95.384918 L 114.40975 -95.865372 L 114.47225 -96.318484 L 115.374594 -96.380982 L 115.730063 -96.73644 L 115.569906 -97.060649 L 115.312094 -97.2208 L 115.632406 -97.541103 L 117.308188 -98.252019 L 118.015219 -97.994215 L 118.210531 -97.509854 L 118.726156 -97.380952 L 119.077719 -97.091898 L 119.335531 -97.283298 L 119.499594 -97.865312 L 119.046469 -98.025464 L 119.175375 -98.154366 L 119.851156 -97.896561 L 120.304281 -97.2208 L 120.464438 -97.123147 L 120.046469 -97.060649 L 120.206625 -96.73644 L 120.175375 -96.447386 L 120.593344 -96.349733 L 120.819906 -96.091928 L 120.948813 -96.252079 C 120.948813 -96.252079 120.917563 -96.865342 121.077719 -96.865342 C 121.237875 -96.865342 121.913656 -96.994245 121.913656 -96.994245 L 122.718344 -97.380952 L 122.913656 -97.670006 L 123.491781 -97.670006 L 123.718344 -97.865312 L 124.167563 -97.252049 L 124.167563 -96.962996 L 123.90975 -96.962996 L 123.233969 -96.416137 L 122.073813 -96.252079 L 121.429281 -95.802874 L 121.655844 -95.256015 L 122.108969 -95.318514 L 122.140219 -95.189611 L 121.78475 -94.998211 L 121.78475 -94.900557 L 122.429281 -94.900557 L 122.78475 -94.287295 L 122.526938 -93.900587 L 122.460531 -93.353729 L 122.171469 -93.384978 L 121.78475 -93.80684 L 121.655844 -94.32245 L 121.046469 -94.193547 L 120.851156 -93.838089 L 121.206625 -93.451382 L 121.585531 -92.763903 L 121.374594 -92.283448 Z M 121.140219 -91.490503 " transform="matrix(1,0,0,-1.00003,0.059,-0.567467)"/>
<path style="fill-rule:nonzero;fill:rgb(89.99939%,89.99939%,89.99939%);fill-opacity:1;stroke-width:0.69739;stroke-linecap:butt;stroke-linejoin:miter;stroke:rgb(100%,100%,100%);stroke-opacity:1;stroke-miterlimit:10;" d="M 125.843344 -91.525659 L 125.792563 -91.775651 L 124.761313 -91.775651 L 124.47225 -91.6155 L 124.050375 -91.553002 L 122.698813 -91.939709 L 122.343344 -91.775651 L 121.827719 -92.61547 L 121.608969 -92.771715 L 121.386313 -92.275636 L 121.15975 -91.498316 L 120.476156 -90.861616 L 120.702719 -89.75618 L 120.566 -89.576498 L 120.202719 -89.619466 L 118.624594 -89.795242 L 113.733969 -89.869458 L 113.577719 -89.424159 L 113.7535 -87.75624 L 114.374594 -86.627368 L 115.417563 -84.803204 L 115.327719 -84.318844 L 115.573813 -84.189941 L 115.65975 -83.80714 L 115.198813 -83.39309 L 115.175375 -82.963416 L 114.808188 -82.143128 L 114.788656 -80.955663 L 115.054281 -80.459584 L 115.007406 -79.779917 L 114.655844 -79.166654 L 114.960531 -78.869788 L 114.648031 -78.373709 L 114.737875 -78.045594 L 115.050375 -76.744852 L 115.546469 -76.338614 L 115.417563 -75.865972 L 116.148031 -74.811316 L 116.714438 -74.537887 L 116.667563 -74.205866 L 116.612875 -73.869938 L 117.183188 -72.760597 L 117.651938 -72.51451 L 117.683188 -72.338734 L 125.124594 -71.56532 L 125.15975 -72.815282 L 125.191 -76.135495 L 125.030844 -82.318904 L 124.999594 -85.119601 L 125.546469 -88.85777 Z M 125.843344 -91.525659 " transform="matrix(1,0,0,-1.00003,0.059,-0.567467)"/>
<path style="fill-rule:nonzero;fill:rgb(89.99939%,89.99939%,89.99939%);fill-opacity:1;stroke-width:0.69739;stroke-linecap:butt;stroke-linejoin:miter;stroke:rgb(100%,100%,100%);stroke-opacity:1;stroke-miterlimit:10;" d="M 113.413656 -39.769399 L 113.468344 -40.32407 L 113.90975 -40.437348 L 114.101156 -40.683434 L 114.198813 -41.05061 L 114.956625 -41.722465 L 115.093344 -42.199013 L 114.956625 -42.878681 L 114.644125 -43.523192 L 114.483969 -44.070051 L 114.050375 -44.390354 L 112.59725 -44.874714 L 112.319906 -45.640316 L 112.464438 -45.913746 L 112.831625 -46.249673 L 112.776938 -47.054337 L 112.425375 -47.359015 L 112.269125 -47.68713 L 112.296469 -48.241801 L 111.921469 -48.331642 L 111.59725 -48.554292 L 111.542563 -48.823815 L 111.59725 -49.241771 L 111.288656 -49.46442 L 110.796469 -48.843345 L 110.542563 -48.355079 L 97.444906 -48.855064 L 97.261313 -48.886313 L 96.855063 -47.987902 L 96.808188 -46.667629 L 96.487875 -45.847341 L 96.351156 -44.800498 L 95.898031 -44.070051 L 95.714438 -43.113049 L 95.167563 -41.609187 L 94.941 -40.538907 L 94.667563 -40.105326 L 94.34725 -39.558468 L 94.737875 -38.593653 L 95.011313 -37.456968 L 94.464438 -37.046824 L 94.374594 -36.499966 L 94.554281 -35.999981 L 94.898031 -35.999981 L 111.366781 -35.746082 L 111.530844 -36.578088 L 111.980063 -36.890579 L 112.030844 -37.171821 L 111.6285 -37.847581 L 111.663656 -38.488187 L 112.167563 -39.245977 L 112.671469 -39.503782 L 113.28475 -39.601435 Z M 113.413656 -39.769399 " transform="matrix(1,0,0,-1.00003,0.059,-0.567467)"/>
<path style="fill-rule:nonzero;fill:rgb(89.99939%,89.99939%,89.99939%);fill-opacity:1;stroke-width:0.69739;stroke-linecap:butt;stroke-linejoin:miter;stroke:rgb(100%,100%,100%);stroke-opacity:1;stroke-miterlimit:10;" d="M 94.694906 -25.668259 L 94.601156 -23.984716 L 94.237875 -22.523822 L 93.874594 -19.836403 L 93.78475 -17.879431 L 93.417563 -17.195857 L 93.101156 -16.191981 L 93.101156 -14.145168 L 93.237875 -13.367847 L 92.874594 -12.281942 L 98.8785 -12.289754 L 98.941 -10.649179 L 99.069906 -10.614023 L 99.523031 -10.711677 L 99.90975 -10.871828 L 100.069906 -11.969452 L 100.358969 -13.192071 L 100.683188 -13.512374 L 101.648031 -13.512374 L 101.710531 -13.805334 L 102.968344 -13.867832 L 102.968344 -14.285788 L 103.933188 -14.285788 L 103.999594 -14.027984 L 104.226156 -13.805334 L 104.675375 -13.676432 L 104.933188 -13.867832 L 105.511313 -13.867832 L 106.28475 -14.383442 L 107.351156 -14.867802 L 107.831625 -14.965455 L 107.929281 -14.770149 L 108.218344 -14.672495 L 108.316 -15.254509 L 108.831625 -15.512314 L 108.929281 -15.414661 L 109.187094 -15.44591 L 109.187094 -15.863866 L 109.698813 -16.059173 L 110.312094 -16.059173 L 110.636313 -15.899021 L 111.280844 -15.254509 L 111.792563 -15.156856 L 111.956625 -15.512314 L 112.050375 -15.770119 L 112.245688 -15.770119 L 112.437094 -15.606061 L 114.210531 -15.543563 L 114.566 -16.156826 L 114.694906 -16.156826 L 114.835531 -15.938083 L 115.72225 -15.863866 L 115.59725 -16.320884 L 114.812094 -16.684154 L 112.97225 -17.49663 L 112.019125 -17.895055 L 111.40975 -18.410665 L 110.925375 -19.117675 L 110.47225 -19.891089 L 110.120688 -20.05124 L 109.218344 -21.05121 L 108.960531 -21.082459 L 108.09725 -21.633224 L 107.605063 -22.27383 L 107.562094 -22.906623 L 107.581625 -24.512044 L 107.304281 -24.847971 L 106.292563 -25.597949 L 105.84725 -26.789319 L 106.421469 -27.234619 L 106.558188 -27.875224 L 106.187094 -28.519736 L 106.22225 -29.269714 L 106.292563 -30.609517 L 106.898031 -31.207156 L 107.562094 -31.207156 L 107.937094 -31.832137 L 108.612875 -31.933696 L 109.3785 -33.062569 L 110.792563 -33.882857 L 111.218344 -34.457058 L 111.355063 -35.73827 L 95.171469 -35.964825 L 95.105063 -28.85957 L 95.011313 -28.265838 L 94.191 -27.582264 L 93.964438 -27.218994 L 93.964438 -26.898691 L 94.374594 -26.578388 L 94.648031 -26.304959 Z M 94.694906 -25.668259 " transform="matrix(1,0,0,-1.00003,0.059,-0.567467)"/>
<path style="fill-rule:nonzero;fill:rgb(50%,50%,50%);fill-opacity:1;stroke-width:0.69739;stroke-linecap:butt;stroke-linejoin:miter;stroke:rgb(100%,100%,100%);stroke-opacity:1;stroke-miterlimit:10;" d="M 75.78475 -63.924924 L 72.460531 -63.671026 L 72.28475 -65.854554 L 76.362875 -66.085016 L 82.749594 -66.34282 L 82.28475 -71.209862 L 82.194906 -74.764443 L 82.241781 -75.080839 L 83.105063 -75.811286 L 83.515219 -76.037842 L 83.651938 -75.994875 L 83.788656 -75.584731 L 84.062094 -75.948001 L 84.47225 -75.948001 L 84.47225 -75.674572 L 85.019125 -75.948001 L 84.929281 -76.721415 L 85.749594 -76.768289 L 86.249594 -76.994845 L 87.069906 -77.131559 L 87.569906 -77.49483 L 88.026938 -77.084686 L 88.710531 -77.2214 L 89.210531 -77.904974 L 89.394125 -77.904974 L 89.394125 -78.361991 L 89.84725 -78.498706 L 90.304281 -78.041688 L 90.667563 -78.178403 L 91.167563 -78.178403 L 91.351156 -78.682294 L 92.605063 -79.096344 L 92.8785 -78.959629 L 93.245688 -78.139341 L 93.47225 -78.139341 L 93.698813 -78.549485 L 94.519125 -78.6862 L 95.249594 -78.959629 L 95.839438 -79.139311 L 96.206625 -78.959629 L 96.343344 -78.455738 L 97.206625 -78.455738 L 97.616781 -78.639326 L 98.163656 -78.229183 L 98.390219 -78.229183 L 98.526938 -78.549485 L 99.34725 -78.549485 L 99.667563 -78.139341 L 100.030844 -78.229183 L 100.441 -78.729168 L 101.081625 -79.096344 L 101.718344 -79.276026 L 102.105063 -79.498676 L 102.026938 -72.084836 L 101.7535 -69.897401 L 101.72225 -68.131829 L 101.433188 -66.827181 L 101.280844 -65.397536 L 101.265219 -64.63584 L 98.84725 -64.698338 L 89.601156 -64.608497 L 80.624594 -64.198353 Z M 75.78475 -63.924924 " transform="matrix(1,0,0,-1.00003,0.059,-0.567467)"/>
<path style="fill-rule:nonzero;fill:rgb(50%,50%,50%);fill-opacity:1;stroke-width:0.69739;stroke-linecap:butt;stroke-linejoin:miter;stroke:rgb(100%,100%,100%);stroke-opacity:1;stroke-miterlimit:10;" d="M 72.023031 -65.870178 L 76.546469 -66.085016 L 82.741781 -66.311571 L 82.276938 -70.987212 L 82.214438 -74.604291 L 82.230063 -75.018341 L 83.09725 -75.780037 L 83.491781 -76.069091 L 83.726156 -75.955813 L 83.800375 -75.592543 L 84.026938 -75.951907 L 84.448813 -75.963626 L 84.448813 -75.674572 L 84.780844 -75.865972 L 85.007406 -75.948001 L 84.937094 -76.73704 L 85.7535 -76.75657 L 86.335531 -76.994845 L 87.120688 -77.10031 L 87.59725 -77.51436 L 88.019125 -77.10031 L 88.761313 -77.225306 L 89.206625 -77.865912 L 89.417563 -77.92841 L 89.386313 -78.32293 L 89.827719 -78.479175 L 90.292563 -78.069031 L 90.718344 -78.194027 L 91.163656 -78.197933 L 91.34725 -78.6862 L 92.608969 -79.108062 L 92.925375 -78.951817 L 93.22225 -78.119811 L 93.292563 -78.119811 L 93.47225 -78.139341 L 93.714438 -78.549485 L 94.499594 -78.682294 L 95.163656 -78.904944 L 95.84725 -79.143218 L 96.214438 -78.951817 L 96.355063 -78.447926 L 97.241781 -78.455738 L 97.605063 -78.643233 L 98.15975 -78.225276 L 98.382406 -78.233089 L 98.550375 -78.553392 L 99.358969 -78.553392 L 99.65975 -78.147154 L 100.03475 -78.229183 L 100.421469 -78.709637 L 101.124594 -79.115875 L 101.691 -79.276026 L 101.995688 -79.436178 L 102.480063 -79.834603 L 103.089438 -79.568986 L 103.624594 -79.795542 L 103.737875 -81.014255 L 103.730063 -82.947791 L 103.866781 -84.846172 L 104.0035 -85.5649 L 104.538656 -86.44378 L 104.718344 -87.432031 L 105.558188 -88.533561 L 105.59725 -89.162448 L 105.745688 -89.318694 L 105.601156 -90.986612 L 105.026938 -91.986582 L 105.331625 -92.416257 L 105.206625 -92.881087 L 105.073813 -94.353699 L 104.773031 -95.021648 L 104.831625 -95.716939 L 103.702719 -96.033336 L 101.737875 -96.935653 L 101.546469 -97.32236 L 101.030844 -97.709067 L 100.612875 -97.998121 L 100.355063 -98.162178 L 99.226156 -99.224646 L 98.679281 -99.642603 L 97.616781 -100.287115 L 96.487875 -100.771475 L 95.233969 -101.447236 L 94.8785 -101.73629 L 93.718344 -102.4433 L 93.042563 -102.572202 L 92.269125 -103.669826 L 91.464438 -103.732324 L 91.269125 -104.119031 L 91.72225 -104.505738 L 91.429281 -105.599455 L 91.175375 -106.501772 L 90.948813 -107.275186 L 90.788656 -108.177503 L 90.948813 -108.661863 L 91.300375 -110.044634 L 91.495688 -111.27116 L 91.851156 -111.818019 L 91.655844 -112.107072 L 91.046469 -112.49378 L 89.917563 -111.720365 L 88.823813 -111.497716 L 88.566 -111.591463 L 87.921469 -111.462561 L 87.081625 -110.853204 L 86.050375 -110.626648 L 84.538656 -109.950887 L 84.120688 -109.177473 L 83.862875 -107.888449 L 83.218344 -107.501742 L 83.089438 -107.052537 L 83.218344 -106.923634 L 83.280844 -106.243967 L 83.023031 -106.115065 L 82.894125 -105.923664 L 83.151938 -105.052597 L 82.831625 -104.603391 L 82.187094 -104.345587 L 81.511313 -103.474519 L 80.800375 -102.154246 L 79.964438 -101.638637 L 79.995688 -101.251929 L 78.933188 -98.802784 L 78.773031 -97.966872 L 78.417563 -97.580165 L 78.386313 -97.291111 L 77.194906 -96.228643 L 76.679281 -95.61538 L 76.679281 -95.388824 L 76.163656 -94.970868 L 74.808188 -94.744312 L 73.327719 -94.61541 L 72.714438 -94.166204 L 71.816 -94.521663 L 71.105063 -94.810716 L 70.655844 -95.455228 L 70.460531 -96.197393 L 69.593344 -97.420013 L 69.108969 -97.904374 L 68.593344 -97.709067 L 68.237875 -97.482511 L 67.851156 -97.353609 L 67.077719 -96.904404 L 67.077719 -96.775501 L 66.726156 -96.388794 L 65.694906 -95.970838 L 64.210531 -94.424009 L 63.761313 -93.490443 L 63.761313 -91.877211 L 63.116781 -90.592093 L 63.019125 -90.041328 L 62.698813 -89.849928 L 62.47225 -89.431971 L 61.47225 -89.014015 L 61.218344 -88.689806 L 59.800375 -87.111729 L 59.542563 -86.467217 L 58.608969 -86.018011 L 58.316 -85.146944 L 57.800375 -84.568836 L 57.413656 -84.471183 L 57.28475 -83.537617 L 58.882406 -83.674332 L 64.667563 -84.22119 L 70.452719 -84.541493 L 70.898031 -80.662703 L 71.671469 -69.592723 L 71.987875 -65.85846 L 72.261313 -65.862366 M 91.995688 -111.626618 L 91.882406 -110.208692 L 91.335531 -108.775141 L 91.22225 -107.372839 L 91.526938 -105.728358 L 92.187094 -104.361211 L 92.882406 -103.283118 L 93.507406 -102.572202 L 93.636313 -102.622982 L 92.687094 -103.943255 L 91.819906 -105.247903 L 91.413656 -106.568176 L 91.351156 -107.599395 L 91.526938 -108.822015 L 92.042563 -110.255566 L 92.140219 -111.286785 L 92.171469 -111.575838 Z M 91.995688 -111.626618 " transform="matrix(1,0,0,-1.00003,0.059,-0.567467)"/>
<path style="fill-rule:nonzero;fill:rgb(50%,50%,50%);fill-opacity:1;stroke-width:0.69739;stroke-linecap:butt;stroke-linejoin:miter;stroke:rgb(100%,100%,100%);stroke-opacity:1;stroke-miterlimit:10;" d="M 57.417563 -84.486807 L 57.261313 -83.541523 L 58.983969 -83.646989 L 64.995688 -84.232909 L 70.429281 -84.568836 L 70.870688 -80.842385 L 71.640219 -69.709907 L 71.983969 -65.846742 L 72.300375 -65.870178 L 72.464438 -63.647589 L 51.737875 -61.526559 L 48.2535 -85.525839 L 51.335531 -85.920358 L 51.593344 -83.924324 Z M 57.417563 -84.486807 " transform="matrix(1,0,0,-1.00003,0.059,-0.567467)"/>
<path style="fill-rule:nonzero;fill:rgb(50%,50%,50%);fill-opacity:1;stroke-width:0.69739;stroke-linecap:butt;stroke-linejoin:miter;stroke:rgb(100%,100%,100%);stroke-opacity:1;stroke-miterlimit:10;" d="M 101.198813 -64.63584 L 98.683188 -64.674902 L 89.499594 -64.585061 L 80.620688 -64.174917 L 75.714438 -63.924924 L 76.491781 -51.054217 L 80.890219 -51.187025 L 88.917563 -51.354989 L 97.745688 -51.550295 L 98.761313 -51.550295 L 99.194906 -51.983876 L 99.59725 -51.97997 L 99.925375 -52.179183 L 99.913656 -52.780727 L 99.546469 -53.124467 L 99.483969 -53.569766 L 99.851156 -54.245527 L 100.437094 -54.882227 L 100.901938 -55.206436 L 101.15975 -57.44465 Z M 101.198813 -64.63584 " transform="matrix(1,0,0,-1.00003,0.059,-0.567467)"/>
<path style="fill-rule:nonzero;fill:rgb(89.99939%,89.99939%,89.99939%);fill-opacity:1;stroke-width:0.69739;stroke-linecap:butt;stroke-linejoin:miter;stroke:rgb(100%,100%,100%);stroke-opacity:1;stroke-miterlimit:10;" d="M 96.858969 -47.960559 L 97.5035 -49.358955 L 97.476156 -49.819879 L 98.163656 -50.913596 L 98.706625 -51.542483 L 97.702719 -51.542483 L 89.038656 -51.354989 L 80.90975 -51.175307 L 76.476156 -51.019061 L 76.691 -46.769189 L 70.249594 -46.191081 L 71.116781 -37.421813 L 74.214438 -37.624932 L 78.22225 -37.851488 L 81.776938 -38.081949 L 86.511313 -38.308505 L 88.655844 -38.218664 L 89.066 -38.671776 L 90.019125 -39.265508 L 90.249594 -39.44519 L 91.112875 -39.175667 L 91.890219 -39.081919 L 92.433188 -39.038952 L 92.800375 -39.312381 L 93.608969 -39.628778 L 94.198813 -39.949081 L 94.292563 -40.265478 L 94.47225 -40.675622 L 94.839438 -40.675622 L 94.995688 -40.68734 L 95.175375 -41.620906 L 95.757406 -43.308355 L 95.870688 -44.054427 L 96.374594 -44.80831 L 96.487875 -45.827811 L 96.808188 -46.671536 Z M 96.858969 -47.960559 " transform="matrix(1,0,0,-1.00003,0.059,-0.567467)"/>
<path style="fill-rule:nonzero;fill:rgb(89.99939%,89.99939%,89.99939%);fill-opacity:1;stroke-width:0.69739;stroke-linecap:butt;stroke-linejoin:miter;stroke:rgb(100%,100%,100%);stroke-opacity:1;stroke-miterlimit:10;" d="M 94.933188 -40.652185 L 94.925375 -40.538907 L 94.34725 -39.570186 L 94.718344 -38.632714 L 95.015219 -37.460874 L 94.460531 -37.046824 L 94.386313 -36.499966 L 94.542563 -35.988262 L 95.179281 -35.992168 L 95.155844 -34.996105 L 95.089438 -28.984566 L 94.964438 -28.230682 L 94.151938 -27.570546 L 93.956625 -27.234619 L 93.944906 -26.914316 L 94.34725 -26.609637 L 94.651938 -26.277616 L 94.702719 -25.746382 L 83.093344 -25.429985 L 72.175375 -24.742506 L 71.112875 -37.433531 L 74.019125 -37.613214 L 77.995688 -37.851488 L 81.530844 -38.038982 L 86.269125 -38.296787 L 88.655844 -38.214758 L 89.050375 -38.660057 L 90.085531 -39.308475 L 90.237875 -39.453002 L 91.140219 -39.163948 L 92.444906 -39.038952 L 92.776938 -39.308475 L 93.616781 -39.624872 L 94.202719 -39.952987 L 94.280844 -40.245947 L 94.487875 -40.695152 Z M 94.933188 -40.652185 " transform="matrix(1,0,0,-1.00003,0.059,-0.567467)"/>
<path style="fill-rule:nonzero;fill:rgb(89.99939%,89.99939%,89.99939%);fill-opacity:1;stroke-width:0.69739;stroke-linecap:butt;stroke-linejoin:miter;stroke:rgb(100%,100%,100%);stroke-opacity:1;stroke-miterlimit:10;" d="M 94.706625 -25.68779 L 94.585531 -24.008153 L 94.249594 -22.648819 L 93.874594 -20.055147 L 93.78475 -17.863806 L 93.437094 -17.250543 L 93.085531 -16.215418 L 93.093344 -14.137355 L 93.218344 -13.371753 L 92.851156 -12.285848 L 87.144125 -12.17257 L 83.441 -12.043668 L 78.155844 -11.785863 L 73.585531 -11.360095 L 72.191 -24.746412 L 83.136313 -25.410455 Z M 94.706625 -25.68779 " transform="matrix(1,0,0,-1.00003,0.059,-0.567467)"/>
<path style="fill-rule:nonzero;fill:rgb(89.99939%,89.99939%,89.99939%);fill-opacity:1;stroke-width:0.69739;stroke-linecap:butt;stroke-linejoin:miter;stroke:rgb(100%,100%,100%);stroke-opacity:1;stroke-miterlimit:10;" d="M 71.808188 -28.547079 L 50.538656 -25.867472 L 47.730063 -43.491943 L 70.300375 -46.198893 Z M 71.808188 -28.547079 " transform="matrix(1,0,0,-1.00003,0.059,-0.567467)"/>
<path style="fill-rule:nonzero;fill:rgb(89.99939%,89.99939%,89.99939%);fill-opacity:1;stroke-width:0.69739;stroke-linecap:butt;stroke-linejoin:miter;stroke:rgb(100%,100%,100%);stroke-opacity:1;stroke-miterlimit:10;" d="M 73.566 -11.352283 L 67.456625 -10.793706 L 61.624594 -10.082789 L 55.792563 -9.278126 L 49.351156 -8.215658 L 45.679281 -7.539897 L 39.15975 -6.157126 L 38.265219 -10.410905 L 38.948813 -11.914766 L 38.675375 -12.824895 L 39.042563 -13.735024 L 39.679281 -14.008453 L 40.601156 -16.156826 L 41.136313 -16.789619 L 41.230063 -17.016175 L 41.90975 -17.242731 L 42.0035 -17.652875 L 40.589438 -21.160582 L 40.589438 -21.664473 L 41.093344 -22.301173 L 41.273031 -22.301173 L 42.230063 -21.707441 L 42.366781 -21.480885 L 42.687094 -21.6176 L 42.640219 -22.664443 L 43.187094 -25.172181 L 43.780844 -25.672166 L 43.960531 -25.80888 L 44.327719 -26.261992 L 44.233969 -26.945565 L 44.370688 -27.629138 L 44.601156 -27.812726 L 45.054281 -27.355709 L 45.601156 -27.355709 L 46.237875 -27.676012 L 46.741781 -27.492423 L 47.562094 -27.492423 L 48.288656 -27.812726 L 48.835531 -27.722885 L 48.925375 -27.129153 L 49.519125 -26.992438 L 49.792563 -27.265868 L 49.882406 -27.902567 L 50.167563 -28.070531 L 50.542563 -25.871378 L 71.812094 -28.547079 Z M 73.566 -11.352283 " transform="matrix(1,0,0,-1.00003,0.059,-0.567467)"/>
<path style="fill-rule:nonzero;fill:rgb(50%,50%,50%);fill-opacity:1;stroke-width:0.69739;stroke-linecap:butt;stroke-linejoin:miter;stroke:rgb(100%,100%,100%);stroke-opacity:1;stroke-miterlimit:10;" d="M 75.72225 -63.952267 L 76.702719 -46.753564 L 54.108969 -44.234109 L 51.675375 -61.75702 Z M 75.72225 -63.952267 " transform="matrix(1,0,0,-1.00003,0.059,-0.567467)"/>
<path style="fill-rule:nonzero;fill:rgb(89.99939%,89.99939%,89.99939%);fill-opacity:1;stroke-width:0.69739;stroke-linecap:butt;stroke-linejoin:miter;stroke:rgb(100%,100%,100%);stroke-opacity:1;stroke-miterlimit:10;" d="M 29.585531 -35.164068 L 31.331625 -28.148654 L 31.605063 -27.304929 L 32.108969 -26.121371 L 31.855063 -25.664353 L 31.355063 -25.68779 L 31.194906 -25.480765 L 31.288656 -25.254209 L 31.355063 -24.640946 L 32.245688 -23.547229 L 32.608969 -23.457388 L 32.835531 -23.226926 L 32.948813 -22.590227 L 33.132406 -22.453512 L 33.905844 -21.293391 L 34.679281 -20.426229 L 34.726156 -19.676252 L 34.042563 -19.148924 L 33.737875 -18.27395 L 36.452719 -5.653235 L 39.144125 -6.157126 L 38.269125 -10.418717 L 38.976156 -11.906953 L 38.663656 -12.836613 L 39.054281 -13.762367 L 39.679281 -14.012359 L 40.444906 -15.914646 L 41.144125 -16.801338 L 41.245688 -17.027894 L 41.90975 -17.254449 L 41.983969 -17.672405 L 40.593344 -21.137145 L 40.562094 -21.648849 L 41.085531 -22.308985 L 41.265219 -22.301173 L 42.245688 -21.695722 L 42.3785 -21.476979 L 42.691 -21.609787 L 42.636313 -22.676162 L 43.183188 -25.183899 L 43.964438 -25.816692 L 44.296469 -26.246367 L 44.155844 -27.062749 L 44.366781 -27.621326 L 44.577719 -27.840069 L 45.073813 -27.371333 L 45.640219 -27.379146 L 46.22225 -27.644763 L 46.776938 -27.511954 L 47.530844 -27.476799 L 48.323813 -27.797102 L 48.870688 -27.73851 L 48.97225 -27.133059 L 49.554281 -26.98072 L 49.804281 -27.281492 L 49.894125 -27.867412 L 50.179281 -28.109592 L 48.507406 -38.792866 C 48.507406 -38.792866 30.980063 -35.46484 29.585531 -35.164068 Z M 29.585531 -35.164068 " transform="matrix(1,0,0,-1.00003,0.059,-0.567467)"/>
<path style="fill-rule:nonzero;fill:rgb(50%,50%,50%);fill-opacity:1;stroke-width:0.69739;stroke-linecap:butt;stroke-linejoin:miter;stroke:rgb(100%,100%,100%);stroke-opacity:1;stroke-miterlimit:10;" d="M 51.706625 -61.792176 L 35.019125 -59.425059 L 39.120688 -36.999951 L 48.441 -38.742086 L 48.148031 -40.85921 L 47.687094 -43.484131 L 49.241781 -43.671626 L 52.511313 -44.03099 L 54.148031 -44.198953 Z M 51.706625 -61.792176 " transform="matrix(1,0,0,-1.00003,0.059,-0.567467)"/>
<path style="fill-rule:nonzero;fill:rgb(50%,50%,50%);fill-opacity:1;stroke-width:0.69739;stroke-linecap:butt;stroke-linejoin:miter;stroke:rgb(100%,100%,100%);stroke-opacity:1;stroke-miterlimit:10;" d="M 28.874594 -76.240961 L 28.351156 -76.670636 L 28.28475 -76.959689 L 28.382406 -77.154996 L 32.151938 -79.279932 L 34.566 -80.795512 L 37.499594 -82.502492 L 40.84725 -84.498526 L 43.296469 -84.982886 L 48.269125 -85.521933 L 51.706625 -61.784363 L 35.023031 -59.409435 L 34.405844 -62.678868 L 34.085531 -62.682774 L 33.745688 -63.206196 L 33.241781 -63.182759 L 32.991781 -62.6359 L 32.444906 -62.569496 L 32.265219 -62.34294 L 32.081625 -62.34294 L 31.898031 -62.456218 L 31.511313 -62.659337 L 31.487875 -64.04992 L 31.444906 -64.389754 L 31.331625 -66.897491 L 31.03475 -67.331072 L 30.921469 -67.991208 L 31.468344 -68.967742 L 31.718344 -70.131769 L 31.8785 -70.334888 L 32.081625 -70.448166 L 32.058188 -70.905184 L 31.741781 -71.178613 L 31.058188 -71.518446 L 30.671469 -71.90906 L 30.374594 -72.6356 L 30.261313 -73.61604 L 29.691 -74.162898 L 29.280844 -74.299613 L 29.308188 -74.463671 L 29.214438 -74.80741 L 29.308188 -74.967562 L 30.03475 -75.080839 L 29.921469 -75.627698 L 29.624594 -76.057373 Z M 28.874594 -76.240961 " transform="matrix(1,0,0,-1.00003,0.059,-0.567467)"/>
<path style="fill-rule:nonzero;fill:rgb(50%,50%,50%);fill-opacity:1;stroke-width:0.69739;stroke-linecap:butt;stroke-linejoin:miter;stroke:rgb(100%,100%,100%);stroke-opacity:1;stroke-miterlimit:10;" d="M 39.132406 -36.976514 L 34.421469 -62.647619 L 34.058188 -62.714023 L 33.745688 -63.194477 L 33.269125 -63.198383 L 32.976156 -62.651525 L 32.456625 -62.573402 L 32.300375 -62.354659 L 32.09725 -62.34294 L 31.542563 -62.671056 L 31.480063 -64.022577 L 31.40975 -65.174887 L 31.339438 -66.885773 L 31.050375 -67.303729 L 30.566 -67.088892 L 16.800375 -46.327796 L 20.581625 -32.85945 Z M 39.132406 -36.976514 " transform="matrix(1,0,0,-1.00003,0.059,-0.567467)"/>
<path style="fill-rule:nonzero;fill:rgb(89.99939%,89.99939%,89.99939%);fill-opacity:1;stroke-width:0.69739;stroke-linecap:butt;stroke-linejoin:miter;stroke:rgb(100%,100%,100%);stroke-opacity:1;stroke-miterlimit:10;" d="M 29.632406 -34.976574 L 31.398031 -28.043188 L 31.605063 -27.199463 L 32.073813 -26.078403 L 31.952719 -25.847941 L 31.452719 -25.836223 L 31.194906 -25.504202 L 31.288656 -25.211242 L 31.386313 -24.56673 L 32.276938 -23.473013 L 32.640219 -23.254269 L 32.866781 -23.023807 L 33.163656 -22.316797 L 33.97225 -21.184019 L 34.683188 -20.414511 L 34.726156 -19.727031 L 34.073813 -19.234859 L 33.718344 -18.313011 L 31.198813 -17.590377 L 28.191 -16.883367 L 25.116781 -16.906803 L 25.023031 -16.633374 L 23.929281 -17.043518 L 23.042563 -16.93024 L 22.566 -16.613844 L 22.312094 -16.750558 L 21.3785 -16.703685 L 21.038656 -16.430255 L 19.991781 -16.020111 L 19.831625 -16.043548 L 18.964438 -15.746682 L 18.577719 -16.109952 L 17.34725 -16.043548 L 16.163656 -15.22326 L 16.300375 -15.063109 L 16.34725 -13.512374 L 15.890219 -12.73896 L 15.069906 -12.625682 L 14.933188 -12.125697 L 14.464438 -12.03195 L 13.308188 -12.442094 L 12.858969 -13.731117 L 12.214438 -15.727151 L 11.569906 -17.016175 L 10.569906 -19.816872 L 9.28475 -22.523822 L 7.671469 -25.035466 L 7.28475 -25.61748 L 7.124594 -27.32446 L 7.202719 -29.730638 Z M 29.632406 -34.976574 " transform="matrix(1,0,0,-1.00003,0.059,-0.567467)"/>
<path style="fill-rule:nonzero;fill:rgb(89.99939%,89.99939%,89.99939%);fill-opacity:1;stroke-width:0.69739;stroke-linecap:butt;stroke-linejoin:miter;stroke:rgb(100%,100%,100%);stroke-opacity:1;stroke-miterlimit:10;" d="M 20.339438 -1.51664 L 21.206625 -1.805694 L 23.140219 -2.352553 L 24.84725 -2.73926 L 28.843344 -3.868132 L 33.417563 -4.997005 L 36.448813 -5.633704 L 33.733969 -18.305199 L 31.2535 -17.602095 L 28.163656 -16.891179 L 25.1285 -16.898991 L 25.038656 -16.629468 L 23.921469 -17.063049 L 23.007406 -16.918522 L 22.577719 -16.602125 L 22.316 -16.731027 L 21.374594 -16.703685 L 21.03475 -16.434161 L 19.987875 -16.016205 L 19.839438 -16.043548 L 18.964438 -15.73887 L 18.589438 -16.10214 L 17.339438 -16.043548 L 16.15975 -15.219354 L 16.316 -15.035766 L 16.339438 -13.504562 L 15.882406 -12.73896 L 15.066 -12.61787 L 14.929281 -12.117885 L 14.476156 -12.028044 L 13.769125 -12.27413 L 13.316 -11.629618 L 13.382406 -11.05151 L 13.929281 -10.985106 L 14.249594 -10.180443 L 13.733969 -9.957793 L 13.769125 -9.215628 L 14.636313 -9.086726 L 14.089438 -8.539867 L 13.800375 -7.121941 L 13.929281 -6.539927 L 13.929281 -4.961849 L 13.573813 -4.317337 L 14.026938 -2.450206 L 14.444906 -2.547859 L 14.925375 -3.125967 L 15.476156 -3.641576 L 16.120688 -4.028284 L 17.019125 -4.44624 L 17.632406 -4.575142 L 18.214438 -4.868102 L 18.890219 -5.059503 L 19.339438 -5.028254 L 19.339438 -4.543893 L 19.59725 -4.317337 L 20.015219 -4.059533 L 20.081625 -4.286088 L 20.144125 -4.641546 L 19.694906 -4.7392 L 19.6285 -5.157156 L 19.983969 -5.44621 L 20.210531 -5.93057 L 20.339438 -6.317277 L 20.6285 -6.282122 L 20.65975 -6.028224 L 20.468344 -5.770419 L 20.370688 -5.125907 L 20.530844 -4.770449 L 20.401938 -4.481395 L 20.401938 -4.028284 L 20.757406 -3.321274 L 20.530844 -2.805664 L 20.050375 -1.836943 L 20.112875 -1.676792 Z M 18.452719 -2.708011 L 18.858969 -2.676762 L 18.952719 -2.950191 L 19.261313 -2.625982 L 19.726156 -2.625982 L 19.886313 -2.934566 L 19.581625 -3.270494 L 19.710531 -3.434551 L 19.566 -3.836883 L 19.292563 -3.915006 C 19.292563 -3.915006 19.112875 -3.93063 19.112875 -3.868132 C 19.112875 -3.801728 19.405844 -3.352523 19.405844 -3.352523 L 19.066 -3.239245 L 19.0035 -3.528299 L 18.858969 -3.657201 L 18.550375 -3.207996 Z M 18.452719 -2.708011 " transform="matrix(1,0,0,-1.00003,0.059,-0.567467)"/>
<path style="fill-rule:nonzero;fill:rgb(50%,50%,50%);fill-opacity:1;stroke-width:0.69739;stroke-linecap:butt;stroke-linejoin:miter;stroke:rgb(100%,100%,100%);stroke-opacity:1;stroke-miterlimit:10;" d="M 28.831625 -76.155026 L 29.616781 -76.057373 L 29.913656 -75.658947 L 30.019125 -75.073027 L 29.312094 -74.951937 L 29.210531 -74.819129 L 29.304281 -74.416797 L 29.273031 -74.299613 L 29.655844 -74.174617 L 30.265219 -73.608227 L 30.3785 -72.61607 L 30.655844 -71.936403 L 31.042563 -71.506728 L 31.741781 -71.190331 L 32.073813 -70.870028 L 32.085531 -70.448166 L 31.886313 -70.330982 L 31.683188 -70.120051 L 31.452719 -68.952117 L 30.917563 -67.991208 L 31.030844 -67.292011 L 30.550375 -67.088892 L 16.788656 -46.327796 L 20.554281 -32.85945 L 7.191 -29.730638 L 6.890219 -30.675922 L 6.855063 -32.156346 L 5.827719 -34.507838 L 5.214438 -35.023447 L 5.148031 -35.250003 L 4.796469 -35.410155 L 4.5035 -36.246067 L 4.343344 -36.890579 L 4.890219 -37.730398 L 5.214438 -38.56631 L 5.441 -39.277226 L 5.374594 -40.562344 L 5.019125 -41.175607 L 4.890219 -42.335728 L 4.698813 -43.077893 L 5.054281 -43.851308 L 5.601156 -44.749718 L 6.050375 -45.718439 L 6.308188 -46.523102 L 6.245688 -47.167614 L 6.179281 -47.265268 L 6.179281 -47.683224 L 7.308188 -48.940999 L 7.210531 -49.421453 L 7.081625 -49.874564 L 6.952719 -50.261272 L 6.983969 -51.901847 L 7.405844 -52.644013 L 7.792563 -53.159622 L 8.339438 -53.257275 L 8.530844 -53.804134 L 8.304281 -54.511144 L 7.886313 -54.835353 L 7.663656 -54.835353 L 7.499594 -55.608767 L 7.59725 -56.186875 L 8.241781 -57.057943 L 8.562094 -58.120411 L 8.855063 -59.053977 L 9.112875 -59.667239 L 9.788656 -60.823455 L 10.077719 -61.339064 L 10.175375 -61.921078 L 10.495688 -62.112479 L 10.495688 -62.596839 L 10.335531 -62.983546 L 9.980063 -64.401472 L 9.886313 -64.78818 L 10.366781 -65.335038 L 11.206625 -65.432691 L 12.108969 -65.784243 L 12.8785 -66.206106 L 13.460531 -66.206106 L 14.038656 -66.815462 L 14.554281 -67.784183 L 14.780844 -68.233389 L 15.554281 -68.651345 L 16.519125 -68.815402 L 16.808188 -69.233359 L 16.937094 -69.877871 L 16.648031 -70.006773 L 16.714438 -70.198173 L 17.358969 -70.358325 L 17.905844 -70.39348 L 18.53475 -70.057553 L 19.308188 -70.893465 L 19.468344 -71.34267 L 19.983969 -72.182489 L 20.050375 -72.827001 L 20.050375 -74.694132 L 20.144125 -75.04959 L 22.144125 -75.338644 L 26.073813 -75.885503 Z M 11.269125 -67.44435 L 11.526938 -67.749028 L 11.495688 -68.006833 L 10.851156 -67.991208 L 10.737875 -67.749028 L 10.608969 -67.459974 Z M 11.655844 -67.44435 L 11.898031 -67.315447 L 12.605063 -67.733404 L 13.218344 -67.975584 L 13.042563 -68.104486 L 12.140219 -68.057613 L 11.816 -67.733404 Z M 15.780844 -71.389544 L 16.132406 -71.85828 L 16.296469 -72.04968 L 16.601156 -72.162958 L 16.714438 -71.873904 L 16.519125 -71.518446 L 15.987875 -71.116115 L 15.780844 -71.147364 Z M 15.487875 -73.112149 L 15.843344 -73.741036 L 16.085531 -74.127743 L 15.796469 -74.178523 L 15.538656 -73.936343 C 15.538656 -73.936343 15.394125 -73.643383 15.394125 -73.56526 C 15.394125 -73.483231 15.394125 -73.131679 15.394125 -73.131679 Z M 15.487875 -73.112149 " transform="matrix(1,0,0,-1.00003,0.059,-0.567467)"/>
</g>
</svg>
