<svg xmlns="http://www.w3.org/2000/svg" xmlns:xlink="http://www.w3.org/1999/xlink" version="1.1" width="128pt" height="131pt" viewBox="0 0 128 131">
<path transform="matrix(1.00002,0,0,-1.00003,60.958925,65.53849)" stroke-width="1.19553" stroke-linecap="butt" stroke-miterlimit="10" stroke-linejoin="miter" fill="none" stroke="#000000" d="M35.34613-44.32214 56.69362 0"/>
<path transform="matrix(1.00002,0,0,-1.00003,60.958925,65.53849)" stroke-width="1.19553" stroke-linecap="butt" stroke-miterlimit="10" stroke-linejoin="miter" fill="none" stroke="#000000" d="M56.69362 0 35.34526 44.32301"/>
<path transform="matrix(1.00002,0,0,-1.00003,60.958925,65.53849)" stroke-width=".3985" stroke-linecap="butt" stroke-miterlimit="10" stroke-linejoin="miter" fill="none" stroke="#000000" d="M56.69362 0"/>
<path transform="matrix(1.00002,0,0,-1.00003,60.958925,65.53849)" d="M65.16197 0C65.16197 4.67699 61.3706 8.46835 56.69362 8.46835 52.01662 8.46835 48.22527 4.67699 48.22527 0 48.22527-4.67699 52.01662-8.46835 56.69362-8.46835 61.3706-8.46835 65.16197-4.67699 65.16197 0ZM56.69362 0" fill="#ffffff"/>
<path transform="matrix(1.00002,0,0,-1.00003,60.958925,65.53849)" stroke-width=".3985" stroke-linecap="butt" stroke-miterlimit="10" stroke-linejoin="miter" fill="none" stroke="#000000" d="M65.16197 0C65.16197 4.67699 61.3706 8.46835 56.69362 8.46835 52.01662 8.46835 48.22527 4.67699 48.22527 0 48.22527-4.67699 52.01662-8.46835 56.69362-8.46835 61.3706-8.46835 65.16197-4.67699 65.16197 0ZM56.69362 0"/>
<path transform="matrix(1.00002,0,0,-1.00003,60.958925,65.53849)" stroke-width="1.19553" stroke-linecap="butt" stroke-miterlimit="10" stroke-linejoin="miter" fill="none" stroke="#000000" d="M35.34526 44.32301-12.61365 55.27055"/>
<path transform="matrix(1.00002,0,0,-1.00003,60.958925,65.53849)" stroke-width=".3985" stroke-linecap="butt" stroke-miterlimit="10" stroke-linejoin="miter" fill="none" stroke="#000000" d="M35.34526 44.32301"/>
<path transform="matrix(1.00002,0,0,-1.00003,60.958925,65.53849)" d="M43.81361 44.32301C43.81361 49.00002 40.02226 52.79137 35.34526 52.79137 30.66826 52.79137 26.8769 49.00002 26.8769 44.32301 26.8769 39.64603 30.66826 35.85466 35.34526 35.85466 40.02226 35.85466 43.81361 39.64603 43.81361 44.32301ZM35.34526 44.32301" fill="#ffffff"/>
<path transform="matrix(1.00002,0,0,-1.00003,60.958925,65.53849)" stroke-width=".3985" stroke-linecap="butt" stroke-miterlimit="10" stroke-linejoin="miter" fill="none" stroke="#000000" d="M43.81361 44.32301C43.81361 49.00002 40.02226 52.79137 35.34526 52.79137 30.66826 52.79137 26.8769 49.00002 26.8769 44.32301 26.8769 39.64603 30.66826 35.85466 35.34526 35.85466 40.02226 35.85466 43.81361 39.64603 43.81361 44.32301ZM35.34526 44.32301"/>
<path transform="matrix(1.00002,0,0,-1.00003,60.958925,65.53849)" stroke-width="1.19553" stroke-linecap="butt" stroke-miterlimit="10" stroke-linejoin="miter" fill="none" stroke="#000000" d="M-12.61365 55.27055-51.07666 24.59668"/>
<path transform="matrix(1.00002,0,0,-1.00003,60.958925,65.53849)" stroke-width=".3985" stroke-linecap="butt" stroke-miterlimit="10" stroke-linejoin="miter" fill="none" stroke="#000000" d="M-12.61365 55.27055"/>
<path transform="matrix(1.00002,0,0,-1.00003,60.958925,65.53849)" d="M-4.1453 55.27055C-4.1453 59.94756-7.93666 63.7389-12.61365 63.7389-17.29065 63.7389-21.082 59.94756-21.082 55.27055-21.082 50.59357-17.29065 46.8022-12.61365 46.8022-7.93666 46.8022-4.1453 50.59357-4.1453 55.27055ZM-12.61365 55.27055" fill="#ffffff"/>
<path transform="matrix(1.00002,0,0,-1.00003,60.958925,65.53849)" stroke-width=".3985" stroke-linecap="butt" stroke-miterlimit="10" stroke-linejoin="miter" fill="none" stroke="#000000" d="M-4.1453 55.27055C-4.1453 59.94756-7.93666 63.7389-12.61365 63.7389-17.29065 63.7389-21.082 59.94756-21.082 55.27055-21.082 50.59357-17.29065 46.8022-12.61365 46.8022-7.93666 46.8022-4.1453 50.59357-4.1453 55.27055ZM-12.61365 55.27055"/>
<path transform="matrix(1.00002,0,0,-1.00003,60.958925,65.53849)" stroke-width="1.19553" stroke-linecap="butt" stroke-miterlimit="10" stroke-linejoin="miter" fill="none" stroke="#000000" d="M-51.07666 24.59668V-24.59668"/>
<path transform="matrix(1.00002,0,0,-1.00003,60.958925,65.53849)" stroke-width=".3985" stroke-linecap="butt" stroke-miterlimit="10" stroke-linejoin="miter" fill="none" stroke="#000000" d="M-51.07666 24.59668"/>
<path transform="matrix(1.00002,0,0,-1.00003,60.958925,65.53849)" d="M-42.6083 24.59668C-42.6083 29.27368-46.39967 33.06503-51.07666 33.06503-55.75366 33.06503-59.54501 29.27368-59.54501 24.59668-59.54501 19.9197-55.75366 16.12833-51.07666 16.12833-46.39967 16.12833-42.6083 19.9197-42.6083 24.59668ZM-51.07666 24.59668" fill="#ffffff"/>
<path transform="matrix(1.00002,0,0,-1.00003,60.958925,65.53849)" stroke-width=".3985" stroke-linecap="butt" stroke-miterlimit="10" stroke-linejoin="miter" fill="none" stroke="#000000" d="M-42.6083 24.59668C-42.6083 29.27368-46.39967 33.06503-51.07666 33.06503-55.75366 33.06503-59.54501 29.27368-59.54501 24.59668-59.54501 19.9197-55.75366 16.12833-51.07666 16.12833-46.39967 16.12833-42.6083 19.9197-42.6083 24.59668ZM-51.07666 24.59668"/>
<path transform="matrix(1.00002,0,0,-1.00003,60.958925,65.53849)" stroke-width="1.19553" stroke-linecap="butt" stroke-miterlimit="10" stroke-linejoin="miter" fill="none" stroke="#000000" d="M-51.07666-24.59668-12.61452-55.26968"/>
<path transform="matrix(1.00002,0,0,-1.00003,60.958925,65.53849)" stroke-width=".3985" stroke-linecap="butt" stroke-miterlimit="10" stroke-linejoin="miter" fill="none" stroke="#000000" d="M-51.07666-24.59668"/>
<path transform="matrix(1.00002,0,0,-1.00003,60.958925,65.53849)" d="M-42.6083-24.59668C-42.6083-19.9197-46.39967-16.12833-51.07666-16.12833-55.75366-16.12833-59.54501-19.9197-59.54501-24.59668-59.54501-29.27368-55.75366-33.06503-51.07666-33.06503-46.39967-33.06503-42.6083-29.27368-42.6083-24.59668ZM-51.07666-24.59668" fill="#ffffff"/>
<path transform="matrix(1.00002,0,0,-1.00003,60.958925,65.53849)" stroke-width=".3985" stroke-linecap="butt" stroke-miterlimit="10" stroke-linejoin="miter" fill="none" stroke="#000000" d="M-42.6083-24.59668C-42.6083-19.9197-46.39967-16.12833-51.07666-16.12833-55.75366-16.12833-59.54501-19.9197-59.54501-24.59668-59.54501-29.27368-55.75366-33.06503-51.07666-33.06503-46.39967-33.06503-42.6083-29.27368-42.6083-24.59668ZM-51.07666-24.59668"/>
<path transform="matrix(1.00002,0,0,-1.00003,60.958925,65.53849)" stroke-width="1.19553" stroke-linecap="butt" stroke-miterlimit="10" stroke-linejoin="miter" fill="none" stroke="#000000" d="M-12.61452-55.26968 35.34613-44.32214"/>
<path transform="matrix(1.00002,0,0,-1.00003,60.958925,65.53849)" stroke-width=".3985" stroke-linecap="butt" stroke-miterlimit="10" stroke-linejoin="miter" fill="none" stroke="#000000" d="M-12.61452-55.26968"/>
<path transform="matrix(1.00002,0,0,-1.00003,60.958925,65.53849)" d="M-4.14616-55.26968C-4.14616-50.5927-7.93753-46.80133-12.61452-46.80133-17.29152-46.80133-21.08287-50.5927-21.08287-55.26968-21.08287-59.94669-17.29152-63.73804-12.61452-63.73804-7.93753-63.73804-4.14616-59.94669-4.14616-55.26968ZM-12.61452-55.26968" fill="#ffffff"/>
<path transform="matrix(1.00002,0,0,-1.00003,60.958925,65.53849)" stroke-width=".3985" stroke-linecap="butt" stroke-miterlimit="10" stroke-linejoin="miter" fill="none" stroke="#000000" d="M-4.14616-55.26968C-4.14616-50.5927-7.93753-46.80133-12.61452-46.80133-17.29152-46.80133-21.08287-50.5927-21.08287-55.26968-21.08287-59.94669-17.29152-63.73804-12.61452-63.73804-7.93753-63.73804-4.14616-59.94669-4.14616-55.26968ZM-12.61452-55.26968"/>
<path transform="matrix(1.00002,0,0,-1.00003,60.958925,65.53849)" stroke-width=".3985" stroke-linecap="butt" stroke-miterlimit="10" stroke-linejoin="miter" fill="none" stroke="#000000" d="M35.34613-44.32214"/>
<path transform="matrix(1.00002,0,0,-1.00003,60.958925,65.53849)" d="M43.81448-44.32214C43.81448-39.64516 40.02312-35.85379 35.34613-35.85379 30.66913-35.85379 26.87778-39.64516 26.87778-44.32214 26.87778-48.99915 30.66913-52.7905 35.34613-52.7905 40.02312-52.7905 43.81448-48.99915 43.81448-44.32214ZM35.34613-44.32214" fill="#ffffff"/>
<path transform="matrix(1.00002,0,0,-1.00003,60.958925,65.53849)" stroke-width=".3985" stroke-linecap="butt" stroke-miterlimit="10" stroke-linejoin="miter" fill="none" stroke="#000000" d="M43.81448-44.32214C43.81448-39.64516 40.02312-35.85379 35.34613-35.85379 30.66913-35.85379 26.87778-39.64516 26.87778-44.32214 26.87778-48.99915 30.66913-52.7905 35.34613-52.7905 40.02312-52.7905 43.81448-48.99915 43.81448-44.32214ZM35.34613-44.32214"/>
</svg>
