<svg xmlns="http://www.w3.org/2000/svg" xmlns:xlink="http://www.w3.org/1999/xlink" version="1.1" width="133pt" height="134pt" viewBox="0 0 133 134">
<path transform="matrix(1.00009,0,0,-1.00002,66.581638,66.96102)" stroke-width=".79701" stroke-linecap="butt" stroke-miterlimit="10" stroke-linejoin="miter" fill="none" stroke="#000000" d="M40.08847-40.08847 56.69362 0"/>
<path transform="matrix(1.00009,0,0,-1.00002,66.581638,66.96102)" stroke-width="1.19553" stroke-linecap="butt" stroke-miterlimit="10" stroke-linejoin="miter" fill="none" stroke="#000000" d="M56.69362 0 40.08847 40.08847"/>
<path transform="matrix(1.00009,0,0,-1.00002,66.581638,66.96102)" stroke-width=".3985" stroke-linecap="butt" stroke-miterlimit="10" stroke-linejoin="miter" fill="none" stroke="#000000" d="M56.69362 0"/>
<path transform="matrix(1.00009,0,0,-1.00002,66.581638,66.96102)" d="M65.16197 0C65.16197 4.67699 61.3706 8.46835 56.69362 8.46835 52.01662 8.46835 48.22527 4.67699 48.22527 0 48.22527-4.67699 52.01662-8.46835 56.69362-8.46835 61.3706-8.46835 65.16197-4.67699 65.16197 0ZM56.69362 0" fill="#ffffff"/>
<path transform="matrix(1.00009,0,0,-1.00002,66.581638,66.96102)" stroke-width=".3985" stroke-linecap="butt" stroke-miterlimit="10" stroke-linejoin="miter" fill="none" stroke="#000000" d="M65.16197 0C65.16197 4.67699 61.3706 8.46835 56.69362 8.46835 52.01662 8.46835 48.22527 4.67699 48.22527 0 48.22527-4.67699 52.01662-8.46835 56.69362-8.46835 61.3706-8.46835 65.16197-4.67699 65.16197 0ZM56.69362 0"/>
<path transform="matrix(1.00009,0,0,-1.00002,66.581638,66.96102)" stroke-width="1.19553" stroke-linecap="butt" stroke-miterlimit="10" stroke-linejoin="miter" fill="none" stroke="#000000" d="M40.08847 40.08847 0 56.69362"/>
<path transform="matrix(1.00009,0,0,-1.00002,66.581638,66.96102)" stroke-width=".3985" stroke-linecap="butt" stroke-miterlimit="10" stroke-linejoin="miter" fill="none" stroke="#000000" d="M40.08847 40.08847"/>
<path transform="matrix(1.00009,0,0,-1.00002,66.581638,66.96102)" d="M48.55682 40.08847C48.55682 44.76547 44.76547 48.55682 40.08847 48.55682 35.41148 48.55682 31.62012 44.76547 31.62012 40.08847 31.62012 35.41148 35.41148 31.62012 40.08847 31.62012 44.76547 31.62012 48.55682 35.41148 48.55682 40.08847ZM40.08847 40.08847" fill="#ffffff"/>
<path transform="matrix(1.00009,0,0,-1.00002,66.581638,66.96102)" stroke-width=".3985" stroke-linecap="butt" stroke-miterlimit="10" stroke-linejoin="miter" fill="none" stroke="#000000" d="M48.55682 40.08847C48.55682 44.76547 44.76547 48.55682 40.08847 48.55682 35.41148 48.55682 31.62012 44.76547 31.62012 40.08847 31.62012 35.41148 35.41148 31.62012 40.08847 31.62012 44.76547 31.62012 48.55682 35.41148 48.55682 40.08847ZM40.08847 40.08847"/>
<path transform="matrix(1.00009,0,0,-1.00002,66.581638,66.96102)" stroke-width="1.19553" stroke-linecap="butt" stroke-miterlimit="10" stroke-linejoin="miter" fill="none" stroke="#000000" d="M0 56.69362-40.08847 40.08847"/>
<path transform="matrix(1.00009,0,0,-1.00002,66.581638,66.96102)" stroke-width=".3985" stroke-linecap="butt" stroke-miterlimit="10" stroke-linejoin="miter" fill="none" stroke="#000000" d="M0 56.69362"/>
<path transform="matrix(1.00009,0,0,-1.00002,66.581638,66.96102)" d="M8.46835 56.69362C8.46835 61.3706 4.67699 65.16197 0 65.16197-4.67699 65.16197-8.46835 61.3706-8.46835 56.69362-8.46835 52.01662-4.67699 48.22527 0 48.22527 4.67699 48.22527 8.46835 52.01662 8.46835 56.69362ZM0 56.69362" fill="#ffffff"/>
<path transform="matrix(1.00009,0,0,-1.00002,66.581638,66.96102)" stroke-width=".3985" stroke-linecap="butt" stroke-miterlimit="10" stroke-linejoin="miter" fill="none" stroke="#000000" d="M8.46835 56.69362C8.46835 61.3706 4.67699 65.16197 0 65.16197-4.67699 65.16197-8.46835 61.3706-8.46835 56.69362-8.46835 52.01662-4.67699 48.22527 0 48.22527 4.67699 48.22527 8.46835 52.01662 8.46835 56.69362ZM0 56.69362"/>
<path transform="matrix(1.00009,0,0,-1.00002,66.581638,66.96102)" stroke-width="1.19553" stroke-linecap="butt" stroke-miterlimit="10" stroke-linejoin="miter" fill="none" stroke="#000000" d="M-40.08847 40.08847-56.69362 0"/>
<path transform="matrix(1.00009,0,0,-1.00002,66.581638,66.96102)" stroke-width=".3985" stroke-linecap="butt" stroke-miterlimit="10" stroke-linejoin="miter" fill="none" stroke="#000000" d="M-40.08847 40.08847"/>
<path transform="matrix(1.00009,0,0,-1.00002,66.581638,66.96102)" d="M-31.62012 40.08847C-31.62012 44.76547-35.41148 48.55682-40.08847 48.55682-44.76547 48.55682-48.55682 44.76547-48.55682 40.08847-48.55682 35.41148-44.76547 31.62012-40.08847 31.62012-35.41148 31.62012-31.62012 35.41148-31.62012 40.08847ZM-40.08847 40.08847" fill="#ffffff"/>
<path transform="matrix(1.00009,0,0,-1.00002,66.581638,66.96102)" stroke-width=".3985" stroke-linecap="butt" stroke-miterlimit="10" stroke-linejoin="miter" fill="none" stroke="#000000" d="M-31.62012 40.08847C-31.62012 44.76547-35.41148 48.55682-40.08847 48.55682-44.76547 48.55682-48.55682 44.76547-48.55682 40.08847-48.55682 35.41148-44.76547 31.62012-40.08847 31.62012-35.41148 31.62012-31.62012 35.41148-31.62012 40.08847ZM-40.08847 40.08847"/>
<path transform="matrix(1.00009,0,0,-1.00002,66.581638,66.96102)" stroke-width="1.19553" stroke-linecap="butt" stroke-miterlimit="10" stroke-linejoin="miter" fill="none" stroke="#000000" d="M-56.69362 0-40.08847-40.08847"/>
<path transform="matrix(1.00009,0,0,-1.00002,66.581638,66.96102)" stroke-width=".3985" stroke-linecap="butt" stroke-miterlimit="10" stroke-linejoin="miter" fill="none" stroke="#000000" d="M-56.69362 0"/>
<path transform="matrix(1.00009,0,0,-1.00002,66.581638,66.96102)" d="M-48.22527 0C-48.22527 4.67699-52.01662 8.46835-56.69362 8.46835-61.3706 8.46835-65.16197 4.67699-65.16197 0-65.16197-4.67699-61.3706-8.46835-56.69362-8.46835-52.01662-8.46835-48.22527-4.67699-48.22527 0ZM-56.69362 0" fill="#ffffff"/>
<path transform="matrix(1.00009,0,0,-1.00002,66.581638,66.96102)" stroke-width=".3985" stroke-linecap="butt" stroke-miterlimit="10" stroke-linejoin="miter" fill="none" stroke="#000000" d="M-48.22527 0C-48.22527 4.67699-52.01662 8.46835-56.69362 8.46835-61.3706 8.46835-65.16197 4.67699-65.16197 0-65.16197-4.67699-61.3706-8.46835-56.69362-8.46835-52.01662-8.46835-48.22527-4.67699-48.22527 0ZM-56.69362 0"/>
<path transform="matrix(1.00009,0,0,-1.00002,66.581638,66.96102)" stroke-width="1.19553" stroke-linecap="butt" stroke-miterlimit="10" stroke-linejoin="miter" fill="none" stroke="#000000" d="M-40.08847-40.08847 0-56.69362"/>
<path transform="matrix(1.00009,0,0,-1.00002,66.581638,66.96102)" stroke-width=".3985" stroke-linecap="butt" stroke-miterlimit="10" stroke-linejoin="miter" fill="none" stroke="#000000" d="M-40.08847-40.08847"/>
<path transform="matrix(1.00009,0,0,-1.00002,66.581638,66.96102)" d="M-31.62012-40.08847C-31.62012-35.41148-35.41148-31.62012-40.08847-31.62012-44.76547-31.62012-48.55682-35.41148-48.55682-40.08847-48.55682-44.76547-44.76547-48.55682-40.08847-48.55682-35.41148-48.55682-31.62012-44.76547-31.62012-40.08847ZM-40.08847-40.08847" fill="#ffffff"/>
<path transform="matrix(1.00009,0,0,-1.00002,66.581638,66.96102)" stroke-width=".3985" stroke-linecap="butt" stroke-miterlimit="10" stroke-linejoin="miter" fill="none" stroke="#000000" d="M-31.62012-40.08847C-31.62012-35.41148-35.41148-31.62012-40.08847-31.62012-44.76547-31.62012-48.55682-35.41148-48.55682-40.08847-48.55682-44.76547-44.76547-48.55682-40.08847-48.55682-35.41148-48.55682-31.62012-44.76547-31.62012-40.08847ZM-40.08847-40.08847"/>
<path transform="matrix(1.00009,0,0,-1.00002,66.581638,66.96102)" stroke-width="1.19553" stroke-linecap="butt" stroke-miterlimit="10" stroke-linejoin="miter" fill="none" stroke="#000000" d="M0-56.69362 40.08847-40.08847"/>
<path transform="matrix(1.00009,0,0,-1.00002,66.581638,66.96102)" stroke-width=".3985" stroke-linecap="butt" stroke-miterlimit="10" stroke-linejoin="miter" fill="none" stroke="#000000" d="M0-56.69362"/>
<path transform="matrix(1.00009,0,0,-1.00002,66.581638,66.96102)" d="M8.46835-56.69362C8.46835-52.01662 4.67699-48.22527 0-48.22527-4.67699-48.22527-8.46835-52.01662-8.46835-56.69362-8.46835-61.3706-4.67699-65.16197 0-65.16197 4.67699-65.16197 8.46835-61.3706 8.46835-56.69362ZM0-56.69362" fill="#ffffff"/>
<path transform="matrix(1.00009,0,0,-1.00002,66.581638,66.96102)" stroke-width=".3985" stroke-linecap="butt" stroke-miterlimit="10" stroke-linejoin="miter" fill="none" stroke="#000000" d="M8.46835-56.69362C8.46835-52.01662 4.67699-48.22527 0-48.22527-4.67699-48.22527-8.46835-52.01662-8.46835-56.69362-8.46835-61.3706-4.67699-65.16197 0-65.16197 4.67699-65.16197 8.46835-61.3706 8.46835-56.69362ZM0-56.69362"/>
<path transform="matrix(1.00009,0,0,-1.00002,66.581638,66.96102)" stroke-width=".3985" stroke-linecap="butt" stroke-miterlimit="10" stroke-linejoin="miter" fill="none" stroke="#000000" d="M40.08847-40.08847"/>
<path transform="matrix(1.00009,0,0,-1.00002,66.581638,66.96102)" d="M48.55682-40.08847C48.55682-35.41148 44.76547-31.62012 40.08847-31.62012 35.41148-31.62012 31.62012-35.41148 31.62012-40.08847 31.62012-44.76547 35.41148-48.55682 40.08847-48.55682 44.76547-48.55682 48.55682-44.76547 48.55682-40.08847ZM40.08847-40.08847" fill="#ffffff"/>
<path transform="matrix(1.00009,0,0,-1.00002,66.581638,66.96102)" stroke-width=".3985" stroke-linecap="butt" stroke-miterlimit="10" stroke-linejoin="miter" fill="none" stroke="#000000" d="M48.55682-40.08847C48.55682-35.41148 44.76547-31.62012 40.08847-31.62012 35.41148-31.62012 31.62012-35.41148 31.62012-40.08847 31.62012-44.76547 35.41148-48.55682 40.08847-48.55682 44.76547-48.55682 48.55682-44.76547 48.55682-40.08847ZM40.08847-40.08847"/>
</svg>
