<svg xmlns="http://www.w3.org/2000/svg" xmlns:xlink="http://www.w3.org/1999/xlink" xmlns:inkscape="http://www.inkscape.org/namespaces/inkscape" version="1.1" width="192" height="111" viewBox="0 0 192 111">
<defs>
<path id="font_1_27" d="M.9089966 0V.04399109H.8829956C.82099917 .04399109 .80599978 .049987794 .7939911 .07698059L.5249939 .68981936C.5169983 .70780947 .5139923 .7158203 .48999024 .7158203 .47200013 .7158203 .46398927 .71180728 .45498658 .69181826L.19699097 .10298157C.1749878 .052993776 .12098694 .04399109 .070999149 .04399109V0C.10798645 .0029907227 .1499939 .0039978029 .18699646 .0039978029 .19999695 .0039978029 .2709961 .0029907227 .31698609 0V.04399109C.26098634 .043945314 .24099732 .06893921 .24099732 .0879364 .24099732 .09391785 .24299622 .09692383 .24598694 .104904178L.2979889 .22265625H.61898806L.6799927 .08293152C.6859894 .07093811 .6859894 .06793213 .6859894 .06793213 .6859894 .043945314 .6289978 .043945314 .59999087 .043945314V0L.7619934 .0039978029 .9089966 0M.59999087 .26664735H.31698609L.45799256 .58865359 .59999087 .26664735Z"/>
<path id="font_1_72" d="M.33399964 0V.04399109H.31599427C.25099183 .04399109 .25099183 .052993776 .25099183 .08401489V.69433596L.08299255 .6826172V.63861086C.15699768 .63861086 .1659851 .6316223 .1659851 .5826416V.083969119C.1659851 .052993776 .1659851 .04399109 .100997928 .04399109H.08299255V0C.125 .0029907227 .1659851 .0039978029 .20799256 .0039978029 .25 .0039978029 .2919922 .0029907227 .33399964 0Z"/>
<path id="font_1_34" d="M.83699038 .184906C.83699038 .25585938 .7649994 .33680726 .6029968 .3577881 .70399478 .3737793 .8019867 .43174745 .8019867 .51168826 .8019867 .6046295 .6779938 .6826172 .5289917 .6826172H.08699036V.63861086H.116989139C.19799805 .63861086 .19799805 .62861636 .19799805 .597641V.08496094C.19799805 .053985597 .19799805 .04399109 .116989139 .04399109H.08699036V0H.56199648C.71598818-.0001373291 .83699038 .085861209 .83699038 .18486023V.184906M.69299319 .5107269C.69299319 .43780519 .6049957 .3718567 .49499513 .3718567H.29599V.600647C.29599 .6316223 .29599 .63861086 .34498597 .63861086H.5219879C.6289978 .638855 .69299319 .5728607 .69299319 .51086428V.5107269M.723999 .18592835C.723999 .110961917 .6409912 .04399109 .5239868 .04399109H.34498597C.29599 .04399109 .29599 .050994874 .29599 .081970218V.3388672H.5319977C.66600039 .33898927 .723999 .25099183 .723999 .18598938V.18592835Z"/>
<path id="font_1_81" d="M.61499026 .21324158C.61499026 .33824159 .49699403 .4482422 .33999635 .4482422 .18299866 .4482422 .06498718 .33824159 .06498718 .21324158 .06498718 .09324646 .18399048-.0107421879 .33999635-.0107421879 .49699403-.0107421879 .61499026 .09324646 .61499026 .21324158M.5149994 .22323609C.5149994 .17424011 .5149994 .025253296 .33999635 .025253296 .16499329 .025253296 .16499329 .17424011 .16499329 .22323609 .16499329 .26823426 .16499329 .41523744 .33999635 .41523744 .5149994 .41523744 .5149994 .26823426 .5149994 .22323609Z"/>
<path id="font_1_35" d="M.6769867 .2163086C.6769867 .3363495 .56599429 .4423828 .4149933 .4423828 .36099244 .4423828 .2979889 .42837525 .24398804 .3863678V.69433596L.07598877 .68333438V.639328C.1499939 .639328 .15899658 .6323242 .15899658 .5833435V.00024414063H.20098877C.20899964 .013244629 .21699524 .027252198 .22399903 .040252687 .22698975 .04626465 .23098755 .053253175 .23498535 .059265138 .27799989 .013244629 .33898927-.0107421879 .4019928-.0107421879 .55400088-.0107421879 .6769867 .091278079 .6769867 .2163086M.57699587 .2163086C.57699587 .15829468 .56399539 .107284549 .5249939 .07026672 .49299623 .040252687 .44400025 .022247315 .3959961 .022247315 .32798768 .022247315 .27598573 .060256959 .24798584 .106277469V.3343506C.28199769 .38336183 .34799195 .40937806 .4079895 .40937806 .526001 .40937806 .57699587 .32234193 .57699587 .2163086Z"/>
<path id="font_1_42" d="M.8600006 .23370362C.8600006 .24972534 .85598757 .25473023 .83898928 .25473023 .8279877 .25473023 .81900027 .25473023 .81799319 .23771668 .80999758 .08558655 .6649933 .021530152 .5479889 .021530152 .4059906 .021530152 .21398926 .099594119 .21398926 .34179688 .21398926 .58000186 .4019928 .6610718 .5469971 .6610718 .6369934 .6610718 .7839966 .61302188 .81599429 .42686463 .81799319 .41485597 .8299866 .41485597 .83799746 .41485597 .8600006 .41485597 .8600006 .42185975 .8600006 .44288636V.677063C.8600006 .69407656 .8600006 .7050781 .84399417 .7050781 .83399966 .7050781 .83099368 .70106509 .82499697 .69306948L.7659912 .61602786C.7049866 .66807559 .6279907 .7050781 .5289917 .7050781 .2869873 .7050781 .09700012 .53796389 .09700012 .34179688 .09700012 .14363098 .2869873-.022460938 .5299988-.022460938 .72299197-.022460938 .8600006 .1006012 .8600006 .23370362Z"/>
<path id="font_1_28" d="M.6349945 .090148929V.14515686H.59298709V.09214783C.59298709 .08213806 .59298709 .038131715 .5529938 .038131715 .5130005 .038131715 .5130005 .08213806 .5130005 .09214783V.2972107C.5130005 .39323426 .4119873 .4482422 .28799439 .4482422 .22698975 .4482422 .11099243 .4452362 .11099243 .36021424 .11099243 .32321168 .13899231 .30619813 .1639862 .30619813 .19099427 .30619813 .21699524 .32521058 .21699524 .3592224 .21699524 .3832245 .20298767 .39822389 .19400025 .40423585 .22698975 .41523744 .2749939 .41523744 .28599549 .41523744 .37098695 .41523744 .42399598 .3682251 .42399598 .2962036V.27020265C.32699586 .26519776 .272995 .26219178 .19599915 .23518372 .12998963 .21217346 .07199097 .17016602 .07199097 .105148319 .07199097 .011245728 .18798828-.0107421879 .2679901-.0107421879 .34498597-.0107421879 .40499879 .020248414 .43598939 .071243289 .43998719 .036132814 .46299745-.005859375 .5139923-.005859375 .5209961-.005859375 .6349945-.005859375 .6349945 .09013367V.090148929M.42399598 .14213562C.42399598 .03224182 .3039856 .022247315 .2789917 .022247315 .21998596 .022247315 .1639862 .053253175 .1639862 .10523987 .1639862 .13824463 .18499756 .23022461 .42399598 .24023438V.14213562Z"/>
<path id="font_1_105" d="M.44400025 .12608338V.18099976H.4019928V.1290741C.4019928 .05419922 .35798646 .025253296 .32299806 .025253296 .24598694 .025253296 .24598694 .1051178 .24598694 .12608338V.3866577H.4229889V.43066407H.24598694V.6142578H.20399475C.20298767 .52046206 .15299988 .4226532 .050994874 .41966249V.3866577H.15699768V.12608338C.15699768 .012252808 .25099183-.0107421879 .31298829-.0107421879 .3880005-.011001587 .44400025 .04399109 .44400025 .12599182V.12608338Z"/>
<path id="font_1_46" d="M.9059906 .33580018C.9059906 .5226898 .7389984 .6826172 .5249939 .6826172H.084991458V.63861086C.10899353 .63861086 .13899231 .63861086 .16099549 .63661196 .19599915 .6336212 .19599915 .6206207 .19599915 .5956421V.08695984C.19599915 .0619812 .19599915 .04899597 .16099549 .04598999 .13899231 .04399109 .10699463 .04399109 .084991458 .04399109V0H.5249939C.7369995 0 .9059906 .15092469 .9059906 .33580018M.79299929 .33580018C.79299929 .24786377 .772995 .17390442 .71598818 .11894226 .68299868 .08796692 .6119995 .04399109 .49598695 .04399109H.34899903C.2979889 .04399109 .2979889 .049987794 .2979889 .083969119V.5986328C.2979889 .63261416 .2979889 .63861086 .34899903 .63861086H.49598695C.61499026 .63861086 .6859894 .5886383 .71299746 .56266787 .75 .52568057 .79299929 .46672059 .79299929 .33580018Z"/>
<path id="font_1_66" d="M.32598878 0V.04399109C.25898744 .04399109 .25099183 .04399109 .25099183 .08403015V.4423828L.08699036 .43066407V.3866577C.1579895 .3866577 .1659851 .3796692 .1659851 .33070375V.08395386C.1659851 .052978517 .1659851 .04399109 .100997928 .04399109H.08299255V0C.12399292 .0029907227 .1659851 .0039978029 .20698548 .0039978029 .24499512 .0039978029 .2889862 .0029907227 .32598878 0M.2619934 .6000519C.2619934 .63404849 .23498535 .6610565 .20098877 .6610565 .16799927 .6610565 .13999939 .63404849 .13999939 .6000519 .13999939 .5660553 .16699219 .5390625 .20098877 .5390625 .23399353 .5390625 .2619934 .5660553 .2619934 .6000519Z"/>
<path id="font_1_96" d="M.47898866 .37338258C.47898866 .41137696 .44299317 .4423828 .3899994 .4423828 .33999635 .44171144 .27598573 .41571046 .23699951 .33171083H.23599243V.4423828L.07598877 .43066407V.3866577C.1499939 .3866577 .15899658 .3796692 .15899658 .33070375V.08395386C.15899658 .052978517 .15899658 .04399109 .09399414 .04399109H.07598877V0C.117996219 .0029907227 .16299439 .0039978029 .20498657 .0039978029L.34799195 0V.04399109H.32099916C.24398804 .04399109 .24398804 .053985597 .24398804 .084991458V.22399903C.24398804 .31698609 .29699708 .40699769 .3919983 .40899659 .3919983 .40899659 .37799073 .394989 .37799073 .37298585 .37799073 .33699037 .4059906 .32199098 .42799378 .32199098 .45298768 .32199098 .47898866 .33898927 .47898866 .37298585V.37338258Z"/>
<path id="font_1_70" d="M.6649933 0V.04399109C.6199951 .04399109 .59498599 .04399109 .5519867 .09088135L.3880005 .26957704C.4039917 .2805786 .49499513 .34262086 .5 .344635 .56599429 .3846588 .6179962 .3866577 .6369934 .3866577V.43066407C.6009979 .426651 .56399539 .426651 .5519867 .426651 .5139923 .426651 .45399476 .4286499 .42099 .43066407V.3866577C.43499757 .3846588 .43598939 .37265016 .43598939 .37265016 .43598939 .36964417 .43598939 .35462953 .40699769 .33462525L.24398804 .22257996V.69433596L.07598877 .6826172V.63861086C.1499939 .63861086 .15899658 .6316223 .15899658 .5826416V.083969119C.15899658 .052993776 .15899658 .04399109 .09399414 .04399109H.07598877V0C.114990238 .00289917 .1599884 .00390625 .19898987 .00390625 .23899842 .0039978029 .28399659 .0029907227 .32299806 0V.04399109H.30499269C.23999024 .04399109 .23999024 .052749635 .23999024 .08358765V.16958618L.32199098 .22558594 .43598939 .10258484C.45298768 .08358765 .46499635 .07157898 .46499635 .05859375 .46499635 .04496765 .44499208 .04399109 .43899537 .04399109V0C.47999574 .00289917 .5479889 .00390625 .5629883 .00390625 .6009979 .0039978029 .6289978 .0029907227 .6649933 0Z"/>
<path id="font_1_49" d="M.83599856 .27101136H.7939911C.7649994 .10699463 .7259979 .04399109 .5349884 .04399109H.34899903C.2999878 .04399109 .2999878 .050994874 .2999878 .08200073V.3300171H.41600038C.5159912 .3300171 .5439911 .30900575 .5439911 .2130127H.58599856V.49090577H.5439911C.5439911 .394989 .5159912 .37402345 .41600038 .37402345H.2999878V.59680178C.2999878 .62776187 .2999878 .6347656 .34899903 .6347656H.526001C.69299319 .6347656 .73799136 .59477236 .7599945 .44082643H.8019867L.7689972 .6787567H.08299255V.6347656H.11299133C.19400025 .6347656 .19400025 .62475588 .19400025 .59376528V.0849762C.19400025 .053985597 .19400025 .04399109 .11299133 .04399109H.08299255V0H.7859955L.83599856 .27101136Z"/>
<path id="font_1_112" d="M.6579895 .3866577V.43066407C.6319885 .4286499 .60598757 .426651 .57099917 .426651 .57099917 .426651 .5049896 .42765809 .46899415 .43066407V.3866577C.49598695 .3856659 .5130005 .3736725 .5130005 .350708 .5130005 .34072877 .5079956 .33073426 .5079956 .33073426L.3809967 .083114627 .24398804 .3497162C.24198914 .353714 .23899842 .35969544 .23899842 .36569215 .23899842 .3866577 .272995 .3866577 .29299928 .3866577V.43066407C.24699402 .42765809 .1749878 .426651 .16799927 .426651 .12799073 .426651 .09799194 .426651 .055999757 .43066407V.3866577C.115997318 .3866577 .12998963 .3866577 .14498902 .3567047L.32199098 .01222229C.32899476-.0017700195 .33399964-.0107421879 .35699464-.0107421879 .37998963-.0107421879 .3849945-.00076293948 .3919983 .01222229L.5529938 .3267517C.56999209 .35969544 .59599307 .3856659 .6579895 .3866577Z"/>
<path id="font_1_43" d="M.5469971 .12023926C.5469971 .13424683 .5319977 .13424683 .526001 .13424683 .5099945 .13424683 .5089874 .13124085 .5039978 .11924744 .46998597 .036254884 .39698792 .025253296 .35299684 .025253296 .2669983 .025253296 .17199707 .08325195 .17199707 .21723938 .17199707 .26124574 .18099976 .3162384 .21798706 .3582306 .2659912 .41223146 .32499696 .41223146 .35598756 .41223146 .38598634 .41223146 .4139862 .41223146 .44898988 .40322877 .43499757 .39323426 .4269867 .37722779 .4269867 .35923768 .4269867 .3262329 .45199586 .3062439 .47999574 .3062439 .5039978 .3062439 .5329895 .3222351 .5329895 .3602295 .5329895 .4452362 .42199708 .4482422 .35198976 .4482422 .1559906 .4482422 .07199097 .3162384 .07199097 .21624756 .07199097 .09225464 .18899536-.0107421879 .33999635-.0107421879 .5130005-.0107421879 .5469971 .11125183 .5469971 .12023926Z"/>
<path id="font_1_98" d="M.47799684 .12625122C.47799684 .17124939 .45298768 .20423889 .4149933 .22824097 .375 .25323487 .34498597 .25723268 .26098634 .27023316 .19699097 .28024293 .11999512 .29223634 .11999512 .3452301 .11999512 .38023377 .15899658 .41822816 .2679901 .41822816 .35099793 .41822816 .39898683 .38523866 .40499879 .3162384 .4059906 .301239 .40699769 .2952423 .42599488 .2952423 .44699098 .2952423 .44699098 .30223084 .44699098 .3232422V.42022706C.44699098 .4372406 .44699098 .4482422 .43099977 .4482422 .42599488 .4482422 .42199708 .4472351 .4139862 .4412384 .4099884 .4372406 .3919983 .42123414 .3880005 .42123414 .3880005 .42123414 .3849945 .42123414 .3789978 .42523194 .35598756 .43823243 .31900025 .4482422 .2689972 .4482422 .10398865 .4482422 .069992069 .37223817 .069992069 .3262329 .069992069 .23223877 .18598938 .21424866 .27799989 .20024109 .33599855 .1912384 .42799378 .1772461 .42799378 .10925293 .42799378 .07424927 .39898683 .022247315 .27799989 .022247315 .20999146 .022247315 .14399719 .04725647 .11399841 .15324402 .10899353 .17124939 .10798645 .17424011 .09098816 .17424011 .069992069 .17424011 .069992069 .1662445 .069992069 .14524842V.01725769C.069992069 .00024414063 .069992069-.0107421879 .085998538-.0107421879 .09399414-.0107421879 .09498596-.009750366 .11399841 .009246826L.13999939 .03425598C.18998719-.009750366 .25299073-.0107421879 .27799989-.0107421879 .44499208-.0107421879 .47799684 .07624817 .47799684 .12625122Z"/>
<path id="font_1_97" d="M.6519928 .18066406C.6519928 .25572206 .60598757 .2997589 .58799746 .31677247 .54100039 .3628235 .4869995 .372818 .40499879 .38883973 .34899903 .3998413 .29100038 .41085816 .2809906 .41386415 .24099732 .42185975 .1579895 .45889283 .1579895 .5349579 .1579895 .6010132 .23199463 .66407778 .34098817 .66407778 .519989 .66407778 .5629883 .54597476 .57398989 .47291566 .57699587 .45889283 .58099368 .4559021 .59599307 .4559021 .61698916 .4559021 .61698916 .46290589 .61698916 .48391725V.677063C.61698916 .69407656 .61698916 .7050781 .6009979 .7050781 .59599307 .7050781 .58999636 .7050781 .58099368 .69207766L.5419922 .63404849C.49499513 .677063 .43199159 .7050781 .34098817 .7050781 .19898987 .7050781 .09700012 .6170349 .09700012 .51594546 .09700012 .4598999 .1269989 .41685487 .1579895 .39083863 .20899964 .34780885 .25898744 .33779908 .30499269 .32878114L.46299745 .29776C.5299988 .28175355 .59098818 .23170471 .59098818 .16365052 .59098818 .09259033 .5209961 .021530152 .40499879 .021530152 .35899354 .021530152 .2749939 .027542115 .21398926 .06756592 .1659851 .099594119 .14199829 .14463806 .13899231 .20368958 .13798523 .22070313 .13798523 .22669983 .117996219 .22669983 .09700012 .22669983 .09700012 .21868897 .09700012 .19767761V.0055389406C.09700012-.011474609 .09700012-.022460938 .11299133-.022460938 .12298584-.022460938 .125-.019470215 .1309967-.010467529 .13598633-.004470825 .16999817 .045547487 .16999817 .045547487 .24398804-.010467529 .33699037-.022460938 .40499879-.022460938 .55599978-.022460938 .6519928 .07658386 .6519928 .18066406Z"/>
</defs>
<path transform="matrix(1.00003,0,0,-1,10.547745,97.968)" stroke-width=".3985" stroke-linecap="butt" stroke-miterlimit="10" stroke-linejoin="miter" fill="none" stroke="#000000" d="M8.45132 85.04042C8.45132 89.70801 4.66757 93.49174 0 93.49174-4.66757 93.49174-8.45132 89.70801-8.45132 85.04042-8.45132 80.37283-4.66757 76.5891 0 76.5891 4.66757 76.5891 8.45132 80.37283 8.45132 85.04042ZM0 85.04042"/>
<use data-text="A" xlink:href="#font_1_27" transform="matrix(4.9814498,0,0,-4.9813,7.1006395,14.710999)"/>
<use data-text="l" xlink:href="#font_1_72" transform="matrix(4.9814498,0,0,-4.9813,11.98745,14.710999)"/>
<path transform="matrix(1.00003,0,0,-1,10.547745,97.968)" stroke-width=".3985" stroke-linecap="butt" stroke-miterlimit="10" stroke-linejoin="miter" fill="none" stroke="#000000" d="M53.00299 85.04042C53.00299 90.82997 48.30975 95.52322 42.5202 95.52322 36.73065 95.52322 32.0374 90.82997 32.0374 85.04042 32.0374 79.25087 36.73065 74.55762 42.5202 74.55762 48.30975 74.55762 53.00299 79.25087 53.00299 85.04042ZM42.5202 85.04042"/>
<use data-text="B" xlink:href="#font_1_34" transform="matrix(4.9814498,0,0,-4.9813,47.175844,14.629005)"/>
<use data-text="o" xlink:href="#font_1_81" transform="matrix(4.9814498,0,0,-4.9813,51.833505,14.629005)"/>
<use data-text="b" xlink:href="#font_1_35" transform="matrix(4.9814498,0,0,-4.9813,55.22587,14.629005)"/>
<path transform="matrix(1.00003,0,0,-1,10.547745,97.968)" stroke-width=".3985" stroke-linecap="butt" stroke-miterlimit="10" stroke-linejoin="miter" fill="none" stroke="#000000" d="M95.17929 85.04042C95.17929 90.64003 90.64003 95.17929 85.04042 95.17929 79.44083 95.17929 74.90155 90.64003 74.90155 85.04042 74.90155 79.44083 79.44083 74.90155 85.04042 74.90155 90.64003 74.90155 95.17929 79.44083 95.17929 85.04042ZM85.04042 85.04042"/>
<use data-text="C" xlink:href="#font_1_42" transform="matrix(4.9814498,0,0,-4.9813,90.158138,14.629005)"/>
<use data-text="a" xlink:href="#font_1_28" transform="matrix(4.9814498,0,0,-4.9813,94.93037,14.629005)"/>
<use data-text="t" xlink:href="#font_1_105" transform="matrix(4.9814498,0,0,-4.9813,98.32274,14.629005)"/>
<path transform="matrix(1.00003,0,0,-1,10.547745,97.968)" stroke-width=".3985" stroke-linecap="butt" stroke-miterlimit="10" stroke-linejoin="miter" fill="none" stroke="#000000" d="M138.69019 85.04042C138.69019 91.18718 133.70738 96.16997 127.56062 96.16997 121.41388 96.16997 116.43108 91.18718 116.43108 85.04042 116.43108 78.89368 121.41388 73.91087 127.56062 73.91087 133.70738 73.91087 138.69019 78.89368 138.69019 85.04042ZM127.56062 85.04042"/>
<use data-text="D" xlink:href="#font_1_46" transform="matrix(4.9814498,0,0,-4.9813,131.47638,14.656006)"/>
<use data-text="i" xlink:href="#font_1_66" transform="matrix(4.9814498,0,0,-4.9813,136.47776,14.656006)"/>
<use data-text="r" xlink:href="#font_1_96" transform="matrix(4.9814498,0,0,-4.9813,138.48529,14.656006)"/>
<use data-text="k" xlink:href="#font_1_70" transform="matrix(4.9814498,0,0,-4.9813,141.18524,14.656006)"/>
<path transform="matrix(1.00003,0,0,-1,10.547745,97.968)" stroke-width=".3985" stroke-linecap="butt" stroke-miterlimit="10" stroke-linejoin="miter" fill="none" stroke="#000000" d="M180.26035 85.04042C180.26035 90.66246 175.7029 95.21991 170.08086 95.21991 164.45882 95.21991 159.90137 90.66246 159.90137 85.04042 159.90137 79.41838 164.45882 74.86093 170.08086 74.86093 175.7029 74.86093 180.26035 79.41838 180.26035 85.04042ZM170.08086 85.04042"/>
<use data-text="E" xlink:href="#font_1_49" transform="matrix(4.9814498,0,0,-4.9813,175.08669,14.591003)"/>
<use data-text="v" xlink:href="#font_1_112" transform="matrix(4.9814498,0,0,-4.9813,179.56999,14.591003)"/>
<use data-text="a" xlink:href="#font_1_28" transform="matrix(4.9814498,0,0,-4.9813,182.793,14.591003)"/>
<path transform="matrix(1.00003,0,0,-1,10.547745,97.968)" stroke-width=".3985" stroke-linecap="butt" stroke-miterlimit="10" stroke-linejoin="miter" fill="none" stroke="#000000" d="M32.40762 0C32.40762 6.1567 27.41678 11.14754 21.26009 11.14754 15.1034 11.14754 10.11253 6.1567 10.11253 0 10.11253-6.1567 15.1034-11.14754 21.26009-11.14754 27.41678-11.14754 32.40762-6.1567 32.40762 0ZM21.26009 0"/>
<use data-text="C" xlink:href="#font_1_42" transform="matrix(4.9814498,0,0,-4.9813,25.200188,99.66901)"/>
<use data-text="a" xlink:href="#font_1_28" transform="matrix(4.9814498,0,0,-4.9813,29.97242,99.66901)"/>
<use data-text="l" xlink:href="#font_1_72" transform="matrix(4.9814498,0,0,-4.9813,33.36479,99.66901)"/>
<use data-text="c" xlink:href="#font_1_43" transform="matrix(4.9814498,0,0,-4.9813,35.372316,99.66901)"/>
<path transform="matrix(1.00003,0,0,-1,10.547745,97.968)" stroke-width=".3985" stroke-linecap="butt" stroke-miterlimit="10" stroke-linejoin="miter" fill="none" stroke="#000000" d="M95.94742 0C95.94742 6.02382 91.06425 10.90698 85.04042 10.90698 79.01659 10.90698 74.13342 6.02382 74.13342 0 74.13342-6.02382 79.01659-10.90698 85.04042-10.90698 91.06425-10.90698 95.94742-6.02382 95.94742 0ZM85.04042 0"/>
<use data-text="D" xlink:href="#font_1_46" transform="matrix(4.9814498,0,0,-4.9813,89.19711,99.642)"/>
<use data-text="i" xlink:href="#font_1_66" transform="matrix(4.9814498,0,0,-4.9813,94.198497,99.642)"/>
<use data-text="s" xlink:href="#font_1_98" transform="matrix(4.9814498,0,0,-4.9813,96.20602,99.642)"/>
<use data-text="c" xlink:href="#font_1_43" transform="matrix(4.9814498,0,0,-4.9813,98.940837,99.642)"/>
<path transform="matrix(1.00003,0,0,-1,10.547745,97.968)" stroke-width=".3985" stroke-linecap="butt" stroke-miterlimit="10" stroke-linejoin="miter" fill="none" stroke="#000000" d="M159.67763 0C159.67763 5.99615 154.8169 10.85689 148.82074 10.85689 142.82457 10.85689 137.96385 5.99615 137.96385 0 137.96385-5.99615 142.82457-10.85689 148.82074-10.85689 154.8169-10.85689 159.67763-5.99615 159.67763 0ZM148.82074 0"/>
<use data-text="S" xlink:href="#font_1_97" transform="matrix(4.9814498,0,0,-4.9813,153.10904,99.66901)"/>
<use data-text="t" xlink:href="#font_1_105" transform="matrix(4.9814498,0,0,-4.9813,156.84513,99.66901)"/>
<use data-text="a" xlink:href="#font_1_28" transform="matrix(4.9814498,0,0,-4.9813,159.54508,99.66901)"/>
<use data-text="t" xlink:href="#font_1_105" transform="matrix(4.9814498,0,0,-4.9813,162.93744,99.66901)"/>
<path transform="matrix(1.00003,0,0,-1,10.547745,97.968)" stroke-width=".3985" stroke-linecap="butt" stroke-miterlimit="10" stroke-linejoin="miter" fill="none" stroke="#000000" d=""/>
<path transform="matrix(1.00003,0,0,-1,10.547745,97.968)" stroke-width=".3985" stroke-linecap="butt" stroke-miterlimit="10" stroke-linejoin="miter" fill="none" stroke="#000000" d="M2.09846 76.65764 18.51082 11.00928"/>
<path transform="matrix(1.00003,0,0,-1,10.547745,97.968)" stroke-width=".3985" stroke-linecap="butt" stroke-miterlimit="10" stroke-linejoin="miter" fill="none" stroke="#000000" d="M7.51154 80.75903 139.23917 5.48639"/>
<path transform="matrix(1.00003,0,0,-1,10.547745,97.968)" stroke-width=".3985" stroke-linecap="butt" stroke-miterlimit="10" stroke-linejoin="miter" fill="none" stroke="#000000" d=""/>
<path transform="matrix(1.00003,0,0,-1,10.547745,97.968)" stroke-width=".3985" stroke-linecap="butt" stroke-miterlimit="10" stroke-linejoin="miter" fill="none" stroke="#000000" d="M39.93475 74.68646 24.01503 11.0091"/>
<path transform="matrix(1.00003,0,0,-1,10.547745,97.968)" stroke-width=".3985" stroke-linecap="butt" stroke-miterlimit="10" stroke-linejoin="miter" fill="none" stroke="#000000" d="M47.30399 75.49649 80.08476 9.93488"/>
<path transform="matrix(1.00003,0,0,-1,10.547745,97.968)" stroke-width=".3985" stroke-linecap="butt" stroke-miterlimit="10" stroke-linejoin="miter" fill="none" stroke="#000000" d=""/>
<path transform="matrix(1.00003,0,0,-1,10.547745,97.968)" stroke-width=".3985" stroke-linecap="butt" stroke-miterlimit="10" stroke-linejoin="miter" fill="none" stroke="#000000" d="M78.8476 76.7794 28.07144 9.07819"/>
<path transform="matrix(1.00003,0,0,-1,10.547745,97.968)" stroke-width=".3985" stroke-linecap="butt" stroke-miterlimit="10" stroke-linejoin="miter" fill="none" stroke="#000000" d="M91.25557 76.78052 142.20584 8.84668"/>
<path transform="matrix(1.00003,0,0,-1,10.547745,97.968)" stroke-width=".3985" stroke-linecap="butt" stroke-miterlimit="10" stroke-linejoin="miter" fill="none" stroke="#000000" d=""/>
<path transform="matrix(1.00003,0,0,-1,10.547745,97.968)" stroke-width=".3985" stroke-linecap="butt" stroke-miterlimit="10" stroke-linejoin="miter" fill="none" stroke="#000000" d="M130.32662 74.0598 146.1594 10.72778"/>
<path transform="matrix(1.00003,0,0,-1,10.547745,97.968)" stroke-width=".3985" stroke-linecap="butt" stroke-miterlimit="10" stroke-linejoin="miter" fill="none" stroke="#000000" d=""/>
<path transform="matrix(1.00003,0,0,-1,10.547745,97.968)" stroke-width=".3985" stroke-linecap="butt" stroke-miterlimit="10" stroke-linejoin="miter" fill="none" stroke="#000000" d="M161.08974 79.90102 31.11525 5.62973"/>
<path transform="matrix(1.00003,0,0,-1,10.547745,97.968)" stroke-width=".3985" stroke-linecap="butt" stroke-miterlimit="10" stroke-linejoin="miter" fill="none" stroke="#000000" d="M162.76262 77.7107 92.9054 7.85356"/>
</svg>
