<?xml version="1.0" encoding="UTF-8"?>
<svg xmlns="http://www.w3.org/2000/svg" xmlns:xlink="http://www.w3.org/1999/xlink" width="32pt" height="61pt" viewBox="0 0 32 61" version="1.1">
<g id="surface1">
<path style="fill:none;stroke-width:0.79701;stroke-linecap:butt;stroke-linejoin:miter;stroke:rgb(0%,0%,0%);stroke-opacity:1;stroke-miterlimit:10;" d="M 0.00187719 3.98613 L 0.00187719 52.707325 C 0.00187719 54.910383 1.78302 56.695486 3.986013 56.695486 L 24.359791 56.695486 C 26.562784 56.695486 28.347833 54.910383 28.347833 52.707325 L 28.347833 3.98613 C 28.347833 1.783071 26.562784 0.00187448 24.359791 0.00187448 L 3.986013 0.00187448 C 1.78302 0.00187448 0.00187719 1.783071 0.00187719 3.98613 Z M 0.00187719 3.98613 " transform="matrix(1.00006,0,0,-1.00003,2.294998,58.693281)"/>
<path style="fill:none;stroke-width:0.3985;stroke-linecap:butt;stroke-linejoin:miter;stroke:rgb(0%,0%,0%);stroke-opacity:1;stroke-miterlimit:10;" d="M 0.00187719 28.34868 L 28.347833 28.34868 " transform="matrix(1.00006,0,0,-1.00003,2.294998,58.693281)"/>
<path style=" stroke:none;fill-rule:nonzero;fill:rgb(0%,0%,0%);fill-opacity:1;" d="M 11.375 51.605469 C 11.375 50.507813 10.484375 49.613281 9.382813 49.613281 C 8.28125 49.613281 7.390625 50.507813 7.390625 51.605469 C 7.390625 52.707031 8.28125 53.597656 9.382813 53.597656 C 10.484375 53.597656 11.375 52.707031 11.375 51.605469 Z M 11.375 51.605469 "/>
<path style=" stroke:none;fill-rule:nonzero;fill:rgb(0%,0%,0%);fill-opacity:1;" d="M 18.460938 44.519531 C 18.460938 43.417969 17.570313 42.527344 16.46875 42.527344 C 15.367188 42.527344 14.476563 43.417969 14.476563 44.519531 C 14.476563 45.621094 15.367188 46.511719 16.46875 46.511719 C 17.570313 46.511719 18.460938 45.621094 18.460938 44.519531 Z M 18.460938 44.519531 "/>
<path style=" stroke:none;fill-rule:nonzero;fill:rgb(0%,0%,0%);fill-opacity:1;" d="M 25.550781 37.433594 C 25.550781 36.332031 24.65625 35.441406 23.554688 35.441406 C 22.457031 35.441406 21.5625 36.332031 21.5625 37.433594 C 21.5625 38.53125 22.457031 39.425781 23.554688 39.425781 C 24.65625 39.425781 25.550781 38.53125 25.550781 37.433594 Z M 25.550781 37.433594 "/>
<path style=" stroke:none;fill-rule:nonzero;fill:rgb(0%,0%,0%);fill-opacity:1;" d="M 18.460938 16.171875 C 18.460938 15.070313 17.570313 14.179688 16.46875 14.179688 C 15.367188 14.179688 14.476563 15.070313 14.476563 16.171875 C 14.476563 17.273438 15.367188 18.164063 16.46875 18.164063 C 17.570313 18.164063 18.460938 17.273438 18.460938 16.171875 Z M 18.460938 16.171875 "/>
</g>
</svg>
