<?xml version="1.0" encoding="UTF-8"?>
<svg xmlns="http://www.w3.org/2000/svg" xmlns:xlink="http://www.w3.org/1999/xlink" width="61pt" height="61pt" viewBox="0 0 61 61" version="1.1">
<g id="surface1">
<path style="fill-rule:nonzero;fill:rgb(84.999084%,84.999084%,84.999084%);fill-opacity:1;stroke-width:0.3985;stroke-linecap:butt;stroke-linejoin:miter;stroke:rgb(0%,0%,0%);stroke-opacity:1;stroke-miterlimit:10;" d="M 0.00174418 0.000375 L 0.00174418 7.086312 L 7.086973 7.086312 L 7.086973 0.000375 Z M 7.086973 7.086312 L 7.086973 14.17225 L 14.172202 14.17225 L 14.172202 7.086312 Z M 7.086973 7.086312 " transform="matrix(1.0001,0,0,-1,2.494349,58.891)"/>
<path style="fill-rule:nonzero;fill:rgb(84.999084%,84.999084%,84.999084%);fill-opacity:1;stroke-width:0.3985;stroke-linecap:butt;stroke-linejoin:miter;stroke:rgb(0%,0%,0%);stroke-opacity:1;stroke-miterlimit:10;" d="M 0.00174418 14.17225 L 0.00174418 21.258187 L 7.086973 21.258187 L 7.086973 14.17225 Z M 7.086973 21.258187 L 7.086973 28.348031 L 14.172202 28.348031 L 14.172202 21.258187 Z M 7.086973 21.258187 " transform="matrix(1.0001,0,0,-1,2.494349,58.891)"/>
<path style="fill-rule:nonzero;fill:rgb(84.999084%,84.999084%,84.999084%);fill-opacity:1;stroke-width:0.3985;stroke-linecap:butt;stroke-linejoin:miter;stroke:rgb(0%,0%,0%);stroke-opacity:1;stroke-miterlimit:10;" d="M 0.00174418 28.348031 L 0.00174418 35.433969 L 7.086973 35.433969 L 7.086973 28.348031 Z M 7.086973 35.433969 L 7.086973 42.519906 L 14.172202 42.519906 L 14.172202 35.433969 Z M 7.086973 35.433969 " transform="matrix(1.0001,0,0,-1,2.494349,58.891)"/>
<path style="fill-rule:nonzero;fill:rgb(84.999084%,84.999084%,84.999084%);fill-opacity:1;stroke-width:0.3985;stroke-linecap:butt;stroke-linejoin:miter;stroke:rgb(0%,0%,0%);stroke-opacity:1;stroke-miterlimit:10;" d="M 0.00174418 42.519906 L 0.00174418 49.605844 L 7.086973 49.605844 L 7.086973 42.519906 Z M 7.086973 49.605844 L 7.086973 56.691781 L 14.172202 56.691781 L 14.172202 49.605844 Z M 7.086973 49.605844 " transform="matrix(1.0001,0,0,-1,2.494349,58.891)"/>
<path style="fill-rule:nonzero;fill:rgb(84.999084%,84.999084%,84.999084%);fill-opacity:1;stroke-width:0.3985;stroke-linecap:butt;stroke-linejoin:miter;stroke:rgb(0%,0%,0%);stroke-opacity:1;stroke-miterlimit:10;" d="M 14.172202 0.000375 L 14.172202 7.086312 L 21.261337 7.086312 L 21.261337 0.000375 Z M 21.261337 7.086312 L 21.261337 14.17225 L 28.346566 14.17225 L 28.346566 7.086312 Z M 21.261337 7.086312 " transform="matrix(1.0001,0,0,-1,2.494349,58.891)"/>
<path style="fill-rule:nonzero;fill:rgb(84.999084%,84.999084%,84.999084%);fill-opacity:1;stroke-width:0.3985;stroke-linecap:butt;stroke-linejoin:miter;stroke:rgb(0%,0%,0%);stroke-opacity:1;stroke-miterlimit:10;" d="M 14.172202 14.17225 L 14.172202 21.258187 L 21.261337 21.258187 L 21.261337 14.17225 Z M 21.261337 21.258187 L 21.261337 28.348031 L 28.346566 28.348031 L 28.346566 21.258187 Z M 21.261337 21.258187 " transform="matrix(1.0001,0,0,-1,2.494349,58.891)"/>
<path style="fill-rule:nonzero;fill:rgb(84.999084%,84.999084%,84.999084%);fill-opacity:1;stroke-width:0.3985;stroke-linecap:butt;stroke-linejoin:miter;stroke:rgb(0%,0%,0%);stroke-opacity:1;stroke-miterlimit:10;" d="M 14.172202 28.348031 L 14.172202 35.433969 L 21.261337 35.433969 L 21.261337 28.348031 Z M 21.261337 35.433969 L 21.261337 42.519906 L 28.346566 42.519906 L 28.346566 35.433969 Z M 21.261337 35.433969 " transform="matrix(1.0001,0,0,-1,2.494349,58.891)"/>
<path style="fill-rule:nonzero;fill:rgb(84.999084%,84.999084%,84.999084%);fill-opacity:1;stroke-width:0.3985;stroke-linecap:butt;stroke-linejoin:miter;stroke:rgb(0%,0%,0%);stroke-opacity:1;stroke-miterlimit:10;" d="M 14.172202 42.519906 L 14.172202 49.605844 L 21.261337 49.605844 L 21.261337 42.519906 Z M 21.261337 49.605844 L 21.261337 56.691781 L 28.346566 56.691781 L 28.346566 49.605844 Z M 21.261337 49.605844 " transform="matrix(1.0001,0,0,-1,2.494349,58.891)"/>
<path style="fill-rule:nonzero;fill:rgb(84.999084%,84.999084%,84.999084%);fill-opacity:1;stroke-width:0.3985;stroke-linecap:butt;stroke-linejoin:miter;stroke:rgb(0%,0%,0%);stroke-opacity:1;stroke-miterlimit:10;" d="M 28.346566 0.000375 L 28.346566 7.086312 L 35.431795 7.086312 L 35.431795 0.000375 Z M 35.431795 7.086312 L 35.431795 14.17225 L 42.52093 14.17225 L 42.52093 7.086312 Z M 35.431795 7.086312 " transform="matrix(1.0001,0,0,-1,2.494349,58.891)"/>
<path style="fill-rule:nonzero;fill:rgb(84.999084%,84.999084%,84.999084%);fill-opacity:1;stroke-width:0.3985;stroke-linecap:butt;stroke-linejoin:miter;stroke:rgb(0%,0%,0%);stroke-opacity:1;stroke-miterlimit:10;" d="M 28.346566 14.17225 L 28.346566 21.258187 L 35.431795 21.258187 L 35.431795 14.17225 Z M 35.431795 21.258187 L 35.431795 28.348031 L 42.52093 28.348031 L 42.52093 21.258187 Z M 35.431795 21.258187 " transform="matrix(1.0001,0,0,-1,2.494349,58.891)"/>
<path style="fill-rule:nonzero;fill:rgb(84.999084%,84.999084%,84.999084%);fill-opacity:1;stroke-width:0.3985;stroke-linecap:butt;stroke-linejoin:miter;stroke:rgb(0%,0%,0%);stroke-opacity:1;stroke-miterlimit:10;" d="M 28.346566 28.348031 L 28.346566 35.433969 L 35.431795 35.433969 L 35.431795 28.348031 Z M 35.431795 35.433969 L 35.431795 42.519906 L 42.52093 42.519906 L 42.52093 35.433969 Z M 35.431795 35.433969 " transform="matrix(1.0001,0,0,-1,2.494349,58.891)"/>
<path style="fill-rule:nonzero;fill:rgb(84.999084%,84.999084%,84.999084%);fill-opacity:1;stroke-width:0.3985;stroke-linecap:butt;stroke-linejoin:miter;stroke:rgb(0%,0%,0%);stroke-opacity:1;stroke-miterlimit:10;" d="M 28.346566 42.519906 L 28.346566 49.605844 L 35.431795 49.605844 L 35.431795 42.519906 Z M 35.431795 49.605844 L 35.431795 56.691781 L 42.52093 56.691781 L 42.52093 49.605844 Z M 35.431795 49.605844 " transform="matrix(1.0001,0,0,-1,2.494349,58.891)"/>
<path style="fill-rule:nonzero;fill:rgb(84.999084%,84.999084%,84.999084%);fill-opacity:1;stroke-width:0.3985;stroke-linecap:butt;stroke-linejoin:miter;stroke:rgb(0%,0%,0%);stroke-opacity:1;stroke-miterlimit:10;" d="M 42.52093 0.000375 L 42.52093 7.086312 L 49.606159 7.086312 L 49.606159 0.000375 Z M 49.606159 7.086312 L 49.606159 14.17225 L 56.695294 14.17225 L 56.695294 7.086312 Z M 49.606159 7.086312 " transform="matrix(1.0001,0,0,-1,2.494349,58.891)"/>
<path style="fill-rule:nonzero;fill:rgb(84.999084%,84.999084%,84.999084%);fill-opacity:1;stroke-width:0.3985;stroke-linecap:butt;stroke-linejoin:miter;stroke:rgb(0%,0%,0%);stroke-opacity:1;stroke-miterlimit:10;" d="M 42.52093 14.17225 L 42.52093 21.258187 L 49.606159 21.258187 L 49.606159 14.17225 Z M 49.606159 21.258187 L 49.606159 28.348031 L 56.695294 28.348031 L 56.695294 21.258187 Z M 49.606159 21.258187 " transform="matrix(1.0001,0,0,-1,2.494349,58.891)"/>
<path style="fill-rule:nonzero;fill:rgb(84.999084%,84.999084%,84.999084%);fill-opacity:1;stroke-width:0.3985;stroke-linecap:butt;stroke-linejoin:miter;stroke:rgb(0%,0%,0%);stroke-opacity:1;stroke-miterlimit:10;" d="M 42.52093 28.348031 L 42.52093 35.433969 L 49.606159 35.433969 L 49.606159 28.348031 Z M 49.606159 35.433969 L 49.606159 42.519906 L 56.695294 42.519906 L 56.695294 35.433969 Z M 49.606159 35.433969 " transform="matrix(1.0001,0,0,-1,2.494349,58.891)"/>
<path style="fill-rule:nonzero;fill:rgb(84.999084%,84.999084%,84.999084%);fill-opacity:1;stroke-width:0.3985;stroke-linecap:butt;stroke-linejoin:miter;stroke:rgb(0%,0%,0%);stroke-opacity:1;stroke-miterlimit:10;" d="M 42.52093 42.519906 L 42.52093 49.605844 L 49.606159 49.605844 L 49.606159 42.519906 Z M 49.606159 49.605844 L 49.606159 56.691781 L 56.695294 56.691781 L 56.695294 49.605844 Z M 49.606159 49.605844 " transform="matrix(1.0001,0,0,-1,2.494349,58.891)"/>
<path style="fill:none;stroke-width:0.3985;stroke-linecap:butt;stroke-linejoin:miter;stroke:rgb(0%,0%,0%);stroke-opacity:1;stroke-miterlimit:10;" d="M 0.00174418 0.000375 L 56.695294 0.000375 M 0.00174418 7.086312 L 56.695294 7.086312 M 0.00174418 14.17225 L 56.695294 14.17225 M 0.00174418 21.258187 L 56.695294 21.258187 M 0.00174418 28.348031 L 56.695294 28.348031 M 0.00174418 35.433969 L 56.695294 35.433969 M 0.00174418 42.519906 L 56.695294 42.519906 M 0.00174418 49.605844 L 56.695294 49.605844 M 0.00174418 56.691781 L 56.695294 56.691781 M 0.00174418 0.000375 L 0.00174418 56.691781 M 7.086973 0.000375 L 7.086973 56.691781 M 14.172202 0.000375 L 14.172202 56.691781 M 21.261337 0.000375 L 21.261337 56.691781 M 28.346566 0.000375 L 28.346566 56.691781 M 35.431795 0.000375 L 35.431795 56.691781 M 42.52093 0.000375 L 42.52093 56.691781 M 49.606159 0.000375 L 49.606159 56.691781 M 56.691388 0.000375 L 56.691388 56.691781 " transform="matrix(1.0001,0,0,-1,2.494349,58.891)"/>
<path style="fill-rule:nonzero;fill:rgb(100%,100%,100%);fill-opacity:1;stroke-width:0.3985;stroke-linecap:butt;stroke-linejoin:miter;stroke:rgb(100%,100%,100%);stroke-opacity:1;stroke-miterlimit:10;" d="M 49.606159 49.605844 L 49.606159 56.691781 L 56.695294 56.691781 L 56.695294 49.605844 Z M 49.606159 49.605844 " transform="matrix(1.0001,0,0,-1,2.494349,58.891)"/>
<path style="fill:none;stroke-width:1.19553;stroke-linecap:butt;stroke-linejoin:miter;stroke:rgb(0%,0%,0%);stroke-opacity:1;stroke-miterlimit:10;" d="M 0.00174418 0.000375 L 56.695294 0.000375 L 56.695294 49.605844 L 49.606159 49.605844 L 49.606159 56.691781 L 0.00174418 56.691781 L 0.00174418 0.000375 " transform="matrix(1.0001,0,0,-1,2.494349,58.891)"/>
</g>
</svg>
