<?xml version="1.0" encoding="UTF-8"?>
<svg xmlns="http://www.w3.org/2000/svg" xmlns:xlink="http://www.w3.org/1999/xlink" width="148pt" height="64pt" viewBox="0 0 148 64" version="1.1">
<g id="surface1">
<path style=" stroke:none;fill-rule:nonzero;fill:rgb(0%,0%,0%);fill-opacity:1;" d="M 5.210938 60.328125 C 5.210938 59.226563 4.316406 58.332031 3.21875 58.332031 C 2.117188 58.332031 1.222656 59.226563 1.222656 60.328125 C 1.222656 61.425781 2.117188 62.320313 3.21875 62.320313 C 4.316406 62.320313 5.210938 61.425781 5.210938 60.328125 Z M 5.210938 60.328125 "/>
<path style=" stroke:none;fill-rule:nonzero;fill:rgb(0%,0%,0%);fill-opacity:1;" d="M 5.210938 3.632813 C 5.210938 2.53125 4.316406 1.636719 3.21875 1.636719 C 2.117188 1.636719 1.222656 2.53125 1.222656 3.632813 C 1.222656 4.730469 2.117188 5.625 3.21875 5.625 C 4.316406 5.625 5.210938 4.730469 5.210938 3.632813 Z M 5.210938 3.632813 "/>
<path style=" stroke:none;fill-rule:nonzero;fill:rgb(0%,0%,0%);fill-opacity:1;" d="M 33.558594 60.328125 C 33.558594 59.226563 32.667969 58.332031 31.566406 58.332031 C 30.464844 58.332031 29.574219 59.226563 29.574219 60.328125 C 29.574219 61.425781 30.464844 62.320313 31.566406 62.320313 C 32.667969 62.320313 33.558594 61.425781 33.558594 60.328125 Z M 33.558594 60.328125 "/>
<path style=" stroke:none;fill-rule:nonzero;fill:rgb(0%,0%,0%);fill-opacity:1;" d="M 33.558594 3.632813 C 33.558594 2.53125 32.667969 1.636719 31.566406 1.636719 C 30.464844 1.636719 29.574219 2.53125 29.574219 3.632813 C 29.574219 4.730469 30.464844 5.625 31.566406 5.625 C 32.667969 5.625 33.558594 4.730469 33.558594 3.632813 Z M 33.558594 3.632813 "/>
<path style=" stroke:none;fill-rule:nonzero;fill:rgb(0%,0%,0%);fill-opacity:1;" d="M 61.90625 60.328125 C 61.90625 59.226563 61.015625 58.332031 59.914063 58.332031 C 58.8125 58.332031 57.921875 59.226563 57.921875 60.328125 C 57.921875 61.425781 58.8125 62.320313 59.914063 62.320313 C 61.015625 62.320313 61.90625 61.425781 61.90625 60.328125 Z M 61.90625 60.328125 "/>
<path style=" stroke:none;fill-rule:nonzero;fill:rgb(0%,0%,0%);fill-opacity:1;" d="M 61.90625 3.632813 C 61.90625 2.53125 61.015625 1.636719 59.914063 1.636719 C 58.8125 1.636719 57.921875 2.53125 57.921875 3.632813 C 57.921875 4.730469 58.8125 5.625 59.914063 5.625 C 61.015625 5.625 61.90625 4.730469 61.90625 3.632813 Z M 61.90625 3.632813 "/>
<path style=" stroke:none;fill-rule:nonzero;fill:rgb(0%,0%,0%);fill-opacity:1;" d="M 90.253906 60.328125 C 90.253906 59.226563 89.363281 58.332031 88.261719 58.332031 C 87.164063 58.332031 86.269531 59.226563 86.269531 60.328125 C 86.269531 61.425781 87.164063 62.320313 88.261719 62.320313 C 89.363281 62.320313 90.253906 61.425781 90.253906 60.328125 Z M 90.253906 60.328125 "/>
<path style=" stroke:none;fill-rule:nonzero;fill:rgb(0%,0%,0%);fill-opacity:1;" d="M 90.253906 3.632813 C 90.253906 2.53125 89.363281 1.636719 88.261719 1.636719 C 87.164063 1.636719 86.269531 2.53125 86.269531 3.632813 C 86.269531 4.730469 87.164063 5.625 88.261719 5.625 C 89.363281 5.625 90.253906 4.730469 90.253906 3.632813 Z M 90.253906 3.632813 "/>
<path style=" stroke:none;fill-rule:nonzero;fill:rgb(0%,0%,0%);fill-opacity:1;" d="M 118.605469 60.328125 C 118.605469 59.226563 117.710938 58.332031 116.609375 58.332031 C 115.511719 58.332031 114.617188 59.226563 114.617188 60.328125 C 114.617188 61.425781 115.511719 62.320313 116.609375 62.320313 C 117.710938 62.320313 118.605469 61.425781 118.605469 60.328125 Z M 118.605469 60.328125 "/>
<path style=" stroke:none;fill-rule:nonzero;fill:rgb(0%,0%,0%);fill-opacity:1;" d="M 118.605469 3.632813 C 118.605469 2.53125 117.710938 1.636719 116.609375 1.636719 C 115.511719 1.636719 114.617188 2.53125 114.617188 3.632813 C 114.617188 4.730469 115.511719 5.625 116.609375 5.625 C 117.710938 5.625 118.605469 4.730469 118.605469 3.632813 Z M 118.605469 3.632813 "/>
<path style=" stroke:none;fill-rule:nonzero;fill:rgb(0%,0%,0%);fill-opacity:1;" d="M 146.953125 60.328125 C 146.953125 59.226563 146.058594 58.332031 144.960938 58.332031 C 143.859375 58.332031 142.96875 59.226563 142.96875 60.328125 C 142.96875 61.425781 143.859375 62.320313 144.960938 62.320313 C 146.058594 62.320313 146.953125 61.425781 146.953125 60.328125 Z M 146.953125 60.328125 "/>
<path style=" stroke:none;fill-rule:nonzero;fill:rgb(0%,0%,0%);fill-opacity:1;" d="M 146.953125 3.632813 C 146.953125 2.53125 146.058594 1.636719 144.960938 1.636719 C 143.859375 1.636719 142.96875 2.53125 142.96875 3.632813 C 142.96875 4.730469 143.859375 5.625 144.960938 5.625 C 146.058594 5.625 146.953125 4.730469 146.953125 3.632813 Z M 146.953125 3.632813 "/>
<path style="fill:none;stroke-width:1.99255;stroke-linecap:butt;stroke-linejoin:miter;stroke:rgb(0%,0%,0%);stroke-opacity:1;stroke-miterlimit:10;" d="M 0.00157689 -0.00158514 L 28.347532 56.692027 M 28.347532 -0.00158514 L 56.693488 56.692027 M 56.693488 -0.00158514 L 0.00157689 56.692027 M 85.039443 -0.00158514 L 113.385399 56.692027 M 113.385399 -0.00158514 L 141.73526 56.692027 " transform="matrix(1.00006,0,0,-1.00003,3.217173,60.32654)"/>
<path style="fill:none;stroke-width:0.19925;stroke-linecap:butt;stroke-linejoin:miter;stroke:rgb(0%,0%,0%);stroke-opacity:1;stroke-miterlimit:10;" d="M 0.00157689 -0.00158514 L 56.693488 56.692027 M 28.347532 -0.00158514 L 0.00157689 56.692027 M 56.693488 -0.00158514 L 28.347532 56.692027 M 56.693488 -0.00158514 L 85.039443 56.692027 M 56.693488 -0.00158514 L 113.385399 56.692027 M 85.039443 -0.00158514 L 56.693488 56.692027 M 113.385399 -0.00158514 L 56.693488 56.692027 M 113.385399 -0.00158514 L 85.039443 56.692027 M 113.385399 -0.00158514 L 113.385399 56.692027 M 141.73526 -0.00158514 L 113.385399 56.692027 M 141.73526 -0.00158514 L 141.73526 56.692027 " transform="matrix(1.00006,0,0,-1.00003,3.217173,60.32654)"/>
</g>
</svg>
