<?xml version="1.0" encoding="UTF-8"?>
<svg xmlns="http://www.w3.org/2000/svg" xmlns:xlink="http://www.w3.org/1999/xlink" width="102pt" height="41pt" viewBox="0 0 102 41" version="1.1">
<g id="surface1">
<path style="fill:none;stroke-width:0.3985;stroke-linecap:butt;stroke-linejoin:miter;stroke:rgb(0%,0%,0%);stroke-opacity:1;stroke-miterlimit:10;" d="M -0.000389588 0.0013697 L -0.000389588 28.346758 M 28.346416 0.0013697 L 28.346416 28.346758 M 56.693222 0.0013697 L 56.693222 28.346758 " transform="matrix(1.00003,0,0,-1.00008,8.070702,31.981839)"/>
<path style=" stroke:none;fill-rule:nonzero;fill:rgb(0%,0%,0%);fill-opacity:1;" d="M 10.0625 31.980469 C 10.0625 30.882813 9.171875 29.988281 8.070313 29.988281 C 6.96875 29.988281 6.078125 30.882813 6.078125 31.980469 C 6.078125 33.082031 6.96875 33.972656 8.070313 33.972656 C 9.171875 33.972656 10.0625 33.082031 10.0625 31.980469 Z M 10.0625 31.980469 "/>
<path style=" stroke:none;fill-rule:nonzero;fill:rgb(0%,0%,0%);fill-opacity:1;" d="M 10.0625 3.632813 C 10.0625 2.53125 9.171875 1.640625 8.070313 1.640625 C 6.96875 1.640625 6.078125 2.53125 6.078125 3.632813 C 6.078125 4.734375 6.96875 5.625 8.070313 5.625 C 9.171875 5.625 10.0625 4.734375 10.0625 3.632813 Z M 10.0625 3.632813 "/>
<path style=" stroke:none;fill-rule:nonzero;fill:rgb(0%,0%,0%);fill-opacity:1;" d="M 38.410156 31.980469 C 38.410156 30.882813 37.519531 29.988281 36.417969 29.988281 C 35.316406 29.988281 34.425781 30.882813 34.425781 31.980469 C 34.425781 33.082031 35.316406 33.972656 36.417969 33.972656 C 37.519531 33.972656 38.410156 33.082031 38.410156 31.980469 Z M 38.410156 31.980469 "/>
<path style=" stroke:none;fill-rule:nonzero;fill:rgb(0%,0%,0%);fill-opacity:1;" d="M 38.410156 3.632813 C 38.410156 2.53125 37.519531 1.640625 36.417969 1.640625 C 35.316406 1.640625 34.425781 2.53125 34.425781 3.632813 C 34.425781 4.734375 35.316406 5.625 36.417969 5.625 C 37.519531 5.625 38.410156 4.734375 38.410156 3.632813 Z M 38.410156 3.632813 "/>
<path style=" stroke:none;fill-rule:nonzero;fill:rgb(0%,0%,0%);fill-opacity:1;" d="M 66.757813 31.980469 C 66.757813 30.882813 65.867188 29.988281 64.765625 29.988281 C 63.664063 29.988281 62.773438 30.882813 62.773438 31.980469 C 62.773438 33.082031 63.664063 33.972656 64.765625 33.972656 C 65.867188 33.972656 66.757813 33.082031 66.757813 31.980469 Z M 66.757813 31.980469 "/>
<path style=" stroke:none;fill-rule:nonzero;fill:rgb(0%,0%,0%);fill-opacity:1;" d="M 66.757813 3.632813 C 66.757813 2.53125 65.867188 1.640625 64.765625 1.640625 C 63.664063 1.640625 62.773438 2.53125 62.773438 3.632813 C 62.773438 4.734375 63.664063 5.625 64.765625 5.625 C 65.867188 5.625 66.757813 4.734375 66.757813 3.632813 Z M 66.757813 3.632813 "/>
<path style=" stroke:none;fill-rule:nonzero;fill:rgb(0%,0%,0%);fill-opacity:1;" d="M 95.105469 31.980469 C 95.105469 30.882813 94.214844 29.988281 93.113281 29.988281 C 92.011719 29.988281 91.121094 30.882813 91.121094 31.980469 C 91.121094 33.082031 92.011719 33.972656 93.113281 33.972656 C 94.214844 33.972656 95.105469 33.082031 95.105469 31.980469 Z M 95.105469 31.980469 "/>
<path style=" stroke:none;fill-rule:nonzero;fill:rgb(0%,0%,0%);fill-opacity:1;" d="M 95.105469 3.632813 C 95.105469 2.53125 94.214844 1.640625 93.113281 1.640625 C 92.011719 1.640625 91.121094 2.53125 91.121094 3.632813 C 91.121094 4.734375 92.011719 5.625 93.113281 5.625 C 94.214844 5.625 95.105469 4.734375 95.105469 3.632813 Z M 95.105469 3.632813 "/>
<path style="fill:none;stroke-width:0.3985;stroke-linecap:butt;stroke-linejoin:miter;stroke:rgb(0%,0%,0%);stroke-opacity:1;stroke-miterlimit:10;" d="M -0.000389588 0.0013697 L 56.693222 28.346758 L 28.346416 0.0013697 L 85.040028 28.346758 M -0.000389588 28.346758 L 56.693222 0.0013697 M -0.000389588 28.346758 L 85.040028 0.0013697 L 56.693222 28.346758 " transform="matrix(1.00003,0,0,-1.00008,8.070702,31.981839)"/>
<path style="fill:none;stroke-width:0.3985;stroke-linecap:butt;stroke-linejoin:miter;stroke:rgb(0%,0%,0%);stroke-opacity:1;stroke-dasharray:2.98883,2.98883;stroke-miterlimit:10;" d="M 6.972057 0.0013697 C 6.972057 3.852624 3.851057 6.973468 -0.000389588 6.973468 C -3.851837 6.973468 -6.972837 3.852624 -6.972837 0.0013697 C -6.972837 -3.849885 -3.851837 -6.974635 -0.000389588 -6.974635 C 3.851057 -6.974635 6.972057 -3.849885 6.972057 0.0013697 Z M 63.665669 0.0013697 C 63.665669 3.852624 60.544669 6.973468 56.693222 6.973468 C 52.841775 6.973468 49.720775 3.852624 49.720775 0.0013697 C 49.720775 -3.849885 52.841775 -6.974635 56.693222 -6.974635 C 60.544669 -6.974635 63.665669 -3.849885 63.665669 0.0013697 Z M 92.012475 0.0013697 C 92.012475 3.852624 88.891475 6.973468 85.040028 6.973468 C 81.188581 6.973468 78.067581 3.852624 78.067581 0.0013697 C 78.067581 -3.849885 81.188581 -6.974635 85.040028 -6.974635 C 88.891475 -6.974635 92.012475 -3.849885 92.012475 0.0013697 Z M 92.012475 0.0013697 " transform="matrix(1.00003,0,0,-1.00008,8.070702,31.981839)"/>
</g>
</svg>
