<?xml version="1.0" encoding="UTF-8"?>
<svg xmlns="http://www.w3.org/2000/svg" xmlns:xlink="http://www.w3.org/1999/xlink" width="63pt" height="30pt" viewBox="0 0 63 30" version="1.1">
<g id="surface1">
<path style="fill:none;stroke-width:0.3985;stroke-linecap:butt;stroke-linejoin:miter;stroke:rgb(0%,0%,0%);stroke-opacity:1;stroke-miterlimit:10;" d="M -28.345423 22.678027 L -28.345423 -0.000980611 L 0.000532378 22.678027 L 0.000532378 -0.000980611 L 28.346488 22.678027 L 28.346488 -0.000980611 L 0.000532378 22.678027 L -28.345423 -0.000980611 L 28.346488 22.678027 M 28.346488 -0.000980611 L -28.345423 22.678027 L 0.000532378 -0.000980611 " transform="matrix(1.00006,0,0,-1.00003,31.565874,26.311519)"/>
<path style=" stroke:none;fill-rule:nonzero;fill:rgb(0%,0%,0%);fill-opacity:1;" d="M 5.210938 3.632813 C 5.210938 2.53125 4.316406 1.640625 3.21875 1.640625 C 2.117188 1.640625 1.226563 2.53125 1.226563 3.632813 C 1.226563 4.734375 2.117188 5.625 3.21875 5.625 C 4.316406 5.625 5.210938 4.734375 5.210938 3.632813 Z M 5.210938 3.632813 "/>
<path style=" stroke:none;fill-rule:nonzero;fill:rgb(0%,0%,0%);fill-opacity:1;" d="M 5.210938 26.3125 C 5.210938 25.210938 4.316406 24.320313 3.21875 24.320313 C 2.117188 24.320313 1.226563 25.210938 1.226563 26.3125 C 1.226563 27.410156 2.117188 28.304688 3.21875 28.304688 C 4.316406 28.304688 5.210938 27.410156 5.210938 26.3125 Z M 5.210938 26.3125 "/>
<path style=" stroke:none;fill-rule:nonzero;fill:rgb(0%,0%,0%);fill-opacity:1;" d="M 33.558594 3.632813 C 33.558594 2.53125 32.667969 1.640625 31.566406 1.640625 C 30.464844 1.640625 29.574219 2.53125 29.574219 3.632813 C 29.574219 4.734375 30.464844 5.625 31.566406 5.625 C 32.667969 5.625 33.558594 4.734375 33.558594 3.632813 Z M 33.558594 3.632813 "/>
<path style=" stroke:none;fill-rule:nonzero;fill:rgb(0%,0%,0%);fill-opacity:1;" d="M 33.558594 26.3125 C 33.558594 25.210938 32.667969 24.320313 31.566406 24.320313 C 30.464844 24.320313 29.574219 25.210938 29.574219 26.3125 C 29.574219 27.410156 30.464844 28.304688 31.566406 28.304688 C 32.667969 28.304688 33.558594 27.410156 33.558594 26.3125 Z M 33.558594 26.3125 "/>
<path style=" stroke:none;fill-rule:nonzero;fill:rgb(0%,0%,0%);fill-opacity:1;" d="M 61.90625 3.632813 C 61.90625 2.53125 61.015625 1.640625 59.914063 1.640625 C 58.8125 1.640625 57.921875 2.53125 57.921875 3.632813 C 57.921875 4.734375 58.8125 5.625 59.914063 5.625 C 61.015625 5.625 61.90625 4.734375 61.90625 3.632813 Z M 61.90625 3.632813 "/>
<path style=" stroke:none;fill-rule:nonzero;fill:rgb(0%,0%,0%);fill-opacity:1;" d="M 61.90625 26.3125 C 61.90625 25.210938 61.015625 24.320313 59.914063 24.320313 C 58.8125 24.320313 57.921875 25.210938 57.921875 26.3125 C 57.921875 27.410156 58.8125 28.304688 59.914063 28.304688 C 61.015625 28.304688 61.90625 27.410156 61.90625 26.3125 Z M 61.90625 26.3125 "/>
</g>
</svg>
