<?xml version="1.0" encoding="UTF-8"?>
<svg xmlns="http://www.w3.org/2000/svg" xmlns:xlink="http://www.w3.org/1999/xlink" width="59pt" height="59pt" viewBox="0 0 59 59" version="1.1">
<g id="surface1">
<path style=" stroke:none;fill-rule:nonzero;fill:rgb(0%,0%,0%);fill-opacity:1;" d="M 31.402344 29.820313 C 31.402344 28.71875 30.507813 27.828125 29.410156 27.828125 C 28.308594 27.828125 27.414063 28.71875 27.414063 29.820313 C 27.414063 30.921875 28.308594 31.8125 29.410156 31.8125 C 30.507813 31.8125 31.402344 30.921875 31.402344 29.820313 Z M 31.402344 29.820313 "/>
<path style="fill:none;stroke-width:0.3985;stroke-linecap:butt;stroke-linejoin:miter;stroke:rgb(0%,0%,0%);stroke-opacity:1;stroke-miterlimit:10;" d="M 0.00191556 0.000103918 L 26.186797 10.847543 " transform="matrix(1.0001,0,0,-1.00002,29.408241,29.820416)"/>
<path style=" stroke:none;fill-rule:nonzero;fill:rgb(0%,0%,0%);fill-opacity:1;" d="M 57.589844 18.972656 C 57.589844 17.871094 56.699219 16.980469 55.597656 16.980469 C 54.5 16.980469 53.605469 17.871094 53.605469 18.972656 C 53.605469 20.074219 54.5 20.964844 55.597656 20.964844 C 56.699219 20.964844 57.589844 20.074219 57.589844 18.972656 Z M 57.589844 18.972656 "/>
<path style="fill:none;stroke-width:0.3985;stroke-linecap:butt;stroke-linejoin:miter;stroke:rgb(0%,0%,0%);stroke-opacity:1;stroke-miterlimit:10;" d="M 0.00191556 0.000103918 L 10.848487 26.18708 " transform="matrix(1.0001,0,0,-1.00002,29.408241,29.820416)"/>
<path style=" stroke:none;fill-rule:nonzero;fill:rgb(0%,0%,0%);fill-opacity:1;" d="M 42.25 3.632813 C 42.25 2.53125 41.355469 1.640625 40.257813 1.640625 C 39.15625 1.640625 38.265625 2.53125 38.265625 3.632813 C 38.265625 4.730469 39.15625 5.625 40.257813 5.625 C 41.355469 5.625 42.25 4.730469 42.25 3.632813 Z M 42.25 3.632813 "/>
<path style="fill:none;stroke-width:0.3985;stroke-linecap:butt;stroke-linejoin:miter;stroke:rgb(0%,0%,0%);stroke-opacity:1;stroke-miterlimit:10;" d="M 0.00191556 0.000103918 L -10.848562 26.18708 " transform="matrix(1.0001,0,0,-1.00002,29.408241,29.820416)"/>
<path style=" stroke:none;fill-rule:nonzero;fill:rgb(0%,0%,0%);fill-opacity:1;" d="M 20.554688 3.632813 C 20.554688 2.53125 19.660156 1.640625 18.558594 1.640625 C 17.460938 1.640625 16.566406 2.53125 16.566406 3.632813 C 16.566406 4.730469 17.460938 5.625 18.558594 5.625 C 19.660156 5.625 20.554688 4.730469 20.554688 3.632813 Z M 20.554688 3.632813 "/>
<path style="fill:none;stroke-width:0.3985;stroke-linecap:butt;stroke-linejoin:miter;stroke:rgb(0%,0%,0%);stroke-opacity:1;stroke-miterlimit:10;" d="M 0.00191556 0.000103918 L -26.186872 10.847543 " transform="matrix(1.0001,0,0,-1.00002,29.408241,29.820416)"/>
<path style=" stroke:none;fill-rule:nonzero;fill:rgb(0%,0%,0%);fill-opacity:1;" d="M 5.210938 18.972656 C 5.210938 17.871094 4.316406 16.980469 3.21875 16.980469 C 2.117188 16.980469 1.226563 17.871094 1.226563 18.972656 C 1.226563 20.074219 2.117188 20.964844 3.21875 20.964844 C 4.316406 20.964844 5.210938 20.074219 5.210938 18.972656 Z M 5.210938 18.972656 "/>
<path style="fill:none;stroke-width:0.3985;stroke-linecap:butt;stroke-linejoin:miter;stroke:rgb(0%,0%,0%);stroke-opacity:1;stroke-miterlimit:10;" d="M 0.00191556 0.000103918 L -26.186872 -10.847335 " transform="matrix(1.0001,0,0,-1.00002,29.408241,29.820416)"/>
<path style=" stroke:none;fill-rule:nonzero;fill:rgb(0%,0%,0%);fill-opacity:1;" d="M 5.210938 40.667969 C 5.210938 39.566406 4.316406 38.675781 3.21875 38.675781 C 2.117188 38.675781 1.226563 39.566406 1.226563 40.667969 C 1.226563 41.769531 2.117188 42.660156 3.21875 42.660156 C 4.316406 42.660156 5.210938 41.769531 5.210938 40.667969 Z M 5.210938 40.667969 "/>
<path style="fill:none;stroke-width:0.3985;stroke-linecap:butt;stroke-linejoin:miter;stroke:rgb(0%,0%,0%);stroke-opacity:1;stroke-miterlimit:10;" d="M 0.00191556 0.000103918 L -10.848562 -26.186872 " transform="matrix(1.0001,0,0,-1.00002,29.408241,29.820416)"/>
<path style=" stroke:none;fill-rule:nonzero;fill:rgb(0%,0%,0%);fill-opacity:1;" d="M 20.554688 56.007813 C 20.554688 54.910156 19.660156 54.015625 18.558594 54.015625 C 17.460938 54.015625 16.566406 54.910156 16.566406 56.007813 C 16.566406 57.109375 17.460938 58 18.558594 58 C 19.660156 58 20.554688 57.109375 20.554688 56.007813 Z M 20.554688 56.007813 "/>
<path style="fill:none;stroke-width:0.3985;stroke-linecap:butt;stroke-linejoin:miter;stroke:rgb(0%,0%,0%);stroke-opacity:1;stroke-miterlimit:10;" d="M 0.00191556 0.000103918 L 10.848487 -26.186872 " transform="matrix(1.0001,0,0,-1.00002,29.408241,29.820416)"/>
<path style=" stroke:none;fill-rule:nonzero;fill:rgb(0%,0%,0%);fill-opacity:1;" d="M 42.25 56.007813 C 42.25 54.910156 41.355469 54.015625 40.257813 54.015625 C 39.15625 54.015625 38.265625 54.910156 38.265625 56.007813 C 38.265625 57.109375 39.15625 58 40.257813 58 C 41.355469 58 42.25 57.109375 42.25 56.007813 Z M 42.25 56.007813 "/>
<path style="fill:none;stroke-width:0.3985;stroke-linecap:butt;stroke-linejoin:miter;stroke:rgb(0%,0%,0%);stroke-opacity:1;stroke-miterlimit:10;" d="M 0.00191556 0.000103918 L 26.186797 -10.847335 " transform="matrix(1.0001,0,0,-1.00002,29.408241,29.820416)"/>
<path style=" stroke:none;fill-rule:nonzero;fill:rgb(0%,0%,0%);fill-opacity:1;" d="M 57.589844 40.667969 C 57.589844 39.566406 56.699219 38.675781 55.597656 38.675781 C 54.5 38.675781 53.605469 39.566406 53.605469 40.667969 C 53.605469 41.769531 54.5 42.660156 55.597656 42.660156 C 56.699219 42.660156 57.589844 41.769531 57.589844 40.667969 Z M 57.589844 40.667969 "/>
</g>
</svg>
