<?xml version="1.0" encoding="UTF-8"?>
<svg xmlns="http://www.w3.org/2000/svg" xmlns:xlink="http://www.w3.org/1999/xlink" width="70pt" height="58pt" viewBox="0 0 70 58" version="1.1">
<g id="surface1">
<path style="fill:none;stroke-width:0.3985;stroke-linecap:butt;stroke-linejoin:miter;stroke:rgb(0%,0%,0%);stroke-opacity:1;stroke-miterlimit:10;" d="M -28.346188 -25.512873 C -39.399992 -16.896117 -39.399992 -8.615281 -28.346188 0.00147603 C -39.399992 8.614327 -39.399992 16.895163 -28.346188 25.511919 C -17.292385 16.895163 -17.292385 8.614327 -28.346188 0.00147603 C -17.292385 -8.615281 -17.292385 -16.896117 -28.346188 -25.512873 " transform="matrix(1.00008,0,0,-1.00005,38.5008,29.146007)"/>
<path style=" stroke:none;fill-rule:nonzero;fill:rgb(0%,0%,0%);fill-opacity:1;" d="M 12.144531 54.660156 C 12.144531 53.558594 11.253906 52.667969 10.152344 52.667969 C 9.050781 52.667969 8.160156 53.558594 8.160156 54.660156 C 8.160156 55.757813 9.050781 56.652344 10.152344 56.652344 C 11.253906 56.652344 12.144531 55.757813 12.144531 54.660156 Z M 12.144531 54.660156 "/>
<path style=" stroke:none;fill-rule:nonzero;fill:rgb(0%,0%,0%);fill-opacity:1;" d="M 12.144531 29.144531 C 12.144531 28.046875 11.253906 27.152344 10.152344 27.152344 C 9.050781 27.152344 8.160156 28.046875 8.160156 29.144531 C 8.160156 30.246094 9.050781 31.136719 10.152344 31.136719 C 11.253906 31.136719 12.144531 30.246094 12.144531 29.144531 Z M 12.144531 29.144531 "/>
<path style=" stroke:none;fill-rule:nonzero;fill:rgb(0%,0%,0%);fill-opacity:1;" d="M 12.144531 3.632813 C 12.144531 2.53125 11.253906 1.640625 10.152344 1.640625 C 9.050781 1.640625 8.160156 2.53125 8.160156 3.632813 C 8.160156 4.734375 9.050781 5.625 10.152344 5.625 C 11.253906 5.625 12.144531 4.734375 12.144531 3.632813 Z M 12.144531 3.632813 "/>
<path style="fill:none;stroke-width:0.3985;stroke-linecap:butt;stroke-linejoin:miter;stroke:rgb(0%,0%,0%);stroke-opacity:1;stroke-miterlimit:10;" d="M 28.348495 0.00147603 L -28.346188 25.511919 M -28.346188 0.00147603 L 28.348495 0.00147603 L -28.346188 -25.512873 " transform="matrix(1.00008,0,0,-1.00005,38.5008,29.146007)"/>
<path style=" stroke:none;fill-rule:nonzero;fill:rgb(0%,0%,0%);fill-opacity:1;" d="M 68.84375 29.144531 C 68.84375 28.046875 67.949219 27.152344 66.851563 27.152344 C 65.75 27.152344 64.855469 28.046875 64.855469 29.144531 C 64.855469 30.246094 65.75 31.136719 66.851563 31.136719 C 67.949219 31.136719 68.84375 30.246094 68.84375 29.144531 Z M 68.84375 29.144531 "/>
</g>
</svg>
