<?xml version="1.0" encoding="UTF-8"?>
<svg xmlns="http://www.w3.org/2000/svg" xmlns:xlink="http://www.w3.org/1999/xlink" width="63pt" height="64pt" viewBox="0 0 63 64" version="1.1">
<g id="surface1">
<path style="fill:none;stroke-width:0.3985;stroke-linecap:butt;stroke-linejoin:miter;stroke:rgb(0%,0%,0%);stroke-opacity:1;stroke-miterlimit:10;" d="M -28.345423 -0.000779297 L 0.000532378 28.346027 L 28.346488 -0.000779297 L -28.345423 -0.000779297 L 0.000532378 -28.347585 L 28.346488 -0.000779297 " transform="matrix(1.00006,0,0,-1.00003,31.565874,31.979689)"/>
<path style=" stroke:none;fill-rule:nonzero;fill:rgb(0%,0%,0%);fill-opacity:1;" d="M 5.210938 31.980469 C 5.210938 30.878906 4.316406 29.988281 3.21875 29.988281 C 2.117188 29.988281 1.226563 30.878906 1.226563 31.980469 C 1.226563 33.082031 2.117188 33.972656 3.21875 33.972656 C 4.316406 33.972656 5.210938 33.082031 5.210938 31.980469 Z M 5.210938 31.980469 "/>
<path style=" stroke:none;fill-rule:nonzero;fill:rgb(0%,0%,0%);fill-opacity:1;" d="M 33.558594 3.632813 C 33.558594 2.53125 32.667969 1.640625 31.566406 1.640625 C 30.464844 1.640625 29.574219 2.53125 29.574219 3.632813 C 29.574219 4.734375 30.464844 5.625 31.566406 5.625 C 32.667969 5.625 33.558594 4.734375 33.558594 3.632813 Z M 33.558594 3.632813 "/>
<path style=" stroke:none;fill-rule:nonzero;fill:rgb(0%,0%,0%);fill-opacity:1;" d="M 33.558594 31.980469 C 33.558594 30.878906 32.667969 29.988281 31.566406 29.988281 C 30.464844 29.988281 29.574219 30.878906 29.574219 31.980469 C 29.574219 33.082031 30.464844 33.972656 31.566406 33.972656 C 32.667969 33.972656 33.558594 33.082031 33.558594 31.980469 Z M 33.558594 31.980469 "/>
<path style=" stroke:none;fill-rule:nonzero;fill:rgb(0%,0%,0%);fill-opacity:1;" d="M 33.558594 60.328125 C 33.558594 59.226563 32.667969 58.335938 31.566406 58.335938 C 30.464844 58.335938 29.574219 59.226563 29.574219 60.328125 C 29.574219 61.429688 30.464844 62.320313 31.566406 62.320313 C 32.667969 62.320313 33.558594 61.429688 33.558594 60.328125 Z M 33.558594 60.328125 "/>
<path style=" stroke:none;fill-rule:nonzero;fill:rgb(0%,0%,0%);fill-opacity:1;" d="M 61.90625 31.980469 C 61.90625 30.878906 61.015625 29.988281 59.914063 29.988281 C 58.8125 29.988281 57.921875 30.878906 57.921875 31.980469 C 57.921875 33.082031 58.8125 33.972656 59.914063 33.972656 C 61.015625 33.972656 61.90625 33.082031 61.90625 31.980469 Z M 61.90625 31.980469 "/>
</g>
</svg>
