<?xml version="1.0" encoding="UTF-8"?>
<svg xmlns="http://www.w3.org/2000/svg" xmlns:xlink="http://www.w3.org/1999/xlink" width="92pt" height="64pt" viewBox="0 0 92 64" version="1.1">
<g id="surface1">
<path style="fill:none;stroke-width:0.3985;stroke-linecap:butt;stroke-linejoin:miter;stroke:rgb(0%,0%,0%);stroke-opacity:1;stroke-miterlimit:10;" d="M -0.000580843 -0.00158514 L -28.347387 28.345221 L -42.518837 56.692027 M -28.347387 28.345221 L -14.172031 56.692027 M -0.000580843 -0.00158514 L 28.346225 28.345221 L 42.521581 56.692027 M 28.346225 28.345221 L 14.174775 56.692027 " transform="matrix(1.00003,0,0,-1.00003,45.738862,60.32654)"/>
<path style=" stroke:none;fill-rule:nonzero;fill:rgb(0%,0%,0%);fill-opacity:1;" d="M 47.730469 60.328125 C 47.730469 59.226563 46.839844 58.332031 45.738281 58.332031 C 44.636719 58.332031 43.746094 59.226563 43.746094 60.328125 C 43.746094 61.425781 44.636719 62.320313 45.738281 62.320313 C 46.839844 62.320313 47.730469 61.425781 47.730469 60.328125 Z M 47.730469 60.328125 "/>
<path style=" stroke:none;fill-rule:nonzero;fill:rgb(0%,0%,0%);fill-opacity:1;" d="M 19.382813 31.980469 C 19.382813 30.878906 18.492188 29.984375 17.390625 29.984375 C 16.289063 29.984375 15.398438 30.878906 15.398438 31.980469 C 15.398438 33.078125 16.289063 33.972656 17.390625 33.972656 C 18.492188 33.972656 19.382813 33.078125 19.382813 31.980469 Z M 19.382813 31.980469 "/>
<path style=" stroke:none;fill-rule:nonzero;fill:rgb(0%,0%,0%);fill-opacity:1;" d="M 5.210938 3.632813 C 5.210938 2.53125 4.316406 1.636719 3.21875 1.636719 C 2.117188 1.636719 1.226563 2.53125 1.226563 3.632813 C 1.226563 4.730469 2.117188 5.625 3.21875 5.625 C 4.316406 5.625 5.210938 4.730469 5.210938 3.632813 Z M 5.210938 3.632813 "/>
<path style=" stroke:none;fill-rule:nonzero;fill:rgb(0%,0%,0%);fill-opacity:1;" d="M 33.558594 3.632813 C 33.558594 2.53125 32.664063 1.636719 31.566406 1.636719 C 30.464844 1.636719 29.574219 2.53125 29.574219 3.632813 C 29.574219 4.730469 30.464844 5.625 31.566406 5.625 C 32.664063 5.625 33.558594 4.730469 33.558594 3.632813 Z M 33.558594 3.632813 "/>
<path style=" stroke:none;fill-rule:nonzero;fill:rgb(0%,0%,0%);fill-opacity:1;" d="M 76.078125 31.980469 C 76.078125 30.878906 75.1875 29.984375 74.085938 29.984375 C 72.984375 29.984375 72.09375 30.878906 72.09375 31.980469 C 72.09375 33.078125 72.984375 33.972656 74.085938 33.972656 C 75.1875 33.972656 76.078125 33.078125 76.078125 31.980469 Z M 76.078125 31.980469 "/>
<path style=" stroke:none;fill-rule:nonzero;fill:rgb(0%,0%,0%);fill-opacity:1;" d="M 90.253906 3.632813 C 90.253906 2.53125 89.359375 1.636719 88.261719 1.636719 C 87.160156 1.636719 86.269531 2.53125 86.269531 3.632813 C 86.269531 4.730469 87.160156 5.625 88.261719 5.625 C 89.359375 5.625 90.253906 4.730469 90.253906 3.632813 Z M 90.253906 3.632813 "/>
<path style=" stroke:none;fill-rule:nonzero;fill:rgb(0%,0%,0%);fill-opacity:1;" d="M 61.90625 3.632813 C 61.90625 2.53125 61.011719 1.636719 59.914063 1.636719 C 58.8125 1.636719 57.921875 2.53125 57.921875 3.632813 C 57.921875 4.730469 58.8125 5.625 59.914063 5.625 C 61.011719 5.625 61.90625 4.730469 61.90625 3.632813 Z M 61.90625 3.632813 "/>
</g>
</svg>
