<?xml version="1.0" encoding="UTF-8"?>
<svg xmlns="http://www.w3.org/2000/svg" xmlns:xlink="http://www.w3.org/1999/xlink" width="210pt" height="208pt" viewBox="0 0 210 208" version="1.1">
<g id="surface1">
<path style="fill:none;stroke-width:0.79701;stroke-linecap:butt;stroke-linejoin:miter;stroke:rgb(0%,0%,0%);stroke-opacity:1;stroke-miterlimit:10;" d="M 2.833562 28.347712 C 2.833562 28.347712 -7.471125 3.931209 0.00153125 0.00175682 C 7.474187 -3.931601 40.962469 -0.392751 56.692937 0.00175682 C 72.427312 0.392358 101.587469 2.833618 113.38825 2.833618 C 125.185125 2.833618 133.868719 0.392358 141.735906 0.00175682 C 149.599188 -0.392751 162.216375 0.00175682 170.079656 0.00175682 C 177.946844 0.00175682 194.493719 -3.931601 198.427313 0.00175682 C 202.360906 3.931209 198.032781 14.582913 198.427313 28.347712 C 198.821844 42.112511 201.26325 99.214554 201.26325 99.214554 M 28.345281 28.347712 C 28.345281 28.347712 6.767156 12.614281 2.833562 28.347712 C -1.100031 44.077237 0.00153125 141.73544 0.00153125 141.73544 M 56.692937 141.73544 C 56.692937 141.73544 32.278875 145.668798 28.345281 141.73544 C 24.415594 137.802083 28.345281 129.11901 28.345281 113.385579 C 28.345281 97.656054 28.345281 42.112511 28.345281 28.347712 C 28.345281 14.582913 20.482 16.141413 28.345281 14.172782 C 36.212469 12.208056 77.173406 11.22374 85.040594 14.172782 C 92.907781 17.121823 85.040594 35.433225 85.040594 35.433225 M 141.735906 0.00175682 C 141.735906 0.00175682 137.802313 24.414355 141.735906 28.347712 C 145.665594 32.28107 166.146063 32.28107 170.079656 28.347712 C 174.01325 24.414355 170.079656 0.00175682 170.079656 0.00175682 M 170.079656 28.347712 C 170.079656 28.347712 170.079656 75.208182 170.079656 85.039623 C 170.079656 94.874971 172.048406 97.245922 170.079656 99.214554 C 168.114813 101.17928 155.907781 99.214554 155.907781 99.214554 M 141.735906 28.347712 C 141.735906 28.347712 117.321844 27.363396 113.38825 28.347712 C 109.454656 29.328122 113.38825 33.468499 113.38825 35.433225 C 113.38825 37.401857 113.38825 35.636337 113.38825 42.518737 C 113.38825 49.401137 121.251531 79.14154 113.38825 85.039623 C 105.521063 90.941613 64.560125 92.906339 56.692937 85.039623 C 48.82575 77.172908 52.759344 35.230112 56.692937 28.347712 C 60.626531 21.465313 77.173406 34.448909 85.040594 35.433225 C 92.907781 36.417541 113.38825 35.433225 113.38825 35.433225 M 113.38825 42.518737 C 113.38825 42.518737 137.802313 36.620653 141.735906 42.518737 C 145.665594 48.420727 141.735906 75.208182 141.735906 85.039623 C 141.735906 94.874971 145.665594 109.456127 141.735906 113.385579 C 137.802313 117.318937 121.251531 113.975387 113.38825 113.385579 C 105.521063 112.79577 92.907781 109.135834 85.040594 109.135834 C 77.173406 109.135834 62.591375 112.79577 56.692937 113.385579 C 50.7945 113.975387 44.485906 117.318937 42.521062 113.385579 C 40.552312 109.456127 40.552312 88.972981 42.521062 85.039623 C 44.485906 81.106266 56.692937 85.039623 56.692937 85.039623 M 141.735906 85.039623 C 141.735906 85.039623 153.939031 83.074897 155.907781 85.039623 C 157.872625 87.008255 155.907781 94.496087 155.907781 99.214554 C 155.907781 103.933021 155.907781 113.155124 155.907781 119.057114 C 155.907781 124.955197 161.806219 138.587192 155.907781 141.73544 C 150.009344 144.879783 119.286688 145.668798 113.38825 141.73544 C 107.485906 137.802083 113.38825 113.385579 113.38825 113.385579 M 170.079656 85.039623 C 170.079656 85.039623 197.329656 91.347839 201.26325 99.214554 C 205.196844 107.08127 204.720281 138.981699 198.427313 141.73544 C 192.134344 144.485275 155.907781 119.057114 155.907781 119.057114 M 198.427313 141.73544 C 198.427313 141.73544 153.532781 176.389611 141.735906 184.252421 C 129.935125 192.119136 129.118719 196.462625 113.38825 198.427351 C 97.653875 200.395983 44.079656 206.294067 28.345281 198.427351 C 12.614812 190.560636 0.00153125 153.531608 0.00153125 141.73544 C 0.00153125 129.935367 28.345281 113.385579 28.345281 113.385579 M 56.692937 113.385579 C 56.692937 113.385579 57.482 135.833451 56.692937 141.73544 C 55.907781 147.633524 51.024969 151.973107 51.024969 155.906465 C 51.024969 159.839823 51.974187 166.148038 56.692937 170.081396 C 61.411687 174.014754 77.173406 188.185778 85.040594 184.252421 C 92.907781 180.322969 113.38825 141.73544 113.38825 141.73544 M 28.345281 198.427351 C 28.345281 198.427351 85.040594 184.252421 85.040594 184.252421 " transform="matrix(1,0,0,-1.00006,4.768,204.302538)"/>
</g>
</svg>
