<?xml version="1.0" encoding="UTF-8"?>
<svg xmlns="http://www.w3.org/2000/svg" xmlns:xlink="http://www.w3.org/1999/xlink" width="262pt" height="64pt" viewBox="0 0 262 64" version="1.1">
<g id="surface1">
<path style="fill:none;stroke-width:0.3985;stroke-linecap:butt;stroke-linejoin:miter;stroke:rgb(0%,0%,0%);stroke-opacity:1;stroke-miterlimit:10;" d="M 0.000990381 -0.00158514 L 0.000990381 56.692027 " transform="matrix(1.00009,0,0,-1.00003,3.21776,60.32654)"/>
<path style=" stroke:none;fill-rule:nonzero;fill:rgb(0%,0%,0%);fill-opacity:1;" d="M 5.210938 60.328125 C 5.210938 59.226563 4.316406 58.332031 3.21875 58.332031 C 2.117188 58.332031 1.226563 59.226563 1.226563 60.328125 C 1.226563 61.425781 2.117188 62.320313 3.21875 62.320313 C 4.316406 62.320313 5.210938 61.425781 5.210938 60.328125 Z M 5.210938 60.328125 "/>
<path style=" stroke:none;fill-rule:nonzero;fill:rgb(0%,0%,0%);fill-opacity:1;" d="M 5.210938 3.632813 C 5.210938 2.53125 4.316406 1.636719 3.21875 1.636719 C 2.117188 1.636719 1.226563 2.53125 1.226563 3.632813 C 1.226563 4.730469 2.117188 5.625 3.21875 5.625 C 4.316406 5.625 5.210938 4.730469 5.210938 3.632813 Z M 5.210938 3.632813 "/>
<path style="fill:none;stroke-width:0.3985;stroke-linecap:butt;stroke-linejoin:miter;stroke:rgb(0%,0%,0%);stroke-opacity:1;stroke-miterlimit:10;" d="M 28.346096 -0.00158514 L 28.346096 56.692027 " transform="matrix(1.00009,0,0,-1.00003,3.21776,60.32654)"/>
<path style=" stroke:none;fill-rule:nonzero;fill:rgb(0%,0%,0%);fill-opacity:1;" d="M 33.558594 60.328125 C 33.558594 59.226563 32.667969 58.332031 31.566406 58.332031 C 30.464844 58.332031 29.574219 59.226563 29.574219 60.328125 C 29.574219 61.425781 30.464844 62.320313 31.566406 62.320313 C 32.667969 62.320313 33.558594 61.425781 33.558594 60.328125 Z M 33.558594 60.328125 "/>
<path style=" stroke:none;fill-rule:nonzero;fill:rgb(0%,0%,0%);fill-opacity:1;" d="M 33.558594 3.632813 C 33.558594 2.53125 32.667969 1.636719 31.566406 1.636719 C 30.464844 1.636719 29.574219 2.53125 29.574219 3.632813 C 29.574219 4.730469 30.464844 5.625 31.566406 5.625 C 32.667969 5.625 33.558594 4.730469 33.558594 3.632813 Z M 33.558594 3.632813 "/>
<path style="fill:none;stroke-width:0.3985;stroke-linecap:butt;stroke-linejoin:miter;stroke:rgb(0%,0%,0%);stroke-opacity:1;stroke-miterlimit:10;" d="M 56.695107 -0.00158514 L 56.695107 56.692027 " transform="matrix(1.00009,0,0,-1.00003,3.21776,60.32654)"/>
<path style=" stroke:none;fill-rule:nonzero;fill:rgb(0%,0%,0%);fill-opacity:1;" d="M 61.910156 60.328125 C 61.910156 59.226563 61.015625 58.332031 59.917969 58.332031 C 58.816406 58.332031 57.921875 59.226563 57.921875 60.328125 C 57.921875 61.425781 58.816406 62.320313 59.917969 62.320313 C 61.015625 62.320313 61.910156 61.425781 61.910156 60.328125 Z M 61.910156 60.328125 "/>
<path style=" stroke:none;fill-rule:nonzero;fill:rgb(0%,0%,0%);fill-opacity:1;" d="M 61.910156 3.632813 C 61.910156 2.53125 61.015625 1.636719 59.917969 1.636719 C 58.816406 1.636719 57.921875 2.53125 57.921875 3.632813 C 57.921875 4.730469 58.816406 5.625 59.917969 5.625 C 61.015625 5.625 61.910156 4.730469 61.910156 3.632813 Z M 61.910156 3.632813 "/>
<path style="fill:none;stroke-width:0.3985;stroke-linecap:butt;stroke-linejoin:miter;stroke:rgb(0%,0%,0%);stroke-opacity:1;stroke-miterlimit:10;" d="M 85.040212 -0.00158514 L 85.040212 56.692027 " transform="matrix(1.00009,0,0,-1.00003,3.21776,60.32654)"/>
<path style=" stroke:none;fill-rule:nonzero;fill:rgb(0%,0%,0%);fill-opacity:1;" d="M 90.257813 60.328125 C 90.257813 59.226563 89.367188 58.332031 88.265625 58.332031 C 87.164063 58.332031 86.273438 59.226563 86.273438 60.328125 C 86.273438 61.425781 87.164063 62.320313 88.265625 62.320313 C 89.367188 62.320313 90.257813 61.425781 90.257813 60.328125 Z M 90.257813 60.328125 "/>
<path style=" stroke:none;fill-rule:nonzero;fill:rgb(0%,0%,0%);fill-opacity:1;" d="M 90.257813 3.632813 C 90.257813 2.53125 89.367188 1.636719 88.265625 1.636719 C 87.164063 1.636719 86.273438 2.53125 86.273438 3.632813 C 86.273438 4.730469 87.164063 5.625 88.265625 5.625 C 89.367188 5.625 90.257813 4.730469 90.257813 3.632813 Z M 90.257813 3.632813 "/>
<path style="fill:none;stroke-width:0.3985;stroke-linecap:butt;stroke-linejoin:miter;stroke:rgb(0%,0%,0%);stroke-opacity:1;stroke-miterlimit:10;" d="M 113.385317 -0.00158514 L 113.385317 56.692027 " transform="matrix(1.00009,0,0,-1.00003,3.21776,60.32654)"/>
<path style=" stroke:none;fill-rule:nonzero;fill:rgb(0%,0%,0%);fill-opacity:1;" d="M 118.609375 60.328125 C 118.609375 59.226563 117.714844 58.332031 116.613281 58.332031 C 115.515625 58.332031 114.621094 59.226563 114.621094 60.328125 C 114.621094 61.425781 115.515625 62.320313 116.613281 62.320313 C 117.714844 62.320313 118.609375 61.425781 118.609375 60.328125 Z M 118.609375 60.328125 "/>
<path style=" stroke:none;fill-rule:nonzero;fill:rgb(0%,0%,0%);fill-opacity:1;" d="M 118.609375 3.632813 C 118.609375 2.53125 117.714844 1.636719 116.613281 1.636719 C 115.515625 1.636719 114.621094 2.53125 114.621094 3.632813 C 114.621094 4.730469 115.515625 5.625 116.613281 5.625 C 117.714844 5.625 118.609375 4.730469 118.609375 3.632813 Z M 118.609375 3.632813 "/>
<path style="fill:none;stroke-width:0.3985;stroke-linecap:butt;stroke-linejoin:miter;stroke:rgb(0%,0%,0%);stroke-opacity:1;stroke-miterlimit:10;" d="M 141.734328 -0.00158514 L 141.734328 56.692027 " transform="matrix(1.00009,0,0,-1.00003,3.21776,60.32654)"/>
<path style=" stroke:none;fill-rule:nonzero;fill:rgb(0%,0%,0%);fill-opacity:1;" d="M 146.957031 60.328125 C 146.957031 59.226563 146.066406 58.332031 144.964844 58.332031 C 143.863281 58.332031 142.972656 59.226563 142.972656 60.328125 C 142.972656 61.425781 143.863281 62.320313 144.964844 62.320313 C 146.066406 62.320313 146.957031 61.425781 146.957031 60.328125 Z M 146.957031 60.328125 "/>
<path style=" stroke:none;fill-rule:nonzero;fill:rgb(0%,0%,0%);fill-opacity:1;" d="M 146.957031 3.632813 C 146.957031 2.53125 146.066406 1.636719 144.964844 1.636719 C 143.863281 1.636719 142.972656 2.53125 142.972656 3.632813 C 142.972656 4.730469 143.863281 5.625 144.964844 5.625 C 146.066406 5.625 146.957031 4.730469 146.957031 3.632813 Z M 146.957031 3.632813 "/>
<path style="fill:none;stroke-width:0.3985;stroke-linecap:butt;stroke-linejoin:miter;stroke:rgb(0%,0%,0%);stroke-opacity:1;stroke-miterlimit:10;" d="M 170.079433 -0.00158514 L 170.079433 56.692027 " transform="matrix(1.00009,0,0,-1.00003,3.21776,60.32654)"/>
<path style=" stroke:none;fill-rule:nonzero;fill:rgb(0%,0%,0%);fill-opacity:1;" d="M 175.308594 60.328125 C 175.308594 59.226563 174.414063 58.332031 173.3125 58.332031 C 172.214844 58.332031 171.320313 59.226563 171.320313 60.328125 C 171.320313 61.425781 172.214844 62.320313 173.3125 62.320313 C 174.414063 62.320313 175.308594 61.425781 175.308594 60.328125 Z M 175.308594 60.328125 "/>
<path style=" stroke:none;fill-rule:nonzero;fill:rgb(0%,0%,0%);fill-opacity:1;" d="M 175.308594 3.632813 C 175.308594 2.53125 174.414063 1.636719 173.3125 1.636719 C 172.214844 1.636719 171.320313 2.53125 171.320313 3.632813 C 171.320313 4.730469 172.214844 5.625 173.3125 5.625 C 174.414063 5.625 175.308594 4.730469 175.308594 3.632813 Z M 175.308594 3.632813 "/>
<path style="fill:none;stroke-width:0.3985;stroke-linecap:butt;stroke-linejoin:miter;stroke:rgb(0%,0%,0%);stroke-opacity:1;stroke-miterlimit:10;" d="M 198.428444 -0.00158514 L 198.428444 56.692027 " transform="matrix(1.00009,0,0,-1.00003,3.21776,60.32654)"/>
<path style=" stroke:none;fill-rule:nonzero;fill:rgb(0%,0%,0%);fill-opacity:1;" d="M 203.65625 60.328125 C 203.65625 59.226563 202.765625 58.332031 201.664063 58.332031 C 200.5625 58.332031 199.671875 59.226563 199.671875 60.328125 C 199.671875 61.425781 200.5625 62.320313 201.664063 62.320313 C 202.765625 62.320313 203.65625 61.425781 203.65625 60.328125 Z M 203.65625 60.328125 "/>
<path style=" stroke:none;fill-rule:nonzero;fill:rgb(0%,0%,0%);fill-opacity:1;" d="M 203.65625 3.632813 C 203.65625 2.53125 202.765625 1.636719 201.664063 1.636719 C 200.5625 1.636719 199.671875 2.53125 199.671875 3.632813 C 199.671875 4.730469 200.5625 5.625 201.664063 5.625 C 202.765625 5.625 203.65625 4.730469 203.65625 3.632813 Z M 203.65625 3.632813 "/>
<path style="fill:none;stroke-width:0.3985;stroke-linecap:butt;stroke-linejoin:miter;stroke:rgb(0%,0%,0%);stroke-opacity:1;stroke-miterlimit:10;" d="M 226.77355 -0.00158514 L 226.77355 56.692027 " transform="matrix(1.00009,0,0,-1.00003,3.21776,60.32654)"/>
<path style=" stroke:none;fill-rule:nonzero;fill:rgb(0%,0%,0%);fill-opacity:1;" d="M 232.003906 60.328125 C 232.003906 59.226563 231.113281 58.332031 230.011719 58.332031 C 228.910156 58.332031 228.019531 59.226563 228.019531 60.328125 C 228.019531 61.425781 228.910156 62.320313 230.011719 62.320313 C 231.113281 62.320313 232.003906 61.425781 232.003906 60.328125 Z M 232.003906 60.328125 "/>
<path style=" stroke:none;fill-rule:nonzero;fill:rgb(0%,0%,0%);fill-opacity:1;" d="M 232.003906 3.632813 C 232.003906 2.53125 231.113281 1.636719 230.011719 1.636719 C 228.910156 1.636719 228.019531 2.53125 228.019531 3.632813 C 228.019531 4.730469 228.910156 5.625 230.011719 5.625 C 231.113281 5.625 232.003906 4.730469 232.003906 3.632813 Z M 232.003906 3.632813 "/>
<path style="fill:none;stroke-width:0.3985;stroke-linecap:butt;stroke-linejoin:miter;stroke:rgb(0%,0%,0%);stroke-opacity:1;stroke-miterlimit:10;" d="M 255.122561 -0.00158514 L 255.122561 56.692027 " transform="matrix(1.00009,0,0,-1.00003,3.21776,60.32654)"/>
<path style=" stroke:none;fill-rule:nonzero;fill:rgb(0%,0%,0%);fill-opacity:1;" d="M 260.355469 60.328125 C 260.355469 59.226563 259.460938 58.332031 258.363281 58.332031 C 257.261719 58.332031 256.371094 59.226563 256.371094 60.328125 C 256.371094 61.425781 257.261719 62.320313 258.363281 62.320313 C 259.460938 62.320313 260.355469 61.425781 260.355469 60.328125 Z M 260.355469 60.328125 "/>
<path style=" stroke:none;fill-rule:nonzero;fill:rgb(0%,0%,0%);fill-opacity:1;" d="M 260.355469 3.632813 C 260.355469 2.53125 259.460938 1.636719 258.363281 1.636719 C 257.261719 1.636719 256.371094 2.53125 256.371094 3.632813 C 256.371094 4.730469 257.261719 5.625 258.363281 5.625 C 259.460938 5.625 260.355469 4.730469 260.355469 3.632813 Z M 260.355469 3.632813 "/>
<path style="fill:none;stroke-width:0.3985;stroke-linecap:butt;stroke-linejoin:miter;stroke:rgb(0%,0%,0%);stroke-opacity:1;stroke-miterlimit:10;" d="M 0.000990381 -0.00158514 L 28.346096 56.692027 L 56.695107 -0.00158514 L 85.040212 56.692027 L 113.385317 -0.00158514 L 141.734328 56.692027 L 170.079433 -0.00158514 L 198.428444 56.692027 L 226.77355 -0.00158514 L 255.122561 56.692027 " transform="matrix(1.00009,0,0,-1.00003,3.21776,60.32654)"/>
<path style="fill:none;stroke-width:0.3985;stroke-linecap:butt;stroke-linejoin:miter;stroke:rgb(0%,0%,0%);stroke-opacity:1;stroke-miterlimit:10;" d="M 0.000990381 56.692027 L 28.346096 -0.00158514 L 56.695107 56.692027 L 85.040212 -0.00158514 L 113.385317 56.692027 L 141.734328 -0.00158514 L 170.079433 56.692027 L 198.428444 -0.00158514 L 226.77355 56.692027 L 255.122561 -0.00158514 " transform="matrix(1.00009,0,0,-1.00003,3.21776,60.32654)"/>
</g>
</svg>
