<?xml version="1.0" encoding="UTF-8"?>
<svg xmlns="http://www.w3.org/2000/svg" xmlns:xlink="http://www.w3.org/1999/xlink" width="42pt" height="36pt" viewBox="0 0 42 36" version="1.1">
<g id="surface1">
<path style="fill:none;stroke-width:1.79329;stroke-linecap:butt;stroke-linejoin:miter;stroke:rgb(0%,0%,0%);stroke-opacity:1;stroke-miterlimit:10;" d="M 0.00144108 22.676212 L 19.641084 -11.337712 L -19.638202 -11.337712 L 0.00144108 22.676212 " transform="matrix(1.00005,0,0,-1.00005,20.928246,22.669534)"/>
<path style=" stroke:none;fill-rule:nonzero;fill:rgb(100%,100%,100%);fill-opacity:1;" d="M 23.320313 -0.0078125 C 23.320313 -1.328125 22.25 -2.398438 20.929688 -2.398438 C 19.609375 -2.398438 18.535156 -1.328125 18.535156 -0.0078125 C 18.535156 1.3125 19.609375 2.382813 20.929688 2.382813 C 22.25 2.382813 23.320313 1.3125 23.320313 -0.0078125 Z M 23.320313 -0.0078125 "/>
<path style=" stroke:none;fill-rule:nonzero;fill:rgb(100%,100%,100%);fill-opacity:1;" d="M 42.960938 34.007813 C 42.960938 32.6875 41.890625 31.617188 40.570313 31.617188 C 39.246094 31.617188 38.175781 32.6875 38.175781 34.007813 C 38.175781 35.328125 39.246094 36.398438 40.570313 36.398438 C 41.890625 36.398438 42.960938 35.328125 42.960938 34.007813 Z M 42.960938 34.007813 "/>
<path style=" stroke:none;fill-rule:nonzero;fill:rgb(100%,100%,100%);fill-opacity:1;" d="M 3.679688 34.007813 C 3.679688 32.6875 2.609375 31.617188 1.289063 31.617188 C -0.03125 31.617188 -1.101563 32.6875 -1.101563 34.007813 C -1.101563 35.328125 -0.03125 36.398438 1.289063 36.398438 C 2.609375 36.398438 3.679688 35.328125 3.679688 34.007813 Z M 3.679688 34.007813 "/>
</g>
</svg>
