<?xml version="1.0" encoding="UTF-8"?>
<svg xmlns="http://www.w3.org/2000/svg" xmlns:xlink="http://www.w3.org/1999/xlink" width="58pt" height="58pt" viewBox="0 0 58 58" version="1.1">
<g id="surface1">
<path style="fill:none;stroke-width:0.3985;stroke-linecap:butt;stroke-linejoin:miter;stroke:rgb(0%,0%,0%);stroke-opacity:1;stroke-miterlimit:10;" d="M -25.513881 -0.00187326 L 25.512443 -0.00187326 L 25.512443 51.022919 L -25.513881 51.022919 L -25.513881 -0.00187326 L 25.512443 51.022919 M -25.513881 51.022919 L 25.512443 -0.00187326 " transform="matrix(1.00002,0,0,-1.00005,28.729235,54.658283)"/>
<path style=" stroke:none;fill-rule:nonzero;fill:rgb(0%,0%,0%);fill-opacity:1;" d="M 5.210938 54.660156 C 5.210938 53.558594 4.316406 52.664063 3.214844 52.664063 C 2.117188 52.664063 1.222656 53.558594 1.222656 54.660156 C 1.222656 55.757813 2.117188 56.652344 3.214844 56.652344 C 4.316406 56.652344 5.210938 55.757813 5.210938 54.660156 Z M 5.210938 54.660156 "/>
<path style=" stroke:none;fill-rule:nonzero;fill:rgb(0%,0%,0%);fill-opacity:1;" d="M 56.234375 54.660156 C 56.234375 53.558594 55.34375 52.664063 54.242188 52.664063 C 53.140625 52.664063 52.25 53.558594 52.25 54.660156 C 52.25 55.757813 53.140625 56.652344 54.242188 56.652344 C 55.34375 56.652344 56.234375 55.757813 56.234375 54.660156 Z M 56.234375 54.660156 "/>
<path style=" stroke:none;fill-rule:nonzero;fill:rgb(0%,0%,0%);fill-opacity:1;" d="M 56.234375 3.632813 C 56.234375 2.53125 55.34375 1.640625 54.242188 1.640625 C 53.140625 1.640625 52.25 2.53125 52.25 3.632813 C 52.25 4.730469 53.140625 5.625 54.242188 5.625 C 55.34375 5.625 56.234375 4.730469 56.234375 3.632813 Z M 56.234375 3.632813 "/>
<path style=" stroke:none;fill-rule:nonzero;fill:rgb(0%,0%,0%);fill-opacity:1;" d="M 5.210938 3.632813 C 5.210938 2.53125 4.316406 1.640625 3.214844 1.640625 C 2.117188 1.640625 1.222656 2.53125 1.222656 3.632813 C 1.222656 4.730469 2.117188 5.625 3.214844 5.625 C 4.316406 5.625 5.210938 4.730469 5.210938 3.632813 Z M 5.210938 3.632813 "/>
<path style=" stroke:none;fill-rule:nonzero;fill:rgb(0%,0%,0%);fill-opacity:1;" d="M 30.722656 29.144531 C 30.722656 28.042969 29.828125 27.152344 28.730469 27.152344 C 27.628906 27.152344 26.738281 28.042969 26.738281 29.144531 C 26.738281 30.246094 27.628906 31.136719 28.730469 31.136719 C 29.828125 31.136719 30.722656 30.246094 30.722656 29.144531 Z M 30.722656 29.144531 "/>
</g>
</svg>
