<?xml version="1.0" encoding="UTF-8"?>
<svg xmlns="http://www.w3.org/2000/svg" xmlns:xlink="http://www.w3.org/1999/xlink" width="106pt" height="80pt" viewBox="0 0 106 80" version="1.1">
<g id="surface1">
<path style="fill:none;stroke-width:0.3985;stroke-linecap:butt;stroke-linejoin:miter;stroke:rgb(0%,0%,0%);stroke-opacity:1;stroke-miterlimit:10;" d="M -19.841182 19.841437 L -29.762561 29.763312 M -19.841182 19.841437 L -17.856906 39.685187 M -19.841182 19.841437 L -3.966976 9.919562 M -19.841182 19.841437 L -9.919803 3.970344 " transform="matrix(1.00005,0,0,-1,32.982799,43.318)"/>
<path style=" stroke:none;fill-rule:nonzero;fill:rgb(0%,0%,0%);fill-opacity:1;" d="M 15.132813 23.476563 C 15.132813 22.375 14.238281 21.484375 13.140625 21.484375 C 12.039063 21.484375 11.148438 22.375 11.148438 23.476563 C 11.148438 24.574219 12.039063 25.46875 13.140625 25.46875 C 14.238281 25.46875 15.132813 24.574219 15.132813 23.476563 Z M 15.132813 23.476563 "/>
<path style=" stroke:none;fill-rule:nonzero;fill:rgb(0%,0%,0%);fill-opacity:1;" d="M 5.210938 13.554688 C 5.210938 12.453125 4.316406 11.5625 3.21875 11.5625 C 2.117188 11.5625 1.226563 12.453125 1.226563 13.554688 C 1.226563 14.65625 2.117188 15.546875 3.21875 15.546875 C 4.316406 15.546875 5.210938 14.65625 5.210938 13.554688 Z M 5.210938 13.554688 "/>
<path style=" stroke:none;fill-rule:nonzero;fill:rgb(0%,0%,0%);fill-opacity:1;" d="M 17.117188 3.632813 C 17.117188 2.53125 16.222656 1.640625 15.125 1.640625 C 14.023438 1.640625 13.132813 2.53125 13.132813 3.632813 C 13.132813 4.734375 14.023438 5.625 15.125 5.625 C 16.222656 5.625 17.117188 4.734375 17.117188 3.632813 Z M 17.117188 3.632813 "/>
<path style=" stroke:none;fill-rule:nonzero;fill:rgb(0%,0%,0%);fill-opacity:1;" d="M 31.007813 33.398438 C 31.007813 32.296875 30.113281 31.402344 29.015625 31.402344 C 27.914063 31.402344 27.023438 32.296875 27.023438 33.398438 C 27.023438 34.496094 27.914063 35.390625 29.015625 35.390625 C 30.113281 35.390625 31.007813 34.496094 31.007813 33.398438 Z M 31.007813 33.398438 "/>
<path style=" stroke:none;fill-rule:nonzero;fill:rgb(0%,0%,0%);fill-opacity:1;" d="M 25.054688 39.347656 C 25.054688 38.25 24.160156 37.355469 23.0625 37.355469 C 21.960938 37.355469 21.066406 38.25 21.066406 39.347656 C 21.066406 40.449219 21.960938 41.34375 23.0625 41.34375 C 24.160156 41.34375 25.054688 40.449219 25.054688 39.347656 Z M 25.054688 39.347656 "/>
<path style="fill:none;stroke-width:0.3985;stroke-linecap:butt;stroke-linejoin:miter;stroke:rgb(0%,0%,0%);stroke-opacity:1;stroke-miterlimit:10;" d="M -19.841182 19.841437 L 19.844334 19.841437 L 9.922955 25.794562 M 19.844334 19.841437 L 19.844334 39.685187 M 19.844334 19.841437 L 29.765713 25.794562 M 19.844334 19.841437 L 29.765713 19.841437 " transform="matrix(1.00005,0,0,-1,32.982799,43.318)"/>
<path style=" stroke:none;fill-rule:nonzero;fill:rgb(0%,0%,0%);fill-opacity:1;" d="M 54.820313 23.476563 C 54.820313 22.375 53.925781 21.484375 52.828125 21.484375 C 51.726563 21.484375 50.832031 22.375 50.832031 23.476563 C 50.832031 24.574219 51.726563 25.46875 52.828125 25.46875 C 53.925781 25.46875 54.820313 24.574219 54.820313 23.476563 Z M 54.820313 23.476563 "/>
<path style=" stroke:none;fill-rule:nonzero;fill:rgb(0%,0%,0%);fill-opacity:1;" d="M 44.898438 17.523438 C 44.898438 16.421875 44.003906 15.53125 42.90625 15.53125 C 41.804688 15.53125 40.910156 16.421875 40.910156 17.523438 C 40.910156 18.621094 41.804688 19.515625 42.90625 19.515625 C 44.003906 19.515625 44.898438 18.621094 44.898438 17.523438 Z M 44.898438 17.523438 "/>
<path style=" stroke:none;fill-rule:nonzero;fill:rgb(0%,0%,0%);fill-opacity:1;" d="M 54.820313 3.632813 C 54.820313 2.53125 53.925781 1.640625 52.828125 1.640625 C 51.726563 1.640625 50.832031 2.53125 50.832031 3.632813 C 50.832031 4.734375 51.726563 5.625 52.828125 5.625 C 53.925781 5.625 54.820313 4.734375 54.820313 3.632813 Z M 54.820313 3.632813 "/>
<path style=" stroke:none;fill-rule:nonzero;fill:rgb(0%,0%,0%);fill-opacity:1;" d="M 64.742188 17.523438 C 64.742188 16.421875 63.847656 15.53125 62.75 15.53125 C 61.648438 15.53125 60.753906 16.421875 60.753906 17.523438 C 60.753906 18.621094 61.648438 19.515625 62.75 19.515625 C 63.847656 19.515625 64.742188 18.621094 64.742188 17.523438 Z M 64.742188 17.523438 "/>
<path style=" stroke:none;fill-rule:nonzero;fill:rgb(0%,0%,0%);fill-opacity:1;" d="M 64.742188 23.476563 C 64.742188 22.375 63.847656 21.484375 62.75 21.484375 C 61.648438 21.484375 60.753906 22.375 60.753906 23.476563 C 60.753906 24.574219 61.648438 25.46875 62.75 25.46875 C 63.847656 25.46875 64.742188 24.574219 64.742188 23.476563 Z M 64.742188 23.476563 "/>
<path style="fill:none;stroke-width:0.3985;stroke-linecap:butt;stroke-linejoin:miter;stroke:rgb(0%,0%,0%);stroke-opacity:1;stroke-miterlimit:10;" d="M 19.844334 19.841437 L 0.00157587 0.00159375 L -3.966976 -19.842156 M 0.00157587 0.00159375 L 3.970127 -19.842156 M 0.00157587 0.00159375 L 39.687092 0.00159375 L 39.687092 19.841437 L 49.608471 29.763312 M 39.687092 19.841437 L 47.624195 21.825812 " transform="matrix(1.00005,0,0,-1,32.982799,43.318)"/>
<path style=" stroke:none;fill-rule:nonzero;fill:rgb(0%,0%,0%);fill-opacity:1;" d="M 34.976563 43.316406 C 34.976563 42.21875 34.082031 41.324219 32.984375 41.324219 C 31.882813 41.324219 30.988281 42.21875 30.988281 43.316406 C 30.988281 44.417969 31.882813 45.3125 32.984375 45.3125 C 34.082031 45.3125 34.976563 44.417969 34.976563 43.316406 Z M 34.976563 43.316406 "/>
<path style=" stroke:none;fill-rule:nonzero;fill:rgb(0%,0%,0%);fill-opacity:1;" d="M 31.007813 63.160156 C 31.007813 62.058594 30.113281 61.167969 29.015625 61.167969 C 27.914063 61.167969 27.023438 62.058594 27.023438 63.160156 C 27.023438 64.261719 27.914063 65.152344 29.015625 65.152344 C 30.113281 65.152344 31.007813 64.261719 31.007813 63.160156 Z M 31.007813 63.160156 "/>
<path style=" stroke:none;fill-rule:nonzero;fill:rgb(0%,0%,0%);fill-opacity:1;" d="M 38.945313 63.160156 C 38.945313 62.058594 38.050781 61.167969 36.953125 61.167969 C 35.851563 61.167969 34.957031 62.058594 34.957031 63.160156 C 34.957031 64.261719 35.851563 65.152344 36.953125 65.152344 C 38.050781 65.152344 38.945313 64.261719 38.945313 63.160156 Z M 38.945313 63.160156 "/>
<path style=" stroke:none;fill-rule:nonzero;fill:rgb(0%,0%,0%);fill-opacity:1;" d="M 74.664063 43.316406 C 74.664063 42.21875 73.769531 41.324219 72.671875 41.324219 C 71.570313 41.324219 70.675781 42.21875 70.675781 43.316406 C 70.675781 44.417969 71.570313 45.3125 72.671875 45.3125 C 73.769531 45.3125 74.664063 44.417969 74.664063 43.316406 Z M 74.664063 43.316406 "/>
<path style=" stroke:none;fill-rule:nonzero;fill:rgb(0%,0%,0%);fill-opacity:1;" d="M 74.664063 23.476563 C 74.664063 22.375 73.769531 21.484375 72.671875 21.484375 C 71.570313 21.484375 70.675781 22.375 70.675781 23.476563 C 70.675781 24.574219 71.570313 25.46875 72.671875 25.46875 C 73.769531 25.46875 74.664063 24.574219 74.664063 23.476563 Z M 74.664063 23.476563 "/>
<path style=" stroke:none;fill-rule:nonzero;fill:rgb(0%,0%,0%);fill-opacity:1;" d="M 84.585938 13.554688 C 84.585938 12.453125 83.691406 11.5625 82.59375 11.5625 C 81.492188 11.5625 80.597656 12.453125 80.597656 13.554688 C 80.597656 14.65625 81.492188 15.546875 82.59375 15.546875 C 83.691406 15.546875 84.585938 14.65625 84.585938 13.554688 Z M 84.585938 13.554688 "/>
<path style=" stroke:none;fill-rule:nonzero;fill:rgb(0%,0%,0%);fill-opacity:1;" d="M 82.601563 21.492188 C 82.601563 20.390625 81.707031 19.5 80.609375 19.5 C 79.507813 19.5 78.613281 20.390625 78.613281 21.492188 C 78.613281 22.589844 79.507813 23.484375 80.609375 23.484375 C 81.707031 23.484375 82.601563 22.589844 82.601563 21.492188 Z M 82.601563 21.492188 "/>
<path style="fill:none;stroke-width:0.3985;stroke-linecap:butt;stroke-linejoin:miter;stroke:rgb(0%,0%,0%);stroke-opacity:1;stroke-miterlimit:10;" d="M 39.687092 0.00159375 L 39.687092 -19.842156 L 47.624195 -9.920281 M 39.687092 -19.842156 L 47.624195 -27.779656 M 39.687092 -19.842156 L 39.687092 -33.732781 M 39.687092 -19.842156 L 31.749988 -27.779656 M 39.687092 -19.842156 L 31.749988 -11.904656 " transform="matrix(1.00005,0,0,-1,32.982799,43.318)"/>
<path style=" stroke:none;fill-rule:nonzero;fill:rgb(0%,0%,0%);fill-opacity:1;" d="M 74.664063 63.160156 C 74.664063 62.058594 73.769531 61.167969 72.671875 61.167969 C 71.570313 61.167969 70.675781 62.058594 70.675781 63.160156 C 70.675781 64.261719 71.570313 65.152344 72.671875 65.152344 C 73.769531 65.152344 74.664063 64.261719 74.664063 63.160156 Z M 74.664063 63.160156 "/>
<path style=" stroke:none;fill-rule:nonzero;fill:rgb(0%,0%,0%);fill-opacity:1;" d="M 82.601563 53.238281 C 82.601563 52.140625 81.707031 51.246094 80.609375 51.246094 C 79.507813 51.246094 78.613281 52.140625 78.613281 53.238281 C 78.613281 54.339844 79.507813 55.230469 80.609375 55.230469 C 81.707031 55.230469 82.601563 54.339844 82.601563 53.238281 Z M 82.601563 53.238281 "/>
<path style=" stroke:none;fill-rule:nonzero;fill:rgb(0%,0%,0%);fill-opacity:1;" d="M 82.601563 71.097656 C 82.601563 69.996094 81.707031 69.105469 80.609375 69.105469 C 79.507813 69.105469 78.613281 69.996094 78.613281 71.097656 C 78.613281 72.199219 79.507813 73.089844 80.609375 73.089844 C 81.707031 73.089844 82.601563 72.199219 82.601563 71.097656 Z M 82.601563 71.097656 "/>
<path style=" stroke:none;fill-rule:nonzero;fill:rgb(0%,0%,0%);fill-opacity:1;" d="M 74.664063 77.050781 C 74.664063 75.949219 73.769531 75.058594 72.671875 75.058594 C 71.570313 75.058594 70.675781 75.949219 70.675781 77.050781 C 70.675781 78.152344 71.570313 79.042969 72.671875 79.042969 C 73.769531 79.042969 74.664063 78.152344 74.664063 77.050781 Z M 74.664063 77.050781 "/>
<path style=" stroke:none;fill-rule:nonzero;fill:rgb(0%,0%,0%);fill-opacity:1;" d="M 66.726563 71.097656 C 66.726563 69.996094 65.832031 69.105469 64.734375 69.105469 C 63.632813 69.105469 62.738281 69.996094 62.738281 71.097656 C 62.738281 72.199219 63.632813 73.089844 64.734375 73.089844 C 65.832031 73.089844 66.726563 72.199219 66.726563 71.097656 Z M 66.726563 71.097656 "/>
<path style=" stroke:none;fill-rule:nonzero;fill:rgb(0%,0%,0%);fill-opacity:1;" d="M 66.726563 55.222656 C 66.726563 54.125 65.832031 53.230469 64.734375 53.230469 C 63.632813 53.230469 62.738281 54.125 62.738281 55.222656 C 62.738281 56.324219 63.632813 57.214844 64.734375 57.214844 C 65.832031 57.214844 66.726563 56.324219 66.726563 55.222656 Z M 66.726563 55.222656 "/>
<path style="fill:none;stroke-width:0.3985;stroke-linecap:butt;stroke-linejoin:miter;stroke:rgb(0%,0%,0%);stroke-opacity:1;stroke-miterlimit:10;" d="M 39.687092 0.00159375 L 59.529849 19.841437 L 59.529849 29.763312 L 69.451228 39.685187 M 59.529849 19.841437 L 59.529849 9.919562 L 69.451228 0.00159375 " transform="matrix(1.00005,0,0,-1,32.982799,43.318)"/>
<path style=" stroke:none;fill-rule:nonzero;fill:rgb(0%,0%,0%);fill-opacity:1;" d="M 94.507813 23.476563 C 94.507813 22.375 93.613281 21.484375 92.515625 21.484375 C 91.414063 21.484375 90.519531 22.375 90.519531 23.476563 C 90.519531 24.574219 91.414063 25.46875 92.515625 25.46875 C 93.613281 25.46875 94.507813 24.574219 94.507813 23.476563 Z M 94.507813 23.476563 "/>
<path style=" stroke:none;fill-rule:nonzero;fill:rgb(0%,0%,0%);fill-opacity:1;" d="M 94.507813 13.554688 C 94.507813 12.453125 93.613281 11.5625 92.515625 11.5625 C 91.414063 11.5625 90.519531 12.453125 90.519531 13.554688 C 90.519531 14.65625 91.414063 15.546875 92.515625 15.546875 C 93.613281 15.546875 94.507813 14.65625 94.507813 13.554688 Z M 94.507813 13.554688 "/>
<path style=" stroke:none;fill-rule:nonzero;fill:rgb(0%,0%,0%);fill-opacity:1;" d="M 104.429688 3.632813 C 104.429688 2.53125 103.535156 1.640625 102.4375 1.640625 C 101.335938 1.640625 100.441406 2.53125 100.441406 3.632813 C 100.441406 4.734375 101.335938 5.625 102.4375 5.625 C 103.535156 5.625 104.429688 4.734375 104.429688 3.632813 Z M 104.429688 3.632813 "/>
<path style=" stroke:none;fill-rule:nonzero;fill:rgb(0%,0%,0%);fill-opacity:1;" d="M 94.507813 33.398438 C 94.507813 32.296875 93.613281 31.402344 92.515625 31.402344 C 91.414063 31.402344 90.519531 32.296875 90.519531 33.398438 C 90.519531 34.496094 91.414063 35.390625 92.515625 35.390625 C 93.613281 35.390625 94.507813 34.496094 94.507813 33.398438 Z M 94.507813 33.398438 "/>
<path style=" stroke:none;fill-rule:nonzero;fill:rgb(0%,0%,0%);fill-opacity:1;" d="M 104.429688 43.316406 C 104.429688 42.21875 103.535156 41.324219 102.4375 41.324219 C 101.335938 41.324219 100.441406 42.21875 100.441406 43.316406 C 100.441406 44.417969 101.335938 45.3125 102.4375 45.3125 C 103.535156 45.3125 104.429688 44.417969 104.429688 43.316406 Z M 104.429688 43.316406 "/>
</g>
</svg>
