<?xml version="1.0" encoding="UTF-8"?>
<svg xmlns="http://www.w3.org/2000/svg" xmlns:xlink="http://www.w3.org/1999/xlink" width="47pt" height="47pt" viewBox="0 0 47 47" version="1.1">
<g id="surface1">
<path style="fill:none;stroke-width:0.3985;stroke-linecap:butt;stroke-linejoin:miter;stroke:rgb(0%,0%,0%);stroke-opacity:1;stroke-miterlimit:10;" d="M 20.045805 20.043866 L -20.042837 20.043866 L -20.042837 -20.043573 L 20.045805 -20.043573 L 20.045805 20.043866 L -20.042837 -20.043573 M -20.042837 20.043866 L 20.045805 -20.043573 " transform="matrix(1.00003,0,0,-1.00006,23.262188,23.677881)"/>
<path style=" stroke:none;fill-rule:nonzero;fill:rgb(0%,0%,0%);fill-opacity:1;" d="M 45.300781 3.632813 C 45.300781 2.53125 44.40625 1.640625 43.308594 1.640625 C 42.207031 1.640625 41.3125 2.53125 41.3125 3.632813 C 41.3125 4.734375 42.207031 5.625 43.308594 5.625 C 44.40625 5.625 45.300781 4.734375 45.300781 3.632813 Z M 45.300781 3.632813 "/>
<path style=" stroke:none;fill-rule:nonzero;fill:rgb(0%,0%,0%);fill-opacity:1;" d="M 5.210938 3.632813 C 5.210938 2.53125 4.316406 1.640625 3.21875 1.640625 C 2.117188 1.640625 1.226563 2.53125 1.226563 3.632813 C 1.226563 4.734375 2.117188 5.625 3.21875 5.625 C 4.316406 5.625 5.210938 4.734375 5.210938 3.632813 Z M 5.210938 3.632813 "/>
<path style=" stroke:none;fill-rule:nonzero;fill:rgb(0%,0%,0%);fill-opacity:1;" d="M 5.210938 43.722656 C 5.210938 42.621094 4.316406 41.730469 3.21875 41.730469 C 2.117188 41.730469 1.226563 42.621094 1.226563 43.722656 C 1.226563 44.824219 2.117188 45.714844 3.21875 45.714844 C 4.316406 45.714844 5.210938 44.824219 5.210938 43.722656 Z M 5.210938 43.722656 "/>
<path style=" stroke:none;fill-rule:nonzero;fill:rgb(0%,0%,0%);fill-opacity:1;" d="M 45.300781 43.722656 C 45.300781 42.621094 44.40625 41.730469 43.308594 41.730469 C 42.207031 41.730469 41.3125 42.621094 41.3125 43.722656 C 41.3125 44.824219 42.207031 45.714844 43.308594 45.714844 C 44.40625 45.714844 45.300781 44.824219 45.300781 43.722656 Z M 45.300781 43.722656 "/>
</g>
</svg>
