<?xml version="1.0" encoding="UTF-8"?>
<svg xmlns="http://www.w3.org/2000/svg" xmlns:xlink="http://www.w3.org/1999/xlink" width="82pt" height="78pt" viewBox="0 0 82 78" version="1.1">
<g id="surface1">
<path style="fill:none;stroke-width:0.79701;stroke-linecap:butt;stroke-linejoin:miter;stroke:rgb(0%,0%,0%);stroke-opacity:1;stroke-miterlimit:10;" d="M 37.744797 12.264549 L -0.000541709 39.685601 L -37.741974 12.264549 L -23.3282 -32.105214 L 23.327117 -32.105214 Z M 37.744797 12.264549 " transform="matrix(1.00002,0,0,-1.00003,40.961479,42.718042)"/>
<path style="fill:none;stroke-width:0.79701;stroke-linecap:butt;stroke-linejoin:miter;stroke:rgb(0%,0%,0%);stroke-opacity:1;stroke-miterlimit:10;" d="M 18.870175 6.13192 L -18.871258 6.13192 L 11.663288 -16.054914 L -0.000541709 19.842446 L -11.664371 -16.054914 Z M 18.870175 6.13192 " transform="matrix(1.00002,0,0,-1.00003,40.961479,42.718042)"/>
<path style="fill:none;stroke-width:0.79701;stroke-linecap:butt;stroke-linejoin:miter;stroke:rgb(0%,0%,0%);stroke-opacity:1;stroke-miterlimit:10;" d="M 18.870175 6.13192 L 37.744797 12.264549 " transform="matrix(1.00002,0,0,-1.00003,40.961479,42.718042)"/>
<path style=" stroke:none;fill-rule:nonzero;fill:rgb(0%,0%,0%);fill-opacity:1;" d="M 61.824219 36.585938 C 61.824219 35.484375 60.933594 34.59375 59.832031 34.59375 C 58.734375 34.59375 57.839844 35.484375 57.839844 36.585938 C 57.839844 37.6875 58.734375 38.578125 59.832031 38.578125 C 60.933594 38.578125 61.824219 37.6875 61.824219 36.585938 Z M 61.824219 36.585938 "/>
<path style=" stroke:none;fill-rule:nonzero;fill:rgb(0%,0%,0%);fill-opacity:1;" d="M 80.699219 30.453125 C 80.699219 29.355469 79.804688 28.460938 78.707031 28.460938 C 77.605469 28.460938 76.714844 29.355469 76.714844 30.453125 C 76.714844 31.554688 77.605469 32.445313 78.707031 32.445313 C 79.804688 32.445313 80.699219 31.554688 80.699219 30.453125 Z M 80.699219 30.453125 "/>
<path style="fill:none;stroke-width:0.79701;stroke-linecap:butt;stroke-linejoin:miter;stroke:rgb(0%,0%,0%);stroke-opacity:1;stroke-miterlimit:10;" d="M -0.000541709 19.842446 L -0.000541709 39.685601 " transform="matrix(1.00002,0,0,-1.00003,40.961479,42.718042)"/>
<path style=" stroke:none;fill-rule:nonzero;fill:rgb(0%,0%,0%);fill-opacity:1;" d="M 42.953125 22.875 C 42.953125 21.773438 42.0625 20.882813 40.960938 20.882813 C 39.859375 20.882813 38.96875 21.773438 38.96875 22.875 C 38.96875 23.976563 39.859375 24.867188 40.960938 24.867188 C 42.0625 24.867188 42.953125 23.976563 42.953125 22.875 Z M 42.953125 22.875 "/>
<path style=" stroke:none;fill-rule:nonzero;fill:rgb(0%,0%,0%);fill-opacity:1;" d="M 42.953125 3.03125 C 42.953125 1.929688 42.0625 1.039063 40.960938 1.039063 C 39.859375 1.039063 38.96875 1.929688 38.96875 3.03125 C 38.96875 4.132813 39.859375 5.023438 40.960938 5.023438 C 42.0625 5.023438 42.953125 4.132813 42.953125 3.03125 Z M 42.953125 3.03125 "/>
<path style="fill:none;stroke-width:0.79701;stroke-linecap:butt;stroke-linejoin:miter;stroke:rgb(0%,0%,0%);stroke-opacity:1;stroke-miterlimit:10;" d="M -18.871258 6.13192 L -37.741974 12.264549 " transform="matrix(1.00002,0,0,-1.00003,40.961479,42.718042)"/>
<path style=" stroke:none;fill-rule:nonzero;fill:rgb(0%,0%,0%);fill-opacity:1;" d="M 24.082031 36.585938 C 24.082031 35.484375 23.191406 34.59375 22.089844 34.59375 C 20.988281 34.59375 20.097656 35.484375 20.097656 36.585938 C 20.097656 37.6875 20.988281 38.578125 22.089844 38.578125 C 23.191406 38.578125 24.082031 37.6875 24.082031 36.585938 Z M 24.082031 36.585938 "/>
<path style=" stroke:none;fill-rule:nonzero;fill:rgb(0%,0%,0%);fill-opacity:1;" d="M 5.210938 30.453125 C 5.210938 29.355469 4.316406 28.460938 3.21875 28.460938 C 2.117188 28.460938 1.226563 29.355469 1.226563 30.453125 C 1.226563 31.554688 2.117188 32.445313 3.21875 32.445313 C 4.316406 32.445313 5.210938 31.554688 5.210938 30.453125 Z M 5.210938 30.453125 "/>
<path style="fill:none;stroke-width:0.79701;stroke-linecap:butt;stroke-linejoin:miter;stroke:rgb(0%,0%,0%);stroke-opacity:1;stroke-miterlimit:10;" d="M -11.664371 -16.054914 L -23.3282 -32.105214 " transform="matrix(1.00002,0,0,-1.00003,40.961479,42.718042)"/>
<path style=" stroke:none;fill-rule:nonzero;fill:rgb(0%,0%,0%);fill-opacity:1;" d="M 31.289063 58.773438 C 31.289063 57.671875 30.398438 56.777344 29.296875 56.777344 C 28.199219 56.777344 27.304688 57.671875 27.304688 58.773438 C 27.304688 59.871094 28.199219 60.765625 29.296875 60.765625 C 30.398438 60.765625 31.289063 59.871094 31.289063 58.773438 Z M 31.289063 58.773438 "/>
<path style=" stroke:none;fill-rule:nonzero;fill:rgb(0%,0%,0%);fill-opacity:1;" d="M 19.628906 74.824219 C 19.628906 73.726563 18.734375 72.832031 17.632813 72.832031 C 16.535156 72.832031 15.640625 73.726563 15.640625 74.824219 C 15.640625 75.925781 16.535156 76.816406 17.632813 76.816406 C 18.734375 76.816406 19.628906 75.925781 19.628906 74.824219 Z M 19.628906 74.824219 "/>
<path style="fill:none;stroke-width:0.79701;stroke-linecap:butt;stroke-linejoin:miter;stroke:rgb(0%,0%,0%);stroke-opacity:1;stroke-miterlimit:10;" d="M 11.663288 -16.054914 L 23.327117 -32.105214 " transform="matrix(1.00002,0,0,-1.00003,40.961479,42.718042)"/>
<path style=" stroke:none;fill-rule:nonzero;fill:rgb(0%,0%,0%);fill-opacity:1;" d="M 54.617188 58.773438 C 54.617188 57.671875 53.726563 56.777344 52.625 56.777344 C 51.523438 56.777344 50.632813 57.671875 50.632813 58.773438 C 50.632813 59.871094 51.523438 60.765625 52.625 60.765625 C 53.726563 60.765625 54.617188 59.871094 54.617188 58.773438 Z M 54.617188 58.773438 "/>
<path style=" stroke:none;fill-rule:nonzero;fill:rgb(0%,0%,0%);fill-opacity:1;" d="M 66.28125 74.824219 C 66.28125 73.726563 65.390625 72.832031 64.289063 72.832031 C 63.1875 72.832031 62.296875 73.726563 62.296875 74.824219 C 62.296875 75.925781 63.1875 76.816406 64.289063 76.816406 C 65.390625 76.816406 66.28125 75.925781 66.28125 74.824219 Z M 66.28125 74.824219 "/>
</g>
</svg>
