<?xml version="1.0" encoding="UTF-8"?>
<svg xmlns="http://www.w3.org/2000/svg" xmlns:xlink="http://www.w3.org/1999/xlink" width="114pt" height="110pt" viewBox="0 0 114 110" version="1.1">
<g id="surface1">
<path style="fill:none;stroke-width:0.3985;stroke-linecap:butt;stroke-linejoin:miter;stroke:rgb(0%,0%,0%);stroke-opacity:1;stroke-miterlimit:10;" d="M 26.958643 8.758594 L -0.00148529 28.348438 L -26.957708 8.758594 L -16.661142 -22.932812 L 16.662077 -22.932812 Z M 26.958643 8.758594 " transform="matrix(1.00003,0,0,-1,57.138204,60.325)"/>
<path style="fill:none;stroke-width:0.3985;stroke-linecap:butt;stroke-linejoin:miter;stroke:rgb(0%,0%,0%);stroke-opacity:1;stroke-miterlimit:10;" d="M 26.958643 8.758594 L -26.957708 8.758594 L 16.662077 -22.932812 L -0.00148529 28.348438 L -16.661142 -22.932812 Z M 26.958643 8.758594 " transform="matrix(1.00003,0,0,-1,57.138204,60.325)"/>
<path style="fill:none;stroke-width:0.3985;stroke-linecap:butt;stroke-linejoin:miter;stroke:rgb(0%,0%,0%);stroke-opacity:1;stroke-miterlimit:10;" d="M 26.958643 8.758594 L 53.918772 17.520313 " transform="matrix(1.00003,0,0,-1,57.138204,60.325)"/>
<path style=" stroke:none;fill-rule:nonzero;fill:rgb(0%,0%,0%);fill-opacity:1;" d="M 86.089844 51.566406 C 86.089844 50.464844 85.199219 49.574219 84.097656 49.574219 C 83 49.574219 82.105469 50.464844 82.105469 51.566406 C 82.105469 52.664063 83 53.558594 84.097656 53.558594 C 85.199219 53.558594 86.089844 52.664063 86.089844 51.566406 Z M 86.089844 51.566406 "/>
<path style=" stroke:none;fill-rule:nonzero;fill:rgb(0%,0%,0%);fill-opacity:1;" d="M 113.050781 42.804688 C 113.050781 41.703125 112.160156 40.8125 111.058594 40.8125 C 109.957031 40.8125 109.066406 41.703125 109.066406 42.804688 C 109.066406 43.90625 109.957031 44.796875 111.058594 44.796875 C 112.160156 44.796875 113.050781 43.90625 113.050781 42.804688 Z M 113.050781 42.804688 "/>
<path style="fill:none;stroke-width:0.3985;stroke-linecap:butt;stroke-linejoin:miter;stroke:rgb(0%,0%,0%);stroke-opacity:1;stroke-miterlimit:10;" d="M -0.00148529 28.348438 L -0.00148529 56.692188 " transform="matrix(1.00003,0,0,-1,57.138204,60.325)"/>
<path style=" stroke:none;fill-rule:nonzero;fill:rgb(0%,0%,0%);fill-opacity:1;" d="M 59.128906 31.976563 C 59.128906 30.878906 58.238281 29.984375 57.136719 29.984375 C 56.039063 29.984375 55.144531 30.878906 55.144531 31.976563 C 55.144531 33.078125 56.039063 33.972656 57.136719 33.972656 C 58.238281 33.972656 59.128906 33.078125 59.128906 31.976563 Z M 59.128906 31.976563 "/>
<path style=" stroke:none;fill-rule:nonzero;fill:rgb(0%,0%,0%);fill-opacity:1;" d="M 59.128906 3.632813 C 59.128906 2.53125 58.238281 1.640625 57.136719 1.640625 C 56.039063 1.640625 55.144531 2.53125 55.144531 3.632813 C 55.144531 4.730469 56.039063 5.625 57.136719 5.625 C 58.238281 5.625 59.128906 4.730469 59.128906 3.632813 Z M 59.128906 3.632813 "/>
<path style="fill:none;stroke-width:0.3985;stroke-linecap:butt;stroke-linejoin:miter;stroke:rgb(0%,0%,0%);stroke-opacity:1;stroke-miterlimit:10;" d="M -26.957708 8.758594 L -53.917837 17.520313 " transform="matrix(1.00003,0,0,-1,57.138204,60.325)"/>
<path style=" stroke:none;fill-rule:nonzero;fill:rgb(0%,0%,0%);fill-opacity:1;" d="M 32.171875 51.566406 C 32.171875 50.464844 31.277344 49.574219 30.179688 49.574219 C 29.078125 49.574219 28.183594 50.464844 28.183594 51.566406 C 28.183594 52.664063 29.078125 53.558594 30.179688 53.558594 C 31.277344 53.558594 32.171875 52.664063 32.171875 51.566406 Z M 32.171875 51.566406 "/>
<path style=" stroke:none;fill-rule:nonzero;fill:rgb(0%,0%,0%);fill-opacity:1;" d="M 5.210938 42.804688 C 5.210938 41.703125 4.316406 40.8125 3.21875 40.8125 C 2.117188 40.8125 1.226563 41.703125 1.226563 42.804688 C 1.226563 43.90625 2.117188 44.796875 3.21875 44.796875 C 4.316406 44.796875 5.210938 43.90625 5.210938 42.804688 Z M 5.210938 42.804688 "/>
<path style="fill:none;stroke-width:0.3985;stroke-linecap:butt;stroke-linejoin:miter;stroke:rgb(0%,0%,0%);stroke-opacity:1;stroke-miterlimit:10;" d="M -16.661142 -22.932812 L -33.324704 -45.866406 " transform="matrix(1.00003,0,0,-1,57.138204,60.325)"/>
<path style=" stroke:none;fill-rule:nonzero;fill:rgb(0%,0%,0%);fill-opacity:1;" d="M 42.46875 83.257813 C 42.46875 82.15625 41.578125 81.265625 40.476563 81.265625 C 39.375 81.265625 38.484375 82.15625 38.484375 83.257813 C 38.484375 84.359375 39.375 85.25 40.476563 85.25 C 41.578125 85.25 42.46875 84.359375 42.46875 83.257813 Z M 42.46875 83.257813 "/>
<path style=" stroke:none;fill-rule:nonzero;fill:rgb(0%,0%,0%);fill-opacity:1;" d="M 25.804688 106.191406 C 25.804688 105.089844 24.914063 104.199219 23.8125 104.199219 C 22.714844 104.199219 21.820313 105.089844 21.820313 106.191406 C 21.820313 107.292969 22.714844 108.183594 23.8125 108.183594 C 24.914063 108.183594 25.804688 107.292969 25.804688 106.191406 Z M 25.804688 106.191406 "/>
<path style="fill:none;stroke-width:0.3985;stroke-linecap:butt;stroke-linejoin:miter;stroke:rgb(0%,0%,0%);stroke-opacity:1;stroke-miterlimit:10;" d="M 16.662077 -22.932812 L 33.321734 -45.866406 " transform="matrix(1.00003,0,0,-1,57.138204,60.325)"/>
<path style=" stroke:none;fill-rule:nonzero;fill:rgb(0%,0%,0%);fill-opacity:1;" d="M 75.792969 83.257813 C 75.792969 82.15625 74.902344 81.265625 73.800781 81.265625 C 72.699219 81.265625 71.808594 82.15625 71.808594 83.257813 C 71.808594 84.359375 72.699219 85.25 73.800781 85.25 C 74.902344 85.25 75.792969 84.359375 75.792969 83.257813 Z M 75.792969 83.257813 "/>
<path style=" stroke:none;fill-rule:nonzero;fill:rgb(0%,0%,0%);fill-opacity:1;" d="M 92.457031 106.191406 C 92.457031 105.089844 91.5625 104.199219 90.460938 104.199219 C 89.363281 104.199219 88.46875 105.089844 88.46875 106.191406 C 88.46875 107.292969 89.363281 108.183594 90.460938 108.183594 C 91.5625 108.183594 92.457031 107.292969 92.457031 106.191406 Z M 92.457031 106.191406 "/>
</g>
</svg>
