<?xml version="1.0" encoding="UTF-8"?>
<svg xmlns="http://www.w3.org/2000/svg" xmlns:xlink="http://www.w3.org/1999/xlink" width="61pt" height="59pt" viewBox="0 0 61 59" version="1.1">
<g id="surface1">
<path style="fill:none;stroke-width:0.3985;stroke-linecap:butt;stroke-linejoin:miter;stroke:rgb(0%,0%,0%);stroke-opacity:1;stroke-miterlimit:10;" d="M -0.000455699 0.000621719 L 26.958056 8.757996 L -0.000455699 28.346861 " transform="matrix(1.00009,0,0,-1.00005,30.539518,32.309216)"/>
<path style=" stroke:none;fill-rule:nonzero;fill:rgb(0%,0%,0%);fill-opacity:1;" d="M 59.496094 23.550781 C 59.496094 22.449219 58.601563 21.554688 57.5 21.554688 C 56.402344 21.554688 55.507813 22.449219 55.507813 23.550781 C 55.507813 24.648438 56.402344 25.542969 57.5 25.542969 C 58.601563 25.542969 59.496094 24.648438 59.496094 23.550781 Z M 59.496094 23.550781 "/>
<path style="fill:none;stroke-width:0.3985;stroke-linecap:butt;stroke-linejoin:miter;stroke:rgb(0%,0%,0%);stroke-opacity:1;stroke-miterlimit:10;" d="M -0.000455699 0.000621719 L -0.000455699 28.346861 L -26.958967 8.757996 " transform="matrix(1.00009,0,0,-1.00005,30.539518,32.309216)"/>
<path style=" stroke:none;fill-rule:nonzero;fill:rgb(0%,0%,0%);fill-opacity:1;" d="M 32.53125 3.960938 C 32.53125 2.859375 31.640625 1.96875 30.539063 1.96875 C 29.4375 1.96875 28.546875 2.859375 28.546875 3.960938 C 28.546875 5.0625 29.4375 5.953125 30.539063 5.953125 C 31.640625 5.953125 32.53125 5.0625 32.53125 3.960938 Z M 32.53125 3.960938 "/>
<path style="fill:none;stroke-width:0.3985;stroke-linecap:butt;stroke-linejoin:miter;stroke:rgb(0%,0%,0%);stroke-opacity:1;stroke-miterlimit:10;" d="M -0.000455699 0.000621719 L -26.958967 8.757996 L -16.663019 -22.931825 " transform="matrix(1.00009,0,0,-1.00005,30.539518,32.309216)"/>
<path style=" stroke:none;fill-rule:nonzero;fill:rgb(0%,0%,0%);fill-opacity:1;" d="M 5.570313 23.550781 C 5.570313 22.449219 4.679688 21.554688 3.578125 21.554688 C 2.476563 21.554688 1.585938 22.449219 1.585938 23.550781 C 1.585938 24.648438 2.476563 25.542969 3.578125 25.542969 C 4.679688 25.542969 5.570313 24.648438 5.570313 23.550781 Z M 5.570313 23.550781 "/>
<path style="fill:none;stroke-width:0.3985;stroke-linecap:butt;stroke-linejoin:miter;stroke:rgb(0%,0%,0%);stroke-opacity:1;stroke-miterlimit:10;" d="M -0.000455699 0.000621719 L -16.663019 -22.931825 L 16.662107 -22.931825 " transform="matrix(1.00009,0,0,-1.00005,30.539518,32.309216)"/>
<path style=" stroke:none;fill-rule:nonzero;fill:rgb(0%,0%,0%);fill-opacity:1;" d="M 15.867188 55.242188 C 15.867188 54.144531 14.976563 53.25 13.875 53.25 C 12.777344 53.25 11.882813 54.144531 11.882813 55.242188 C 11.882813 56.34375 12.777344 57.234375 13.875 57.234375 C 14.976563 57.234375 15.867188 56.34375 15.867188 55.242188 Z M 15.867188 55.242188 "/>
<path style="fill:none;stroke-width:0.3985;stroke-linecap:butt;stroke-linejoin:miter;stroke:rgb(0%,0%,0%);stroke-opacity:1;stroke-miterlimit:10;" d="M -0.000455699 0.000621719 L 16.662107 -22.931825 L 26.958056 8.757996 " transform="matrix(1.00009,0,0,-1.00005,30.539518,32.309216)"/>
<path style=" stroke:none;fill-rule:nonzero;fill:rgb(0%,0%,0%);fill-opacity:1;" d="M 49.195313 55.242188 C 49.195313 54.144531 48.304688 53.25 47.203125 53.25 C 46.101563 53.25 45.210938 54.144531 45.210938 55.242188 C 45.210938 56.34375 46.101563 57.234375 47.203125 57.234375 C 48.304688 57.234375 49.195313 56.34375 49.195313 55.242188 Z M 49.195313 55.242188 "/>
<path style=" stroke:none;fill-rule:nonzero;fill:rgb(0%,0%,0%);fill-opacity:1;" d="M 32.53125 32.308594 C 32.53125 31.207031 31.640625 30.316406 30.539063 30.316406 C 29.4375 30.316406 28.546875 31.207031 28.546875 32.308594 C 28.546875 33.410156 29.4375 34.300781 30.539063 34.300781 C 31.640625 34.300781 32.53125 33.410156 32.53125 32.308594 Z M 32.53125 32.308594 "/>
</g>
</svg>
