<?xml version="1.0" encoding="UTF-8"?>
<svg xmlns="http://www.w3.org/2000/svg" xmlns:xlink="http://www.w3.org/1999/xlink" width="81pt" height="71pt" viewBox="0 0 81 71" version="1.1">
<g id="surface1">
<path style="fill:none;stroke-width:1.79329;stroke-linecap:butt;stroke-linejoin:miter;stroke:rgb(0%,0%,0%);stroke-opacity:1;stroke-miterlimit:10;" d="M 0.00183843 -22.677438 L -39.277055 -22.677438 L -19.637608 11.338187 L 0.00183843 -22.677438 L 39.276826 -22.677438 L 19.641285 11.338187 L -19.637608 11.338187 L 0.00183843 45.353812 L 19.641285 11.338187 L 0.00183843 -22.677438 " transform="matrix(1.00006,0,0,-1,40.568474,46.346)"/>
<path style=" stroke:none;fill-rule:nonzero;fill:rgb(100%,100%,100%);fill-opacity:1;" d="M 42.960938 69.023438 C 42.960938 67.703125 41.890625 66.632813 40.570313 66.632813 C 39.246094 66.632813 38.175781 67.703125 38.175781 69.023438 C 38.175781 70.34375 39.246094 71.414063 40.570313 71.414063 C 41.890625 71.414063 42.960938 70.34375 42.960938 69.023438 Z M 42.960938 69.023438 "/>
<path style=" stroke:none;fill-rule:nonzero;fill:rgb(100%,100%,100%);fill-opacity:1;" d="M 82.242188 69.023438 C 82.242188 67.703125 81.171875 66.632813 79.847656 66.632813 C 78.527344 66.632813 77.457031 67.703125 77.457031 69.023438 C 77.457031 70.34375 78.527344 71.414063 79.847656 71.414063 C 81.171875 71.414063 82.242188 70.34375 82.242188 69.023438 Z M 82.242188 69.023438 "/>
<path style=" stroke:none;fill-rule:nonzero;fill:rgb(100%,100%,100%);fill-opacity:1;" d="M 3.679688 69.023438 C 3.679688 67.703125 2.609375 66.632813 1.289063 66.632813 C -0.0351563 66.632813 -1.105469 67.703125 -1.105469 69.023438 C -1.105469 70.34375 -0.0351563 71.414063 1.289063 71.414063 C 2.609375 71.414063 3.679688 70.34375 3.679688 69.023438 Z M 3.679688 69.023438 "/>
<path style=" stroke:none;fill-rule:nonzero;fill:rgb(100%,100%,100%);fill-opacity:1;" d="M 42.960938 0.992188 C 42.960938 -0.328125 41.890625 -1.398438 40.570313 -1.398438 C 39.246094 -1.398438 38.175781 -0.328125 38.175781 0.992188 C 38.175781 2.3125 39.246094 3.382813 40.570313 3.382813 C 41.890625 3.382813 42.960938 2.3125 42.960938 0.992188 Z M 42.960938 0.992188 "/>
<path style=" stroke:none;fill-rule:nonzero;fill:rgb(100%,100%,100%);fill-opacity:1;" d="M 62.601563 35.007813 C 62.601563 33.6875 61.53125 32.617188 60.210938 32.617188 C 58.886719 32.617188 57.816406 33.6875 57.816406 35.007813 C 57.816406 36.328125 58.886719 37.398438 60.210938 37.398438 C 61.53125 37.398438 62.601563 36.328125 62.601563 35.007813 Z M 62.601563 35.007813 "/>
<path style=" stroke:none;fill-rule:nonzero;fill:rgb(100%,100%,100%);fill-opacity:1;" d="M 23.320313 35.007813 C 23.320313 33.6875 22.25 32.617188 20.929688 32.617188 C 19.605469 32.617188 18.535156 33.6875 18.535156 35.007813 C 18.535156 36.328125 19.605469 37.398438 20.929688 37.398438 C 22.25 37.398438 23.320313 36.328125 23.320313 35.007813 Z M 23.320313 35.007813 "/>
</g>
</svg>
