<?xml version="1.0" encoding="UTF-8"?>
<svg xmlns="http://www.w3.org/2000/svg" xmlns:xlink="http://www.w3.org/1999/xlink" width="63pt" height="52pt" viewBox="0 0 63 52" version="1.1">
<g id="surface1">
<path style="fill:none;stroke-width:0.3985;stroke-linecap:butt;stroke-linejoin:miter;stroke:rgb(0%,0%,0%);stroke-opacity:1;stroke-miterlimit:10;" d="M -28.345423 -0.000187891 L 28.346488 -0.000187891 L 14.171557 22.678366 L 0.000532378 -0.000187891 L -14.174398 22.678366 L 0.000532378 45.356919 L 14.171557 22.678366 L -14.174398 22.678366 L -28.345423 -0.000187891 " transform="matrix(1.00006,0,0,-1.00005,31.565874,48.992)"/>
<path style=" stroke:none;fill-rule:nonzero;fill:rgb(0%,0%,0%);fill-opacity:1;" d="M 5.210938 48.992188 C 5.210938 47.890625 4.316406 47 3.21875 47 C 2.117188 47 1.226563 47.890625 1.226563 48.992188 C 1.226563 50.09375 2.117188 50.984375 3.21875 50.984375 C 4.316406 50.984375 5.210938 50.09375 5.210938 48.992188 Z M 5.210938 48.992188 "/>
<path style=" stroke:none;fill-rule:nonzero;fill:rgb(0%,0%,0%);fill-opacity:1;" d="M 33.558594 48.992188 C 33.558594 47.890625 32.667969 47 31.566406 47 C 30.464844 47 29.574219 47.890625 29.574219 48.992188 C 29.574219 50.09375 30.464844 50.984375 31.566406 50.984375 C 32.667969 50.984375 33.558594 50.09375 33.558594 48.992188 Z M 33.558594 48.992188 "/>
<path style=" stroke:none;fill-rule:nonzero;fill:rgb(0%,0%,0%);fill-opacity:1;" d="M 61.90625 48.992188 C 61.90625 47.890625 61.015625 47 59.914063 47 C 58.8125 47 57.921875 47.890625 57.921875 48.992188 C 57.921875 50.09375 58.8125 50.984375 59.914063 50.984375 C 61.015625 50.984375 61.90625 50.09375 61.90625 48.992188 Z M 61.90625 48.992188 "/>
<path style=" stroke:none;fill-rule:nonzero;fill:rgb(0%,0%,0%);fill-opacity:1;" d="M 47.734375 26.3125 C 47.734375 25.210938 46.839844 24.320313 45.738281 24.320313 C 44.640625 24.320313 43.746094 25.210938 43.746094 26.3125 C 43.746094 27.414063 44.640625 28.304688 45.738281 28.304688 C 46.839844 28.304688 47.734375 27.414063 47.734375 26.3125 Z M 47.734375 26.3125 "/>
<path style=" stroke:none;fill-rule:nonzero;fill:rgb(0%,0%,0%);fill-opacity:1;" d="M 19.382813 26.3125 C 19.382813 25.210938 18.492188 24.320313 17.390625 24.320313 C 16.292969 24.320313 15.398438 25.210938 15.398438 26.3125 C 15.398438 27.414063 16.292969 28.304688 17.390625 28.304688 C 18.492188 28.304688 19.382813 27.414063 19.382813 26.3125 Z M 19.382813 26.3125 "/>
<path style=" stroke:none;fill-rule:nonzero;fill:rgb(0%,0%,0%);fill-opacity:1;" d="M 33.558594 3.632813 C 33.558594 2.535156 32.667969 1.640625 31.566406 1.640625 C 30.464844 1.640625 29.574219 2.535156 29.574219 3.632813 C 29.574219 4.734375 30.464844 5.628906 31.566406 5.628906 C 32.667969 5.628906 33.558594 4.734375 33.558594 3.632813 Z M 33.558594 3.632813 "/>
</g>
</svg>
