<?xml version="1.0" encoding="UTF-8"?>
<svg xmlns="http://www.w3.org/2000/svg" xmlns:xlink="http://www.w3.org/1999/xlink" width="109pt" height="58pt" viewBox="0 0 109 58" version="1.1">
<g id="surface1">
<path style="fill:none;stroke-width:0.3985;stroke-linecap:butt;stroke-linejoin:miter;stroke:rgb(0%,0%,0%);stroke-opacity:1;stroke-miterlimit:10;" d="M -25.510883 -0.00187326 L 25.511024 -0.00187326 M 25.511024 51.022919 L -25.510883 51.022919 M -25.510883 51.022919 L 0.0000702979 25.512476 " transform="matrix(1.00003,0,0,-1.00005,54.242117,54.658283)"/>
<path style=" stroke:none;fill-rule:nonzero;fill:rgb(0%,0%,0%);fill-opacity:1;" d="M 30.722656 54.660156 C 30.722656 53.558594 29.828125 52.664063 28.730469 52.664063 C 27.628906 52.664063 26.738281 53.558594 26.738281 54.660156 C 26.738281 55.757813 27.628906 56.652344 28.730469 56.652344 C 29.828125 56.652344 30.722656 55.757813 30.722656 54.660156 Z M 30.722656 54.660156 "/>
<path style=" stroke:none;fill-rule:nonzero;fill:rgb(0%,0%,0%);fill-opacity:1;" d="M 81.746094 54.660156 C 81.746094 53.558594 80.855469 52.664063 79.753906 52.664063 C 78.65625 52.664063 77.761719 53.558594 77.761719 54.660156 C 77.761719 55.757813 78.65625 56.652344 79.753906 56.652344 C 80.855469 56.652344 81.746094 55.757813 81.746094 54.660156 Z M 81.746094 54.660156 "/>
<path style=" stroke:none;fill-rule:nonzero;fill:rgb(0%,0%,0%);fill-opacity:1;" d="M 81.746094 3.632813 C 81.746094 2.53125 80.855469 1.640625 79.753906 1.640625 C 78.65625 1.640625 77.761719 2.53125 77.761719 3.632813 C 77.761719 4.730469 78.65625 5.625 79.753906 5.625 C 80.855469 5.625 81.746094 4.730469 81.746094 3.632813 Z M 81.746094 3.632813 "/>
<path style=" stroke:none;fill-rule:nonzero;fill:rgb(0%,0%,0%);fill-opacity:1;" d="M 30.722656 3.632813 C 30.722656 2.53125 29.828125 1.640625 28.730469 1.640625 C 27.628906 1.640625 26.738281 2.53125 26.738281 3.632813 C 26.738281 4.730469 27.628906 5.625 28.730469 5.625 C 29.828125 5.625 30.722656 4.730469 30.722656 3.632813 Z M 30.722656 3.632813 "/>
<path style=" stroke:none;fill-rule:nonzero;fill:rgb(0%,0%,0%);fill-opacity:1;" d="M 56.234375 29.144531 C 56.234375 28.042969 55.34375 27.152344 54.242188 27.152344 C 53.140625 27.152344 52.25 28.042969 52.25 29.144531 C 52.25 30.246094 53.140625 31.136719 54.242188 31.136719 C 55.34375 31.136719 56.234375 30.246094 56.234375 29.144531 Z M 56.234375 29.144531 "/>
<path style="fill:none;stroke-width:0.3985;stroke-linecap:butt;stroke-linejoin:miter;stroke:rgb(0%,0%,0%);stroke-opacity:1;stroke-miterlimit:10;" d="M -51.025743 25.512476 L -25.510883 51.022919 M 25.511024 51.022919 L 51.021977 25.512476 L 25.511024 -0.00187326 " transform="matrix(1.00003,0,0,-1.00005,54.242117,54.658283)"/>
<path style=" stroke:none;fill-rule:nonzero;fill:rgb(0%,0%,0%);fill-opacity:1;" d="M 5.210938 29.144531 C 5.210938 28.042969 4.316406 27.152344 3.214844 27.152344 C 2.117188 27.152344 1.222656 28.042969 1.222656 29.144531 C 1.222656 30.246094 2.117188 31.136719 3.214844 31.136719 C 4.316406 31.136719 5.210938 30.246094 5.210938 29.144531 Z M 5.210938 29.144531 "/>
<path style=" stroke:none;fill-rule:nonzero;fill:rgb(0%,0%,0%);fill-opacity:1;" d="M 107.261719 29.144531 C 107.261719 28.042969 106.367188 27.152344 105.265625 27.152344 C 104.167969 27.152344 103.273438 28.042969 103.273438 29.144531 C 103.273438 30.246094 104.167969 31.136719 105.265625 31.136719 C 106.367188 31.136719 107.261719 30.246094 107.261719 29.144531 Z M 107.261719 29.144531 "/>
</g>
</svg>
