<?xml version="1.0" encoding="UTF-8"?>
<svg xmlns="http://www.w3.org/2000/svg" xmlns:xlink="http://www.w3.org/1999/xlink" width="35pt" height="35pt" viewBox="0 0 35 35" version="1.1">
<g id="surface1">
<path style="fill:none;stroke-width:0.3985;stroke-linecap:butt;stroke-linejoin:miter;stroke:rgb(0%,0%,0%);stroke-opacity:1;stroke-miterlimit:10;" d="M -14.171837 -14.17263 L 14.174969 14.172758 " transform="matrix(1.00003,0,0,-1.00008,17.391012,17.806705)"/>
<path style=" stroke:none;fill-rule:nonzero;fill:rgb(0%,0%,0%);fill-opacity:1;" d="M 5.210938 31.980469 C 5.210938 30.878906 4.316406 29.988281 3.21875 29.988281 C 2.117188 29.988281 1.222656 30.878906 1.222656 31.980469 C 1.222656 33.082031 2.117188 33.972656 3.21875 33.972656 C 4.316406 33.972656 5.210938 33.082031 5.210938 31.980469 Z M 5.210938 31.980469 "/>
<path style=" stroke:none;fill-rule:nonzero;fill:rgb(0%,0%,0%);fill-opacity:1;" d="M 33.558594 3.632813 C 33.558594 2.53125 32.664063 1.640625 31.566406 1.640625 C 30.464844 1.640625 29.570313 2.53125 29.570313 3.632813 C 29.570313 4.734375 30.464844 5.625 31.566406 5.625 C 32.664063 5.625 33.558594 4.734375 33.558594 3.632813 Z M 33.558594 3.632813 "/>
</g>
</svg>
