<?xml version="1.0" encoding="UTF-8"?>
<svg xmlns="http://www.w3.org/2000/svg" xmlns:xlink="http://www.w3.org/1999/xlink" width="63pt" height="35pt" viewBox="0 0 63 35" version="1.1">
<g id="surface1">
<path style="fill:none;stroke-width:0.3985;stroke-linecap:butt;stroke-linejoin:miter;stroke:rgb(0%,0%,0%);stroke-opacity:1;stroke-miterlimit:10;" d="M -28.345423 0.0013697 L -14.174398 28.346758 L 0.000532378 0.0013697 L 14.171557 28.346758 L 28.346488 0.0013697 L -14.174398 28.346758 M -28.345423 0.0013697 L 14.171557 28.346758 " transform="matrix(1.00006,0,0,-1.00008,31.565874,31.981839)"/>
<path style=" stroke:none;fill-rule:nonzero;fill:rgb(0%,0%,0%);fill-opacity:1;" d="M 5.210938 31.980469 C 5.210938 30.882813 4.316406 29.988281 3.21875 29.988281 C 2.117188 29.988281 1.226563 30.882813 1.226563 31.980469 C 1.226563 33.082031 2.117188 33.972656 3.21875 33.972656 C 4.316406 33.972656 5.210938 33.082031 5.210938 31.980469 Z M 5.210938 31.980469 "/>
<path style=" stroke:none;fill-rule:nonzero;fill:rgb(0%,0%,0%);fill-opacity:1;" d="M 33.558594 31.980469 C 33.558594 30.882813 32.667969 29.988281 31.566406 29.988281 C 30.464844 29.988281 29.574219 30.882813 29.574219 31.980469 C 29.574219 33.082031 30.464844 33.972656 31.566406 33.972656 C 32.667969 33.972656 33.558594 33.082031 33.558594 31.980469 Z M 33.558594 31.980469 "/>
<path style=" stroke:none;fill-rule:nonzero;fill:rgb(0%,0%,0%);fill-opacity:1;" d="M 61.90625 31.980469 C 61.90625 30.882813 61.015625 29.988281 59.914063 29.988281 C 58.8125 29.988281 57.921875 30.882813 57.921875 31.980469 C 57.921875 33.082031 58.8125 33.972656 59.914063 33.972656 C 61.015625 33.972656 61.90625 33.082031 61.90625 31.980469 Z M 61.90625 31.980469 "/>
<path style=" stroke:none;fill-rule:nonzero;fill:rgb(0%,0%,0%);fill-opacity:1;" d="M 19.382813 3.632813 C 19.382813 2.53125 18.492188 1.640625 17.390625 1.640625 C 16.292969 1.640625 15.398438 2.53125 15.398438 3.632813 C 15.398438 4.734375 16.292969 5.625 17.390625 5.625 C 18.492188 5.625 19.382813 4.734375 19.382813 3.632813 Z M 19.382813 3.632813 "/>
<path style=" stroke:none;fill-rule:nonzero;fill:rgb(0%,0%,0%);fill-opacity:1;" d="M 47.734375 3.632813 C 47.734375 2.53125 46.839844 1.640625 45.738281 1.640625 C 44.640625 1.640625 43.746094 2.53125 43.746094 3.632813 C 43.746094 4.734375 44.640625 5.625 45.738281 5.625 C 46.839844 5.625 47.734375 4.734375 47.734375 3.632813 Z M 47.734375 3.632813 "/>
</g>
</svg>
