<?xml version="1.0" encoding="UTF-8"?>
<svg xmlns="http://www.w3.org/2000/svg" xmlns:xlink="http://www.w3.org/1999/xlink" width="109pt" height="58pt" viewBox="0 0 109 58" version="1.1">
<g id="surface1">
<path style="fill:none;stroke-width:0.3985;stroke-linecap:butt;stroke-linejoin:miter;stroke:rgb(0%,0%,0%);stroke-opacity:1;stroke-miterlimit:10;" d="M -25.510798 -0.001375 L 25.511619 51.022062 M -25.510798 51.022062 L 25.511619 -0.001375 " transform="matrix(1.00002,0,0,-1,54.601152,54.983)"/>
<path style=" stroke:none;fill-rule:nonzero;fill:rgb(0%,0%,0%);fill-opacity:1;" d="M 31.082031 54.984375 C 31.082031 53.882813 30.1875 52.992188 29.089844 52.992188 C 27.988281 52.992188 27.097656 53.882813 27.097656 54.984375 C 27.097656 56.082031 27.988281 56.976563 29.089844 56.976563 C 30.1875 56.976563 31.082031 56.082031 31.082031 54.984375 Z M 31.082031 54.984375 "/>
<path style=" stroke:none;fill-rule:nonzero;fill:rgb(0%,0%,0%);fill-opacity:1;" d="M 82.105469 54.984375 C 82.105469 53.882813 81.214844 52.992188 80.113281 52.992188 C 79.011719 52.992188 78.121094 53.882813 78.121094 54.984375 C 78.121094 56.082031 79.011719 56.976563 80.113281 56.976563 C 81.214844 56.976563 82.105469 56.082031 82.105469 54.984375 Z M 82.105469 54.984375 "/>
<path style=" stroke:none;fill-rule:nonzero;fill:rgb(0%,0%,0%);fill-opacity:1;" d="M 82.105469 3.960938 C 82.105469 2.859375 81.214844 1.964844 80.113281 1.964844 C 79.011719 1.964844 78.121094 2.859375 78.121094 3.960938 C 78.121094 5.058594 79.011719 5.953125 80.113281 5.953125 C 81.214844 5.953125 82.105469 5.058594 82.105469 3.960938 Z M 82.105469 3.960938 "/>
<path style=" stroke:none;fill-rule:nonzero;fill:rgb(0%,0%,0%);fill-opacity:1;" d="M 31.082031 3.960938 C 31.082031 2.859375 30.1875 1.964844 29.089844 1.964844 C 27.988281 1.964844 27.097656 2.859375 27.097656 3.960938 C 27.097656 5.058594 27.988281 5.953125 29.089844 5.953125 C 30.1875 5.953125 31.082031 5.058594 31.082031 3.960938 Z M 31.082031 3.960938 "/>
<path style=" stroke:none;fill-rule:nonzero;fill:rgb(0%,0%,0%);fill-opacity:1;" d="M 56.59375 29.472656 C 56.59375 28.371094 55.703125 27.476563 54.601563 27.476563 C 53.5 27.476563 52.609375 28.371094 52.609375 29.472656 C 52.609375 30.570313 53.5 31.464844 54.601563 31.464844 C 55.703125 31.464844 56.59375 30.570313 56.59375 29.472656 Z M 56.59375 29.472656 "/>
<path style="fill:none;stroke-width:0.3985;stroke-linecap:butt;stroke-linejoin:miter;stroke:rgb(0%,0%,0%);stroke-opacity:1;stroke-miterlimit:10;" d="M -51.022007 25.510344 L -25.510798 51.022062 M 25.511619 51.022062 L 51.022828 25.510344 " transform="matrix(1.00002,0,0,-1,54.601152,54.983)"/>
<path style=" stroke:none;fill-rule:nonzero;fill:rgb(0%,0%,0%);fill-opacity:1;" d="M 5.570313 29.472656 C 5.570313 28.371094 4.675781 27.476563 3.578125 27.476563 C 2.476563 27.476563 1.582031 28.371094 1.582031 29.472656 C 1.582031 30.570313 2.476563 31.464844 3.578125 31.464844 C 4.675781 31.464844 5.570313 30.570313 5.570313 29.472656 Z M 5.570313 29.472656 "/>
<path style=" stroke:none;fill-rule:nonzero;fill:rgb(0%,0%,0%);fill-opacity:1;" d="M 107.617188 29.472656 C 107.617188 28.371094 106.726563 27.476563 105.625 27.476563 C 104.527344 27.476563 103.632813 28.371094 103.632813 29.472656 C 103.632813 30.570313 104.527344 31.464844 105.625 31.464844 C 106.726563 31.464844 107.617188 30.570313 107.617188 29.472656 Z M 107.617188 29.472656 "/>
</g>
</svg>
