<?xml version="1.0" encoding="UTF-8"?>
<svg xmlns="http://www.w3.org/2000/svg" xmlns:xlink="http://www.w3.org/1999/xlink" width="61pt" height="62pt" viewBox="0 0 61 62" version="1.1">
<g id="surface1">
<path style="fill:none;stroke-width:0.3985;stroke-linecap:butt;stroke-linejoin:miter;stroke:rgb(0%,0%,0%);stroke-opacity:1;stroke-miterlimit:10;" d="M 17.673945 22.161537 L -6.308271 27.633919 L -25.53701 12.298749 L -25.53701 -12.297678 L -6.308271 -27.636755 L 17.673945 -22.160466 L 28.34486 -0.00141768 Z M 17.673945 22.161537 " transform="matrix(1.00009,0,0,-1.00005,28.758058,31.268114)"/>
<path style=" stroke:none;fill-rule:nonzero;fill:rgb(0%,0%,0%);fill-opacity:1;" d="M 48.425781 9.105469 C 48.425781 8.003906 47.53125 7.113281 46.433594 7.113281 C 45.332031 7.113281 44.441406 8.003906 44.441406 9.105469 C 44.441406 10.207031 45.332031 11.097656 46.433594 11.097656 C 47.53125 11.097656 48.425781 10.207031 48.425781 9.105469 Z M 48.425781 9.105469 "/>
<path style=" stroke:none;fill-rule:nonzero;fill:rgb(0%,0%,0%);fill-opacity:1;" d="M 24.445313 3.632813 C 24.445313 2.53125 23.550781 1.640625 22.449219 1.640625 C 21.351563 1.640625 20.457031 2.53125 20.457031 3.632813 C 20.457031 4.730469 21.351563 5.625 22.449219 5.625 C 23.550781 5.625 24.445313 4.730469 24.445313 3.632813 Z M 24.445313 3.632813 "/>
<path style=" stroke:none;fill-rule:nonzero;fill:rgb(0%,0%,0%);fill-opacity:1;" d="M 5.210938 18.96875 C 5.210938 17.867188 4.316406 16.976563 3.21875 16.976563 C 2.117188 16.976563 1.226563 17.867188 1.226563 18.96875 C 1.226563 20.070313 2.117188 20.960938 3.21875 20.960938 C 4.316406 20.960938 5.210938 20.070313 5.210938 18.96875 Z M 5.210938 18.96875 "/>
<path style=" stroke:none;fill-rule:nonzero;fill:rgb(0%,0%,0%);fill-opacity:1;" d="M 5.210938 43.566406 C 5.210938 42.464844 4.316406 41.574219 3.21875 41.574219 C 2.117188 41.574219 1.226563 42.464844 1.226563 43.566406 C 1.226563 44.667969 2.117188 45.558594 3.21875 45.558594 C 4.316406 45.558594 5.210938 44.667969 5.210938 43.566406 Z M 5.210938 43.566406 "/>
<path style=" stroke:none;fill-rule:nonzero;fill:rgb(0%,0%,0%);fill-opacity:1;" d="M 24.441406 58.90625 C 24.441406 57.804688 23.550781 56.910156 22.449219 56.910156 C 21.351563 56.910156 20.457031 57.804688 20.457031 58.90625 C 20.457031 60.003906 21.351563 60.898438 22.449219 60.898438 C 23.550781 60.898438 24.441406 60.003906 24.441406 58.90625 Z M 24.441406 58.90625 "/>
<path style=" stroke:none;fill-rule:nonzero;fill:rgb(0%,0%,0%);fill-opacity:1;" d="M 48.425781 53.429688 C 48.425781 52.328125 47.535156 51.4375 46.433594 51.4375 C 45.332031 51.4375 44.441406 52.328125 44.441406 53.429688 C 44.441406 54.53125 45.332031 55.421875 46.433594 55.421875 C 47.535156 55.421875 48.425781 54.53125 48.425781 53.429688 Z M 48.425781 53.429688 "/>
<path style=" stroke:none;fill-rule:nonzero;fill:rgb(0%,0%,0%);fill-opacity:1;" d="M 59.101563 31.269531 C 59.101563 30.167969 58.207031 29.277344 57.105469 29.277344 C 56.007813 29.277344 55.113281 30.167969 55.113281 31.269531 C 55.113281 32.367188 56.007813 33.261719 57.105469 33.261719 C 58.207031 33.261719 59.101563 32.367188 59.101563 31.269531 Z M 59.101563 31.269531 "/>
</g>
</svg>
