<?xml version="1.0" encoding="UTF-8"?>
<svg xmlns="http://www.w3.org/2000/svg" xmlns:xlink="http://www.w3.org/1999/xlink" width="63pt" height="64pt" viewBox="0 0 63 64" version="1.1">
<g id="surface1">
<path style="fill:none;stroke-width:0.3985;stroke-linecap:butt;stroke-linejoin:miter;stroke:rgb(0%,0%,0%);stroke-opacity:1;stroke-miterlimit:10;" d="M 0.000532378 -0.00158514 L -28.345423 28.345221 L -28.345423 56.692027 M 0.000532378 -0.00158514 L 0.000532378 56.692027 M 0.000532378 -0.00158514 L 28.346488 28.345221 L 28.346488 56.692027 " transform="matrix(1.00006,0,0,-1.00003,31.565874,60.32654)"/>
<path style=" stroke:none;fill-rule:nonzero;fill:rgb(0%,0%,0%);fill-opacity:1;" d="M 33.558594 60.328125 C 33.558594 59.226563 32.667969 58.332031 31.566406 58.332031 C 30.464844 58.332031 29.574219 59.226563 29.574219 60.328125 C 29.574219 61.425781 30.464844 62.320313 31.566406 62.320313 C 32.667969 62.320313 33.558594 61.425781 33.558594 60.328125 Z M 33.558594 60.328125 "/>
<path style=" stroke:none;fill-rule:nonzero;fill:rgb(0%,0%,0%);fill-opacity:1;" d="M 5.210938 31.980469 C 5.210938 30.878906 4.316406 29.984375 3.21875 29.984375 C 2.117188 29.984375 1.226563 30.878906 1.226563 31.980469 C 1.226563 33.078125 2.117188 33.972656 3.21875 33.972656 C 4.316406 33.972656 5.210938 33.078125 5.210938 31.980469 Z M 5.210938 31.980469 "/>
<path style=" stroke:none;fill-rule:nonzero;fill:rgb(0%,0%,0%);fill-opacity:1;" d="M 5.210938 3.632813 C 5.210938 2.53125 4.316406 1.636719 3.21875 1.636719 C 2.117188 1.636719 1.226563 2.53125 1.226563 3.632813 C 1.226563 4.730469 2.117188 5.625 3.21875 5.625 C 4.316406 5.625 5.210938 4.730469 5.210938 3.632813 Z M 5.210938 3.632813 "/>
<path style=" stroke:none;fill-rule:nonzero;fill:rgb(0%,0%,0%);fill-opacity:1;" d="M 33.558594 31.980469 C 33.558594 30.878906 32.667969 29.984375 31.566406 29.984375 C 30.464844 29.984375 29.574219 30.878906 29.574219 31.980469 C 29.574219 33.078125 30.464844 33.972656 31.566406 33.972656 C 32.667969 33.972656 33.558594 33.078125 33.558594 31.980469 Z M 33.558594 31.980469 "/>
<path style=" stroke:none;fill-rule:nonzero;fill:rgb(0%,0%,0%);fill-opacity:1;" d="M 33.558594 3.632813 C 33.558594 2.53125 32.667969 1.636719 31.566406 1.636719 C 30.464844 1.636719 29.574219 2.53125 29.574219 3.632813 C 29.574219 4.730469 30.464844 5.625 31.566406 5.625 C 32.667969 5.625 33.558594 4.730469 33.558594 3.632813 Z M 33.558594 3.632813 "/>
<path style=" stroke:none;fill-rule:nonzero;fill:rgb(0%,0%,0%);fill-opacity:1;" d="M 61.90625 31.980469 C 61.90625 30.878906 61.015625 29.984375 59.914063 29.984375 C 58.8125 29.984375 57.921875 30.878906 57.921875 31.980469 C 57.921875 33.078125 58.8125 33.972656 59.914063 33.972656 C 61.015625 33.972656 61.90625 33.078125 61.90625 31.980469 Z M 61.90625 31.980469 "/>
<path style=" stroke:none;fill-rule:nonzero;fill:rgb(0%,0%,0%);fill-opacity:1;" d="M 61.90625 3.632813 C 61.90625 2.53125 61.015625 1.636719 59.914063 1.636719 C 58.8125 1.636719 57.921875 2.53125 57.921875 3.632813 C 57.921875 4.730469 58.8125 5.625 59.914063 5.625 C 61.015625 5.625 61.90625 4.730469 61.90625 3.632813 Z M 61.90625 3.632813 "/>
</g>
</svg>
