<?xml version="1.0" encoding="UTF-8"?>
<svg xmlns="http://www.w3.org/2000/svg" xmlns:xlink="http://www.w3.org/1999/xlink" width="58pt" height="61pt" viewBox="0 0 58 61" version="1.1">
<g id="surface1">
<path style=" stroke:none;fill-rule:nonzero;fill:rgb(0%,0%,0%);fill-opacity:1;" d="M 28.140625 30.59375 C 28.140625 29.496094 27.25 28.601563 26.148438 28.601563 C 25.050781 28.601563 24.15625 29.496094 24.15625 30.59375 C 24.15625 31.695313 25.050781 32.589844 26.148438 32.589844 C 27.25 32.589844 28.140625 31.695313 28.140625 30.59375 Z M 28.140625 30.59375 "/>
<path style="fill:none;stroke-width:0.3985;stroke-linecap:butt;stroke-linejoin:miter;stroke:rgb(0%,0%,0%);stroke-opacity:1;stroke-miterlimit:10;" d="M -0.0015625 0.00140966 L 28.346094 0.00140966 L 8.760156 26.959651 " transform="matrix(1,0,0,-1.0001,26.15,30.59516)"/>
<path style=" stroke:none;fill-rule:nonzero;fill:rgb(0%,0%,0%);fill-opacity:1;" d="M 56.488281 30.59375 C 56.488281 29.496094 55.597656 28.601563 54.496094 28.601563 C 53.394531 28.601563 52.503906 29.496094 52.503906 30.59375 C 52.503906 31.695313 53.394531 32.589844 54.496094 32.589844 C 55.597656 32.589844 56.488281 31.695313 56.488281 30.59375 Z M 56.488281 30.59375 "/>
<path style="fill:none;stroke-width:0.3985;stroke-linecap:butt;stroke-linejoin:miter;stroke:rgb(0%,0%,0%);stroke-opacity:1;stroke-miterlimit:10;" d="M -0.0015625 0.00140966 L 8.760156 26.959651 L -22.93125 16.6599 " transform="matrix(1,0,0,-1.0001,26.15,30.59516)"/>
<path style=" stroke:none;fill-rule:nonzero;fill:rgb(0%,0%,0%);fill-opacity:1;" d="M 36.902344 3.632813 C 36.902344 2.53125 36.011719 1.640625 34.910156 1.640625 C 33.808594 1.640625 32.917969 2.53125 32.917969 3.632813 C 32.917969 4.734375 33.808594 5.625 34.910156 5.625 C 36.011719 5.625 36.902344 4.734375 36.902344 3.632813 Z M 36.902344 3.632813 "/>
<path style="fill:none;stroke-width:0.3985;stroke-linecap:butt;stroke-linejoin:miter;stroke:rgb(0%,0%,0%);stroke-opacity:1;stroke-miterlimit:10;" d="M -0.0015625 0.00140966 L -22.93125 16.6599 L -22.93125 -16.660987 " transform="matrix(1,0,0,-1.0001,26.15,30.59516)"/>
<path style=" stroke:none;fill-rule:nonzero;fill:rgb(0%,0%,0%);fill-opacity:1;" d="M 5.210938 13.933594 C 5.210938 12.832031 4.316406 11.9375 3.21875 11.9375 C 2.117188 11.9375 1.222656 12.832031 1.222656 13.933594 C 1.222656 15.03125 2.117188 15.925781 3.21875 15.925781 C 4.316406 15.925781 5.210938 15.03125 5.210938 13.933594 Z M 5.210938 13.933594 "/>
<path style="fill:none;stroke-width:0.3985;stroke-linecap:butt;stroke-linejoin:miter;stroke:rgb(0%,0%,0%);stroke-opacity:1;stroke-miterlimit:10;" d="M -0.0015625 0.00140966 L -22.93125 -16.660987 L 8.760156 -26.960738 " transform="matrix(1,0,0,-1.0001,26.15,30.59516)"/>
<path style=" stroke:none;fill-rule:nonzero;fill:rgb(0%,0%,0%);fill-opacity:1;" d="M 5.210938 47.257813 C 5.210938 46.15625 4.316406 45.265625 3.21875 45.265625 C 2.117188 45.265625 1.222656 46.15625 1.222656 47.257813 C 1.222656 48.359375 2.117188 49.25 3.21875 49.25 C 4.316406 49.25 5.210938 48.359375 5.210938 47.257813 Z M 5.210938 47.257813 "/>
<path style="fill:none;stroke-width:0.3985;stroke-linecap:butt;stroke-linejoin:miter;stroke:rgb(0%,0%,0%);stroke-opacity:1;stroke-miterlimit:10;" d="M -0.0015625 0.00140966 L 8.760156 -26.960738 L 28.346094 0.00140966 " transform="matrix(1,0,0,-1.0001,26.15,30.59516)"/>
<path style=" stroke:none;fill-rule:nonzero;fill:rgb(0%,0%,0%);fill-opacity:1;" d="M 36.902344 57.558594 C 36.902344 56.457031 36.011719 55.566406 34.910156 55.566406 C 33.808594 55.566406 32.917969 56.457031 32.917969 57.558594 C 32.917969 58.65625 33.808594 59.550781 34.910156 59.550781 C 36.011719 59.550781 36.902344 58.65625 36.902344 57.558594 Z M 36.902344 57.558594 "/>
</g>
</svg>
