<?xml version="1.0" encoding="UTF-8"?>
<svg xmlns="http://www.w3.org/2000/svg" xmlns:xlink="http://www.w3.org/1999/xlink" width="63pt" height="56pt" viewBox="0 0 63 56" version="1.1">
<g id="surface1">
<path style="fill:none;stroke-width:0.3985;stroke-linecap:butt;stroke-linejoin:miter;stroke:rgb(0%,0%,0%);stroke-opacity:1;stroke-miterlimit:10;" d="M 28.346488 0.0013125 L 14.171557 24.548188 " transform="matrix(1.00006,0,0,-1,31.565874,28.181)"/>
<path style="fill:none;stroke-width:0.3985;stroke-linecap:butt;stroke-linejoin:miter;stroke:rgb(0%,0%,0%);stroke-opacity:1;stroke-miterlimit:10;" d="M 28.346488 0.0013125 L -14.174398 24.548188 " transform="matrix(1.00006,0,0,-1,31.565874,28.181)"/>
<path style="fill:none;stroke-width:0.3985;stroke-linecap:butt;stroke-linejoin:miter;stroke:rgb(0%,0%,0%);stroke-opacity:1;stroke-miterlimit:10;" d="M 28.346488 0.0013125 L -28.345423 0.0013125 " transform="matrix(1.00006,0,0,-1,31.565874,28.181)"/>
<path style="fill:none;stroke-width:0.3985;stroke-linecap:butt;stroke-linejoin:miter;stroke:rgb(0%,0%,0%);stroke-opacity:1;stroke-miterlimit:10;" d="M 28.346488 0.0013125 L -14.174398 -24.549469 " transform="matrix(1.00006,0,0,-1,31.565874,28.181)"/>
<path style="fill:none;stroke-width:0.3985;stroke-linecap:butt;stroke-linejoin:miter;stroke:rgb(0%,0%,0%);stroke-opacity:1;stroke-miterlimit:10;" d="M 28.346488 0.0013125 L 14.171557 -24.549469 " transform="matrix(1.00006,0,0,-1,31.565874,28.181)"/>
<path style=" stroke:none;fill-rule:nonzero;fill:rgb(0%,0%,0%);fill-opacity:1;" d="M 61.90625 28.179688 C 61.90625 27.082031 61.015625 26.1875 59.914063 26.1875 C 58.8125 26.1875 57.921875 27.082031 57.921875 28.179688 C 57.921875 29.28125 58.8125 30.171875 59.914063 30.171875 C 61.015625 30.171875 61.90625 29.28125 61.90625 28.179688 Z M 61.90625 28.179688 "/>
<path style="fill:none;stroke-width:0.3985;stroke-linecap:butt;stroke-linejoin:miter;stroke:rgb(0%,0%,0%);stroke-opacity:1;stroke-miterlimit:10;" d="M 14.171557 24.548188 L -14.174398 24.548188 " transform="matrix(1.00006,0,0,-1,31.565874,28.181)"/>
<path style="fill:none;stroke-width:0.3985;stroke-linecap:butt;stroke-linejoin:miter;stroke:rgb(0%,0%,0%);stroke-opacity:1;stroke-miterlimit:10;" d="M 14.171557 24.548188 L -28.345423 0.0013125 " transform="matrix(1.00006,0,0,-1,31.565874,28.181)"/>
<path style="fill:none;stroke-width:0.3985;stroke-linecap:butt;stroke-linejoin:miter;stroke:rgb(0%,0%,0%);stroke-opacity:1;stroke-miterlimit:10;" d="M 14.171557 24.548188 L -14.174398 -24.549469 " transform="matrix(1.00006,0,0,-1,31.565874,28.181)"/>
<path style="fill:none;stroke-width:0.3985;stroke-linecap:butt;stroke-linejoin:miter;stroke:rgb(0%,0%,0%);stroke-opacity:1;stroke-miterlimit:10;" d="M 14.171557 24.548188 L 14.171557 -24.549469 " transform="matrix(1.00006,0,0,-1,31.565874,28.181)"/>
<path style="fill:none;stroke-width:0.3985;stroke-linecap:butt;stroke-linejoin:miter;stroke:rgb(0%,0%,0%);stroke-opacity:1;stroke-miterlimit:10;" d="M 14.171557 24.548188 L 28.346488 0.0013125 " transform="matrix(1.00006,0,0,-1,31.565874,28.181)"/>
<path style=" stroke:none;fill-rule:nonzero;fill:rgb(0%,0%,0%);fill-opacity:1;" d="M 47.734375 3.632813 C 47.734375 2.53125 46.839844 1.640625 45.738281 1.640625 C 44.640625 1.640625 43.746094 2.53125 43.746094 3.632813 C 43.746094 4.730469 44.640625 5.625 45.738281 5.625 C 46.839844 5.625 47.734375 4.730469 47.734375 3.632813 Z M 47.734375 3.632813 "/>
<path style="fill:none;stroke-width:0.3985;stroke-linecap:butt;stroke-linejoin:miter;stroke:rgb(0%,0%,0%);stroke-opacity:1;stroke-miterlimit:10;" d="M -14.174398 24.548188 L -28.345423 0.0013125 " transform="matrix(1.00006,0,0,-1,31.565874,28.181)"/>
<path style="fill:none;stroke-width:0.3985;stroke-linecap:butt;stroke-linejoin:miter;stroke:rgb(0%,0%,0%);stroke-opacity:1;stroke-miterlimit:10;" d="M -14.174398 24.548188 L -14.174398 -24.549469 " transform="matrix(1.00006,0,0,-1,31.565874,28.181)"/>
<path style="fill:none;stroke-width:0.3985;stroke-linecap:butt;stroke-linejoin:miter;stroke:rgb(0%,0%,0%);stroke-opacity:1;stroke-miterlimit:10;" d="M -14.174398 24.548188 L 14.171557 -24.549469 " transform="matrix(1.00006,0,0,-1,31.565874,28.181)"/>
<path style="fill:none;stroke-width:0.3985;stroke-linecap:butt;stroke-linejoin:miter;stroke:rgb(0%,0%,0%);stroke-opacity:1;stroke-miterlimit:10;" d="M -14.174398 24.548188 L 28.346488 0.0013125 " transform="matrix(1.00006,0,0,-1,31.565874,28.181)"/>
<path style="fill:none;stroke-width:0.3985;stroke-linecap:butt;stroke-linejoin:miter;stroke:rgb(0%,0%,0%);stroke-opacity:1;stroke-miterlimit:10;" d="M -14.174398 24.548188 L 14.171557 24.548188 " transform="matrix(1.00006,0,0,-1,31.565874,28.181)"/>
<path style=" stroke:none;fill-rule:nonzero;fill:rgb(0%,0%,0%);fill-opacity:1;" d="M 19.382813 3.632813 C 19.382813 2.53125 18.492188 1.640625 17.390625 1.640625 C 16.292969 1.640625 15.398438 2.53125 15.398438 3.632813 C 15.398438 4.730469 16.292969 5.625 17.390625 5.625 C 18.492188 5.625 19.382813 4.730469 19.382813 3.632813 Z M 19.382813 3.632813 "/>
<path style="fill:none;stroke-width:0.3985;stroke-linecap:butt;stroke-linejoin:miter;stroke:rgb(0%,0%,0%);stroke-opacity:1;stroke-miterlimit:10;" d="M -28.345423 0.0013125 L -14.174398 -24.549469 " transform="matrix(1.00006,0,0,-1,31.565874,28.181)"/>
<path style="fill:none;stroke-width:0.3985;stroke-linecap:butt;stroke-linejoin:miter;stroke:rgb(0%,0%,0%);stroke-opacity:1;stroke-miterlimit:10;" d="M -28.345423 0.0013125 L 14.171557 -24.549469 " transform="matrix(1.00006,0,0,-1,31.565874,28.181)"/>
<path style="fill:none;stroke-width:0.3985;stroke-linecap:butt;stroke-linejoin:miter;stroke:rgb(0%,0%,0%);stroke-opacity:1;stroke-miterlimit:10;" d="M -28.345423 0.0013125 L 28.346488 0.0013125 " transform="matrix(1.00006,0,0,-1,31.565874,28.181)"/>
<path style="fill:none;stroke-width:0.3985;stroke-linecap:butt;stroke-linejoin:miter;stroke:rgb(0%,0%,0%);stroke-opacity:1;stroke-miterlimit:10;" d="M -28.345423 0.0013125 L 14.171557 24.548188 " transform="matrix(1.00006,0,0,-1,31.565874,28.181)"/>
<path style="fill:none;stroke-width:0.3985;stroke-linecap:butt;stroke-linejoin:miter;stroke:rgb(0%,0%,0%);stroke-opacity:1;stroke-miterlimit:10;" d="M -28.345423 0.0013125 L -14.174398 24.548188 " transform="matrix(1.00006,0,0,-1,31.565874,28.181)"/>
<path style=" stroke:none;fill-rule:nonzero;fill:rgb(0%,0%,0%);fill-opacity:1;" d="M 5.210938 28.179688 C 5.210938 27.082031 4.316406 26.1875 3.21875 26.1875 C 2.117188 26.1875 1.226563 27.082031 1.226563 28.179688 C 1.226563 29.28125 2.117188 30.171875 3.21875 30.171875 C 4.316406 30.171875 5.210938 29.28125 5.210938 28.179688 Z M 5.210938 28.179688 "/>
<path style="fill:none;stroke-width:0.3985;stroke-linecap:butt;stroke-linejoin:miter;stroke:rgb(0%,0%,0%);stroke-opacity:1;stroke-miterlimit:10;" d="M -14.174398 -24.549469 L 14.171557 -24.549469 " transform="matrix(1.00006,0,0,-1,31.565874,28.181)"/>
<path style="fill:none;stroke-width:0.3985;stroke-linecap:butt;stroke-linejoin:miter;stroke:rgb(0%,0%,0%);stroke-opacity:1;stroke-miterlimit:10;" d="M -14.174398 -24.549469 L 28.346488 0.0013125 " transform="matrix(1.00006,0,0,-1,31.565874,28.181)"/>
<path style="fill:none;stroke-width:0.3985;stroke-linecap:butt;stroke-linejoin:miter;stroke:rgb(0%,0%,0%);stroke-opacity:1;stroke-miterlimit:10;" d="M -14.174398 -24.549469 L 14.171557 24.548188 " transform="matrix(1.00006,0,0,-1,31.565874,28.181)"/>
<path style="fill:none;stroke-width:0.3985;stroke-linecap:butt;stroke-linejoin:miter;stroke:rgb(0%,0%,0%);stroke-opacity:1;stroke-miterlimit:10;" d="M -14.174398 -24.549469 L -14.174398 24.548188 " transform="matrix(1.00006,0,0,-1,31.565874,28.181)"/>
<path style="fill:none;stroke-width:0.3985;stroke-linecap:butt;stroke-linejoin:miter;stroke:rgb(0%,0%,0%);stroke-opacity:1;stroke-miterlimit:10;" d="M -14.174398 -24.549469 L -28.345423 0.0013125 " transform="matrix(1.00006,0,0,-1,31.565874,28.181)"/>
<path style=" stroke:none;fill-rule:nonzero;fill:rgb(0%,0%,0%);fill-opacity:1;" d="M 19.382813 52.730469 C 19.382813 51.628906 18.492188 50.738281 17.390625 50.738281 C 16.292969 50.738281 15.398438 51.628906 15.398438 52.730469 C 15.398438 53.832031 16.292969 54.722656 17.390625 54.722656 C 18.492188 54.722656 19.382813 53.832031 19.382813 52.730469 Z M 19.382813 52.730469 "/>
<path style="fill:none;stroke-width:0.3985;stroke-linecap:butt;stroke-linejoin:miter;stroke:rgb(0%,0%,0%);stroke-opacity:1;stroke-miterlimit:10;" d="M 14.171557 -24.549469 L 28.346488 0.0013125 " transform="matrix(1.00006,0,0,-1,31.565874,28.181)"/>
<path style="fill:none;stroke-width:0.3985;stroke-linecap:butt;stroke-linejoin:miter;stroke:rgb(0%,0%,0%);stroke-opacity:1;stroke-miterlimit:10;" d="M 14.171557 -24.549469 L 14.171557 24.548188 " transform="matrix(1.00006,0,0,-1,31.565874,28.181)"/>
<path style="fill:none;stroke-width:0.3985;stroke-linecap:butt;stroke-linejoin:miter;stroke:rgb(0%,0%,0%);stroke-opacity:1;stroke-miterlimit:10;" d="M 14.171557 -24.549469 L -14.174398 24.548188 " transform="matrix(1.00006,0,0,-1,31.565874,28.181)"/>
<path style="fill:none;stroke-width:0.3985;stroke-linecap:butt;stroke-linejoin:miter;stroke:rgb(0%,0%,0%);stroke-opacity:1;stroke-miterlimit:10;" d="M 14.171557 -24.549469 L -28.345423 0.0013125 " transform="matrix(1.00006,0,0,-1,31.565874,28.181)"/>
<path style="fill:none;stroke-width:0.3985;stroke-linecap:butt;stroke-linejoin:miter;stroke:rgb(0%,0%,0%);stroke-opacity:1;stroke-miterlimit:10;" d="M 14.171557 -24.549469 L -14.174398 -24.549469 " transform="matrix(1.00006,0,0,-1,31.565874,28.181)"/>
<path style=" stroke:none;fill-rule:nonzero;fill:rgb(0%,0%,0%);fill-opacity:1;" d="M 47.734375 52.730469 C 47.734375 51.628906 46.839844 50.738281 45.738281 50.738281 C 44.640625 50.738281 43.746094 51.628906 43.746094 52.730469 C 43.746094 53.832031 44.640625 54.722656 45.738281 54.722656 C 46.839844 54.722656 47.734375 53.832031 47.734375 52.730469 Z M 47.734375 52.730469 "/>
</g>
</svg>
