<?xml version="1.0" encoding="UTF-8"?>
<svg xmlns="http://www.w3.org/2000/svg" xmlns:xlink="http://www.w3.org/1999/xlink" width="92pt" height="64pt" viewBox="0 0 92 64" version="1.1">
<g id="surface1">
<path style="fill:none;stroke-width:0.3985;stroke-linecap:butt;stroke-linejoin:miter;stroke:rgb(0%,0%,0%);stroke-opacity:1;stroke-miterlimit:10;" d="M -28.345837 -0.00158514 L -28.345837 56.692027 L 28.347775 56.692027 L 28.347775 -0.00158514 L -28.345837 56.692027 " transform="matrix(1.00003,0,0,-1.00003,31.565437,60.32654)"/>
<path style=" stroke:none;fill-rule:nonzero;fill:rgb(0%,0%,0%);fill-opacity:1;" d="M 5.210938 60.328125 C 5.210938 59.226563 4.316406 58.332031 3.21875 58.332031 C 2.117188 58.332031 1.226563 59.226563 1.226563 60.328125 C 1.226563 61.425781 2.117188 62.320313 3.21875 62.320313 C 4.316406 62.320313 5.210938 61.425781 5.210938 60.328125 Z M 5.210938 60.328125 "/>
<path style=" stroke:none;fill-rule:nonzero;fill:rgb(0%,0%,0%);fill-opacity:1;" d="M 5.210938 3.632813 C 5.210938 2.53125 4.316406 1.636719 3.21875 1.636719 C 2.117188 1.636719 1.226563 2.53125 1.226563 3.632813 C 1.226563 4.730469 2.117188 5.625 3.21875 5.625 C 4.316406 5.625 5.210938 4.730469 5.210938 3.632813 Z M 5.210938 3.632813 "/>
<path style=" stroke:none;fill-rule:nonzero;fill:rgb(0%,0%,0%);fill-opacity:1;" d="M 61.90625 3.632813 C 61.90625 2.53125 61.011719 1.636719 59.914063 1.636719 C 58.8125 1.636719 57.921875 2.53125 57.921875 3.632813 C 57.921875 4.730469 58.8125 5.625 59.914063 5.625 C 61.011719 5.625 61.90625 4.730469 61.90625 3.632813 Z M 61.90625 3.632813 "/>
<path style=" stroke:none;fill-rule:nonzero;fill:rgb(0%,0%,0%);fill-opacity:1;" d="M 61.90625 60.328125 C 61.90625 59.226563 61.011719 58.332031 59.914063 58.332031 C 58.8125 58.332031 57.921875 59.226563 57.921875 60.328125 C 57.921875 61.425781 58.8125 62.320313 59.914063 62.320313 C 61.011719 62.320313 61.90625 61.425781 61.90625 60.328125 Z M 61.90625 60.328125 "/>
<path style="fill:none;stroke-width:0.3985;stroke-linecap:butt;stroke-linejoin:miter;stroke:rgb(0%,0%,0%);stroke-opacity:1;stroke-dasharray:2.98883,2.98883;stroke-miterlimit:10;" d="M 28.347775 56.692027 L 56.694581 28.345221 " transform="matrix(1.00003,0,0,-1.00003,31.565437,60.32654)"/>
<path style=" stroke:none;fill-rule:nonzero;fill:rgb(0%,0%,0%);fill-opacity:1;" d="M 90.253906 31.980469 C 90.253906 30.878906 89.359375 29.984375 88.261719 29.984375 C 87.160156 29.984375 86.269531 30.878906 86.269531 31.980469 C 86.269531 33.078125 87.160156 33.972656 88.261719 33.972656 C 89.359375 33.972656 90.253906 33.078125 90.253906 31.980469 Z M 90.253906 31.980469 "/>
</g>
</svg>
