<?xml version="1.0" encoding="UTF-8"?>
<svg xmlns="http://www.w3.org/2000/svg" xmlns:xlink="http://www.w3.org/1999/xlink" width="81pt" height="67pt" viewBox="0 0 81 67" version="1.1">
<g id="surface1">
<path style="fill:none;stroke-width:0.3985;stroke-linecap:butt;stroke-linejoin:miter;stroke:rgb(0%,0%,0%);stroke-opacity:1;stroke-miterlimit:10;" d="M -29.762344 0.000746775 L -14.883437 39.685866 L -0.000625 0.000746775 L 44.643906 -19.841813 L 29.765 0.000746775 L -14.883437 39.685866 M 44.643906 -19.841813 L -29.762344 0.000746775 " transform="matrix(1,0,0,-1.00006,32.985,43.321059)"/>
<path style=" stroke:none;fill-rule:nonzero;fill:rgb(0%,0%,0%);fill-opacity:1;" d="M 5.214844 43.320313 C 5.214844 42.21875 4.320313 41.328125 3.222656 41.328125 C 2.121094 41.328125 1.230469 42.21875 1.230469 43.320313 C 1.230469 44.421875 2.121094 45.3125 3.222656 45.3125 C 4.320313 45.3125 5.214844 44.421875 5.214844 43.320313 Z M 5.214844 43.320313 "/>
<path style=" stroke:none;fill-rule:nonzero;fill:rgb(0%,0%,0%);fill-opacity:1;" d="M 20.09375 3.632813 C 20.09375 2.53125 19.203125 1.640625 18.101563 1.640625 C 17.003906 1.640625 16.109375 2.53125 16.109375 3.632813 C 16.109375 4.734375 17.003906 5.625 18.101563 5.625 C 19.203125 5.625 20.09375 4.734375 20.09375 3.632813 Z M 20.09375 3.632813 "/>
<path style=" stroke:none;fill-rule:nonzero;fill:rgb(0%,0%,0%);fill-opacity:1;" d="M 34.976563 43.320313 C 34.976563 42.21875 34.085938 41.328125 32.984375 41.328125 C 31.882813 41.328125 30.992188 42.21875 30.992188 43.320313 C 30.992188 44.421875 31.882813 45.3125 32.984375 45.3125 C 34.085938 45.3125 34.976563 44.421875 34.976563 43.320313 Z M 34.976563 43.320313 "/>
<path style=" stroke:none;fill-rule:nonzero;fill:rgb(0%,0%,0%);fill-opacity:1;" d="M 79.625 63.164063 C 79.625 62.0625 78.730469 61.171875 77.628906 61.171875 C 76.53125 61.171875 75.636719 62.0625 75.636719 63.164063 C 75.636719 64.265625 76.53125 65.15625 77.628906 65.15625 C 78.730469 65.15625 79.625 64.265625 79.625 63.164063 Z M 79.625 63.164063 "/>
<path style=" stroke:none;fill-rule:nonzero;fill:rgb(0%,0%,0%);fill-opacity:1;" d="M 64.742188 43.320313 C 64.742188 42.21875 63.847656 41.328125 62.75 41.328125 C 61.648438 41.328125 60.757813 42.21875 60.757813 43.320313 C 60.757813 44.421875 61.648438 45.3125 62.75 45.3125 C 63.847656 45.3125 64.742188 44.421875 64.742188 43.320313 Z M 64.742188 43.320313 "/>
</g>
</svg>
