<?xml version="1.0" encoding="UTF-8"?>
<svg xmlns="http://www.w3.org/2000/svg" xmlns:xlink="http://www.w3.org/1999/xlink" width="66pt" height="47pt" viewBox="0 0 66 47" version="1.1">
<g id="surface1">
<path style="fill:none;stroke-width:0.3985;stroke-linecap:butt;stroke-linejoin:miter;stroke:rgb(0%,0%,0%);stroke-opacity:1;stroke-miterlimit:10;" d="M -29.763241 -0.00128289 L -14.88162 39.685027 L 0.0000024498 -0.00128289 L 14.881624 39.685027 L 29.763246 -0.00128289 L -14.88162 39.685027 M 14.881624 39.685027 L -29.763241 -0.00128289 " transform="matrix(1.00008,0,0,-1.00003,32.988279,43.31903)"/>
<path style=" stroke:none;fill-rule:nonzero;fill:rgb(0%,0%,0%);fill-opacity:1;" d="M 5.214844 43.320313 C 5.214844 42.21875 4.324219 41.328125 3.222656 41.328125 C 2.121094 41.328125 1.230469 42.21875 1.230469 43.320313 C 1.230469 44.417969 2.121094 45.3125 3.222656 45.3125 C 4.324219 45.3125 5.214844 44.417969 5.214844 43.320313 Z M 5.214844 43.320313 "/>
<path style=" stroke:none;fill-rule:nonzero;fill:rgb(0%,0%,0%);fill-opacity:1;" d="M 20.097656 3.632813 C 20.097656 2.53125 19.207031 1.640625 18.105469 1.640625 C 17.003906 1.640625 16.113281 2.53125 16.113281 3.632813 C 16.113281 4.734375 17.003906 5.625 18.105469 5.625 C 19.207031 5.625 20.097656 4.734375 20.097656 3.632813 Z M 20.097656 3.632813 "/>
<path style=" stroke:none;fill-rule:nonzero;fill:rgb(0%,0%,0%);fill-opacity:1;" d="M 34.980469 43.320313 C 34.980469 42.21875 34.089844 41.328125 32.988281 41.328125 C 31.886719 41.328125 30.996094 42.21875 30.996094 43.320313 C 30.996094 44.417969 31.886719 45.3125 32.988281 45.3125 C 34.089844 45.3125 34.980469 44.417969 34.980469 43.320313 Z M 34.980469 43.320313 "/>
<path style=" stroke:none;fill-rule:nonzero;fill:rgb(0%,0%,0%);fill-opacity:1;" d="M 49.863281 3.632813 C 49.863281 2.53125 48.972656 1.640625 47.871094 1.640625 C 46.769531 1.640625 45.878906 2.53125 45.878906 3.632813 C 45.878906 4.734375 46.769531 5.625 47.871094 5.625 C 48.972656 5.625 49.863281 4.734375 49.863281 3.632813 Z M 49.863281 3.632813 "/>
<path style=" stroke:none;fill-rule:nonzero;fill:rgb(0%,0%,0%);fill-opacity:1;" d="M 64.746094 43.320313 C 64.746094 42.21875 63.855469 41.328125 62.753906 41.328125 C 61.652344 41.328125 60.761719 42.21875 60.761719 43.320313 C 60.761719 44.417969 61.652344 45.3125 62.753906 45.3125 C 63.855469 45.3125 64.746094 44.417969 64.746094 43.320313 Z M 64.746094 43.320313 "/>
</g>
</svg>
