<?xml version="1.0" encoding="UTF-8"?>
<svg xmlns="http://www.w3.org/2000/svg" xmlns:xlink="http://www.w3.org/1999/xlink" width="58pt" height="59pt" viewBox="0 0 58 59" version="1.1">
<g id="surface1">
<path style="fill:none;stroke-width:0.3985;stroke-linecap:butt;stroke-linejoin:miter;stroke:rgb(0%,0%,0%);stroke-opacity:1;stroke-miterlimit:10;" d="M 20.045278 20.043702 L -20.042561 20.043702 L -20.042561 -20.044138 L 20.045278 -20.044138 L 20.045278 20.043702 L -20.042561 -20.044138 " transform="matrix(1.00005,0,0,-1.00005,23.262313,35.075954)"/>
<path style=" stroke:none;fill-rule:nonzero;fill:rgb(0%,0%,0%);fill-opacity:1;" d="M 45.300781 15.03125 C 45.300781 13.929688 44.40625 13.039063 43.308594 13.039063 C 42.207031 13.039063 41.316406 13.929688 41.316406 15.03125 C 41.316406 16.132813 42.207031 17.023438 43.308594 17.023438 C 44.40625 17.023438 45.300781 16.132813 45.300781 15.03125 Z M 45.300781 15.03125 "/>
<path style=" stroke:none;fill-rule:nonzero;fill:rgb(0%,0%,0%);fill-opacity:1;" d="M 5.210938 15.03125 C 5.210938 13.929688 4.316406 13.039063 3.21875 13.039063 C 2.117188 13.039063 1.222656 13.929688 1.222656 15.03125 C 1.222656 16.132813 2.117188 17.023438 3.21875 17.023438 C 4.316406 17.023438 5.210938 16.132813 5.210938 15.03125 Z M 5.210938 15.03125 "/>
<path style=" stroke:none;fill-rule:nonzero;fill:rgb(0%,0%,0%);fill-opacity:1;" d="M 5.210938 55.121094 C 5.210938 54.019531 4.316406 53.128906 3.21875 53.128906 C 2.117188 53.128906 1.222656 54.019531 1.222656 55.121094 C 1.222656 56.222656 2.117188 57.113281 3.21875 57.113281 C 4.316406 57.113281 5.210938 56.222656 5.210938 55.121094 Z M 5.210938 55.121094 "/>
<path style=" stroke:none;fill-rule:nonzero;fill:rgb(0%,0%,0%);fill-opacity:1;" d="M 45.300781 55.121094 C 45.300781 54.019531 44.40625 53.128906 43.308594 53.128906 C 42.207031 53.128906 41.316406 54.019531 41.316406 55.121094 C 41.316406 56.222656 42.207031 57.113281 43.308594 57.113281 C 44.40625 57.113281 45.300781 56.222656 45.300781 55.121094 Z M 45.300781 55.121094 "/>
<path style="fill:none;stroke-width:0.3985;stroke-linecap:butt;stroke-linejoin:miter;stroke:rgb(0%,0%,0%);stroke-opacity:1;stroke-miterlimit:10;" d="M -20.042561 20.043702 C 19.389061 53.276415 53.274086 19.391391 20.045278 -20.044138 " transform="matrix(1.00005,0,0,-1.00005,23.262313,35.075954)"/>
</g>
</svg>
