<?xml version="1.0" encoding="UTF-8"?>
<svg xmlns="http://www.w3.org/2000/svg" xmlns:xlink="http://www.w3.org/1999/xlink" width="64pt" height="56pt" viewBox="0 0 64 56" version="1.1">
<g id="surface1">
<path style="fill:none;stroke-width:0.19925;stroke-linecap:butt;stroke-linejoin:miter;stroke:rgb(0%,0%,0%);stroke-opacity:1;stroke-miterlimit:10;" d="M 28.346488 -0.00142573 L 14.171557 24.548128 L -28.345423 -0.00142573 Z M 28.346488 -0.00142573 " transform="matrix(1.00006,0,0,-1.00005,31.565874,27.982949)"/>
<path style=" stroke:none;fill-rule:nonzero;fill:rgb(0%,0%,0%);fill-opacity:1;" d="M 61.90625 27.984375 C 61.90625 26.882813 61.015625 25.992188 59.914063 25.992188 C 58.8125 25.992188 57.921875 26.882813 57.921875 27.984375 C 57.921875 29.082031 58.8125 29.976563 59.914063 29.976563 C 61.015625 29.976563 61.90625 29.082031 61.90625 27.984375 Z M 61.90625 27.984375 "/>
<path style="fill:none;stroke-width:0.19925;stroke-linecap:butt;stroke-linejoin:miter;stroke:rgb(0%,0%,0%);stroke-opacity:1;stroke-miterlimit:10;" d="M 14.171557 24.548128 L -14.174398 24.548128 L -14.174398 -24.55098 Z M 14.171557 24.548128 " transform="matrix(1.00006,0,0,-1.00005,31.565874,27.982949)"/>
<path style=" stroke:none;fill-rule:nonzero;fill:rgb(0%,0%,0%);fill-opacity:1;" d="M 47.734375 3.433594 C 47.734375 2.332031 46.839844 1.441406 45.738281 1.441406 C 44.640625 1.441406 43.746094 2.332031 43.746094 3.433594 C 43.746094 4.53125 44.640625 5.425781 45.738281 5.425781 C 46.839844 5.425781 47.734375 4.53125 47.734375 3.433594 Z M 47.734375 3.433594 "/>
<path style="fill:none;stroke-width:0.19925;stroke-linecap:butt;stroke-linejoin:miter;stroke:rgb(0%,0%,0%);stroke-opacity:1;stroke-miterlimit:10;" d="M -14.174398 24.548128 L -28.345423 -0.00142573 L 14.171557 -24.55098 Z M -14.174398 24.548128 " transform="matrix(1.00006,0,0,-1.00005,31.565874,27.982949)"/>
<path style=" stroke:none;fill-rule:nonzero;fill:rgb(0%,0%,0%);fill-opacity:1;" d="M 19.382813 3.433594 C 19.382813 2.332031 18.492188 1.441406 17.390625 1.441406 C 16.292969 1.441406 15.398438 2.332031 15.398438 3.433594 C 15.398438 4.53125 16.292969 5.425781 17.390625 5.425781 C 18.492188 5.425781 19.382813 4.53125 19.382813 3.433594 Z M 19.382813 3.433594 "/>
<path style="fill:none;stroke-width:0.19925;stroke-linecap:butt;stroke-linejoin:miter;stroke:rgb(0%,0%,0%);stroke-opacity:1;stroke-miterlimit:10;" d="M -28.345423 -0.00142573 L -14.174398 -24.55098 L 28.346488 -0.00142573 Z M -28.345423 -0.00142573 " transform="matrix(1.00006,0,0,-1.00005,31.565874,27.982949)"/>
<path style=" stroke:none;fill-rule:nonzero;fill:rgb(0%,0%,0%);fill-opacity:1;" d="M 5.210938 27.984375 C 5.210938 26.882813 4.316406 25.992188 3.21875 25.992188 C 2.117188 25.992188 1.226563 26.882813 1.226563 27.984375 C 1.226563 29.082031 2.117188 29.976563 3.21875 29.976563 C 4.316406 29.976563 5.210938 29.082031 5.210938 27.984375 Z M 5.210938 27.984375 "/>
<path style="fill:none;stroke-width:0.19925;stroke-linecap:butt;stroke-linejoin:miter;stroke:rgb(0%,0%,0%);stroke-opacity:1;stroke-miterlimit:10;" d="M -14.174398 -24.55098 L 14.171557 -24.55098 L 14.171557 24.548128 Z M -14.174398 -24.55098 " transform="matrix(1.00006,0,0,-1.00005,31.565874,27.982949)"/>
<path style=" stroke:none;fill-rule:nonzero;fill:rgb(0%,0%,0%);fill-opacity:1;" d="M 19.382813 52.535156 C 19.382813 51.433594 18.492188 50.539063 17.390625 50.539063 C 16.292969 50.539063 15.398438 51.433594 15.398438 52.535156 C 15.398438 53.632813 16.292969 54.527344 17.390625 54.527344 C 18.492188 54.527344 19.382813 53.632813 19.382813 52.535156 Z M 19.382813 52.535156 "/>
<path style="fill:none;stroke-width:0.19925;stroke-linecap:butt;stroke-linejoin:miter;stroke:rgb(0%,0%,0%);stroke-opacity:1;stroke-miterlimit:10;" d="M 14.171557 -24.55098 L 28.346488 -0.00142573 L -14.174398 24.548128 Z M 14.171557 -24.55098 " transform="matrix(1.00006,0,0,-1.00005,31.565874,27.982949)"/>
<path style=" stroke:none;fill-rule:nonzero;fill:rgb(0%,0%,0%);fill-opacity:1;" d="M 47.734375 52.535156 C 47.734375 51.433594 46.839844 50.539063 45.738281 50.539063 C 44.640625 50.539063 43.746094 51.433594 43.746094 52.535156 C 43.746094 53.632813 44.640625 54.527344 45.738281 54.527344 C 46.839844 54.527344 47.734375 53.632813 47.734375 52.535156 Z M 47.734375 52.535156 "/>
<path style="fill:none;stroke-width:0.19925;stroke-linecap:butt;stroke-linejoin:miter;stroke:rgb(0%,0%,0%);stroke-opacity:1;stroke-miterlimit:10;" d="M 28.346488 -0.00142573 L 14.171557 24.548128 L -28.345423 -0.00142573 Z M 28.346488 -0.00142573 " transform="matrix(1.00006,0,0,-1.00005,31.565874,27.982949)"/>
<path style=" stroke:none;fill-rule:nonzero;fill:rgb(0%,0%,0%);fill-opacity:1;" d="M 61.90625 27.984375 C 61.90625 26.882813 61.015625 25.992188 59.914063 25.992188 C 58.8125 25.992188 57.921875 26.882813 57.921875 27.984375 C 57.921875 29.082031 58.8125 29.976563 59.914063 29.976563 C 61.015625 29.976563 61.90625 29.082031 61.90625 27.984375 Z M 61.90625 27.984375 "/>
<path style="fill:none;stroke-width:1.19553;stroke-linecap:butt;stroke-linejoin:miter;stroke:rgb(0%,0%,0%);stroke-opacity:1;stroke-miterlimit:10;" d="M 28.346488 -0.00142573 L 14.171557 24.548128 L -28.345423 -0.00142573 L -14.174398 -24.55098 L 28.346488 -0.00142573 L -28.345423 -0.00142573 M 14.171557 24.548128 L -14.174398 -24.55098 " transform="matrix(1.00006,0,0,-1.00005,31.565874,27.982949)"/>
</g>
</svg>
