<?xml version="1.0" encoding="UTF-8"?>
<svg xmlns="http://www.w3.org/2000/svg" xmlns:xlink="http://www.w3.org/1999/xlink" width="92pt" height="52pt" viewBox="0 0 92 52" version="1.1">
<g id="surface1">
<path style="fill:none;stroke-width:0.3985;stroke-linecap:butt;stroke-linejoin:miter;stroke:rgb(0%,0%,0%);stroke-opacity:1;stroke-miterlimit:10;" d="M -42.519517 -0.000187891 L -21.259074 45.356919 L 0.00136915 -0.000187891 L 21.261812 45.356919 L 42.518349 -0.000187891 L -21.259074 45.356919 M 21.261812 45.356919 L -42.519517 -0.000187891 " transform="matrix(1.00006,0,0,-1.00005,45.744725,48.992)"/>
<path style=" stroke:none;fill-rule:nonzero;fill:rgb(0%,0%,0%);fill-opacity:1;" d="M 5.214844 48.992188 C 5.214844 47.890625 4.324219 47 3.222656 47 C 2.121094 47 1.230469 47.890625 1.230469 48.992188 C 1.230469 50.09375 2.121094 50.984375 3.222656 50.984375 C 4.324219 50.984375 5.214844 50.09375 5.214844 48.992188 Z M 5.214844 48.992188 "/>
<path style=" stroke:none;fill-rule:nonzero;fill:rgb(0%,0%,0%);fill-opacity:1;" d="M 26.476563 3.632813 C 26.476563 2.535156 25.582031 1.640625 24.484375 1.640625 C 23.382813 1.640625 22.492188 2.535156 22.492188 3.632813 C 22.492188 4.734375 23.382813 5.628906 24.484375 5.628906 C 25.582031 5.628906 26.476563 4.734375 26.476563 3.632813 Z M 26.476563 3.632813 "/>
<path style=" stroke:none;fill-rule:nonzero;fill:rgb(0%,0%,0%);fill-opacity:1;" d="M 47.738281 48.992188 C 47.738281 47.890625 46.84375 47 45.746094 47 C 44.644531 47 43.753906 47.890625 43.753906 48.992188 C 43.753906 50.09375 44.644531 50.984375 45.746094 50.984375 C 46.84375 50.984375 47.738281 50.09375 47.738281 48.992188 Z M 47.738281 48.992188 "/>
<path style=" stroke:none;fill-rule:nonzero;fill:rgb(0%,0%,0%);fill-opacity:1;" d="M 69 3.632813 C 69 2.535156 68.105469 1.640625 67.007813 1.640625 C 65.90625 1.640625 65.011719 2.535156 65.011719 3.632813 C 65.011719 4.734375 65.90625 5.628906 67.007813 5.628906 C 68.105469 5.628906 69 4.734375 69 3.632813 Z M 69 3.632813 "/>
<path style=" stroke:none;fill-rule:nonzero;fill:rgb(0%,0%,0%);fill-opacity:1;" d="M 90.261719 48.992188 C 90.261719 47.890625 89.367188 47 88.265625 47 C 87.167969 47 86.273438 47.890625 86.273438 48.992188 C 86.273438 50.09375 87.167969 50.984375 88.265625 50.984375 C 89.367188 50.984375 90.261719 50.09375 90.261719 48.992188 Z M 90.261719 48.992188 "/>
</g>
</svg>
