<?xml version="1.0" encoding="UTF-8"?>
<svg xmlns="http://www.w3.org/2000/svg" xmlns:xlink="http://www.w3.org/1999/xlink" width="120pt" height="47pt" viewBox="0 0 120 47" version="1.1">
<g id="surface1">
<path style="fill:none;stroke-width:0.3985;stroke-linecap:butt;stroke-linejoin:miter;stroke:rgb(0%,0%,0%);stroke-opacity:1;stroke-miterlimit:10;" d="M -56.691837 -0.00128289 L 56.695387 -0.00128289 L -28.345031 39.685027 L 28.348581 39.685027 L 0.00177515 -0.00128289 L -28.345031 39.685027 M 28.348581 39.685027 L -56.691837 -0.00128289 " transform="matrix(1.00003,0,0,-1.00003,59.912287,43.31903)"/>
<path style=" stroke:none;fill-rule:nonzero;fill:rgb(0%,0%,0%);fill-opacity:1;" d="M 5.210938 43.320313 C 5.210938 42.21875 4.316406 41.328125 3.21875 41.328125 C 2.117188 41.328125 1.222656 42.21875 1.222656 43.320313 C 1.222656 44.417969 2.117188 45.3125 3.21875 45.3125 C 4.316406 45.3125 5.210938 44.417969 5.210938 43.320313 Z M 5.210938 43.320313 "/>
<path style=" stroke:none;fill-rule:nonzero;fill:rgb(0%,0%,0%);fill-opacity:1;" d="M 61.90625 43.320313 C 61.90625 42.21875 61.011719 41.328125 59.914063 41.328125 C 58.8125 41.328125 57.917969 42.21875 57.917969 43.320313 C 57.917969 44.417969 58.8125 45.3125 59.914063 45.3125 C 61.011719 45.3125 61.90625 44.417969 61.90625 43.320313 Z M 61.90625 43.320313 "/>
<path style=" stroke:none;fill-rule:nonzero;fill:rgb(0%,0%,0%);fill-opacity:1;" d="M 118.601563 43.320313 C 118.601563 42.21875 117.707031 41.328125 116.609375 41.328125 C 115.507813 41.328125 114.613281 42.21875 114.613281 43.320313 C 114.613281 44.417969 115.507813 45.3125 116.609375 45.3125 C 117.707031 45.3125 118.601563 44.417969 118.601563 43.320313 Z M 118.601563 43.320313 "/>
<path style=" stroke:none;fill-rule:nonzero;fill:rgb(0%,0%,0%);fill-opacity:1;" d="M 33.558594 3.632813 C 33.558594 2.53125 32.664063 1.640625 31.566406 1.640625 C 30.464844 1.640625 29.570313 2.53125 29.570313 3.632813 C 29.570313 4.734375 30.464844 5.625 31.566406 5.625 C 32.664063 5.625 33.558594 4.734375 33.558594 3.632813 Z M 33.558594 3.632813 "/>
<path style=" stroke:none;fill-rule:nonzero;fill:rgb(0%,0%,0%);fill-opacity:1;" d="M 90.253906 3.632813 C 90.253906 2.53125 89.359375 1.640625 88.261719 1.640625 C 87.160156 1.640625 86.265625 2.53125 86.265625 3.632813 C 86.265625 4.734375 87.160156 5.625 88.261719 5.625 C 89.359375 5.625 90.253906 4.734375 90.253906 3.632813 Z M 90.253906 3.632813 "/>
</g>
</svg>
