<?xml version="1.0" encoding="UTF-8"?>
<svg xmlns="http://www.w3.org/2000/svg" xmlns:xlink="http://www.w3.org/1999/xlink" width="63pt" height="48pt" viewBox="0 0 63 48" version="1.1">
<g id="surface1">
<path style="fill:none;stroke-width:0.3985;stroke-linecap:butt;stroke-linejoin:miter;stroke:rgb(0%,0%,0%);stroke-opacity:1;stroke-miterlimit:10;" d="M -28.345423 -0.00096875 L -28.345423 28.346688 L 28.346488 28.346688 L 28.346488 -0.00096875 L 0.000532378 28.346688 L -28.345423 -0.00096875 " transform="matrix(1.00006,0,0,-1,31.565874,44.292)"/>
<path style=" stroke:none;fill-rule:nonzero;fill:rgb(0%,0%,0%);fill-opacity:1;" d="M 5.210938 44.292969 C 5.210938 43.191406 4.316406 42.300781 3.21875 42.300781 C 2.117188 42.300781 1.226563 43.191406 1.226563 44.292969 C 1.226563 45.390625 2.117188 46.285156 3.21875 46.285156 C 4.316406 46.285156 5.210938 45.390625 5.210938 44.292969 Z M 5.210938 44.292969 "/>
<path style=" stroke:none;fill-rule:nonzero;fill:rgb(0%,0%,0%);fill-opacity:1;" d="M 5.210938 15.945313 C 5.210938 14.84375 4.316406 13.953125 3.21875 13.953125 C 2.117188 13.953125 1.226563 14.84375 1.226563 15.945313 C 1.226563 17.046875 2.117188 17.9375 3.21875 17.9375 C 4.316406 17.9375 5.210938 17.046875 5.210938 15.945313 Z M 5.210938 15.945313 "/>
<path style=" stroke:none;fill-rule:nonzero;fill:rgb(0%,0%,0%);fill-opacity:1;" d="M 33.558594 15.945313 C 33.558594 14.84375 32.667969 13.953125 31.566406 13.953125 C 30.464844 13.953125 29.574219 14.84375 29.574219 15.945313 C 29.574219 17.046875 30.464844 17.9375 31.566406 17.9375 C 32.667969 17.9375 33.558594 17.046875 33.558594 15.945313 Z M 33.558594 15.945313 "/>
<path style=" stroke:none;fill-rule:nonzero;fill:rgb(0%,0%,0%);fill-opacity:1;" d="M 61.90625 15.945313 C 61.90625 14.84375 61.015625 13.953125 59.914063 13.953125 C 58.8125 13.953125 57.921875 14.84375 57.921875 15.945313 C 57.921875 17.046875 58.8125 17.9375 59.914063 17.9375 C 61.015625 17.9375 61.90625 17.046875 61.90625 15.945313 Z M 61.90625 15.945313 "/>
<path style=" stroke:none;fill-rule:nonzero;fill:rgb(0%,0%,0%);fill-opacity:1;" d="M 61.90625 44.292969 C 61.90625 43.191406 61.015625 42.300781 59.914063 42.300781 C 58.8125 42.300781 57.921875 43.191406 57.921875 44.292969 C 57.921875 45.390625 58.8125 46.285156 59.914063 46.285156 C 61.015625 46.285156 61.90625 45.390625 61.90625 44.292969 Z M 61.90625 44.292969 "/>
<path style="fill:none;stroke-width:0.3985;stroke-linecap:butt;stroke-linejoin:miter;stroke:rgb(0%,0%,0%);stroke-opacity:1;stroke-miterlimit:10;" d="M -28.345423 28.346688 C -17.291399 47.495125 17.292464 47.495125 28.346488 28.346688 " transform="matrix(1.00006,0,0,-1,31.565874,44.292)"/>
</g>
</svg>
