<?xml version="1.0" encoding="UTF-8"?>
<svg xmlns="http://www.w3.org/2000/svg" xmlns:xlink="http://www.w3.org/1999/xlink" width="61pt" height="58pt" viewBox="0 0 61 58" version="1.1">
<g id="surface1">
<path style="fill:none;stroke-width:0.3985;stroke-linecap:butt;stroke-linejoin:miter;stroke:rgb(0%,0%,0%);stroke-opacity:1;stroke-miterlimit:10;" d="M 26.959916 8.760677 L -0.00048226 28.346027 L -26.960881 8.760677 L -16.660305 -22.933685 L 16.663247 -22.933685 Z M 26.959916 8.760677 " transform="matrix(1.00002,0,0,-1.00003,30.176264,31.979689)"/>
<path style="fill:none;stroke-width:0.3985;stroke-linecap:butt;stroke-linejoin:miter;stroke:rgb(0%,0%,0%);stroke-opacity:1;stroke-miterlimit:10;" d="M 13.479717 4.377996 L -13.480681 4.377996 L 8.331382 -11.465279 L -0.00048226 14.174577 L -8.332347 -11.465279 Z M 13.479717 4.377996 " transform="matrix(1.00002,0,0,-1.00003,30.176264,31.979689)"/>
<path style="fill:none;stroke-width:0.3985;stroke-linecap:butt;stroke-linejoin:miter;stroke:rgb(0%,0%,0%);stroke-opacity:1;stroke-miterlimit:10;" d="M 13.479717 4.377996 L 26.959916 8.760677 " transform="matrix(1.00002,0,0,-1.00003,30.176264,31.979689)"/>
<path style=" stroke:none;fill-rule:nonzero;fill:rgb(0%,0%,0%);fill-opacity:1;" d="M 45.648438 27.601563 C 45.648438 26.5 44.757813 25.605469 43.65625 25.605469 C 42.554688 25.605469 41.664063 26.5 41.664063 27.601563 C 41.664063 28.699219 42.554688 29.59375 43.65625 29.59375 C 44.757813 29.59375 45.648438 28.699219 45.648438 27.601563 Z M 45.648438 27.601563 "/>
<path style=" stroke:none;fill-rule:nonzero;fill:rgb(0%,0%,0%);fill-opacity:1;" d="M 59.128906 23.21875 C 59.128906 22.121094 58.238281 21.226563 57.136719 21.226563 C 56.035156 21.226563 55.144531 22.121094 55.144531 23.21875 C 55.144531 24.320313 56.035156 25.210938 57.136719 25.210938 C 58.238281 25.210938 59.128906 24.320313 59.128906 23.21875 Z M 59.128906 23.21875 "/>
<path style="fill:none;stroke-width:0.3985;stroke-linecap:butt;stroke-linejoin:miter;stroke:rgb(0%,0%,0%);stroke-opacity:1;stroke-miterlimit:10;" d="M -0.00048226 14.174577 L -0.00048226 28.346027 " transform="matrix(1.00002,0,0,-1.00003,30.176264,31.979689)"/>
<path style=" stroke:none;fill-rule:nonzero;fill:rgb(0%,0%,0%);fill-opacity:1;" d="M 32.167969 17.804688 C 32.167969 16.707031 31.277344 15.8125 30.175781 15.8125 C 29.074219 15.8125 28.183594 16.707031 28.183594 17.804688 C 28.183594 18.90625 29.074219 19.796875 30.175781 19.796875 C 31.277344 19.796875 32.167969 18.90625 32.167969 17.804688 Z M 32.167969 17.804688 "/>
<path style=" stroke:none;fill-rule:nonzero;fill:rgb(0%,0%,0%);fill-opacity:1;" d="M 32.167969 3.632813 C 32.167969 2.53125 31.277344 1.640625 30.175781 1.640625 C 29.074219 1.640625 28.183594 2.53125 28.183594 3.632813 C 28.183594 4.734375 29.074219 5.625 30.175781 5.625 C 31.277344 5.625 32.167969 4.734375 32.167969 3.632813 Z M 32.167969 3.632813 "/>
<path style="fill:none;stroke-width:0.3985;stroke-linecap:butt;stroke-linejoin:miter;stroke:rgb(0%,0%,0%);stroke-opacity:1;stroke-miterlimit:10;" d="M -13.480681 4.377996 L -26.960881 8.760677 " transform="matrix(1.00002,0,0,-1.00003,30.176264,31.979689)"/>
<path style=" stroke:none;fill-rule:nonzero;fill:rgb(0%,0%,0%);fill-opacity:1;" d="M 18.6875 27.601563 C 18.6875 26.5 17.796875 25.605469 16.695313 25.605469 C 15.59375 25.605469 14.703125 26.5 14.703125 27.601563 C 14.703125 28.699219 15.59375 29.59375 16.695313 29.59375 C 17.796875 29.59375 18.6875 28.699219 18.6875 27.601563 Z M 18.6875 27.601563 "/>
<path style=" stroke:none;fill-rule:nonzero;fill:rgb(0%,0%,0%);fill-opacity:1;" d="M 5.207031 23.21875 C 5.207031 22.121094 4.316406 21.226563 3.214844 21.226563 C 2.117188 21.226563 1.222656 22.121094 1.222656 23.21875 C 1.222656 24.320313 2.117188 25.210938 3.214844 25.210938 C 4.316406 25.210938 5.207031 24.320313 5.207031 23.21875 Z M 5.207031 23.21875 "/>
<path style="fill:none;stroke-width:0.3985;stroke-linecap:butt;stroke-linejoin:miter;stroke:rgb(0%,0%,0%);stroke-opacity:1;stroke-miterlimit:10;" d="M -8.332347 -11.465279 L -16.660305 -22.933685 " transform="matrix(1.00002,0,0,-1.00003,30.176264,31.979689)"/>
<path style=" stroke:none;fill-rule:nonzero;fill:rgb(0%,0%,0%);fill-opacity:1;" d="M 23.835938 43.445313 C 23.835938 42.347656 22.945313 41.453125 21.84375 41.453125 C 20.746094 41.453125 19.851563 42.347656 19.851563 43.445313 C 19.851563 44.546875 20.746094 45.4375 21.84375 45.4375 C 22.945313 45.4375 23.835938 44.546875 23.835938 43.445313 Z M 23.835938 43.445313 "/>
<path style=" stroke:none;fill-rule:nonzero;fill:rgb(0%,0%,0%);fill-opacity:1;" d="M 15.507813 54.914063 C 15.507813 53.8125 14.613281 52.921875 13.515625 52.921875 C 12.414063 52.921875 11.523438 53.8125 11.523438 54.914063 C 11.523438 56.015625 12.414063 56.90625 13.515625 56.90625 C 14.613281 56.90625 15.507813 56.015625 15.507813 54.914063 Z M 15.507813 54.914063 "/>
<path style="fill:none;stroke-width:0.3985;stroke-linecap:butt;stroke-linejoin:miter;stroke:rgb(0%,0%,0%);stroke-opacity:1;stroke-miterlimit:10;" d="M 8.331382 -11.465279 L 16.663247 -22.933685 " transform="matrix(1.00002,0,0,-1.00003,30.176264,31.979689)"/>
<path style=" stroke:none;fill-rule:nonzero;fill:rgb(0%,0%,0%);fill-opacity:1;" d="M 40.5 43.445313 C 40.5 42.347656 39.609375 41.453125 38.507813 41.453125 C 37.40625 41.453125 36.515625 42.347656 36.515625 43.445313 C 36.515625 44.546875 37.40625 45.4375 38.507813 45.4375 C 39.609375 45.4375 40.5 44.546875 40.5 43.445313 Z M 40.5 43.445313 "/>
<path style=" stroke:none;fill-rule:nonzero;fill:rgb(0%,0%,0%);fill-opacity:1;" d="M 48.832031 54.914063 C 48.832031 53.8125 47.9375 52.921875 46.839844 52.921875 C 45.738281 52.921875 44.847656 53.8125 44.847656 54.914063 C 44.847656 56.015625 45.738281 56.90625 46.839844 56.90625 C 47.9375 56.90625 48.832031 56.015625 48.832031 54.914063 Z M 48.832031 54.914063 "/>
</g>
</svg>
