<?xml version="1.0" encoding="UTF-8"?>
<svg xmlns="http://www.w3.org/2000/svg" xmlns:xlink="http://www.w3.org/1999/xlink" width="81pt" height="70pt" viewBox="0 0 81 70" version="1.1">
<g id="surface1">
<path style="fill:none;stroke-width:1.79329;stroke-linecap:butt;stroke-linejoin:miter;stroke:rgb(0%,0%,0%);stroke-opacity:1;stroke-miterlimit:10;" d="M 0.00183843 -22.677438 L -39.277055 -22.677438 L -19.637608 11.338187 L 0.00183843 -22.677438 L 39.276826 -22.677438 L 19.641285 11.338187 L -19.637608 11.338187 L 0.00183843 45.353812 L 19.641285 11.338187 L 0.00183843 -22.677438 " transform="matrix(1.00006,0,0,-1,40.568474,45.346)"/>
<path style=" stroke:none;fill-rule:nonzero;fill:rgb(100%,100%,100%);fill-opacity:1;" d="M 42.960938 68.023438 C 42.960938 66.703125 41.890625 65.632813 40.570313 65.632813 C 39.246094 65.632813 38.175781 66.703125 38.175781 68.023438 C 38.175781 69.34375 39.246094 70.414063 40.570313 70.414063 C 41.890625 70.414063 42.960938 69.34375 42.960938 68.023438 Z M 42.960938 68.023438 "/>
<path style=" stroke:none;fill-rule:nonzero;fill:rgb(100%,100%,100%);fill-opacity:1;" d="M 82.242188 68.023438 C 82.242188 66.703125 81.171875 65.632813 79.847656 65.632813 C 78.527344 65.632813 77.457031 66.703125 77.457031 68.023438 C 77.457031 69.34375 78.527344 70.414063 79.847656 70.414063 C 81.171875 70.414063 82.242188 69.34375 82.242188 68.023438 Z M 82.242188 68.023438 "/>
<path style=" stroke:none;fill-rule:nonzero;fill:rgb(100%,100%,100%);fill-opacity:1;" d="M 3.679688 68.023438 C 3.679688 66.703125 2.609375 65.632813 1.289063 65.632813 C -0.0351563 65.632813 -1.105469 66.703125 -1.105469 68.023438 C -1.105469 69.34375 -0.0351563 70.414063 1.289063 70.414063 C 2.609375 70.414063 3.679688 69.34375 3.679688 68.023438 Z M 3.679688 68.023438 "/>
<path style=" stroke:none;fill-rule:nonzero;fill:rgb(100%,100%,100%);fill-opacity:1;" d="M 42.960938 -0.0078125 C 42.960938 -1.328125 41.890625 -2.398438 40.570313 -2.398438 C 39.246094 -2.398438 38.175781 -1.328125 38.175781 -0.0078125 C 38.175781 1.3125 39.246094 2.382813 40.570313 2.382813 C 41.890625 2.382813 42.960938 1.3125 42.960938 -0.0078125 Z M 42.960938 -0.0078125 "/>
<path style=" stroke:none;fill-rule:nonzero;fill:rgb(100%,100%,100%);fill-opacity:1;" d="M 62.601563 34.007813 C 62.601563 32.6875 61.53125 31.617188 60.210938 31.617188 C 58.886719 31.617188 57.816406 32.6875 57.816406 34.007813 C 57.816406 35.328125 58.886719 36.398438 60.210938 36.398438 C 61.53125 36.398438 62.601563 35.328125 62.601563 34.007813 Z M 62.601563 34.007813 "/>
<path style=" stroke:none;fill-rule:nonzero;fill:rgb(100%,100%,100%);fill-opacity:1;" d="M 23.320313 34.007813 C 23.320313 32.6875 22.25 31.617188 20.929688 31.617188 C 19.605469 31.617188 18.535156 32.6875 18.535156 34.007813 C 18.535156 35.328125 19.605469 36.398438 20.929688 36.398438 C 22.25 36.398438 23.320313 35.328125 23.320313 34.007813 Z M 23.320313 34.007813 "/>
</g>
</svg>
