<svg xmlns="http://www.w3.org/2000/svg" xmlns:xlink="http://www.w3.org/1999/xlink" xmlns:inkscape="http://www.inkscape.org/namespaces/inkscape" version="1.1" width="149" height="125" viewBox="0 0 149 125">
<defs>
<path id="font_1_69" d="M.9339905 0V.04399109C.8600006 .04399109 .84399417 .050994874 .80799868 .09196472L.5279999 .41375733 .7539978 .5856476C.7849884 .6086273 .83999636 .63861086 .9169922 .63861086V.6826172C.8779907 .6796112 .8600006 .6786041 .8149872 .6786041L.6689911 .6826172V.63861086C.6759949 .63861086 .70199587 .63661196 .70199587 .614624 .70199587 .6036377 .69599917 .5936432 .6799927 .5816498L.2999878 .2938385V.597641C.2999878 .62861636 .2999878 .63861086 .3809967 .63861086H.41099549V.6826172L.24699402 .6786041 .08299255 .6826172V.63861086H.11299133C.19400025 .63861086 .19400025 .62861636 .19400025 .597641V.08496094C.19400025 .053985597 .19400025 .04399109 .11299133 .04399109H.08299255V0L.24699402 .0039978029 .41099549 0V.04399109H.3809967C.2999878 .04399109 .2999878 .053985597 .2999878 .08496094V.24085999L.45199586 .35679627 .6759949 .09895325C.6819916 .09295654 .69299319 .07896423 .69299319 .067977908 .69299319 .04399109 .6599884 .04399109 .6419983 .04399109V0L.8029938 .0039978029C.84999087 .0039978029 .8849945 .0039978029 .9339905 0Z"/>
<path id="font_1_90" d="M.93699648-.0073394777C.93699648-.00033569337 .93699648 .015655518 .91999819 .015655518 .91600039 .015655518 .9049988 .012649536 .9039917 .00065612795 .8969879-.0773468 .8019867-.0773468 .7939911-.0773468 .769989-.0773468 .7319946-.0753479 .68099978 .007659912 .8109894 .05557251 .9299927 .17866516 .9299927 .33880616 .9299927 .53596499 .7489929 .7050781 .5139923 .7050781 .27598573 .7050781 .09700012 .53396609 .09700012 .33880616 .09700012 .14263916 .27999879-.022460938 .5130005-.022460938 .5279999-.02192688 .57299807-.02192688 .6279907-.0078125 .6589966-.111343387 .69200137-.19433594 .7849884-.19433594 .8889923-.19433594 .93699648-.082336429 .93699648-.0068206789V-.0073394777M.81700137 .33859254C.81700137 .1933899 .7489929 .09338379 .6559906 .047424318 .621994 .100372318 .58200076 .15234375 .5139923 .15234375 .45700074 .15234375 .4099884 .11634827 .4099884 .06542969 .4099884 .047424318 .4169922 .033416749 .41999818 .028182984 .31399537 .059417726 .20999146 .15734864 .20999146 .33859254 .20999146 .56192019 .36299134 .6690674 .5130005 .6690674 .6669922 .66833499 .81700137 .55934146 .81700137 .33833314V.33859254M.6139984 .029418946C.56599429 .014526367 .5299988 .013534546 .5139923 .013534546 .45399476 .013534546 .44299317 .05041504 .44299317 .06542969 .44299317 .09736633 .47599793 .11933899 .5139923 .11933899 .5629883 .11933899 .58999636 .087387088 .6139984 .029418946Z"/>
<path id="font_1_49" d="M.83599856 .27101136H.7939911C.7649994 .10699463 .7259979 .04399109 .5349884 .04399109H.34899903C.2999878 .04399109 .2999878 .050994874 .2999878 .08200073V.3300171H.41600038C.5159912 .3300171 .5439911 .30900575 .5439911 .2130127H.58599856V.49090577H.5439911C.5439911 .394989 .5159912 .37402345 .41600038 .37402345H.2999878V.59680178C.2999878 .62776187 .2999878 .6347656 .34899903 .6347656H.526001C.69299319 .6347656 .73799136 .59477236 .7599945 .44082643H.8019867L.7689972 .6787567H.08299255V.6347656H.11299133C.19400025 .6347656 .19400025 .62475588 .19400025 .59376528V.0849762C.19400025 .053985597 .19400025 .04399109 .11299133 .04399109H.08299255V0H.7859955L.83599856 .27101136Z"/>
<path id="font_1_27" d="M.9089966 0V.04399109H.8829956C.82099917 .04399109 .80599978 .049987794 .7939911 .07698059L.5249939 .68981936C.5169983 .70780947 .5139923 .7158203 .48999024 .7158203 .47200013 .7158203 .46398927 .71180728 .45498658 .69181826L.19699097 .10298157C.1749878 .052993776 .12098694 .04399109 .070999149 .04399109V0C.10798645 .0029907227 .1499939 .0039978029 .18699646 .0039978029 .19999695 .0039978029 .2709961 .0029907227 .31698609 0V.04399109C.26098634 .043945314 .24099732 .06893921 .24099732 .0879364 .24099732 .09391785 .24299622 .09692383 .24598694 .104904178L.2979889 .22265625H.61898806L.6799927 .08293152C.6859894 .07093811 .6859894 .06793213 .6859894 .06793213 .6859894 .043945314 .6289978 .043945314 .59999087 .043945314V0L.7619934 .0039978029 .9089966 0M.59999087 .26664735H.31698609L.45799256 .58865359 .59999087 .26664735Z"/>
<path id="font_1_42" d="M.8600006 .23370362C.8600006 .24972534 .85598757 .25473023 .83898928 .25473023 .8279877 .25473023 .81900027 .25473023 .81799319 .23771668 .80999758 .08558655 .6649933 .021530152 .5479889 .021530152 .4059906 .021530152 .21398926 .099594119 .21398926 .34179688 .21398926 .58000186 .4019928 .6610718 .5469971 .6610718 .6369934 .6610718 .7839966 .61302188 .81599429 .42686463 .81799319 .41485597 .8299866 .41485597 .83799746 .41485597 .8600006 .41485597 .8600006 .42185975 .8600006 .44288636V.677063C.8600006 .69407656 .8600006 .7050781 .84399417 .7050781 .83399966 .7050781 .83099368 .70106509 .82499697 .69306948L.7659912 .61602786C.7049866 .66807559 .6279907 .7050781 .5289917 .7050781 .2869873 .7050781 .09700012 .53796389 .09700012 .34179688 .09700012 .14363098 .2869873-.022460938 .5299988-.022460938 .72299197-.022460938 .8600006 .1006012 .8600006 .23370362Z"/>
<path id="font_1_34" d="M.83699038 .184906C.83699038 .25585938 .7649994 .33680726 .6029968 .3577881 .70399478 .3737793 .8019867 .43174745 .8019867 .51168826 .8019867 .6046295 .6779938 .6826172 .5289917 .6826172H.08699036V.63861086H.116989139C.19799805 .63861086 .19799805 .62861636 .19799805 .597641V.08496094C.19799805 .053985597 .19799805 .04399109 .116989139 .04399109H.08699036V0H.56199648C.71598818-.0001373291 .83699038 .085861209 .83699038 .18486023V.184906M.69299319 .5107269C.69299319 .43780519 .6049957 .3718567 .49499513 .3718567H.29599V.600647C.29599 .6316223 .29599 .63861086 .34498597 .63861086H.5219879C.6289978 .638855 .69299319 .5728607 .69299319 .51086428V.5107269M.723999 .18592835C.723999 .110961917 .6409912 .04399109 .5239868 .04399109H.34498597C.29599 .04399109 .29599 .050994874 .29599 .081970218V.3388672H.5319977C.66600039 .33898927 .723999 .25099183 .723999 .18598938V.18592835Z"/>
<path id="font_1_46" d="M.9059906 .33580018C.9059906 .5226898 .7389984 .6826172 .5249939 .6826172H.084991458V.63861086C.10899353 .63861086 .13899231 .63861086 .16099549 .63661196 .19599915 .6336212 .19599915 .6206207 .19599915 .5956421V.08695984C.19599915 .0619812 .19599915 .04899597 .16099549 .04598999 .13899231 .04399109 .10699463 .04399109 .084991458 .04399109V0H.5249939C.7369995 0 .9059906 .15092469 .9059906 .33580018M.79299929 .33580018C.79299929 .24786377 .772995 .17390442 .71598818 .11894226 .68299868 .08796692 .6119995 .04399109 .49598695 .04399109H.34899903C.2979889 .04399109 .2979889 .049987794 .2979889 .083969119V.5986328C.2979889 .63261416 .2979889 .63861086 .34899903 .63861086H.49598695C.61499026 .63861086 .6859894 .5886383 .71299746 .56266787 .75 .52568057 .79299929 .46672059 .79299929 .33580018Z"/>
<path id="font_1_65" d="M.4169922 0V.04399109H.38398744C.2999878 .04399109 .2999878 .053985597 .2999878 .08496094V.597641C.2999878 .62861636 .2999878 .63861086 .38398744 .63861086H.4169922V.6826172L.24699402 .6786041 .07699585 .6826172V.63861086H.10998535C.19400025 .63861086 .19400025 .62861636 .19400025 .597641V.08496094C.19400025 .053985597 .19400025 .04399109 .10998535 .04399109H.07699585V0L.24699402 .0039978029 .4169922 0Z"/>
<path id="font_1_67" d="M.59599307 .6386719V.68266299C.5479889 .679657 .5 .67866519 .45199586 .67866519 .3959961 .67866519 .32199098 .67866519 .2669983 .68266299V.6386719H.31098939C.41099549 .6386719 .41099549 .6286621 .41099549 .5966644V.1496582C.41099549 .056732179 .34700013 .010528564 .28799439 .010528564 .2689972 .010528564 .20498657 .014556885 .16799927 .052734376 .20098877 .05873108 .21899414 .082733158 .21899414 .113723758 .21899414 .14672852 .19499207 .1747284 .1579895 .1747284 .12199402 .1747284 .09599304 .15072632 .09599304 .11172485 .09599304 .03062439 .18299866-.022460938 .2899933-.022460938 .39898683-.022369385 .5130005 .038619996 .5130005 .14962769V.5986328C.5130005 .6296234 .5130005 .6386261 .5779877 .6386261L.59599307 .6386719Z"/>
<path id="font_1_54" d="M.7839966 .44114686 .7509918 .6787567H.08299255V.6347656H.11299133C.19400025 .6347656 .19400025 .6247711 .19400025 .59384158V.08503723C.19400025 .054000856 .19400025 .04399109 .11299133 .04399109H.08299255V0L.2519989 .0039978029C.30899049 .0039978029 .3829956 .0039978029 .43899537 0V.04399109H.3959961C.2999878 .04399109 .2999878 .054000856 .2999878 .08604431V.31829835H.4119873C.5119934 .31829835 .5369873 .29527284 .5369873 .20117188H.57899478V.47906495H.5369873C.5369873 .3852539 .5119934 .3623047 .4119873 .3623047H.2999878V.5968323C.2999878 .6277771 .2999878 .6347656 .34899903 .6347656H.5149994C.673996 .6347656 .7220001 .59584048 .74198916 .44114686H.7839966Z"/>
<path id="font_1_58" d="M.94599917 .23339844V.27738954L.79499819 .27339173C.7409973 .27339173 .6469879 .27339173 .5970001 .27738954V.23339844H.6469879C.7529907 .23339844 .7529907 .22239685 .7529907 .19142151V.12945557C.7529907 .10647583 .7529907 .06550598 .68499758 .040512086 .6349945 .021530152 .57398989 .021530152 .5609894 .021530152 .3929901 .021530152 .21398926 .111465457 .21398926 .34150697 .21398926 .57992556 .40098573 .6610718 .54599 .6610718 .6359863 .6610718 .7829895 .61198428 .8149872 .426651 .81700137 .41462709 .82899478 .41462709 .83699038 .41462709 .85899356 .41462709 .85899356 .42164613 .85899356 .442688V.677063C.85899356 .69407656 .85899356 .7050781 .84298709 .7050781 .83299258 .7050781 .8299866 .70106509 .82398989 .69306948L.7649994 .6159973C.71798709 .6550598 .644989 .7050781 .5279999 .7050781 .2869873 .7050781 .09700012 .53785708 .09700012 .34150697 .09700012 .15245056 .2749939-.022460938 .5339966-.022460938 .57099917-.022460938 .6239929-.020462037 .6749878-.0064697267 .7489929 .013534546 .7749939 .04951477 .7779999 .054504396 .8019867 .023529053 .83699038-.00047302247 .8450012-.00047302247 .85899356-.00047302247 .85899356 .012527466 .85899356 .027526856V.19342041C.85899356 .22439575 .85899356 .23339844 .9259949 .23339844H.94599917Z"/>
<path id="font_1_62" d="M.8969879 0V.04399109H.86698916C.7859955 .04399109 .7859955 .053985597 .7859955 .084991458V.59765627C.7859955 .62861636 .7859955 .63861086 .86698916 .63861086H.8969879V.6826172L.73298647 .6786041 .56900027 .6826172V.63861086H.598999C.6799927 .63861086 .6799927 .62861636 .6799927 .59765627V.37695313H.2999878V.59765627C.2999878 .62861636 .2999878 .63861086 .3809967 .63861086H.41099549V.6826172L.24699402 .6786041 .08299255 .6826172V.63861086H.11299133C.19400025 .63861086 .19400025 .62861636 .19400025 .59765627V.084991458C.19400025 .053985597 .19400025 .04399109 .11299133 .04399109H.08299255V0L.24699402 .0039978029 .41099549 0V.04399109H.3809967C.2999878 .04399109 .2999878 .053985597 .2999878 .084991458V.33294679H.6799927V.084991458C.6799927 .053985597 .6799927 .04399109 .598999 .04399109H.56900027V0L.73298647 .0039978029 .8969879 0Z"/>
</defs>
<path transform="matrix(1.00005,0,0,-1.00008,74.83098,62.19302)" stroke-width=".3985" stroke-linecap="butt" stroke-miterlimit="10" stroke-linejoin="miter" fill="none" stroke="#000000" d="M0 51.02368V-51.02368L48.52686-15.76736H-48.52686V15.76736M-29.99088-41.27922V41.27922L48.52686 15.76736 0-51.02368M48.52686 15.76736-29.99088-41.27922 0 51.02368-29.99088 41.27922"/>
<path transform="matrix(1.00005,0,0,-1.00008,74.83098,62.19302)" stroke-width=".3985" stroke-linecap="butt" stroke-miterlimit="10" stroke-linejoin="miter" fill="none" stroke="#000000" d="M0 51.02368 48.52686 15.76736 29.99088 41.27922 48.52686-15.76736 29.99088-41.27922-48.52686 15.76736-29.99088 41.27922 0-51.02368-29.99088-41.27922M-48.52686-15.76736"/>
<path transform="matrix(1.00005,0,0,-1.00008,74.83098,62.19302)" d="M1.99255 51.02368C1.99255 52.12416 1.10046 53.01624 0 53.01624-1.10046 53.01624-1.99255 52.12416-1.99255 51.02368-1.99255 49.92322-1.10046 49.03113 0 49.03113 1.10046 49.03113 1.99255 49.92322 1.99255 51.02368ZM0 51.02368"/>
<use data-text="K" xlink:href="#font_1_69" transform="matrix(4.981549,0,0,-4.9816987,65.14449,4.487404)"/>
<use data-text="Q" xlink:href="#font_1_90" transform="matrix(4.981549,0,0,-4.9816987,70.031398,4.487404)"/>
<use data-text="E" xlink:href="#font_1_49" transform="matrix(4.981549,0,0,-4.9816987,75.15243,4.487404)"/>
<use data-text="A" xlink:href="#font_1_27" transform="matrix(4.981549,0,0,-4.9816987,79.635829,4.487404)"/>
<path transform="matrix(1.00005,0,0,-1.00008,74.83098,62.19302)" d="M50.51941 15.76736C50.51941 16.86783 49.62732 17.75992 48.52686 17.75992 47.42638 17.75992 46.5343 16.86783 46.5343 15.76736 46.5343 14.66689 47.42638 13.77481 48.52686 13.77481 49.62732 13.77481 50.51941 14.66689 50.51941 15.76736ZM48.52686 15.76736"/>
<use data-text="K" xlink:href="#font_1_69" transform="matrix(4.981549,0,0,-4.9816987,129.07169,47.69686)"/>
<use data-text="Q" xlink:href="#font_1_90" transform="matrix(4.981549,0,0,-4.9816987,133.95859,47.69686)"/>
<use data-text="E" xlink:href="#font_1_49" transform="matrix(4.981549,0,0,-4.9816987,139.07962,47.69686)"/>
<use data-text="C" xlink:href="#font_1_42" transform="matrix(4.981549,0,0,-4.9816987,143.56302,47.69686)"/>
<path transform="matrix(1.00005,0,0,-1.00008,74.83098,62.19302)" d="M31.98343 41.27922C31.98343 42.37968 31.09135 43.27177 29.99088 43.27177 28.89041 43.27177 27.99832 42.37968 27.99832 41.27922 27.99832 40.17874 28.89041 39.28667 29.99088 39.28667 31.09135 39.28667 31.98343 40.17874 31.98343 41.27922ZM29.99088 41.27922"/>
<use data-text="K" xlink:href="#font_1_69" transform="matrix(4.981549,0,0,-4.9816987,95.251,14.232182)"/>
<use data-text="Q" xlink:href="#font_1_90" transform="matrix(4.981549,0,0,-4.9816987,100.1379,14.232182)"/>
<use data-text="E" xlink:href="#font_1_49" transform="matrix(4.981549,0,0,-4.9816987,105.258937,14.232182)"/>
<use data-text="B" xlink:href="#font_1_34" transform="matrix(4.981549,0,0,-4.9816987,109.74233,14.232182)"/>
<path transform="matrix(1.00005,0,0,-1.00008,74.83098,62.19302)" d="M50.51941-15.76736C50.51941-14.66689 49.62732-13.77481 48.52686-13.77481 47.42638-13.77481 46.5343-14.66689 46.5343-15.76736 46.5343-16.86783 47.42638-17.75992 48.52686-17.75992 49.62732-17.75992 50.51941-16.86783 50.51941-15.76736ZM48.52686-15.76736"/>
<use data-text="K" xlink:href="#font_1_69" transform="matrix(4.981549,0,0,-4.9816987,129.07169,79.23438)"/>
<use data-text="Q" xlink:href="#font_1_90" transform="matrix(4.981549,0,0,-4.9816987,133.95859,79.23438)"/>
<use data-text="E" xlink:href="#font_1_49" transform="matrix(4.981549,0,0,-4.9816987,139.07962,79.23438)"/>
<use data-text="D" xlink:href="#font_1_46" transform="matrix(4.981549,0,0,-4.9816987,143.56302,79.23438)"/>
<path transform="matrix(1.00005,0,0,-1.00008,74.83098,62.19302)" d="M31.98343-41.27922C31.98343-40.17874 31.09135-39.28667 29.99088-39.28667 28.89041-39.28667 27.99832-40.17874 27.99832-41.27922 27.99832-42.37968 28.89041-43.27177 29.99088-43.27177 31.09135-43.27177 31.98343-42.37968 31.98343-41.27922ZM29.99088-41.27922"/>
<use data-text="K" xlink:href="#font_1_69" transform="matrix(4.981549,0,0,-4.9816987,95.338008,112.70006)"/>
<use data-text="Q" xlink:href="#font_1_90" transform="matrix(4.981549,0,0,-4.9816987,100.22491,112.70006)"/>
<use data-text="E" xlink:href="#font_1_49" transform="matrix(4.981549,0,0,-4.9816987,105.34594,112.70006)"/>
<use data-text="E" xlink:href="#font_1_49" transform="matrix(4.981549,0,0,-4.9816987,109.82934,112.70006)"/>
<path transform="matrix(1.00005,0,0,-1.00008,74.83098,62.19302)" d="M-46.5343 15.76736C-46.5343 16.86783-47.42638 17.75992-48.52686 17.75992-49.62732 17.75992-50.51941 16.86783-50.51941 15.76736-50.51941 14.66689-49.62732 13.77481-48.52686 13.77481-47.42638 13.77481-46.5343 14.66689-46.5343 15.76736ZM-48.52686 15.76736"/>
<use data-text="K" xlink:href="#font_1_69" transform="matrix(4.981549,0,0,-4.9816987,3.6424256,47.69686)"/>
<use data-text="Q" xlink:href="#font_1_90" transform="matrix(4.981549,0,0,-4.9816987,8.529327,47.69686)"/>
<use data-text="E" xlink:href="#font_1_49" transform="matrix(4.981549,0,0,-4.9816987,13.65036,47.69686)"/>
<use data-text="I" xlink:href="#font_1_65" transform="matrix(4.981549,0,0,-4.9816987,18.133759,47.69686)"/>
<path transform="matrix(1.00005,0,0,-1.00008,74.83098,62.19302)" d="M-27.99832 41.27922C-27.99832 42.37968-28.89041 43.27177-29.99088 43.27177-31.09135 43.27177-31.98343 42.37968-31.98343 41.27922-31.98343 40.17874-31.09135 39.28667-29.99088 39.28667-28.89041 39.28667-27.99832 40.17874-27.99832 41.27922ZM-29.99088 41.27922"/>
<use data-text="K" xlink:href="#font_1_69" transform="matrix(4.981549,0,0,-4.9816987,35.872034,14.232182)"/>
<use data-text="Q" xlink:href="#font_1_90" transform="matrix(4.981549,0,0,-4.9816987,40.758935,14.232182)"/>
<use data-text="E" xlink:href="#font_1_49" transform="matrix(4.981549,0,0,-4.9816987,45.879968,14.232182)"/>
<use data-text="J" xlink:href="#font_1_67" transform="matrix(4.981549,0,0,-4.9816987,50.363367,14.232182)"/>
<path transform="matrix(1.00005,0,0,-1.00008,74.83098,62.19302)" d="M1.99255-51.02368C1.99255-49.92322 1.10046-49.03113 0-49.03113-1.10046-49.03113-1.99255-49.92322-1.99255-51.02368-1.99255-52.12416-1.10046-53.01624 0-53.01624 1.10046-53.01624 1.99255-52.12416 1.99255-51.02368ZM0-51.02368"/>
<use data-text="K" xlink:href="#font_1_69" transform="matrix(4.981549,0,0,-4.9816987,65.43351,122.44484)"/>
<use data-text="Q" xlink:href="#font_1_90" transform="matrix(4.981549,0,0,-4.9816987,70.32041,122.44484)"/>
<use data-text="E" xlink:href="#font_1_49" transform="matrix(4.981549,0,0,-4.9816987,75.441448,122.44484)"/>
<use data-text="F" xlink:href="#font_1_54" transform="matrix(4.981549,0,0,-4.9816987,79.92484,122.44484)"/>
<path transform="matrix(1.00005,0,0,-1.00008,74.83098,62.19302)" d="M-27.99832-41.27922C-27.99832-40.17874-28.89041-39.28667-29.99088-39.28667-31.09135-39.28667-31.98343-40.17874-31.98343-41.27922-31.98343-42.37968-31.09135-43.27177-29.99088-43.27177-28.89041-43.27177-27.99832-42.37968-27.99832-41.27922ZM-29.99088-41.27922"/>
<use data-text="K" xlink:href="#font_1_69" transform="matrix(4.981549,0,0,-4.9816987,19.494217,104.74842)"/>
<use data-text="Q" xlink:href="#font_1_90" transform="matrix(4.981549,0,0,-4.9816987,24.381119,104.74842)"/>
<use data-text="E" xlink:href="#font_1_49" transform="matrix(4.981549,0,0,-4.9816987,29.502152,104.74842)"/>
<use data-text="G" xlink:href="#font_1_58" transform="matrix(4.981549,0,0,-4.9816987,33.98555,104.74842)"/>
<path transform="matrix(1.00005,0,0,-1.00008,74.83098,62.19302)" d="M-46.5343-15.76736C-46.5343-14.66689-47.42638-13.77481-48.52686-13.77481-49.62732-13.77481-50.51941-14.66689-50.51941-15.76736-50.51941-16.86783-49.62732-17.75992-48.52686-17.75992-47.42638-17.75992-46.5343-16.86783-46.5343-15.76736ZM-48.52686-15.76736"/>
<use data-text="K" xlink:href="#font_1_69" transform="matrix(4.981549,0,0,-4.9816987,1.2162933,79.23438)"/>
<use data-text="Q" xlink:href="#font_1_90" transform="matrix(4.981549,0,0,-4.9816987,6.103195,79.23438)"/>
<use data-text="E" xlink:href="#font_1_49" transform="matrix(4.981549,0,0,-4.9816987,11.224228,79.23438)"/>
<use data-text="H" xlink:href="#font_1_62" transform="matrix(4.981549,0,0,-4.9816987,15.707626,79.23438)"/>
</svg>
