<?xml version="1.0" encoding="UTF-8"?>
<svg xmlns="http://www.w3.org/2000/svg" xmlns:xlink="http://www.w3.org/1999/xlink" width="135pt" height="66pt" viewBox="0 0 135 66" version="1.1">
<g id="surface1">
<path style="fill-rule:nonzero;fill:rgb(0%,0%,0%);fill-opacity:1;stroke-width:0.3985;stroke-linecap:butt;stroke-linejoin:miter;stroke:rgb(0%,0%,0%);stroke-opacity:1;stroke-miterlimit:10;" d="M -61.540144 10.628118 C -61.540144 11.866374 -62.54397 12.87026 -63.782152 12.87026 C -65.016429 12.87026 -66.020255 11.866374 -66.020255 10.628118 C -66.020255 9.393767 -65.016429 8.389881 -63.782152 8.389881 C -62.54397 8.389881 -61.540144 9.393767 -61.540144 10.628118 Z M -61.540144 10.628118 " transform="matrix(1.00008,0,0,-1.00002,67.818505,73.136143)"/>
<path style="fill-rule:nonzero;fill:rgb(0%,0%,0%);fill-opacity:1;stroke-width:0.3985;stroke-linecap:butt;stroke-linejoin:miter;stroke:rgb(0%,0%,0%);stroke-opacity:1;stroke-miterlimit:10;" d="M -40.280126 10.628118 C -40.280126 11.866374 -41.283952 12.87026 -42.522135 12.87026 C -43.756411 12.87026 -44.760237 11.866374 -44.760237 10.628118 C -44.760237 9.393767 -43.756411 8.389881 -42.522135 8.389881 C -41.283952 8.389881 -40.280126 9.393767 -40.280126 10.628118 Z M -40.280126 10.628118 " transform="matrix(1.00008,0,0,-1.00002,67.818505,73.136143)"/>
<path style="fill-rule:nonzero;fill:rgb(0%,0%,0%);fill-opacity:1;stroke-width:0.3985;stroke-linecap:butt;stroke-linejoin:miter;stroke:rgb(0%,0%,0%);stroke-opacity:1;stroke-miterlimit:10;" d="M -19.020108 10.628118 C -19.020108 11.866374 -20.023934 12.87026 -21.258211 12.87026 C -22.496393 12.87026 -23.500219 11.866374 -23.500219 10.628118 C -23.500219 9.393767 -22.496393 8.389881 -21.258211 8.389881 C -20.023934 8.389881 -19.020108 9.393767 -19.020108 10.628118 Z M -19.020108 10.628118 " transform="matrix(1.00008,0,0,-1.00002,67.818505,73.136143)"/>
<path style="fill-rule:nonzero;fill:rgb(0%,0%,0%);fill-opacity:1;stroke-width:0.3985;stroke-linecap:butt;stroke-linejoin:miter;stroke:rgb(0%,0%,0%);stroke-opacity:1;stroke-miterlimit:10;" d="M 2.23991 10.628118 C 2.23991 11.866374 1.236084 12.87026 0.00180732 12.87026 C -1.236375 12.87026 -2.240201 11.866374 -2.240201 10.628118 C -2.240201 9.393767 -1.236375 8.389881 0.00180732 8.389881 C 1.236084 8.389881 2.23991 9.393767 2.23991 10.628118 Z M 2.23991 10.628118 " transform="matrix(1.00008,0,0,-1.00002,67.818505,73.136143)"/>
<path style="fill-rule:nonzero;fill:rgb(0%,0%,0%);fill-opacity:1;stroke-width:0.3985;stroke-linecap:butt;stroke-linejoin:miter;stroke:rgb(0%,0%,0%);stroke-opacity:1;stroke-miterlimit:10;" d="M 23.499927 10.628118 C 23.499927 11.866374 22.500007 12.87026 21.261825 12.87026 C 20.023643 12.87026 19.019817 11.866374 19.019817 10.628118 C 19.019817 9.393767 20.023643 8.389881 21.261825 8.389881 C 22.500007 8.389881 23.499927 9.393767 23.499927 10.628118 Z M 23.499927 10.628118 " transform="matrix(1.00008,0,0,-1.00002,67.818505,73.136143)"/>
<path style="fill-rule:nonzero;fill:rgb(0%,0%,0%);fill-opacity:1;stroke-width:0.3985;stroke-linecap:butt;stroke-linejoin:miter;stroke:rgb(0%,0%,0%);stroke-opacity:1;stroke-miterlimit:10;" d="M 44.759945 10.628118 C 44.759945 11.866374 43.760025 12.87026 42.521843 12.87026 C 41.283661 12.87026 40.279835 11.866374 40.279835 10.628118 C 40.279835 9.393767 41.283661 8.389881 42.521843 8.389881 C 43.760025 8.389881 44.759945 9.393767 44.759945 10.628118 Z M 44.759945 10.628118 " transform="matrix(1.00008,0,0,-1.00002,67.818505,73.136143)"/>
<path style="fill-rule:nonzero;fill:rgb(0%,0%,0%);fill-opacity:1;stroke-width:0.3985;stroke-linecap:butt;stroke-linejoin:miter;stroke:rgb(0%,0%,0%);stroke-opacity:1;stroke-miterlimit:10;" d="M 66.023869 10.628118 C 66.023869 11.866374 65.020043 12.87026 63.781861 12.87026 C 62.543679 12.87026 61.539853 11.866374 61.539853 10.628118 C 61.539853 9.393767 62.543679 8.389881 63.781861 8.389881 C 65.020043 8.389881 66.023869 9.393767 66.023869 10.628118 Z M 66.023869 10.628118 " transform="matrix(1.00008,0,0,-1.00002,67.818505,73.136143)"/>
<path style="fill-rule:nonzero;fill:rgb(0%,0%,0%);fill-opacity:1;stroke-width:0.3985;stroke-linecap:butt;stroke-linejoin:miter;stroke:rgb(0%,0%,0%);stroke-opacity:1;stroke-miterlimit:10;" d="M 62.078872 34.549514 C 62.078872 35.783865 61.075046 36.787751 59.836864 36.787751 C 58.598682 36.787751 57.598762 35.783865 57.598762 34.549514 C 57.598762 33.311258 58.598682 32.307372 59.836864 32.307372 C 61.075046 32.307372 62.078872 33.311258 62.078872 34.549514 Z M 62.078872 34.549514 " transform="matrix(1.00008,0,0,-1.00002,67.818505,73.136143)"/>
<path style="fill-rule:nonzero;fill:rgb(0%,0%,0%);fill-opacity:1;stroke-width:0.3985;stroke-linecap:butt;stroke-linejoin:miter;stroke:rgb(0%,0%,0%);stroke-opacity:1;stroke-miterlimit:10;" d="M 36.787927 59.838071 C 36.787927 61.076327 35.784101 62.080214 34.545919 62.080214 C 33.307737 62.080214 32.307817 61.076327 32.307817 59.838071 C 32.307817 58.599814 33.307737 57.595928 34.545919 57.595928 C 35.784101 57.595928 36.787927 58.599814 36.787927 59.838071 Z M 36.787927 59.838071 " transform="matrix(1.00008,0,0,-1.00002,67.818505,73.136143)"/>
<path style="fill-rule:nonzero;fill:rgb(0%,0%,0%);fill-opacity:1;stroke-width:0.3985;stroke-linecap:butt;stroke-linejoin:miter;stroke:rgb(0%,0%,0%);stroke-opacity:1;stroke-miterlimit:10;" d="M 2.23991 69.095698 C 2.23991 70.333955 1.236084 71.337841 0.00180732 71.337841 C -1.236375 71.337841 -2.240201 70.333955 -2.240201 69.095698 C -2.240201 67.857442 -1.236375 66.853556 0.00180732 66.853556 C 1.236084 66.853556 2.23991 67.857442 2.23991 69.095698 Z M 2.23991 69.095698 " transform="matrix(1.00008,0,0,-1.00002,67.818505,73.136143)"/>
<path style="fill-rule:nonzero;fill:rgb(0%,0%,0%);fill-opacity:1;stroke-width:0.3985;stroke-linecap:butt;stroke-linejoin:miter;stroke:rgb(0%,0%,0%);stroke-opacity:1;stroke-miterlimit:10;" d="M -32.304202 59.838071 C -32.304202 61.076327 -33.308028 62.080214 -34.54621 62.080214 C -35.784392 62.080214 -36.788218 61.076327 -36.788218 59.838071 C -36.788218 58.599814 -35.784392 57.595928 -34.54621 57.595928 C -33.308028 57.595928 -32.304202 58.599814 -32.304202 59.838071 Z M -32.304202 59.838071 " transform="matrix(1.00008,0,0,-1.00002,67.818505,73.136143)"/>
<path style="fill-rule:nonzero;fill:rgb(0%,0%,0%);fill-opacity:1;stroke-width:0.3985;stroke-linecap:butt;stroke-linejoin:miter;stroke:rgb(0%,0%,0%);stroke-opacity:1;stroke-miterlimit:10;" d="M -57.595147 34.549514 C -57.595147 35.783865 -58.598973 36.787751 -59.837156 36.787751 C -61.075338 36.787751 -62.079164 35.783865 -62.079164 34.549514 C -62.079164 33.311258 -61.075338 32.307372 -59.837156 32.307372 C -58.598973 32.307372 -57.595147 33.311258 -57.595147 34.549514 Z M -57.595147 34.549514 " transform="matrix(1.00008,0,0,-1.00002,67.818505,73.136143)"/>
</g>
</svg>
