<svg xmlns="http://www.w3.org/2000/svg" xmlns:xlink="http://www.w3.org/1999/xlink" xmlns:inkscape="http://www.inkscape.org/namespaces/inkscape" version="1.1" width="207" height="95" viewBox="0 0 207 95">
<defs>
<path id="font_1_1" d="M.08799744 .059265138C.084991458 .044265748 .07899475 .021255494 .07899475 .01625061 .07899475-.0017547608 .09298706-.0107421879 .10798645-.0107421879 .11999512-.0107421879 .13798523-.002746582 .14498902 .01725769 .1459961 .019256592 .1579895 .06626892 .1639862 .091278079L.18598938 .18130493C.19198609 .2033081 .19799805 .22531128 .20298767 .24832154 .20698548 .26531983 .21499634 .29434205 .21598816 .29833985 .23098755 .3293457 .28399659 .42037965 .3789978 .42037965 .42399598 .42037965 .43299867 .38336183 .43299867 .35035707 .43299867 .28833009 .38398744 .16029358 .36799623 .11727905 .35899354 .0942688 .35798646 .08227539 .35798646 .0712738 .35798646 .024261475 .3929901-.0107421879 .43998719-.0107421879 .5339966-.0107421879 .57099917 .13528443 .57099917 .14329529 .57099917 .1532898 .56199648 .1532898 .5589905 .1532898 .548996 .1532898 .548996 .15029907 .5439911 .13528443 .5239868 .06726074 .4909973 .011245728 .44198609 .011245728 .4249878 .011245728 .41799928 .021255494 .41799928 .044265748 .41799928 .0692749 .4269867 .09327698 .43598939 .11528015 .45498658 .16830445 .49699403 .27833558 .49699403 .3353424 .49699403 .40237428 .45399476 .4423828 .38198854 .4423828 .2919922 .4423828 .24299622 .37835694 .22599793 .35534669 .22099304 .41137696 .17999268 .4423828 .13398743 .4423828 .08799744 .4423828 .068984989 .4033661 .05899048 .38536073 .042999269 .35134889 .0289917 .29232789 .0289917 .28833009 .0289917 .27833558 .038986207 .27833558 .040985109 .27833558 .050994874 .27833558 .051986696 .2793274 .057998659 .30133058 .07499695 .37236024 .09498596 .42037965 .1309967 .42037965 .15098572 .42037965 .1619873 .4073639 .1619873 .37435914 .1619873 .35334779 .15899658 .3423462 .1459961 .29032899L.08799744 .059265138Z"/>
<path id="font_2_4" d="M.68699648 .32714845C.70199587 .32714845 .72099307 .32714845 .72099307 .34713746 .72099307 .36714173 .70199587 .36714173 .6879883 .36714173H.08898926C.07499695 .36714173 .055999757 .36714173 .055999757 .34713746 .055999757 .32714845 .07499695 .32714845 .08999634 .32714845H.68699648M.6879883 .13284302C.70199587 .13284302 .72099307 .13284302 .72099307 .15284729 .72099307 .17285156 .70199587 .17285156 .68699648 .17285156H.08999634C.07499695 .17285156 .055999757 .17285156 .055999757 .15284729 .055999757 .13284302 .07499695 .13284302 .08898926 .13284302H.6879883Z"/>
<path id="font_2_1" d="M.45999146 .31976319C.45999146 .39982606 .45498658 .47988893 .41999818 .5539398 .37399293 .65000918 .2919922 .6660156 .25 .6660156 .18998719 .6660156 .116989139 .64001467 .07598877 .54693606 .04399109 .47789 .038986207 .39982606 .038986207 .31976319 .038986207 .24472046 .042999269 .15464783 .083999637 .07859802 .1269989-.0024719239 .19999695-.022460938 .24899292-.022460938 .30299378-.022460938 .3789978-.0014648438 .4229889 .09359741 .45498658 .16265869 .45999146 .2407074 .45999146 .31976319M.24899292-.00047302247C.20999146-.00047302247 .15098572 .024551392 .1329956 .12062073 .12199402 .18066406 .12199402 .2727356 .12199402 .3317871 .12199402 .39582826 .12199402 .46188355 .12998963 .5159149 .14898682 .63500979 .22399903 .64401248 .24899292 .64401248 .28199769 .64401248 .34799195 .6259918 .36698915 .52693179 .3769989 .47088624 .3769989 .39482118 .3769989 .3317871 .3769989 .25672914 .3769989 .18867493 .3659973 .12461853 .35099793 .029556275 .2939911-.00047302247 .24899292-.00047302247Z"/>
<path id="font_2_2" d="M.2939911 .64004519C.2939911 .66400149 .2939911 .6660156 .2709961 .6660156 .20899964 .60227969 .12098694 .60227969 .08898926 .60227969V.57128909C.10899353 .57128909 .16799927 .57128909 .21998596 .5972748V.07902527C.21998596 .042999269 .21699524 .0309906 .1269989 .0309906H.09498596V0C.12998963 .0029907227 .21699524 .0029907227 .25698854 .0029907227 .29699708 .0029907227 .38398744 .0029907227 .4189911 0V.0309906H.3869934C.29699708 .0309906 .2939911 .041992189 .2939911 .07902527V.64004519Z"/>
<path id="font_2_3" d="M.1269989 .07699585 .23298645 .18003845C.3889923 .31811524 .44898988 .3721466 .44898988 .47216798 .44898988 .5860901 .35899354 .6660156 .23699951 .6660156 .12399292 .6660156 .049987794 .57411196 .049987794 .48516847 .049987794 .4291687 .099990848 .4291687 .102996829 .4291687 .11999512 .4291687 .15499878 .44117738 .15499878 .48217774 .15499878 .5081787 .13699341 .5341797 .101989749 .5341797 .09399414 .5341797 .09199524 .5341797 .08898926 .5331726 .11199951 .59806826 .1659851 .63500979 .22399903 .63500979 .31498719 .63500979 .35798646 .5541382 .35798646 .47216798 .35798646 .39215089 .30799867 .31311036 .25299073 .25108338L.06098938 .036987306C.049987794 .025985718 .049987794 .023986817 .049987794 0H.42099L.44898988 .17404175H.42399598C.4189911 .14402771 .4119873 .1000061 .4019928 .084991458 .394989 .07699585 .32899476 .07699585 .30699159 .07699585H.1269989Z"/>
</defs>
<path transform="matrix(1,0,0,-1.00005,13.338997,40.484575)" d="M0-7.08669"/>
<path transform="matrix(1,0,0,-1.00005,13.338997,40.484575)" stroke-width=".3985" stroke-linecap="butt" stroke-miterlimit="10" stroke-linejoin="miter" fill="none" stroke="#000000" d="M0-7.08669"/>
<path transform="matrix(1,0,0,-1.00005,13.338997,40.484575)" d="M1.99255 7.08669C1.99255 8.18715 1.10046 9.07924 0 9.07924-1.10046 9.07924-1.99255 8.18715-1.99255 7.08669-1.99255 5.9862-1.10046 5.09413 0 5.09413 1.10046 5.09413 1.99255 5.9862 1.99255 7.08669ZM0 7.08669"/>
<path transform="matrix(1,0,0,-1.00005,13.338997,40.484575)" d="M1.99255-7.08669C1.99255-5.9862 1.10046-5.09413 0-5.09413-1.10046-5.09413-1.99255-5.9862-1.99255-7.08669-1.99255-8.18715-1.10046-9.07924 0-9.07924 1.10046-9.07924 1.99255-8.18715 1.99255-7.08669ZM0-7.08669"/>
<use data-text="n" xlink:href="#font_1_1" transform="matrix(9.9626,0,0,-9.963098,1.2169952,92.94719)"/>
<use data-text="=" xlink:href="#font_2_4" transform="matrix(9.9626,0,0,-9.963098,9.964996,92.94719)"/>
<use data-text="0" xlink:href="#font_2_1" transform="matrix(9.9626,0,0,-9.963098,20.465584,92.94719)"/>
<path transform="matrix(1,0,0,-1.00005,13.338997,40.484575)" d="M85.04042-26.92937"/>
<path transform="matrix(1,0,0,-1.00005,13.338997,40.484575)" stroke-width=".3985" stroke-linecap="butt" stroke-miterlimit="10" stroke-linejoin="miter" fill="none" stroke="#000000" d="M85.04042-26.92937"/>
<path transform="matrix(1,0,0,-1.00005,13.338997,40.484575)" d="M72.85956 7.08669C72.85956 8.18715 71.96748 9.07924 70.867 9.07924 69.76654 9.07924 68.87445 8.18715 68.87445 7.08669 68.87445 5.9862 69.76654 5.09413 70.867 5.09413 71.96748 5.09413 72.85956 5.9862 72.85956 7.08669ZM70.867 7.08669"/>
<path transform="matrix(1,0,0,-1.00005,13.338997,40.484575)" d="M101.20638 7.08669C101.20638 8.18715 100.31429 9.07924 99.21382 9.07924 98.11334 9.07924 97.22127 8.18715 97.22127 7.08669 97.22127 5.9862 98.11334 5.09413 99.21382 5.09413 100.31429 5.09413 101.20638 5.9862 101.20638 7.08669ZM99.21382 7.08669"/>
<path transform="matrix(1,0,0,-1.00005,13.338997,40.484575)" d="M87.03297 26.92937C87.03297 28.02985 86.1409 28.92192 85.04042 28.92192 83.93996 28.92192 83.04787 28.02985 83.04787 26.92937 83.04787 25.8289 83.93996 24.93681 85.04042 24.93681 86.1409 24.93681 87.03297 25.8289 87.03297 26.92937ZM85.04042 26.92937"/>
<path transform="matrix(1,0,0,-1.00005,13.338997,40.484575)" d="M72.85956-7.08669C72.85956-5.9862 71.96748-5.09413 70.867-5.09413 69.76654-5.09413 68.87445-5.9862 68.87445-7.08669 68.87445-8.18715 69.76654-9.07924 70.867-9.07924 71.96748-9.07924 72.85956-8.18715 72.85956-7.08669ZM70.867-7.08669"/>
<path transform="matrix(1,0,0,-1.00005,13.338997,40.484575)" d="M101.20638-7.08669C101.20638-5.9862 100.31429-5.09413 99.21382-5.09413 98.11334-5.09413 97.22127-5.9862 97.22127-7.08669 97.22127-8.18715 98.11334-9.07924 99.21382-9.07924 100.31429-9.07924 101.20638-8.18715 101.20638-7.08669ZM99.21382-7.08669"/>
<path transform="matrix(1,0,0,-1.00005,13.338997,40.484575)" d="M87.03297-26.92937C87.03297-25.8289 86.1409-24.93681 85.04042-24.93681 83.93996-24.93681 83.04787-25.8289 83.04787-26.92937 83.04787-28.02985 83.93996-28.92192 85.04042-28.92192 86.1409-28.92192 87.03297-28.02985 87.03297-26.92937ZM85.04042-26.92937"/>
<use data-text="n" xlink:href="#font_1_1" transform="matrix(9.9626,0,0,-9.963098,86.256999,92.94719)"/>
<use data-text="=" xlink:href="#font_2_4" transform="matrix(9.9626,0,0,-9.963098,95.005,92.94719)"/>
<use data-text="1" xlink:href="#font_2_2" transform="matrix(9.9626,0,0,-9.963098,105.505588,92.94719)"/>
<path transform="matrix(1,0,0,-1.00005,13.338997,40.484575)" d="M170.08086-36.85092"/>
<path transform="matrix(1,0,0,-1.00005,13.338997,40.484575)" stroke-width=".3985" stroke-linecap="butt" stroke-miterlimit="10" stroke-linejoin="miter" fill="none" stroke="#000000" d="M170.08086-36.85092"/>
<path transform="matrix(1,0,0,-1.00005,13.338997,40.484575)" d="M152.23072 7.08669C152.23072 8.18715 151.33864 9.07924 150.23816 9.07924 149.1377 9.07924 148.2456 8.18715 148.2456 7.08669 148.2456 5.9862 149.1377 5.09413 150.23816 5.09413 151.33864 5.09413 152.23072 5.9862 152.23072 7.08669ZM150.23816 7.08669"/>
<path transform="matrix(1,0,0,-1.00005,13.338997,40.484575)" d="M163.56926 7.08669C163.56926 8.18715 162.67719 9.07924 161.5767 9.07924 160.47624 9.07924 159.58415 8.18715 159.58415 7.08669 159.58415 5.9862 160.47624 5.09413 161.5767 5.09413 162.67719 5.09413 163.56926 5.9862 163.56926 7.08669ZM161.5767 7.08669"/>
<path transform="matrix(1,0,0,-1.00005,13.338997,40.484575)" d="M157.9 17.00824C157.9 18.1087 157.0079 19.0008 155.90744 19.0008 154.80696 19.0008 153.91489 18.1087 153.91489 17.00824 153.91489 15.90776 154.80696 15.01569 155.90744 15.01569 157.0079 15.01569 157.9 15.90776 157.9 17.00824ZM155.90744 17.00824"/>
<path transform="matrix(1,0,0,-1.00005,13.338997,40.484575)" d="M180.57753 7.08669C180.57753 8.18715 179.68544 9.07924 178.58498 9.07924 177.4845 9.07924 176.59243 8.18715 176.59243 7.08669 176.59243 5.9862 177.4845 5.09413 178.58498 5.09413 179.68544 5.09413 180.57753 5.9862 180.57753 7.08669ZM178.58498 7.08669"/>
<path transform="matrix(1,0,0,-1.00005,13.338997,40.484575)" d="M191.91608 7.08669C191.91608 8.18715 191.02399 9.07924 189.92353 9.07924 188.82305 9.07924 187.93097 8.18715 187.93097 7.08669 187.93097 5.9862 188.82305 5.09413 189.92353 5.09413 191.02399 5.09413 191.91608 5.9862 191.91608 7.08669ZM189.92353 7.08669"/>
<path transform="matrix(1,0,0,-1.00005,13.338997,40.484575)" d="M186.2468 17.00824C186.2468 18.1087 185.35472 19.0008 184.25424 19.0008 183.15378 19.0008 182.26169 18.1087 182.26169 17.00824 182.26169 15.90776 183.15378 15.01569 184.25424 15.01569 185.35472 15.01569 186.2468 15.90776 186.2468 17.00824ZM184.25424 17.00824"/>
<path transform="matrix(1,0,0,-1.00005,13.338997,40.484575)" d="M166.40412 26.92937C166.40412 28.02985 165.51204 28.92192 164.41156 28.92192 163.3111 28.92192 162.419 28.02985 162.419 26.92937 162.419 25.8289 163.3111 24.93681 164.41156 24.93681 165.51204 24.93681 166.40412 25.8289 166.40412 26.92937ZM164.41156 26.92937"/>
<path transform="matrix(1,0,0,-1.00005,13.338997,40.484575)" d="M177.74268 26.92937C177.74268 28.02985 176.8506 28.92192 175.75012 28.92192 174.64966 28.92192 173.75757 28.02985 173.75757 26.92937 173.75757 25.8289 174.64966 24.93681 175.75012 24.93681 176.8506 24.93681 177.74268 25.8289 177.74268 26.92937ZM175.75012 26.92937"/>
<path transform="matrix(1,0,0,-1.00005,13.338997,40.484575)" d="M172.07341 36.85092C172.07341 37.9514 171.18132 38.84348 170.08086 38.84348 168.98038 38.84348 168.0883 37.9514 168.0883 36.85092 168.0883 35.75046 168.98038 34.85837 170.08086 34.85837 171.18132 34.85837 172.07341 35.75046 172.07341 36.85092ZM170.08086 36.85092"/>
<path transform="matrix(1,0,0,-1.00005,13.338997,40.484575)" d="M152.23072-7.08669C152.23072-5.9862 151.33864-5.09413 150.23816-5.09413 149.1377-5.09413 148.2456-5.9862 148.2456-7.08669 148.2456-8.18715 149.1377-9.07924 150.23816-9.07924 151.33864-9.07924 152.23072-8.18715 152.23072-7.08669ZM150.23816-7.08669"/>
<path transform="matrix(1,0,0,-1.00005,13.338997,40.484575)" d="M163.56926-7.08669C163.56926-5.9862 162.67719-5.09413 161.5767-5.09413 160.47624-5.09413 159.58415-5.9862 159.58415-7.08669 159.58415-8.18715 160.47624-9.07924 161.5767-9.07924 162.67719-9.07924 163.56926-8.18715 163.56926-7.08669ZM161.5767-7.08669"/>
<path transform="matrix(1,0,0,-1.00005,13.338997,40.484575)" d="M157.9-17.00824C157.9-15.90776 157.0079-15.01569 155.90744-15.01569 154.80696-15.01569 153.91489-15.90776 153.91489-17.00824 153.91489-18.1087 154.80696-19.0008 155.90744-19.0008 157.0079-19.0008 157.9-18.1087 157.9-17.00824ZM155.90744-17.00824"/>
<path transform="matrix(1,0,0,-1.00005,13.338997,40.484575)" d="M180.57753-7.08669C180.57753-5.9862 179.68544-5.09413 178.58498-5.09413 177.4845-5.09413 176.59243-5.9862 176.59243-7.08669 176.59243-8.18715 177.4845-9.07924 178.58498-9.07924 179.68544-9.07924 180.57753-8.18715 180.57753-7.08669ZM178.58498-7.08669"/>
<path transform="matrix(1,0,0,-1.00005,13.338997,40.484575)" d="M191.91608-7.08669C191.91608-5.9862 191.02399-5.09413 189.92353-5.09413 188.82305-5.09413 187.93097-5.9862 187.93097-7.08669 187.93097-8.18715 188.82305-9.07924 189.92353-9.07924 191.02399-9.07924 191.91608-8.18715 191.91608-7.08669ZM189.92353-7.08669"/>
<path transform="matrix(1,0,0,-1.00005,13.338997,40.484575)" d="M186.2468-17.00824C186.2468-15.90776 185.35472-15.01569 184.25424-15.01569 183.15378-15.01569 182.26169-15.90776 182.26169-17.00824 182.26169-18.1087 183.15378-19.0008 184.25424-19.0008 185.35472-19.0008 186.2468-18.1087 186.2468-17.00824ZM184.25424-17.00824"/>
<path transform="matrix(1,0,0,-1.00005,13.338997,40.484575)" d="M166.40412-26.92937C166.40412-25.8289 165.51204-24.93681 164.41156-24.93681 163.3111-24.93681 162.419-25.8289 162.419-26.92937 162.419-28.02985 163.3111-28.92192 164.41156-28.92192 165.51204-28.92192 166.40412-28.02985 166.40412-26.92937ZM164.41156-26.92937"/>
<path transform="matrix(1,0,0,-1.00005,13.338997,40.484575)" d="M177.74268-26.92937C177.74268-25.8289 176.8506-24.93681 175.75012-24.93681 174.64966-24.93681 173.75757-25.8289 173.75757-26.92937 173.75757-28.02985 174.64966-28.92192 175.75012-28.92192 176.8506-28.92192 177.74268-28.02985 177.74268-26.92937ZM175.75012-26.92937"/>
<path transform="matrix(1,0,0,-1.00005,13.338997,40.484575)" d="M172.07341-36.85092C172.07341-35.75046 171.18132-34.85837 170.08086-34.85837 168.98038-34.85837 168.0883-35.75046 168.0883-36.85092 168.0883-37.9514 168.98038-38.84348 170.08086-38.84348 171.18132-38.84348 172.07341-37.9514 172.07341-36.85092ZM170.08086-36.85092"/>
<use data-text="n" xlink:href="#font_1_1" transform="matrix(9.9626,0,0,-9.963098,171.297,92.94719)"/>
<use data-text="=" xlink:href="#font_2_4" transform="matrix(9.9626,0,0,-9.963098,180.04499,92.94719)"/>
<use data-text="2" xlink:href="#font_2_3" transform="matrix(9.9626,0,0,-9.963098,190.54558,92.94719)"/>
</svg>
