<svg xmlns="http://www.w3.org/2000/svg" xmlns:xlink="http://www.w3.org/1999/xlink" version="1.1" width="133" height="134" viewBox="0 0 133 134">
<path transform="matrix(1.00009,0,0,-1.00002,9.883537,123.65516)" stroke-width="1.19553" stroke-linecap="butt" stroke-miterlimit="10" stroke-linejoin="miter" fill="none" stroke="#000000" d="M0 0H113.38724M0 0 113.38724 56.69362M0 0 113.38724 113.38724"/>
<path transform="matrix(1.00009,0,0,-1.00002,9.883537,123.65516)" stroke-width=".3985" stroke-linecap="butt" stroke-miterlimit="10" stroke-linejoin="miter" fill="none" stroke="#000000" d="M0 0"/>
<path transform="matrix(1.00009,0,0,-1.00002,9.883537,123.65516)" d="M8.46835 0C8.46835 4.67699 4.67699 8.46835 0 8.46835-4.67699 8.46835-8.46835 4.67699-8.46835 0-8.46835-4.67699-4.67699-8.46835 0-8.46835 4.67699-8.46835 8.46835-4.67699 8.46835 0ZM0 0" fill="#ffffff"/>
<path transform="matrix(1.00009,0,0,-1.00002,9.883537,123.65516)" stroke-width=".3985" stroke-linecap="butt" stroke-miterlimit="10" stroke-linejoin="miter" fill="none" stroke="#000000" d="M8.46835 0C8.46835 4.67699 4.67699 8.46835 0 8.46835-4.67699 8.46835-8.46835 4.67699-8.46835 0-8.46835-4.67699-4.67699-8.46835 0-8.46835 4.67699-8.46835 8.46835-4.67699 8.46835 0ZM0 0"/>
<path transform="matrix(1.00009,0,0,-1.00002,9.883537,123.65516)" stroke-width="1.19553" stroke-linecap="butt" stroke-miterlimit="10" stroke-linejoin="miter" fill="none" stroke="#000000" d="M0 28.3468 113.38724 0M0 28.3468 113.38724 56.69362M0 28.3468 113.38724 113.38724"/>
<path transform="matrix(1.00009,0,0,-1.00002,9.883537,123.65516)" stroke-width=".3985" stroke-linecap="butt" stroke-miterlimit="10" stroke-linejoin="miter" fill="none" stroke="#000000" d="M0 28.3468"/>
<path transform="matrix(1.00009,0,0,-1.00002,9.883537,123.65516)" d="M8.46835 28.3468C8.46835 33.0238 4.67699 36.81516 0 36.81516-4.67699 36.81516-8.46835 33.0238-8.46835 28.3468-8.46835 23.6698-4.67699 19.87845 0 19.87845 4.67699 19.87845 8.46835 23.6698 8.46835 28.3468ZM0 28.3468" fill="#ffffff"/>
<path transform="matrix(1.00009,0,0,-1.00002,9.883537,123.65516)" stroke-width=".3985" stroke-linecap="butt" stroke-miterlimit="10" stroke-linejoin="miter" fill="none" stroke="#000000" d="M8.46835 28.3468C8.46835 33.0238 4.67699 36.81516 0 36.81516-4.67699 36.81516-8.46835 33.0238-8.46835 28.3468-8.46835 23.6698-4.67699 19.87845 0 19.87845 4.67699 19.87845 8.46835 23.6698 8.46835 28.3468ZM0 28.3468"/>
<path transform="matrix(1.00009,0,0,-1.00002,9.883537,123.65516)" stroke-width="1.19553" stroke-linecap="butt" stroke-miterlimit="10" stroke-linejoin="miter" fill="none" stroke="#000000" d="M0 56.69362 113.38724 0M0 56.69362H113.38724M0 56.69362 113.38724 113.38724"/>
<path transform="matrix(1.00009,0,0,-1.00002,9.883537,123.65516)" stroke-width=".3985" stroke-linecap="butt" stroke-miterlimit="10" stroke-linejoin="miter" fill="none" stroke="#000000" d="M0 56.69362"/>
<path transform="matrix(1.00009,0,0,-1.00002,9.883537,123.65516)" d="M8.46835 56.69362C8.46835 61.3706 4.67699 65.16197 0 65.16197-4.67699 65.16197-8.46835 61.3706-8.46835 56.69362-8.46835 52.01662-4.67699 48.22527 0 48.22527 4.67699 48.22527 8.46835 52.01662 8.46835 56.69362ZM0 56.69362" fill="#ffffff"/>
<path transform="matrix(1.00009,0,0,-1.00002,9.883537,123.65516)" stroke-width=".3985" stroke-linecap="butt" stroke-miterlimit="10" stroke-linejoin="miter" fill="none" stroke="#000000" d="M8.46835 56.69362C8.46835 61.3706 4.67699 65.16197 0 65.16197-4.67699 65.16197-8.46835 61.3706-8.46835 56.69362-8.46835 52.01662-4.67699 48.22527 0 48.22527 4.67699 48.22527 8.46835 52.01662 8.46835 56.69362ZM0 56.69362"/>
<path transform="matrix(1.00009,0,0,-1.00002,9.883537,123.65516)" stroke-width="1.19553" stroke-linecap="butt" stroke-miterlimit="10" stroke-linejoin="miter" fill="none" stroke="#000000" d="M0 85.04042 113.38724 0M0 85.04042 113.38724 56.69362M0 85.04042 113.38724 113.38724"/>
<path transform="matrix(1.00009,0,0,-1.00002,9.883537,123.65516)" stroke-width=".3985" stroke-linecap="butt" stroke-miterlimit="10" stroke-linejoin="miter" fill="none" stroke="#000000" d="M0 85.04042"/>
<path transform="matrix(1.00009,0,0,-1.00002,9.883537,123.65516)" d="M8.46835 85.04042C8.46835 89.71742 4.67699 93.50877 0 93.50877-4.67699 93.50877-8.46835 89.71742-8.46835 85.04042-8.46835 80.36343-4.67699 76.57207 0 76.57207 4.67699 76.57207 8.46835 80.36343 8.46835 85.04042ZM0 85.04042" fill="#ffffff"/>
<path transform="matrix(1.00009,0,0,-1.00002,9.883537,123.65516)" stroke-width=".3985" stroke-linecap="butt" stroke-miterlimit="10" stroke-linejoin="miter" fill="none" stroke="#000000" d="M8.46835 85.04042C8.46835 89.71742 4.67699 93.50877 0 93.50877-4.67699 93.50877-8.46835 89.71742-8.46835 85.04042-8.46835 80.36343-4.67699 76.57207 0 76.57207 4.67699 76.57207 8.46835 80.36343 8.46835 85.04042ZM0 85.04042"/>
<path transform="matrix(1.00009,0,0,-1.00002,9.883537,123.65516)" stroke-width="1.19553" stroke-linecap="butt" stroke-miterlimit="10" stroke-linejoin="miter" fill="none" stroke="#000000" d="M0 113.38724 113.38724 0M0 113.38724 113.38724 56.69362M0 113.38724H113.38724"/>
<path transform="matrix(1.00009,0,0,-1.00002,9.883537,123.65516)" stroke-width=".3985" stroke-linecap="butt" stroke-miterlimit="10" stroke-linejoin="miter" fill="none" stroke="#000000" d="M0 113.38724"/>
<path transform="matrix(1.00009,0,0,-1.00002,9.883537,123.65516)" d="M8.46835 113.38724C8.46835 118.06422 4.67699 121.85559 0 121.85559-4.67699 121.85559-8.46835 118.06422-8.46835 113.38724-8.46835 108.71024-4.67699 104.91888 0 104.91888 4.67699 104.91888 8.46835 108.71024 8.46835 113.38724ZM0 113.38724" fill="#ffffff"/>
<path transform="matrix(1.00009,0,0,-1.00002,9.883537,123.65516)" stroke-width=".3985" stroke-linecap="butt" stroke-miterlimit="10" stroke-linejoin="miter" fill="none" stroke="#000000" d="M8.46835 113.38724C8.46835 118.06422 4.67699 121.85559 0 121.85559-4.67699 121.85559-8.46835 118.06422-8.46835 113.38724-8.46835 108.71024-4.67699 104.91888 0 104.91888 4.67699 104.91888 8.46835 108.71024 8.46835 113.38724ZM0 113.38724"/>
<path transform="matrix(1.00009,0,0,-1.00002,9.883537,123.65516)" stroke-width=".3985" stroke-linecap="butt" stroke-miterlimit="10" stroke-linejoin="miter" fill="none" stroke="#000000" d="M113.38724 113.38724"/>
<path transform="matrix(1.00009,0,0,-1.00002,9.883537,123.65516)" d="M121.85559 0C121.85559 4.67699 118.06422 8.46835 113.38724 8.46835 108.71024 8.46835 104.91888 4.67699 104.91888 0 104.91888-4.67699 108.71024-8.46835 113.38724-8.46835 118.06422-8.46835 121.85559-4.67699 121.85559 0ZM113.38724 0" fill="#ffffff"/>
<path transform="matrix(1.00009,0,0,-1.00002,9.883537,123.65516)" stroke-width=".3985" stroke-linecap="butt" stroke-miterlimit="10" stroke-linejoin="miter" fill="none" stroke="#000000" d="M121.85559 0C121.85559 4.67699 118.06422 8.46835 113.38724 8.46835 108.71024 8.46835 104.91888 4.67699 104.91888 0 104.91888-4.67699 108.71024-8.46835 113.38724-8.46835 118.06422-8.46835 121.85559-4.67699 121.85559 0ZM113.38724 0"/>
<path transform="matrix(1.00009,0,0,-1.00002,9.883537,123.65516)" d="M121.85559 56.69362C121.85559 61.3706 118.06422 65.16197 113.38724 65.16197 108.71024 65.16197 104.91888 61.3706 104.91888 56.69362 104.91888 52.01662 108.71024 48.22527 113.38724 48.22527 118.06422 48.22527 121.85559 52.01662 121.85559 56.69362ZM113.38724 56.69362" fill="#ffffff"/>
<path transform="matrix(1.00009,0,0,-1.00002,9.883537,123.65516)" stroke-width=".3985" stroke-linecap="butt" stroke-miterlimit="10" stroke-linejoin="miter" fill="none" stroke="#000000" d="M121.85559 56.69362C121.85559 61.3706 118.06422 65.16197 113.38724 65.16197 108.71024 65.16197 104.91888 61.3706 104.91888 56.69362 104.91888 52.01662 108.71024 48.22527 113.38724 48.22527 118.06422 48.22527 121.85559 52.01662 121.85559 56.69362ZM113.38724 56.69362"/>
<path transform="matrix(1.00009,0,0,-1.00002,9.883537,123.65516)" d="M121.85559 113.38724C121.85559 118.06422 118.06422 121.85559 113.38724 121.85559 108.71024 121.85559 104.91888 118.06422 104.91888 113.38724 104.91888 108.71024 108.71024 104.91888 113.38724 104.91888 118.06422 104.91888 121.85559 108.71024 121.85559 113.38724ZM113.38724 113.38724" fill="#ffffff"/>
<path transform="matrix(1.00009,0,0,-1.00002,9.883537,123.65516)" stroke-width=".3985" stroke-linecap="butt" stroke-miterlimit="10" stroke-linejoin="miter" fill="none" stroke="#000000" d="M121.85559 113.38724C121.85559 118.06422 118.06422 121.85559 113.38724 121.85559 108.71024 121.85559 104.91888 118.06422 104.91888 113.38724 104.91888 108.71024 108.71024 104.91888 113.38724 104.91888 118.06422 104.91888 121.85559 108.71024 121.85559 113.38724ZM113.38724 113.38724"/>
</svg>
