<svg xmlns="http://www.w3.org/2000/svg" xmlns:xlink="http://www.w3.org/1999/xlink" version="1.1" width="133pt" height="119pt" viewBox="0 0 133 119">
<path transform="matrix(1.00009,0,0,-1.00003,66.581638,59.367307)" stroke-width=".79701" stroke-linecap="butt" stroke-miterlimit="10" stroke-linejoin="miter" fill="none" stroke="#000000" d="M56.69362 0V0"/>
<path transform="matrix(1.00009,0,0,-1.00003,66.581638,59.367307)" stroke-width=".79701" stroke-linecap="butt" stroke-miterlimit="10" stroke-linejoin="miter" fill="none" stroke="#000000" d="M56.69362 0 28.34679 49.09822"/>
<path transform="matrix(1.00009,0,0,-1.00003,66.581638,59.367307)" stroke-width=".79701" stroke-linecap="butt" stroke-miterlimit="10" stroke-linejoin="miter" fill="none" stroke="#000000" d="M56.69362 0-28.34679 49.09822"/>
<path transform="matrix(1.00009,0,0,-1.00003,66.581638,59.367307)" stroke-width=".79701" stroke-linecap="butt" stroke-miterlimit="10" stroke-linejoin="miter" fill="none" stroke="#000000" d="M56.69362 0H-56.69362"/>
<path transform="matrix(1.00009,0,0,-1.00003,66.581638,59.367307)" stroke-width=".79701" stroke-linecap="butt" stroke-miterlimit="10" stroke-linejoin="miter" fill="none" stroke="#000000" d="M56.69362 0-28.34679-49.09822"/>
<path transform="matrix(1.00009,0,0,-1.00003,66.581638,59.367307)" stroke-width=".79701" stroke-linecap="butt" stroke-miterlimit="10" stroke-linejoin="miter" fill="none" stroke="#000000" d="M56.69362 0 28.34679-49.09822"/>
<path transform="matrix(1.00009,0,0,-1.00003,66.581638,59.367307)" stroke-width=".3985" stroke-linecap="butt" stroke-miterlimit="10" stroke-linejoin="miter" fill="none" stroke="#000000" d="M56.69362 0"/>
<path transform="matrix(1.00009,0,0,-1.00003,66.581638,59.367307)" d="M65.16197 0C65.16197 4.67699 61.3706 8.46835 56.69362 8.46835 52.01662 8.46835 48.22527 4.67699 48.22527 0 48.22527-4.67699 52.01662-8.46835 56.69362-8.46835 61.3706-8.46835 65.16197-4.67699 65.16197 0ZM56.69362 0" fill="#ffffff"/>
<path transform="matrix(1.00009,0,0,-1.00003,66.581638,59.367307)" stroke-width=".3985" stroke-linecap="butt" stroke-miterlimit="10" stroke-linejoin="miter" fill="none" stroke="#000000" d="M65.16197 0C65.16197 4.67699 61.3706 8.46835 56.69362 8.46835 52.01662 8.46835 48.22527 4.67699 48.22527 0 48.22527-4.67699 52.01662-8.46835 56.69362-8.46835 61.3706-8.46835 65.16197-4.67699 65.16197 0ZM56.69362 0"/>
<path transform="matrix(1.00009,0,0,-1.00003,66.581638,59.367307)" stroke-width=".79701" stroke-linecap="butt" stroke-miterlimit="10" stroke-linejoin="miter" fill="none" stroke="#000000" d="M28.34679 49.09822V49.09822"/>
<path transform="matrix(1.00009,0,0,-1.00003,66.581638,59.367307)" stroke-width=".79701" stroke-linecap="butt" stroke-miterlimit="10" stroke-linejoin="miter" fill="none" stroke="#000000" d="M28.34679 49.09822H-28.34679"/>
<path transform="matrix(1.00009,0,0,-1.00003,66.581638,59.367307)" stroke-width=".79701" stroke-linecap="butt" stroke-miterlimit="10" stroke-linejoin="miter" fill="none" stroke="#000000" d="M28.34679 49.09822-56.69362 0"/>
<path transform="matrix(1.00009,0,0,-1.00003,66.581638,59.367307)" stroke-width=".79701" stroke-linecap="butt" stroke-miterlimit="10" stroke-linejoin="miter" fill="none" stroke="#000000" d="M28.34679 49.09822-28.34679-49.09822"/>
<path transform="matrix(1.00009,0,0,-1.00003,66.581638,59.367307)" stroke-width=".79701" stroke-linecap="butt" stroke-miterlimit="10" stroke-linejoin="miter" fill="none" stroke="#000000" d="M28.34679 49.09822V-49.09822"/>
<path transform="matrix(1.00009,0,0,-1.00003,66.581638,59.367307)" stroke-width=".3985" stroke-linecap="butt" stroke-miterlimit="10" stroke-linejoin="miter" fill="none" stroke="#000000" d="M28.34679 49.09822"/>
<path transform="matrix(1.00009,0,0,-1.00003,66.581638,59.367307)" d="M36.81514 49.09822C36.81514 53.7752 33.02379 57.56657 28.34679 57.56657 23.66978 57.56657 19.87843 53.7752 19.87843 49.09822 19.87843 44.42122 23.66978 40.62987 28.34679 40.62987 33.02379 40.62987 36.81514 44.42122 36.81514 49.09822ZM28.34679 49.09822" fill="#ffffff"/>
<path transform="matrix(1.00009,0,0,-1.00003,66.581638,59.367307)" stroke-width=".3985" stroke-linecap="butt" stroke-miterlimit="10" stroke-linejoin="miter" fill="none" stroke="#000000" d="M36.81514 49.09822C36.81514 53.7752 33.02379 57.56657 28.34679 57.56657 23.66978 57.56657 19.87843 53.7752 19.87843 49.09822 19.87843 44.42122 23.66978 40.62987 28.34679 40.62987 33.02379 40.62987 36.81514 44.42122 36.81514 49.09822ZM28.34679 49.09822"/>
<path transform="matrix(1.00009,0,0,-1.00003,66.581638,59.367307)" stroke-width=".79701" stroke-linecap="butt" stroke-miterlimit="10" stroke-linejoin="miter" fill="none" stroke="#000000" d="M-28.34679 49.09822V49.09822"/>
<path transform="matrix(1.00009,0,0,-1.00003,66.581638,59.367307)" stroke-width=".79701" stroke-linecap="butt" stroke-miterlimit="10" stroke-linejoin="miter" fill="none" stroke="#000000" d="M-28.34679 49.09822-56.69362 0"/>
<path transform="matrix(1.00009,0,0,-1.00003,66.581638,59.367307)" stroke-width=".79701" stroke-linecap="butt" stroke-miterlimit="10" stroke-linejoin="miter" fill="none" stroke="#000000" d="M-28.34679 49.09822V-49.09822"/>
<path transform="matrix(1.00009,0,0,-1.00003,66.581638,59.367307)" stroke-width=".79701" stroke-linecap="butt" stroke-miterlimit="10" stroke-linejoin="miter" fill="none" stroke="#000000" d="M-28.34679 49.09822 28.34679-49.09822"/>
<path transform="matrix(1.00009,0,0,-1.00003,66.581638,59.367307)" stroke-width=".3985" stroke-linecap="butt" stroke-miterlimit="10" stroke-linejoin="miter" fill="none" stroke="#000000" d="M-28.34679 49.09822"/>
<path transform="matrix(1.00009,0,0,-1.00003,66.581638,59.367307)" d="M-19.87843 49.09822C-19.87843 53.7752-23.66978 57.56657-28.34679 57.56657-33.02379 57.56657-36.81514 53.7752-36.81514 49.09822-36.81514 44.42122-33.02379 40.62987-28.34679 40.62987-23.66978 40.62987-19.87843 44.42122-19.87843 49.09822ZM-28.34679 49.09822" fill="#ffffff"/>
<path transform="matrix(1.00009,0,0,-1.00003,66.581638,59.367307)" stroke-width=".3985" stroke-linecap="butt" stroke-miterlimit="10" stroke-linejoin="miter" fill="none" stroke="#000000" d="M-19.87843 49.09822C-19.87843 53.7752-23.66978 57.56657-28.34679 57.56657-33.02379 57.56657-36.81514 53.7752-36.81514 49.09822-36.81514 44.42122-33.02379 40.62987-28.34679 40.62987-23.66978 40.62987-19.87843 44.42122-19.87843 49.09822ZM-28.34679 49.09822"/>
<path transform="matrix(1.00009,0,0,-1.00003,66.581638,59.367307)" stroke-width=".79701" stroke-linecap="butt" stroke-miterlimit="10" stroke-linejoin="miter" fill="none" stroke="#000000" d="M-56.69362 0V0"/>
<path transform="matrix(1.00009,0,0,-1.00003,66.581638,59.367307)" stroke-width=".79701" stroke-linecap="butt" stroke-miterlimit="10" stroke-linejoin="miter" fill="none" stroke="#000000" d="M-56.69362 0-28.34679-49.09822"/>
<path transform="matrix(1.00009,0,0,-1.00003,66.581638,59.367307)" stroke-width=".79701" stroke-linecap="butt" stroke-miterlimit="10" stroke-linejoin="miter" fill="none" stroke="#000000" d="M-56.69362 0 28.34679-49.09822"/>
<path transform="matrix(1.00009,0,0,-1.00003,66.581638,59.367307)" stroke-width=".3985" stroke-linecap="butt" stroke-miterlimit="10" stroke-linejoin="miter" fill="none" stroke="#000000" d="M-56.69362 0"/>
<path transform="matrix(1.00009,0,0,-1.00003,66.581638,59.367307)" d="M-48.22527 0C-48.22527 4.67699-52.01662 8.46835-56.69362 8.46835-61.3706 8.46835-65.16197 4.67699-65.16197 0-65.16197-4.67699-61.3706-8.46835-56.69362-8.46835-52.01662-8.46835-48.22527-4.67699-48.22527 0ZM-56.69362 0" fill="#ffffff"/>
<path transform="matrix(1.00009,0,0,-1.00003,66.581638,59.367307)" stroke-width=".3985" stroke-linecap="butt" stroke-miterlimit="10" stroke-linejoin="miter" fill="none" stroke="#000000" d="M-48.22527 0C-48.22527 4.67699-52.01662 8.46835-56.69362 8.46835-61.3706 8.46835-65.16197 4.67699-65.16197 0-65.16197-4.67699-61.3706-8.46835-56.69362-8.46835-52.01662-8.46835-48.22527-4.67699-48.22527 0ZM-56.69362 0"/>
<path transform="matrix(1.00009,0,0,-1.00003,66.581638,59.367307)" stroke-width=".79701" stroke-linecap="butt" stroke-miterlimit="10" stroke-linejoin="miter" fill="none" stroke="#000000" d="M-28.34679-49.09822V-49.09822"/>
<path transform="matrix(1.00009,0,0,-1.00003,66.581638,59.367307)" stroke-width=".79701" stroke-linecap="butt" stroke-miterlimit="10" stroke-linejoin="miter" fill="none" stroke="#000000" d="M-28.34679-49.09822H28.34679"/>
<path transform="matrix(1.00009,0,0,-1.00003,66.581638,59.367307)" stroke-width=".3985" stroke-linecap="butt" stroke-miterlimit="10" stroke-linejoin="miter" fill="none" stroke="#000000" d="M-28.34679-49.09822"/>
<path transform="matrix(1.00009,0,0,-1.00003,66.581638,59.367307)" d="M-19.87843-49.09822C-19.87843-44.42122-23.66978-40.62987-28.34679-40.62987-33.02379-40.62987-36.81514-44.42122-36.81514-49.09822-36.81514-53.7752-33.02379-57.56657-28.34679-57.56657-23.66978-57.56657-19.87843-53.7752-19.87843-49.09822ZM-28.34679-49.09822" fill="#ffffff"/>
<path transform="matrix(1.00009,0,0,-1.00003,66.581638,59.367307)" stroke-width=".3985" stroke-linecap="butt" stroke-miterlimit="10" stroke-linejoin="miter" fill="none" stroke="#000000" d="M-19.87843-49.09822C-19.87843-44.42122-23.66978-40.62987-28.34679-40.62987-33.02379-40.62987-36.81514-44.42122-36.81514-49.09822-36.81514-53.7752-33.02379-57.56657-28.34679-57.56657-23.66978-57.56657-19.87843-53.7752-19.87843-49.09822ZM-28.34679-49.09822"/>
<path transform="matrix(1.00009,0,0,-1.00003,66.581638,59.367307)" stroke-width=".3985" stroke-linecap="butt" stroke-miterlimit="10" stroke-linejoin="miter" fill="none" stroke="#000000" d="M28.34679-49.09822"/>
<path transform="matrix(1.00009,0,0,-1.00003,66.581638,59.367307)" d="M36.81514-49.09822C36.81514-44.42122 33.02379-40.62987 28.34679-40.62987 23.66978-40.62987 19.87843-44.42122 19.87843-49.09822 19.87843-53.7752 23.66978-57.56657 28.34679-57.56657 33.02379-57.56657 36.81514-53.7752 36.81514-49.09822ZM28.34679-49.09822" fill="#ffffff"/>
<path transform="matrix(1.00009,0,0,-1.00003,66.581638,59.367307)" stroke-width=".3985" stroke-linecap="butt" stroke-miterlimit="10" stroke-linejoin="miter" fill="none" stroke="#000000" d="M36.81514-49.09822C36.81514-44.42122 33.02379-40.62987 28.34679-40.62987 23.66978-40.62987 19.87843-44.42122 19.87843-49.09822 19.87843-53.7752 23.66978-57.56657 28.34679-57.56657 33.02379-57.56657 36.81514-53.7752 36.81514-49.09822ZM28.34679-49.09822"/>
</svg>
