<?xml version="1.0" encoding="UTF-8"?>
<svg xmlns="http://www.w3.org/2000/svg" xmlns:xlink="http://www.w3.org/1999/xlink" width="59pt" height="44pt" viewBox="0 0 59 44" version="1.1">
<g id="surface1">
<path style=" stroke:none;fill-rule:nonzero;fill:rgb(0%,0%,0%);fill-opacity:1;" d="M 7 4.152344 C 7 2.742188 5.855469 1.601563 4.449219 1.601563 C 3.039063 1.601563 1.898438 2.742188 1.898438 4.152344 C 1.898438 5.5625 3.039063 6.703125 4.449219 6.703125 C 5.855469 6.703125 7 5.5625 7 4.152344 Z M 32.511719 4.152344 C 32.511719 2.742188 31.367188 1.601563 29.960938 1.601563 C 28.550781 1.601563 27.410156 2.742188 27.410156 4.152344 C 27.410156 5.5625 28.550781 6.703125 29.960938 6.703125 C 31.367188 6.703125 32.511719 5.5625 32.511719 4.152344 Z M 58.023438 4.152344 C 58.023438 2.742188 56.882813 1.601563 55.472656 1.601563 C 54.0625 1.601563 52.921875 2.742188 52.921875 4.152344 C 52.921875 5.5625 54.0625 6.703125 55.472656 6.703125 C 56.882813 6.703125 58.023438 5.5625 58.023438 4.152344 Z M 58.023438 4.152344 "/>
<path style="fill:none;stroke-width:0.3985;stroke-linecap:butt;stroke-linejoin:miter;stroke:rgb(0%,0%,0%);stroke-opacity:1;stroke-miterlimit:10;" d="M -25.510781 25.512487 L -12.96 0.409277 " transform="matrix(1,0,0,-1.00009,29.96,34.768689)"/>
<path style="fill:none;stroke-width:0.31879;stroke-linecap:round;stroke-linejoin:round;stroke:rgb(0%,0%,0%);stroke-opacity:1;stroke-miterlimit:10;" d="M -1.193937 1.593774 C -1.096124 0.994545 -0.000816051 0.101859 0.297908 0.000544408 C -0.000821486 -0.0990501 -1.096178 -0.997076 -1.194023 -1.594566 " transform="matrix(0.44717,0.89444,0.89436,-0.44721,16.99911,34.358782)"/>
<path style="fill:none;stroke-width:0.3985;stroke-linecap:butt;stroke-linejoin:miter;stroke:rgb(0%,0%,0%);stroke-opacity:1;stroke-miterlimit:10;" d="M 25.512656 25.512487 L 12.961875 0.409277 " transform="matrix(1,0,0,-1.00009,29.96,34.768689)"/>
<path style="fill:none;stroke-width:0.31879;stroke-linecap:round;stroke-linejoin:round;stroke:rgb(0%,0%,0%);stroke-opacity:1;stroke-miterlimit:10;" d="M -1.194861 1.596243 C -1.09527 0.995259 -0.00166006 0.100727 0.29707 0.00113278 C -0.00165463 -0.100182 -1.095216 -0.996362 -1.194775 -1.592097 " transform="matrix(-0.44717,0.89444,0.89436,0.44721,42.92089,34.358782)"/>
<path style="fill:none;stroke-width:0.3985;stroke-linecap:butt;stroke-linejoin:miter;stroke:rgb(0%,0%,0%);stroke-opacity:1;stroke-miterlimit:10;" d="M -10.206094 -5.101945 C -10.206094 -3.691916 -11.346719 -2.551394 -12.756875 -2.551394 C -14.163125 -2.551394 -15.307656 -3.691916 -15.307656 -5.101945 C -15.307656 -6.511975 -14.163125 -7.652497 -12.756875 -7.652497 C -11.346719 -7.652497 -10.206094 -6.511975 -10.206094 -5.101945 Z M 15.305625 -5.101945 C 15.305625 -3.691916 14.165 -2.551394 12.754844 -2.551394 C 11.348594 -2.551394 10.204062 -3.691916 10.204062 -5.101945 C 10.204062 -6.511975 11.348594 -7.652497 12.754844 -7.652497 C 14.165 -7.652497 15.305625 -6.511975 15.305625 -5.101945 Z M 15.305625 -5.101945 " transform="matrix(1,0,0,-1.00009,29.96,34.768689)"/>
</g>
</svg>
