<svg xmlns="http://www.w3.org/2000/svg" xmlns:xlink="http://www.w3.org/1999/xlink" version="1.1" width="92" height="92" viewBox="0 0 92 92">
<path transform="matrix(1.00003,0,0,-1.00002,31.565445,60.325029)" stroke-width=".3985" stroke-linecap="butt" stroke-miterlimit="10" stroke-linejoin="miter" fill="none" stroke="#000000" d="M0 0H28.3468V28.3468H0V0"/>
<path transform="matrix(1.00003,0,0,-1.00002,31.565445,60.325029)" d="M1.99255 0C1.99255 1.10046 1.10046 1.99255 0 1.99255-1.10046 1.99255-1.99255 1.10046-1.99255 0-1.99255-1.10046-1.10046-1.99255 0-1.99255 1.10046-1.99255 1.99255-1.10046 1.99255 0ZM0 0"/>
<path transform="matrix(1.00003,0,0,-1.00002,31.565445,60.325029)" d="M30.33936 0C30.33936 1.10046 29.44728 1.99255 28.3468 1.99255 27.24634 1.99255 26.35425 1.10046 26.35425 0 26.35425-1.10046 27.24634-1.99255 28.3468-1.99255 29.44728-1.99255 30.33936-1.10046 30.33936 0ZM28.3468 0"/>
<path transform="matrix(1.00003,0,0,-1.00002,31.565445,60.325029)" d="M30.33936 28.3468C30.33936 29.44728 29.44728 30.33936 28.3468 30.33936 27.24634 30.33936 26.35425 29.44728 26.35425 28.3468 26.35425 27.24634 27.24634 26.35425 28.3468 26.35425 29.44728 26.35425 30.33936 27.24634 30.33936 28.3468ZM28.3468 28.3468"/>
<path transform="matrix(1.00003,0,0,-1.00002,31.565445,60.325029)" d="M1.99255 28.3468C1.99255 29.44728 1.10046 30.33936 0 30.33936-1.10046 30.33936-1.99255 29.44728-1.99255 28.3468-1.99255 27.24634-1.10046 26.35425 0 26.35425 1.10046 26.35425 1.99255 27.24634 1.99255 28.3468ZM0 28.3468"/>
<path transform="matrix(1.00003,0,0,-1.00002,31.565445,60.325029)" stroke-width=".3985" stroke-linecap="butt" stroke-miterlimit="10" stroke-linejoin="miter" fill="none" stroke="#000000" d="M-28.3468-28.3468V56.69362H56.69362V-28.3468H-28.3468"/>
<path transform="matrix(1.00003,0,0,-1.00002,31.565445,60.325029)" d="M-26.35425-28.3468C-26.35425-27.24634-27.24634-26.35425-28.3468-26.35425-29.44728-26.35425-30.33936-27.24634-30.33936-28.3468-30.33936-29.44728-29.44728-30.33936-28.3468-30.33936-27.24634-30.33936-26.35425-29.44728-26.35425-28.3468ZM-28.3468-28.3468"/>
<path transform="matrix(1.00003,0,0,-1.00002,31.565445,60.325029)" d="M-26.35425 56.69362C-26.35425 57.79408-27.24634 58.68617-28.3468 58.68617-29.44728 58.68617-30.33936 57.79408-30.33936 56.69362-30.33936 55.59314-29.44728 54.70107-28.3468 54.70107-27.24634 54.70107-26.35425 55.59314-26.35425 56.69362ZM-28.3468 56.69362"/>
<path transform="matrix(1.00003,0,0,-1.00002,31.565445,60.325029)" d="M58.68617 56.69362C58.68617 57.79408 57.79408 58.68617 56.69362 58.68617 55.59314 58.68617 54.70107 57.79408 54.70107 56.69362 54.70107 55.59314 55.59314 54.70107 56.69362 54.70107 57.79408 54.70107 58.68617 55.59314 58.68617 56.69362ZM56.69362 56.69362"/>
<path transform="matrix(1.00003,0,0,-1.00002,31.565445,60.325029)" d="M58.68617-28.3468C58.68617-27.24634 57.79408-26.35425 56.69362-26.35425 55.59314-26.35425 54.70107-27.24634 54.70107-28.3468 54.70107-29.44728 55.59314-30.33936 56.69362-30.33936 57.79408-30.33936 58.68617-29.44728 58.68617-28.3468ZM56.69362-28.3468"/>
<path transform="matrix(1.00003,0,0,-1.00002,31.565445,60.325029)" stroke-width=".3985" stroke-linecap="butt" stroke-miterlimit="10" stroke-linejoin="miter" fill="none" stroke="#000000" d="M0 0-28.3468-28.3468M28.3468 0 56.69362-28.3468M28.3468 28.3468 56.69362 56.69362M0 28.3468-28.3468 56.69362"/>
</svg>
