<svg xmlns="http://www.w3.org/2000/svg" xmlns:xlink="http://www.w3.org/1999/xlink" version="1.1" width="78" height="78" viewBox="0 0 78 78">
<path transform="matrix(1.00005,0,0,-1.00002,31.565728,46.152746)" stroke-width=".3985" stroke-linecap="butt" stroke-miterlimit="10" stroke-linejoin="miter" fill="none" stroke="#000000" d="M0 0H28.3468V28.3468H0V0"/>
<path transform="matrix(1.00005,0,0,-1.00002,31.565728,46.152746)" d="M1.99255 0C1.99255 1.10046 1.10046 1.99255 0 1.99255-1.10046 1.99255-1.99255 1.10046-1.99255 0-1.99255-1.10046-1.10046-1.99255 0-1.99255 1.10046-1.99255 1.99255-1.10046 1.99255 0ZM0 0"/>
<path transform="matrix(1.00005,0,0,-1.00002,31.565728,46.152746)" d="M30.33936 0C30.33936 1.10046 29.44728 1.99255 28.3468 1.99255 27.24634 1.99255 26.35425 1.10046 26.35425 0 26.35425-1.10046 27.24634-1.99255 28.3468-1.99255 29.44728-1.99255 30.33936-1.10046 30.33936 0ZM28.3468 0"/>
<path transform="matrix(1.00005,0,0,-1.00002,31.565728,46.152746)" d="M30.33936 28.3468C30.33936 29.44728 29.44728 30.33936 28.3468 30.33936 27.24634 30.33936 26.35425 29.44728 26.35425 28.3468 26.35425 27.24634 27.24634 26.35425 28.3468 26.35425 29.44728 26.35425 30.33936 27.24634 30.33936 28.3468ZM28.3468 28.3468"/>
<path transform="matrix(1.00005,0,0,-1.00002,31.565728,46.152746)" d="M1.99255 28.3468C1.99255 29.44728 1.10046 30.33936 0 30.33936-1.10046 30.33936-1.99255 29.44728-1.99255 28.3468-1.99255 27.24634-1.10046 26.35425 0 26.35425 1.10046 26.35425 1.99255 27.24634 1.99255 28.3468ZM0 28.3468"/>
<path transform="matrix(1.00005,0,0,-1.00002,31.565728,46.152746)" stroke-width=".3985" stroke-linecap="butt" stroke-miterlimit="10" stroke-linejoin="miter" fill="none" stroke="#000000" d="M-28.3468-28.3468V42.5202H42.5202V-28.3468H-28.3468"/>
<path transform="matrix(1.00005,0,0,-1.00002,31.565728,46.152746)" d="M-26.35425-28.3468C-26.35425-27.24634-27.24634-26.35425-28.3468-26.35425-29.44728-26.35425-30.33936-27.24634-30.33936-28.3468-30.33936-29.44728-29.44728-30.33936-28.3468-30.33936-27.24634-30.33936-26.35425-29.44728-26.35425-28.3468ZM-28.3468-28.3468"/>
<path transform="matrix(1.00005,0,0,-1.00002,31.565728,46.152746)" d="M-26.35425 42.5202C-26.35425 43.62067-27.24634 44.51276-28.3468 44.51276-29.44728 44.51276-30.33936 43.62067-30.33936 42.5202-30.33936 41.41972-29.44728 40.52765-28.3468 40.52765-27.24634 40.52765-26.35425 41.41972-26.35425 42.5202ZM-28.3468 42.5202"/>
<path transform="matrix(1.00005,0,0,-1.00002,31.565728,46.152746)" d="M44.51276 42.5202C44.51276 43.62067 43.62067 44.51276 42.5202 44.51276 41.41972 44.51276 40.52765 43.62067 40.52765 42.5202 40.52765 41.41972 41.41972 40.52765 42.5202 40.52765 43.62067 40.52765 44.51276 41.41972 44.51276 42.5202ZM42.5202 42.5202"/>
<path transform="matrix(1.00005,0,0,-1.00002,31.565728,46.152746)" d="M44.51276-28.3468C44.51276-27.24634 43.62067-26.35425 42.5202-26.35425 41.41972-26.35425 40.52765-27.24634 40.52765-28.3468 40.52765-29.44728 41.41972-30.33936 42.5202-30.33936 43.62067-30.33936 44.51276-29.44728 44.51276-28.3468ZM42.5202-28.3468"/>
<path transform="matrix(1.00005,0,0,-1.00002,31.565728,46.152746)" stroke-width=".3985" stroke-linecap="butt" stroke-miterlimit="10" stroke-linejoin="miter" fill="none" stroke="#000000" d="M0 0-28.3468-28.3468M28.3468 0 42.5202-28.3468M28.3468 28.3468 42.5202 42.5202M0 28.3468-28.3468 42.5202"/>
</svg>
