<?xml version="1.0" encoding="UTF-8"?>
<svg xmlns="http://www.w3.org/2000/svg" xmlns:xlink="http://www.w3.org/1999/xlink" width="162pt" height="60pt" viewBox="0 0 162 60" version="1.1">
<g id="surface1">
<path style=" stroke:none;fill-rule:nonzero;fill:rgb(0%,0%,0%);fill-opacity:1;" d="M 7.273438 55.3125 C 7.273438 53.828125 6.070313 52.625 4.585938 52.625 C 3.097656 52.625 1.894531 53.828125 1.894531 55.3125 C 1.894531 56.800781 3.097656 58.003906 4.585938 58.003906 C 6.070313 58.003906 7.273438 56.800781 7.273438 55.3125 Z M 7.273438 55.3125 "/>
<path style=" stroke:none;fill-rule:nonzero;fill:rgb(0%,0%,0%);fill-opacity:1;" d="M 7.273438 4.289063 C 7.273438 2.804688 6.070313 1.597656 4.585938 1.597656 C 3.097656 1.597656 1.894531 2.804688 1.894531 4.289063 C 1.894531 5.773438 3.097656 6.980469 4.585938 6.980469 C 6.070313 6.980469 7.273438 5.773438 7.273438 4.289063 Z M 7.273438 4.289063 "/>
<path style=" stroke:none;fill-rule:nonzero;fill:rgb(0%,0%,0%);fill-opacity:1;" d="M 32.785156 55.3125 C 32.785156 53.828125 31.582031 52.625 30.097656 52.625 C 28.613281 52.625 27.40625 53.828125 27.40625 55.3125 C 27.40625 56.800781 28.613281 58.003906 30.097656 58.003906 C 31.582031 58.003906 32.785156 56.800781 32.785156 55.3125 Z M 32.785156 55.3125 "/>
<path style=" stroke:none;fill-rule:nonzero;fill:rgb(0%,0%,0%);fill-opacity:1;" d="M 32.785156 4.289063 C 32.785156 2.804688 31.582031 1.597656 30.097656 1.597656 C 28.613281 1.597656 27.40625 2.804688 27.40625 4.289063 C 27.40625 5.773438 28.613281 6.980469 30.097656 6.980469 C 31.582031 6.980469 32.785156 5.773438 32.785156 4.289063 Z M 32.785156 4.289063 "/>
<path style=" stroke:none;fill-rule:nonzero;fill:rgb(0%,0%,0%);fill-opacity:1;" d="M 58.300781 55.3125 C 58.300781 53.828125 57.09375 52.625 55.609375 52.625 C 54.125 52.625 52.917969 53.828125 52.917969 55.3125 C 52.917969 56.800781 54.125 58.003906 55.609375 58.003906 C 57.09375 58.003906 58.300781 56.800781 58.300781 55.3125 Z M 58.300781 55.3125 "/>
<path style=" stroke:none;fill-rule:nonzero;fill:rgb(0%,0%,0%);fill-opacity:1;" d="M 58.300781 4.289063 C 58.300781 2.804688 57.09375 1.597656 55.609375 1.597656 C 54.125 1.597656 52.917969 2.804688 52.917969 4.289063 C 52.917969 5.773438 54.125 6.980469 55.609375 6.980469 C 57.09375 6.980469 58.300781 5.773438 58.300781 4.289063 Z M 58.300781 4.289063 "/>
<path style=" stroke:none;fill-rule:nonzero;fill:rgb(0%,0%,0%);fill-opacity:1;" d="M 83.8125 55.3125 C 83.8125 53.828125 82.605469 52.625 81.121094 52.625 C 79.636719 52.625 78.429688 53.828125 78.429688 55.3125 C 78.429688 56.800781 79.636719 58.003906 81.121094 58.003906 C 82.605469 58.003906 83.8125 56.800781 83.8125 55.3125 Z M 83.8125 55.3125 "/>
<path style=" stroke:none;fill-rule:nonzero;fill:rgb(0%,0%,0%);fill-opacity:1;" d="M 83.8125 4.289063 C 83.8125 2.804688 82.605469 1.597656 81.121094 1.597656 C 79.636719 1.597656 78.429688 2.804688 78.429688 4.289063 C 78.429688 5.773438 79.636719 6.980469 81.121094 6.980469 C 82.605469 6.980469 83.8125 5.773438 83.8125 4.289063 Z M 83.8125 4.289063 "/>
<path style=" stroke:none;fill-rule:nonzero;fill:rgb(0%,0%,0%);fill-opacity:1;" d="M 109.324219 55.3125 C 109.324219 53.828125 108.117188 52.625 106.632813 52.625 C 105.148438 52.625 103.941406 53.828125 103.941406 55.3125 C 103.941406 56.800781 105.148438 58.003906 106.632813 58.003906 C 108.117188 58.003906 109.324219 56.800781 109.324219 55.3125 Z M 109.324219 55.3125 "/>
<path style=" stroke:none;fill-rule:nonzero;fill:rgb(0%,0%,0%);fill-opacity:1;" d="M 109.324219 4.289063 C 109.324219 2.804688 108.117188 1.597656 106.632813 1.597656 C 105.148438 1.597656 103.941406 2.804688 103.941406 4.289063 C 103.941406 5.773438 105.148438 6.980469 106.632813 6.980469 C 108.117188 6.980469 109.324219 5.773438 109.324219 4.289063 Z M 109.324219 4.289063 "/>
<path style=" stroke:none;fill-rule:nonzero;fill:rgb(0%,0%,0%);fill-opacity:1;" d="M 134.835938 55.3125 C 134.835938 53.828125 133.628906 52.625 132.144531 52.625 C 130.660156 52.625 129.453125 53.828125 129.453125 55.3125 C 129.453125 56.800781 130.660156 58.003906 132.144531 58.003906 C 133.628906 58.003906 134.835938 56.800781 134.835938 55.3125 Z M 134.835938 55.3125 "/>
<path style=" stroke:none;fill-rule:nonzero;fill:rgb(0%,0%,0%);fill-opacity:1;" d="M 134.835938 4.289063 C 134.835938 2.804688 133.628906 1.597656 132.144531 1.597656 C 130.660156 1.597656 129.453125 2.804688 129.453125 4.289063 C 129.453125 5.773438 130.660156 6.980469 132.144531 6.980469 C 133.628906 6.980469 134.835938 5.773438 134.835938 4.289063 Z M 134.835938 4.289063 "/>
<path style=" stroke:none;fill-rule:nonzero;fill:rgb(0%,0%,0%);fill-opacity:1;" d="M 160.347656 55.3125 C 160.347656 53.828125 159.140625 52.625 157.65625 52.625 C 156.171875 52.625 154.96875 53.828125 154.96875 55.3125 C 154.96875 56.800781 156.171875 58.003906 157.65625 58.003906 C 159.140625 58.003906 160.347656 56.800781 160.347656 55.3125 Z M 160.347656 55.3125 "/>
<path style=" stroke:none;fill-rule:nonzero;fill:rgb(0%,0%,0%);fill-opacity:1;" d="M 160.347656 4.289063 C 160.347656 2.804688 159.140625 1.597656 157.65625 1.597656 C 156.171875 1.597656 154.96875 2.804688 154.96875 4.289063 C 154.96875 5.773438 156.171875 6.980469 157.65625 6.980469 C 159.140625 6.980469 160.347656 5.773438 160.347656 4.289063 Z M 160.347656 4.289063 "/>
</g>
</svg>
