<?xml version="1.0" encoding="UTF-8"?>
<svg xmlns="http://www.w3.org/2000/svg" xmlns:xlink="http://www.w3.org/1999/xlink" width="161pt" height="59pt" viewBox="0 0 161 59" version="1.1">
<g id="surface1">
<path style=" stroke:none;fill-rule:nonzero;fill:rgb(0%,0%,0%);fill-opacity:1;" d="M 6.972656 55.3125 C 6.972656 53.828125 5.769531 52.625 4.28125 52.625 C 2.796875 52.625 1.59375 53.828125 1.59375 55.3125 C 1.59375 56.800781 2.796875 58.003906 4.28125 58.003906 C 5.769531 58.003906 6.972656 56.800781 6.972656 55.3125 Z M 6.972656 55.3125 "/>
<path style=" stroke:none;fill-rule:nonzero;fill:rgb(0%,0%,0%);fill-opacity:1;" d="M 6.972656 4.289063 C 6.972656 2.804688 5.769531 1.597656 4.28125 1.597656 C 2.796875 1.597656 1.59375 2.804688 1.59375 4.289063 C 1.59375 5.773438 2.796875 6.980469 4.28125 6.980469 C 5.769531 6.980469 6.972656 5.773438 6.972656 4.289063 Z M 6.972656 4.289063 "/>
<path style=" stroke:none;fill-rule:nonzero;fill:rgb(0%,0%,0%);fill-opacity:1;" d="M 32.484375 55.3125 C 32.484375 53.828125 31.28125 52.625 29.796875 52.625 C 28.308594 52.625 27.105469 53.828125 27.105469 55.3125 C 27.105469 56.800781 28.308594 58.003906 29.796875 58.003906 C 31.28125 58.003906 32.484375 56.800781 32.484375 55.3125 Z M 32.484375 55.3125 "/>
<path style=" stroke:none;fill-rule:nonzero;fill:rgb(0%,0%,0%);fill-opacity:1;" d="M 32.484375 4.289063 C 32.484375 2.804688 31.28125 1.597656 29.796875 1.597656 C 28.308594 1.597656 27.105469 2.804688 27.105469 4.289063 C 27.105469 5.773438 28.308594 6.980469 29.796875 6.980469 C 31.28125 6.980469 32.484375 5.773438 32.484375 4.289063 Z M 32.484375 4.289063 "/>
<path style=" stroke:none;fill-rule:nonzero;fill:rgb(0%,0%,0%);fill-opacity:1;" d="M 58 55.3125 C 58 53.828125 56.792969 52.625 55.308594 52.625 C 53.824219 52.625 52.617188 53.828125 52.617188 55.3125 C 52.617188 56.800781 53.824219 58.003906 55.308594 58.003906 C 56.792969 58.003906 58 56.800781 58 55.3125 Z M 58 55.3125 "/>
<path style=" stroke:none;fill-rule:nonzero;fill:rgb(0%,0%,0%);fill-opacity:1;" d="M 58 4.289063 C 58 2.804688 56.792969 1.597656 55.308594 1.597656 C 53.824219 1.597656 52.617188 2.804688 52.617188 4.289063 C 52.617188 5.773438 53.824219 6.980469 55.308594 6.980469 C 56.792969 6.980469 58 5.773438 58 4.289063 Z M 58 4.289063 "/>
<path style=" stroke:none;fill-rule:nonzero;fill:rgb(0%,0%,0%);fill-opacity:1;" d="M 83.511719 55.3125 C 83.511719 53.828125 82.308594 52.625 80.820313 52.625 C 79.335938 52.625 78.132813 53.828125 78.132813 55.3125 C 78.132813 56.800781 79.335938 58.003906 80.820313 58.003906 C 82.308594 58.003906 83.511719 56.800781 83.511719 55.3125 Z M 83.511719 55.3125 "/>
<path style=" stroke:none;fill-rule:nonzero;fill:rgb(0%,0%,0%);fill-opacity:1;" d="M 83.511719 4.289063 C 83.511719 2.804688 82.308594 1.597656 80.820313 1.597656 C 79.335938 1.597656 78.132813 2.804688 78.132813 4.289063 C 78.132813 5.773438 79.335938 6.980469 80.820313 6.980469 C 82.308594 6.980469 83.511719 5.773438 83.511719 4.289063 Z M 83.511719 4.289063 "/>
<path style=" stroke:none;fill-rule:nonzero;fill:rgb(0%,0%,0%);fill-opacity:1;" d="M 109.023438 55.3125 C 109.023438 53.828125 107.820313 52.625 106.335938 52.625 C 104.847656 52.625 103.644531 53.828125 103.644531 55.3125 C 103.644531 56.800781 104.847656 58.003906 106.335938 58.003906 C 107.820313 58.003906 109.023438 56.800781 109.023438 55.3125 Z M 109.023438 55.3125 "/>
<path style=" stroke:none;fill-rule:nonzero;fill:rgb(0%,0%,0%);fill-opacity:1;" d="M 109.023438 4.289063 C 109.023438 2.804688 107.820313 1.597656 106.335938 1.597656 C 104.847656 1.597656 103.644531 2.804688 103.644531 4.289063 C 103.644531 5.773438 104.847656 6.980469 106.335938 6.980469 C 107.820313 6.980469 109.023438 5.773438 109.023438 4.289063 Z M 109.023438 4.289063 "/>
<path style=" stroke:none;fill-rule:nonzero;fill:rgb(0%,0%,0%);fill-opacity:1;" d="M 134.539063 55.3125 C 134.539063 53.828125 133.332031 52.625 131.847656 52.625 C 130.363281 52.625 129.15625 53.828125 129.15625 55.3125 C 129.15625 56.800781 130.363281 58.003906 131.847656 58.003906 C 133.332031 58.003906 134.539063 56.800781 134.539063 55.3125 Z M 134.539063 55.3125 "/>
<path style=" stroke:none;fill-rule:nonzero;fill:rgb(0%,0%,0%);fill-opacity:1;" d="M 134.539063 4.289063 C 134.539063 2.804688 133.332031 1.597656 131.847656 1.597656 C 130.363281 1.597656 129.15625 2.804688 129.15625 4.289063 C 129.15625 5.773438 130.363281 6.980469 131.847656 6.980469 C 133.332031 6.980469 134.539063 5.773438 134.539063 4.289063 Z M 134.539063 4.289063 "/>
<path style=" stroke:none;fill-rule:nonzero;fill:rgb(0%,0%,0%);fill-opacity:1;" d="M 160.050781 55.3125 C 160.050781 53.828125 158.847656 52.625 157.359375 52.625 C 155.875 52.625 154.671875 53.828125 154.671875 55.3125 C 154.671875 56.800781 155.875 58.003906 157.359375 58.003906 C 158.847656 58.003906 160.050781 56.800781 160.050781 55.3125 Z M 160.050781 55.3125 "/>
<path style=" stroke:none;fill-rule:nonzero;fill:rgb(0%,0%,0%);fill-opacity:1;" d="M 160.050781 4.289063 C 160.050781 2.804688 158.847656 1.597656 157.359375 1.597656 C 155.875 1.597656 154.671875 2.804688 154.671875 4.289063 C 154.671875 5.773438 155.875 6.980469 157.359375 6.980469 C 158.847656 6.980469 160.050781 5.773438 160.050781 4.289063 Z M 160.050781 4.289063 "/>
</g>
</svg>
