<?xml version="1.0" encoding="UTF-8"?>
<svg xmlns="http://www.w3.org/2000/svg" xmlns:xlink="http://www.w3.org/1999/xlink" width="156pt" height="56pt" viewBox="0 0 156 56" version="1.1">
<g id="surface1">
<path style="fill:none;stroke-width:0.3985;stroke-linecap:butt;stroke-linejoin:miter;stroke:rgb(0%,0%,0%);stroke-opacity:1;stroke-miterlimit:10;" d="M -51.025531 0.000677529 L 0.0018125 25.510866 L 51.02525 0.000677529 " transform="matrix(1,0,0,-1.00006,77.631,29.145209)"/>
<path style=" stroke:none;fill-rule:nonzero;fill:rgb(0%,0%,0%);fill-opacity:1;" d="M 28.601563 29.144531 C 28.601563 28.042969 27.707031 27.152344 26.605469 27.152344 C 25.507813 27.152344 24.613281 28.042969 24.613281 29.144531 C 24.613281 30.246094 25.507813 31.136719 26.605469 31.136719 C 27.707031 31.136719 28.601563 30.246094 28.601563 29.144531 Z M 28.601563 29.144531 "/>
<path style=" stroke:none;fill-rule:nonzero;fill:rgb(0%,0%,0%);fill-opacity:1;" d="M 79.625 3.632813 C 79.625 2.53125 78.730469 1.640625 77.632813 1.640625 C 76.53125 1.640625 75.636719 2.53125 75.636719 3.632813 C 75.636719 4.730469 76.53125 5.625 77.632813 5.625 C 78.730469 5.625 79.625 4.730469 79.625 3.632813 Z M 79.625 3.632813 "/>
<path style=" stroke:none;fill-rule:nonzero;fill:rgb(0%,0%,0%);fill-opacity:1;" d="M 130.648438 29.144531 C 130.648438 28.042969 129.753906 27.152344 128.65625 27.152344 C 127.554688 27.152344 126.664063 28.042969 126.664063 29.144531 C 126.664063 30.246094 127.554688 31.136719 128.65625 31.136719 C 129.753906 31.136719 130.648438 30.246094 130.648438 29.144531 Z M 130.648438 29.144531 "/>
<path style="fill:none;stroke-width:0.3985;stroke-linecap:butt;stroke-linejoin:miter;stroke:rgb(0%,0%,0%);stroke-opacity:1;stroke-miterlimit:10;" d="M -51.025531 0.000677529 L -63.779438 -12.75637 M -51.025531 0.000677529 L -51.025531 -12.75637 M -51.025531 0.000677529 L -38.267719 -12.75637 " transform="matrix(1,0,0,-1.00006,77.631,29.145209)"/>
<path style="fill:none;stroke-width:0.3985;stroke-linecap:butt;stroke-linejoin:miter;stroke:rgb(0%,0%,0%);stroke-opacity:1;stroke-dasharray:2.98883,2.98883;stroke-miterlimit:10;" d="M -63.779438 -12.75637 L -76.53725 -25.513417 M -51.025531 -12.75637 L -51.025531 -25.513417 M -38.267719 -12.75637 L -25.513813 -25.513417 " transform="matrix(1,0,0,-1.00006,77.631,29.145209)"/>
<path style="fill:none;stroke-width:0.3985;stroke-linecap:butt;stroke-linejoin:miter;stroke:rgb(0%,0%,0%);stroke-opacity:1;stroke-miterlimit:10;" d="M 51.02525 0.000677529 L 63.779156 -12.75637 M 51.02525 0.000677529 L 51.02525 -12.75637 M 51.02525 0.000677529 L 38.267438 -12.75637 " transform="matrix(1,0,0,-1.00006,77.631,29.145209)"/>
<path style="fill:none;stroke-width:0.3985;stroke-linecap:butt;stroke-linejoin:miter;stroke:rgb(0%,0%,0%);stroke-opacity:1;stroke-dasharray:2.98883,2.98883;stroke-miterlimit:10;" d="M 63.779156 -12.75637 L 76.536969 -25.513417 M 51.02525 -12.75637 L 51.02525 -25.513417 M 38.267438 -12.75637 L 25.513531 -25.513417 " transform="matrix(1,0,0,-1.00006,77.631,29.145209)"/>
<path style="fill:none;stroke-width:0.3985;stroke-linecap:butt;stroke-linejoin:miter;stroke:rgb(0%,0%,0%);stroke-opacity:1;stroke-miterlimit:10;" d="M 0.0018125 25.510866 L -6.377094 0.000677529 M 0.0018125 25.510866 L 0.0018125 0.000677529 M 0.0018125 25.510866 L 6.376812 0.000677529 " transform="matrix(1,0,0,-1.00006,77.631,29.145209)"/>
<path style="fill:none;stroke-width:0.3985;stroke-linecap:butt;stroke-linejoin:miter;stroke:rgb(0%,0%,0%);stroke-opacity:1;stroke-dasharray:2.98883,2.98883;stroke-miterlimit:10;" d="M -6.377094 0.000677529 L -12.756 -25.513417 M 0.0018125 0.000677529 L 0.0018125 -25.513417 M 6.376812 0.000677529 L 12.755719 -25.513417 " transform="matrix(1,0,0,-1.00006,77.631,29.145209)"/>
</g>
</svg>
