<?xml version="1.0" encoding="UTF-8"?>
<svg xmlns="http://www.w3.org/2000/svg" xmlns:xlink="http://www.w3.org/1999/xlink" width="58pt" height="84pt" viewBox="0 0 58 84" version="1.1">
<g id="surface1">
<path style="fill:none;stroke-width:0.3985;stroke-linecap:butt;stroke-linejoin:miter;stroke:rgb(0%,0%,0%);stroke-opacity:1;stroke-miterlimit:10;" d="M -25.513881 -0.00131638 L 25.512443 -0.00131638 L 25.512443 51.023476 L -25.513881 51.023476 L -25.513881 -0.00131638 L 25.512443 51.023476 M -25.513881 51.023476 L 25.512443 -0.00131638 " transform="matrix(1.00002,0,0,-1.00005,28.729235,80.170559)"/>
<path style=" stroke:none;fill-rule:nonzero;fill:rgb(0%,0%,0%);fill-opacity:1;" d="M 5.210938 80.171875 C 5.210938 79.070313 4.316406 78.179688 3.214844 78.179688 C 2.117188 78.179688 1.222656 79.070313 1.222656 80.171875 C 1.222656 81.269531 2.117188 82.164063 3.214844 82.164063 C 4.316406 82.164063 5.210938 81.269531 5.210938 80.171875 Z M 5.210938 80.171875 "/>
<path style=" stroke:none;fill-rule:nonzero;fill:rgb(0%,0%,0%);fill-opacity:1;" d="M 56.234375 80.171875 C 56.234375 79.070313 55.34375 78.179688 54.242188 78.179688 C 53.140625 78.179688 52.25 79.070313 52.25 80.171875 C 52.25 81.269531 53.140625 82.164063 54.242188 82.164063 C 55.34375 82.164063 56.234375 81.269531 56.234375 80.171875 Z M 56.234375 80.171875 "/>
<path style=" stroke:none;fill-rule:nonzero;fill:rgb(0%,0%,0%);fill-opacity:1;" d="M 56.234375 29.144531 C 56.234375 28.042969 55.34375 27.152344 54.242188 27.152344 C 53.140625 27.152344 52.25 28.042969 52.25 29.144531 C 52.25 30.246094 53.140625 31.136719 54.242188 31.136719 C 55.34375 31.136719 56.234375 30.246094 56.234375 29.144531 Z M 56.234375 29.144531 "/>
<path style=" stroke:none;fill-rule:nonzero;fill:rgb(0%,0%,0%);fill-opacity:1;" d="M 5.210938 29.144531 C 5.210938 28.042969 4.316406 27.152344 3.214844 27.152344 C 2.117188 27.152344 1.222656 28.042969 1.222656 29.144531 C 1.222656 30.246094 2.117188 31.136719 3.214844 31.136719 C 4.316406 31.136719 5.210938 30.246094 5.210938 29.144531 Z M 5.210938 29.144531 "/>
<path style=" stroke:none;fill-rule:nonzero;fill:rgb(0%,0%,0%);fill-opacity:1;" d="M 30.722656 54.65625 C 30.722656 53.558594 29.828125 52.664063 28.730469 52.664063 C 27.628906 52.664063 26.738281 53.558594 26.738281 54.65625 C 26.738281 55.757813 27.628906 56.648438 28.730469 56.648438 C 29.828125 56.648438 30.722656 55.757813 30.722656 54.65625 Z M 30.722656 54.65625 "/>
<path style="fill:none;stroke-width:0.3985;stroke-linecap:butt;stroke-linejoin:miter;stroke:rgb(0%,0%,0%);stroke-opacity:1;stroke-miterlimit:10;" d="M -25.513881 51.023476 L 0.00123415 76.533919 L 25.512443 51.023476 " transform="matrix(1.00002,0,0,-1.00005,28.729235,80.170559)"/>
<path style=" stroke:none;fill-rule:nonzero;fill:rgb(0%,0%,0%);fill-opacity:1;" d="M 30.722656 3.632813 C 30.722656 2.53125 29.828125 1.636719 28.730469 1.636719 C 27.628906 1.636719 26.738281 2.53125 26.738281 3.632813 C 26.738281 4.730469 27.628906 5.625 28.730469 5.625 C 29.828125 5.625 30.722656 4.730469 30.722656 3.632813 Z M 30.722656 3.632813 "/>
</g>
</svg>
