<svg xmlns="http://www.w3.org/2000/svg" xmlns:xlink="http://www.w3.org/1999/xlink" xmlns:inkscape="http://www.inkscape.org/namespaces/inkscape" version="1.1" width="125" height="85" viewBox="0 0 125 85">
<path transform="matrix(1.00005,0,0,-1.00008,3.291214,82.371318)" d="M1.39478 0C1.39478 .77031 .77031 1.39478 0 1.39478-.77031 1.39478-1.39478 .77031-1.39478 0-1.39478-.77031-.77031-1.39478 0-1.39478 .77031-1.39478 1.39478-.77031 1.39478 0ZM0 0"/>
<path transform="matrix(1.00005,0,0,-1.00008,3.291214,82.371318)" d="M21.23744 0C21.23744 .77031 20.61298 1.39478 19.84267 1.39478 19.07234 1.39478 18.44788 .77031 18.44788 0 18.44788-.77031 19.07234-1.39478 19.84267-1.39478 20.61298-1.39478 21.23744-.77031 21.23744 0ZM19.84267 0"/>
<path transform="matrix(1.00005,0,0,-1.00008,3.291214,82.371318)" d="M41.08012 0C41.08012 .77031 40.45566 1.39478 39.68535 1.39478 38.91504 1.39478 38.29057 .77031 38.29057 0 38.29057-.77031 38.91504-1.39478 39.68535-1.39478 40.45566-1.39478 41.08012-.77031 41.08012 0ZM39.68535 0"/>
<path transform="matrix(1.00005,0,0,-1.00008,3.291214,82.371318)" d="M60.9228 0C60.9228 .77031 60.29834 1.39478 59.52802 1.39478 58.7577 1.39478 58.13324 .77031 58.13324 0 58.13324-.77031 58.7577-1.39478 59.52802-1.39478 60.29834-1.39478 60.9228-.77031 60.9228 0ZM59.52802 0"/>
<path transform="matrix(1.00005,0,0,-1.00008,3.291214,82.371318)" d="M80.76549 0C80.76549 .77031 80.14102 1.39478 79.37071 1.39478 78.60039 1.39478 77.97592 .77031 77.97592 0 77.97592-.77031 78.60039-1.39478 79.37071-1.39478 80.14102-1.39478 80.76549-.77031 80.76549 0ZM79.37071 0"/>
<path transform="matrix(1.00005,0,0,-1.00008,3.291214,82.371318)" d="M100.60817 0C100.60817 .77031 99.9837 1.39478 99.2134 1.39478 98.44308 1.39478 97.81862 .77031 97.81862 0 97.81862-.77031 98.44308-1.39478 99.2134-1.39478 99.9837-1.39478 100.60817-.77031 100.60817 0ZM99.2134 0"/>
<path transform="matrix(1.00005,0,0,-1.00008,3.291214,82.371318)" d="M120.45085 0C120.45085 .77031 119.82639 1.39478 119.05606 1.39478 118.28575 1.39478 117.66129 .77031 117.66129 0 117.66129-.77031 118.28575-1.39478 119.05606-1.39478 119.82639-1.39478 120.45085-.77031 120.45085 0ZM119.05606 0"/>
<path transform="matrix(1.00005,0,0,-1.00008,3.291214,82.371318)" d="M1.39478 19.84267C1.39478 20.61298 .77031 21.23744 0 21.23744-.77031 21.23744-1.39478 20.61298-1.39478 19.84267-1.39478 19.07234-.77031 18.44788 0 18.44788 .77031 18.44788 1.39478 19.07234 1.39478 19.84267ZM0 19.84267"/>
<path transform="matrix(1.00005,0,0,-1.00008,3.291214,82.371318)" d="M1.39478 39.68535C1.39478 40.45566 .77031 41.08012 0 41.08012-.77031 41.08012-1.39478 40.45566-1.39478 39.68535-1.39478 38.91504-.77031 38.29057 0 38.29057 .77031 38.29057 1.39478 38.91504 1.39478 39.68535ZM0 39.68535"/>
<path transform="matrix(1.00005,0,0,-1.00008,3.291214,82.371318)" d="M1.39478 59.52802C1.39478 60.29834 .77031 60.9228 0 60.9228-.77031 60.9228-1.39478 60.29834-1.39478 59.52802-1.39478 58.7577-.77031 58.13324 0 58.13324 .77031 58.13324 1.39478 58.7577 1.39478 59.52802ZM0 59.52802"/>
<path transform="matrix(1.00005,0,0,-1.00008,3.291214,82.371318)" d="M1.39478 79.37071C1.39478 80.14102 .77031 80.76549 0 80.76549-.77031 80.76549-1.39478 80.14102-1.39478 79.37071-1.39478 78.60039-.77031 77.97592 0 77.97592 .77031 77.97592 1.39478 78.60039 1.39478 79.37071ZM0 79.37071"/>
</svg>
