<?xml version="1.0" encoding="UTF-8"?>
<svg xmlns="http://www.w3.org/2000/svg" xmlns:xlink="http://www.w3.org/1999/xlink" width="125pt" height="84pt" viewBox="0 0 125 84" version="1.1">
<g id="surface1">
<path style=" stroke:none;fill-rule:nonzero;fill:rgb(0%,0%,0%);fill-opacity:1;" d="M 4.382813 81.371094 C 4.382813 80.601563 3.757813 79.976563 2.988281 79.976563 C 2.21875 79.976563 1.59375 80.601563 1.59375 81.371094 C 1.59375 82.140625 2.21875 82.765625 2.988281 82.765625 C 3.757813 82.765625 4.382813 82.140625 4.382813 81.371094 Z M 4.382813 81.371094 "/>
<path style=" stroke:none;fill-rule:nonzero;fill:rgb(0%,0%,0%);fill-opacity:1;" d="M 24.226563 81.371094 C 24.226563 80.601563 23.601563 79.976563 22.832031 79.976563 C 22.0625 79.976563 21.4375 80.601563 21.4375 81.371094 C 21.4375 82.140625 22.0625 82.765625 22.832031 82.765625 C 23.601563 82.765625 24.226563 82.140625 24.226563 81.371094 Z M 24.226563 81.371094 "/>
<path style=" stroke:none;fill-rule:nonzero;fill:rgb(0%,0%,0%);fill-opacity:1;" d="M 44.070313 81.371094 C 44.070313 80.601563 43.445313 79.976563 42.675781 79.976563 C 41.90625 79.976563 41.28125 80.601563 41.28125 81.371094 C 41.28125 82.140625 41.90625 82.765625 42.675781 82.765625 C 43.445313 82.765625 44.070313 82.140625 44.070313 81.371094 Z M 44.070313 81.371094 "/>
<path style=" stroke:none;fill-rule:nonzero;fill:rgb(0%,0%,0%);fill-opacity:1;" d="M 63.917969 81.371094 C 63.917969 80.601563 63.292969 79.976563 62.519531 79.976563 C 61.75 79.976563 61.125 80.601563 61.125 81.371094 C 61.125 82.140625 61.75 82.765625 62.519531 82.765625 C 63.292969 82.765625 63.917969 82.140625 63.917969 81.371094 Z M 63.917969 81.371094 "/>
<path style=" stroke:none;fill-rule:nonzero;fill:rgb(0%,0%,0%);fill-opacity:1;" d="M 83.761719 81.371094 C 83.761719 80.601563 83.136719 79.976563 82.367188 79.976563 C 81.59375 79.976563 80.972656 80.601563 80.972656 81.371094 C 80.972656 82.140625 81.59375 82.765625 82.367188 82.765625 C 83.136719 82.765625 83.761719 82.140625 83.761719 81.371094 Z M 83.761719 81.371094 "/>
<path style=" stroke:none;fill-rule:nonzero;fill:rgb(0%,0%,0%);fill-opacity:1;" d="M 103.605469 81.371094 C 103.605469 80.601563 102.980469 79.976563 102.210938 79.976563 C 101.441406 79.976563 100.816406 80.601563 100.816406 81.371094 C 100.816406 82.140625 101.441406 82.765625 102.210938 82.765625 C 102.980469 82.765625 103.605469 82.140625 103.605469 81.371094 Z M 103.605469 81.371094 "/>
<path style=" stroke:none;fill-rule:nonzero;fill:rgb(0%,0%,0%);fill-opacity:1;" d="M 123.449219 81.371094 C 123.449219 80.601563 122.824219 79.976563 122.054688 79.976563 C 121.285156 79.976563 120.660156 80.601563 120.660156 81.371094 C 120.660156 82.140625 121.285156 82.765625 122.054688 82.765625 C 122.824219 82.765625 123.449219 82.140625 123.449219 81.371094 Z M 123.449219 81.371094 "/>
<path style=" stroke:none;fill-rule:nonzero;fill:rgb(0%,0%,0%);fill-opacity:1;" d="M 4.382813 61.527344 C 4.382813 60.757813 3.757813 60.132813 2.988281 60.132813 C 2.21875 60.132813 1.59375 60.757813 1.59375 61.527344 C 1.59375 62.296875 2.21875 62.921875 2.988281 62.921875 C 3.757813 62.921875 4.382813 62.296875 4.382813 61.527344 Z M 4.382813 61.527344 "/>
<path style=" stroke:none;fill-rule:nonzero;fill:rgb(0%,0%,0%);fill-opacity:1;" d="M 4.382813 41.683594 C 4.382813 40.914063 3.757813 40.289063 2.988281 40.289063 C 2.21875 40.289063 1.59375 40.914063 1.59375 41.683594 C 1.59375 42.453125 2.21875 43.078125 2.988281 43.078125 C 3.757813 43.078125 4.382813 42.453125 4.382813 41.683594 Z M 4.382813 41.683594 "/>
<path style=" stroke:none;fill-rule:nonzero;fill:rgb(0%,0%,0%);fill-opacity:1;" d="M 4.382813 21.839844 C 4.382813 21.066406 3.757813 20.445313 2.988281 20.445313 C 2.21875 20.445313 1.59375 21.066406 1.59375 21.839844 C 1.59375 22.609375 2.21875 23.234375 2.988281 23.234375 C 3.757813 23.234375 4.382813 22.609375 4.382813 21.839844 Z M 4.382813 21.839844 "/>
<path style=" stroke:none;fill-rule:nonzero;fill:rgb(0%,0%,0%);fill-opacity:1;" d="M 4.382813 1.996094 C 4.382813 1.222656 3.757813 0.597656 2.988281 0.597656 C 2.21875 0.597656 1.59375 1.222656 1.59375 1.996094 C 1.59375 2.765625 2.21875 3.390625 2.988281 3.390625 C 3.757813 3.390625 4.382813 2.765625 4.382813 1.996094 Z M 4.382813 1.996094 "/>
</g>
</svg>
