<?xml version="1.0" encoding="UTF-8"?>
<svg xmlns="http://www.w3.org/2000/svg" xmlns:xlink="http://www.w3.org/1999/xlink" width="125pt" height="85pt" viewBox="0 0 125 85" version="1.1">
<g id="surface1">
<path style=" stroke:none;fill-rule:nonzero;fill:rgb(0%,0%,0%);fill-opacity:1;" d="M 4.6875 82.371094 C 4.6875 81.601563 4.0625 80.976563 3.292969 80.976563 C 2.519531 80.976563 1.894531 81.601563 1.894531 82.371094 C 1.894531 83.140625 2.519531 83.765625 3.292969 83.765625 C 4.0625 83.765625 4.6875 83.140625 4.6875 82.371094 Z M 4.6875 82.371094 "/>
<path style=" stroke:none;fill-rule:nonzero;fill:rgb(0%,0%,0%);fill-opacity:1;" d="M 24.53125 82.371094 C 24.53125 81.601563 23.90625 80.976563 23.136719 80.976563 C 22.363281 80.976563 21.738281 81.601563 21.738281 82.371094 C 21.738281 83.140625 22.363281 83.765625 23.136719 83.765625 C 23.90625 83.765625 24.53125 83.140625 24.53125 82.371094 Z M 24.53125 82.371094 "/>
<path style=" stroke:none;fill-rule:nonzero;fill:rgb(0%,0%,0%);fill-opacity:1;" d="M 44.375 82.371094 C 44.375 81.601563 43.75 80.976563 42.980469 80.976563 C 42.207031 80.976563 41.582031 81.601563 41.582031 82.371094 C 41.582031 83.140625 42.207031 83.765625 42.980469 83.765625 C 43.75 83.765625 44.375 83.140625 44.375 82.371094 Z M 44.375 82.371094 "/>
<path style=" stroke:none;fill-rule:nonzero;fill:rgb(0%,0%,0%);fill-opacity:1;" d="M 64.21875 82.371094 C 64.21875 81.601563 63.59375 80.976563 62.820313 80.976563 C 62.050781 80.976563 61.425781 81.601563 61.425781 82.371094 C 61.425781 83.140625 62.050781 83.765625 62.820313 83.765625 C 63.59375 83.765625 64.21875 83.140625 64.21875 82.371094 Z M 64.21875 82.371094 "/>
<path style=" stroke:none;fill-rule:nonzero;fill:rgb(0%,0%,0%);fill-opacity:1;" d="M 84.0625 82.371094 C 84.0625 81.601563 83.4375 80.976563 82.664063 80.976563 C 81.894531 80.976563 81.269531 81.601563 81.269531 82.371094 C 81.269531 83.140625 81.894531 83.765625 82.664063 83.765625 C 83.4375 83.765625 84.0625 83.140625 84.0625 82.371094 Z M 84.0625 82.371094 "/>
<path style=" stroke:none;fill-rule:nonzero;fill:rgb(0%,0%,0%);fill-opacity:1;" d="M 103.90625 82.371094 C 103.90625 81.601563 103.28125 80.976563 102.507813 80.976563 C 101.738281 80.976563 101.113281 81.601563 101.113281 82.371094 C 101.113281 83.140625 101.738281 83.765625 102.507813 83.765625 C 103.28125 83.765625 103.90625 83.140625 103.90625 82.371094 Z M 103.90625 82.371094 "/>
<path style=" stroke:none;fill-rule:nonzero;fill:rgb(0%,0%,0%);fill-opacity:1;" d="M 123.75 82.371094 C 123.75 81.601563 123.125 80.976563 122.351563 80.976563 C 121.582031 80.976563 120.957031 81.601563 120.957031 82.371094 C 120.957031 83.140625 121.582031 83.765625 122.351563 83.765625 C 123.125 83.765625 123.75 83.140625 123.75 82.371094 Z M 123.75 82.371094 "/>
<path style=" stroke:none;fill-rule:nonzero;fill:rgb(0%,0%,0%);fill-opacity:1;" d="M 4.6875 62.527344 C 4.6875 61.757813 4.0625 61.132813 3.292969 61.132813 C 2.519531 61.132813 1.894531 61.757813 1.894531 62.527344 C 1.894531 63.296875 2.519531 63.921875 3.292969 63.921875 C 4.0625 63.921875 4.6875 63.296875 4.6875 62.527344 Z M 4.6875 62.527344 "/>
<path style=" stroke:none;fill-rule:nonzero;fill:rgb(0%,0%,0%);fill-opacity:1;" d="M 4.6875 42.683594 C 4.6875 41.914063 4.0625 41.289063 3.292969 41.289063 C 2.519531 41.289063 1.894531 41.914063 1.894531 42.683594 C 1.894531 43.453125 2.519531 44.078125 3.292969 44.078125 C 4.0625 44.078125 4.6875 43.453125 4.6875 42.683594 Z M 4.6875 42.683594 "/>
<path style=" stroke:none;fill-rule:nonzero;fill:rgb(0%,0%,0%);fill-opacity:1;" d="M 4.6875 22.839844 C 4.6875 22.066406 4.0625 21.445313 3.292969 21.445313 C 2.519531 21.445313 1.894531 22.066406 1.894531 22.839844 C 1.894531 23.609375 2.519531 24.234375 3.292969 24.234375 C 4.0625 24.234375 4.6875 23.609375 4.6875 22.839844 Z M 4.6875 22.839844 "/>
<path style=" stroke:none;fill-rule:nonzero;fill:rgb(0%,0%,0%);fill-opacity:1;" d="M 4.6875 2.996094 C 4.6875 2.222656 4.0625 1.597656 3.292969 1.597656 C 2.519531 1.597656 1.894531 2.222656 1.894531 2.996094 C 1.894531 3.765625 2.519531 4.390625 3.292969 4.390625 C 4.0625 4.390625 4.6875 3.765625 4.6875 2.996094 Z M 4.6875 2.996094 "/>
</g>
</svg>
