<svg xmlns="http://www.w3.org/2000/svg" xmlns:xlink="http://www.w3.org/1999/xlink" version="1.1" width="162pt" height="162pt" viewBox="0 0 162 162">
<path transform="matrix(1,0,0,-1,80.76401,95.307)" stroke-width="1.19553" stroke-linecap="butt" stroke-miterlimit="10" stroke-linejoin="miter" fill="none" stroke="#000000" d="M-53.1626-42.5202 0-56.69362H53.1626M0-56.69362 70.88348 0H0-70.88348L0-28.3468M-70.88348 0-35.44173 85.04042 17.72083 56.69362M0 0 35.44173 21.2601M0 0-35.44173 28.3468 70.88348 35.43349 17.72083 85.04042"/>
<path transform="matrix(1,0,0,-1,80.76401,95.307)" stroke-width="1.19553" stroke-linecap="butt" stroke-miterlimit="10" stroke-linejoin="miter" fill="none" stroke="#000000" d="M0 0V-28.3468L70.88348 0 53.1626-56.69362M0-28.3468V-56.69362M0-28.3468-53.1626-42.5202-70.88348 0-35.44173 28.3468V85.04042H17.72083V56.69362L70.88348 35.43349V0L35.44173 21.2601-35.44173 28.3468 0 0M-35.44173 28.3468 17.72083 56.69362"/>
<path transform="matrix(1,0,0,-1,80.76401,95.307)" stroke-width=".3985" stroke-linecap="butt" stroke-miterlimit="10" stroke-linejoin="miter" fill="none" stroke="#000000" d="M0 0"/>
<path transform="matrix(1,0,0,-1,80.76401,95.307)" d="M8.46835 0C8.46835 4.67699 4.67699 8.46835 0 8.46835-4.67699 8.46835-8.46835 4.67699-8.46835 0-8.46835-4.67699-4.67699-8.46835 0-8.46835 4.67699-8.46835 8.46835-4.67699 8.46835 0ZM0 0" fill="#ffffff"/>
<path transform="matrix(1,0,0,-1,80.76401,95.307)" stroke-width=".3985" stroke-linecap="butt" stroke-miterlimit="10" stroke-linejoin="miter" fill="none" stroke="#000000" d="M8.46835 0C8.46835 4.67699 4.67699 8.46835 0 8.46835-4.67699 8.46835-8.46835 4.67699-8.46835 0-8.46835-4.67699-4.67699-8.46835 0-8.46835 4.67699-8.46835 8.46835-4.67699 8.46835 0ZM0 0"/>
<path transform="matrix(1,0,0,-1,80.76401,95.307)" stroke-width=".3985" stroke-linecap="butt" stroke-miterlimit="10" stroke-linejoin="miter" fill="none" stroke="#000000" d="M-70.88348 0"/>
<path transform="matrix(1,0,0,-1,80.76401,95.307)" d="M-62.41513 0C-62.41513 4.67699-66.2065 8.46835-70.88348 8.46835-75.56049 8.46835-79.35184 4.67699-79.35184 0-79.35184-4.67699-75.56049-8.46835-70.88348-8.46835-66.2065-8.46835-62.41513-4.67699-62.41513 0ZM-70.88348 0" fill="#ffffff"/>
<path transform="matrix(1,0,0,-1,80.76401,95.307)" stroke-width=".3985" stroke-linecap="butt" stroke-miterlimit="10" stroke-linejoin="miter" fill="none" stroke="#000000" d="M-62.41513 0C-62.41513 4.67699-66.2065 8.46835-70.88348 8.46835-75.56049 8.46835-79.35184 4.67699-79.35184 0-79.35184-4.67699-75.56049-8.46835-70.88348-8.46835-66.2065-8.46835-62.41513-4.67699-62.41513 0ZM-70.88348 0"/>
<path transform="matrix(1,0,0,-1,80.76401,95.307)" stroke-width=".3985" stroke-linecap="butt" stroke-miterlimit="10" stroke-linejoin="miter" fill="none" stroke="#000000" d="M70.88348 0"/>
<path transform="matrix(1,0,0,-1,80.76401,95.307)" d="M79.35184 0C79.35184 4.67699 75.56049 8.46835 70.88348 8.46835 66.2065 8.46835 62.41513 4.67699 62.41513 0 62.41513-4.67699 66.2065-8.46835 70.88348-8.46835 75.56049-8.46835 79.35184-4.67699 79.35184 0ZM70.88348 0" fill="#ffffff"/>
<path transform="matrix(1,0,0,-1,80.76401,95.307)" stroke-width=".3985" stroke-linecap="butt" stroke-miterlimit="10" stroke-linejoin="miter" fill="none" stroke="#000000" d="M79.35184 0C79.35184 4.67699 75.56049 8.46835 70.88348 8.46835 66.2065 8.46835 62.41513 4.67699 62.41513 0 62.41513-4.67699 66.2065-8.46835 70.88348-8.46835 75.56049-8.46835 79.35184-4.67699 79.35184 0ZM70.88348 0"/>
<path transform="matrix(1,0,0,-1,80.76401,95.307)" stroke-width=".3985" stroke-linecap="butt" stroke-miterlimit="10" stroke-linejoin="miter" fill="none" stroke="#000000" d="M0-28.3468"/>
<path transform="matrix(1,0,0,-1,80.76401,95.307)" d="M8.46835-28.3468C8.46835-23.6698 4.67699-19.87845 0-19.87845-4.67699-19.87845-8.46835-23.6698-8.46835-28.3468-8.46835-33.0238-4.67699-36.81516 0-36.81516 4.67699-36.81516 8.46835-33.0238 8.46835-28.3468ZM0-28.3468" fill="#ffffff"/>
<path transform="matrix(1,0,0,-1,80.76401,95.307)" stroke-width=".3985" stroke-linecap="butt" stroke-miterlimit="10" stroke-linejoin="miter" fill="none" stroke="#000000" d="M8.46835-28.3468C8.46835-23.6698 4.67699-19.87845 0-19.87845-4.67699-19.87845-8.46835-23.6698-8.46835-28.3468-8.46835-33.0238-4.67699-36.81516 0-36.81516 4.67699-36.81516 8.46835-33.0238 8.46835-28.3468ZM0-28.3468"/>
<path transform="matrix(1,0,0,-1,80.76401,95.307)" stroke-width=".3985" stroke-linecap="butt" stroke-miterlimit="10" stroke-linejoin="miter" fill="none" stroke="#000000" d="M0-56.69362"/>
<path transform="matrix(1,0,0,-1,80.76401,95.307)" d="M8.46835-56.69362C8.46835-52.01662 4.67699-48.22527 0-48.22527-4.67699-48.22527-8.46835-52.01662-8.46835-56.69362-8.46835-61.3706-4.67699-65.16197 0-65.16197 4.67699-65.16197 8.46835-61.3706 8.46835-56.69362ZM0-56.69362" fill="#ffffff"/>
<path transform="matrix(1,0,0,-1,80.76401,95.307)" stroke-width=".3985" stroke-linecap="butt" stroke-miterlimit="10" stroke-linejoin="miter" fill="none" stroke="#000000" d="M8.46835-56.69362C8.46835-52.01662 4.67699-48.22527 0-48.22527-4.67699-48.22527-8.46835-52.01662-8.46835-56.69362-8.46835-61.3706-4.67699-65.16197 0-65.16197 4.67699-65.16197 8.46835-61.3706 8.46835-56.69362ZM0-56.69362"/>
<path transform="matrix(1,0,0,-1,80.76401,95.307)" stroke-width=".3985" stroke-linecap="butt" stroke-miterlimit="10" stroke-linejoin="miter" fill="none" stroke="#000000" d="M-53.1626-42.5202"/>
<path transform="matrix(1,0,0,-1,80.76401,95.307)" d="M-44.69424-42.5202C-44.69424-37.8432-48.48561-34.05185-53.1626-34.05185-57.8396-34.05185-61.63095-37.8432-61.63095-42.5202-61.63095-47.19719-57.8396-50.98856-53.1626-50.98856-48.48561-50.98856-44.69424-47.19719-44.69424-42.5202ZM-53.1626-42.5202" fill="#ffffff"/>
<path transform="matrix(1,0,0,-1,80.76401,95.307)" stroke-width=".3985" stroke-linecap="butt" stroke-miterlimit="10" stroke-linejoin="miter" fill="none" stroke="#000000" d="M-44.69424-42.5202C-44.69424-37.8432-48.48561-34.05185-53.1626-34.05185-57.8396-34.05185-61.63095-37.8432-61.63095-42.5202-61.63095-47.19719-57.8396-50.98856-53.1626-50.98856-48.48561-50.98856-44.69424-47.19719-44.69424-42.5202ZM-53.1626-42.5202"/>
<path transform="matrix(1,0,0,-1,80.76401,95.307)" stroke-width=".3985" stroke-linecap="butt" stroke-miterlimit="10" stroke-linejoin="miter" fill="none" stroke="#000000" d="M-35.44173 85.04042"/>
<path transform="matrix(1,0,0,-1,80.76401,95.307)" d="M-26.97337 85.04042C-26.97337 89.71742-30.76474 93.50877-35.44173 93.50877-40.11873 93.50877-43.91008 89.71742-43.91008 85.04042-43.91008 80.36343-40.11873 76.57207-35.44173 76.57207-30.76474 76.57207-26.97337 80.36343-26.97337 85.04042ZM-35.44173 85.04042" fill="#ffffff"/>
<path transform="matrix(1,0,0,-1,80.76401,95.307)" stroke-width=".3985" stroke-linecap="butt" stroke-miterlimit="10" stroke-linejoin="miter" fill="none" stroke="#000000" d="M-26.97337 85.04042C-26.97337 89.71742-30.76474 93.50877-35.44173 93.50877-40.11873 93.50877-43.91008 89.71742-43.91008 85.04042-43.91008 80.36343-40.11873 76.57207-35.44173 76.57207-30.76474 76.57207-26.97337 80.36343-26.97337 85.04042ZM-35.44173 85.04042"/>
<path transform="matrix(1,0,0,-1,80.76401,95.307)" stroke-width=".3985" stroke-linecap="butt" stroke-miterlimit="10" stroke-linejoin="miter" fill="none" stroke="#000000" d="M17.72083 56.69362"/>
<path transform="matrix(1,0,0,-1,80.76401,95.307)" d="M26.18918 56.69362C26.18918 61.3706 22.39783 65.16197 17.72083 65.16197 13.04384 65.16197 9.25247 61.3706 9.25247 56.69362 9.25247 52.01662 13.04384 48.22527 17.72083 48.22527 22.39783 48.22527 26.18918 52.01662 26.18918 56.69362ZM17.72083 56.69362" fill="#ffffff"/>
<path transform="matrix(1,0,0,-1,80.76401,95.307)" stroke-width=".3985" stroke-linecap="butt" stroke-miterlimit="10" stroke-linejoin="miter" fill="none" stroke="#000000" d="M26.18918 56.69362C26.18918 61.3706 22.39783 65.16197 17.72083 65.16197 13.04384 65.16197 9.25247 61.3706 9.25247 56.69362 9.25247 52.01662 13.04384 48.22527 17.72083 48.22527 22.39783 48.22527 26.18918 52.01662 26.18918 56.69362ZM17.72083 56.69362"/>
<path transform="matrix(1,0,0,-1,80.76401,95.307)" stroke-width=".3985" stroke-linecap="butt" stroke-miterlimit="10" stroke-linejoin="miter" fill="none" stroke="#000000" d="M-35.44173 28.3468"/>
<path transform="matrix(1,0,0,-1,80.76401,95.307)" d="M-26.97337 28.3468C-26.97337 33.0238-30.76474 36.81516-35.44173 36.81516-40.11873 36.81516-43.91008 33.0238-43.91008 28.3468-43.91008 23.6698-40.11873 19.87845-35.44173 19.87845-30.76474 19.87845-26.97337 23.6698-26.97337 28.3468ZM-35.44173 28.3468" fill="#ffffff"/>
<path transform="matrix(1,0,0,-1,80.76401,95.307)" stroke-width=".3985" stroke-linecap="butt" stroke-miterlimit="10" stroke-linejoin="miter" fill="none" stroke="#000000" d="M-26.97337 28.3468C-26.97337 33.0238-30.76474 36.81516-35.44173 36.81516-40.11873 36.81516-43.91008 33.0238-43.91008 28.3468-43.91008 23.6698-40.11873 19.87845-35.44173 19.87845-30.76474 19.87845-26.97337 23.6698-26.97337 28.3468ZM-35.44173 28.3468"/>
<path transform="matrix(1,0,0,-1,80.76401,95.307)" stroke-width=".3985" stroke-linecap="butt" stroke-miterlimit="10" stroke-linejoin="miter" fill="none" stroke="#000000" d="M35.44173 21.2601"/>
<path transform="matrix(1,0,0,-1,80.76401,95.307)" d="M43.91008 21.2601C43.91008 25.93709 40.11873 29.72845 35.44173 29.72845 30.76474 29.72845 26.97337 25.93709 26.97337 21.2601 26.97337 16.5831 30.76474 12.79175 35.44173 12.79175 40.11873 12.79175 43.91008 16.5831 43.91008 21.2601ZM35.44173 21.2601" fill="#ffffff"/>
<path transform="matrix(1,0,0,-1,80.76401,95.307)" stroke-width=".3985" stroke-linecap="butt" stroke-miterlimit="10" stroke-linejoin="miter" fill="none" stroke="#000000" d="M43.91008 21.2601C43.91008 25.93709 40.11873 29.72845 35.44173 29.72845 30.76474 29.72845 26.97337 25.93709 26.97337 21.2601 26.97337 16.5831 30.76474 12.79175 35.44173 12.79175 40.11873 12.79175 43.91008 16.5831 43.91008 21.2601ZM35.44173 21.2601"/>
<path transform="matrix(1,0,0,-1,80.76401,95.307)" stroke-width=".3985" stroke-linecap="butt" stroke-miterlimit="10" stroke-linejoin="miter" fill="none" stroke="#000000" d="M70.88348 35.43349"/>
<path transform="matrix(1,0,0,-1,80.76401,95.307)" d="M79.35184 35.43349C79.35184 40.11049 75.56049 43.90184 70.88348 43.90184 66.2065 43.90184 62.41513 40.11049 62.41513 35.43349 62.41513 30.7565 66.2065 26.96513 70.88348 26.96513 75.56049 26.96513 79.35184 30.7565 79.35184 35.43349ZM70.88348 35.43349" fill="#ffffff"/>
<path transform="matrix(1,0,0,-1,80.76401,95.307)" stroke-width=".3985" stroke-linecap="butt" stroke-miterlimit="10" stroke-linejoin="miter" fill="none" stroke="#000000" d="M79.35184 35.43349C79.35184 40.11049 75.56049 43.90184 70.88348 43.90184 66.2065 43.90184 62.41513 40.11049 62.41513 35.43349 62.41513 30.7565 66.2065 26.96513 70.88348 26.96513 75.56049 26.96513 79.35184 30.7565 79.35184 35.43349ZM70.88348 35.43349"/>
<path transform="matrix(1,0,0,-1,80.76401,95.307)" stroke-width=".3985" stroke-linecap="butt" stroke-miterlimit="10" stroke-linejoin="miter" fill="none" stroke="#000000" d="M17.72083 85.04042"/>
<path transform="matrix(1,0,0,-1,80.76401,95.307)" d="M26.18918 85.04042C26.18918 89.71742 22.39783 93.50877 17.72083 93.50877 13.04384 93.50877 9.25247 89.71742 9.25247 85.04042 9.25247 80.36343 13.04384 76.57207 17.72083 76.57207 22.39783 76.57207 26.18918 80.36343 26.18918 85.04042ZM17.72083 85.04042" fill="#ffffff"/>
<path transform="matrix(1,0,0,-1,80.76401,95.307)" stroke-width=".3985" stroke-linecap="butt" stroke-miterlimit="10" stroke-linejoin="miter" fill="none" stroke="#000000" d="M26.18918 85.04042C26.18918 89.71742 22.39783 93.50877 17.72083 93.50877 13.04384 93.50877 9.25247 89.71742 9.25247 85.04042 9.25247 80.36343 13.04384 76.57207 17.72083 76.57207 22.39783 76.57207 26.18918 80.36343 26.18918 85.04042ZM17.72083 85.04042"/>
<path transform="matrix(1,0,0,-1,80.76401,95.307)" stroke-width=".3985" stroke-linecap="butt" stroke-miterlimit="10" stroke-linejoin="miter" fill="none" stroke="#000000" d="M53.1626-56.69362"/>
<path transform="matrix(1,0,0,-1,80.76401,95.307)" d="M61.63095-56.69362C61.63095-52.01662 57.8396-48.22527 53.1626-48.22527 48.48561-48.22527 44.69424-52.01662 44.69424-56.69362 44.69424-61.3706 48.48561-65.16197 53.1626-65.16197 57.8396-65.16197 61.63095-61.3706 61.63095-56.69362ZM53.1626-56.69362" fill="#ffffff"/>
<path transform="matrix(1,0,0,-1,80.76401,95.307)" stroke-width=".3985" stroke-linecap="butt" stroke-miterlimit="10" stroke-linejoin="miter" fill="none" stroke="#000000" d="M61.63095-56.69362C61.63095-52.01662 57.8396-48.22527 53.1626-48.22527 48.48561-48.22527 44.69424-52.01662 44.69424-56.69362 44.69424-61.3706 48.48561-65.16197 53.1626-65.16197 57.8396-65.16197 61.63095-61.3706 61.63095-56.69362ZM53.1626-56.69362"/>
</svg>
